<?xml version="1.0" encoding="utf-8"?>
<!-- Generator: Adobe Illustrator 16.0.0, SVG Export Plug-In . SVG Version: 6.00 Build 0)  -->
<!DOCTYPE svg PUBLIC "-//W3C//DTD SVG 1.1//EN" "http://www.w3.org/Graphics/SVG/1.1/DTD/svg11.dtd">
<svg version="1.1" id="Layer_1" xmlns="http://www.w3.org/2000/svg" xmlns:xlink="http://www.w3.org/1999/xlink" x="0px" y="0px"
	 width="160px" height="126px" viewBox="2560 1864 160 126" enable-background="new 2560 1864 160 126" xml:space="preserve">
<image overflow="visible" enable-background="new    " width="942" height="1120" xlink:href="../../../../../../../Desktop/Screen Shot 2015-05-09 at 1.33.03 PM.png"  transform="matrix(0.5 0 0 0.5 -8130.0127 -8051.0127)">
</image>
<g>
	<path fill="none" stroke="#FFFFFF" stroke-width="2" stroke-miterlimit="10" d="M-524.5,750.5c0,68.8-56.2,125-125,125h-532
		c-68.8,0-125-56.2-125-125v-610c0-68.8,56.2-125,125-125h532c68.8,0,125,56.2,125,125V750.5z"/>
</g>
<g>
	<path fill="none" stroke="#FFFFFF" stroke-width="2" stroke-miterlimit="10" d="M-550.7,758.8c0,48.3-39.5,87.9-87.9,87.9h-553.8
		c-48.3,0-87.9-39.5-87.9-87.9V132.3c0-48.3,39.5-87.9,87.9-87.9h553.8c48.3,0,87.9,39.5,87.9,87.9V758.8z"/>
</g>
<g>
	<text transform="matrix(1 0 0 1 -802.8125 214.541)" fill="#FFFFFF" font-family="'HelveticaNeue'" font-size="27.9267">SAVENERGY</text>
	<path fill="#FFFFFF" d="M-669,93.7c-11.2,0-21.4,4.6-28.7,11.9l-51.2,50.2c-5.5,5.5-13.1,8.9-21.5,8.9c-16.8,0-30.4-13.7-30.4-30.5
		c0-16.8,13.7-30.5,30.4-30.5c8.4,0,16,3.4,21.5,8.9l5.2,5.1c-0.8,1.9-1.3,4-1.3,6.3c0,4.2,1.7,8,4.5,10.8l21.5-21.5
		c-2.8-2.8-6.6-4.5-10.8-4.5c-2.5,0-4.8,0.6-6.8,1.7l-5-5c-7.4-7.4-17.5-11.9-28.7-11.9c-22.4,0-40.6,18.2-40.6,40.6
		c0,22.4,18.2,40.6,40.6,40.6c11.2,0,21.4-4.6,28.7-11.9l51.2-50.1c5.5-5.5,13.1-8.9,21.5-8.9c16.8,0,30.4,13.7,30.4,30.5
		c0,16.8-13.7,30.5-30.4,30.5c-6,0-11.5-1.7-16.2-4.7c0.6-1.7,1-3.5,1-5.4c0-4.2-1.7-8-4.5-10.8l-3.9,3.9l-10.1-10.1l-3.6,3.6
		l10.1,10.1l-6.6,6.6l-10.1-10.1l-3.6,3.6l10.1,10.1l-3.9,3.9c2.8,2.8,6.6,4.5,10.8,4.5c2.8,0,5.3-0.8,7.5-2
		c6.5,4.5,14.4,7.1,22.9,7.1c22.4,0,40.6-18.2,40.6-40.6C-628.4,112-646.6,93.7-669,93.7z"/>
</g>
<g>
	<path fill="none" stroke="#FFFFFF" stroke-width="2" stroke-miterlimit="10" d="M-1197.5,318.7c0,4.7-3.8,8.5-8.5,8.5h-1
		c-4.7,0-8.5-3.8-8.5-8.5v-46c0-4.7,3.8-8.5,8.5-8.5h1c4.7,0,8.5,3.8,8.5,8.5V318.7z"/>
</g>
<g>
	<path fill="#FFFFFF" d="M-1242.3,286.1v4.4c3.2,1.2,5.5,4.3,5.5,8c0,4.7-3.8,8.6-8.6,8.6c-4.8,0-8.6-3.8-8.6-8.6
		c0-3.6,2.3-6.7,5.5-8v-4.4c-5.5,1.4-9.6,6.4-9.6,12.3c0,7,5.7,12.7,12.7,12.7s12.7-5.7,12.7-12.7
		C-1232.7,292.5-1236.8,287.5-1242.3,286.1z"/>
	<rect x="-1247.5" y="284.1" fill="#FFFFFF" width="4.2" height="18.4"/>
</g>
<image overflow="visible" enable-background="new    " width="942" height="1120" xlink:href="../../../../../../../Desktop/Screen Shot 2015-05-09 at 1.33.03 PM.png"  transform="matrix(0.5 0 0 0.5 -8130.0127 -8051.0127)">
</image>
<image overflow="visible" enable-background="new    " width="942" height="1120" xlink:href="../../../../../../../Desktop/Screen Shot 2015-05-09 at 1.33.03 PM.png"  transform="matrix(0.5 0 0 0.5 -8130.0127 -8051.0127)">
</image>
<g>
	<g>
		<path fill="#808080" d="M1912.157,186.6c0,7.801-6.4,14.2-14.201,14.2h-2.299c-7.801,0-14.201-6.399-14.201-14.2v-143
			c0-7.8,6.4-14.199,14.201-14.199h2.299c7.801,0,14.201,6.399,14.201,14.199V186.6z"/>
	</g>
	<g>
		<path fill="#808080" d="M2042.356,186.6c0,7.801-6.4,14.2-14.199,14.2h-2.301c-7.799,0-14.199-6.399-14.199-14.2v-143
			c0-7.8,6.4-14.199,14.199-14.199h2.301c7.799,0,14.199,6.399,14.199,14.199V186.6z"/>
	</g>
	<g>
		<path fill="#808080" d="M1976.856,197.8c0,7.8-6.4,14.2-14.199,14.2h-2.301c-7.799,0-14.199-6.4-14.199-14.2v-143
			c0-7.8,6.4-14.2,14.199-14.2h2.301c7.799,0,14.199,6.4,14.199,14.2V197.8z"/>
	</g>
	<polygon fill="#4D4D4D" points="1834.757,60 1885.257,83.2 1896.456,86.2 2024.356,86.2 2038.657,84 2085.356,63.8 	"/>
	<path fill="#FFFFFF" d="M2209.157-159c-4.801-40.7-52.9-134-65.6-158.6c-4-7.8-12.701-10.6-31.602-10.6
		c-34.898,0-76.5-0.7-142.199-0.6c-65.699-0.1-118.6,0-153.5,0.6c-8.301,0.2-26.2-1.3-31.6,10.6
		c-11.701,30.7-49.601,117.9-54.4,158.6c-6,50.7,2.699,154,3.5,204c0.199,10.8,25.4,23.9,36.199,23.8
		c43.4-0.3,120.5-0.399,198.5-0.399l0,0c0.4,0,0.9,0,1.301,0s0.9,0,1.301,0l0,0c77.898,0,155.1,0,198.5,0.399
		c10.799,0.101,36-13,36.199-23.8C2206.456-5.1,2215.157-108.4,2209.157-159z"/>
	<g>
		<g>
			<path fill="#069BE9" d="M1910.657-261.8c11.4,0,21.799-1.7,29.299-4.4l52.4-18.5c5.6-2,13.4-3.3,22-3.3
				c17.201,0,31.1,5,31.1,11.2c0,6.2-14,11.2-31.1,11.2c-8.6,0-16.4-1.3-22-3.3l-5.299-1.9c0.898-0.7,1.398-1.5,1.398-2.3
				c0-1.5-1.699-2.9-4.6-4l-22,7.9c2.801,1,6.701,1.6,11,1.6c2.5,0,4.9-0.2,7-0.6l5.201,1.8c7.5,2.7,17.898,4.4,29.299,4.4
				c22.9,0,41.5-6.7,41.5-15s-18.6-15-41.5-15c-11.4,0-21.799,1.7-29.299,4.4l-52.4,18.5c-5.6,2-13.4,3.3-22,3.3
				c-17.201,0-31.1-5-31.1-11.2s14-11.2,31.1-11.2c6.1,0,11.799,0.6,16.6,1.7c-0.6,0.6-1,1.3-1,2c0,1.5,1.699,2.9,4.6,4l4-1.4
				l10.4,3.7l3.699-1.3l-10.398-3.7l6.699-2.4l10.4,3.7l3.699-1.3l-10.4-3.7l4-1.4c-2.799-1-6.699-1.6-11-1.6
				c-2.799,0-5.398,0.3-7.699,0.7c-6.699-1.6-14.699-2.6-23.4-2.6c-22.9,0-41.5,6.7-41.5,15
				C1869.157-268.5,1887.757-261.8,1910.657-261.8z"/>
		</g>
	</g>
	<path fill="#808080" d="M1733.557,36.9c0.101,2.8,0.101,5.5,0.2,8.1c0.199,10.8,25.4,23.9,36.199,23.8
		c43.4-0.3,120.5-0.399,198.5-0.399l0,0c0.4,0,0.9,0,1.301,0s0.9,0,1.301,0l0,0c77.898,0,155.1,0,198.5,0.399
		c10.799,0.101,36-13,36.199-23.8c0-2.6,0.1-5.3,0.199-8.1c0,0-16.299,15-39.398,15c-49.201,0-196.9,0-196.9,0h-199.801
		C1750.356,51.8,1733.557,36.9,1733.557,36.9z"/>
	<g>
		<g>
			<defs>
				<rect id="SVGID_1_" x="1859.456" y="-104.2" width="220.5" height="64.4"/>
			</defs>
			<clipPath id="SVGID_2_">
				<use xlink:href="#SVGID_1_"  overflow="visible"/>
			</clipPath>
			<g clip-path="url(#SVGID_2_)">
				<g>
					<circle fill="#4D4D4D" cx="2044.956" cy="-65.9" r="18"/>
					<path fill="#1A1A1A" d="M2044.956-53.5c-9,0-16.398-6.6-17.699-15.2c-0.1,0.9-0.199,1.8-0.199,2.8c0,9.9,8,18,18,18
						c9.898,0,18-8,18-18c0-1-0.102-1.899-0.201-2.8C2061.356-60.1,2053.956-53.5,2044.956-53.5z"/>
				</g>
				<g>
					<circle fill="#4D4D4D" cx="1969.657" cy="-95" r="18"/>
					<path fill="#1A1A1A" d="M1969.657-82.6c-9,0-16.4-6.601-17.701-15.2c-0.1,0.9-0.199,1.8-0.199,2.8c0,9.9,8,18,18,18
						c9.9,0,18-8,18-18c0-1-0.1-1.9-0.199-2.8C1986.058-89.2,1978.657-82.6,1969.657-82.6z"/>
				</g>
				<g>
					<circle fill="#4D4D4D" cx="1894.157" cy="-65.9" r="18"/>
					<path fill="#1A1A1A" d="M1894.157-53.5c-9,0-16.4-6.6-17.701-15.2c-0.1,0.9-0.199,1.8-0.199,2.8c0,9.9,8,18,18,18
						c9.9,0,18-8,18-18c0-1-0.1-1.899-0.199-2.8C1910.558-60.1,1903.157-53.5,1894.157-53.5z"/>
				</g>
			</g>
		</g>
	</g>
	<polygon fill="#B8B8B8" points="2110.257,-52.4 2059.856,-7.8 2046.956,-1.7 1971.956,-2.1 1971.956,-2.1 1971.757,-2.1 
		1971.657,-2.1 1971.657,-2.1 1896.558,-1.7 1883.757,-7.8 1833.356,-52.4 1821.257,-39.8 1821.257,-27.2 1826.157,-19.6 
		1881.558,30.9 1896.356,36.9 1971.657,36.9 1971.956,36.9 2047.257,36.9 2062.058,30.9 2117.456,-19.6 2122.356,-27.2 
		2122.356,-39.8 	"/>
	
		<line fill="none" stroke="#CCCCCC" stroke-width="0.75" stroke-linecap="round" stroke-miterlimit="10" x1="1832.356" y1="-147.5" x2="2108.456" y2="-147.5"/>
</g>
<g>
	<g>
		<path fill="#808080" d="M1258.392,318.886c0,6.236-5.103,11.339-11.338,11.339h-8.891c-6.236,0-11.339-5.103-11.339-11.339
			V165.423c0-6.236,5.103-11.339,11.339-11.339h8.891c6.235,0,11.338,5.103,11.338,11.339V318.886z"/>
	</g>
	<g>
		<path fill="#808080" d="M1330.995,318.886c0,6.236-5.104,11.339-11.34,11.339h-6.996c-6.235,0-11.338-5.103-11.338-11.339V165.423
			c0-6.236,5.103-11.339,11.338-11.339h6.996c6.236,0,11.34,5.103,11.34,11.339V318.886z"/>
	</g>
	<g>
		<path fill="#808080" d="M1386.552,298.052c0,6.236-5.104,11.339-11.34,11.339h-5.73c-6.236,0-11.34-5.103-11.34-11.339V156.585
			c0-6.236,5.104-11.339,11.34-11.339h5.73c6.236,0,11.34,5.103,11.34,11.339V298.052z"/>
	</g>
	<polygon fill="#4D4D4D" points="1189.441,168.463 1189.441,200.064 1199.101,203.68 1253.705,212.145 1265.718,212.145 
		1396.769,196.309 1405.231,193.031 1424.071,174.193 1425.163,152.078 	"/>
	<path fill="#FFFFFF" d="M993.567-181.604c-0.661,43.45,2.666,184.252,2.666,184.252l178.573,167.539l67.802,4.391
		c0,0,279.07-33.82,370.332-42.432c16.066-1.516,14.967-22.27,14.967-22.27s9.023-159.594,13.648-210.558
		c0.189-2.088-2.959-5.971-4.875-6.824c-66.16-29.48-221-81.054-278.539-100.405c-10.746-3.614-45.305-1.915-45.305-1.915
		l-297.693,17.361C1015.144-192.464,993.72-191.599,993.567-181.604z"/>
	<path fill="#B8B8B8" d="M1496.548-40.699l29.217,29.668c0,0,3.02,6.661,2.248,13.485c-0.801,7.104-5.395,14.384-5.395,14.384
		l-49.895,57.538c0,0-3.465,2.078-6.881,4.129c-3.324,1.994-6.605,3.963-6.605,3.963l-141.715,15.283l25.291,26.971
		c0,0,3.516,2.285,7.193,3.146c3.977,0.936,8.135,0.449,8.135,0.449l147.846-17.082c0,0,3.357-2.125,6.723-4.256
		c3.377-2.139,6.762-4.283,6.762-4.283l54.393-58.887c0,0,4.945-7.23,4.945-14.834c0-7.454-4.945-15.284-4.945-15.284
		l-46.301-51.694c0,0-3.15-2.962-6.293-4.045c-3.367-1.162-6.742-0.45-6.742-0.45L1496.548-40.699z"/>
	<path fill="#B8B8B8" d="M1619.649,117.605c-6.232,2.631-16.227,2.615-16.227,2.615s-2.525,2.549-5.285,4.922
		c-2.676,2.299-7.855,3.301-7.855,3.301l-322.603,38.918c0,0-4.857,0.043-8.83-2.516c-2.613-1.508-5.091-4.057-5.091-4.057
		l-49.113,2.736c0,0-7.002-0.43-17.346-2.736c-10.793-2.41-22.354-9.441-22.354-9.441L995.961-9.236l0.272,11.885l168.712,162.369
		c0,0,10.831,7.91,28.396,10.875c19.216,3.242,49.267,1.559,49.267,1.559l358.549-43.699c0,0,10.553,0.01,16.678-3.033
		c9.363-3.904,9.955-17.379,9.955-17.379l0.117-3.463C1627.907,109.877,1625.655,115.066,1619.649,117.605z"/>
	<g>
		<defs>
			<polygon id="SVGID_3_" points="1349.835,-28.208 1283.519,47.004 1328.288,74.502 1468.718,42.866 1499.448,-3.945 
				1485.7,-42.713 			"/>
		</defs>
		<clipPath id="SVGID_4_">
			<use xlink:href="#SVGID_3_"  overflow="visible"/>
		</clipPath>
		<circle clip-path="url(#SVGID_4_)" fill="#4D4D4D" cx="1390.297" cy="-16.386" r="17.95"/>
		<path clip-path="url(#SVGID_4_)" fill="#1A1A1A" d="M1402.438-29.579c1.312,2.494,2.062,5.328,2.062,8.341
			c0,9.914-8.035,17.95-17.949,17.95c-4.689,0-8.945-1.812-12.143-4.758c3.004,5.711,8.986,9.61,15.887,9.61
			c9.914,0,17.951-8.037,17.951-17.951C1408.247-21.61,1406.001-26.298,1402.438-29.579z"/>
		<circle clip-path="url(#SVGID_4_)" fill="#4D4D4D" cx="1461.41" cy="8.714" r="17.95"/>
		<path clip-path="url(#SVGID_4_)" fill="#1A1A1A" d="M1466.081-8.601c4.16,3.287,6.838,8.367,6.838,14.08
			c0,9.914-8.035,17.95-17.949,17.95c-1.619,0-3.18-0.234-4.67-0.636c3.057,2.417,6.91,3.871,11.111,3.871
			c9.914,0,17.949-8.037,17.949-17.95C1479.36,0.418,1473.728-6.542,1466.081-8.601z"/>
		<circle clip-path="url(#SVGID_4_)" fill="#4D4D4D" cx="1316.159" cy="24.915" r="17.95"/>
		<path clip-path="url(#SVGID_4_)" fill="#1A1A1A" d="M1321.521,7.781c3.02,3.212,4.885,7.525,4.885,12.282
			c0,9.914-8.037,17.951-17.95,17.951c-1.868,0-3.669-0.287-5.363-0.816c3.274,3.481,7.91,5.668,13.067,5.668
			c9.914,0,17.949-8.037,17.949-17.951C1334.108,16.87,1328.815,10.062,1321.521,7.781z"/>
	</g>
	<path fill="none" stroke="#CCCCCC" stroke-width="0.75" stroke-linecap="round" stroke-miterlimit="10" d="M1129.331-96.457
		c0,0,28.72,20.658,60.53,29.4c23.576,6.479,52.747,1.729,52.747,1.729l182.555-15.565"/>
</g>
<g>
	<g>
		<path fill="#808080" d="M489.726,703.973c0,6.236-5.103,11.339-11.339,11.339h-8.355c-6.236,0-11.339-5.103-11.339-11.339V520.031
			c0-6.236,5.103-11.339,11.339-11.339h8.355c6.236,0,11.339,5.103,11.339,11.339V703.973z"/>
	</g>
	<g>
		<path fill="#B8B8B8" d="M510.143,703.973c0,6.236-5.103,11.339-11.339,11.339h-8.355c-6.236,0-11.339-5.103-11.339-11.339V520.031
			c0-6.236,5.103-11.339,11.339-11.339h8.355c6.236,0,11.339,5.103,11.339,11.339V703.973z"/>
	</g>
	<path fill="#069BE9" d="M360.802,279.292c0,1.353-1.098,2.45-2.45,2.45h-74.211c-1.353,0-2.45-1.097-2.45-2.45v-9.153
		c0-1.353,1.098-2.45,2.45-2.45h74.211c1.353,0,2.45,1.097,2.45,2.45V279.292z"/>
	<path fill="#4D4D4D" d="M712.444,455.907H84.904c-1.354,0-2.45,1.378-2.45,3.078v14.104c0,1.701,1.097,3.078,2.45,3.078h331.004
		c0,0,1.908,0.104,2.854,1.416c0.84,1.168,0.729,3.562,0.729,3.562v96.698c0,1.354,1.098,2.449,2.45,2.449h104.126
		c1.354,0,2.45-1.096,2.45-2.449v-96.698c0,0-0.285-2.823,0.48-4.047c0.793-1.264,4.205-0.949,4.205-0.949l179.241,0.018
		c1.354,0,2.45-1.377,2.45-3.078v-14.104C714.895,457.285,713.798,455.907,712.444,455.907z"/>
	<path fill="#B8B8B8" d="M730.646,455.954c0,3.385-2.742,6.126-6.126,6.126h-10.412c-3.383,0-6.126-2.741-6.126-6.126V289.354
		c0-3.384,2.743-6.125,6.126-6.125h10.412c3.384,0,6.126,2.742,6.126,6.125V455.954z"/>
	<path fill="#FFFFFF" d="M714.895,280.718c0-4.736-3.84-8.575-8.575-8.575H91.029c-4.736,0-8.575,3.839-8.575,8.575v179.324h632.44
		V280.718z"/>
</g>
<g>
	<circle fill="#FFFFFF" stroke="#3A3A3A" stroke-miterlimit="10" cx="2515.275" cy="1964.765" r="29.395"/>
	<path fill="#222222" stroke="#3A3A3A" stroke-miterlimit="10" d="M2515.275,1935.37v58.789c16.234,0,29.395-13.16,29.395-29.395
		S2531.51,1935.37,2515.275,1935.37z"/>
</g>
<g>
	<path fill-rule="evenodd" clip-rule="evenodd" fill="#E6E6E6" d="M2392.488,2102.156c1.881-4.891,4.982-9.128,7.365-13.75
		c0.25-0.484,0.826-0.996,0.684-1.426c-0.127-0.383-0.846-0.57-1.307-0.839c-0.621-0.36-1.244-0.716-1.92-1.105
		c3.906-2.302,7.756-4.569,11.686-6.886c-0.766-0.463-1.451-0.9-2.16-1.297c-0.373-0.207-0.492-0.398-0.127-0.707
		c1.021,0.424,1.908,1.084,2.855,1.635c0.678,0.395,1.367,0.77,2.025,1.196c-0.234,0.544-0.391,0.621-0.867,0.388
		c-0.371-0.18-0.709-0.42-1.07-0.619c-0.258-0.143-0.385-0.059-0.398,0.228c-0.01,0.185-0.006,0.37-0.006,0.556
		c0,3.709,0.002,7.419-0.002,11.129c0,1.202-0.168,1.3-1.219,0.709c-0.576-0.323-1.145-0.658-1.721-0.979
		c-0.689-0.386-0.709-0.386-1.092,0.287c-1.729,3.022-3.424,6.064-5.148,9.09c-0.488,0.859-0.967,1.726-1.455,2.586
		c-0.543,0.959-0.332,1.822,0.561,2.482c0.686,0.508,1.426,0.766,2.299,0.743c4.037-0.103,8.072,0.129,12.109,0.145
		c2.035,0.008,4.076,0.073,6.113,0.101c0.67,0.01,0.805,0.142,0.805,0.805c0.002,0.397,0.133,0.828-0.184,1.181
		c-0.129,1.107-0.08,2.222-0.092,3.332c-0.004,0.354-0.057,0.488-0.467,0.481c-6.576-0.121-13.152-0.22-19.729-0.329
		c-0.688-0.012-1.342-0.206-1.965-0.483c-2.641-1.175-4.662-2.919-5.393-5.858c-0.059-0.229,0.033-0.503-0.182-0.69
		c0-0.123,0-0.247,0-0.371c0.102-0.288,0.102-0.577,0-0.866C2392.488,2102.733,2392.488,2102.445,2392.488,2102.156z"/>
	<path fill-rule="evenodd" clip-rule="evenodd" fill="#E6E6E6" d="M2411.518,2078.89c-0.689,0.078-1.111-0.448-1.619-0.749
		c-1.076-0.642-2.217-1.187-3.189-1.994c1.184-1.996,2.361-3.995,3.553-5.986c2.047-3.422,4.117-6.83,6.146-10.264
		c1.42-2.402,3.641-3.518,6.256-4.045c0.199-0.078,0.408-0.023,0.611-0.04c0.297-0.032,0.604,0.071,0.895-0.063
		c0.164,0,0.328,0,0.494,0c1.102,0.285,2.197,0.568,3.16,1.227c0.879,0.603,1.623,1.309,2.168,2.239
		c2.4,4.097,4.826,8.179,7.223,12.278c0.244,0.416,0.42,0.462,0.82,0.209c0.951-0.601,1.936-1.152,2.922-1.733
		c0.152,0.188,0.094,0.377,0.094,0.548c0.004,4.12,0.006,8.241-0.004,12.361c0,0.192,0.152,0.465-0.166,0.58
		c-0.512-0.008-0.867-0.364-1.271-0.592c-3.191-1.811-6.367-3.645-9.559-5.455c-0.916-0.52-0.914-0.646-0.023-1.188
		c0.635-0.387,1.27-0.77,1.924-1.12c0.424-0.228,0.49-0.452,0.23-0.874c-1.227-2.005-2.404-4.039-3.596-6.064
		c-1.096-1.866-2.217-3.719-3.289-5.598c-0.607-1.061-1.439-1.311-2.562-0.799c-0.676,0.308-1.189,0.746-1.582,1.404
		c-3.008,5.047-6.027,10.088-9.062,15.119C2411.947,2078.529,2411.861,2078.838,2411.518,2078.89z"/>
	<path fill-rule="evenodd" clip-rule="evenodd" fill="#E6E6E6" d="M2392.488,2103.022c0.191,0.289,0.201,0.578,0,0.866
		C2392.488,2103.601,2392.488,2103.312,2392.488,2103.022z"/>
	<path fill-rule="evenodd" clip-rule="evenodd" fill="#E6E6E6" d="M2424.17,2055.748c-0.277,0.227-0.596,0.096-0.896,0.102
		c-0.021-0.043-0.012-0.076,0.029-0.102C2423.592,2055.748,2423.881,2055.748,2424.17,2055.748z"/>
	<path fill-rule="evenodd" clip-rule="evenodd" fill="#E6E6E6" d="M2423.303,2055.748c-0.01,0.034-0.02,0.068-0.029,0.103
		c-0.203,0-0.406,0.001-0.609,0.001c0.008-0.035,0.014-0.069,0.02-0.104C2422.891,2055.748,2423.096,2055.748,2423.303,2055.748z"/>
	<path fill-rule="evenodd" clip-rule="evenodd" fill="#E6E6E6" d="M2420.441,2108.587c3.334-1.951,6.668-3.903,10.002-5.855
		c0.512-0.3,1.023-0.602,1.637-0.962c0,1.177,0.037,2.275-0.014,3.369c-0.027,0.562,0.146,0.66,0.674,0.652
		c4.596-0.065,9.191-0.123,13.789-0.121c0.992,0,1.771-0.744,1.914-1.711c0.137-0.912-0.012-1.707-0.477-2.532
		c-3.004-5.338-5.957-10.704-8.943-16.052c-0.232-0.416-0.189-0.602,0.24-0.805c0.516-0.242,0.994-0.565,1.488-0.854
		c0.83-0.448,1.666-0.887,2.488-1.349c0.273-0.153,0.428-0.202,0.617,0.14c3.211,5.812,6.447,11.611,9.652,17.427
		c0.551,0.997,0.615,2.131,0.6,3.248c-0.039,2.736-0.914,5.095-3.225,6.739c-1.199,0.853-2.529,1.339-4.031,1.348
		c-4.721,0.028-9.441,0.094-14.162,0.114c-0.529,0.002-0.643,0.154-0.623,0.652c0.041,1.07,0.012,2.143,0.012,3.212
		c-0.229,0.104-0.359-0.075-0.504-0.158c-3.574-2.034-7.145-4.074-10.713-6.12
		C2420.701,2108.877,2420.445,2108.864,2420.441,2108.587z"/>
	<path fill-rule="evenodd" clip-rule="evenodd" fill="#E6E6E6" d="M2427.633,2094.624c1.572,0,3.076,0.021,4.58-0.012
		c0.49-0.011,0.717,0.076,0.656,0.623c-0.057,0.507,0.166,1.201-0.094,1.489c-0.305,0.339-1.008,0.102-1.537,0.105
		c-2.104,0.012-4.207-0.009-6.311,0.016c-0.438,0.005-0.559-0.098-0.51-0.539c0.152-1.389,0.654-2.595,1.766-3.481
		c0.869-0.693,1.773-1.342,2.656-2.021c0.941-0.725,1.73-1.539,1.621-2.867c-0.076-0.93-0.49-1.543-1.213-1.752
		c-1.168-0.338-2.061,0.283-2.279,1.58c-0.154,0.93-0.154,0.93-1.111,0.93c-0.021,0-0.041,0-0.062,0c-1.402,0-1.402,0-1.152-1.424
		c0.312-1.78,1.4-2.86,3.193-3.102c1.51-0.204,2.945,0.005,4.055,1.157c1.621,1.683,1.332,4.435-0.6,6.006
		c-0.91,0.741-1.848,1.449-2.766,2.184C2428.176,2093.798,2427.85,2094.109,2427.633,2094.624z"/>
	<path fill-rule="evenodd" clip-rule="evenodd" fill="#E6E6E6" d="M2422.762,2087.115c-0.5-1.829-1.939-2.991-3.744-3.019
		c-1.943-0.03-3.496,1.067-3.994,2.937c-0.652,2.453-0.623,4.933,0.016,7.385c0.402,1.542,1.758,2.637,3.279,2.786
		c1.785,0.176,3.238-0.55,4.037-2.027c0.73-1.354,0.727-2.849,0.816-4.304C2423.143,2089.594,2423.096,2088.34,2422.762,2087.115z
		 M2420.463,2093.621c-0.189,0.923-0.76,1.467-1.551,1.491c-0.805,0.023-1.449-0.461-1.613-1.396
		c-0.363-2.06-0.355-4.138,0.006-6.196c0.162-0.92,0.842-1.459,1.604-1.436c0.732,0.021,1.346,0.582,1.537,1.453
		c0.227,1.031,0.18,2.088,0.268,3.109C2420.635,2091.655,2420.662,2092.647,2420.463,2093.621z"/>
</g>
<g id="RSS_-_Orange">
	<g>
		<g>
			<radialGradient id="SVGID_5_" cx="2393.6543" cy="1914.623" r="32.4844" gradientUnits="userSpaceOnUse">
				<stop  offset="0" style="stop-color:#FFF584"/>
				<stop  offset="1" style="stop-color:#FDBF0F"/>
			</radialGradient>
			<path fill="url(#SVGID_5_)" d="M2393.719,1923.551c-17.369,0-31.5-14.131-31.5-31.5s14.131-31.5,31.5-31.5s31.5,14.131,31.5,31.5
				S2411.088,1923.551,2393.719,1923.551z"/>
			<g>
				<path fill="#E79F2E" d="M2393.719,1861.051c17.094,0,31,13.906,31,31s-13.906,31-31,31s-31-13.906-31-31
					S2376.625,1861.051,2393.719,1861.051 M2393.719,1860.051c-17.674,0-32,14.328-32,32c0,17.674,14.326,32,32,32
					c17.672,0,32-14.326,32-32C2425.719,1874.379,2411.391,1860.051,2393.719,1860.051L2393.719,1860.051z"/>
			</g>
		</g>
		<g opacity="0.8">
			<linearGradient id="SVGID_6_" gradientUnits="userSpaceOnUse" x1="2392.8135" y1="1880.8027" x2="2409.3909" y2="1944.3341">
				<stop  offset="0" style="stop-color:#FFFFFF"/>
				<stop  offset="1" style="stop-color:#FBAE17"/>
			</linearGradient>
			<path fill="url(#SVGID_6_)" d="M2415.117,1869.652c5.322,5.568,8.602,13.105,8.602,21.398c0,17.094-13.906,31-31,31
				c-8.293,0-15.83-3.279-21.398-8.602c5.648,5.91,13.598,9.602,22.4,9.602c17.094,0,30.998-13.904,30.998-31
				C2424.719,1883.25,2421.027,1875.301,2415.117,1869.652z"/>
		</g>
		<g>
			<g>
				<linearGradient id="SVGID_7_" gradientUnits="userSpaceOnUse" x1="2385.2568" y1="1861.2598" x2="2396.6953" y2="1902.8744">
					<stop  offset="0" style="stop-color:#FFFBD4"/>
					<stop  offset="1" style="stop-color:#000000"/>
				</linearGradient>
				<path fill="url(#SVGID_7_)" d="M2386.074,1897.754c10.873-9.359,24.947-18.096,37.078-11.508
					c-2.713-13.773-14.877-24.197-29.434-24.197c-16.543,0-30,13.461-30,30.004c0,4.008,0.797,7.832,2.229,11.33
					C2370.707,1904.58,2378.105,1904.613,2386.074,1897.754z"/>
			</g>
		</g>
		<g>
			<linearGradient id="SVGID_8_" gradientUnits="userSpaceOnUse" x1="2379.8828" y1="1855.6943" x2="2401.1694" y2="1917.4243">
				<stop  offset="0" style="stop-color:#FFFFFF"/>
				<stop  offset="1" style="stop-color:#000000"/>
			</linearGradient>
			<path fill="url(#SVGID_8_)" d="M2365.721,1894.055c0-16.543,13.457-30.004,30-30.004c7.762,0,14.846,2.965,20.178,7.82
				c-5.49-6.031-13.4-9.822-22.18-9.822c-16.543,0-30,13.461-30,30.004c0,8.779,3.791,16.689,9.822,22.182
				C2368.686,1908.9,2365.721,1901.818,2365.721,1894.055z"/>
		</g>
	</g>
	<g opacity="0.8">
		<linearGradient id="circle_3_" gradientUnits="userSpaceOnUse" x1="2384.6504" y1="1910.4697" x2="2384.6504" y2="1873.9395">
			<stop  offset="0" style="stop-color:#FFFFFF"/>
			<stop  offset="1" style="stop-color:#FBAE17"/>
		</linearGradient>
		<path id="circle_2_" opacity="0.8" fill="url(#circle_3_)" d="M2388.938,1904.773c0,2.368-1.92,4.281-4.293,4.281
			c-2.361,0-4.283-1.913-4.283-4.281c0-2.361,1.922-4.295,4.283-4.295C2387.019,1900.479,2388.938,1902.412,2388.938,1904.773z"/>
		<linearGradient id="SVGID_9_" gradientUnits="userSpaceOnUse" x1="2391.0107" y1="1910.4697" x2="2391.0107" y2="1873.9396">
			<stop  offset="0" style="stop-color:#FFFFFF"/>
			<stop  offset="1" style="stop-color:#FBAE17"/>
		</linearGradient>
		<path opacity="0.8" fill="url(#SVGID_9_)" d="M2401.382,1908.814h-5.641c-0.074-4.023-1.668-7.791-4.506-10.633
			c-2.84-2.848-6.594-4.446-10.596-4.52v-5.623C2392.009,1888.192,2401.229,1897.428,2401.382,1908.814L2401.382,1908.814z"/>
		<linearGradient id="SVGID_10_" gradientUnits="userSpaceOnUse" x1="2396.5068" y1="1910.4697" x2="2396.5068" y2="1873.9396">
			<stop  offset="0" style="stop-color:#FFFFFF"/>
			<stop  offset="1" style="stop-color:#FBAE17"/>
		</linearGradient>
		<path opacity="0.8" fill="url(#SVGID_10_)" d="M2412.362,1908.814h-5.631c-0.154-14.347-11.768-25.989-26.08-26.145v-5.621
			C2398.069,1877.205,2412.208,1891.368,2412.362,1908.814L2412.362,1908.814z"/>
	</g>
	<g>
		<g>
			<path id="circle_1_" fill="#E6E6E6" d="M2781.822,1867.021c-1.674,1.675-4.385,1.67-6.062-0.009
				c-1.67-1.669-1.676-4.381-0.002-6.056c1.67-1.669,4.396-1.678,6.066-0.008
				C2783.502,1862.627,2783.492,1865.352,2781.822,1867.021z"/>
			<path fill="#E6E6E6" d="M2787.764,1878.678l-3.988-3.988c2.793-2.897,4.33-6.688,4.332-10.705
				c0.006-4.021-1.518-7.807-4.297-10.688l3.977-3.977C2795.718,1857.468,2795.708,1870.519,2787.764,1878.678L2787.764,1878.678z"
				/>
			<path fill="#E6E6E6" d="M2795.528,1886.442l-3.981-3.982c10.035-10.253,10.056-26.697,0.045-36.928l3.975-3.975
				C2807.772,1853.984,2807.756,1873.997,2795.528,1886.442L2795.528,1886.442z"/>
		</g>
		<circle fill="none" stroke="#E6E6E6" stroke-width="2" stroke-miterlimit="10" cx="2789.607" cy="1864" r="32.559"/>
	</g>
	<g>
		<path fill-rule="evenodd" clip-rule="evenodd" fill="#E6E6E6" d="M2611.317,1949.131c0.004-0.078,0.014-0.156,0.014-0.234
			c0-2.396,0.002-4.787-0.004-7.184c-0.002-0.197,0.037-0.259,0.25-0.259c5.283,0.008,10.564,0.005,15.848,0.011
			c0.193,0,0.246-0.042,0.246-0.243c-0.008-7.506-0.006-15.011-0.006-22.515c0-0.078,0-0.156,0-0.232
			c0.078-0.029,0.102,0.034,0.133,0.066c0.955,0.923,1.906,1.849,2.861,2.771c1.127,1.092,2.258,2.181,3.387,3.271
			c0.744,0.717,1.486,1.432,2.229,2.148c1.125,1.086,2.246,2.175,3.375,3.256c0.748,0.712,1.492,1.427,2.229,2.146
			c1.119,1.094,2.25,2.175,3.373,3.26c0.734,0.707,1.467,1.414,2.201,2.121c0.752,0.725,1.502,1.449,2.254,2.176
			c0.611,0.587,1.225,1.17,1.832,1.762c0.076,0.074,0.154,0.085,0.248,0.085c5.385-0.001,10.773-0.001,16.16-0.001
			c0.043,0.066,0.021,0.141,0.021,0.211c0.002,2.394,0.002,4.787,0.002,7.181c0,0.27,0.031,0.243-0.244,0.243
			c-16.561,0-33.119,0-49.68,0c-2.17,0-4.342,0-6.512-0.002C2611.462,1949.17,2611.378,1949.209,2611.317,1949.131z"/>
		<path fill-rule="evenodd" clip-rule="evenodd" fill="#E6E6E6" d="M2651.653,1900.292c-0.004,0.086-0.012,0.17-0.012,0.256
			c-0.002,7.432-0.002,14.864-0.002,22.297c0,0.078,0,0.155,0,0.27c-0.133-0.106-0.244-0.195-0.354-0.286
			c-0.012-0.009-0.021-0.018-0.031-0.027c-0.566-0.541-1.135-1.082-1.703-1.623c-0.535-0.512-1.07-1.02-1.604-1.529
			c-0.746-0.716-1.498-1.43-2.238-2.15c-0.604-0.589-1.229-1.156-1.828-1.749c-0.553-0.546-1.125-1.075-1.689-1.61
			c-0.479-0.454-0.961-0.906-1.438-1.363c-0.377-0.36-0.756-0.723-1.131-1.088c-0.549-0.531-1.111-1.05-1.66-1.582
			c-0.561-0.541-1.125-1.078-1.691-1.609c-0.43-0.4-0.842-0.822-1.281-1.212c-0.514-0.456-0.998-0.941-1.496-1.415
			c-0.539-0.514-1.08-1.027-1.619-1.543c-0.656-0.626-1.322-1.248-1.969-1.886c-0.686-0.676-1.414-1.305-2.078-2.002
			c-0.123-0.128-0.277-0.197-0.482-0.197c-5.262,0.009-10.525,0.006-15.785,0.012c-0.193,0-0.236-0.047-0.236-0.236
			c0.008-2.151,0.008-4.302,0.002-6.452c0-0.158,0.018-0.224,0.209-0.224c18.803,0.006,37.607,0.006,56.412,0.006
			c0.039,0.061,0.021,0.128,0.021,0.192c0,2.17,0,4.34,0,6.51c0,0.223,0,0.223-0.223,0.223c-5.289,0-10.574,0-15.861,0.002
			C2651.808,1900.273,2651.728,1900.253,2651.653,1900.292z"/>
		<path fill-rule="evenodd" clip-rule="evenodd" fill="#E6E6E6" d="M2629.624,1952.406c0.004,0.377,0.006,0.753,0.01,1.129
			c0.027,0.303,0.004,0.606,0.014,0.909c0.002,0.07-0.014,0.143,0.016,0.21c0.004,0.365,0.008,0.728,0.01,1.091
			c0.029,0.296,0.004,0.595,0.014,0.892c0.002,0.076-0.014,0.155,0.016,0.229c0.004,0.376,0.008,0.752,0.01,1.128
			c0.027,0.155,0.004,0.311,0.014,0.466c0.002,0.034-0.029,0.101,0.055,0.085c0.27-0.586,0.549-1.167,0.799-1.76
			c0.221-0.518,0.461-1.025,0.689-1.538c0.221-0.488,0.451-0.973,0.67-1.461c0.168-0.379,0.354-0.751,0.512-1.135
			c0.088-0.208,0.16-0.431,0.295-0.619c0.102-0.035,0.209-0.016,0.312-0.017c0.715-0.002,1.428-0.001,2.143,0.001
			c0.062,0,0.133-0.028,0.186,0.028c-0.156,0.695-0.314,1.391-0.471,2.087c-0.379,1.716-0.76,3.432-1.139,5.147
			c-0.072,0.323-0.139,0.646-0.203,0.971c-0.025,0.13-0.068,0.195-0.225,0.19c-0.453-0.014-0.906-0.013-1.359-0.001
			c-0.158,0.004-0.158-0.079-0.139-0.176c0.145-0.663,0.297-1.327,0.441-1.991c0.127-0.591,0.254-1.181,0.387-1.771
			c0.146-0.662,0.287-1.326,0.445-1.987c0.064-0.268,0.119-0.538,0.18-0.808c0.018-0.04-0.01-0.083,0.01-0.121
			c0.002-0.01,0.014-0.019,0.014-0.025c0-0.012-0.01-0.009-0.012,0.007c-0.018,0.03-0.025,0.064-0.055,0.087
			c-0.303,0.651-0.609,1.303-0.908,1.957c-0.418,0.921-0.828,1.846-1.244,2.769c-0.275,0.615-0.557,1.228-0.824,1.847
			c-0.07,0.162-0.152,0.222-0.334,0.215c-0.42-0.017-0.84-0.005-1.262-0.005c-0.277,0-0.277,0-0.291-0.272
			c-0.027-0.202-0.012-0.403-0.012-0.606c-0.002-0.811-0.002-1.621-0.002-2.434c0-0.07,0.014-0.143-0.016-0.213
			c0.002-0.294,0.008-0.588,0.006-0.882c-0.004-0.792-0.01-1.584-0.018-2.376c-0.041-0.055-0.004-0.112-0.01-0.171
			c0.002,0.064-0.016,0.121-0.055,0.171c-0.107,0.468-0.219,0.933-0.32,1.4c-0.217,0.982-0.428,1.966-0.645,2.946
			c-0.164,0.755-0.338,1.507-0.5,2.26c-0.025,0.133-0.074,0.182-0.213,0.18c-0.449-0.008-0.893-0.005-1.34-0.002
			c-0.135,0.001-0.195-0.004-0.154-0.183c0.188-0.815,0.334-1.64,0.529-2.453c0.174-0.728,0.326-1.459,0.49-2.188
			c0.133-0.584,0.254-1.17,0.379-1.754c0.121-0.546,0.23-1.097,0.379-1.636c0.018-0.065-0.039-0.148,0.047-0.197
			c0.59-0.025,1.18-0.005,1.768-0.01c0.236-0.002,0.473,0.006,0.707-0.004c0.143-0.007,0.211,0.027,0.189,0.182
			C2629.601,1952.264,2629.595,1952.338,2629.624,1952.406z"/>
		<path fill-rule="evenodd" clip-rule="evenodd" fill="#E6E6E6" d="M2619.64,1952.039c0.5,1.347,1.002,2.691,1.502,4.038
			c0.197,0.535,0.393,1.068,0.592,1.603c0.018,0.045,0.021,0.117,0.09,0.108c0.061-0.009,0.031-0.071,0.039-0.113
			c0.18-0.798,0.365-1.593,0.541-2.393c0.152-0.693,0.289-1.392,0.439-2.086c0.084-0.386,0.184-0.77,0.275-1.153
			c0.029-0.038,0.07-0.027,0.107-0.027c0.486-0.001,0.973-0.002,1.457,0.001c0.057,0.001,0.166-0.042,0.135,0.096
			c-0.121,0.524-0.244,1.049-0.361,1.572c-0.354,1.589-0.707,3.179-1.061,4.766c-0.135,0.615-0.27,1.229-0.396,1.847
			c-0.021,0.108-0.061,0.141-0.166,0.14c-0.52-0.003-1.037-0.002-1.557,0c-0.092,0.001-0.135-0.026-0.172-0.117
			c-0.211-0.526-0.4-1.062-0.596-1.595c-0.195-0.535-0.408-1.065-0.607-1.6c-0.305-0.818-0.604-1.639-0.904-2.458
			c-0.021-0.06-0.053-0.113-0.084-0.183c-0.1,0.146-0.1,0.317-0.135,0.473c-0.281,1.24-0.553,2.481-0.826,3.723
			c-0.123,0.551-0.244,1.103-0.359,1.654c-0.014,0.072-0.033,0.103-0.107,0.103c-0.537-0.002-1.076-0.001-1.617-0.001
			c0.105-0.556,0.234-1.094,0.352-1.634c0.113-0.541,0.236-1.08,0.357-1.62c0.16-0.713,0.307-1.43,0.469-2.141
			c0.164-0.726,0.316-1.453,0.486-2.176c0.061-0.269,0.119-0.539,0.18-0.81c0.014-0.055,0.061-0.04,0.096-0.04
			c0.586-0.001,1.174-0.001,1.76-0.001C2619.597,1952.015,2619.62,1952.021,2619.64,1952.039z"/>
		<path fill-rule="evenodd" clip-rule="evenodd" fill="#E6E6E6" d="M2668.669,1954.6c-0.018-0.089-0.035-0.178-0.049-0.269
			c-0.1-0.803-0.453-1.452-1.135-1.912c-0.516-0.353-1.104-0.497-1.707-0.59c-0.082-0.029-0.17,0.007-0.252-0.027
			c-0.146,0-0.295,0-0.441,0c-0.096,0.038-0.195-0.005-0.293,0.028c-0.596,0.082-1.186,0.209-1.734,0.467
			c-0.629,0.296-1.186,0.683-1.635,1.231c-0.303,0.373-0.582,0.756-0.781,1.187c-0.342,0.739-0.572,1.515-0.631,2.332
			c-0.033,0.095,0.01,0.198-0.029,0.291c0,0.16,0,0.319,0,0.479c0.033,0.068,0.002,0.146,0.027,0.215
			c0.021,0.152,0.02,0.31,0.062,0.455c0.227,0.766,0.641,1.388,1.385,1.752c0.48,0.236,0.984,0.382,1.523,0.406
			c0.262,0.018,0.523,0.02,0.785-0.001c0.078-0.004,0.158,0.002,0.234-0.011c0.863-0.159,1.684-0.424,2.4-0.952
			c0.617-0.454,1.105-1.014,1.469-1.687c0.465-0.863,0.693-1.796,0.799-2.766C2668.688,1955.02,2668.687,1954.811,2668.669,1954.6z
			 M2666.644,1955.221c-0.057,1.078-0.309,2.096-1.039,2.928c-0.635,0.72-1.439,1.062-2.408,0.945
			c-0.812-0.099-1.385-0.61-1.467-1.436c-0.139-1.391,0.211-2.654,1.229-3.66c0.598-0.592,1.355-0.839,2.203-0.718
			c0.889,0.128,1.424,0.726,1.48,1.626C2666.647,1955.011,2666.644,1955.115,2666.644,1955.221z"/>
		<path fill-rule="evenodd" clip-rule="evenodd" fill="#E6E6E6" d="M2644.347,1952.044c-0.104,0.435-0.217,0.87-0.301,1.308
			c-0.029,0.152-0.09,0.172-0.219,0.172c-1.406-0.004-2.814,0.001-4.223-0.007c-0.164-0.001-0.238,0.047-0.27,0.208
			c-0.088,0.457-0.174,0.917-0.291,1.369c-0.049,0.19,0.023,0.188,0.164,0.188c1.277-0.003,2.551,0.003,3.826-0.006
			c0.186-0.002,0.211,0.046,0.172,0.211c-0.092,0.377-0.172,0.759-0.25,1.141c-0.025,0.119-0.08,0.146-0.195,0.146
			c-1.297-0.004-2.59,0.002-3.887-0.009c-0.17-0.001-0.219,0.061-0.248,0.207c-0.137,0.651-0.281,1.305-0.426,1.973
			c0.09,0,0.174,0,0.258,0c1.453,0,2.908,0.004,4.359-0.002c0.17-0.002,0.211,0.029,0.162,0.208c-0.1,0.375-0.172,0.759-0.25,1.14
			c-0.023,0.104-0.064,0.149-0.182,0.149c-2.131-0.004-4.262-0.003-6.391-0.003c-0.025,0-0.051-0.005-0.086-0.008
			c0.197-0.869,0.408-1.733,0.584-2.602c0.164-0.816,0.354-1.623,0.521-2.438c0.16-0.773,0.346-1.545,0.512-2.32
			c0.07-0.329,0.137-0.663,0.229-0.987c0.033-0.083,0.105-0.065,0.17-0.065c2.051-0.001,4.1-0.001,6.148,0
			C2644.274,1952.016,2644.317,1952.005,2644.347,1952.044z"/>
		<path fill-rule="evenodd" clip-rule="evenodd" fill="#E6E6E6" d="M2652.011,1952.151c-0.094,0.398-0.201,0.793-0.273,1.194
			c-0.029,0.15-0.082,0.178-0.215,0.178c-0.764-0.005-1.527-0.001-2.291-0.005c-0.117,0-0.168,0.011-0.201,0.156
			c-0.436,2.017-0.883,4.03-1.328,6.045c-0.043,0.196-0.082,0.394-0.125,0.589c-0.02,0.083-0.053,0.131-0.156,0.13
			c-0.514-0.007-1.027-0.011-1.539,0.001c-0.162,0.003-0.154-0.085-0.137-0.177c0.076-0.363,0.164-0.723,0.242-1.085
			c0.127-0.586,0.266-1.169,0.381-1.757c0.109-0.556,0.258-1.104,0.381-1.657c0.102-0.455,0.188-0.912,0.287-1.368
			c0.057-0.253,0.105-0.509,0.17-0.758c0.051-0.193-0.076-0.113-0.127-0.113c-0.711-0.005-1.422-0.003-2.133-0.003
			c-0.312,0-0.322-0.003-0.264-0.309c0.076-0.393,0.172-0.782,0.26-1.172c0.057-0.048,0.127-0.025,0.189-0.025
			c2.229-0.001,4.455-0.001,6.684,0.002C2651.896,1952.018,2652.06,1951.944,2652.011,1952.151z"/>
		<path fill-rule="evenodd" clip-rule="evenodd" fill="#E6E6E6" d="M2615.614,1952.045c-0.145,0.632-0.291,1.266-0.432,1.897
			c-0.354,1.595-0.709,3.191-1.062,4.787c-0.111,0.508-0.217,1.016-0.322,1.524c-0.023,0.129-0.072,0.189-0.227,0.187
			c-0.545-0.013-1.09-0.005-1.652-0.005c0.186-0.812,0.375-1.611,0.545-2.416c0.164-0.774,0.35-1.547,0.51-2.322
			c0.166-0.814,0.361-1.621,0.523-2.438c0.076-0.391,0.162-0.785,0.27-1.172c0.014-0.066,0.064-0.073,0.117-0.073
			c0.562,0.001,1.121-0.002,1.682,0.001C2615.589,1952.017,2615.599,1952.033,2615.614,1952.045z"/>
		<path fill-rule="evenodd" clip-rule="evenodd" fill="#E6E6E6" d="M2659.394,1953.654c-0.102-0.687-0.447-1.182-1.109-1.434
			c-0.371-0.139-0.76-0.178-1.148-0.195c-0.027-0.008-0.051-0.011-0.078-0.011c-1.404,0-2.809,0-4.213,0.001
			c-0.043,0-0.094-0.019-0.125,0.031c-0.098,0.428-0.191,0.858-0.283,1.288c-0.141,0.678-0.33,1.346-0.463,2.024
			c-0.137,0.706-0.311,1.403-0.453,2.107c-0.104,0.499-0.23,0.994-0.34,1.492c-0.098,0.441-0.166,0.891-0.283,1.326
			c-0.039,0.147-0.02,0.151,0.102,0.151c0.506-0.002,1.012-0.002,1.518,0c0.096,0,0.143-0.006,0.168-0.127
			c0.146-0.704,0.305-1.407,0.467-2.108c0.08-0.346,0.123-0.701,0.248-1.037c0.633-0.035,1.266-0.027,1.896-0.004
			c0.24-0.035,0.473,0.027,0.701,0.082c0.096,0.022,0.201,0.063,0.283,0.146c0.242,0.244,0.197,0.545,0.146,0.825
			c-0.107,0.568-0.26,1.131-0.283,1.715c-0.021,0.131-0.021,0.263-0.002,0.394c0.006,0.071,0.023,0.117,0.115,0.116
			c0.6-0.004,1.195-0.005,1.795,0.001c0.084,0,0.115-0.041,0.137-0.103c0.023-0.068,0.02-0.129-0.057-0.165
			c-0.084-0.04-0.127-0.108-0.127-0.201c-0.037-0.112-0.025-0.224-0.006-0.335c0-0.025-0.006-0.053-0.002-0.076
			c0.109-0.575,0.219-1.149,0.328-1.724c0.021-0.197,0.021-0.393,0-0.59c-0.066-0.327-0.24-0.57-0.543-0.72
			c-0.049-0.024-0.131-0.038-0.131-0.105c0.002-0.082,0.094-0.08,0.146-0.1c0.35-0.132,0.621-0.368,0.877-0.629
			c0.404-0.416,0.605-0.932,0.717-1.487C2659.415,1954.021,2659.411,1953.836,2659.394,1953.654z M2657.317,1954.599
			c-0.158,0.636-0.574,1.002-1.238,1.056c-0.807,0.067-1.617,0.015-2.426,0.029c-0.084,0.001-0.113-0.016-0.09-0.113
			c0.152-0.672,0.303-1.345,0.443-2.019c0.023-0.111,0.082-0.114,0.164-0.114c0.396,0.002,0.791,0.001,1.186,0.001
			c0,0.001,0,0.003,0,0.004c0.361,0,0.723-0.007,1.084,0.003C2657.165,1953.464,2657.491,1953.9,2657.317,1954.599z"/>
	</g>
</g>
<path fill-rule="evenodd" clip-rule="evenodd" fill="#E6E6E6" d="M722.963,280.718h-10.519v-6.575c0-1.104-0.896-2-2-2H84.454
	c-1.104,0-2,0.896-2,2v200.024c0,1.104,0.896,2,2,2h336.115v99.677c0,1.104,0.896,2,2,2h103.948c1.104,0,2-0.896,2-2v-99.677
	h181.927c1.104,0,2-0.896,2-2v-18.213h10.519c1.923,0,3.482-0.896,3.482-2V282.718C726.445,281.614,724.886,280.718,722.963,280.718
	z"/>
</svg>
