<?xml version="1.0" encoding="utf-8"?>
<!-- Generator: Adobe Illustrator 16.0.0, SVG Export Plug-In . SVG Version: 6.00 Build 0)  -->
<!DOCTYPE svg PUBLIC "-//W3C//DTD SVG 1.1//EN" "http://www.w3.org/Graphics/SVG/1.1/DTD/svg11.dtd">
<svg version="1.1" id="Layer_1" xmlns="http://www.w3.org/2000/svg" xmlns:xlink="http://www.w3.org/1999/xlink" x="0px" y="0px"
	 width="53.9px" height="50px" viewBox="0 0 53.9 50" enable-background="new 0 0 53.9 50" xml:space="preserve">
<rect x="474.2" y="407.5" fill="#FFFFFF" width="10.5" height="10.2"/>
<circle fill="#FFFFFF" cx="414.4" cy="412.6" r="5.4"/>
<polygon fill="#FFFFFF" points="343.4,412.7 348.9,409.5 354.5,406.3 354.5,412.7 354.5,419.2 348.9,416 "/>
<circle fill="#666666" cx="26.9" cy="25" r="22"/>
<g id="_x23_020201ff">
	<path fill="#FFFFFF" d="M24.4,10.9c1.2-1.2,3-1.6,4.6-1.6c1.7,0,3.5,0,5.2,0c0,1.8,0,3.7,0,5.5c-1.1,0-2.2,0-3.4,0
		c-0.699,0-1.399,0.5-1.6,1.2c0,1.2,0,2.5,0,3.7c1.6,0,3.3,0,4.9,0C34,21.5,33.8,23.2,33.5,25C32,25,30.6,25,29.1,25
		c0,5.2,0,10.5,0,15.7c-2.2,0-4.301,0-6.5,0c0-5.2,0-10.5,0-15.7c-1.101,0-2.101,0-3.2,0c0-1.8,0-3.5,0-5.3c1.1,0,2.1,0,3.2,0
		c0-1.7,0-3.4,0-5.1C22.9,13.2,23.4,11.8,24.4,10.9z"/>
</g>
</svg>
