<?xml version="1.0" encoding="utf-8"?>
<!-- Generator: Adobe Illustrator 16.0.0, SVG Export Plug-In . SVG Version: 6.00 Build 0)  -->
<!DOCTYPE svg PUBLIC "-//W3C//DTD SVG 1.1//EN" "http://www.w3.org/Graphics/SVG/1.1/DTD/svg11.dtd">
<svg version="1.1" id="Layer_1" xmlns="http://www.w3.org/2000/svg" xmlns:xlink="http://www.w3.org/1999/xlink" x="0px" y="0px"
	 width="53.9px" height="50px" viewBox="0 0 53.9 50" enable-background="new 0 0 53.9 50" xml:space="preserve">
<rect x="474.2" y="407.5" fill="#FFFFFF" width="10.5" height="10.2"/>
<circle fill="#FFFFFF" cx="414.4" cy="412.6" r="5.4"/>
<polygon fill="#FFFFFF" points="343.4,412.7 348.9,409.5 354.5,406.3 354.5,412.7 354.5,419.2 348.9,416 "/>
<circle fill="#666666" cx="26.9" cy="25" r="22"/>
<path fill="#FFFFFF" d="M13.654,26.268c0,2.217,0.332,3.983,0.997,5.305c0.711,1.402,1.813,2.441,3.311,3.115
	c1.515,0.711,3.062,1.149,4.641,1.315c1.422,0.166,2.954,0.25,4.598,0.25c0.711,0,1.604-0.028,2.674-0.084
	c0.896-0.055,1.85-0.178,2.859-0.367c1.012-0.188,1.881-0.436,2.611-0.739c0.829-0.353,1.598-0.824,2.299-1.42
	s1.246-1.285,1.634-2.07c0.646-1.32,0.97-3.088,0.97-5.305c0-2.531-0.725-4.646-2.174-6.344c0.285-0.858,0.429-1.759,0.429-2.7
	c0-1.247-0.268-2.406-0.804-3.477c-1.099,0-2.079,0.193-2.943,0.582c-0.861,0.388-1.885,1.042-3.066,1.966
	c-1.449-0.342-2.944-0.513-4.487-0.513c-1.681,0-3.323,0.185-4.931,0.555c-1.209-0.951-2.245-1.62-3.109-2.008
	c-0.863-0.389-1.844-0.582-2.941-0.582c-0.546,1.062-0.817,2.22-0.817,3.477c0,0.951,0.144,1.86,0.43,2.728
	C14.379,21.65,13.654,23.755,13.654,26.268L13.654,26.268z M17.227,29.078c0-1.312,0.377-2.405,1.129-3.282s1.742-1.315,2.971-1.315
	c0.489,0,1.528,0.115,3.116,0.347c0.812,0.119,1.647,0.18,2.507,0.18s1.698-0.061,2.521-0.18c1.614-0.231,2.653-0.347,3.116-0.347
	c1.228,0,2.216,0.438,2.963,1.315c0.748,0.877,1.121,1.972,1.121,3.282c0,0.933-0.17,1.755-0.512,2.466
	c-0.342,0.683-0.769,1.226-1.281,1.627c-0.512,0.401-1.165,0.724-1.959,0.963c-1.312,0.396-2.854,0.595-4.627,0.595h-2.687
	c-0.877,0-1.671-0.041-2.382-0.123c-0.758-0.074-1.52-0.235-2.285-0.484c-0.768-0.25-1.399-0.564-1.897-0.941
	c-0.545-0.426-0.982-0.99-1.314-1.697C17.393,30.773,17.227,29.975,17.227,29.078z M19.79,29.078c0,0.436,0.068,0.873,0.208,1.314
	c0.139,0.48,0.376,0.895,0.713,1.24s0.713,0.52,1.129,0.52c0.443,0,0.831-0.18,1.163-0.541c0.582-0.674,0.873-1.519,0.873-2.533
	c0-0.426-0.061-0.858-0.181-1.303c-0.139-0.479-0.376-0.893-0.713-1.238s-0.718-0.52-1.144-0.52c-0.442,0-0.831,0.185-1.164,0.553
	C20.085,27.208,19.79,28.044,19.79,29.078z M30.025,29.078c0,0.436,0.067,0.873,0.207,1.314c0.139,0.48,0.374,0.895,0.706,1.24
	c0.333,0.346,0.707,0.52,1.122,0.52c0.453,0,0.846-0.18,1.178-0.541c0.582-0.674,0.873-1.519,0.873-2.533
	c0-0.396-0.065-0.831-0.194-1.303c-0.139-0.479-0.376-0.893-0.714-1.238c-0.336-0.348-0.717-0.52-1.143-0.52
	c-0.443,0-0.821,0.185-1.136,0.553C30.325,27.208,30.025,28.044,30.025,29.078L30.025,29.078z"/>
</svg>
