<?xml version="1.0" encoding="utf-8"?>
<!-- Generator: Adobe Illustrator 16.0.0, SVG Export Plug-In . SVG Version: 6.00 Build 0)  -->
<!DOCTYPE svg PUBLIC "-//W3C//DTD SVG 1.1//EN" "http://www.w3.org/Graphics/SVG/1.1/DTD/svg11.dtd">
<svg version="1.1" id="Layer_1" xmlns="http://www.w3.org/2000/svg" xmlns:xlink="http://www.w3.org/1999/xlink" x="0px" y="0px"
	 width="53.9px" height="50px" viewBox="0 0 53.9 50" enable-background="new 0 0 53.9 50" xml:space="preserve">
<rect x="295.5" y="12.5" fill="#4C4D4D" width="235.8" height="427.4"/>
<image overflow="visible" enable-background="new    " width="466" height="728" xlink:href="6F1B4880BE2DE943.png"  transform="matrix(0.4987 0 0 0.4973 298.9246 34.6279)">
</image>
<path fill="#FFFFFF" d="M507.599-26.1H324c-20.4,0-37.1,16.7-37.1,37.1v435.1c0,20.4,16.699,37.101,37.1,37.101h183.6
	c20.4,0,37.101-16.7,37.101-37.101v-435C544.7-9.3,528-26.1,507.599-26.1z M528.3,424.9H301.2V21h227.1V424.9L528.3,424.9z"/>
<rect x="474.2" y="407.5" fill="#FFFFFF" width="10.5" height="10.2"/>
<circle fill="#FFFFFF" cx="414.4" cy="412.6" r="5.4"/>
<polygon fill="#FFFFFF" points="343.4,412.7 348.9,409.5 354.5,406.3 354.5,412.7 354.5,419.2 348.9,416 "/>
<circle fill="#069BE9" cx="26.9" cy="25" r="22"/>
<g id="_x23_020201ff">
	<path fill="#FFFFFF" d="M-94.25-11.1c1.2-1.2,3-1.6,4.6-1.6c1.7,0,3.5,0,5.2,0c0,1.8,0,3.7,0,5.5c-1.1,0-2.2,0-3.4,0
		c-0.699,0-1.399,0.5-1.6,1.2c0,1.2,0,2.5,0,3.7c1.6,0,3.3,0,4.9,0c-0.101,1.8-0.301,3.5-0.601,5.3c-1.5,0-2.899,0-4.399,0
		c0,5.2,0,10.5,0,15.7c-2.2,0-4.301,0-6.5,0c0-5.2,0-10.5,0-15.7c-1.101,0-2.101,0-3.2,0c0-1.8,0-3.5,0-5.3c1.1,0,2.1,0,3.2,0
		c0-1.7,0-3.4,0-5.1C-95.75-8.8-95.25-10.2-94.25-11.1z"/>
</g>
<path fill="#FFFFFF" d="M13.654,26.267c0,2.217,0.332,3.984,0.997,5.305c0.711,1.403,1.814,2.442,3.311,3.116
	c1.514,0.711,3.061,1.149,4.64,1.315c1.422,0.166,2.954,0.25,4.598,0.25c0.711,0,1.603-0.028,2.674-0.084
	c0.895-0.055,1.849-0.178,2.859-0.367c1.012-0.189,1.881-0.436,2.611-0.74c0.83-0.352,1.598-0.824,2.299-1.42
	c0.701-0.595,1.246-1.285,1.634-2.07c0.646-1.32,0.97-3.088,0.97-5.305c0-2.53-0.725-4.645-2.174-6.343
	c0.285-0.858,0.429-1.759,0.429-2.7c0-1.247-0.268-2.406-0.804-3.477c-1.099,0-2.079,0.193-2.943,0.582
	c-0.862,0.388-1.885,1.042-3.067,1.966c-1.449-0.342-2.944-0.513-4.487-0.513c-1.681,0-3.323,0.185-4.931,0.555
	c-1.209-0.951-2.245-1.62-3.109-2.008c-0.863-0.389-1.844-0.582-2.942-0.582c-0.545,1.062-0.817,2.22-0.817,3.477
	c0,0.951,0.144,1.86,0.43,2.728C14.379,21.65,13.654,23.755,13.654,26.267L13.654,26.267z M17.227,29.078
	c0-1.312,0.377-2.405,1.129-3.282s1.742-1.315,2.971-1.315c0.489,0,1.528,0.115,3.116,0.347c0.812,0.119,1.648,0.18,2.507,0.18
	s1.698-0.061,2.521-0.18c1.615-0.231,2.654-0.347,3.117-0.347c1.227,0,2.215,0.438,2.963,1.315s1.121,1.971,1.121,3.282
	c0,0.933-0.17,1.755-0.512,2.466c-0.342,0.683-0.769,1.226-1.281,1.627c-0.512,0.401-1.165,0.723-1.959,0.963
	c-1.312,0.396-2.854,0.595-4.627,0.595h-2.687c-0.877,0-1.671-0.041-2.382-0.124c-0.757-0.074-1.519-0.235-2.285-0.484
	c-0.767-0.25-1.399-0.564-1.897-0.942c-0.545-0.425-0.983-0.99-1.315-1.696C17.393,30.774,17.227,29.974,17.227,29.078z
	 M19.79,29.078c0,0.435,0.068,0.873,0.208,1.315c0.138,0.48,0.376,0.894,0.713,1.24c0.337,0.346,0.713,0.52,1.129,0.52
	c0.443,0,0.831-0.181,1.163-0.541c0.582-0.674,0.873-1.519,0.873-2.534c0-0.425-0.061-0.858-0.181-1.302
	c-0.139-0.48-0.376-0.893-0.713-1.239s-0.718-0.52-1.143-0.52c-0.443,0-0.831,0.185-1.164,0.554
	C20.085,27.208,19.79,28.044,19.79,29.078z M30.025,29.078c0,0.435,0.068,0.873,0.207,1.315c0.139,0.48,0.374,0.894,0.706,1.24
	c0.333,0.346,0.707,0.52,1.122,0.52c0.453,0,0.846-0.181,1.178-0.541c0.582-0.674,0.873-1.519,0.873-2.534
	c0-0.396-0.065-0.831-0.194-1.302c-0.139-0.48-0.376-0.893-0.714-1.239c-0.336-0.347-0.717-0.52-1.143-0.52
	c-0.443,0-0.821,0.185-1.135,0.554C30.325,27.208,30.025,28.044,30.025,29.078L30.025,29.078z"/>
</svg>
