<?xml version="1.0" encoding="utf-8"?>
<!-- Generator: Adobe Illustrator 16.0.0, SVG Export Plug-In . SVG Version: 6.00 Build 0)  -->
<!DOCTYPE svg PUBLIC "-//W3C//DTD SVG 1.1//EN" "http://www.w3.org/Graphics/SVG/1.1/DTD/svg11.dtd">
<svg version="1.1" id="Layer_1" xmlns="http://www.w3.org/2000/svg" xmlns:xlink="http://www.w3.org/1999/xlink" x="0px" y="0px"
	 width="200px" height="200px" viewBox="0 0 200 200" enable-background="new 0 0 200 200" xml:space="preserve">
<g>
	<g>
		<defs>
			<circle id="SVGID_5_" cx="100" cy="100" r="88.413"/>
		</defs>
		<use xlink:href="#SVGID_5_"  overflow="visible" fill="#380035"/>
		<clipPath id="SVGID_2_">
			<use xlink:href="#SVGID_5_"  overflow="visible"/>
		</clipPath>
		<polygon clip-path="url(#SVGID_2_)" fill="#FD376B" points="154.068,106.208 174.301,106.208 174.301,110.645 174.301,131.409 
			154.068,131.409 		"/>
		<polygon clip-path="url(#SVGID_2_)" fill="#FD82A7" points="44.626,106.208 24.394,106.208 24.394,110.645 24.394,131.409 
			44.626,131.409 		"/>
		<g clip-path="url(#SVGID_2_)">
			<rect x="43.454" y="132.718" fill="#38386A" width="112.553" height="74.651"/>
			<rect x="43.454" y="130.027" opacity="0.5" fill="#191919" width="111.888" height="18.647"/>
			<rect x="24.267" y="131.445" fill="#FD4037" width="23.976" height="41.958"/>
			<rect x="150.652" y="131.445" fill="#B00472" width="23.976" height="41.958"/>
			<circle fill="#FB739D" cx="75.208" cy="65.149" r="25.308"/>
			<circle fill="#FA4170" cx="125.272" cy="65.149" r="25.308"/>
			<path fill="#A8DCCF" d="M155.342,132.718c0,3.664-2.97,6.633-6.633,6.633H50.087c-3.664,0-6.633-2.969-6.633-6.633V71.391
				c0-3.662,2.969-6.632,6.633-6.632h98.622c3.663,0,6.633,2.97,6.633,6.632V132.718z"/>
			<rect x="53.038" y="139.351" fill="#7D7D7D" width="1.924" height="68.019"/>
			<rect x="68.416" y="139.351" fill="#7D7D7D" width="1.924" height="68.019"/>
			<rect x="83.794" y="139.351" fill="#7D7D7D" width="1.924" height="68.019"/>
			<rect x="99.172" y="139.351" fill="#7D7D7D" width="1.924" height="68.019"/>
			<rect x="114.55" y="139.351" fill="#7D7D7D" width="1.924" height="68.019"/>
			<rect x="129.927" y="139.351" fill="#7D7D7D" width="1.925" height="68.019"/>
			<rect x="145.305" y="139.351" fill="#7D7D7D" width="1.924" height="68.019"/>
			<path fill="#8D8D8D" d="M147.356,129.42c0,1.629-1.321,2.95-2.95,2.95h-90.73c-1.629,0-2.951-1.321-2.951-2.95V73.773
				c0-1.629,1.322-2.949,2.951-2.949h90.73c1.629,0,2.95,1.32,2.95,2.949V129.42z"/>
			<circle fill="#3B3B3B" cx="100" cy="68.05" r="1.822"/>
		</g>
	</g>
	<g>
		<ellipse fill="#FD82A7" cx="39.656" cy="110.673" rx="9.939" ry="11.27"/>
		<path fill="#FD82A7" d="M31.707,93.204c0.455-0.505,0.917-1.003,1.384-1.497c2.668-2.825,5.334-5.652,8-8.479
			c0.773-0.819,1.543-1.641,2.315-2.461c0,0,0,9.564,0,9.584c0-0.925,4.282-4.824,5.152-5.323c1.709-0.984,4.851-1.04,6.51,0.542
			c1.657,1.579,0.819,4.485,0.229,6.379l-10.471,8.964l-4.082,9.76c0,0-16.141-1.686-16.15-1.687
			c-0.638-0.066,0.426-6.12,0.676-6.707c0.803-1.893,2.208-3.554,3.363-5.237C29.562,95.686,30.61,94.424,31.707,93.204z"/>
	</g>
	<g>
		<ellipse fill="#FD376B" cx="159.038" cy="112.331" rx="9.938" ry="11.27"/>
		<path fill="#FD376B" d="M166.986,93.204c-0.454-0.505-0.917-1.003-1.384-1.497c-2.667-2.825-5.333-5.652-8-8.479
			c-0.772-0.819-1.543-1.641-2.315-2.461c0,0,0,9.564,0,9.584c0-0.925-4.281-4.824-5.151-5.323c-1.709-0.984-4.851-1.04-6.511,0.542
			c-1.657,1.579-0.819,4.485-0.229,6.379l10.472,8.964l4.082,9.76c0,0,16.141-1.686,16.149-1.687
			c0.639-0.066-0.426-6.12-0.675-6.707c-0.803-1.893-2.209-3.554-3.363-5.237C169.131,95.686,168.084,94.424,166.986,93.204z"/>
	</g>
	<g>
		<g>
			<path fill="#5A5A5B" d="M105.92,100.914c-1.056,0-2.041,0.311-2.774,0.874c-0.196,0.151-0.717,0.552-0.715,0.911
				c0.002,0.354,0.263,0.521,0.693,0.753c0.057,0.031,0.113,0.062,0.168,0.093c0.506,0.286,2.291,0.889,2.618,0.929l0.076,0.009
				c0.199,0.024,0.405,0.05,0.603,0.05l0,0c0.353,0,0.597-0.081,0.792-0.263c0.372-0.347,0.883-0.877,1.034-1.474
				c0.089-0.349,0.042-0.688-0.135-0.98c-0.221-0.364-0.623-0.639-1.106-0.754C106.766,100.964,106.344,100.914,105.92,100.914z"/>
			<path fill="#5A5A5B" d="M103.812,108.519c-0.107-0.022-0.213,0.048-0.235,0.155c-0.138,0.675-1.148,1.22-1.894,1.22
				c-0.69,0-1.289-0.663-1.47-1.303c-0.003-0.01-0.012-0.014-0.015-0.022v-1.079c0.826-0.168,1.847-1.286,2.057-1.524
				c0.114-0.13,0.101-0.326-0.028-0.44c-0.13-0.114-0.326-0.101-0.44,0.028c-0.487,0.555-1.364,1.336-1.787,1.336
				c-0.422,0-1.3-0.781-1.787-1.336c-0.114-0.129-0.312-0.143-0.44-0.028c-0.13,0.114-0.142,0.311-0.028,0.44
				c0.21,0.239,1.23,1.355,2.058,1.524v1.079c-0.005,0.009-0.013,0.013-0.016,0.022c-0.18,0.64-0.778,1.303-1.47,1.303
				c-0.745,0-1.755-0.545-1.894-1.22c-0.022-0.108-0.129-0.178-0.235-0.155c-0.107,0.021-0.177,0.127-0.154,0.235
				c0.181,0.88,1.354,1.537,2.283,1.537c0.734,0,1.347-0.532,1.67-1.143c0.004,0.001,0.009,0.003,0.014,0.003
				s0.009-0.002,0.015-0.003c0.323,0.61,0.935,1.143,1.669,1.143c0.93,0,2.104-0.657,2.283-1.538
				C103.99,108.646,103.92,108.54,103.812,108.519z"/>
			<path fill="#5A5A5B" d="M94.035,95.738l0.428-11.153c0,0-1.404,1.553-1.805,3.842C91.567,94.671,94.035,95.738,94.035,95.738z"/>
			<path fill="#5A5A5B" d="M97.019,103.452c0.431-0.231,0.692-0.398,0.694-0.753c0.002-0.358-0.52-0.76-0.716-0.911
				c-0.733-0.563-1.718-0.874-2.773-0.874c-0.424,0-0.846,0.05-1.255,0.147c-0.481,0.115-0.885,0.39-1.105,0.755
				c-0.178,0.293-0.224,0.631-0.136,0.979c0.152,0.598,0.664,1.127,1.035,1.474c0.194,0.182,0.438,0.263,0.792,0.263
				c0.196,0,0.402-0.025,0.603-0.05l0.076-0.009c0.327-0.04,2.113-0.643,2.617-0.929C96.905,103.515,96.962,103.483,97.019,103.452z
				"/>
			<path fill="#5A5A5B" d="M100,77.244c-13.663,0-24.738,11.075-24.738,24.739c0,13.661,11.075,24.736,24.738,24.736
				s24.738-11.075,24.738-24.736C124.738,88.319,113.663,77.244,100,77.244z M108.056,98.421l0.382,1.064
				c0.222,0.619-0.128,1.204-0.778,1.301l-0.112,0.021c0.445,0.169,0.819,0.454,1.042,0.822c0.228,0.378,0.289,0.812,0.177,1.255
				c-0.176,0.69-0.733,1.271-1.139,1.649c-0.101,0.093-0.213,0.162-0.335,0.218c0.208,0.146,0.379,0.276,0.467,0.359
				c0.203,0.194,0.395,0.89,0.424,1.546c0,0,0.253,5.588,0.332,7.448c0.086,2.012-0.438,8.02-0.438,8.02
				c0.029,0.656-0.415,1.456-0.988,1.778c0,0-1.778,1.444-6.925,1.444c-0.057,0-0.109-0.001-0.163-0.002
				c-0.054,0.001-0.107,0.002-0.162,0.002c-5.147,0-6.927-1.444-6.927-1.444c-0.572-0.322-1.018-1.122-0.987-1.778
				c0,0-0.521-6.061-0.436-8.09c0.078-1.843,0.329-7.378,0.329-7.378c0.029-0.656,0.221-1.352,0.424-1.546
				c0.097-0.091,0.29-0.236,0.525-0.399c-0.09-0.05-0.174-0.106-0.25-0.178c-0.405-0.377-0.963-0.959-1.139-1.649
				c-0.113-0.443-0.052-0.877,0.176-1.255c0.215-0.354,0.566-0.633,0.988-0.804l-0.201-0.039c-0.649-0.097-1.001-0.682-0.778-1.301
				l0.382-1.064c0.221-0.618,0.245-1.639,0.054-2.267c0,0-0.976-3.188-0.851-6.609c0.127-3.454,3.688-7.274,3.688-7.274
				c0.448-0.48,0.788-0.336,0.756,0.319l-0.664,13.426c-0.032,0.655,0.403,0.918,0.968,0.583l1.815-1.076
				c0.565-0.336,1.338-0.699,1.717-0.809c0.13-0.038,0.289-0.058,0.455-0.069v-0.013c0.04,0,0.078,0.005,0.117,0.006
				c0.039-0.001,0.077-0.006,0.117-0.006v0.013c0.166,0.012,0.325,0.031,0.454,0.069c0.38,0.109,1.152,0.473,1.718,0.809
				l1.815,1.076c0.564,0.335,1,0.072,0.968-0.583l-0.664-13.426c-0.032-0.655,0.308-0.8,0.756-0.319c0,0,3.562,3.82,3.688,7.274
				c0.126,3.422-0.85,6.609-0.85,6.609C107.811,96.782,107.835,97.803,108.056,98.421z"/>
			<path fill="#5A5A5B" d="M105.597,84.561l0.427,11.152c0,0,2.469-1.067,1.379-7.312C107.001,86.112,105.597,84.561,105.597,84.561
				z"/>
		</g>
		<path fill="#5A5A5B" d="M108.525,114.332"/>
	</g>
	<path fill="#FE4C40" d="M46.093,87.67c0.001,0.001,3.273,3.759,3.285,3.772c0.311,0.356,1.686-0.605,1.957-0.822
		c0.638-0.507,1.364-1.037,1.61-1.853c0.278-0.927,0.199-2.531-0.464-3.289c-0.893-1.019-2.896-1.394-3.871-0.423
		C48.401,85.265,46.085,87.661,46.093,87.67z"/>
	<path fill="#A2006A" d="M152.602,87.67c-0.001,0.001-3.274,3.759-3.286,3.772c-0.311,0.356-1.686-0.605-1.957-0.822
		c-0.637-0.507-1.364-1.037-1.609-1.853c-0.279-0.927-0.199-2.531,0.463-3.289c0.893-1.019,2.896-1.394,3.871-0.423
		C150.293,85.265,152.608,87.661,152.602,87.67z"/>
</g>
</svg>
