<?xml version="1.0" encoding="utf-8"?>
<!-- Generator: Adobe Illustrator 16.0.0, SVG Export Plug-In . SVG Version: 6.00 Build 0)  -->
<!DOCTYPE svg PUBLIC "-//W3C//DTD SVG 1.1//EN" "http://www.w3.org/Graphics/SVG/1.1/DTD/svg11.dtd">
<svg version="1.1" id="Layer_1" xmlns="http://www.w3.org/2000/svg" xmlns:xlink="http://www.w3.org/1999/xlink" x="0px" y="0px"
	 width="200px" height="200px" viewBox="0 0 200 200" enable-background="new 0 0 200 200" xml:space="preserve">
<g>
	<defs>
		<circle id="SVGID_7_" cx="100" cy="100" r="88.413"/>
	</defs>
	<clipPath id="SVGID_2_">
		<use xlink:href="#SVGID_7_"  overflow="visible"/>
	</clipPath>
	<rect x="7.487" y="6.453" clip-path="url(#SVGID_2_)" fill="#BCBCBC" width="199.179" height="194.253"/>
	<rect x="7.487" y="6.453" opacity="0.5" clip-path="url(#SVGID_2_)" fill="#707070" width="136.72" height="200.214"/>
	<g clip-path="url(#SVGID_2_)">
		<rect x="8.992" y="103.787" fill="#656565" width="54.139" height="91.963"/>
		<path fill="#414141" d="M61.626,105.292v88.954h-51.13v-88.954H61.626 M64.636,102.282H7.487v94.973h57.148V102.282
			L64.636,102.282z"/>
	</g>
	<g clip-path="url(#SVGID_2_)">
		<path fill="#414141" d="M96.579,71.294c0,2.521-2.043,4.563-4.563,4.563H41.249c-2.521,0-4.563-2.043-4.563-4.563v-5.418
			c0-2.521,2.043-4.563,4.563-4.563h50.766c2.521,0,4.563,2.043,4.563,4.563V71.294z"/>
		<circle fill="#414141" cx="40.964" cy="71.152" r="9.412"/>
	</g>
	<g clip-path="url(#SVGID_2_)">
		<path fill="#FFFFFF" d="M128.617,134.356c0,13.038-10.57,23.608-23.608,23.608h-3.932c-13.039,0-23.609-10.57-23.609-23.608
			V96.651c0-13.039,10.57-23.608,23.609-23.608h3.932c13.039,0,23.608,10.57,23.608,23.608V134.356z"/>
		<path fill="#FFFFFF" d="M128.808,91.965c0,13.087-10.609,23.698-23.697,23.698h-3.947c-13.087,0,15.093-10.611,15.093-23.698
			L77.468,54.12c0-13.087,10.609-23.696,23.696-23.696h3.947c13.087,0,23.697,10.609,23.697,23.696V91.965z"/>
	</g>
	<circle clip-path="url(#SVGID_2_)" fill="#B4B4B4" cx="103.138" cy="56.107" r="17.968"/>
	<g clip-path="url(#SVGID_2_)">
		<path fill="#D1D1D1" d="M110.838,58.817c0,2.52-2.043,4.563-4.563,4.563H55.509c-2.521,0-4.563-2.043-4.563-4.563v-5.418
			c0-2.521,2.043-4.563,4.563-4.563h50.766c2.521,0,4.563,2.043,4.563,4.563V58.817z"/>
		<circle fill="#D1D1D1" cx="55.224" cy="58.674" r="9.412"/>
	</g>
	<g clip-path="url(#SVGID_2_)">
		<g>
			<path fill="#5A5A5B" d="M106.419,116.501c-0.602,0-1.165,0.177-1.583,0.498c-0.112,0.087-0.409,0.315-0.408,0.521
				c0.001,0.201,0.149,0.297,0.396,0.429c0.032,0.018,0.064,0.036,0.096,0.054c0.289,0.162,1.307,0.507,1.493,0.529l0.043,0.005
				c0.114,0.014,0.231,0.028,0.344,0.028l0,0c0.201,0,0.34-0.046,0.452-0.149c0.212-0.198,0.503-0.5,0.59-0.841
				c0.051-0.198,0.024-0.393-0.077-0.56c-0.125-0.207-0.355-0.364-0.631-0.43C106.902,116.529,106.661,116.501,106.419,116.501z"/>
			<path fill="#5A5A5B" d="M105.217,120.838c-0.062-0.012-0.122,0.028-0.134,0.09c-0.079,0.384-0.655,0.695-1.08,0.695
				c-0.394,0-0.735-0.378-0.838-0.743c-0.002-0.006-0.007-0.008-0.008-0.013v-0.616c0.471-0.096,1.053-0.732,1.173-0.869
				c0.065-0.074,0.058-0.186-0.016-0.252c-0.074-0.064-0.186-0.057-0.251,0.018c-0.278,0.316-0.778,0.762-1.02,0.762
				c-0.241,0-0.742-0.445-1.02-0.762c-0.065-0.074-0.178-0.082-0.251-0.018c-0.074,0.066-0.081,0.178-0.017,0.252
				c0.12,0.137,0.702,0.773,1.174,0.869v0.616c-0.002,0.005-0.007,0.007-0.009,0.013c-0.103,0.365-0.444,0.743-0.838,0.743
				c-0.425,0-1.001-0.312-1.08-0.695c-0.013-0.062-0.074-0.102-0.134-0.09c-0.062,0.013-0.101,0.073-0.088,0.136
				c0.103,0.501,0.772,0.876,1.302,0.876c0.419,0,0.768-0.304,0.953-0.651c0.002,0,0.005,0.001,0.008,0.001s0.005-0.001,0.008-0.001
				c0.185,0.348,0.533,0.651,0.952,0.651c0.53,0,1.2-0.375,1.302-0.878C105.319,120.911,105.278,120.851,105.217,120.838z"/>
			<path fill="#5A5A5B" d="M99.64,113.549l0.244-6.363c0,0-0.801,0.886-1.029,2.191C98.232,112.939,99.64,113.549,99.64,113.549z"/>
			<path fill="#5A5A5B" d="M101.342,117.948c0.246-0.132,0.395-0.228,0.396-0.429c0.001-0.205-0.296-0.434-0.408-0.521
				c-0.418-0.321-0.98-0.498-1.582-0.498c-0.242,0-0.482,0.028-0.716,0.084c-0.275,0.065-0.505,0.223-0.631,0.431
				c-0.102,0.167-0.127,0.36-0.077,0.559c0.087,0.341,0.378,0.643,0.59,0.841c0.111,0.104,0.25,0.149,0.452,0.149
				c0.112,0,0.229-0.015,0.344-0.028l0.043-0.005c0.187-0.022,1.206-0.367,1.493-0.529
				C101.277,117.984,101.31,117.966,101.342,117.948z"/>
			<path fill="#5A5A5B" d="M103.042,102.999c-7.794,0-14.112,6.318-14.112,14.112c0,7.793,6.318,14.11,14.112,14.11
				s14.111-6.317,14.111-14.11C117.154,109.316,110.836,102.999,103.042,102.999z M107.638,115.078l0.218,0.607
				c0.126,0.354-0.073,0.688-0.444,0.742l-0.064,0.012c0.254,0.096,0.467,0.259,0.594,0.47c0.13,0.215,0.165,0.462,0.101,0.715
				c-0.1,0.395-0.418,0.726-0.649,0.941c-0.057,0.053-0.122,0.093-0.191,0.124c0.119,0.083,0.216,0.158,0.266,0.205
				c0.116,0.111,0.225,0.508,0.242,0.882c0,0,0.145,3.188,0.189,4.248c0.049,1.147-0.25,4.575-0.25,4.575
				c0.017,0.374-0.237,0.831-0.564,1.015c0,0-1.014,0.823-3.95,0.823c-0.032,0-0.062,0-0.093-0.001
				c-0.031,0.001-0.062,0.001-0.093,0.001c-2.936,0-3.951-0.823-3.951-0.823c-0.326-0.184-0.58-0.641-0.563-1.015
				c0,0-0.297-3.457-0.249-4.615c0.044-1.051,0.188-4.208,0.188-4.208c0.017-0.374,0.126-0.771,0.242-0.882
				c0.055-0.052,0.165-0.135,0.299-0.228c-0.051-0.029-0.099-0.062-0.143-0.102c-0.231-0.215-0.549-0.547-0.649-0.941
				c-0.064-0.253-0.029-0.5,0.1-0.715c0.123-0.202,0.323-0.361,0.564-0.459l-0.115-0.022c-0.371-0.055-0.571-0.389-0.444-0.742
				l0.218-0.607c0.126-0.352,0.14-0.935,0.031-1.292c0,0-0.557-1.818-0.485-3.771c0.072-1.971,2.104-4.15,2.104-4.15
				c0.256-0.274,0.45-0.191,0.431,0.183l-0.379,7.659c-0.018,0.373,0.23,0.523,0.552,0.332l1.036-0.614
				c0.322-0.191,0.763-0.398,0.979-0.461c0.074-0.021,0.165-0.032,0.26-0.039v-0.008c0.023,0,0.044,0.003,0.067,0.003
				s0.044-0.003,0.067-0.003v0.008c0.095,0.007,0.186,0.018,0.259,0.039c0.217,0.062,0.658,0.27,0.98,0.461l1.036,0.614
				c0.322,0.191,0.57,0.041,0.552-0.332l-0.379-7.659c-0.019-0.375,0.175-0.457,0.431-0.183c0,0,2.032,2.18,2.104,4.15
				c0.072,1.952-0.485,3.771-0.485,3.771C107.498,114.144,107.512,114.727,107.638,115.078z"/>
			<path fill="#5A5A5B" d="M106.235,107.172l0.244,6.362c0,0,1.408-0.609,0.787-4.172
				C107.036,108.057,106.235,107.172,106.235,107.172z"/>
		</g>
		<path fill="#5A5A5B" d="M107.906,124.155"/>
	</g>
</g>
</svg>
