<?xml version="1.0" encoding="utf-8"?>
<!-- Generator: Adobe Illustrator 18.1.1, SVG Export Plug-In . SVG Version: 6.00 Build 0)  -->
<svg version="1.1" id="Layer_1" xmlns="http://www.w3.org/2000/svg" xmlns:xlink="http://www.w3.org/1999/xlink" x="0px" y="0px"
	 viewBox="0 0 190 190" enable-background="new 0 0 190 190" xml:space="preserve">
<g>
	<path fill-rule="evenodd" clip-rule="evenodd" fill="#EE2662" d="M184.5,99.3c1.2-28.1-6.3-52.9-18.3-65.7
		c-12.4-15.7-51.7-16.2-92.7-0.1c-36,14.1-62.4,36.6-67.2,55.4C-0.4,108.8,28,139.5,71,158.3c44.1,19.3,86.9,14,95.5-1.1
		C175.2,142.2,183.5,123,184.5,99.3z"/>
	<path fill-rule="evenodd" clip-rule="evenodd" fill="#FFFFFF" d="M165.2,101.7c-0.3-1.5-1-2.9-1.7-4.3c-0.5-0.9-1.2-1.7-1.9-2.3
		c-1.9-1.6-4-2.7-6.4-3.3c-0.8-0.2-1.6-0.4-2.4-0.5c0.4-0.7,0.7-1.4,1.1-2.1c0.9-1.6,1.6-3.2,1.9-4.9c0.3-1.5,0.4-3.1,0.5-4.7
		c0.1-3.3-0.1-6.7,0.1-10c0-0.4,0-0.8,0-1.2c0-3.6-0.7-7-2.1-10.3c-0.3-0.6-0.5-1.2-0.8-1.9c-0.8-1.9-1.6-3.9-2.7-5.7
		c-0.7-1.2-1.5-2.3-2.7-3.2c-0.1-0.1-0.1-0.1-0.2-0.2c0.1-0.2,0.3-0.3,0.4-0.5c2-2.3,3.2-4.9,3.8-7.9c0.2-0.9,0.3-1.8,0.5-2.6
		c0.4-2,0.5-4,0-6c-0.4-1.8-1.1-3.5-2.1-5c-0.2-0.3-0.4-0.6-0.5-0.9c-0.7-1.4-1.7-2.6-2.9-3.6c-2.4-2.1-5.2-3.5-8.4-4.1
		c-1.8-0.3-3.7-0.4-5.5,0c-1.8,0.4-3.5,1-5.1,1.8c-1.6,0.7-2.9,1.8-3.9,3.3c-0.6,0.9-1.2,1.9-1.7,2.9c-1.2,2.5-1.8,5.1-1.4,7.9
		c0.4,2.7,1.7,4.9,3.9,6.4c1.8,1.2,3.8,1.8,6,1.5c0.4-0.1,0.9-0.1,1.3-0.1c2.3,0.1,4.3-0.7,6-2.3c0.2-0.2,0.3-0.4,0.5-0.5
		c1-0.7,1.6-1.7,1.9-2.9c0.2-0.5,0.2-1.1,0.1-1.6c-0.3-0.9-0.6-1.8-1.2-2.6c-1-1.4-2.5-1.9-4.2-1.9c-0.5,0-1,0.1-1.3,0.5
		c-0.6,0.6-1.3,1-2,1.4c-0.6,0.4-0.6,0.9-0.3,1.5c0.1,0.1,0.1,0.2,0.2,0.4c-0.2,0.1-0.3,0.1-0.4,0.1c-1.1,0-2.2-0.6-2.5-1.8
		c-0.1-0.4-0.2-0.9-0.2-1.3c0-1.3,0.2-2.6,0.6-3.8c0.4-1.2,1.1-2.1,2.2-2.7c1.1-0.6,2.3-0.9,3.5-1c2.9-0.1,5.3,0.9,7.3,3.1
		c1.8,2.1,2.7,4.6,2.8,7.4c0.1,3.4-0.4,6.6-1.6,9.8c-1.5,4.1-4.6,6.1-8.8,6.6c-1.4,0.2-2.9-0.1-4.3-0.3c-3.5-0.6-6.3-2.4-8.7-5
		c-0.4-0.4-0.6-0.9-0.5-1.5c0.1-0.6,0.1-1.2,0.1-1.8c0-0.7,0-1.3-0.1-2c-0.3-2-0.9-3.9-1.9-5.7c-0.7-1.2-1.5-2.2-2.3-3.3
		c-1.8-2.4-4.1-4.2-6.7-5.7c-2.1-1.2-4.4-1.9-6.8-2.3c-1-0.2-2-0.4-3-0.4c-2-0.1-4.1,0-6.1,0.4c-5.3,0.9-10.3,2.8-14.7,6.1
		c-1.8,1.3-3.4,2.8-4.7,4.7c-1.4,2.1-2.4,4.4-3.2,6.8c-0.4,1.4-0.8,2.9-1.1,4.4c-0.4,1.4-0.7,2.8-0.8,4.2c-0.6,0-1.2,0-1.8,0
		C67.6,47.2,66.8,47,66,47c-1.8-0.2-3.5-0.1-5.3,0.1c-2,0.2-3.9,0.7-5.7,1.5c-4.3,2-7.4,5.3-9.4,9.6c-0.4,0.9-0.8,1.9-1.1,2.9
		c-0.5,1.5-0.6,3.1-0.5,4.8c0,0.9,0.1,1.8,0.1,2.7c0,1.3,0,2.7,0.2,4c0.4,2.2,0.9,4.4,1.7,6.6c0.6,1.9,1.6,3.6,3.2,4.8
		c0.2,0.2,0.5,0.4,0.7,0.6c-0.1,0.1-0.2,0.1-0.2,0.1c-2.6,1.1-4.6,2.9-6.2,5.2c-1.1,1.5-1.9,3.1-2.6,4.8c-1.2,2.9-1.8,5.9-1.4,9
		c0.3,2.1,0.9,4.1,2.1,5.9c1.6,2.4,3.7,4.2,6.1,5.6c1.4,0.9,3,1.2,4.6,1.2c1.4,0,2.7-0.2,4-0.4c1.2-0.2,2.5-0.5,3.6-1.1
		c2.7-1.2,4.4-3.2,4.6-6.2c0.1-1.5,0.2-3,0-4.6c-0.1-1.3-0.4-2.6-1-3.8c-0.5-1.1-1.2-2.2-2.1-3c-1.1-0.9-2.3-1.3-3.7-1
		c-0.3,0.1-0.6,0.1-0.9,0.1c-1.5,0-2.9,0.3-4.3,0.9c-1.1,0.5-2,1.2-2.6,2.3c-0.4,0.8-0.5,1.6-0.2,2.5c0.1,0.3,0.1,0.5,0.2,0.8
		c0.1,0.4,0.1,0.8,0.2,1.1c0.2,0.9,0.3,1.8,0.9,2.5c0.2,0.3,0.4,0.5,0.8,0.5c0.4,0,0.7-0.2,0.9-0.5c0.1-0.1,0.1-0.2,0.2-0.3
		c0.2,0.1,0.4,0.2,0.6,0.3c0.5,0.2,0.9-0.1,0.9-0.6c0-0.1,0-0.3,0-0.4c0-0.6,0-1.3,0-1.9c0-0.7,0.4-1.3,1-1.7
		c0.7-0.4,1.5-0.6,2.4-0.5c0.9,0.1,1.5,0.7,1.9,1.5c0.4,0.8,0.6,1.7,0.7,2.6c0,0.3-0.1,0.7-0.2,1c-0.4,0.9-1,1.5-1.9,1.9
		c-1.9,0.9-3.9,1.2-6,1.2c-0.2,0-0.4,0-0.6-0.1c-1.4-0.2-2.5-0.9-3.5-1.9c-2-2-3.2-4.3-3.8-7.1c-0.2-0.9-0.4-1.7-0.2-2.6
		c0.7-3.9,2.9-6.5,6.7-7.6c2.7-0.8,5.4-0.9,8.2-0.8c2,0,3.6,1,4.9,2.5c0.3,0.4,0.6,0.8,1.1,0.9c0.1,1.1,0.2,2.1,0.2,3.2
		c0.1,3.4-0.1,6.8,0.2,10.2c0.2,2.4,0.5,4.8,0.9,7.2c0.9,4.7,2.5,9,4.8,13.1c1.3,2.2,3,4.1,5.1,5.6c0.1,0.1,0.3,0.2,0.5,0.3
		c-0.1,0.2-0.2,0.4-0.3,0.5c-0.1,0.1-0.1,0.2-0.2,0.2c-0.3,0.1-0.3,0.4-0.2,0.6c0.1,0.5,0.5,0.8,1,0.8c0.1,0,0.3,0,0.4,0
		c0.2,0.3,0.1,0.5,0,0.7c-0.1,0.2-0.2,0.5-0.2,0.8c0,0.4,0.1,0.5,0.6,0.6c0,0.1,0,0.2,0,0.4c0.1,2.1,0.1,4.2,0.2,6.4
		c0,0.2,0,0.4,0,0.6c-0.2,1.2-0.7,2.1-1.9,2.5c-0.9,0.4-1.9,0.7-2.8,1c-4.1,1.1-7.8,2.8-11.4,4.9c-1.7,1-3.2,2.1-4.9,3.1
		c-2.5,1.5-4.8,3.2-7,5.1c-0.7,0.6-0.8,1.1-0.1,1.9c0,0,0,0.1,0,0.1c-0.6,0.4-1.1,0.9-1.9,0.9c-0.3,0-0.5,0.2-0.6,0.4
		c-0.1,0.2-0.2,0.3-0.3,0.5c-0.2,0.3-0.2,0.6,0,1c0.2,0.3,0.5,0.5,0.9,0.4c0.5,0,1.2-0.5,1.3-1c0.1-0.2,0.1-0.3,0.2-0.4
		c0.4-0.4,0.8-0.8,1.2-1.1c1.2-1,2.4-1.9,3.6-2.9c0.6-0.5,1.3-0.9,1.9-1.4c0.8-0.5,1.6-1,2.4-1.6c2-1.6,4.3-2.7,6.6-3.7
		c2.4-1.1,4.9-2.1,7.4-3.1c0.6-0.2,1.2-0.5,1.7-0.8c0.8-0.4,1.6-0.6,2.5-0.6c0.4,0,0.7,0,0.9,0.5c0.2,0.5,0.8,0.7,1.4,0.5
		c0.6-0.2,0.8-0.7,0.6-1.4c0-0.1-0.1-0.2-0.1-0.3c-0.1-1.1-0.2-2.2-0.3-3.3c0-0.4,0-0.8,0-1.2c0.1-2.6-0.2-5.2,0-7.9
		c0-0.5,0-1-0.5-1.2c-0.1,0-0.1-0.1-0.1-0.2c-0.1-0.4-0.2-0.9-0.3-1.4c0.3,0.1,0.4,0.2,0.6,0.3c1.2,0.6,2.4,1.3,3.6,1.9
		c2.5,1.3,5.1,2.1,7.8,2.9c1.7,0.5,3.5,0.7,5.3,0.9c2.6,0.3,5.2,0.1,7.7-0.8c0.2-0.1,0.5-0.1,0.8-0.2c3-0.3,5.8-1.1,8.4-2.7
		c1-0.6,2-1.3,3-2c0.1-0.1,0.3-0.2,0.5-0.3c0,0.2,0,0.3,0,0.5c0,3.5-0.1,6.9-0.1,10.4c0,0.2,0,0.4,0,0.6c0.1,0.6,0.4,1.1,1,1.3
		c0.3,0.1,0.6,0.2,1,0.2c1.3,0.1,2.6,0.2,3.8,0.2c1.5,0,2.9,0.2,4.3,0.5c2.4,0.6,4.8,1.2,7.2,1.8c0.1,0,0.2,0.1,0.4,0.2
		c-0.6,0-1,0.2-1.2,0.6c-0.6,0.7-1.1,1.4-1.6,2.2c-0.5,0.8-1,1.6-1.5,2.4c-1.3,1.9-2.8,3.7-4.6,5.3c-1.3,1.2-2.6,2.2-4,3.2
		c-2.8,2-5.6,3.8-8.8,5.1c-0.4,0.1-0.7,0.3-1.1,0.4c-1.7,0.3-3.5,0.5-5.2,0.5c-3.2,0-6.5-0.3-9.7-0.8c-3.1-0.5-6.2-1.3-9.1-2.5
		c-3.3-1.3-6.3-3.1-8.9-5.6c-1.5-1.5-2.7-3.1-3.6-5c-0.3-0.6-0.5-1.3-0.7-2.1c-0.1-0.6-0.7-1-1.3-0.9c-0.2,0.1-0.4,0.2-0.6,0.3
		c-0.2-0.1-0.3-0.2-0.5-0.2c-0.6-0.2-1.2,0.1-1.4,0.7c-0.1,0.3-0.1,0.6,0.2,0.9c0.7,0.9,1.4,1.8,2,2.7c2.1,3.6,4.9,6.6,8.3,9
		c2.8,1.9,5.8,3.2,9.1,4.2c3.1,0.9,6.3,1.4,9.5,1.4c0.3,0,0.5,0,0.8,0c-0.1,0.1-0.2,0.2-0.3,0.2c-3,0.3-5.9,0.1-8.7-0.6
		c-3.9-1-7.6-2.6-11-4.8c-2.5-1.6-4.7-3.7-6.1-6.4c-0.3-0.5-0.6-1-0.9-1.6c-0.4-0.8-1.4-0.9-2-0.1c-0.1,0.1-0.1,0.2-0.2,0.3
		c-0.5-0.7-0.9-1.3-1.1-2c-0.1-0.6-0.3-1.1-0.4-1.7c0-0.1-0.1-0.2-0.2-0.3c-0.4-0.4-1-0.4-1.4-0.1c-0.4,0.3-0.6,0.8-0.4,1.3
		c0,0.1,0.1,0.2,0.2,0.3c0.7,0.4,1.2,1.1,1.6,1.8c1.3,1.9,2.6,3.9,4.1,5.7c2.5,3,5.4,5.4,8.9,7.1c4.4,2.2,9.1,3.3,14,3.5
		c2,0.1,3.9,0.1,5.9-0.1c3.7-0.3,7.4-1,10.9-2.3c4.2-1.5,8.2-3.5,11.8-6.3c3.2-2.5,5.9-5.4,7.9-9c0.6-1,1.2-2,1.8-3
		c0.1-0.2,0.2-0.3,0.3-0.5c0.3-0.5,0.4-0.9-0.1-1.2c0.1-0.4,0.2-0.7,0.2-1.1c0-0.3-0.2-0.6-0.3-1c0.9,0.3,1.9,0.5,2.8,1
		c2,1,3.8,2.3,5.5,3.7c2.9,2.3,5.7,4.8,8.1,7.5c2,2.2,3.9,4.5,5.9,6.8c0.1,0.1,0.2,0.2,0.3,0.3c-0.1,0.1-0.1,0.1-0.1,0.2
		c-0.3,0.5-0.3,1,0.1,1.3c0.3,0.4,0.7,0.5,1.3,0.3c0.2-0.1,0.3-0.1,0.5,0c0.5,0.2,1,0.1,1.3-0.3c0.3-0.4,0.3-0.8,0.1-1.3
		c-0.2-0.3-0.3-0.6-0.5-0.9c-1.1-2.2-2.5-4.2-4.1-6c-1.2-1.3-2.4-2.6-3.6-3.9c-2.5-2.5-5.2-4.7-8.4-6.3c-1.9-0.9-3.8-1.8-5.7-2.5
		c-0.3-0.1-0.7-0.2-1-0.4c-4.1-2-8.4-3.3-12.8-4.4c-1.5-0.4-3-0.7-4.4-1.4c-0.4-0.2-0.7-0.3-1.1-0.1c-0.1-0.2-0.1-0.4-0.2-0.6
		c-0.4-1.4-0.5-2.8-0.5-4.3c-0.1-1.7,0-3.4,0-5.1c0-0.3,0.1-0.6,0.4-0.8c2.5-2,4.5-4.3,6.3-6.9c1.7-2.6,2.9-5.5,3.6-8.5
		c0.3-1.4,0.6-2.8,1-4.1c0.7-2.5,1.4-4.9,2.1-7.3c0.7-2.3,1.1-4.7,1-7.2c-0.1-1.6-0.2-3.2-0.3-4.7c0-0.1,0-0.3,0-0.4
		c0.3-0.1,0.6-0.2,0.9-0.3c0,0.3,0,0.5,0,0.7c0.1,1.7,0.2,3.5,0.4,5.2c0.3,2.4,0.9,4.8,2.1,7c0.1,0.3,0.2,0.5,0.3,0.8
		c0.7,2.2,1.7,4.2,3,6.2c1.2,2,2.8,3.6,4.8,4.8c1.8,1.1,3.8,1.7,5.9,1.6c1.1-0.1,2.2-0.4,3.2-0.7c0.5-0.2,1-0.3,1.5-0.4
		c2.8-0.5,5.2-1.6,7.3-3.6c0.8-0.8,1.4-1.8,2.1-2.8C165.2,108.4,165.8,105.2,165.2,101.7z"/>
	<polygon fill-rule="evenodd" clip-rule="evenodd" fill="#F5F5F5" points="77.6,132.9 79.1,135.8 79.1,145 76.6,147.4 68.5,150 
		59.9,154.5 55,158.9 51.9,162.2 48.5,164.9 55.7,170.7 72.8,170.7 95,173.7 97.6,173.7 99.4,173 104.3,172.8 118.4,173.7 
		124.5,172.3 160,170.1 155.2,162.4 146.5,153.9 134.4,148.7 120.9,144.1 116.8,142.8 117.1,132.9 111,135.2 104.5,137.7 
		94.7,138.5 	"/>
	<g>
		<g>
			<path fill-rule="evenodd" clip-rule="evenodd" fill="#F5F5F5" d="M95.9,139.5c-1.8-0.2-3.6-0.4-5.3-0.9c-2.6-0.8-5.3-1.6-7.8-2.9
				c-1.2-0.6-2.4-1.3-3.6-1.9c-0.2-0.1-0.3-0.2-0.6-0.3c0.1,0.5,0.2,1,0.3,1.4c0,0.1,0.1,0.2,0.1,0.2c0.6,0.3,0.6,0.8,0.5,1.2
				c-0.2,2.6,0.1,5.2,0,7.9c0,0.4,0,0.8,0,1.2c0.1,1.1,0.2,2.2,0.3,3.3c0,0.1,0,0.2,0.1,0.3c0.2,0.6,0,1.1-0.6,1.4
				c-0.5,0.2-1.2,0-1.4-0.5c-0.2-0.5-0.5-0.5-0.9-0.5c-0.9,0-1.7,0.2-2.5,0.6c-0.6,0.3-1.1,0.6-1.7,0.8c-2.5,1-4.9,2-7.4,3.1
				c-2.3,1.1-4.6,2.2-6.6,3.7c-0.7,0.6-1.6,1.1-2.4,1.6c-0.6,0.4-1.3,0.9-1.9,1.4c-1.2,0.9-2.4,1.9-3.6,2.9
				c-0.4,0.3-0.8,0.7-1.2,1.1c-0.1,0.1-0.2,0.3-0.2,0.4c-0.2,0.5-0.8,1-1.3,1c-0.4,0-0.7-0.1-0.9-0.4c-0.2-0.3-0.2-0.6,0-1
				c0.1-0.2,0.2-0.3,0.3-0.5c0.1-0.2,0.4-0.4,0.6-0.4c0.8,0,1.3-0.6,1.9-0.9c0-0.1,0-0.1,0-0.1c-0.6-0.7-0.6-1.2,0.1-1.9
				c2.2-1.9,4.5-3.6,7-5.1c1.6-1,3.2-2.1,4.9-3.1c3.6-2.1,7.4-3.8,11.4-4.9c1-0.3,1.9-0.6,2.8-1c1.1-0.4,1.7-1.3,1.9-2.5
				c0-0.2,0-0.4,0-0.6c-0.1-2.1-0.1-4.2-0.2-6.4c0-0.1,0-0.3,0-0.4c-0.4-0.1-0.5-0.2-0.6-0.6c0-0.3,0.1-0.6,0.2-0.8
				c0.2-0.3,0.2-0.5,0-0.7c-0.1,0-0.3,0-0.4,0c-0.5,0-0.9-0.3-1-0.8c-0.1-0.2-0.1-0.5,0.2-0.6c0.1,0,0.2-0.2,0.2-0.2
				c0.1-0.2,0.2-0.3,0.3-0.5c-0.2-0.1-0.3-0.2-0.5-0.3c-2.1-1.5-3.8-3.3-5.1-5.6c-2.4-4.1-4-8.5-4.8-13.1c-0.4-2.4-0.7-4.8-0.9-7.2
				c-0.3-3.4-0.1-6.8-0.2-10.2c0-1.1-0.1-2.1-0.2-3.2c-0.6-0.1-0.8-0.5-1.1-0.9c-1.3-1.5-2.9-2.5-4.9-2.5c-2.8,0-5.5,0.1-8.2,0.8
				c-3.9,1.1-6,3.7-6.7,7.6c-0.2,0.9,0,1.7,0.2,2.6c0.5,2.7,1.8,5.1,3.8,7.1c1,1,2.1,1.7,3.5,1.9c0.2,0,0.4,0.1,0.6,0.1
				c2.1,0,4.1-0.3,6-1.2c0.9-0.4,1.5-1,1.9-1.9c0.1-0.3,0.2-0.6,0.2-1c0-0.9-0.2-1.8-0.7-2.6c-0.4-0.8-1-1.4-1.9-1.5
				c-0.8-0.1-1.6,0-2.4,0.5c-0.6,0.4-1,0.9-1,1.7c0,0.6,0,1.3,0,1.9c0,0.1,0,0.3,0,0.4c-0.1,0.5-0.4,0.8-0.9,0.6
				c-0.2-0.1-0.4-0.2-0.6-0.3c-0.1,0.1-0.1,0.2-0.2,0.3c-0.2,0.3-0.5,0.5-0.9,0.5c-0.4,0-0.6-0.2-0.8-0.5c-0.6-0.7-0.7-1.7-0.9-2.5
				c-0.1-0.4-0.1-0.7-0.2-1.1c0-0.3-0.1-0.6-0.2-0.8c-0.4-0.9-0.3-1.7,0.2-2.5c0.6-1.1,1.5-1.8,2.6-2.3c1.4-0.6,2.8-1,4.3-0.9
				c0.3,0,0.6,0,0.9-0.1c1.4-0.3,2.7,0.1,3.7,1c0.9,0.8,1.6,1.8,2.1,3c0.6,1.2,0.8,2.5,1,3.8c0.2,1.5,0.1,3,0,4.6
				c-0.3,3-2,5-4.6,6.2c-1.2,0.5-2.4,0.8-3.6,1.1c-1.3,0.3-2.7,0.4-4,0.4c-1.7,0-3.2-0.4-4.6-1.2c-2.4-1.5-4.5-3.3-6.1-5.6
				c-1.2-1.8-1.9-3.8-2.1-5.9c-0.4-3.1,0.2-6.1,1.4-9c0.7-1.7,1.5-3.3,2.6-4.8c1.6-2.3,3.6-4.1,6.2-5.2c0.1,0,0.1-0.1,0.2-0.1
				c-0.2-0.2-0.5-0.4-0.7-0.6c-1.6-1.3-2.6-2.9-3.2-4.8c-0.7-2.2-1.3-4.3-1.7-6.6c-0.2-1.3-0.3-2.7-0.2-4c0-0.9-0.1-1.8-0.1-2.7
				c-0.1-1.6,0-3.2,0.5-4.8c0.3-1,0.7-2,1.1-2.9c2-4.3,5.1-7.5,9.4-9.6c1.8-0.8,3.7-1.3,5.7-1.5c1.8-0.2,3.5-0.3,5.3-0.1
				c0.8,0.1,1.6,0.2,2.4,0.3c0.6,0,1.2,0,1.8,0c0.1-1.5,0.4-2.9,0.8-4.2c0.4-1.5,0.7-2.9,1.1-4.4c0.7-2.4,1.8-4.7,3.2-6.8
				c1.2-1.9,2.9-3.3,4.7-4.7c4.4-3.2,9.3-5.2,14.7-6.1c2-0.3,4.1-0.5,6.1-0.4c1,0.1,2,0.3,3,0.4c2.4,0.4,4.7,1.1,6.8,2.3
				c2.6,1.5,4.9,3.3,6.7,5.7c0.8,1.1,1.6,2.1,2.3,3.3c1,1.8,1.7,3.6,1.9,5.7c0.1,0.7,0.1,1.3,0.1,2c0,0.6,0,1.2-0.1,1.8
				c-0.1,0.6,0.2,1.1,0.5,1.5c2.4,2.6,5.2,4.4,8.7,5c1.4,0.2,2.9,0.5,4.3,0.3c4.2-0.5,7.3-2.5,8.8-6.6c1.2-3.2,1.7-6.4,1.6-9.8
				c-0.1-2.8-0.9-5.2-2.8-7.4c-1.9-2.2-4.4-3.2-7.3-3.1c-1.2,0-2.4,0.4-3.5,1c-1.1,0.6-1.8,1.5-2.2,2.7c-0.4,1.2-0.6,2.5-0.6,3.8
				c0,0.4,0.1,0.9,0.2,1.3c0.3,1.2,1.4,1.8,2.5,1.8c0.1,0,0.2-0.1,0.4-0.1c-0.1-0.1-0.1-0.3-0.2-0.4c-0.3-0.6-0.2-1.1,0.3-1.5
				c0.7-0.5,1.4-0.8,2-1.4c0.3-0.3,0.8-0.5,1.3-0.5c1.7,0,3.1,0.5,4.2,1.9c0.6,0.8,0.9,1.7,1.2,2.6c0.2,0.5,0.1,1.1-0.1,1.6
				c-0.3,1.2-0.9,2.1-1.9,2.9c-0.2,0.1-0.4,0.3-0.5,0.5c-1.7,1.6-3.6,2.4-6,2.3c-0.4,0-0.9,0.1-1.3,0.1c-2.2,0.3-4.2-0.3-6-1.5
				c-2.3-1.5-3.6-3.7-3.9-6.4c-0.4-2.8,0.2-5.4,1.4-7.9c0.5-1,1.1-2,1.7-2.9c1-1.5,2.3-2.6,3.9-3.3c1.6-0.8,3.4-1.4,5.1-1.8
				c1.8-0.4,3.6-0.4,5.5,0c3.2,0.6,5.9,2,8.4,4.1c1.2,1,2.2,2.2,2.9,3.6c0.2,0.3,0.3,0.6,0.5,0.9c1,1.6,1.6,3.3,2.1,5
				c0.5,2,0.4,4,0,6c-0.2,0.9-0.3,1.8-0.5,2.6c-0.6,3-1.8,5.6-3.8,7.9c-0.1,0.2-0.3,0.3-0.4,0.5c0.1,0.1,0.1,0.1,0.2,0.2
				c1.2,0.8,2,1.9,2.7,3.2c1,1.8,1.9,3.8,2.7,5.7c0.3,0.6,0.5,1.2,0.8,1.9c1.5,3.3,2.1,6.7,2.1,10.3c0,0.4,0,0.8,0,1.2
				c-0.2,3.3-0.1,6.7-0.1,10c0,1.6-0.2,3.1-0.5,4.7c-0.3,1.7-1,3.4-1.9,4.9c-0.4,0.7-0.7,1.4-1.1,2.1c0.8,0.2,1.6,0.3,2.4,0.5
				c2.4,0.7,4.5,1.8,6.4,3.3c0.8,0.7,1.4,1.4,1.9,2.3c0.7,1.4,1.4,2.7,1.7,4.3c0.6,3.5,0,6.7-1.9,9.6c-0.6,1-1.3,1.9-2.1,2.8
				c-2,2-4.5,3.1-7.3,3.6c-0.5,0.1-1,0.2-1.5,0.4c-1,0.4-2.1,0.6-3.2,0.7c-2.2,0.1-4.1-0.4-5.9-1.6c-2-1.2-3.6-2.8-4.8-4.8
				c-1.2-1.9-2.2-4-3-6.2c-0.1-0.3-0.2-0.6-0.3-0.8c-1.1-2.2-1.7-4.6-2.1-7c-0.2-1.7-0.3-3.5-0.4-5.2c0-0.2,0-0.4,0-0.7
				c-0.4,0.1-0.6,0.2-0.9,0.3c0,0.1,0,0.3,0,0.4c0.1,1.6,0.2,3.2,0.3,4.7c0.1,2.4-0.3,4.8-1,7.2c-0.7,2.4-1.4,4.9-2.1,7.3
				c-0.4,1.4-0.6,2.8-1,4.1c-0.7,3-1.9,5.9-3.6,8.5c-1.7,2.6-3.8,5-6.3,6.9c-0.3,0.2-0.4,0.5-0.4,0.8c0,1.7-0.1,3.4,0,5.1
				c0.1,1.4,0.1,2.9,0.5,4.3c0,0.2,0.1,0.3,0.2,0.6c0.4-0.2,0.8-0.1,1.1,0.1c1.4,0.7,2.9,1.1,4.4,1.4c4.4,1.1,8.7,2.4,12.8,4.4
				c0.3,0.2,0.7,0.3,1,0.4c2,0.7,3.9,1.5,5.7,2.5c3.2,1.6,5.9,3.8,8.4,6.3c1.2,1.3,2.4,2.6,3.6,3.9c1.7,1.8,3,3.8,4.1,6
				c0.1,0.3,0.3,0.6,0.5,0.9c0.2,0.5,0.2,0.9-0.1,1.3c-0.3,0.4-0.8,0.5-1.3,0.3c-0.2-0.1-0.3-0.1-0.5,0c-0.5,0.2-0.9,0.1-1.3-0.3
				c-0.3-0.4-0.4-0.8-0.1-1.3c0-0.1,0.1-0.1,0.1-0.2c-0.1-0.1-0.2-0.2-0.3-0.3c-2-2.3-3.9-4.5-5.9-6.8c-2.5-2.8-5.2-5.3-8.1-7.5
				c-1.7-1.4-3.5-2.7-5.5-3.7c-0.9-0.5-1.9-0.7-2.8-1c0.1,0.3,0.3,0.7,0.3,1c0,0.3-0.1,0.7-0.2,1.1c0.5,0.3,0.4,0.8,0.1,1.2
				c-0.1,0.2-0.2,0.3-0.3,0.5c-0.6,1-1.2,2-1.8,3c-2,3.6-4.7,6.5-7.9,9c-3.6,2.8-7.6,4.8-11.8,6.3c-3.5,1.3-7.2,2-10.9,2.3
				c-2,0.1-3.9,0.2-5.9,0.1c-4.9-0.3-9.6-1.3-14-3.5c-3.5-1.7-6.4-4.1-8.9-7.1c-1.5-1.8-2.8-3.7-4.1-5.7c-0.5-0.7-0.9-1.4-1.6-1.8
				c-0.1,0-0.2-0.2-0.2-0.3c-0.2-0.4,0-1,0.4-1.3c0.4-0.3,1-0.3,1.4,0.1c0.1,0.1,0.1,0.2,0.2,0.3c0.2,0.6,0.3,1.1,0.4,1.7
				c0.2,0.8,0.7,1.4,1.1,2c0.1-0.1,0.1-0.2,0.2-0.3c0.5-0.8,1.5-0.7,2,0.1c0.3,0.5,0.6,1,0.9,1.6c1.5,2.7,3.6,4.8,6.1,6.4
				c3.4,2.2,7.1,3.8,11,4.8c2.9,0.7,5.8,0.9,8.7,0.6c0.1,0,0.2,0,0.3-0.2c-0.3,0-0.5,0-0.8,0c-3.2-0.1-6.4-0.6-9.5-1.4
				c-3.2-0.9-6.3-2.2-9.1-4.2c-3.4-2.4-6.2-5.4-8.3-9c-0.6-1-1.3-1.9-2-2.7c-0.3-0.3-0.3-0.6-0.2-0.9c0.2-0.6,0.8-0.9,1.4-0.7
				c0.2,0.1,0.3,0.1,0.5,0.2c0.2-0.1,0.4-0.2,0.6-0.3c0.6-0.2,1.2,0.2,1.3,0.9c0.1,0.7,0.3,1.4,0.7,2.1c1,1.8,2.2,3.5,3.6,5
				 M87.1,165.6c2.9,1.2,6,2,9.1,2.5c3.2,0.5,6.4,0.8,9.7,0.8c1.8,0,3.5-0.2,5.2-0.5c0.4-0.1,0.8-0.2,1.1-0.4c3.2-1.3,6-3.1,8.8-5.1
				c1.4-1,2.7-2,4-3.2c1.7-1.6,3.2-3.4,4.6-5.3c0.5-0.8,1-1.6,1.5-2.4c0.5-0.8,1.1-1.5,1.6-2.2c0.3-0.4,0.7-0.6,1.2-0.6
				c-0.2-0.1-0.3-0.1-0.4-0.2c-2.4-0.6-4.8-1.3-7.2-1.8c-1.4-0.3-2.9-0.5-4.3-0.5c-1.3,0-2.6-0.1-3.8-0.2c-0.3,0-0.7-0.1-1-0.2
				c-0.6-0.2-0.9-0.6-1-1.3c0-0.2,0-0.4,0-0.6c0-3.5,0.1-6.9,0.1-10.4c0-0.1,0-0.2,0-0.5c-0.2,0.1-0.4,0.2-0.5,0.3c-1,0.7-2,1.3-3,2
				c-2.6,1.6-5.4,2.4-8.4,2.7c-0.3,0-0.5,0.1-0.8,0.2 M146.3,79.7c0.2-0.2,0.3-0.5,0.2-0.9C146.5,79.1,146.4,79.4,146.3,79.7
				c-0.1,0.2-0.2,0.4-0.3,0.6c0,0,0.1,0,0.1,0C146.1,80.1,146.2,79.9,146.3,79.7z M45.4,69.3c0,0.2,0,0.4,0,0.6c0,0,0,0,0.1,0
				C45.4,69.7,45.4,69.5,45.4,69.3c0-0.4-0.1-0.9-0.1-1.3c0,0.4,0,0.7,0,1C45.3,69.1,45.4,69.2,45.4,69.3z M47.6,56.8
				c-0.1,0.1-0.2,0.2-0.3,0.3c-0.7,1.1-1.1,2.2-1.6,3.4c0,0.1,0,0.2-0.1,0.4c0.1-0.2,0.1-0.2,0.2-0.3c0.6-1.2,1.1-2.3,1.7-3.5
				C47.6,57,47.6,56.9,47.6,56.8c0.2-0.1,0.3-0.3,0.2-0.5C47.8,56.4,47.7,56.6,47.6,56.8z M112.2,56.1c-0.1,0-0.2,0.1-0.3,0.1
				c-1.1,0.7-2.2,1.3-3.5,1.7c-0.1,0-0.2,0.1-0.2,0.1c1.1,0,2.1-0.5,3-1.1c0.3-0.2,0.5-0.4,0.8-0.5
				C112.1,56.3,112.1,56.2,112.2,56.1c0.1-0.1,0.2-0.1,0.4-0.2c0,0,0-0.1-0.1-0.1C112.5,55.9,112.4,56,112.2,56.1z M109.2,76.7
				c0,1,0.5,1.8,0.9,2.6c0.2,0.3,0.2,0.5,0,0.8c0,0.1-0.1,0.2-0.1,0.3c0.2,0.5,0.3,1,0.7,1.4c0.7,0.7,1.5,1.4,2.2,2
				c3.3,2.8,7,4.6,11.3,5.1c1.5,0.2,2.9,0.2,4.4,0.1c0.1,0,0.3-0.1,0.5-0.1c0-0.5,0-0.9,0-1.4c-0.2,0-0.3,0-0.4,0
				c-2.1-0.1-4.2-0.3-6.3-0.8c-2.5-0.5-4.9-1.4-6.9-3c-2.3-1.7-3.8-4-4.2-6.9c-0.3-2.2,0-4.4,0.5-6.5c0.4-1.4,1-2.7,1.9-3.8
				c1.1-1.4,2.6-2.3,4.2-3c0.2-0.1,0.4-0.2,0.6-0.3c-0.8,0-1.6,0.1-2.4,0.4c-2.1,0.9-3.8,2.3-5,4.2c-1.1,1.6-1.6,3.5-1.9,5.4
				c-0.1,0.6,0,1,0.4,1.4c0.1,0.1,0.1,0.2,0.2,0.3c0.3,0.5,0.2,1-0.2,1.4C109.4,76.6,109.3,76.6,109.2,76.7z M100.9,87.8
				c-0.1,0.1-0.2,0.2-0.3,0.3c-0.5,0.3-0.9,0.7-1.4,1c-1,0.6-2,1-3.1,1.2c-1.2,0.2-2.3,0.5-3.5,0.4c-2.3-0.1-4.2-1.1-5.8-2.8
				c-0.4-0.4-0.8-0.9-1.1-1.3c-0.1-0.1-0.2-0.2-0.2-0.2c0,0-0.1,0-0.1,0.1c0.2,0.4,0.3,0.9,0.5,1.3c1,1.5,2.2,2.7,3.9,3.4
				c1.8,0.7,3.8,1,5.7,1c1,0,1.9-0.2,2.8-0.6C99.9,90.8,100.7,89.5,100.9,87.8z M131,154.2c-0.2,0.3-0.3,0.5-0.5,0.7
				c-1.4,2.1-3,4-4.9,5.7c-2.5,2.2-5.2,4.1-8,5.9c-0.2,0.1-0.4,0.2-0.5,0.3c0.2,0,0.4,0,0.6-0.1c2.1-0.8,4.2-1.9,6.1-3.1
				c0.8-0.5,1.6-1.2,2.3-1.8c1.7-1.6,3.2-3.5,4.6-5.4C131,155.8,131.4,155.1,131,154.2z M109.3,171.3
				C109.3,171.3,109.3,171.3,109.3,171.3c-0.1-0.1-0.2-0.1-0.2-0.1c-1.3,0.2-2.5,0.2-3.8,0.2c-0.1,0-0.3,0-0.4,0
				c-1.7,0.4-3.5,0.6-5.2,0.8c-3,0.3-6,0.1-9-0.7c-5.1-1.3-9.7-3.7-14-6.7c-0.2-0.1-0.4-0.3-0.7-0.5c0.1,0.1,0.1,0.2,0.1,0.2
				c0.1,0.1,0.2,0.2,0.3,0.3c1.6,1.6,3.5,2.9,5.5,4c4.7,2.5,9.8,3.6,15.1,3.8c3.3,0.1,6.6-0.1,9.9-0.8
				C107.6,171.7,108.4,171.5,109.3,171.3z M58,113.3C58,113.3,58,113.2,58,113.3c-0.9-0.1-1.7-0.1-2.6-0.1c-0.1,0-0.2,0-0.3,0
				c-0.8,0-1.6,0-2.3-0.1c-2.2-0.3-4.2-1-5.9-2.4c-0.8-0.7-1.6-1.5-2.4-2.2c-0.5-0.5-0.9-1-1.4-1.4c0,0.2,0.1,0.5,0.3,0.6
				c0.7,0.9,1.3,1.9,2.1,2.8c2,2.4,4.7,3.7,7.8,4c0.3,0,0.5,0,0.8,0c1.2-0.2,2.4-0.5,3.6-1C57.7,113.4,57.8,113.4,58,113.3z
				 M69.6,117.5C69.5,117.5,69.5,117.5,69.6,117.5c0,0.1,0,0.2,0,0.3c0.3,1.3,0.7,2.5,1.3,3.7c1.8,4.2,4.5,7.7,8.1,10.4
				c0.8,0.6,1.7,1.1,2.6,1.6c0.1,0.1,0.3,0.1,0.4,0.2c-0.5-0.6-1.1-1.2-1.7-1.6c-2.6-1.9-4.6-4.3-6.3-6.9c-1.5-2.4-2.9-4.8-4.1-7.3
				C69.7,117.8,69.6,117.6,69.6,117.5z M143,152.7C143,152.7,143,152.7,143,152.7c0,0.1,0,0.1,0,0.2c0.4,0.4,0.9,0.7,1.3,1
				c2.7,2.1,5.1,4.4,7.4,7c1.6,1.8,3.2,3.7,4.8,5.5c0.1,0.1,0.2,0.3,0.4,0.4c0-0.2,0-0.3-0.1-0.4c-1-2.1-2.3-4-3.9-5.7
				c-0.5-0.5-1-1.1-1.5-1.6c-2.3-2.4-4.9-4.5-7.8-6.1C143.4,152.8,143.2,152.8,143,152.7z M78.6,146.5c-0.1,0.1-0.2,0.1-0.3,0.2
				c-0.5,0.5-1,0.8-1.7,1.1c-0.6,0.2-1.1,0.4-1.7,0.6c-2.6,0.7-5.1,1.6-7.5,2.7c-3.9,1.8-7.5,4-10.9,6.7c-0.1,0.1-0.3,0.2-0.4,0.4
				c0.8-0.4,1.6-0.9,2.3-1.5c2.3-1.7,4.8-2.9,7.3-4c1-0.4,2-0.8,2.9-1.2c1.1-0.5,2.3-1,3.4-1.4c0.7-0.3,1.4-0.6,2.1-1
				c0.8-0.4,1.6-0.7,2.6-0.7c0.2,0,0.3,0,0.5,0c0.2,0,0.3-0.1,0.3-0.3c0-0.1,0-0.2,0-0.3c0.3,0,0.5-0.1,0.8-0.1
				C78.4,147.2,78.5,146.9,78.6,146.5z M69.7,69.8c-0.6,0.2-1.1,0.3-1.7,0.5c-0.5,0.1-0.6,0.4-0.6,0.9c0,1.2,0.3,2.2,1.1,3
				c1.2,1.3,2.7,2,4.4,2.4c0.9,0.2,1.7,0.4,2.6,0.2c0.7-0.1,1.3-0.3,1.9-0.8c-0.4,0-0.8,0.1-1.2,0.2c-1.6,0.2-3.2-0.2-4.7-0.8
				c-1-0.4-1.8-1.1-2.4-2.1c-0.3-0.4-0.5-1-0.3-1.5c0.2-0.7,0.2-1.4,0.7-1.9C69.7,70,69.7,69.9,69.7,69.8z M135.3,91.6
				c0,0.4-0.1,0.7-0.1,1.1c0,0.9,0,1.8,0,2.7c0,2.4,0.4,4.7,0.9,6.9c0.2,0.9,0.4,1.9,0.8,2.8c0.9,2.3,2.5,4.2,4.3,5.9
				c0.5,0.5,1.2,0.8,1.9,1c0-0.1-0.1-0.1-0.1-0.2c-0.7-0.5-1.4-1-2-1.6c-1.1-0.9-2-2-2.6-3.2c-1.3-2.4-2-5-2.2-7.7
				c-0.1-1.6,0-3.3,0-4.9c0-0.8,0-1.6,0-2.4c0-0.2-0.1-0.4-0.2-0.6C135.6,91.5,135.5,91.6,135.3,91.6z M128.2,78
				c0,0,0.1,0.1,0.1,0.1c0.3-0.2,0.7-0.4,1-0.7c1.1-1,1.8-2.1,2.1-3.5c0.1-0.6,0.2-1.1,0.3-1.7c0.4-2-0.1-3.7-1.4-5.3
				c-0.1-0.1-0.2-0.2-0.3-0.3c0.1,0.2,0.1,0.4,0.1,0.5c0.1,0.7,0.4,1.5,0.4,2.2c0,1.7,0,3.3-0.1,4.9c-0.1,1.4-0.7,2.6-1.9,3.4
				C128.4,77.7,128.3,77.9,128.2,78z M113.2,131.9C113.2,131.9,113.2,131.8,113.2,131.9c-1.3,0.6-2.5,1.3-3.8,1.9
				c-1.2,0.6-2.5,1.2-3.8,1.7c-1.3,0.5-2.6,0.9-4,1.2c-1.3,0.2-2.7,0.4-4,0.6c0.9,0.1,1.8,0.2,2.6,0.1c1.4-0.1,2.8-0.4,4.2-0.6
				c0.8-0.1,1.6-0.3,2.3-0.7c1.5-0.9,3.1-1.9,4.6-2.8C112,132.9,112.6,132.4,113.2,131.9z M71.2,69.7c0.1,0.3,0.3,0.5,0.3,0.8
				c0.1,0.3,0,0.6-0.2,0.9c-0.2,0.3-0.4,0.1-0.7,0.2c-0.3,0-0.5,0.2-0.6,0.5c0,0.2,0,0.4,0.1,0.5c0.3,0.6,0.7,1.1,1.3,1.5
				c1-0.7,1.6-1.6,2-2.6c0.1-0.1,0.1-0.4,0-0.5C72.8,70.3,72.1,69.8,71.2,69.7z M77.3,160.5C77.2,160.6,77.2,160.6,77.3,160.5
				c0.3,0.7,0.8,1.3,1.4,1.7c3.2,2.5,6.7,4.4,10.6,5.6c2.7,0.8,5.4,1.4,8.2,1.8c1.3,0.2,2.6,0.4,3.9,0.3c0.2,0,0.4,0,0.5,0
				c-2-0.3-4-0.5-6-0.8c-3.9-0.6-7.6-1.7-11.2-3.4c-2.6-1.3-5-2.8-7.1-4.9C77.5,160.7,77.4,160.6,77.3,160.5z M161.6,101.2
				c0,0,0.1,0,0.1,0c-0.2-0.6-0.4-1.3-0.6-1.9c-0.5-1.5-1.4-2.7-2.5-3.7c-1-0.8-2.1-1.1-3.4-1.1c-0.3,0-0.5,0-0.9,0.2
				C157.8,95.9,160.2,98,161.6,101.2z M87.2,84.9c-0.2-1-0.4-1.9-0.6-2.8c-0.5-2.9,0.5-5.5,2.5-7.6c1.4-1.5,3-2.6,4.8-3.5
				c0.1,0,0.2-0.1,0.3-0.2c-0.3,0-0.7,0.1-1,0.2c-1.2,0.4-2.2,1-3.2,1.8c-0.7,0.5-1.3,1.2-1.8,2c-0.9,1.4-1.5,3-2,4.7
				c-0.3,0.9-0.5,1.8-0.4,2.8c0,0.3,0,0.5,0.2,0.7c0.1,0.1,0.1,0.2,0.2,0.3C86.5,83.9,86.9,84.3,87.2,84.9z M108.8,43.1
				C108.7,43.1,108.7,43.1,108.8,43.1c-0.1,0-0.2,0.1-0.2,0.1c-1.2,1.5-2.8,2.1-4.7,1.6c-0.6-0.1-1.2-0.2-1.8,0
				c-0.3,0.1-0.4,0.2-0.2,0.4c0.1,0.2,0.2,0.4,0.3,0.5c0.1,0,0.1,0,0.2,0c0.1,0,0.2-0.1,0.3-0.2c0.7-0.5,1.4-0.3,1.8,0.5
				c0,0.1,0.1,0.2,0.1,0.3c0.8-0.1,1.6-0.1,2.3-0.4C108.1,45.4,108.8,44.6,108.8,43.1z M122.5,28.3c-0.3,1.2-0.5,2.5-0.3,3.7
				c0.2,1.5,0.7,2.9,1.6,4.1c0.9,1.3,2.2,2.2,3.7,2.8c0.1,0,0.3,0.1,0.4,0.1C124.2,36.4,122.2,32.9,122.5,28.3z M121.9,74.8
				c0,0.4,0.1,0.7,0.1,1.1c0,0.3,0.1,0.6,0.3,0.9c0.4,0.5,0.8,0.9,1.4,1.1c0.1,0.1,0.3,0.1,0.5,0.1c1.1-0.1,2.1-0.3,3.1-0.8
				c0.3-0.2,0.6-0.4,0.8-0.7c0.7-1.2,1.1-2.4,1.4-3.7c0-0.2,0-0.4,0-0.6c-0.1,0.2-0.2,0.4-0.2,0.5c-0.3,0.8-0.5,1.6-0.8,2.4
				c-0.2,0.6-0.6,1.1-1,1.5c-0.5,0.6-1.2,0.9-2,0.7c-1.3-0.3-2.4-1-2.7-2.5c0,0-0.1-0.1-0.1-0.1C122.3,74.8,122.2,74.8,121.9,74.8z
				 M119.5,74.8c-0.6,0.3-0.8,0.8-0.7,1.4c0.3,1.7,1.2,3.1,2.9,3.7c0.6,0.2,1.2,0.3,1.8,0.4c1.1,0.2,2.2-0.1,3.2-0.5
				c-0.2,0-0.3,0-0.5,0c-1.5,0.1-3-0.2-4.3-0.8c-0.4-0.2-0.7-0.4-1.1-0.5c-0.4-0.2-0.8-0.4-1.1-0.8c-0.1-0.2-0.3-0.5-0.2-0.6
				c0.1-0.5,0-0.9,0-1.4C119.4,75.5,119.5,75.2,119.5,74.8z M76.5,80.8c1.4-0.1,3.6-1.1,5-2.3c1.4-1.3,2.8-3.6,2.8-4.7
				c-0.2,0.3-0.4,0.6-0.6,0.8c-0.7,0.9-1.3,1.8-2,2.7c-0.6,0.8-1.4,1.4-2.3,1.9C78.4,79.7,77.5,80.2,76.5,80.8z M144.1,104.4
				c-0.2-1.1-0.3-2.3-0.4-3.4c-0.1-1,0-1.9,0.3-2.9c0-0.1,0.1-0.3,0-0.4c-0.3-0.4-0.2-0.8,0-1.2c0.1-0.2,0.3-0.5,0.5-0.7
				c0,0-0.1,0-0.1-0.1c-0.1,0.1-0.3,0.3-0.4,0.4c-0.7,1-1.2,2-1.2,3.2c0,1.6,0.3,3.1,1,4.6C143.9,104.1,144,104.2,144.1,104.4z
				 M144.1,60.1c2,3.6,2.9,7.5,3.3,11.6c0.1-1.2,0.1-2.4-0.1-3.6c-0.2-1.6-0.7-3.2-1.2-4.7c-0.2-0.6-0.5-1.2-0.8-1.8
				C145,61,144.6,60.5,144.1,60.1z M146,69.7c-0.1,3.9-0.3,7.7-1.7,11.4C146.3,77.5,146.8,73.7,146,69.7z M145.1,50
				c0.1,0.1,0.2,0.2,0.3,0.3c0.9,0.8,1.7,1.6,2.5,2.5c1,1.1,1.7,2.4,2.4,3.6c0.3,0.4,0.5,0.8,0.8,1.2c0-0.3-0.1-0.6-0.2-0.8
				c-0.8-1.4-1.6-2.8-2.5-4.2c-0.4-0.7-0.9-1.3-1.4-1.9c-0.4-0.5-0.8-0.9-1.3-1.3C145.5,49.6,145.3,49.8,145.1,50z M146.1,99.6
				c0.9-1.7,2.4-2.7,4-3.5c-0.1-0.4-0.1-0.7-0.2-1.1c-0.2,0.2-0.5,0.3-0.7,0.4c-0.4,0.3-0.7,0.7-1.1,0.9c-0.6,0.3-1,0.9-1.5,1.4
				C146.3,98.3,146.1,98.9,146.1,99.6z M125.5,23.4c-1.6,1.3-2.3,5.3-1.2,7.1C124.3,28,124.6,25.7,125.5,23.4z M117.3,144.8
				c0,0.4,0.3,0.5,0.6,0.5c1,0.1,2,0.2,3,0.2c1.3,0.1,2.7,0.2,4,0.2c-0.1,0-0.2-0.1-0.4-0.1c-0.9-0.2-1.9-0.5-2.8-0.7
				c-0.6-0.1-1.2-0.2-1.8-0.2c-0.3,0-0.6,0-0.8,0.1c-0.3,0.1-0.5,0.1-0.7-0.1c-0.2-0.1-0.3-0.2-0.6-0.1
				C117.7,144.8,117.5,144.8,117.3,144.8z M153.4,81.5c-0.7,1.8-1.4,3.5-2.1,5.3c-0.7,1.8-1.7,3.4-2.7,5.1c0.4,0,0.7-0.1,0.8-0.5
				c0.9-1.8,1.8-3.6,2.6-5.4C152.7,84.6,153,83,153.4,81.5z M121.2,126.1C121.2,126.1,121.1,126.1,121.2,126.1
				c-0.5,0.4-1,0.9-1.6,1.3c-0.8,0.7-1.6,1.3-2.3,2c-0.7,0.7-1.4,1.4-2.2,2.2c-0.4,0.4-0.9,0.8-1.4,1.3c0.1,0,0.2,0,0.2-0.1
				c0.8-0.6,1.6-1.2,2.4-1.8c0.1-0.1,0.2-0.1,0.2-0.2c-0.1-0.6,0.4-0.7,0.8-0.8c0.2-0.1,0.5-0.2,0.6-0.3c1-1,2-2.1,2.9-3.1
				C120.9,126.4,121.1,126.3,121.2,126.1z M158.7,111.6c0.7-0.3,0.9-0.4,1.1-0.8c1.2-2,1.6-4.1,1.5-6.4c0-0.2-0.1-0.5-0.1-0.7
				c-0.2,1.1-0.3,2.2-0.4,3.2c-0.2,1.6-0.8,3.1-1.8,4.3C158.9,111.4,158.9,111.4,158.7,111.6z M57.2,65.5c0.3-0.7,0.6-1.5,1-2.2
				c0.4-0.7,0.8-1.5,1.2-2.2c0.4-0.7,0.9-1.3,1.4-2c-1.2,1-2.3,2.1-3,3.5c0,0,0,0,0,0.1C57.4,63.6,57.2,64.5,57.2,65.5z M118.5,45.4
				c-0.1,1.9-0.5,3.7-1.4,5.4c1.1-1.4,1.8-3,2.3-4.7C119.1,45.9,118.8,45.6,118.5,45.4z M90.1,45.1c-0.8,2,0.8,7.5,2.4,8.9
				C91,51.3,90,48.4,90.1,45.1z M78.3,78.3C78.3,78.3,78.2,78.3,78.3,78.3c-2,0.4-3.9,0.8-5.9,1.2c0.4,0,0.8,0.1,1.2,0.1
				c1.4,0,2.7-0.3,4-0.8C77.9,78.7,78.1,78.5,78.3,78.3z M69.7,68.7c1.5-0.3,2.9,0.2,4.1,1.1c0-0.2,0-0.3,0-0.5
				c-0.4-0.9-1.3-1.4-2.3-1.3C70.9,68.2,70.3,68.3,69.7,68.7z M114.6,31.1c-1.5-2.4-3.6-3.9-6.2-4.9
				C110.7,27.5,112.8,29.1,114.6,31.1z M60,86.8c-0.5-0.1-0.9-0.2-1.4-0.2c-1.4-0.1-2.7-0.1-4.1-0.2c-1,0-1.9,0.1-2.8,0.4
				c-0.6,0.2-1.2,0.4-1.8,0.7c1.6-0.5,3.3-0.9,5-0.9C56.6,86.6,58.3,86.7,60,86.8z M62,82.6c1.3,1.5,2.9,2.7,4.2,3
				c0.1-0.2,0.2-0.3,0.3-0.5c-0.8-0.4-1.6-0.7-2.4-1.1C63.4,83.6,62.8,83.1,62,82.6z M98.5,77.8c-0.4-0.6-1-0.9-1.7-1.1
				c-1.2-0.3-2.3,0.1-3.4,0.5c-0.2,0.1-0.4,0.2-0.6,0.3c0.1,0,0.2,0,0.3,0c0.7-0.4,1.4-0.5,2.2-0.4c0.3,0,0.6,0.1,0.9,0.2
				C97.1,77.3,97.8,77.5,98.5,77.8z M113.2,85.6c1.7,2,4.1,2.9,6.6,3.5c-1.2-0.5-2.3-1-3.4-1.6C115.3,86.9,114.3,86.2,113.2,85.6z
				 M119.2,38.3c0-0.9-1.4-4.6-2.2-5.6C117.3,33.8,118.6,37.3,119.2,38.3z M148.7,114.7c3.2,0.7,6.4,0,7.8-0.9
				C153.9,114.6,151.4,115.1,148.7,114.7z M119.2,43.1c0-0.3,0-0.6-0.1-1c0-0.3-0.1-0.7-0.2-1c-0.1-0.3-0.2-0.6-0.2-0.9
				c0,0.8,0,1.5-0.1,2.2c0,0.7-0.1,1.4-0.2,2.2c0.1,0,0.1,0,0.2,0c0-0.3,0-0.5,0.1-0.8C118.8,43.6,119,43.4,119.2,43.1z M125.9,62.6
				c-1.3-1.2-2.8-1-4.3-0.8C123,62.1,124.5,62.4,125.9,62.6z M133.3,37.1c0,0,0,0.1,0,0.1c0.3,0,0.6-0.1,0.9-0.1
				c0.6,0,1-0.3,1.2-0.8c0.2-0.4,0.4-0.7,0.4-1.1C135.2,36.1,134.3,36.7,133.3,37.1z M133.5,150.8
				C133.4,150.8,133.4,150.8,133.5,150.8c-0.8,0.7-1.4,1.6-1.9,2.5c0.3-0.1,0.6-0.1,0.9-0.2C132.8,152.4,133.1,151.6,133.5,150.8z
				 M136.9,36c0.9-0.3,1.3-2.4,0.7-3.2C137.3,33.9,137.1,35,136.9,36z M110.3,67.2c-1.3,1.5-2.3,4.1-2.1,5.6c0.3-1,0.5-2,0.8-2.9
				C109.4,69,109.9,68.1,110.3,67.2z M128.6,21.1c-0.6,0.2-0.9,0.3-1.1,0.7c-0.4,0.8-0.8,1.7-1.3,2.5c0,0.1,0,0.2-0.1,0.3
				C127,23.4,127.6,22.2,128.6,21.1z M61.6,48.3c0,0,0-0.1,0-0.1c-1.7,0.2-3.2,0.8-4.7,1.6C58.5,49.3,60.1,48.8,61.6,48.3z
				 M120.3,91c2.3,0.9,4.8,1.3,7.3,1.3C125.1,92,122.7,91.6,120.3,91z M130.8,94.4c0,2,0,4.3,0,6.6C131.1,98.7,131,96.5,130.8,94.4z
				 M127.6,37.5c-1-1.3-2-2.6-2.9-3.8C125.3,35.2,126.2,36.4,127.6,37.5z M130.9,65.7c-0.5-1-2.1-2.4-2.8-2.6c0.3,0.3,0.5,0.7,0.8,1
				C129.5,64.7,130.2,65.1,130.9,65.7z M128.7,66.3c-0.4-1.3-1.3-2.2-2.6-2.2C127.2,64.7,128.1,65.4,128.7,66.3z M152.3,92.9
				c0.3,0,0.6,0,0.9,0c0.3,0,0.6,0,0.9,0c0.3,0,0.5,0,0.8,0c-0.9-0.4-1.8-0.6-2.5-0.5c0,0.1-0.1,0.1-0.1,0.2
				C152.3,92.6,152.3,92.7,152.3,92.9z M154.7,83.6c-0.5,1.4-1,2.8-1.5,4.2c0,0,0.1,0,0.1,0C153.9,86.5,154.5,85.1,154.7,83.6z
				 M93.4,40.8c0.8-1,1.6-2,2.4-3C94.8,38.5,93.8,39.7,93.4,40.8z M149.2,26c-0.3-1.2-1.8-3.3-2.8-3.9
				C147.5,23.3,148.3,24.6,149.2,26z M142.7,60.5c-0.3-0.9-0.8-1.6-1.4-2.3c-0.1-0.1-0.2-0.1-0.3-0.1c0,0,0,0,0,0.1
				C141.5,58.9,142.1,59.7,142.7,60.5z M101.2,69.6c0.6,0.6,1.5,0.8,2.3,0.9C102.8,70.1,102.1,69.8,101.2,69.6z M63.7,88.3
				c0.4,0.3,0.8,0.6,1.3,0.8c0.1,0.1,0.3,0.1,0.4-0.1C65,88.5,64.6,88.3,63.7,88.3z M52.2,103.6c-0.1,0.5-0.3,0.8-0.7,0.9
				c0.3,0.5,0.3,0.6,0.8,0.5C52.3,104.6,52.3,104.1,52.2,103.6z M139.9,54.6C139.8,54.6,139.8,54.6,139.9,54.6
				c0.4,0.7,0.8,1.3,1.6,1.4C141,55.5,140.4,55,139.9,54.6z M61.5,112.8c0.6-0.4,1.1-1,1.3-1.6C62.2,111.5,61.8,112,61.5,112.8z
				 M72.3,78c-0.8-0.2-1.5-0.4-2.3-0.6C70.7,77.8,71.5,78,72.3,78z M159.7,113.9c-0.7,0.4-1.3,0.9-2,1.3c0,0,0,0.1,0.1,0.1
				C158.5,114.9,159.2,114.5,159.7,113.9z M148.1,106.3c-0.5-0.3-1-0.7-1.5-1c-0.1,0-0.1-0.1-0.2-0.1
				C146.8,105.7,147.4,106.1,148.1,106.3z M125.7,32.3c0.3,1.1,0.6,1.7,1.1,2C126.4,33.6,126,33,125.7,32.3z M137.6,88.9
				c-0.5,0.2-1.2,0.5-1.3,0.6c0,0,0,0.1,0,0.3C136.8,89.5,137.2,89.3,137.6,88.9z M68.7,55.2c0.7,0,1.4-0.1,2.1-0.1
				C70.1,55.1,69.4,54.8,68.7,55.2z M131.5,91c0,0.1,0,0.1,0,0.2c0.4,0,0.7-0.1,1.1-0.1c0.1,0,0.2-0.2,0.1-0.3
				C132.3,90.9,131.9,90.9,131.5,91z M139.9,88.2C140,88.2,140,88.3,139.9,88.2c0.5-0.2,0.8-0.5,1.2-0.8
				C140.6,87.4,140.2,87.8,139.9,88.2z M54,68.8c0.1,0,0.1,0,0.2,0c-0.1-0.6-0.1-1.2-0.2-1.8c0,0,0,0,0,0C54,67.6,54,68.2,54,68.8z
				 M147.1,94c0.7-0.2,0.8-0.3,0.9-0.7C147.6,93.4,147.3,93.6,147.1,94z M50.1,53.4c0.3-0.3,0.8-0.7,1.3-1.2c0,0,0,0,0,0
				C50.8,52.7,50.4,53.1,50.1,53.4z M55.4,73.7c0,0.5,0,1,0.1,1.2c0,0,0.1,0,0.3,0C55.6,74.5,55.5,74.1,55.4,73.7z M92.6,77.9
				c-0.4,0.2-0.8,0.6-1,1.1C92,78.6,92.3,78.2,92.6,77.9z M136.8,17.9c0-0.1,0-0.1,0-0.2c-0.4,0-0.7,0-1.1-0.1c0,0,0,0.1,0,0.1
				C136.1,17.8,136.5,17.9,136.8,17.9z M73.3,65.8c-0.3-0.3-0.7-0.5-1.1-0.5C72.6,65.5,72.9,65.7,73.3,65.8z M66.3,67.5
				c-0.2,0.3-0.5,0.5-0.5,0.9C66.2,68.3,66.3,68,66.3,67.5z M69.8,66.7C69.8,66.8,69.9,66.8,69.8,66.7c0.2,0.1,0.3,0,0.5,0
				c0.1,0,0.2,0,0.3-0.1c0,0,0-0.1,0-0.1C70.4,66.6,70.1,66.7,69.8,66.7z M54.4,99.7c0.1-0.1,0.2-0.1,0.3-0.2
				c0.1-0.1,0.2-0.1,0.3-0.2C54.6,99.2,54.5,99.5,54.4,99.7z M137.5,37C137.5,37,137.5,37.1,137.5,37c0.2,0,0.4-0.2,0.5-0.3
				c0,0,0,0,0,0C137.8,36.8,137.6,36.9,137.5,37z M122.8,123.9c-0.3,0.1-0.4,0.3-0.5,0.7C122.5,124.3,122.7,124.1,122.8,123.9z
				 M64.8,71.8c0,0-0.1,0-0.1,0c0,0.2,0,0.5,0,0.7c0,0,0.1,0,0.1,0C64.8,72.3,64.8,72,64.8,71.8z M72.8,49.9
				C72.8,49.9,72.7,49.9,72.8,49.9c0,0.2,0,0.4,0.1,0.6c0,0,0.1,0,0.1,0C72.9,50.2,72.9,50.1,72.8,49.9z M149.8,107.7
				C149.8,107.7,149.8,107.6,149.8,107.7c-0.1,0-0.3,0-0.4,0c0,0,0,0,0,0C149.5,107.7,149.6,107.7,149.8,107.7z M121.3,125.8
				C121.3,125.8,121.4,125.8,121.3,125.8c0.2,0,0.2-0.1,0.3-0.3c0,0,0,0-0.1,0C121.5,125.6,121.4,125.7,121.3,125.8z M122.1,125
				C122,124.9,122,124.9,122.1,125c-0.2,0.1-0.2,0.2-0.3,0.3c0,0,0,0,0.1,0C121.9,125.2,122,125.1,122.1,125z M49,54.8
				C49,54.8,49,54.8,49,54.8c-0.1,0-0.2,0.1-0.3,0.2c0,0,0,0,0.1,0C48.9,55,48.9,54.9,49,54.8z M49.6,54.1
				C49.6,54.1,49.5,54.1,49.6,54.1c-0.1,0-0.2,0.1-0.3,0.2c0,0,0,0,0.1,0C49.5,54.3,49.5,54.2,49.6,54.1z"/>
		</g>
	</g>
	<g>
		<g>
			<path fill-rule="evenodd" clip-rule="evenodd" fill="#003140" d="M70.2,47.2c0.1-1.5,0.4-2.9,0.8-4.2c0.4-1.5,0.7-2.9,1.1-4.4
				c0.7-2.4,1.8-4.7,3.2-6.8c1.2-1.9,2.9-3.3,4.7-4.7c4.4-3.2,9.3-5.2,14.7-6.1c2-0.3,4.1-0.5,6.1-0.4c1,0.1,2,0.3,3,0.4
				c2.4,0.4,4.7,1.1,6.8,2.3c2.6,1.5,4.9,3.3,6.7,5.7c0.8,1.1,1.6,2.1,2.3,3.3c1,1.8,1.7,3.6,1.9,5.7c0.1,0.7,0.1,1.3,0.1,2
				c0,0.6,0,1.2-0.1,1.8c-0.1,0.6,0.2,1.1,0.5,1.5c2.4,2.6,5.2,4.4,8.7,5c1.4,0.2,2.9,0.5,4.3,0.3c4.2-0.5,7.3-2.5,8.8-6.6
				c1.2-3.2,1.7-6.4,1.6-9.8c-0.1-2.8-0.9-5.2-2.8-7.4c-1.9-2.2-4.4-3.2-7.3-3.1c-1.2,0-2.4,0.4-3.5,1c-1.1,0.6-1.8,1.5-2.2,2.7
				c-0.4,1.2-0.6,2.5-0.6,3.8c0,0.4,0.1,0.9,0.2,1.3c0.3,1.2,1.4,1.8,2.5,1.8c0.1,0,0.2-0.1,0.4-0.1c-0.1-0.1-0.1-0.3-0.2-0.4
				c-0.3-0.6-0.2-1.1,0.3-1.5c0.7-0.5,1.4-0.8,2-1.4c0.3-0.3,0.8-0.5,1.3-0.5c1.7,0,3.1,0.5,4.2,1.9c0.6,0.8,0.9,1.7,1.2,2.6
				c0.2,0.5,0.1,1.1-0.1,1.6c-0.3,1.2-0.9,2.1-1.9,2.9c-0.2,0.1-0.4,0.3-0.5,0.5c-1.7,1.6-3.6,2.4-6,2.3c-0.4,0-0.9,0.1-1.3,0.1
				c-2.2,0.3-4.2-0.3-6-1.5c-2.3-1.5-3.6-3.7-3.9-6.4c-0.4-2.8,0.2-5.4,1.4-7.9c0.5-1,1.1-2,1.7-2.9c1-1.5,2.3-2.6,3.9-3.3
				c1.6-0.8,3.4-1.4,5.1-1.8c1.8-0.4,3.6-0.4,5.5,0c3.2,0.6,5.9,2,8.4,4.1c1.2,1,2.2,2.2,2.9,3.6c0.2,0.3,0.3,0.6,0.5,0.9
				c1,1.6,1.6,3.3,2.1,5c0.5,2,0.4,4,0,6c-0.2,0.9-0.3,1.8-0.5,2.6c-0.6,3-1.8,5.6-3.8,7.9c-0.1,0.2-0.3,0.3-0.4,0.5
				c0.1,0.1,0.1,0.1,0.2,0.2c1.2,0.8,2,1.9,2.7,3.2c1,1.8,1.9,3.8,2.7,5.7c0.3,0.6,0.5,1.2,0.8,1.9c1.5,3.3,2.1,6.7,2.1,10.3
				c0,0.4,0,0.8,0,1.2c-0.2,3.3-0.1,6.7-0.1,10c0,1.6-0.2,3.1-0.5,4.7c-0.3,1.7-1,3.4-1.9,4.9c-0.4,0.7-0.7,1.4-1.1,2.1
				c0.8,0.2,1.6,0.3,2.4,0.5c2.4,0.7,4.5,1.8,6.4,3.3c0.8,0.7,1.4,1.4,1.9,2.3c0.7,1.4,1.4,2.7,1.7,4.3c0.6,3.5,0,6.7-1.9,9.6
				c-0.6,1-1.3,1.9-2.1,2.8c-2,2-4.5,3.1-7.3,3.6c-0.5,0.1-1,0.2-1.5,0.4c-1,0.4-2.1,0.6-3.2,0.7c-2.2,0.1-4.1-0.4-5.9-1.6
				c-2-1.2-3.6-2.8-4.8-4.8c-1.2-1.9-2.2-4-3-6.2c-0.1-0.3-0.2-0.6-0.3-0.8c-1.1-2.2-1.7-4.6-2.1-7c-0.2-1.7-0.3-3.5-0.4-5.2
				c0-0.2,0-0.4,0-0.7c-0.4,0.1-0.6,0.2-0.9,0.3c0,0.1,0,0.3,0,0.4c0.1,1.6,0.2,3.2,0.3,4.7c0.1,2.4-0.3,4.8-1,7.2
				c-0.7,2.4-1.4,4.9-2.1,7.3c-0.4,1.4-0.6,2.8-1,4.1c-0.7,3-1.9,5.9-3.6,8.5c-1.7,2.6-3.8,5-6.3,6.9c-0.3,0.2-0.4,0.5-0.4,0.8
				c0,1.7-0.1,3.4,0,5.1c0.1,1.4,0.1,2.9,0.5,4.3c0,0.2,0.1,0.3,0.2,0.6c0.4-0.2,0.8-0.1,1.1,0.1c1.4,0.7,2.9,1.1,4.4,1.4
				c4.4,1.1,8.7,2.4,12.8,4.4c0.3,0.2,0.7,0.3,1,0.4c2,0.7,3.9,1.5,5.7,2.5c3.2,1.6,5.9,3.8,8.4,6.3c1.2,1.3,2.4,2.6,3.6,3.9
				c1.7,1.8,3,3.8,4.1,6c0.1,0.3,0.3,0.6,0.5,0.9c0.2,0.5,0.2,0.9-0.1,1.3c-0.3,0.4-0.8,0.5-1.3,0.3c-0.2-0.1-0.3-0.1-0.5,0
				c-0.5,0.2-0.9,0.1-1.3-0.3c-0.3-0.4-0.4-0.8-0.1-1.3c0-0.1,0.1-0.1,0.1-0.2c-0.1-0.1-0.2-0.2-0.3-0.3c-2-2.3-3.9-4.5-5.9-6.8
				c-2.5-2.8-5.2-5.3-8.1-7.5c-1.7-1.4-3.5-2.7-5.5-3.7c-0.9-0.5-1.9-0.7-2.8-1c0.1,0.3,0.3,0.7,0.3,1c0,0.3-0.1,0.7-0.2,1.1
				c0.5,0.3,0.4,0.8,0.1,1.2c-0.1,0.2-0.2,0.3-0.3,0.5c-0.6,1-1.2,2-1.8,3c-2,3.6-4.7,6.5-7.9,9c-3.6,2.8-7.6,4.8-11.8,6.3
				c-3.5,1.3-7.2,2-10.9,2.3c-2,0.1-3.9,0.2-5.9,0.1c-4.9-0.3-9.6-1.3-14-3.5c-3.5-1.7-6.4-4.1-8.9-7.1c-1.5-1.8-2.8-3.7-4.1-5.7
				c-0.5-0.7-0.9-1.4-1.6-1.8c-0.1,0-0.2-0.2-0.2-0.3c-0.2-0.4,0-1,0.4-1.3c0.4-0.3,1-0.3,1.4,0.1c0.1,0.1,0.1,0.2,0.2,0.3
				c0.2,0.6,0.3,1.1,0.4,1.7c0.2,0.8,0.7,1.4,1.1,2c0.1-0.1,0.1-0.2,0.2-0.3c0.5-0.8,1.5-0.7,2,0.1c0.3,0.5,0.6,1,0.9,1.6
				c1.5,2.7,3.6,4.8,6.1,6.4c3.4,2.2,7.1,3.8,11,4.8c2.9,0.7,5.8,0.9,8.7,0.6c0.1,0,0.2,0,0.3-0.2c-0.3,0-0.5,0-0.8,0
				c-3.2-0.1-6.4-0.6-9.5-1.4c-3.2-0.9-6.3-2.2-9.1-4.2c-3.4-2.4-6.2-5.4-8.3-9c-0.6-1-1.3-1.9-2-2.7c-0.3-0.3-0.3-0.6-0.2-0.9
				c0.2-0.6,0.8-0.9,1.4-0.7c0.2,0.1,0.3,0.1,0.5,0.2c0.2-0.1,0.4-0.2,0.6-0.3c0.6-0.2,1.2,0.2,1.3,0.9c0.1,0.7,0.3,1.4,0.7,2.1
				c1,1.8,2.2,3.5,3.6,5c2.6,2.5,5.6,4.3,8.9,5.6c2.9,1.2,6,2,9.1,2.5c3.2,0.5,6.4,0.8,9.7,0.8c1.8,0,3.5-0.2,5.2-0.5
				c0.4-0.1,0.8-0.2,1.1-0.4c3.2-1.3,6-3.1,8.8-5.1c1.4-1,2.7-2,4-3.2c1.7-1.6,3.2-3.4,4.6-5.3c0.5-0.8,1-1.6,1.5-2.4
				c0.5-0.8,1.1-1.5,1.6-2.2c0.3-0.4,0.7-0.6,1.2-0.6c-0.2-0.1-0.3-0.1-0.4-0.2c-2.4-0.6-4.8-1.3-7.2-1.8c-1.4-0.3-2.9-0.5-4.3-0.5
				c-1.3,0-2.6-0.1-3.8-0.2c-0.3,0-0.7-0.1-1-0.2c-0.6-0.2-0.9-0.6-1-1.3c0-0.2,0-0.4,0-0.6c0-3.5,0.1-6.9,0.1-10.4
				c0-0.1,0-0.2,0-0.5c-0.2,0.1-0.4,0.2-0.5,0.3c-1,0.7-2,1.3-3,2c-2.6,1.6-5.4,2.4-8.4,2.7c-0.3,0-0.5,0.1-0.8,0.2
				c-2.5,0.9-5.1,1-7.7,0.8c-1.8-0.2-3.6-0.4-5.3-0.9c-2.6-0.8-5.3-1.6-7.8-2.9c-1.2-0.6-2.4-1.3-3.6-1.9c-0.2-0.1-0.3-0.2-0.6-0.3
				c0.1,0.5,0.2,1,0.3,1.4c0,0.1,0.1,0.2,0.1,0.2c0.6,0.3,0.6,0.8,0.5,1.2c-0.2,2.6,0.1,5.2,0,7.9c0,0.4,0,0.8,0,1.2
				c0.1,1.1,0.2,2.2,0.3,3.3c0,0.1,0,0.2,0.1,0.3c0.2,0.6,0,1.1-0.6,1.4c-0.5,0.2-1.2,0-1.4-0.5c-0.2-0.5-0.5-0.5-0.9-0.5
				c-0.9,0-1.7,0.2-2.5,0.6c-0.6,0.3-1.1,0.6-1.7,0.8c-2.5,1-4.9,2-7.4,3.1c-2.3,1.1-4.6,2.2-6.6,3.7c-0.7,0.6-1.6,1.1-2.4,1.6
				c-0.6,0.4-1.3,0.9-1.9,1.4c-1.2,0.9-2.4,1.9-3.6,2.9c-0.4,0.3-0.8,0.7-1.2,1.1c-0.1,0.1-0.2,0.3-0.2,0.4c-0.2,0.5-0.8,1-1.3,1
				c-0.4,0-0.7-0.1-0.9-0.4c-0.2-0.3-0.2-0.6,0-1c0.1-0.2,0.2-0.3,0.3-0.5c0.1-0.2,0.4-0.4,0.6-0.4c0.8,0,1.3-0.6,1.9-0.9
				c0-0.1,0-0.1,0-0.1c-0.6-0.7-0.6-1.2,0.1-1.9c2.2-1.9,4.5-3.6,7-5.1c1.6-1,3.2-2.1,4.9-3.1c3.6-2.1,7.4-3.8,11.4-4.9
				c1-0.3,1.9-0.6,2.8-1c1.1-0.4,1.7-1.3,1.9-2.5c0-0.2,0-0.4,0-0.6c-0.1-2.1-0.1-4.2-0.2-6.4c0-0.1,0-0.3,0-0.4
				c-0.4-0.1-0.5-0.2-0.6-0.6c0-0.3,0.1-0.6,0.2-0.8c0.2-0.3,0.2-0.5,0-0.7c-0.1,0-0.3,0-0.4,0c-0.5,0-0.9-0.3-1-0.8
				c-0.1-0.2-0.1-0.5,0.2-0.6c0.1,0,0.2-0.2,0.2-0.2c0.1-0.2,0.2-0.3,0.3-0.5c-0.2-0.1-0.3-0.2-0.5-0.3c-2.1-1.5-3.8-3.3-5.1-5.6
				c-2.4-4.1-4-8.5-4.8-13.1c-0.4-2.4-0.7-4.8-0.9-7.2c-0.3-3.4-0.1-6.8-0.2-10.2c0-1.1-0.1-2.1-0.2-3.2c-0.6-0.1-0.8-0.5-1.1-0.9
				c-1.3-1.5-2.9-2.5-4.9-2.5c-2.8,0-5.5,0.1-8.2,0.8c-3.9,1.1-6,3.7-6.7,7.6c-0.2,0.9,0,1.7,0.2,2.6c0.5,2.7,1.8,5.1,3.8,7.1
				c1,1,2.1,1.7,3.5,1.9c0.2,0,0.4,0.1,0.6,0.1c2.1,0,4.1-0.3,6-1.2c0.9-0.4,1.5-1,1.9-1.9c0.1-0.3,0.2-0.6,0.2-1
				c0-0.9-0.2-1.8-0.7-2.6c-0.4-0.8-1-1.4-1.9-1.5c-0.8-0.1-1.6,0-2.4,0.5c-0.6,0.4-1,0.9-1,1.7c0,0.6,0,1.3,0,1.9
				c0,0.1,0,0.3,0,0.4c-0.1,0.5-0.4,0.8-0.9,0.6c-0.2-0.1-0.4-0.2-0.6-0.3c-0.1,0.1-0.1,0.2-0.2,0.3c-0.2,0.3-0.5,0.5-0.9,0.5
				c-0.4,0-0.6-0.2-0.8-0.5c-0.6-0.7-0.7-1.7-0.9-2.5c-0.1-0.4-0.1-0.7-0.2-1.1c0-0.3-0.1-0.6-0.2-0.8c-0.4-0.9-0.3-1.7,0.2-2.5
				c0.6-1.1,1.5-1.8,2.6-2.3c1.4-0.6,2.8-1,4.3-0.9c0.3,0,0.6,0,0.9-0.1c1.4-0.3,2.7,0.1,3.7,1c0.9,0.8,1.6,1.8,2.1,3
				c0.6,1.2,0.8,2.5,1,3.8c0.2,1.5,0.1,3,0,4.6c-0.3,3-2,5-4.6,6.2c-1.2,0.5-2.4,0.8-3.6,1.1c-1.3,0.3-2.7,0.4-4,0.4
				c-1.7,0-3.2-0.4-4.6-1.2c-2.4-1.5-4.5-3.3-6.1-5.6c-1.2-1.8-1.9-3.8-2.1-5.9c-0.4-3.1,0.2-6.1,1.4-9c0.7-1.7,1.5-3.3,2.6-4.8
				c1.6-2.3,3.6-4.1,6.2-5.2c0.1,0,0.1-0.1,0.2-0.1c-0.2-0.2-0.5-0.4-0.7-0.6c-1.6-1.3-2.6-2.9-3.2-4.8c-0.7-2.2-1.3-4.3-1.7-6.6
				c-0.2-1.3-0.3-2.7-0.2-4c0-0.9-0.1-1.8-0.1-2.7c-0.1-1.6,0-3.2,0.5-4.8c0.3-1,0.7-2,1.1-2.9c2-4.3,5.1-7.5,9.4-9.6
				c1.8-0.8,3.7-1.3,5.7-1.5c1.8-0.2,3.5-0.3,5.3-0.1c0.8,0.1,1.6,0.2,2.4,0.3C68.9,47.3,69.5,47.2,70.2,47.2z M146.3,79.7
				c0.2-0.2,0.3-0.5,0.2-0.9C146.5,79.1,146.4,79.4,146.3,79.7c-0.1,0.2-0.2,0.4-0.3,0.6c0,0,0.1,0,0.1,0
				C146.1,80.1,146.2,79.9,146.3,79.7z M45.4,69.3c0,0.2,0,0.4,0,0.6c0,0,0,0,0.1,0C45.4,69.7,45.4,69.5,45.4,69.3
				c0-0.4-0.1-0.9-0.1-1.3c0,0.4,0,0.7,0,1C45.3,69.1,45.4,69.2,45.4,69.3z M47.6,56.8c-0.1,0.1-0.2,0.2-0.3,0.3
				c-0.7,1.1-1.1,2.2-1.6,3.4c0,0.1,0,0.2-0.1,0.4c0.1-0.2,0.1-0.2,0.2-0.3c0.6-1.2,1.1-2.3,1.7-3.5C47.6,57,47.6,56.9,47.6,56.8
				c0.2-0.1,0.3-0.3,0.2-0.5C47.8,56.4,47.7,56.6,47.6,56.8z M112.2,56.1c-0.1,0-0.2,0.1-0.3,0.1c-1.1,0.7-2.2,1.3-3.5,1.7
				c-0.1,0-0.2,0.1-0.2,0.1c1.1,0,2.1-0.5,3-1.1c0.3-0.2,0.5-0.4,0.8-0.5C112.1,56.3,112.1,56.2,112.2,56.1c0.1-0.1,0.2-0.1,0.4-0.2
				c0,0,0-0.1-0.1-0.1C112.5,55.9,112.4,56,112.2,56.1z M68,88.7c-0.1,0.7-0.2,1.3-0.2,1.9c0,3.8,0,7.5,0,11.3
				c0,2.1,0.2,4.2,0.5,6.2c0.4,2,0.8,4,1.5,5.9c0.8,2.3,1.8,4.5,2.9,6.7c0.4,0.8,0.8,1.6,1.3,2.3c2,2.8,3.9,5.6,6.5,8
				c0.5,0.4,1,0.8,1.5,1.2c2.2,1.4,4.6,2.4,7,3.2c1.9,0.6,3.9,1,5.9,1c1,0,1.9-0.1,2.9-0.1c2.6-0.2,5.1-0.7,7.6-1.7
				c2.2-0.8,4.2-2,6.3-3.1c2.2-1.2,4.3-2.7,6.3-4.3c1.5-1.2,2.8-2.5,3.9-4c1.3-1.7,2.3-3.6,3.1-5.6c1.2-2.8,1.9-5.7,2.2-8.6
				c0.3-2.4,0.5-4.8,0.7-7.2c0.2-2,0.3-3.9,0.5-5.9c0.1-0.8,0.1-1.5,0.2-2.3c-0.3,0-0.5,0-0.7,0c-1.4-0.1-2.9-0.2-4.3-0.4
				c-2.9-0.4-5.5-1.4-8.1-2.7c-1.8-0.9-3.5-2-5-3.4c-1.8-1.7-3.2-3.7-4-6.1c-0.3-0.8-0.4-1.7-0.5-2.5c-0.1-0.5-0.1-1.1-0.4-1.5
				c-0.6-1.2-1.4-2.3-2.5-3.1c-1-0.8-2-1.5-3.1-2c-0.7-0.3-1.4-0.6-2.2-0.5c-1.7,0.2-3.4,0.6-4.9,1.5c-1,0.6-1.8,1.3-2.7,2
				c-1.2,1-2,2.3-2.5,3.8c-0.3,0.9-0.5,1.8-0.4,2.8c0.1,0.7,0.2,1.3,0.3,2c0.4,1.5,1.1,2.8,2.4,3.8c0.8,0.6,1.7,1,2.8,0.9
				c1-0.1,1.9-0.3,2.9-0.4c0.2,0,0.3-0.1,0.4-0.2c0.5-0.6,1.1-1.1,1.6-1.8c0.8-1.2,0.7-2.5,0.1-3.7c-0.7-1.2-1.8-1.7-3.1-1.8
				c-1.4,0-2.4,1.5-1.9,2.6c0.3,0.2,0.7,0.3,0.8,0.5c0.3,0.5,0.6,0.9,1.2,0.9c0.1,0,0.3,0.3,0.3,0.5c0,0.2-0.1,0.4-0.3,0.5
				c-0.1,0-0.2,0.1-0.3,0.1c-0.3,0-0.5,0.1-0.8,0.3c-0.4,0.3-0.8,0.3-1.3,0.1c-0.2-0.1-0.4-0.2-0.6-0.3c-0.9-0.4-1.6-1-1.7-2
				c-0.1-0.7-0.2-1.4-0.4-2.1c-0.3-1.4,0.2-2.6,1.1-3.6c1-1.1,2.3-1.6,3.7-1.8c1.9-0.3,3.5,0.2,4.6,1.8c1.3,1.8,2.2,3.7,2.4,5.9
				c0.1,0.7,0,1.3,0.1,2c0.1,1.4-0.1,2.7-0.6,4c-0.4,1.2-1.2,2.1-2.3,2.7c-1.3,0.7-2.7,1.1-4.2,1c-1.2-0.1-2.4-0.2-3.5-0.4
				c-2.5-0.5-4.6-1.7-6.1-3.8c-0.5-0.7-0.9-1.5-1-2.3c-0.1-0.3-0.1-0.6-0.2-1c-0.1,0.1-0.2,0.2-0.3,0.2c-1,0.8-2.1,1.5-3.3,2
				c-2.4,0.9-4.9,1.5-7.5,1.4c-0.2,0-0.5,0.1-0.7,0.1c-0.3,0.1-0.6,0.2-0.9-0.1c-0.1-0.1-0.3-0.2-0.5-0.2C70,88.9,69.1,88.8,68,88.7
				z M105.9,70.8c0.3-0.6,0.5-1.1,0.8-1.6c0.7-1.1,1.6-2,2.5-2.9c0.3-0.3,0.7-0.6,0.9-1c0.7-0.9,1.6-1.7,2.5-2.4
				c2.1-1.6,4.4-2.5,6.9-2.8c2-0.2,3.9,0,5.9,0.4c1.9,0.4,3.6,1.2,4.9,2.7c1.2,1.5,2.2,3.1,2.8,4.9c0.6,1.8,0.9,3.7,0.4,5.5
				c-0.6,2.5-2,4.6-4.1,6.1c-0.3,0.2-0.5,0.4-0.8,0.5c-0.8,0.3-1.5,0.7-2.3,0.9c-1.3,0.4-2.6,0.5-3.9,0.2c-2.3-0.5-3.8-1.7-4.6-4
				c-0.5-1.6-0.3-3.1,1-4.3c0.1,0,0.1-0.1,0.2-0.2c0.3-0.7,0.9-0.9,1.6-0.8c0.1,0,0.2,0,0.3,0c0.2,0.1,0.5,0.1,0.7,0.2
				c0.2,0.2,0.4,0.3,0.8,0.2c0.5-0.1,0.9,0.2,1,0.8c0,0.3,0.1,0.6,0.1,0.9c0,1,0.6,1.6,1.5,1.9c0.7,0.3,1.1,0.2,1.6-0.4
				c0.3-0.4,0.5-0.8,0.8-1.2c0.8-1.7,1-3.5,1.1-5.3c0-0.2,0-0.3-0.1-0.5c-0.6-1.3-1.3-2.4-2.4-3.4c-0.2-0.2-0.5-0.4-0.8-0.5
				c-1.8-0.7-3.7-1-5.6-0.6c-3.3,0.8-5.7,2.7-6.7,6.1c-0.4,1.4-0.6,2.8-0.7,4.2c-0.2,3.3,1,6,3.6,8.1c1.7,1.4,3.7,2.3,5.9,2.8
				c1.4,0.3,2.8,0.5,4.3,0.7c1.1,0.1,2.1,0.2,3.2,0.2c0.5-0.8,0.8-0.9,1.4-0.2c0.1,0,0.2,0,0.4,0c1.3-0.2,2.5-0.6,3.7-1.2
				c2.5-1.1,4.3-2.9,5.4-5.5c1-2.4,1.3-4.9,1.2-7.5c-0.1-1.9-0.6-3.8-1.3-5.6c-1.1-2.8-2.7-5.1-4.8-7.3c-1.1-1.1-2.4-2-3.8-2.7
				c-0.8-0.4-1.5-0.7-2.4-0.6c-0.2,0-0.3,0-0.5-0.1c-0.5-0.2-0.7-0.8-0.6-1.3c0.1-0.5,0.6-0.8,1.1-0.8c0.6,0.1,1.2,0.3,1.7,0.6
				c1.9,1.1,3.5,2.6,5.1,4.1c2.8,2.7,4.7,5.9,5.7,9.5c1.1,3.8,1,7.6-0.3,11.4c-0.9,2.5-2.5,4.5-4.8,5.9c-1.5,0.9-3.1,1.4-4.7,1.8
				c-0.3,0.1-0.5,0.1-0.8,0.2c0.1,0.5,0.2,1,0.3,1.5c0.7-0.1,1.4-0.2,2-0.3c0.1,0,0.3-0.1,0.4-0.1c0.2-0.2,0.4-0.2,0.7-0.1
				c0.1,0,0.2,0,0.3,0c1.8-0.5,3.6-1.1,5-2.4c1.5-1.3,2.6-2.8,3.2-4.8c0.8-2.7,1.5-5.4,1.6-8.2c0.1-1.8,0.3-3.5,0.1-5.3
				c-0.3-2.1-0.8-4.1-2-5.8c-0.5-0.8-1-1.6-1.6-2.3c-0.8-1-1.6-2-2.5-3c-0.4-0.4-0.8-0.8-1.3-1.2c-0.5-0.4-1-0.9-1.5-1.4
				c-1.3,0.1-2.7-0.1-4-0.3c-0.9-0.1-1.8-0.3-2.7-0.4c-2-0.3-3.8-0.9-5.4-2.3c-0.7-0.6-1.3-1.4-1.8-2.2c-0.2-0.3-0.4-0.5-0.7-0.5
				c0,0.1-0.1,0.1-0.1,0.2c-0.6,2.1-1.6,3.9-2.8,5.7c-3.1,4.5-7.5,6.7-12.9,6.8c-3.8,0-7.2-1.2-10.3-3.4c-2.9-2-4.8-4.8-5.6-8.3
				c-0.3-1.5-0.5-3-0.2-4.6c0.7-3.2,2.3-5.7,4.9-7.7c0.3-0.3,0.7-0.5,1-0.8c1.2-1,2.5-2,4-2.6c1.5-0.6,3.1-0.9,4.7-0.9
				c1.6-0.1,3,0.4,4.4,1.2c3.1,1.7,4.3,5,3.7,7.9c-0.2,1.1-0.5,2.1-0.8,3.1c-0.4,1.4-1.2,2.4-2.3,3.3c-0.9,0.6-1.8,1.1-2.9,1
				c-0.5-0.1-1-0.3-1.5-0.4c-0.5-0.1-1,0.1-1.6,0c-1.2-0.1-2.2-0.5-2.8-1.6c-0.4-0.8-0.4-1.2,0.2-1.9c0.2-0.2,0.2-0.4,0.1-0.6
				c-0.1-0.1-0.1-0.3-0.2-0.4c-0.2-0.2-0.1-0.4,0-0.6c0.2-0.4,0.6-0.7,1.1-0.6c0.2,0,0.3,0.1,0.5,0.1c0.4-0.5,0.8-0.8,1.5-0.5
				c0.2,0.5,0.4,0.8,0.7,0.9c0.7,0.2,1.4,0.4,2.1,0.2c1.1-0.3,1.9-1,2.4-2.1c0.2-0.4,0.2-0.7-0.1-1c-0.7-1.1-1.7-2-2.7-2.8
				c-0.7-0.6-1.5-0.7-2.4-0.4c-0.3,0.1-0.6,0.2-0.9,0.3c-1.5,0.7-2.8,1.7-3.9,3c-0.7,0.8-1.2,1.8-1.4,2.8c-0.1,0.7-0.2,1.3-0.3,2
				c-0.2,1.7,0.2,3.2,1.2,4.6c0.1,0.1,0.2,0.2,0.2,0.3c2.2,2.8,5.1,3.7,8.5,3.1c2.6-0.4,4.7-1.9,6.1-4.1c2.3-3.5,3.1-7.4,2.5-11.6
				c-0.4-2.5-1.6-4.6-3.5-6.2c-1.3-1.1-2.7-2.1-4.3-2.9c-0.6-0.3-1.3-0.6-1.9-0.9c-1.9-0.8-4-1.1-6-1.2c-1.5-0.1-3-0.1-4.5,0.2
				c-2.9,0.6-5.6,1.8-8.1,3.5c-2.6,1.7-4.6,4-5.9,6.8c-0.6,1.2-1.1,2.4-1.5,3.7c-0.8,2.2-1,4.6-0.7,6.9c0.3,2,0.7,4,1.5,5.9
				c0.3,0.6,0.2,1.1-0.3,1.5c0,0,0,0.1,0,0.1c0,0,0,0.1,0.1,0.1c0.2,0.1,0.3,0.2,0.5,0.3c2,1.1,3.6,2.7,4.7,4.7
				c0.2,0.4,0.4,0.8,0.6,1.2c0.8,2.4,1,4.8,0.6,7.3c-0.2,1.2-0.6,2.3-0.6,3.6c0,0.2-0.1,0.4-0.1,0.7c0,0.1,0,0.2,0,0.3
				c0,0,0.1,0,0.1,0.1c0-0.1,0.1-0.1,0.1-0.2c1-1.3,2.2-2.3,3.7-3c1.1-0.6,2.3-1,3.5-1.2c1.3-0.2,2.5-0.5,3.8-0.7
				c3.2-0.4,6.1,0.3,8.7,2.2C105.6,70.6,105.8,70.7,105.9,70.8z M153.6,101c0-0.4,0-0.7,0-1c0-0.3,0.2-0.5,0.4-0.5
				c0.3-0.1,0.5,0,0.6,0.2c0.4,0.4,0.5,0.9,0.4,1.4c-0.2,0.5-0.1,1-0.1,1.5c0,0.2,0,0.4,0.1,0.6c0.1,0.7-0.1,1.2-0.5,1.8
				c-0.4,0.6-0.9,1.1-1.5,1.4c-0.6,0.3-1,0.7-1.4,1.3c-0.8,1-1.9,1.3-3.2,0.9c-0.6-0.2-1.1-0.5-1.7-0.8c-0.2-0.1-0.4-0.2-0.5-0.3
				c-1-0.2-1.9-0.8-2.4-1.6c-0.4-0.5-0.7-1.1-1-1.6c-0.8-1.5-1.1-3.1-1-4.8c0.1-1.7,0.7-3.2,1.9-4.5c0.8-0.8,1.7-1.5,2.7-2.1
				c0.2-0.1,0.4-0.3,0.6-0.5c0.7-1.1,1.4-2.2,2.1-3.3c1.1-1.9,1.9-4,2.7-6.1c0.8-2.1,1.5-4.3,1.9-6.5c0.1-0.6,0.2-1.2,0.2-1.8
				c0-1.7-0.2-3.3-0.4-5c-0.3-2.2-0.8-4.3-1.5-6.4c-0.7-2-1.7-3.8-2.7-5.7c-1-2-2.4-3.9-3.8-5.7c-0.3-0.3-0.5-0.6-0.8-0.8
				c-0.3-0.3-0.4-0.3-0.7,0c-1.1,0.8-2.2,1.4-3.4,1.9c-0.1,0.1-0.3,0.1-0.5,0.2c0.2,0.2,0.4,0.3,0.5,0.4c2.9,2.2,5.1,5,6.7,8.3
				c0.4,0.9,0.8,1.9,1.1,2.9c0.5,1.9,0.8,3.9,0.9,5.8c0.1,1.3,0.1,2.6-0.1,4c-0.3,2.3-1.1,4.6-1.9,6.7c-1.1,2.8-2.9,5.1-5.3,7
				c-1.3,1.1-2.7,2-4.3,2.6c-0.2,0.1-0.3,0.1-0.5,0.2c0.1,0.5,0.2,1,0.2,1.5c0,0.9,0,1.9,0,2.8c-0.2,2.9,0,5.7,0.9,8.4
				c1.2,3.9,3.8,6.5,7.4,8.2c1.3,0.7,2.8,0.9,4.2,1.1c2,0.3,3.9,0.1,5.8-0.6c2.1-0.8,3.5-2.3,4-4.4c0.3-1,0.4-2,0.5-3
				c0.2-1.6,0.1-3.2-0.5-4.7c-0.4-1.1-1.1-2-2.2-2.7c-0.6-0.4-1.3-0.6-2-0.8c-1.1-0.2-2.2-0.4-3.3-0.2c-1.2,0.3-2.4,0.8-3.4,1.6
				c-1.1,0.9-1.8,2-2.1,3.4c-0.1,0.4,0,0.8,0.2,1.1c0.4,0.7,1.6,1.4,2.4,1.3c0.1,0,0.3-0.1,0.4-0.1c0.5-0.3,0.9-0.7,1.2-1.2
				c0.1-0.2,0.1-0.6,0.1-1.1c0-0.1,0-0.2,0.1-0.3c0.2-0.4,0.7-0.6,1.1-0.5c0.4,0.1,0.7,0.4,0.8,0.9c0,0.5-0.2,0.9-0.6,1.1
				c-0.3,0.1-0.5,0.3-0.7,0.6c-0.3,0.6-0.8,1-1.4,1.3c-0.2,0.1-0.5,0.2-0.8,0.4c0.8,0.1,1.4,0,2-0.3c0.5-0.2,0.9-0.6,1.1-1.3
				c0.2-0.6,0.4-1.2,0.6-1.9C153.1,101.5,153.3,101.1,153.6,101z M74.4,75.1c0.5,0,1,0.1,1.5,0.1c1.8-0.1,3.2-0.9,4-2.6
				c0.7-1.4,0.9-2.9,0.7-4.5c-0.3-2.3-1.3-4.2-2.9-5.8c-1.3-1.3-2.7-2.5-4.6-3c-1-0.2-2-0.4-3-0.5c-3.4-0.4-6.3,0.8-8.7,3.1
				c-1.2,1.2-2.1,2.5-2.7,4.1c-0.9,2.1-1.3,4.3-1.3,6.5c0,1.5,0.4,3,1.2,4.3c0.7,1.1,1.4,2.2,2.3,3.2c1.6,2,3.8,3.2,6.4,3.6
				c1.3,0.2,2.7,0.3,4.1,0.3c0.2,0,0.4,0,0.6,0.1c0.4,0.2,0.6,0.7,0.5,1.2c-0.1,0.5-0.5,0.9-1,0.8c-0.8-0.1-1.6-0.2-2.4-0.3
				c-0.2,0-0.4-0.1-0.6-0.1c0.1,0.3,0.2,0.6,0.2,0.9c0.1,0,0.3,0.1,0.4,0.1c0.8,0.2,1.6,0.1,2.4,0.1c0.3,0,0.6-0.1,0.9,0
				c0.3,0,0.7,0.1,1,0.1c2.8-0.3,5.6-1,8.2-2c0.3-0.1,0.6-0.3,0.9-0.5c0.2-0.1,0.4-0.3,0.6-0.3c0.4,0.1,0.6-0.1,1-0.3
				c0-0.4,0-0.7-0.1-1.1c-0.3-1.4-0.5-2.8-0.3-4.2C84,78,84,77.5,84.1,77c-0.2,0.2-0.3,0.3-0.4,0.5c-0.3,0.4-0.6,0.7-0.9,1.1
				c-2.6,2.8-5.8,3.9-9.6,3.2c-2.3-0.5-4.3-1.6-6.2-2.9c-1.5-1.1-2.6-2.7-3.1-4.5c-0.8-2.7-0.1-5.2,1.6-7.4c0.5-0.6,1.1-1.1,1.8-1.4
				c0.8-0.3,1.7-0.6,2.6-0.9c0.3-0.1,0.5-0.1,0.8-0.2c1-0.2,2,0,2.9,0.5c2.2,1.1,3,4,2.7,5.7c0,0.1-0.1,0.3-0.1,0.4
				c-0.1,0.3-0.1,0.5-0.2,0.8c-0.2,0.7-0.5,1.3-0.8,2C75.1,74.1,74.7,74.6,74.4,75.1z M58.6,83.9c-0.1-0.2-0.2-0.3-0.3-0.4
				c-1.4-1.6-2.4-3.5-3.1-5.5c-0.1-0.3-0.2-0.6-0.4-0.8c-1.2-2-2-4.2-2.3-6.5c-0.1-1.1-0.3-2.3-0.1-3.4c0.3-1.5,0.9-2.9,1.6-4.2
				c0.2-0.4,0.5-0.9,0.6-1.3c0.6-2.1,1.8-3.7,3.7-4.8c0.8-0.5,1.6-0.9,2.4-1.3c1-0.6,2-1,3.1-1.4c1.9-0.6,3.8-0.8,5.8-1
				c0.6-0.1,1.2-0.1,1.9-0.2c-0.3-0.6-0.6-1.2-0.7-1.9c-0.1-0.6-0.5-0.8-1-1c-1.5-0.4-3-0.6-4.6-0.6c-1.4,0-2.8,0.1-4.2,0.3
				c-0.7,0.1-1.3,0.2-1.9,0.4c-1.1,0.4-2.1,1-3,1.7c-1.6,1.2-3.2,2.6-4.6,4c-2.3,2.2-3.5,4.8-3.9,7.9c-0.4,2.9-0.6,5.8-0.6,8.8
				c0,0.3,0,0.6,0.1,0.8c0.3,1.5,0.8,3,1.3,4.4c0.8,2.1,2.2,3.9,3.6,5.7c0.1,0.2,0.3,0.2,0.5,0.2C54.5,83.9,56.5,83.9,58.6,83.9z
				 M78,54.4c0-0.1,0-0.1,0-0.1c0-0.2-0.1-0.4-0.1-0.6c-0.7-2.8-1-5.6-0.6-8.5c0.4-2.6,1-5.1,2.1-7.5c1.1-2.3,2.4-4.4,4.3-6.1
				c2.9-2.7,6.3-4.5,10.2-5.5c1.3-0.3,2.6-0.5,4-0.5c1.3,0.1,2.7,0.2,4,0.4c2.5,0.3,4.9,1.2,7,2.5c1.2,0.8,2.3,1.6,3.4,2.5
				c0.6,0.5,1.1,1,1.6,1.6c1.7,2.2,2.5,4.7,2.5,7.4c0,2.6-0.5,5.2-1.5,7.6c-0.7,1.7-1.7,3.3-3.2,4.5c-2.4,2-5,3-8.2,2.6
				c-3.3-0.4-5.7-2.2-7.3-5c-0.4-0.7-0.7-1.5-0.8-2.3c-0.1-1,0-2,0.2-2.9c0.2-1.8,1-3.4,2.2-4.8c1.2-1.2,2.6-2.2,4.1-2.9
				c0.1-0.1,0.3-0.1,0.4-0.2c-0.2,0-0.2-0.1-0.3-0.1c-0.1,0-0.2,0-0.3,0c-1-0.2-2,0.1-2.8,0.6c-3.1,1.7-5.1,4.4-6,7.8
				c-0.3,1.1-0.5,2.3-0.3,3.5c0.4,2.1,1.2,3.9,2.7,5.5c1.5,1.6,3.3,2.7,5.5,3c1.5,0.2,2.9,0.1,4.4-0.1c1.2-0.2,2.4-0.4,3.5-1
				c0.9-0.5,1.9-1.1,2.8-1.8c0.9-0.7,1.7-1.6,2.6-2.5c1.7-1.7,2.6-3.8,3.1-6.1c0.1-0.5,0.2-1,0.2-1.5c0-2.5-0.1-4.9-0.6-7.3
				c-0.1-0.5-0.2-1-0.5-1.5c-2.9-4.4-6.8-7.5-11.7-9.4c-2.5-0.9-5.1-1.5-7.8-1.3c-0.6,0.1-1.3,0.1-1.9,0.1c-1.7,0.1-3.3,0.3-5,0.7
				c-4.9,1.2-8.8,3.9-12.1,7.6c-0.1,0.2-0.3,0.3-0.4,0.5c-1.4,2-2.4,4.2-2.9,6.5c-0.5,2.2-0.6,4.4-0.7,6.7c0,1.4,0.1,2.7,0.5,4
				c0.3,0.9,0.7,1.8,1.1,2.7c0.1,0.2,0.2,0.4,0.5,0.5C76.7,53.9,77.3,54.2,78,54.4z M121.4,45.3c0.3,0.1,0.6,0.3,0.7,0.6
				c0.1,0.1,0.2,0.3,0.3,0.3c0.5,0.1,0.8,0.5,0.9,0.9c0.1,0.2,0.2,0.4,0.4,0.6c0.9,0.7,1.8,1.3,2.8,1.8c1.8,0.8,3.8,1.2,5.8,1.4
				c1.2,0.1,2.4,0.2,3.7,0c0.3-0.1,0.7-0.2,1-0.2c0.3-0.1,0.7-0.1,1-0.2c3.9-1.2,7.1-3.3,9.7-6.4c0.5-0.6,0.9-1.3,1-2
				c0.4-1.5,0.7-2.9,0.8-4.4c0.2-2.3,0.1-4.5-0.4-6.7c-0.6-2.6-1.9-4.9-3.7-6.9c-1.1-1.2-2.4-2.2-3.8-3.1c-0.8-0.5-1.6-0.8-2.5-1
				c-0.4-0.1-0.8-0.2-1.3-0.2c-0.6-0.1-1.3-0.2-1.9-0.1c-2.8,0.4-5.3,1.7-7.3,3.7c-0.8,0.8-1.3,1.8-1.6,2.9c-0.3,1-0.2,2-0.1,3
				c0.2,1.9,0.7,3.7,1.8,5.4c0.8,1.2,1.8,1.8,3.2,1.6c1.6-0.3,2.8-1.1,3.5-2.6c0.2-0.5,0.3-1,0.1-1.5c-0.2-0.6-0.5-0.7-1-0.4
				c-0.4,0.2-0.8,0.5-1.3,0.5c0.1,0.1,0.1,0.1,0.1,0.2c0.5,0.7,0.1,1.7-0.9,1.8c-0.5,0-0.9-0.1-1.3-0.2c-1.9-0.7-2.8-2.2-3.1-4
				c-0.2-1.7,0.1-3.3,0.5-4.8c0.5-1.8,1.6-3,3.3-3.7c1.9-0.8,4-1.1,6.1-0.6c1.1,0.3,2.2,0.5,3.1,1.2c3.3,2.2,5.1,5.4,5.4,9.4
				c0.2,2.9-0.1,5.7-0.8,8.5c-0.4,1.4-0.8,2.8-1.5,4c-1.4,2.5-3.4,4.3-6.2,5.2c-1.3,0.4-2.7,0.8-4.1,0.7c-0.7,0-1.4-0.1-2.1-0.2
				c-3.1-0.4-6-1.4-8.4-3.5c-0.6-0.5-1.2-1-1.7-1.6c-0.1-0.1-0.2-0.1-0.3-0.3C121.3,44.7,121.3,45,121.4,45.3z M63.3,89.4
				C63.3,89.4,63.3,89.3,63.3,89.4C63.2,89.2,63,89,62.8,89c-0.6-0.2-1.1-0.5-1.7-0.7c-1.6-0.5-3.2-0.5-4.9-0.6
				c-2.5-0.1-4.9,0.3-7.2,1.3c-3.4,1.5-4.2,2.2-6,5.6c-0.9,1.6-1.2,3.4-1,5.2c0.1,0.4,0.1,0.8,0.1,1.2c0.3,1.8,0.7,3.5,1.7,5
				c0.5,0.9,1.1,1.7,2,2.3c2.2,1.7,4.7,2.9,7.4,3.5c0.9,0.2,1.8,0.4,2.8,0.2c0.4-0.1,0.8-0.1,1.2-0.2c1.4-0.3,2.7-1,3.8-1.9
				c0.7-0.7,1.1-1.5,1.3-2.4c0.2-1.2,0-2.3-0.2-3.4c-0.2-1.4-0.9-2.4-2.1-3.1c-0.1-0.1-0.2-0.1-0.3-0.2c-1-0.5-2-0.9-3.1-0.7
				c-0.9,0.1-1.7,0.4-2.3,1.1c-0.8,0.9-1.1,2-1.1,3.3c0,0.2,0.1,0.4,0.1,0.5c0,0,0.1,0,0.1,0c0-0.5,0-1,0-1.4
				c0.1-1.3,0.9-2.2,2.1-2.7c0.6-0.2,1.3-0.4,2-0.3c0.8,0,1.5,0.3,2.1,0.8c0.5,0.4,0.9,0.9,1.1,1.5c0.4,0.8,0.6,1.6,0.7,2.5
				c0.1,0.8-0.1,1.5-0.5,2.1c-0.5,0.9-1.3,1.6-2.2,2c-1.5,0.7-3.1,1.1-4.8,1.2c-0.6,0.1-1.3,0.1-1.9,0c-1.8-0.1-3.3-1-4.6-2.2
				c-2.3-2.3-3.7-5-4.2-8.2c-0.1-0.9-0.2-1.7-0.1-2.6c0.9-4.3,3.4-7.2,7.8-8.3c2.6-0.7,5.2-0.8,7.8-0.8c1,0,1.9,0.1,2.8,0.5
				C62.3,89.1,62.8,89.2,63.3,89.4z M109.2,76.7c0,1,0.5,1.8,0.9,2.6c0.2,0.3,0.2,0.5,0,0.8c0,0.1-0.1,0.2-0.1,0.3
				c0.2,0.5,0.3,1,0.7,1.4c0.7,0.7,1.5,1.4,2.2,2c3.3,2.8,7,4.6,11.3,5.1c1.5,0.2,2.9,0.2,4.4,0.1c0.1,0,0.3-0.1,0.5-0.1
				c0-0.5,0-0.9,0-1.4c-0.2,0-0.3,0-0.4,0c-2.1-0.1-4.2-0.3-6.3-0.8c-2.5-0.5-4.9-1.4-6.9-3c-2.3-1.7-3.8-4-4.2-6.9
				c-0.3-2.2,0-4.4,0.5-6.5c0.4-1.4,1-2.7,1.9-3.8c1.1-1.4,2.6-2.3,4.2-3c0.2-0.1,0.4-0.2,0.6-0.3c-0.8,0-1.6,0.1-2.4,0.4
				c-2.1,0.9-3.8,2.3-5,4.2c-1.1,1.6-1.6,3.5-1.9,5.4c-0.1,0.6,0,1,0.4,1.4c0.1,0.1,0.1,0.2,0.2,0.3c0.3,0.5,0.2,1-0.2,1.4
				C109.4,76.6,109.3,76.6,109.2,76.7z M61,60.5C61.1,60.5,61.1,60.5,61,60.5c0.2,0,0.4-0.1,0.5-0.3c1.5-1.2,3.1-2,4.9-2.4
				c2.7-0.6,5.4-0.2,7.9,0.7c1.7,0.6,3,1.8,4.2,3.1c1.4,1.5,2.4,3.3,2.8,5.3c0.5,2.4,0.2,4.6-1,6.7c-0.1,0.1-0.1,0.2-0.1,0.3
				c0.6-0.5,1-1,1.2-1.7c0.4-1.3,0.6-2.6,0.8-4c0.2-1.9,0.2-3.8-0.4-5.6c-0.3-1.1-0.8-2.1-1.6-2.9c-1-0.9-2-1.7-3.2-2.3
				c-0.4-0.2-0.7-0.3-1.1-0.5c-0.1,0.1-0.1,0.2-0.1,0.2c-0.3,0.4-0.7,0.5-1,0c-0.3-0.4-0.5-0.6-1-0.6c-0.1,0-0.1,0-0.2-0.1
				c-0.4-0.3-0.8-0.3-1.3-0.3c-2.3-0.1-4.6,0.1-6.8,0.4c-0.2,0-0.5,0.1-0.7,0.3c-0.8,0.7-1.7,1.3-2.5,2C61.8,59.5,61.5,60,61,60.5z
				 M100.9,87.8c-0.1,0.1-0.2,0.2-0.3,0.3c-0.5,0.3-0.9,0.7-1.4,1c-1,0.6-2,1-3.1,1.2c-1.2,0.2-2.3,0.5-3.5,0.4
				c-2.3-0.1-4.2-1.1-5.8-2.8c-0.4-0.4-0.8-0.9-1.1-1.3c-0.1-0.1-0.2-0.2-0.2-0.2c0,0-0.1,0-0.1,0.1c0.2,0.4,0.3,0.9,0.5,1.3
				c1,1.5,2.2,2.7,3.9,3.4c1.8,0.7,3.8,1,5.7,1c1,0,1.9-0.2,2.8-0.6C99.9,90.8,100.7,89.5,100.9,87.8z M131,154.2
				c-0.2,0.3-0.3,0.5-0.5,0.7c-1.4,2.1-3,4-4.9,5.7c-2.5,2.2-5.2,4.1-8,5.9c-0.2,0.1-0.4,0.2-0.5,0.3c0.2,0,0.4,0,0.6-0.1
				c2.1-0.8,4.2-1.9,6.1-3.1c0.8-0.5,1.6-1.2,2.3-1.8c1.7-1.6,3.2-3.5,4.6-5.4C131,155.8,131.4,155.1,131,154.2z M109.3,171.3
				C109.3,171.3,109.3,171.3,109.3,171.3c-0.1-0.1-0.2-0.1-0.2-0.1c-1.3,0.2-2.5,0.2-3.8,0.2c-0.1,0-0.3,0-0.4,0
				c-1.7,0.4-3.5,0.6-5.2,0.8c-3,0.3-6,0.1-9-0.7c-5.1-1.3-9.7-3.7-14-6.7c-0.2-0.1-0.4-0.3-0.7-0.5c0.1,0.1,0.1,0.2,0.1,0.2
				c0.1,0.1,0.2,0.2,0.3,0.3c1.6,1.6,3.5,2.9,5.5,4c4.7,2.5,9.8,3.6,15.1,3.8c3.3,0.1,6.6-0.1,9.9-0.8
				C107.6,171.7,108.4,171.5,109.3,171.3z M58,113.3C58,113.3,58,113.2,58,113.3c-0.9-0.1-1.7-0.1-2.6-0.1c-0.1,0-0.2,0-0.3,0
				c-0.8,0-1.6,0-2.3-0.1c-2.2-0.3-4.2-1-5.9-2.4c-0.8-0.7-1.6-1.5-2.4-2.2c-0.5-0.5-0.9-1-1.4-1.4c0,0.2,0.1,0.5,0.3,0.6
				c0.7,0.9,1.3,1.9,2.1,2.8c2,2.4,4.7,3.7,7.8,4c0.3,0,0.5,0,0.8,0c1.2-0.2,2.4-0.5,3.6-1C57.7,113.4,57.8,113.4,58,113.3z
				 M69.6,117.5C69.5,117.5,69.5,117.5,69.6,117.5c0,0.1,0,0.2,0,0.3c0.3,1.3,0.7,2.5,1.3,3.7c1.8,4.2,4.5,7.7,8.1,10.4
				c0.8,0.6,1.7,1.1,2.6,1.6c0.1,0.1,0.3,0.1,0.4,0.2c-0.5-0.6-1.1-1.2-1.7-1.6c-2.6-1.9-4.6-4.3-6.3-6.9c-1.5-2.4-2.9-4.8-4.1-7.3
				C69.7,117.8,69.6,117.6,69.6,117.5z M143,152.7C143,152.7,143,152.7,143,152.7c0,0.1,0,0.1,0,0.2c0.4,0.4,0.9,0.7,1.3,1
				c2.7,2.1,5.1,4.4,7.4,7c1.6,1.8,3.2,3.7,4.8,5.5c0.1,0.1,0.2,0.3,0.4,0.4c0-0.2,0-0.3-0.1-0.4c-1-2.1-2.3-4-3.9-5.7
				c-0.5-0.5-1-1.1-1.5-1.6c-2.3-2.4-4.9-4.5-7.8-6.1C143.4,152.8,143.2,152.8,143,152.7z M78.6,146.5c-0.1,0.1-0.2,0.1-0.3,0.2
				c-0.5,0.5-1,0.8-1.7,1.1c-0.6,0.2-1.1,0.4-1.7,0.6c-2.6,0.7-5.1,1.6-7.5,2.7c-3.9,1.8-7.5,4-10.9,6.7c-0.1,0.1-0.3,0.2-0.4,0.4
				c0.8-0.4,1.6-0.9,2.3-1.5c2.3-1.7,4.8-2.9,7.3-4c1-0.4,2-0.8,2.9-1.2c1.1-0.5,2.3-1,3.4-1.4c0.7-0.3,1.4-0.6,2.1-1
				c0.8-0.4,1.6-0.7,2.6-0.7c0.2,0,0.3,0,0.5,0c0.2,0,0.3-0.1,0.3-0.3c0-0.1,0-0.2,0-0.3c0.3,0,0.5-0.1,0.8-0.1
				C78.4,147.2,78.5,146.9,78.6,146.5z M69.7,69.8c-0.6,0.2-1.1,0.3-1.7,0.5c-0.5,0.1-0.6,0.4-0.6,0.9c0,1.2,0.3,2.2,1.1,3
				c1.2,1.3,2.7,2,4.4,2.4c0.9,0.2,1.7,0.4,2.6,0.2c0.7-0.1,1.3-0.3,1.9-0.8c-0.4,0-0.8,0.1-1.2,0.2c-1.6,0.2-3.2-0.2-4.7-0.8
				c-1-0.4-1.8-1.1-2.4-2.1c-0.3-0.4-0.5-1-0.3-1.5c0.2-0.7,0.2-1.4,0.7-1.9C69.7,70,69.7,69.9,69.7,69.8z M135.3,91.6
				c0,0.4-0.1,0.7-0.1,1.1c0,0.9,0,1.8,0,2.7c0,2.4,0.4,4.7,0.9,6.9c0.2,0.9,0.4,1.9,0.8,2.8c0.9,2.3,2.5,4.2,4.3,5.9
				c0.5,0.5,1.2,0.8,1.9,1c0-0.1-0.1-0.1-0.1-0.2c-0.7-0.5-1.4-1-2-1.6c-1.1-0.9-2-2-2.6-3.2c-1.3-2.4-2-5-2.2-7.7
				c-0.1-1.6,0-3.3,0-4.9c0-0.8,0-1.6,0-2.4c0-0.2-0.1-0.4-0.2-0.6C135.6,91.5,135.5,91.6,135.3,91.6z M128.2,78
				c0,0,0.1,0.1,0.1,0.1c0.3-0.2,0.7-0.4,1-0.7c1.1-1,1.8-2.1,2.1-3.5c0.1-0.6,0.2-1.1,0.3-1.7c0.4-2-0.1-3.7-1.4-5.3
				c-0.1-0.1-0.2-0.2-0.3-0.3c0.1,0.2,0.1,0.4,0.1,0.5c0.1,0.7,0.4,1.5,0.4,2.2c0,1.7,0,3.3-0.1,4.9c-0.1,1.4-0.7,2.6-1.9,3.4
				C128.4,77.7,128.3,77.9,128.2,78z M113.2,131.9C113.2,131.9,113.2,131.8,113.2,131.9c-1.3,0.6-2.5,1.3-3.8,1.9
				c-1.2,0.6-2.5,1.2-3.8,1.7c-1.3,0.5-2.6,0.9-4,1.2c-1.3,0.2-2.7,0.4-4,0.6c0.9,0.1,1.8,0.2,2.6,0.1c1.4-0.1,2.8-0.4,4.2-0.6
				c0.8-0.1,1.6-0.3,2.3-0.7c1.5-0.9,3.1-1.9,4.6-2.8C112,132.9,112.6,132.4,113.2,131.9z M71.2,69.7c0.1,0.3,0.3,0.5,0.3,0.8
				c0.1,0.3,0,0.6-0.2,0.9c-0.2,0.3-0.4,0.1-0.7,0.2c-0.3,0-0.5,0.2-0.6,0.5c0,0.2,0,0.4,0.1,0.5c0.3,0.6,0.7,1.1,1.3,1.5
				c1-0.7,1.6-1.6,2-2.6c0.1-0.1,0.1-0.4,0-0.5C72.8,70.3,72.1,69.8,71.2,69.7z M77.3,160.5C77.2,160.6,77.2,160.6,77.3,160.5
				c0.3,0.7,0.8,1.3,1.4,1.7c3.2,2.5,6.7,4.4,10.6,5.6c2.7,0.8,5.4,1.4,8.2,1.8c1.3,0.2,2.6,0.4,3.9,0.3c0.2,0,0.4,0,0.5,0
				c-2-0.3-4-0.5-6-0.8c-3.9-0.6-7.6-1.7-11.2-3.4c-2.6-1.3-5-2.8-7.1-4.9C77.5,160.7,77.4,160.6,77.3,160.5z M161.6,101.2
				c0,0,0.1,0,0.1,0c-0.2-0.6-0.4-1.3-0.6-1.9c-0.5-1.5-1.4-2.7-2.5-3.7c-1-0.8-2.1-1.1-3.4-1.1c-0.3,0-0.5,0-0.9,0.2
				C157.8,95.9,160.2,98,161.6,101.2z M87.2,84.9c-0.2-1-0.4-1.9-0.6-2.8c-0.5-2.9,0.5-5.5,2.5-7.6c1.4-1.5,3-2.6,4.8-3.5
				c0.1,0,0.2-0.1,0.3-0.2c-0.3,0-0.7,0.1-1,0.2c-1.2,0.4-2.2,1-3.2,1.8c-0.7,0.5-1.3,1.2-1.8,2c-0.9,1.4-1.5,3-2,4.7
				c-0.3,0.9-0.5,1.8-0.4,2.8c0,0.3,0,0.5,0.2,0.7c0.1,0.1,0.1,0.2,0.2,0.3C86.5,83.9,86.9,84.3,87.2,84.9z M108.8,43.1
				C108.7,43.1,108.7,43.1,108.8,43.1c-0.1,0-0.2,0.1-0.2,0.1c-1.2,1.5-2.8,2.1-4.7,1.6c-0.6-0.1-1.2-0.2-1.8,0
				c-0.3,0.1-0.4,0.2-0.2,0.4c0.1,0.2,0.2,0.4,0.3,0.5c0.1,0,0.1,0,0.2,0c0.1,0,0.2-0.1,0.3-0.2c0.7-0.5,1.4-0.3,1.8,0.5
				c0,0.1,0.1,0.2,0.1,0.3c0.8-0.1,1.6-0.1,2.3-0.4C108.1,45.4,108.8,44.6,108.8,43.1z M122.5,28.3c-0.3,1.2-0.5,2.5-0.3,3.7
				c0.2,1.5,0.7,2.9,1.6,4.1c0.9,1.3,2.2,2.2,3.7,2.8c0.1,0,0.3,0.1,0.4,0.1C124.2,36.4,122.2,32.9,122.5,28.3z M121.9,74.8
				c0,0.4,0.1,0.7,0.1,1.1c0,0.3,0.1,0.6,0.3,0.9c0.4,0.5,0.8,0.9,1.4,1.1c0.1,0.1,0.3,0.1,0.5,0.1c1.1-0.1,2.1-0.3,3.1-0.8
				c0.3-0.2,0.6-0.4,0.8-0.7c0.7-1.2,1.1-2.4,1.4-3.7c0-0.2,0-0.4,0-0.6c-0.1,0.2-0.2,0.4-0.2,0.5c-0.3,0.8-0.5,1.6-0.8,2.4
				c-0.2,0.6-0.6,1.1-1,1.5c-0.5,0.6-1.2,0.9-2,0.7c-1.3-0.3-2.4-1-2.7-2.5c0,0-0.1-0.1-0.1-0.1C122.3,74.8,122.2,74.8,121.9,74.8z
				 M119.5,74.8c-0.6,0.3-0.8,0.8-0.7,1.4c0.3,1.7,1.2,3.1,2.9,3.7c0.6,0.2,1.2,0.3,1.8,0.4c1.1,0.2,2.2-0.1,3.2-0.5
				c-0.2,0-0.3,0-0.5,0c-1.5,0.1-3-0.2-4.3-0.8c-0.4-0.2-0.7-0.4-1.1-0.5c-0.4-0.2-0.8-0.4-1.1-0.8c-0.1-0.2-0.3-0.5-0.2-0.6
				c0.1-0.5,0-0.9,0-1.4C119.4,75.5,119.5,75.2,119.5,74.8z M76.5,80.8c1.4-0.1,3.6-1.1,5-2.3c1.4-1.3,2.8-3.6,2.8-4.7
				c-0.2,0.3-0.4,0.6-0.6,0.8c-0.7,0.9-1.3,1.8-2,2.7c-0.6,0.8-1.4,1.4-2.3,1.9C78.4,79.7,77.5,80.2,76.5,80.8z M144.1,104.4
				c-0.2-1.1-0.3-2.3-0.4-3.4c-0.1-1,0-1.9,0.3-2.9c0-0.1,0.1-0.3,0-0.4c-0.3-0.4-0.2-0.8,0-1.2c0.1-0.2,0.3-0.5,0.5-0.7
				c0,0-0.1,0-0.1-0.1c-0.1,0.1-0.3,0.3-0.4,0.4c-0.7,1-1.2,2-1.2,3.2c0,1.6,0.3,3.1,1,4.6C143.9,104.1,144,104.2,144.1,104.4z
				 M144.1,60.1c2,3.6,2.9,7.5,3.3,11.6c0.1-1.2,0.1-2.4-0.1-3.6c-0.2-1.6-0.7-3.2-1.2-4.7c-0.2-0.6-0.5-1.2-0.8-1.8
				C145,61,144.6,60.5,144.1,60.1z M146,69.7c-0.1,3.9-0.3,7.7-1.7,11.4C146.3,77.5,146.8,73.7,146,69.7z M145.1,50
				c0.1,0.1,0.2,0.2,0.3,0.3c0.9,0.8,1.7,1.6,2.5,2.5c1,1.1,1.7,2.4,2.4,3.6c0.3,0.4,0.5,0.8,0.8,1.2c0-0.3-0.1-0.6-0.2-0.8
				c-0.8-1.4-1.6-2.8-2.5-4.2c-0.4-0.7-0.9-1.3-1.4-1.9c-0.4-0.5-0.8-0.9-1.3-1.3C145.5,49.6,145.3,49.8,145.1,50z M146.1,99.6
				c0.9-1.7,2.4-2.7,4-3.5c-0.1-0.4-0.1-0.7-0.2-1.1c-0.2,0.2-0.5,0.3-0.7,0.4c-0.4,0.3-0.7,0.7-1.1,0.9c-0.6,0.3-1,0.9-1.5,1.4
				C146.3,98.3,146.1,98.9,146.1,99.6z M125.5,23.4c-1.6,1.3-2.3,5.3-1.2,7.1C124.3,28,124.6,25.7,125.5,23.4z M117.3,144.8
				c0,0.4,0.3,0.5,0.6,0.5c1,0.1,2,0.2,3,0.2c1.3,0.1,2.7,0.2,4,0.2c-0.1,0-0.2-0.1-0.4-0.1c-0.9-0.2-1.9-0.5-2.8-0.7
				c-0.6-0.1-1.2-0.2-1.8-0.2c-0.3,0-0.6,0-0.8,0.1c-0.3,0.1-0.5,0.1-0.7-0.1c-0.2-0.1-0.3-0.2-0.6-0.1
				C117.7,144.8,117.5,144.8,117.3,144.8z M153.4,81.5c-0.7,1.8-1.4,3.5-2.1,5.3c-0.7,1.8-1.7,3.4-2.7,5.1c0.4,0,0.7-0.1,0.8-0.5
				c0.9-1.8,1.8-3.6,2.6-5.4C152.7,84.6,153,83,153.4,81.5z M121.2,126.1C121.2,126.1,121.1,126.1,121.2,126.1
				c-0.5,0.4-1,0.9-1.6,1.3c-0.8,0.7-1.6,1.3-2.3,2c-0.7,0.7-1.4,1.4-2.2,2.2c-0.4,0.4-0.9,0.8-1.4,1.3c0.1,0,0.2,0,0.2-0.1
				c0.8-0.6,1.6-1.2,2.4-1.8c0.1-0.1,0.2-0.1,0.2-0.2c-0.1-0.6,0.4-0.7,0.8-0.8c0.2-0.1,0.5-0.2,0.6-0.3c1-1,2-2.1,2.9-3.1
				C120.9,126.4,121.1,126.3,121.2,126.1z M158.7,111.6c0.7-0.3,0.9-0.4,1.1-0.8c1.2-2,1.6-4.1,1.5-6.4c0-0.2-0.1-0.5-0.1-0.7
				c-0.2,1.1-0.3,2.2-0.4,3.2c-0.2,1.6-0.8,3.1-1.8,4.3C158.9,111.4,158.9,111.4,158.7,111.6z M57.2,65.5c0.3-0.7,0.6-1.5,1-2.2
				c0.4-0.7,0.8-1.5,1.2-2.2c0.4-0.7,0.9-1.3,1.4-2c-1.2,1-2.3,2.1-3,3.5c0,0,0,0,0,0.1C57.4,63.6,57.2,64.5,57.2,65.5z M118.5,45.4
				c-0.1,1.9-0.5,3.7-1.4,5.4c1.1-1.4,1.8-3,2.3-4.7C119.1,45.9,118.8,45.6,118.5,45.4z M90.1,45.1c-0.8,2,0.8,7.5,2.4,8.9
				C91,51.3,90,48.4,90.1,45.1z M78.3,78.3C78.3,78.3,78.2,78.3,78.3,78.3c-2,0.4-3.9,0.8-5.9,1.2c0.4,0,0.8,0.1,1.2,0.1
				c1.4,0,2.7-0.3,4-0.8C77.9,78.7,78.1,78.5,78.3,78.3z M69.7,68.7c1.5-0.3,2.9,0.2,4.1,1.1c0-0.2,0-0.3,0-0.5
				c-0.4-0.9-1.3-1.4-2.3-1.3C70.9,68.2,70.3,68.3,69.7,68.7z M114.6,31.1c-1.5-2.4-3.6-3.9-6.2-4.9
				C110.7,27.5,112.8,29.1,114.6,31.1z M60,86.8c-0.5-0.1-0.9-0.2-1.4-0.2c-1.4-0.1-2.7-0.1-4.1-0.2c-1,0-1.9,0.1-2.8,0.4
				c-0.6,0.2-1.2,0.4-1.8,0.7c1.6-0.5,3.3-0.9,5-0.9C56.6,86.6,58.3,86.7,60,86.8z M62,82.6c1.3,1.5,2.9,2.7,4.2,3
				c0.1-0.2,0.2-0.3,0.3-0.5c-0.8-0.4-1.6-0.7-2.4-1.1C63.4,83.6,62.8,83.1,62,82.6z M98.5,77.8c-0.4-0.6-1-0.9-1.7-1.1
				c-1.2-0.3-2.3,0.1-3.4,0.5c-0.2,0.1-0.4,0.2-0.6,0.3c0.1,0,0.2,0,0.3,0c0.7-0.4,1.4-0.5,2.2-0.4c0.3,0,0.6,0.1,0.9,0.2
				C97.1,77.3,97.8,77.5,98.5,77.8z M113.2,85.6c1.7,2,4.1,2.9,6.6,3.5c-1.2-0.5-2.3-1-3.4-1.6C115.3,86.9,114.3,86.2,113.2,85.6z
				 M119.2,38.3c0-0.9-1.4-4.6-2.2-5.6C117.3,33.8,118.6,37.3,119.2,38.3z M148.7,114.7c3.2,0.7,6.4,0,7.8-0.9
				C153.9,114.6,151.4,115.1,148.7,114.7z M119.2,43.1c0-0.3,0-0.6-0.1-1c0-0.3-0.1-0.7-0.2-1c-0.1-0.3-0.2-0.6-0.2-0.9
				c0,0.8,0,1.5-0.1,2.2c0,0.7-0.1,1.4-0.2,2.2c0.1,0,0.1,0,0.2,0c0-0.3,0-0.5,0.1-0.8C118.8,43.6,119,43.4,119.2,43.1z M125.9,62.6
				c-1.3-1.2-2.8-1-4.3-0.8C123,62.1,124.5,62.4,125.9,62.6z M133.3,37.1c0,0,0,0.1,0,0.1c0.3,0,0.6-0.1,0.9-0.1
				c0.6,0,1-0.3,1.2-0.8c0.2-0.4,0.4-0.7,0.4-1.1C135.2,36.1,134.3,36.7,133.3,37.1z M133.5,150.8
				C133.4,150.8,133.4,150.8,133.5,150.8c-0.8,0.7-1.4,1.6-1.9,2.5c0.3-0.1,0.6-0.1,0.9-0.2C132.8,152.4,133.1,151.6,133.5,150.8z
				 M136.9,36c0.9-0.3,1.3-2.4,0.7-3.2C137.3,33.9,137.1,35,136.9,36z M110.3,67.2c-1.3,1.5-2.3,4.1-2.1,5.6c0.3-1,0.5-2,0.8-2.9
				C109.4,69,109.9,68.1,110.3,67.2z M128.6,21.1c-0.6,0.2-0.9,0.3-1.1,0.7c-0.4,0.8-0.8,1.7-1.3,2.5c0,0.1,0,0.2-0.1,0.3
				C127,23.4,127.6,22.2,128.6,21.1z M61.6,48.3c0,0,0-0.1,0-0.1c-1.7,0.2-3.2,0.8-4.7,1.6C58.5,49.3,60.1,48.8,61.6,48.3z
				 M120.3,91c2.3,0.9,4.8,1.3,7.3,1.3C125.1,92,122.7,91.6,120.3,91z M130.8,94.4c0,2,0,4.3,0,6.6C131.1,98.7,131,96.5,130.8,94.4z
				 M127.6,37.5c-1-1.3-2-2.6-2.9-3.8C125.3,35.2,126.2,36.4,127.6,37.5z M130.9,65.7c-0.5-1-2.1-2.4-2.8-2.6c0.3,0.3,0.5,0.7,0.8,1
				C129.5,64.7,130.2,65.1,130.9,65.7z M128.7,66.3c-0.4-1.3-1.3-2.2-2.6-2.2C127.2,64.7,128.1,65.4,128.7,66.3z M152.3,92.9
				c0.3,0,0.6,0,0.9,0c0.3,0,0.6,0,0.9,0c0.3,0,0.5,0,0.8,0c-0.9-0.4-1.8-0.6-2.5-0.5c0,0.1-0.1,0.1-0.1,0.2
				C152.3,92.6,152.3,92.7,152.3,92.9z M154.7,83.6c-0.5,1.4-1,2.8-1.5,4.2c0,0,0.1,0,0.1,0C153.9,86.5,154.5,85.1,154.7,83.6z
				 M93.4,40.8c0.8-1,1.6-2,2.4-3C94.8,38.5,93.8,39.7,93.4,40.8z M149.2,26c-0.3-1.2-1.8-3.3-2.8-3.9
				C147.5,23.3,148.3,24.6,149.2,26z M142.7,60.5c-0.3-0.9-0.8-1.6-1.4-2.3c-0.1-0.1-0.2-0.1-0.3-0.1c0,0,0,0,0,0.1
				C141.5,58.9,142.1,59.7,142.7,60.5z M101.2,69.6c0.6,0.6,1.5,0.8,2.3,0.9C102.8,70.1,102.1,69.8,101.2,69.6z M63.7,88.3
				c0.4,0.3,0.8,0.6,1.3,0.8c0.1,0.1,0.3,0.1,0.4-0.1C65,88.5,64.6,88.3,63.7,88.3z M52.2,103.6c-0.1,0.5-0.3,0.8-0.7,0.9
				c0.3,0.5,0.3,0.6,0.8,0.5C52.3,104.6,52.3,104.1,52.2,103.6z M139.9,54.6C139.8,54.6,139.8,54.6,139.9,54.6
				c0.4,0.7,0.8,1.3,1.6,1.4C141,55.5,140.4,55,139.9,54.6z M61.5,112.8c0.6-0.4,1.1-1,1.3-1.6C62.2,111.5,61.8,112,61.5,112.8z
				 M72.3,78c-0.8-0.2-1.5-0.4-2.3-0.6C70.7,77.8,71.5,78,72.3,78z M159.7,113.9c-0.7,0.4-1.3,0.9-2,1.3c0,0,0,0.1,0.1,0.1
				C158.5,114.9,159.2,114.5,159.7,113.9z M148.1,106.3c-0.5-0.3-1-0.7-1.5-1c-0.1,0-0.1-0.1-0.2-0.1
				C146.8,105.7,147.4,106.1,148.1,106.3z M125.7,32.3c0.3,1.1,0.6,1.7,1.1,2C126.4,33.6,126,33,125.7,32.3z M137.6,88.9
				c-0.5,0.2-1.2,0.5-1.3,0.6c0,0,0,0.1,0,0.3C136.8,89.5,137.2,89.3,137.6,88.9z M68.7,55.2c0.7,0,1.4-0.1,2.1-0.1
				C70.1,55.1,69.4,54.8,68.7,55.2z M131.5,91c0,0.1,0,0.1,0,0.2c0.4,0,0.7-0.1,1.1-0.1c0.1,0,0.2-0.2,0.1-0.3
				C132.3,90.9,131.9,90.9,131.5,91z M139.9,88.2C140,88.2,140,88.3,139.9,88.2c0.5-0.2,0.8-0.5,1.2-0.8
				C140.6,87.4,140.2,87.8,139.9,88.2z M54,68.8c0.1,0,0.1,0,0.2,0c-0.1-0.6-0.1-1.2-0.2-1.8c0,0,0,0,0,0C54,67.6,54,68.2,54,68.8z
				 M147.1,94c0.7-0.2,0.8-0.3,0.9-0.7C147.6,93.4,147.3,93.6,147.1,94z M50.1,53.4c0.3-0.3,0.8-0.7,1.3-1.2c0,0,0,0,0,0
				C50.8,52.7,50.4,53.1,50.1,53.4z M55.4,73.7c0,0.5,0,1,0.1,1.2c0,0,0.1,0,0.3,0C55.6,74.5,55.5,74.1,55.4,73.7z M92.6,77.9
				c-0.4,0.2-0.8,0.6-1,1.1C92,78.6,92.3,78.2,92.6,77.9z M136.8,17.9c0-0.1,0-0.1,0-0.2c-0.4,0-0.7,0-1.1-0.1c0,0,0,0.1,0,0.1
				C136.1,17.8,136.5,17.9,136.8,17.9z M73.3,65.8c-0.3-0.3-0.7-0.5-1.1-0.5C72.6,65.5,72.9,65.7,73.3,65.8z M66.3,67.5
				c-0.2,0.3-0.5,0.5-0.5,0.9C66.2,68.3,66.3,68,66.3,67.5z M69.8,66.7C69.8,66.8,69.9,66.8,69.8,66.7c0.2,0.1,0.3,0,0.5,0
				c0.1,0,0.2,0,0.3-0.1c0,0,0-0.1,0-0.1C70.4,66.6,70.1,66.7,69.8,66.7z M54.4,99.7c0.1-0.1,0.2-0.1,0.3-0.2
				c0.1-0.1,0.2-0.1,0.3-0.2C54.6,99.2,54.5,99.5,54.4,99.7z M137.5,37C137.5,37,137.5,37.1,137.5,37c0.2,0,0.4-0.2,0.5-0.3
				c0,0,0,0,0,0C137.8,36.8,137.6,36.9,137.5,37z M122.8,123.9c-0.3,0.1-0.4,0.3-0.5,0.7C122.5,124.3,122.7,124.1,122.8,123.9z
				 M64.8,71.8c0,0-0.1,0-0.1,0c0,0.2,0,0.5,0,0.7c0,0,0.1,0,0.1,0C64.8,72.3,64.8,72,64.8,71.8z M72.8,49.9
				C72.8,49.9,72.7,49.9,72.8,49.9c0,0.2,0,0.4,0.1,0.6c0,0,0.1,0,0.1,0C72.9,50.2,72.9,50.1,72.8,49.9z M149.8,107.7
				C149.8,107.7,149.8,107.6,149.8,107.7c-0.1,0-0.3,0-0.4,0c0,0,0,0,0,0C149.5,107.7,149.6,107.7,149.8,107.7z M121.3,125.8
				C121.3,125.8,121.4,125.8,121.3,125.8c0.2,0,0.2-0.1,0.3-0.3c0,0,0,0-0.1,0C121.5,125.6,121.4,125.7,121.3,125.8z M122.1,125
				C122,124.9,122,124.9,122.1,125c-0.2,0.1-0.2,0.2-0.3,0.3c0,0,0,0,0.1,0C121.9,125.2,122,125.1,122.1,125z M49,54.8
				C49,54.8,49,54.8,49,54.8c-0.1,0-0.2,0.1-0.3,0.2c0,0,0,0,0.1,0C48.9,55,48.9,54.9,49,54.8z M49.6,54.1
				C49.6,54.1,49.5,54.1,49.6,54.1c-0.1,0-0.2,0.1-0.3,0.2c0,0,0,0,0.1,0C49.5,54.3,49.5,54.2,49.6,54.1z"/>
			<path fill-rule="evenodd" clip-rule="evenodd" fill="#003140" d="M96.8,107.6c-0.4,0.1-0.6,0.5-0.7,0.9c-0.5,1.9-1,3.9-1.7,5.7
				c-0.2,0.4-0.3,0.9-0.3,1.4c0.5,0.1,1.1,0.2,1.6,0.1c0.3,0,0.6-0.1,1-0.2c0.1,0,0.3-0.1,0.4-0.2c0.5-0.4,1.2-0.2,1.3,0.5
				c0.1,0.2,0.1,0.4,0.3,0.5c0.3,0.4,0.2,1.1-0.3,1.2c-1.1,0.4-2.3,0.8-3.6,0.5c-0.5-0.1-1.1-0.4-1.6-0.7c-0.5-0.3-0.7-0.7-0.6-1.3
				c0.1-1.1,0.5-2.2,1-3.2c0.7-1.5,1.2-3.1,1.5-4.7c0.1-0.4,0-0.8-0.3-1.1c-0.2-0.2-0.2-0.4-0.1-0.6c0.2-0.6,1-0.8,1.5-0.3
				c0.1,0.1,0.3,0.3,0.4,0.4C96.9,106.9,97,107.2,96.8,107.6z M96,116.8c-0.9-0.3-1.7,0-2.5-0.5c0,0.4,0,0.5,0.4,0.6
				C94.6,117.1,95.3,117,96,116.8z"/>
			<path fill-rule="evenodd" clip-rule="evenodd" fill="#003140" d="M87.1,99.3c-0.2,0.2-0.3,0.4-0.4,0.7c-0.3,0.6-0.6,0.8-1.3,0.7
				c-0.9-0.1-1.8-0.3-2.8-0.4c-0.3,0-0.5,0-0.8,0.1c-0.3,0.2-0.7,0.1-1.1,0c-0.2,0.2-0.4,0.4-0.6,0.5c-0.5,0.3-1.9,0-2.2-0.5
				c-0.3-0.4-0.4-0.9-0.1-1.3c0.1-0.2,0.3-0.3,0.6-0.3c1-0.2,2-0.1,2.9-0.5c0.3-0.1,0.5-0.1,0.8-0.2c1.8-0.1,3.7-0.1,5.5,0.2
				c0.4,0.1,0.7,0.2,1.1,0.3c0.3,0.2,0.5,0.4,0.4,0.7c-0.1,0.3-0.4,0.4-0.8,0.3C88,99.5,87.6,99.4,87.1,99.3z"/>
			<path fill-rule="evenodd" clip-rule="evenodd" fill="#003140" d="M107.8,98.6c0.3,0.4,0.7,0.4,1.1,0.2c0.5-0.2,0.9-0.4,1.4-0.5
				c1-0.3,1.9-0.3,2.9,0c0.4,0.1,0.9,0.2,1.3,0.3c0.1,0,0.3,0.1,0.4,0.1c0.4,0.3,0.9,0.5,1.3,0.8c0.1,0,0.2,0.1,0.2,0.2
				c0.2,0.2,0.3,0.4,0.2,0.7c-0.1,0.3-0.3,0.4-0.6,0.4c-0.3,0-0.6,0-0.9,0c-0.4,0-0.9-0.1-1.3,0.2c-0.1,0.1-0.4,0-0.5,0
				c-0.6-0.2-1.3-0.2-1.9-0.2c-0.9,0-1.7,0-2.6,0.1c-0.1,0-0.3,0-0.4,0c-0.2,0-0.5,0-0.7-0.1c-0.2,0-0.3-0.1-0.6-0.1
				c-0.4,0.1-0.7-0.4-0.5-0.8c0.2-0.3,0.4-0.6,0.6-0.9C107.4,98.8,107.7,98.7,107.8,98.6z"/>
			<path fill-rule="evenodd" clip-rule="evenodd" fill="#003140" d="M92.7,62.5c1.8,0.2,3.6,0.4,5.4,0.8c1.4,0.3,2.8,0.8,4.1,1.5
				c0.4,0.2,0.8,0.5,1.2,0.8c0.6,0.4,1.1,1,1.7,1.3c0.1,0,0.1,0.2,0.2,0.3c0.1,0.5-0.1,1-0.5,1.2c-0.4,0.2-1,0.2-1.3-0.2
				c-0.1-0.1-0.1-0.2-0.1-0.3c0-0.2,0-0.4,0-0.6c0-0.3-0.1-0.6-0.3-0.7c-0.4-0.3-0.8-0.6-1.2-0.9c-1.6-0.9-3.3-1.3-5-1.6
				c-0.9-0.2-1.8-0.3-2.7-0.3c-2-0.1-3.8,0.5-5.1,2.1c-0.4,0.5-1.2,0.5-1.6,0.1c-0.4-0.5-0.4-1.2,0.1-1.6c0.9-0.8,2-1.4,3.3-1.6
				C91.3,62.6,92,62.6,92.7,62.5z"/>
		</g>
		<path fill-rule="evenodd" clip-rule="evenodd" fill="#414042" d="M100,127c-1.8,0.1-3.6,0.3-5.4,0.2c-1.5-0.1-2.9-0.2-4.3-0.7
			c-0.5-0.2-0.9-0.4-1.3-0.6c-0.6-0.3-1.2-0.8-1.9-1c-0.1,0-0.2-0.1-0.2-0.2c-0.2-0.4-0.1-1,0.3-1.3c0.4-0.3,1-0.4,1.3-0.1
			c0.1,0.1,0.2,0.2,0.2,0.3c0.1,0.2,0.1,0.4,0.1,0.5c0,0.3,0.2,0.5,0.5,0.7c0.4,0.2,0.9,0.5,1.4,0.6c1.7,0.6,3.5,0.7,5.2,0.7
			c0.9,0,1.8,0,2.7-0.1c2-0.2,3.7-1.2,4.7-3c0.3-0.6,1-0.7,1.6-0.4c0.5,0.4,0.6,1.1,0.2,1.6c-0.8,1-1.8,1.7-2.9,2.2
			C101.4,126.6,100.7,126.8,100,127z"/>
	</g>
</g>
</svg>
