<?xml-stylesheet type="text/css" href="../css/savenergy.css"?>
<!-- Generator: Adobe Illustrator 16.0.0, SVG Export Plug-In . SVG Version: 6.00 Build 0)  -->
<!DOCTYPE svg PUBLIC "-//W3C//DTD SVG 1.1//EN" "http://www.w3.org/Graphics/SVG/1.1/DTD/svg11.dtd">
<svg version="1.1" id="Layer_1" xmlns="http://www.w3.org/2000/svg" xmlns:xlink="http://www.w3.org/1999/xlink" x="0px" y="0px"
	 width="190px" height="190px" viewBox="211 352.25 190 190" enable-background="new 211 352.25 190 190" xml:space="preserve">
<g id="bg-rose">
	<path id="bg-rose-path" fill="#EE2662" d="M387.885,452.084c1.098-25.624-5.762-48.24-16.737-59.912
		c-11.342-14.317-47.288-14.773-84.788-0.092c-32.928,12.857-57.075,33.376-61.465,50.521
		c-6.128,18.146,19.848,46.142,59.178,63.287c40.335,17.599,79.482,12.766,87.348-1.003
		C379.378,491.205,386.971,473.696,387.885,452.084z" width="164px" height="136px"/>
	<path fill="#FFFFFF" d="M370.272,453.363c-0.274-1.373-0.916-2.654-1.556-3.936c-0.458-0.823-1.099-1.556-1.739-2.105
		c-1.739-1.464-3.661-2.471-5.857-3.02c-0.732-0.184-1.465-0.366-2.196-0.458c0.365-0.641,0.641-1.281,1.006-1.922
		c0.824-1.465,1.465-2.929,1.739-4.484c0.274-1.373,0.366-2.838,0.458-4.302c0.091-3.021-0.092-6.132,0.091-9.152
		c0-0.366,0-0.732,0-1.099c0-3.294-0.641-6.406-1.921-9.427c-0.275-0.549-0.458-1.098-0.732-1.738
		c-0.732-1.739-1.465-3.569-2.472-5.217c-0.641-1.099-1.372-2.105-2.471-2.929c-0.092-0.092-0.092-0.092-0.184-0.184
		c0.092-0.183,0.275-0.274,0.366-0.457c1.831-2.105,2.929-4.485,3.479-7.23c0.183-0.824,0.274-1.647,0.457-2.38
		c0.366-1.83,0.458-3.661,0-5.491c-0.366-1.647-1.007-3.203-1.922-4.576c-0.183-0.275-0.366-0.549-0.457-0.824
		c-0.641-1.282-1.557-2.38-2.654-3.295c-2.197-1.922-4.76-3.203-7.688-3.752c-1.647-0.274-3.386-0.366-5.033,0
		s-3.203,0.915-4.668,1.647c-1.464,0.641-2.654,1.647-3.569,3.02c-0.549,0.824-1.099,1.739-1.556,2.654
		c-1.099,2.288-1.647,4.667-1.281,7.23c0.366,2.471,1.556,4.484,3.569,5.857c1.647,1.098,3.478,1.648,5.491,1.374
		c0.366-0.092,0.824-0.092,1.189-0.092c2.105,0.092,3.936-0.641,5.491-2.105c0.184-0.183,0.275-0.366,0.458-0.458
		c0.915-0.641,1.465-1.556,1.739-2.654c0.183-0.458,0.183-1.007,0.091-1.464c-0.274-0.824-0.549-1.647-1.098-2.38
		c-0.915-1.281-2.288-1.739-3.844-1.739c-0.458,0-0.916,0.091-1.19,0.458c-0.549,0.549-1.189,0.916-1.83,1.281
		c-0.549,0.366-0.549,0.824-0.274,1.373c0.092,0.091,0.092,0.183,0.183,0.366c-0.183,0.091-0.274,0.091-0.366,0.091
		c-1.007,0-2.013-0.549-2.288-1.647c-0.091-0.366-0.183-0.824-0.183-1.189c0-1.19,0.183-2.38,0.549-3.478s1.007-1.922,2.014-2.471
		s2.105-0.824,3.203-0.915c2.654-0.092,4.851,0.824,6.682,2.837c1.647,1.922,2.471,4.21,2.562,6.773
		c0.091,3.111-0.366,6.04-1.465,8.969c-1.372,3.752-4.21,5.583-8.054,6.04c-1.281,0.184-2.654-0.091-3.936-0.274
		c-3.203-0.549-5.766-2.196-7.962-4.576c-0.366-0.366-0.55-0.823-0.458-1.373c0.092-0.549,0.092-1.098,0.092-1.647
		c0-0.641,0-1.189-0.092-1.83c-0.274-1.831-0.824-3.569-1.739-5.217c-0.641-1.098-1.372-2.014-2.104-3.021
		c-1.647-2.196-3.753-3.844-6.132-5.217c-1.922-1.098-4.027-1.738-6.224-2.104c-0.916-0.183-1.831-0.366-2.746-0.366
		c-1.83-0.092-3.752,0-5.583,0.366c-4.851,0.824-9.427,2.562-13.454,5.583c-1.647,1.19-3.112,2.563-4.302,4.302
		c-1.281,1.922-2.196,4.027-2.929,6.223c-0.366,1.281-0.732,2.654-1.007,4.027c-0.366,1.281-0.641,2.562-0.732,3.844
		c-0.549,0-1.098,0-1.647,0c-0.641,0-1.373-0.183-2.105-0.183c-1.647-0.184-3.203-0.092-4.851,0.091
		c-1.831,0.184-3.57,0.641-5.217,1.373c-3.936,1.831-6.773,4.851-8.604,8.786c-0.366,0.824-0.732,1.739-1.006,2.654
		c-0.458,1.373-0.549,2.837-0.458,4.394c0,0.823,0.091,1.647,0.091,2.471c0,1.189,0,2.471,0.183,3.661
		c0.366,2.013,0.824,4.026,1.556,6.04c0.549,1.739,1.464,3.295,2.929,4.394c0.183,0.183,0.458,0.365,0.641,0.549
		c-0.091,0.092-0.183,0.092-0.183,0.092c-2.38,1.006-4.21,2.653-5.675,4.759c-1.006,1.373-1.739,2.837-2.379,4.393
		c-1.098,2.654-1.647,5.4-1.281,8.237c0.274,1.922,0.824,3.753,1.922,5.4c1.464,2.196,3.386,3.844,5.583,5.125
		c1.281,0.823,2.746,1.098,4.21,1.098c1.281,0,2.471-0.183,3.661-0.365c1.099-0.184,2.288-0.458,3.295-1.007
		c2.471-1.099,4.027-2.929,4.21-5.675c0.092-1.373,0.183-2.746,0-4.21c-0.091-1.189-0.366-2.379-0.915-3.478
		c-0.458-1.007-1.099-2.014-1.922-2.746c-1.007-0.823-2.105-1.189-3.387-0.915c-0.274,0.092-0.549,0.092-0.824,0.092
		c-1.373,0-2.654,0.274-3.935,0.823c-1.007,0.458-1.831,1.099-2.38,2.105c-0.366,0.731-0.458,1.464-0.183,2.288
		c0.091,0.274,0.091,0.457,0.183,0.731c0.092,0.366,0.092,0.732,0.183,1.007c0.183,0.824,0.274,1.647,0.824,2.288
		c0.183,0.275,0.366,0.458,0.732,0.458s0.641-0.183,0.824-0.458c0.091-0.092,0.091-0.183,0.183-0.274
		c0.183,0.092,0.366,0.183,0.549,0.274c0.458,0.184,0.824-0.092,0.824-0.549c0-0.092,0-0.274,0-0.366c0-0.549,0-1.189,0-1.739
		c0-0.641,0.366-1.189,0.915-1.556c0.641-0.365,1.373-0.549,2.197-0.457s1.373,0.641,1.739,1.372
		c0.366,0.732,0.549,1.557,0.641,2.38c0,0.274-0.091,0.641-0.183,0.915c-0.366,0.824-0.915,1.373-1.739,1.739
		c-1.739,0.824-3.569,1.099-5.491,1.099c-0.183,0-0.366,0-0.549-0.092c-1.281-0.183-2.288-0.824-3.203-1.739
		c-1.831-1.83-2.929-3.936-3.478-6.498c-0.183-0.823-0.366-1.556-0.183-2.38c0.641-3.569,2.654-5.948,6.132-6.955
		c2.471-0.732,4.942-0.824,7.505-0.732c1.83,0,3.294,0.915,4.484,2.288c0.274,0.366,0.549,0.732,1.007,0.823
		c0.091,1.007,0.183,1.923,0.183,2.93c0.091,3.111-0.092,6.223,0.183,9.335c0.183,2.196,0.458,4.393,0.824,6.59
		c0.823,4.301,2.288,8.236,4.393,11.989c1.19,2.013,2.746,3.752,4.668,5.125c0.091,0.092,0.274,0.184,0.458,0.274
		c-0.091,0.184-0.183,0.366-0.274,0.458c-0.092,0.091-0.092,0.183-0.183,0.183c-0.275,0.092-0.275,0.366-0.183,0.549
		c0.091,0.458,0.458,0.732,0.915,0.732c0.092,0,0.275,0,0.366,0c0.183,0.274,0.091,0.458,0,0.641
		c-0.091,0.184-0.183,0.458-0.183,0.732c0,0.366,0.092,0.458,0.549,0.549c0,0.092,0,0.184,0,0.366
		c0.091,1.922,0.091,3.844,0.183,5.857c0,0.184,0,0.366,0,0.549c-0.183,1.099-0.641,1.923-1.739,2.288
		c-0.823,0.366-1.739,0.641-2.562,0.916c-3.752,1.007-7.139,2.562-10.434,4.484c-1.556,0.915-2.929,1.922-4.484,2.837
		c-2.288,1.373-4.393,2.929-6.407,4.668c-0.641,0.549-0.732,1.007-0.091,1.738v0.092c-0.549,0.366-1.007,0.824-1.739,0.824
		c-0.274,0-0.458,0.183-0.549,0.366c-0.092,0.183-0.183,0.274-0.274,0.457c-0.183,0.274-0.183,0.549,0,0.915
		c0.183,0.275,0.458,0.458,0.823,0.366c0.458,0,1.099-0.458,1.19-0.915c0.091-0.183,0.091-0.274,0.183-0.366
		c0.366-0.366,0.732-0.732,1.098-1.007c1.098-0.915,2.197-1.738,3.295-2.654c0.549-0.457,1.19-0.823,1.739-1.281
		c0.732-0.457,1.464-0.915,2.197-1.464c1.831-1.465,3.936-2.472,6.041-3.387c2.196-1.007,4.484-1.922,6.772-2.837
		c0.549-0.183,1.098-0.458,1.556-0.732c0.732-0.366,1.464-0.549,2.288-0.549c0.366,0,0.641,0,0.824,0.457
		c0.183,0.458,0.732,0.642,1.282,0.458c0.549-0.183,0.732-0.641,0.549-1.281c0-0.092-0.091-0.183-0.091-0.274
		c-0.092-1.007-0.183-2.014-0.275-3.021c0-0.366,0-0.732,0-1.099c0.092-2.379-0.183-4.759,0-7.229c0-0.458,0-0.915-0.458-1.099
		c-0.091,0-0.091-0.092-0.091-0.183c-0.092-0.366-0.183-0.824-0.275-1.281c0.275,0.091,0.366,0.183,0.549,0.274
		c1.098,0.549,2.196,1.189,3.295,1.738c2.288,1.19,4.667,1.923,7.139,2.654c1.556,0.458,3.203,0.641,4.851,0.824
		c2.38,0.274,4.759,0.091,7.047-0.732c0.184-0.092,0.458-0.092,0.732-0.183c2.746-0.275,5.309-1.008,7.688-2.472
		c0.916-0.549,1.831-1.189,2.746-1.83c0.092-0.092,0.274-0.184,0.458-0.274c0,0.183,0,0.274,0,0.457
		c0,3.203-0.092,6.315-0.092,9.519c0,0.183,0,0.366,0,0.549c0.092,0.55,0.366,1.007,0.915,1.19c0.274,0.091,0.549,0.183,0.915,0.183
		c1.19,0.092,2.38,0.183,3.479,0.183c1.372,0,2.653,0.184,3.936,0.458c2.196,0.549,4.393,1.099,6.589,1.647
		c0.092,0,0.184,0.092,0.366,0.183c-0.549,0-0.915,0.184-1.099,0.55c-0.549,0.641-1.006,1.281-1.464,2.014
		c-0.458,0.731-0.915,1.464-1.373,2.196c-1.189,1.738-2.562,3.386-4.21,4.851c-1.189,1.099-2.38,2.014-3.661,2.929
		c-2.562,1.83-5.125,3.478-8.054,4.667c-0.366,0.092-0.641,0.275-1.007,0.366c-1.556,0.275-3.203,0.458-4.759,0.458
		c-2.929,0-5.949-0.274-8.878-0.732c-2.837-0.457-5.674-1.189-8.328-2.288c-3.021-1.189-5.766-2.837-8.146-5.125
		c-1.373-1.373-2.471-2.837-3.295-4.576c-0.274-0.549-0.458-1.189-0.641-1.922c-0.092-0.549-0.641-0.915-1.19-0.824
		c-0.183,0.092-0.366,0.184-0.549,0.275c-0.183-0.092-0.275-0.184-0.458-0.184c-0.549-0.183-1.099,0.092-1.282,0.641
		c-0.091,0.275-0.091,0.55,0.183,0.824c0.641,0.823,1.281,1.647,1.831,2.471c1.922,3.295,4.484,6.04,7.596,8.237
		c2.562,1.738,5.309,2.929,8.329,3.844c2.837,0.823,5.766,1.281,8.695,1.281c0.274,0,0.457,0,0.731,0
		c-0.091,0.092-0.183,0.183-0.274,0.183c-2.745,0.275-5.399,0.092-7.962-0.549c-3.569-0.915-6.956-2.38-10.067-4.393
		c-2.288-1.465-4.302-3.387-5.583-5.857c-0.274-0.458-0.549-0.915-0.824-1.465c-0.366-0.732-1.281-0.823-1.831-0.092
		c-0.091,0.092-0.091,0.184-0.183,0.275c-0.458-0.641-0.824-1.19-1.006-1.831c-0.092-0.549-0.275-1.007-0.366-1.556
		c0-0.092-0.092-0.183-0.183-0.274c-0.366-0.366-0.915-0.366-1.281-0.092s-0.549,0.732-0.366,1.189c0,0.092,0.091,0.184,0.183,0.275
		c0.641,0.366,1.098,1.007,1.464,1.647c1.19,1.738,2.379,3.569,3.752,5.216c2.288,2.746,4.942,4.942,8.146,6.499
		c4.027,2.013,8.328,3.02,12.812,3.203c1.831,0.092,3.569,0.092,5.4-0.092c3.387-0.274,6.772-0.915,9.976-2.105
		c3.844-1.372,7.505-3.203,10.8-5.766c2.929-2.288,5.399-4.942,7.23-8.236c0.549-0.916,1.098-1.831,1.647-2.746
		c0.091-0.184,0.183-0.274,0.274-0.458c0.274-0.457,0.366-0.823-0.092-1.098c0.092-0.366,0.184-0.641,0.184-1.007
		c0-0.274-0.184-0.55-0.275-0.915c0.824,0.274,1.739,0.457,2.563,0.915c1.83,0.915,3.478,2.104,5.033,3.386
		c2.654,2.105,5.217,4.394,7.413,6.864c1.831,2.014,3.569,4.119,5.4,6.224c0.091,0.092,0.183,0.184,0.274,0.274
		c-0.092,0.092-0.092,0.092-0.092,0.184c-0.274,0.457-0.274,0.915,0.092,1.189c0.274,0.366,0.641,0.458,1.189,0.274
		c0.184-0.091,0.274-0.091,0.458,0c0.457,0.184,0.915,0.092,1.189-0.274s0.274-0.732,0.092-1.189
		c-0.184-0.274-0.274-0.55-0.458-0.824c-1.007-2.014-2.288-3.844-3.752-5.491c-1.099-1.189-2.196-2.379-3.295-3.569
		c-2.288-2.288-4.759-4.301-7.688-5.766c-1.738-0.823-3.478-1.647-5.216-2.288c-0.275-0.092-0.641-0.183-0.916-0.366
		c-3.752-1.83-7.688-3.021-11.715-4.027c-1.372-0.365-2.745-0.641-4.026-1.28c-0.366-0.184-0.641-0.275-1.007-0.092
		c-0.092-0.184-0.092-0.366-0.183-0.55c-0.366-1.281-0.458-2.562-0.458-3.935c-0.092-1.557,0-3.112,0-4.668
		c0-0.274,0.092-0.55,0.366-0.732c2.288-1.83,4.118-3.936,5.766-6.314c1.556-2.38,2.654-5.034,3.295-7.78
		c0.274-1.281,0.549-2.562,0.915-3.752c0.641-2.288,1.281-4.484,1.922-6.682c0.641-2.104,1.007-4.301,0.915-6.589
		c-0.091-1.465-0.183-2.929-0.274-4.302c0-0.092,0-0.274,0-0.366c0.274-0.092,0.549-0.183,0.824-0.274c0,0.274,0,0.457,0,0.641
		c0.091,1.556,0.183,3.203,0.365,4.759c0.275,2.196,0.824,4.394,1.923,6.407c0.091,0.274,0.183,0.457,0.274,0.732
		c0.641,2.013,1.556,3.844,2.745,5.674c1.099,1.83,2.563,3.295,4.394,4.394c1.647,1.006,3.478,1.556,5.399,1.464
		c1.007-0.092,2.014-0.366,2.929-0.641c0.458-0.184,0.915-0.274,1.373-0.366c2.562-0.457,4.759-1.465,6.681-3.295
		c0.732-0.732,1.282-1.647,1.923-2.562C370.272,459.495,370.821,456.566,370.272,453.363z"/>
	<polygon fill="#F5F5F5" points="290.099,481.918 291.472,484.572 291.472,492.992 289.184,495.188 281.771,497.568 
		273.899,501.687 269.415,505.714 266.578,508.734 263.466,511.205 270.056,516.514 285.706,516.514 306.023,519.259 
		308.403,519.259 310.051,518.618 314.535,518.436 327.44,519.259 333.022,517.978 365.513,515.964 361.12,508.917 353.157,501.138 
		342.083,496.379 329.728,492.168 325.976,490.979 326.25,481.918 320.667,484.023 314.718,486.312 305.749,487.043 	"/>
	<g>
		<g>
			<path fill="#F5F5F5" d="M306.848,487.958c-1.648-0.183-3.295-0.365-4.851-0.823c-2.379-0.732-4.851-1.465-7.139-2.654
				c-1.098-0.549-2.196-1.189-3.294-1.739c-0.183-0.091-0.275-0.183-0.549-0.274c0.091,0.458,0.183,0.915,0.274,1.281
				c0,0.092,0.092,0.184,0.092,0.184c0.549,0.274,0.549,0.732,0.458,1.098c-0.183,2.38,0.091,4.76,0,7.23c0,0.366,0,0.732,0,1.099
				c0.091,1.007,0.183,2.014,0.274,3.021c0,0.091,0,0.183,0.092,0.274c0.183,0.549,0,1.007-0.549,1.281
				c-0.458,0.183-1.098,0-1.281-0.458c-0.183-0.457-0.458-0.457-0.824-0.457c-0.824,0-1.556,0.183-2.288,0.549
				c-0.549,0.274-1.007,0.549-1.556,0.732c-2.288,0.915-4.485,1.83-6.773,2.837c-2.105,1.007-4.21,2.014-6.041,3.386
				c-0.641,0.55-1.464,1.007-2.196,1.465c-0.549,0.366-1.19,0.823-1.739,1.281c-1.098,0.824-2.196,1.739-3.294,2.654
				c-0.366,0.274-0.732,0.641-1.098,1.007c-0.092,0.092-0.184,0.274-0.184,0.366c-0.183,0.457-0.732,0.915-1.189,0.915
				c-0.366,0-0.641-0.092-0.824-0.366s-0.183-0.549,0-0.915c0.091-0.184,0.183-0.274,0.274-0.458
				c0.092-0.183,0.366-0.366,0.549-0.366c0.732,0,1.189-0.549,1.739-0.823c0-0.092,0-0.092,0-0.092
				c-0.549-0.641-0.549-1.098,0.092-1.738c2.013-1.739,4.118-3.295,6.406-4.668c1.464-0.915,2.929-1.922,4.485-2.838
				c3.294-1.921,6.772-3.478,10.434-4.483c0.915-0.275,1.739-0.55,2.562-0.916c1.007-0.366,1.556-1.189,1.739-2.288
				c0-0.183,0-0.366,0-0.549c-0.091-1.922-0.091-3.844-0.183-5.857c0-0.092,0-0.274,0-0.366c-0.366-0.092-0.458-0.183-0.549-0.549
				c0-0.274,0.091-0.55,0.183-0.732c0.183-0.274,0.183-0.458,0-0.641c-0.091,0-0.274,0-0.366,0c-0.458,0-0.824-0.274-0.916-0.732
				c-0.091-0.183-0.091-0.457,0.183-0.549c0.092,0,0.183-0.184,0.183-0.184c0.092-0.183,0.183-0.274,0.275-0.457
				c-0.183-0.092-0.275-0.183-0.458-0.274c-1.922-1.373-3.478-3.021-4.667-5.126c-2.196-3.752-3.661-7.779-4.393-11.989
				c-0.366-2.196-0.641-4.393-0.824-6.59c-0.274-3.111-0.091-6.223-0.183-9.335c0-1.007-0.091-1.922-0.183-2.929
				c-0.549-0.092-0.732-0.457-1.006-0.823c-1.19-1.373-2.654-2.288-4.485-2.288c-2.562,0-5.034,0.092-7.505,0.731
				c-3.569,1.008-5.491,3.387-6.132,6.956c-0.183,0.824,0,1.556,0.183,2.38c0.458,2.471,1.647,4.667,3.478,6.498
				c0.916,0.915,1.922,1.556,3.204,1.739c0.183,0,0.366,0.091,0.549,0.091c1.922,0,3.752-0.274,5.491-1.098
				c0.824-0.366,1.373-0.915,1.739-1.739c0.091-0.274,0.183-0.549,0.183-0.915c0-0.824-0.183-1.647-0.641-2.38
				c-0.366-0.732-0.916-1.281-1.739-1.372c-0.732-0.092-1.464,0-2.196,0.457c-0.549,0.366-0.916,0.823-0.916,1.556
				c0,0.55,0,1.19,0,1.739c0,0.091,0,0.274,0,0.366c-0.091,0.457-0.366,0.732-0.823,0.549c-0.183-0.092-0.366-0.184-0.549-0.274
				c-0.092,0.091-0.092,0.183-0.183,0.274c-0.183,0.274-0.458,0.458-0.824,0.458s-0.549-0.184-0.732-0.458
				c-0.549-0.641-0.641-1.556-0.824-2.288c-0.092-0.366-0.092-0.641-0.183-1.007c0-0.274-0.092-0.549-0.183-0.732
				c-0.366-0.823-0.275-1.556,0.183-2.288c0.549-1.007,1.373-1.646,2.379-2.104c1.281-0.549,2.562-0.915,3.936-0.823
				c0.274,0,0.549,0,0.824-0.092c1.281-0.274,2.471,0.092,3.386,0.915c0.824,0.732,1.464,1.647,1.922,2.745
				c0.549,1.099,0.732,2.288,0.916,3.479c0.183,1.372,0.091,2.745,0,4.21c-0.275,2.745-1.831,4.576-4.21,5.674
				c-1.099,0.458-2.197,0.732-3.295,1.007c-1.19,0.274-2.471,0.366-3.661,0.366c-1.556,0-2.929-0.366-4.21-1.098
				c-2.196-1.373-4.118-3.021-5.583-5.126c-1.098-1.647-1.739-3.478-1.922-5.399c-0.366-2.838,0.183-5.583,1.281-8.237
				c0.641-1.556,1.373-3.02,2.38-4.393c1.464-2.105,3.295-3.753,5.674-4.76c0.091,0,0.091-0.091,0.183-0.091
				c-0.183-0.184-0.458-0.366-0.641-0.55c-1.464-1.189-2.38-2.654-2.929-4.393c-0.641-2.014-1.19-3.936-1.556-6.041
				c-0.183-1.189-0.274-2.471-0.183-3.66c0-0.824-0.091-1.647-0.091-2.472c-0.091-1.464,0-2.929,0.458-4.393
				c0.275-0.915,0.641-1.831,1.007-2.654c1.831-3.936,4.667-6.864,8.603-8.786c1.647-0.732,3.386-1.189,5.217-1.373
				c1.647-0.183,3.203-0.274,4.851-0.092c0.732,0.092,1.464,0.184,2.197,0.275c0.549,0,1.098,0,1.647,0
				c0.091-1.373,0.366-2.654,0.732-3.845c0.366-1.373,0.641-2.653,1.007-4.027c0.641-2.196,1.647-4.301,2.929-6.223
				c1.098-1.739,2.654-3.021,4.301-4.302c4.027-2.929,8.512-4.759,13.454-5.583c1.83-0.274,3.752-0.458,5.583-0.366
				c0.915,0.091,1.83,0.274,2.745,0.366c2.196,0.366,4.302,1.007,6.224,2.105c2.38,1.373,4.484,3.02,6.132,5.217
				c0.732,1.006,1.465,1.922,2.105,3.02c0.915,1.647,1.556,3.295,1.738,5.217c0.092,0.641,0.092,1.19,0.092,1.831
				c0,0.549,0,1.098-0.092,1.647c-0.091,0.549,0.184,1.007,0.458,1.373c2.196,2.379,4.759,4.026,7.962,4.576
				c1.282,0.183,2.654,0.457,3.936,0.274c3.845-0.458,6.682-2.288,8.055-6.041c1.098-2.929,1.556-5.857,1.464-8.969
				c-0.092-2.563-0.823-4.759-2.562-6.773s-4.027-2.929-6.681-2.837c-1.099,0-2.197,0.366-3.204,0.915s-1.647,1.373-2.013,2.471
				c-0.366,1.098-0.55,2.288-0.55,3.478c0,0.366,0.092,0.823,0.184,1.189c0.274,1.098,1.281,1.647,2.288,1.647
				c0.091,0,0.183-0.091,0.366-0.091c-0.092-0.092-0.092-0.275-0.184-0.366c-0.274-0.549-0.183-1.007,0.274-1.373
				c0.641-0.458,1.281-0.732,1.831-1.281c0.274-0.274,0.731-0.458,1.189-0.458c1.556,0,2.837,0.458,3.844,1.739
				c0.549,0.732,0.824,1.556,1.099,2.379c0.183,0.458,0.091,1.007-0.092,1.465c-0.274,1.098-0.823,1.921-1.738,2.654
				c-0.184,0.092-0.367,0.275-0.458,0.458c-1.556,1.464-3.295,2.197-5.491,2.105c-0.366,0-0.824,0.092-1.189,0.092
				c-2.014,0.274-3.845-0.274-5.492-1.373c-2.104-1.373-3.295-3.386-3.569-5.857c-0.366-2.562,0.184-4.942,1.281-7.23
				c0.458-0.916,1.007-1.831,1.557-2.654c0.915-1.373,2.104-2.379,3.568-3.02c1.465-0.732,3.112-1.281,4.668-1.647
				c1.647-0.366,3.295-0.366,5.034,0c2.929,0.549,5.399,1.83,7.688,3.752c1.099,0.915,2.014,2.013,2.654,3.295
				c0.183,0.274,0.274,0.549,0.457,0.823c0.916,1.465,1.465,3.021,1.923,4.576c0.457,1.831,0.365,3.661,0,5.491
				c-0.184,0.824-0.274,1.647-0.458,2.38c-0.549,2.746-1.647,5.125-3.478,7.23c-0.092,0.184-0.274,0.274-0.366,0.458
				c0.092,0.092,0.092,0.092,0.183,0.183c1.099,0.732,1.831,1.739,2.472,2.929c0.915,1.647,1.738,3.479,2.471,5.217
				c0.274,0.55,0.458,1.099,0.732,1.739c1.373,3.021,1.922,6.132,1.922,9.427c0,0.366,0,0.732,0,1.099
				c-0.184,3.02-0.092,6.132-0.092,9.151c0,1.465-0.183,2.838-0.457,4.302c-0.275,1.556-0.916,3.111-1.739,4.484
				c-0.366,0.641-0.641,1.281-1.007,1.923c0.732,0.183,1.464,0.274,2.196,0.457c2.197,0.641,4.119,1.647,5.857,3.021
				c0.732,0.641,1.281,1.281,1.739,2.104c0.641,1.282,1.281,2.472,1.556,3.936c0.549,3.203,0,6.132-1.739,8.786
				c-0.549,0.915-1.189,1.739-1.922,2.562c-1.83,1.831-4.118,2.838-6.681,3.295c-0.458,0.092-0.915,0.184-1.373,0.366
				c-0.915,0.366-1.922,0.549-2.929,0.641c-2.014,0.092-3.752-0.366-5.399-1.464c-1.83-1.099-3.295-2.562-4.394-4.394
				c-1.098-1.739-2.013-3.661-2.745-5.675c-0.092-0.273-0.184-0.549-0.274-0.731c-1.007-2.014-1.557-4.21-1.923-6.407
				c-0.183-1.556-0.274-3.203-0.365-4.759c0-0.183,0-0.366,0-0.641c-0.366,0.092-0.55,0.183-0.824,0.274c0,0.092,0,0.275,0,0.366
				c0.092,1.465,0.184,2.929,0.274,4.302c0.092,2.196-0.274,4.393-0.915,6.59c-0.641,2.196-1.281,4.484-1.922,6.681
				c-0.366,1.281-0.549,2.562-0.915,3.753c-0.641,2.745-1.739,5.399-3.295,7.779c-1.556,2.379-3.478,4.576-5.766,6.314
				c-0.274,0.184-0.366,0.458-0.366,0.732c0,1.556-0.092,3.111,0,4.668c0.092,1.281,0.092,2.654,0.457,3.935
				c0,0.184,0.092,0.275,0.184,0.55c0.366-0.183,0.732-0.092,1.007,0.092c1.281,0.641,2.654,1.007,4.026,1.281
				c4.027,1.007,7.963,2.196,11.715,4.026c0.275,0.184,0.641,0.274,0.915,0.366c1.831,0.641,3.57,1.373,5.217,2.288
				c2.93,1.465,5.4,3.478,7.688,5.767c1.098,1.189,2.196,2.379,3.295,3.568c1.556,1.647,2.745,3.479,3.752,5.491
				c0.092,0.275,0.274,0.55,0.458,0.824c0.183,0.458,0.183,0.823-0.092,1.189s-0.732,0.458-1.189,0.274
				c-0.184-0.091-0.274-0.091-0.458,0c-0.457,0.184-0.823,0.092-1.189-0.274c-0.275-0.366-0.366-0.731-0.092-1.189
				c0-0.092,0.092-0.092,0.092-0.183c-0.092-0.092-0.184-0.184-0.275-0.275c-1.83-2.104-3.568-4.118-5.399-6.223
				c-2.288-2.563-4.759-4.851-7.413-6.864c-1.556-1.282-3.203-2.472-5.033-3.387c-0.824-0.458-1.739-0.641-2.563-0.915
				c0.092,0.274,0.275,0.641,0.275,0.915s-0.092,0.641-0.184,1.007c0.458,0.274,0.366,0.732,0.092,1.098
				c-0.092,0.184-0.184,0.275-0.274,0.458c-0.55,0.915-1.099,1.83-1.647,2.746c-1.831,3.295-4.302,5.948-7.23,8.236
				c-3.295,2.562-6.956,4.394-10.8,5.767c-3.203,1.189-6.59,1.83-9.976,2.104c-1.831,0.092-3.569,0.184-5.4,0.092
				c-4.484-0.274-8.786-1.189-12.812-3.203c-3.204-1.556-5.857-3.753-8.146-6.498c-1.373-1.647-2.562-3.387-3.752-5.217
				c-0.458-0.641-0.824-1.281-1.464-1.647c-0.092,0-0.183-0.184-0.183-0.274c-0.183-0.366,0-0.916,0.366-1.19
				c0.366-0.274,0.915-0.274,1.281,0.092c0.091,0.092,0.091,0.183,0.183,0.274c0.183,0.549,0.274,1.007,0.366,1.557
				c0.183,0.731,0.641,1.28,1.007,1.83c0.092-0.092,0.092-0.183,0.183-0.274c0.458-0.732,1.373-0.641,1.831,0.092
				c0.274,0.457,0.549,0.915,0.824,1.464c1.373,2.471,3.295,4.393,5.583,5.857c3.112,2.014,6.499,3.478,10.068,4.394
				c2.654,0.64,5.308,0.823,7.962,0.549c0.092,0,0.184,0,0.274-0.184c-0.274,0-0.457,0-0.731,0
				c-2.929-0.092-5.857-0.549-8.695-1.281c-2.929-0.823-5.766-2.014-8.329-3.844c-3.112-2.196-5.674-4.942-7.596-8.237
				c-0.549-0.915-1.19-1.738-1.831-2.471c-0.274-0.274-0.274-0.549-0.183-0.823c0.183-0.55,0.732-0.824,1.281-0.642
				c0.183,0.092,0.275,0.092,0.458,0.184c0.183-0.092,0.366-0.184,0.549-0.274c0.549-0.184,1.098,0.183,1.19,0.823
				c0.091,0.641,0.274,1.281,0.641,1.922c0.915,1.647,2.014,3.204,3.295,4.576 M298.793,511.846c2.654,1.099,5.491,1.83,8.329,2.288
				c2.929,0.458,5.857,0.732,8.878,0.732c1.646,0,3.203-0.184,4.759-0.458c0.366-0.092,0.732-0.183,1.007-0.366
				c2.929-1.189,5.491-2.837,8.054-4.667c1.281-0.916,2.472-1.831,3.661-2.929c1.556-1.465,2.929-3.112,4.21-4.852
				c0.457-0.731,0.915-1.464,1.373-2.196c0.457-0.731,1.007-1.372,1.464-2.014c0.274-0.365,0.641-0.549,1.099-0.549
				c-0.184-0.092-0.274-0.092-0.366-0.183c-2.196-0.55-4.393-1.189-6.59-1.647c-1.281-0.274-2.654-0.458-3.936-0.458
				c-1.189,0-2.379-0.092-3.478-0.183c-0.274,0-0.641-0.092-0.915-0.184c-0.549-0.183-0.824-0.549-0.915-1.189
				c0-0.184,0-0.366,0-0.549c0-3.203,0.091-6.315,0.091-9.519c0-0.092,0-0.184,0-0.458c-0.183,0.092-0.365,0.184-0.457,0.274
				c-0.916,0.641-1.831,1.19-2.746,1.831c-2.379,1.464-4.942,2.196-7.688,2.471c-0.274,0-0.458,0.092-0.732,0.184 M352.975,433.229
				c0.183-0.184,0.274-0.458,0.183-0.824C353.157,432.679,353.066,432.953,352.975,433.229c-0.092,0.183-0.184,0.365-0.274,0.549
				h0.091C352.791,433.594,352.883,433.411,352.975,433.229z M260.629,423.71c0,0.183,0,0.366,0,0.549c0,0,0,0,0.091,0
				C260.629,424.076,260.629,423.893,260.629,423.71c0-0.366-0.092-0.824-0.092-1.189c0,0.365,0,0.641,0,0.915
				C260.537,423.527,260.629,423.618,260.629,423.71z M262.642,412.27c-0.091,0.092-0.183,0.184-0.274,0.274
				c-0.641,1.007-1.007,2.014-1.464,3.112c0,0.091,0,0.183-0.092,0.366c0.092-0.184,0.092-0.184,0.184-0.275
				c0.549-1.098,1.006-2.104,1.556-3.203C262.642,412.453,262.642,412.361,262.642,412.27c0.183-0.092,0.275-0.274,0.183-0.457
				C262.825,411.903,262.734,412.087,262.642,412.27z M321.766,411.629c-0.092,0-0.184,0.092-0.274,0.092
				c-1.007,0.641-2.014,1.189-3.203,1.556c-0.092,0-0.184,0.092-0.184,0.092c1.007,0,1.922-0.458,2.746-1.007
				c0.274-0.184,0.457-0.366,0.731-0.458C321.674,411.812,321.674,411.721,321.766,411.629s0.183-0.092,0.366-0.183
				c0,0,0-0.092-0.092-0.092C322.04,411.446,321.948,411.537,321.766,411.629z M319.02,430.482c0,0.915,0.458,1.647,0.824,2.38
				c0.183,0.274,0.183,0.457,0,0.731c0,0.092-0.092,0.184-0.092,0.275c0.184,0.457,0.274,0.915,0.641,1.281
				c0.641,0.641,1.373,1.281,2.014,1.83c3.021,2.562,6.406,4.21,10.342,4.668c1.373,0.183,2.654,0.183,4.027,0.092
				c0.092,0,0.274-0.092,0.457-0.092c0-0.458,0-0.824,0-1.281c-0.183,0-0.274,0-0.365,0c-1.923-0.092-3.845-0.274-5.767-0.732
				c-2.288-0.458-4.484-1.281-6.315-2.746c-2.104-1.556-3.478-3.66-3.844-6.314c-0.274-2.014,0-4.027,0.458-5.949
				c0.366-1.281,0.915-2.471,1.739-3.478c1.006-1.281,2.379-2.105,3.844-2.746c0.183-0.091,0.366-0.183,0.549-0.274
				c-0.732,0-1.464,0.092-2.196,0.366c-1.922,0.823-3.478,2.105-4.576,3.844c-1.007,1.465-1.465,3.203-1.739,4.942
				c-0.091,0.549,0,0.915,0.366,1.281c0.092,0.092,0.092,0.183,0.184,0.274c0.274,0.458,0.183,0.915-0.184,1.281
				C319.203,430.391,319.111,430.391,319.02,430.482z M311.424,440.642c-0.092,0.091-0.184,0.183-0.274,0.274
				c-0.458,0.274-0.824,0.641-1.282,0.915c-0.915,0.549-1.83,0.915-2.837,1.099c-1.098,0.183-2.105,0.457-3.203,0.366
				c-2.105-0.092-3.844-1.007-5.308-2.563c-0.366-0.365-0.732-0.823-1.007-1.189c-0.091-0.091-0.183-0.183-0.183-0.183
				s-0.091,0-0.091,0.092c0.183,0.365,0.274,0.823,0.458,1.189c0.915,1.373,2.013,2.471,3.569,3.111
				c1.647,0.641,3.478,0.915,5.217,0.915c0.915,0,1.739-0.183,2.562-0.549C310.508,443.387,311.24,442.197,311.424,440.642z
				 M338.972,501.412c-0.184,0.274-0.274,0.458-0.458,0.641c-1.281,1.922-2.745,3.661-4.484,5.217
				c-2.288,2.014-4.759,3.753-7.321,5.4c-0.184,0.091-0.366,0.183-0.458,0.274c0.183,0,0.366,0,0.549-0.092
				c1.922-0.732,3.845-1.739,5.583-2.837c0.732-0.458,1.465-1.099,2.105-1.647c1.556-1.465,2.929-3.203,4.21-4.942
				C338.972,502.877,339.338,502.235,338.972,501.412z M319.111,517.062L319.111,517.062c-0.092-0.092-0.183-0.092-0.183-0.092
				c-1.19,0.184-2.288,0.184-3.479,0.184c-0.091,0-0.274,0-0.366,0c-1.556,0.366-3.203,0.549-4.759,0.731
				c-2.746,0.275-5.491,0.092-8.237-0.641c-4.667-1.189-8.878-3.386-12.813-6.132c-0.183-0.091-0.366-0.274-0.641-0.457
				c0.092,0.091,0.092,0.183,0.092,0.183c0.091,0.092,0.183,0.184,0.274,0.274c1.464,1.465,3.204,2.654,5.034,3.661
				c4.302,2.288,8.969,3.295,13.82,3.478c3.02,0.092,6.04-0.091,9.061-0.731C317.556,517.429,318.288,517.245,319.111,517.062z
				 M272.161,463.979C272.161,463.979,272.161,463.888,272.161,463.979c-0.824-0.092-1.556-0.092-2.38-0.092
				c-0.091,0-0.183,0-0.274,0c-0.732,0-1.464,0-2.105-0.091c-2.014-0.274-3.844-0.915-5.4-2.197
				c-0.732-0.641-1.464-1.372-2.196-2.013c-0.458-0.458-0.824-0.915-1.282-1.281c0,0.183,0.092,0.457,0.275,0.549
				c0.641,0.823,1.19,1.739,1.922,2.562c1.831,2.196,4.302,3.386,7.139,3.661c0.275,0,0.458,0,0.732,0
				c1.098-0.184,2.196-0.458,3.294-0.915C271.886,464.071,271.978,464.071,272.161,463.979z M282.777,467.823
				C282.686,467.823,282.686,467.823,282.777,467.823c0,0.092,0,0.184,0,0.275c0.275,1.189,0.641,2.287,1.19,3.386
				c1.647,3.844,4.119,7.047,7.414,9.519c0.732,0.549,1.556,1.007,2.379,1.464c0.092,0.092,0.274,0.092,0.366,0.184
				c-0.458-0.55-1.007-1.099-1.556-1.465c-2.379-1.738-4.21-3.936-5.766-6.314c-1.373-2.197-2.654-4.394-3.752-6.682
				C282.869,468.099,282.777,467.915,282.777,467.823z M349.954,500.039L349.954,500.039c0,0.092,0,0.092,0,0.184
				c0.366,0.366,0.824,0.641,1.19,0.915c2.471,1.922,4.667,4.027,6.772,6.406c1.464,1.647,2.929,3.387,4.393,5.034
				c0.092,0.092,0.184,0.274,0.366,0.366c0-0.184,0-0.274-0.092-0.366c-0.915-1.922-2.104-3.661-3.569-5.217
				c-0.457-0.458-0.915-1.007-1.373-1.465c-2.104-2.196-4.484-4.118-7.139-5.582C350.32,500.131,350.138,500.131,349.954,500.039z
				 M291.014,494.365c-0.092,0.091-0.183,0.091-0.274,0.183c-0.458,0.458-0.916,0.732-1.556,1.007
				c-0.549,0.184-1.007,0.366-1.556,0.549c-2.38,0.641-4.668,1.465-6.864,2.472c-3.569,1.647-6.864,3.66-9.976,6.132
				c-0.091,0.092-0.274,0.184-0.366,0.366c0.732-0.366,1.464-0.824,2.104-1.373c2.105-1.556,4.393-2.654,6.681-3.661
				c0.916-0.366,1.831-0.731,2.654-1.098c1.007-0.458,2.105-0.915,3.112-1.281c0.641-0.275,1.281-0.55,1.922-0.916
				c0.732-0.365,1.464-0.641,2.38-0.641c0.183,0,0.274,0,0.458,0s0.274-0.091,0.274-0.274c0-0.091,0-0.183,0-0.274
				c0.274,0,0.458-0.092,0.732-0.092C290.831,495.006,290.922,494.731,291.014,494.365z M282.869,424.168
				c-0.549,0.183-1.007,0.274-1.556,0.457c-0.458,0.092-0.549,0.366-0.549,0.824c0,1.098,0.274,2.013,1.007,2.745
				c1.098,1.19,2.471,1.831,4.027,2.196c0.824,0.184,1.556,0.366,2.379,0.184c0.641-0.092,1.19-0.274,1.739-0.732
				c-0.366,0-0.732,0.092-1.099,0.184c-1.464,0.183-2.929-0.184-4.301-0.732c-0.915-0.366-1.647-1.007-2.197-1.922
				c-0.274-0.366-0.458-0.916-0.274-1.373c0.183-0.641,0.183-1.281,0.641-1.739C282.869,424.351,282.869,424.259,282.869,424.168z
				 M342.907,444.119c0,0.366-0.092,0.641-0.092,1.007c0,0.823,0,1.647,0,2.472c0,2.196,0.366,4.301,0.823,6.314
				c0.184,0.824,0.367,1.739,0.732,2.562c0.824,2.105,2.288,3.844,3.936,5.4c0.458,0.457,1.099,0.731,1.739,0.915
				c0-0.092-0.092-0.092-0.092-0.184c-0.641-0.457-1.281-0.915-1.83-1.464c-1.007-0.823-1.83-1.831-2.38-2.929
				c-1.189-2.196-1.83-4.576-2.014-7.047c-0.092-1.465,0-3.021,0-4.485c0-0.732,0-1.464,0-2.196c0-0.183-0.092-0.366-0.183-0.549
				C343.182,444.028,343.09,444.119,342.907,444.119z M336.409,431.672l0.091,0.092c0.275-0.183,0.642-0.366,0.916-0.641
				c1.007-0.915,1.647-1.922,1.922-3.203c0.092-0.549,0.183-1.007,0.274-1.556c0.366-1.831-0.092-3.387-1.281-4.851
				c-0.092-0.092-0.184-0.184-0.274-0.274c0.091,0.183,0.091,0.365,0.091,0.457c0.092,0.641,0.366,1.373,0.366,2.014
				c0,1.556,0,3.021-0.091,4.484c-0.092,1.281-0.641,2.38-1.739,3.112C336.592,431.397,336.5,431.581,336.409,431.672z
				 M322.681,481.003C322.681,481.003,322.681,480.911,322.681,481.003c-1.189,0.549-2.288,1.189-3.478,1.738
				c-1.099,0.55-2.288,1.099-3.478,1.557c-1.19,0.457-2.38,0.823-3.661,1.098c-1.19,0.184-2.472,0.366-3.661,0.549
				c0.823,0.092,1.647,0.184,2.38,0.092c1.281-0.092,2.562-0.366,3.844-0.549c0.732-0.092,1.464-0.274,2.104-0.641
				c1.373-0.823,2.838-1.739,4.21-2.562C321.582,481.918,322.132,481.461,322.681,481.003z M284.241,424.076
				c0.092,0.274,0.275,0.457,0.275,0.732c0.091,0.274,0,0.549-0.183,0.823s-0.366,0.092-0.641,0.184
				c-0.274,0-0.458,0.183-0.549,0.457c0,0.183,0,0.366,0.092,0.458c0.274,0.549,0.641,1.007,1.19,1.373
				c0.915-0.642,1.464-1.465,1.83-2.38c0.092-0.092,0.092-0.366,0-0.458C285.706,424.625,285.065,424.168,284.241,424.076z
				 M289.824,507.178C289.733,507.27,289.733,507.27,289.824,507.178c0.274,0.641,0.732,1.19,1.281,1.557
				c2.929,2.288,6.132,4.026,9.702,5.125c2.471,0.732,4.942,1.281,7.504,1.647c1.19,0.183,2.38,0.366,3.569,0.274
				c0.184,0,0.366,0,0.458,0c-1.831-0.274-3.661-0.458-5.491-0.732c-3.57-0.549-6.956-1.556-10.25-3.111
				c-2.38-1.19-4.576-2.562-6.499-4.484C290.007,507.361,289.916,507.27,289.824,507.178z M366.978,452.905h0.091
				c-0.183-0.549-0.365-1.189-0.549-1.738c-0.457-1.373-1.281-2.472-2.288-3.387c-0.915-0.732-1.922-1.007-3.111-1.007
				c-0.274,0-0.458,0-0.823,0.183C363.5,448.055,365.696,449.977,366.978,452.905z M298.885,437.987
				c-0.183-0.915-0.366-1.739-0.549-2.562c-0.458-2.654,0.458-5.034,2.288-6.956c1.281-1.372,2.746-2.379,4.393-3.203
				c0.091,0,0.183-0.092,0.274-0.183c-0.274,0-0.641,0.091-0.915,0.183c-1.099,0.366-2.014,0.915-2.929,1.647
				c-0.641,0.458-1.19,1.099-1.647,1.83c-0.824,1.282-1.373,2.746-1.831,4.302c-0.274,0.824-0.458,1.647-0.366,2.562
				c0,0.274,0,0.458,0.183,0.641c0.092,0.092,0.092,0.184,0.183,0.275C298.244,437.072,298.61,437.438,298.885,437.987z
				 M318.653,399.731C318.562,399.731,318.562,399.731,318.653,399.731c-0.091,0-0.183,0.091-0.183,0.091
				c-1.099,1.373-2.562,1.922-4.302,1.465c-0.549-0.092-1.099-0.183-1.647,0c-0.274,0.092-0.366,0.183-0.183,0.366
				c0.092,0.183,0.183,0.366,0.274,0.457c0.092,0,0.092,0,0.184,0c0.091,0,0.183-0.091,0.273-0.183
				c0.642-0.458,1.282-0.274,1.647,0.458c0,0.091,0.092,0.183,0.092,0.274c0.732-0.092,1.465-0.092,2.105-0.366
				C318.013,401.836,318.653,401.104,318.653,399.731z M331.192,386.186c-0.274,1.099-0.458,2.288-0.274,3.387
				c0.183,1.373,0.641,2.654,1.464,3.752c0.824,1.189,2.014,2.013,3.387,2.562c0.091,0,0.274,0.091,0.366,0.091
				C332.748,393.599,330.918,390.396,331.192,386.186z M330.644,428.743c0,0.366,0.091,0.642,0.091,1.007
				c0,0.275,0.092,0.55,0.274,0.824c0.366,0.457,0.732,0.823,1.282,1.007c0.091,0.091,0.274,0.091,0.457,0.091
				c1.007-0.091,1.922-0.274,2.837-0.731c0.274-0.184,0.55-0.366,0.732-0.641c0.641-1.099,1.007-2.196,1.281-3.387
				c0-0.183,0-0.366,0-0.549c-0.091,0.183-0.183,0.366-0.183,0.457c-0.274,0.732-0.458,1.465-0.732,2.197
				c-0.184,0.549-0.549,1.007-0.915,1.372c-0.458,0.55-1.099,0.824-1.831,0.641c-1.189-0.274-2.196-0.915-2.471-2.288l-0.092-0.091
				C331.009,428.743,330.918,428.743,330.644,428.743z M328.446,428.743c-0.549,0.275-0.731,0.732-0.641,1.282
				c0.274,1.556,1.099,2.837,2.654,3.386c0.549,0.183,1.099,0.274,1.647,0.366c1.007,0.184,2.014-0.092,2.929-0.458
				c-0.183,0-0.274,0-0.457,0c-1.373,0.092-2.746-0.183-3.936-0.731c-0.366-0.184-0.641-0.366-1.007-0.458
				c-0.366-0.183-0.732-0.366-1.007-0.732c-0.092-0.183-0.274-0.457-0.184-0.549c0.092-0.458,0-0.823,0-1.281
				C328.355,429.385,328.446,429.109,328.446,428.743z M289.092,434.235c1.281-0.092,3.294-1.007,4.576-2.105
				c1.282-1.189,2.563-3.295,2.563-4.302c-0.183,0.275-0.366,0.55-0.549,0.732c-0.641,0.824-1.19,1.647-1.83,2.471
				c-0.549,0.732-1.282,1.282-2.105,1.739C290.831,433.229,290.007,433.686,289.092,434.235z M350.961,455.834
				c-0.183-1.007-0.274-2.104-0.366-3.111c-0.092-0.915,0-1.739,0.274-2.654c0-0.092,0.092-0.274,0-0.366
				c-0.274-0.366-0.183-0.732,0-1.098c0.092-0.184,0.275-0.458,0.458-0.642c0,0-0.092,0-0.092-0.091
				c-0.091,0.091-0.274,0.274-0.366,0.366c-0.641,0.915-1.098,1.83-1.098,2.929c0,1.464,0.274,2.837,0.915,4.21
				C350.778,455.56,350.869,455.651,350.961,455.834z M350.961,415.29c1.83,3.295,2.654,6.864,3.021,10.616
				c0.092-1.098,0.092-2.196-0.092-3.295c-0.183-1.464-0.641-2.929-1.099-4.301c-0.183-0.55-0.457-1.099-0.731-1.647
				C351.785,416.113,351.419,415.656,350.961,415.29z M352.7,424.076c-0.092,3.569-0.274,7.047-1.556,10.434
				C352.975,431.215,353.433,427.737,352.7,424.076z M351.876,406.046c0.092,0.092,0.184,0.184,0.274,0.274
				c0.824,0.732,1.557,1.465,2.288,2.288c0.916,1.007,1.557,2.197,2.197,3.295c0.274,0.366,0.457,0.732,0.731,1.099
				c0-0.274-0.091-0.549-0.183-0.732c-0.732-1.281-1.464-2.562-2.288-3.844c-0.366-0.641-0.823-1.189-1.281-1.739
				c-0.366-0.457-0.732-0.823-1.189-1.189C352.242,405.68,352.06,405.863,351.876,406.046z M352.791,451.441
				c0.824-1.557,2.197-2.472,3.661-3.203c-0.091-0.366-0.091-0.641-0.183-1.007c-0.184,0.183-0.458,0.274-0.641,0.366
				c-0.366,0.274-0.641,0.641-1.007,0.823c-0.549,0.274-0.915,0.823-1.373,1.281C352.975,450.251,352.791,450.801,352.791,451.441z
				 M333.938,381.701c-1.464,1.19-2.104,4.851-1.098,6.498C332.84,385.911,333.114,383.806,333.938,381.701z M326.433,492.809
				c0,0.367,0.275,0.458,0.55,0.458c0.915,0.092,1.83,0.184,2.745,0.184c1.19,0.091,2.472,0.183,3.661,0.183
				c-0.092,0-0.183-0.092-0.366-0.092c-0.823-0.183-1.738-0.457-2.562-0.641c-0.549-0.092-1.099-0.183-1.647-0.183
				c-0.274,0-0.549,0-0.732,0.091c-0.274,0.092-0.457,0.092-0.64-0.091c-0.184-0.092-0.275-0.184-0.55-0.092
				C326.799,492.809,326.616,492.809,326.433,492.809z M359.473,434.876c-0.641,1.647-1.281,3.203-1.922,4.851
				s-1.556,3.111-2.472,4.667c0.366,0,0.642-0.091,0.732-0.457c0.824-1.647,1.647-3.295,2.38-4.942
				C358.832,437.713,359.106,436.248,359.473,434.876z M330.003,475.694C330.003,475.694,329.911,475.694,330.003,475.694
				c-0.458,0.366-0.916,0.823-1.465,1.19c-0.732,0.641-1.464,1.189-2.105,1.83c-0.64,0.641-1.28,1.281-2.013,2.014
				c-0.366,0.365-0.824,0.732-1.281,1.189c0.091,0,0.183,0,0.183-0.092c0.732-0.549,1.464-1.098,2.196-1.647
				c0.092-0.091,0.184-0.091,0.184-0.183c-0.092-0.549,0.366-0.641,0.731-0.732c0.184-0.091,0.458-0.183,0.55-0.274
				c0.915-0.915,1.83-1.922,2.654-2.837C329.728,475.969,329.911,475.878,330.003,475.694z M364.323,462.424
				c0.641-0.274,0.823-0.366,1.007-0.732c1.099-1.83,1.464-3.752,1.373-5.857c0-0.183-0.092-0.457-0.092-0.641
				c-0.183,1.007-0.274,2.014-0.366,2.929c-0.183,1.465-0.732,2.837-1.647,3.936C364.506,462.24,364.506,462.24,364.323,462.424z
				 M271.428,420.232c0.275-0.641,0.549-1.373,0.916-2.014s0.732-1.373,1.098-2.014s0.824-1.189,1.281-1.83
				c-1.098,0.915-2.105,1.922-2.746,3.203c0,0,0,0,0,0.092C271.611,418.493,271.428,419.316,271.428,420.232z M327.531,401.836
				c-0.091,1.739-0.457,3.387-1.281,4.942c1.007-1.281,1.647-2.746,2.105-4.302C328.08,402.294,327.806,402.02,327.531,401.836z
				 M301.539,401.562c-0.732,1.83,0.732,6.864,2.197,8.146C302.363,407.236,301.448,404.582,301.539,401.562z M290.74,431.947
				C290.74,431.947,290.648,431.947,290.74,431.947c-1.831,0.366-3.569,0.731-5.4,1.098c0.366,0,0.732,0.092,1.098,0.092
				c1.281,0,2.471-0.274,3.661-0.732C290.374,432.313,290.557,432.13,290.74,431.947z M282.869,423.161
				c1.373-0.275,2.654,0.183,3.752,1.007c0-0.184,0-0.275,0-0.458c-0.366-0.824-1.19-1.281-2.105-1.189
				C283.967,422.703,283.418,422.795,282.869,423.161z M323.962,388.749c-1.373-2.197-3.295-3.569-5.674-4.485
				C320.393,385.454,322.314,386.918,323.962,388.749z M273.991,439.727c-0.458-0.092-0.824-0.184-1.281-0.184
				c-1.282-0.091-2.472-0.091-3.753-0.183c-0.915,0-1.739,0.092-2.562,0.366c-0.549,0.183-1.098,0.366-1.647,0.641
				c1.464-0.458,3.021-0.824,4.576-0.824C270.879,439.543,272.435,439.635,273.991,439.727z M275.821,435.882
				c1.19,1.373,2.654,2.472,3.844,2.746c0.091-0.183,0.183-0.274,0.274-0.458c-0.732-0.365-1.464-0.641-2.197-1.006
				C277.103,436.798,276.554,436.34,275.821,435.882z M309.227,431.489c-0.365-0.549-0.915-0.823-1.556-1.007
				c-1.098-0.274-2.105,0.092-3.111,0.458c-0.183,0.091-0.366,0.183-0.549,0.274c0.091,0,0.183,0,0.274,0
				c0.641-0.366,1.281-0.458,2.014-0.366c0.275,0,0.549,0.092,0.824,0.183C307.945,431.031,308.586,431.215,309.227,431.489z
				 M322.681,438.628c1.556,1.83,3.752,2.654,6.04,3.203c-1.098-0.457-2.104-0.915-3.111-1.464
				C324.603,439.817,323.688,439.177,322.681,438.628z M328.172,395.338c0-0.824-1.281-4.21-2.014-5.125
				C326.433,391.219,327.623,394.423,328.172,395.338z M355.171,465.261c2.929,0.641,5.857,0,7.139-0.823
				C359.93,465.17,357.642,465.627,355.171,465.261z M328.172,399.731c0-0.274,0-0.55-0.092-0.915c0-0.275-0.091-0.642-0.183-0.916
				s-0.183-0.549-0.183-0.823c0,0.731,0,1.372-0.092,2.014c0,0.641-0.092,1.281-0.183,2.014c0.091,0,0.091,0,0.183,0
				c0-0.275,0-0.458,0.092-0.732C327.806,400.188,327.989,400.006,328.172,399.731z M334.304,417.578
				c-1.189-1.099-2.562-0.915-3.936-0.732C331.649,417.12,333.022,417.395,334.304,417.578z M341.076,394.24v0.092
				c0.275,0,0.55-0.092,0.824-0.092c0.549,0,0.915-0.275,1.099-0.732c0.183-0.366,0.365-0.641,0.365-1.006
				C342.815,393.325,341.992,393.874,341.076,394.24z M341.26,498.301C341.168,498.301,341.168,498.301,341.26,498.301
				c-0.732,0.641-1.281,1.464-1.739,2.288c0.274-0.092,0.55-0.092,0.824-0.184C340.619,499.765,340.894,499.032,341.26,498.301z
				 M344.371,393.233c0.824-0.274,1.19-2.196,0.641-2.929C344.737,391.311,344.555,392.318,344.371,393.233z M320.026,421.788
				c-1.189,1.373-2.104,3.752-1.922,5.125c0.274-0.915,0.458-1.83,0.732-2.654C319.203,423.436,319.66,422.611,320.026,421.788z
				 M336.775,379.596c-0.55,0.183-0.824,0.275-1.007,0.641c-0.366,0.732-0.732,1.556-1.189,2.288c0,0.092,0,0.183-0.092,0.274
				C335.311,381.701,335.859,380.603,336.775,379.596z M275.456,404.49v-0.092c-1.556,0.184-2.929,0.732-4.302,1.465
				C272.618,405.405,274.083,404.948,275.456,404.49z M329.179,443.57c2.105,0.823,4.394,1.189,6.681,1.189
				C333.572,444.485,331.375,444.119,329.179,443.57z M338.788,446.682c0,1.831,0,3.936,0,6.041
				C339.063,450.617,338.972,448.604,338.788,446.682z M335.859,394.606c-0.915-1.19-1.83-2.38-2.653-3.478
				C333.755,392.501,334.579,393.599,335.859,394.606z M338.88,420.415c-0.457-0.915-1.922-2.196-2.562-2.38
				c0.274,0.275,0.458,0.641,0.732,0.916C337.599,419.5,338.239,419.866,338.88,420.415z M336.867,420.964
				c-0.367-1.189-1.19-2.013-2.38-2.013C335.494,419.5,336.317,420.141,336.867,420.964z M358.466,445.309c0.274,0,0.549,0,0.823,0
				c0.275,0,0.55,0,0.824,0s0.457,0,0.732,0c-0.824-0.365-1.647-0.549-2.288-0.457c0,0.092-0.092,0.092-0.092,0.183
				C358.466,445.034,358.466,445.126,358.466,445.309z M360.662,436.798c-0.457,1.281-0.915,2.562-1.373,3.844h0.092
				C359.93,439.452,360.479,438.17,360.662,436.798z M304.56,397.626c0.732-0.915,1.464-1.831,2.196-2.746
				C305.841,395.521,304.925,396.619,304.56,397.626z M355.629,384.081c-0.275-1.098-1.647-3.02-2.562-3.569
				C354.073,381.61,354.805,382.799,355.629,384.081z M349.68,415.656c-0.274-0.824-0.732-1.465-1.281-2.105
				c-0.092-0.092-0.184-0.092-0.274-0.092c0,0,0,0,0,0.092C348.582,414.191,349.131,414.924,349.68,415.656z M311.698,423.984
				c0.549,0.549,1.372,0.732,2.104,0.824C313.162,424.442,312.521,424.168,311.698,423.984z M277.377,441.1
				c0.366,0.274,0.732,0.549,1.19,0.731c0.091,0.092,0.274,0.092,0.366-0.091C278.567,441.282,278.201,441.1,277.377,441.1z
				 M266.853,455.102c-0.092,0.458-0.275,0.732-0.641,0.824c0.275,0.458,0.275,0.549,0.732,0.458
				C266.944,456.018,266.944,455.56,266.853,455.102z M347.117,410.256C347.025,410.256,347.025,410.256,347.117,410.256
				c0.366,0.641,0.732,1.19,1.465,1.281C348.124,411.08,347.574,410.622,347.117,410.256z M275.364,463.522
				c0.549-0.366,1.007-0.916,1.19-1.465C276.004,462.332,275.638,462.79,275.364,463.522z M285.248,431.672
				c-0.732-0.183-1.373-0.365-2.105-0.549C283.784,431.489,284.516,431.672,285.248,431.672z M365.238,464.529
				c-0.641,0.365-1.189,0.823-1.83,1.189c0,0,0,0.092,0.092,0.092C364.141,465.444,364.781,465.078,365.238,464.529z
				 M354.622,457.573c-0.458-0.274-0.915-0.641-1.373-0.915c-0.092,0-0.092-0.092-0.183-0.092
				C353.433,457.023,353.981,457.391,354.622,457.573z M334.121,389.847c0.274,1.007,0.549,1.556,1.007,1.83
				C334.762,391.037,334.396,390.487,334.121,389.847z M345.012,441.648c-0.457,0.183-1.098,0.457-1.189,0.549c0,0,0,0.092,0,0.274
				C344.28,442.197,344.646,442.015,345.012,441.648z M281.953,410.806c0.641,0,1.282-0.092,1.922-0.092
				C283.235,410.714,282.594,410.439,281.953,410.806z M339.43,443.57c0,0.092,0,0.092,0,0.183c0.365,0,0.641-0.091,1.006-0.091
				c0.092,0,0.184-0.184,0.092-0.275C340.161,443.479,339.795,443.479,339.43,443.57z M347.117,441.008
				C347.209,441.008,347.209,441.1,347.117,441.008c0.457-0.184,0.732-0.458,1.098-0.732
				C347.758,440.275,347.392,440.642,347.117,441.008z M268.5,423.252c0.092,0,0.092,0,0.183,0
				c-0.091-0.549-0.091-1.098-0.183-1.647l0,0C268.5,422.154,268.5,422.703,268.5,423.252z M353.707,446.315
				c0.641-0.183,0.731-0.274,0.823-0.64C354.164,445.767,353.89,445.949,353.707,446.315z M264.93,409.158
				c0.274-0.274,0.732-0.641,1.19-1.099l0,0C265.571,408.518,265.205,408.884,264.93,409.158z M269.781,427.737
				c0,0.457,0,0.915,0.092,1.098c0,0,0.091,0,0.274,0C269.964,428.469,269.873,428.104,269.781,427.737z M303.827,431.581
				c-0.366,0.183-0.732,0.549-0.915,1.007C303.278,432.222,303.553,431.855,303.827,431.581z M344.28,376.667
				c0-0.091,0-0.091,0-0.183c-0.366,0-0.641,0-1.007-0.091v0.091C343.64,376.576,344.006,376.667,344.28,376.667z M286.164,420.507
				c-0.275-0.274-0.641-0.458-1.007-0.458C285.523,420.232,285.797,420.415,286.164,420.507z M279.757,422.062
				c-0.183,0.274-0.458,0.458-0.458,0.823C279.666,422.795,279.757,422.521,279.757,422.062z M282.96,421.33
				C282.96,421.422,283.052,421.422,282.96,421.33c0.183,0.092,0.275,0,0.458,0c0.091,0,0.183,0,0.274-0.091v-0.092
				C283.509,421.239,283.235,421.33,282.96,421.33z M268.866,451.532c0.091-0.091,0.183-0.091,0.274-0.183
				c0.092-0.092,0.183-0.092,0.275-0.183C269.049,451.075,268.957,451.35,268.866,451.532z M344.921,394.148
				C344.921,394.148,344.921,394.24,344.921,394.148c0.183,0,0.366-0.184,0.457-0.274l0,0
				C345.195,393.965,345.012,394.057,344.921,394.148z M331.467,473.681c-0.274,0.092-0.366,0.274-0.458,0.641
				C331.192,474.047,331.375,473.864,331.467,473.681z M278.384,425.998h-0.091c0,0.183,0,0.458,0,0.641h0.091
				C278.384,426.456,278.384,426.181,278.384,425.998z M285.706,405.955C285.706,405.955,285.614,405.955,285.706,405.955
				c0,0.183,0,0.365,0.091,0.549h0.091C285.797,406.229,285.797,406.138,285.706,405.955z M356.178,458.854
				C356.178,458.854,356.178,458.763,356.178,458.854c-0.092,0-0.274,0-0.366,0l0,0
				C355.903,458.854,355.995,458.854,356.178,458.854z M330.094,475.42C330.094,475.42,330.186,475.42,330.094,475.42
				c0.184,0,0.184-0.092,0.274-0.274c0,0,0,0-0.091,0C330.277,475.237,330.186,475.328,330.094,475.42z M330.826,474.688
				C330.734,474.597,330.734,474.597,330.826,474.688c-0.183,0.092-0.183,0.184-0.274,0.274c0,0,0,0,0.092,0
				C330.644,474.871,330.734,474.779,330.826,474.688z M263.923,410.439L263.923,410.439c-0.091,0-0.183,0.092-0.274,0.183
				c0,0,0,0,0.092,0C263.832,410.622,263.832,410.531,263.923,410.439z M264.473,409.799
				C264.473,409.799,264.381,409.799,264.473,409.799c-0.092,0-0.183,0.091-0.274,0.183c0,0,0,0,0.091,0
				S264.381,409.89,264.473,409.799z"/>
		</g>
	</g>
	<g>
		<g>
			<path fill="#003140" d="M283.326,403.483c0.092-1.373,0.366-2.654,0.732-3.844c0.366-1.373,0.641-2.654,1.006-4.027
				c0.641-2.196,1.647-4.301,2.929-6.223c1.098-1.739,2.654-3.021,4.301-4.302c4.027-2.928,8.512-4.759,13.454-5.583
				c1.83-0.275,3.753-0.458,5.583-0.366c0.915,0.091,1.83,0.274,2.746,0.366c2.196,0.366,4.301,1.006,6.223,2.105
				c2.38,1.373,4.484,3.02,6.132,5.216c0.732,1.007,1.465,1.922,2.105,3.021c0.915,1.647,1.556,3.295,1.739,5.217
				c0.091,0.641,0.091,1.189,0.091,1.83c0,0.55,0,1.099-0.091,1.647c-0.092,0.55,0.183,1.007,0.457,1.373
				c2.197,2.38,4.76,4.027,7.963,4.576c1.281,0.184,2.654,0.458,3.936,0.274c3.844-0.457,6.681-2.288,8.054-6.04
				c1.099-2.929,1.556-5.858,1.464-8.969c-0.091-2.562-0.823-4.759-2.562-6.773c-1.738-2.013-4.026-2.929-6.681-2.837
				c-1.099,0-2.196,0.366-3.203,0.915s-1.647,1.373-2.014,2.471s-0.549,2.288-0.549,3.478c0,0.366,0.091,0.823,0.183,1.189
				c0.274,1.099,1.281,1.647,2.288,1.647c0.092,0,0.183-0.091,0.366-0.091c-0.092-0.092-0.092-0.275-0.184-0.366
				c-0.274-0.549-0.183-1.007,0.275-1.373c0.641-0.458,1.281-0.732,1.83-1.281c0.274-0.274,0.732-0.458,1.189-0.458
				c1.557,0,2.837,0.458,3.845,1.739c0.549,0.732,0.823,1.556,1.098,2.38c0.183,0.458,0.092,1.006-0.092,1.464
				c-0.274,1.098-0.823,1.922-1.738,2.654c-0.184,0.092-0.366,0.275-0.458,0.458c-1.556,1.464-3.295,2.197-5.491,2.105
				c-0.366,0-0.823,0.092-1.189,0.092c-2.014,0.274-3.844-0.275-5.491-1.374c-2.105-1.373-3.295-3.386-3.569-5.857
				c-0.366-2.563,0.183-4.942,1.281-7.23c0.457-0.915,1.007-1.831,1.556-2.654c0.915-1.373,2.104-2.379,3.569-3.02
				c1.464-0.732,3.111-1.281,4.667-1.647c1.647-0.366,3.295-0.366,5.034,0c2.929,0.549,5.399,1.831,7.688,3.752
				c1.099,0.915,2.014,2.013,2.654,3.295c0.184,0.274,0.274,0.549,0.458,0.824c0.915,1.464,1.464,3.02,1.922,4.576
				c0.457,1.831,0.366,3.661,0,5.492c-0.183,0.824-0.274,1.647-0.458,2.379c-0.549,2.745-1.647,5.125-3.478,7.23
				c-0.092,0.183-0.274,0.274-0.366,0.457c0.092,0.092,0.092,0.092,0.184,0.184c1.098,0.732,1.83,1.738,2.471,2.929
				c0.915,1.647,1.739,3.478,2.471,5.217c0.274,0.549,0.458,1.099,0.732,1.738c1.373,3.021,1.922,6.133,1.922,9.427
				c0,0.366,0,0.732,0,1.099c-0.183,3.021-0.092,6.132-0.092,9.152c0,1.464-0.183,2.837-0.457,4.302
				c-0.274,1.556-0.915,3.111-1.739,4.484c-0.366,0.641-0.641,1.281-1.007,1.922c0.732,0.183,1.465,0.274,2.197,0.458
				c2.196,0.641,4.118,1.646,5.856,3.02c0.732,0.641,1.282,1.282,1.739,2.105c0.641,1.281,1.281,2.471,1.556,3.936
				c0.55,3.203,0,6.132-1.738,8.786c-0.55,0.915-1.189,1.738-1.922,2.562c-1.831,1.83-4.119,2.837-6.682,3.295
				c-0.457,0.092-0.915,0.183-1.373,0.366c-0.915,0.365-1.922,0.549-2.928,0.641c-2.014,0.091-3.753-0.366-5.4-1.465
				c-1.83-1.098-3.295-2.562-4.394-4.393c-1.098-1.739-2.013-3.661-2.745-5.675c-0.092-0.274-0.183-0.549-0.274-0.732
				c-1.007-2.013-1.557-4.21-1.922-6.406c-0.184-1.556-0.274-3.203-0.366-4.759c0-0.184,0-0.366,0-0.641
				c-0.366,0.091-0.549,0.183-0.824,0.274c0,0.091,0,0.274,0,0.366c0.092,1.464,0.184,2.929,0.275,4.302
				c0.091,2.196-0.275,4.393-0.916,6.589c-0.641,2.197-1.281,4.484-1.922,6.682c-0.365,1.281-0.549,2.562-0.915,3.752
				c-0.641,2.746-1.738,5.4-3.295,7.779c-1.556,2.38-3.478,4.576-5.766,6.315c-0.274,0.183-0.366,0.458-0.366,0.732
				c0,1.556-0.092,3.111,0,4.667c0.092,1.281,0.092,2.654,0.458,3.936c0,0.183,0.091,0.274,0.183,0.55
				c0.366-0.184,0.732-0.092,1.007,0.091c1.281,0.641,2.654,1.007,4.027,1.281c4.026,1.007,7.962,2.196,11.715,4.027
				c0.274,0.183,0.641,0.274,0.915,0.366c1.83,0.641,3.569,1.373,5.217,2.288c2.929,1.464,5.399,3.478,7.688,5.766
				c1.099,1.189,2.196,2.38,3.295,3.569c1.556,1.647,2.746,3.478,3.752,5.491c0.092,0.274,0.275,0.549,0.458,0.824
				c0.184,0.457,0.184,0.823-0.092,1.189c-0.274,0.366-0.732,0.457-1.189,0.274c-0.183-0.092-0.274-0.092-0.458,0
				c-0.457,0.183-0.823,0.092-1.189-0.274c-0.274-0.366-0.366-0.732-0.092-1.189c0-0.092,0.092-0.092,0.092-0.184
				c-0.092-0.092-0.184-0.183-0.274-0.274c-1.831-2.104-3.569-4.118-5.4-6.224c-2.288-2.562-4.759-4.851-7.413-6.864
				c-1.556-1.281-3.203-2.471-5.033-3.386c-0.824-0.458-1.739-0.641-2.562-0.916c0.091,0.275,0.274,0.641,0.274,0.916
				c0,0.274-0.092,0.641-0.184,1.007c0.458,0.274,0.366,0.731,0.092,1.098c-0.092,0.183-0.183,0.274-0.274,0.458
				c-0.55,0.915-1.099,1.83-1.647,2.745c-1.83,3.295-4.302,5.949-7.23,8.237c-3.295,2.562-6.955,4.393-10.8,5.766
				c-3.203,1.19-6.589,1.831-9.976,2.105c-1.83,0.092-3.569,0.183-5.399,0.092c-4.485-0.275-8.787-1.19-12.813-3.204
				c-3.203-1.556-5.857-3.752-8.146-6.498c-1.373-1.647-2.562-3.386-3.752-5.217c-0.458-0.641-0.824-1.281-1.464-1.647
				c-0.091,0-0.183-0.183-0.183-0.274c-0.183-0.366,0-0.915,0.366-1.189s0.916-0.274,1.281,0.092
				c0.092,0.091,0.092,0.183,0.183,0.274c0.183,0.549,0.275,1.007,0.366,1.556c0.183,0.732,0.641,1.281,1.007,1.831
				c0.091-0.092,0.091-0.184,0.183-0.275c0.458-0.732,1.373-0.641,1.831,0.092c0.274,0.458,0.549,0.915,0.823,1.464
				c1.373,2.472,3.295,4.394,5.583,5.858c3.112,2.013,6.498,3.478,10.067,4.393c2.654,0.641,5.309,0.823,7.962,0.549
				c0.092,0,0.184,0,0.275-0.183c-0.275,0-0.458,0-0.732,0c-2.929-0.092-5.857-0.55-8.694-1.281
				c-2.929-0.824-5.766-2.014-8.329-3.845c-3.112-2.196-5.674-4.941-7.597-8.236c-0.549-0.915-1.189-1.739-1.831-2.471
				c-0.274-0.275-0.274-0.55-0.183-0.824c0.183-0.549,0.732-0.823,1.281-0.641c0.183,0.092,0.274,0.092,0.458,0.183
				c0.183-0.091,0.366-0.183,0.549-0.274c0.549-0.183,1.098,0.184,1.189,0.824c0.092,0.641,0.275,1.281,0.641,1.922
				c0.916,1.647,2.014,3.203,3.295,4.576c2.38,2.288,5.125,3.936,8.146,5.125c2.654,1.099,5.491,1.83,8.328,2.288
				c2.929,0.458,5.858,0.732,8.878,0.732c1.647,0,3.203-0.184,4.76-0.458c0.365-0.092,0.731-0.183,1.006-0.366
				c2.929-1.189,5.492-2.837,8.055-4.667c1.281-0.916,2.471-1.831,3.66-2.929c1.557-1.465,2.929-3.112,4.21-4.851
				c0.458-0.732,0.916-1.465,1.373-2.197c0.458-0.731,1.007-1.372,1.465-2.014c0.274-0.365,0.641-0.549,1.098-0.549
				c-0.183-0.092-0.274-0.092-0.366-0.183c-2.196-0.55-4.393-1.189-6.589-1.647c-1.281-0.274-2.654-0.458-3.936-0.458
				c-1.19,0-2.38-0.092-3.478-0.183c-0.275,0-0.642-0.092-0.916-0.184c-0.549-0.183-0.823-0.549-0.915-1.189
				c0-0.184,0-0.366,0-0.549c0-3.203,0.092-6.315,0.092-9.519c0-0.092,0-0.184,0-0.458c-0.183,0.092-0.366,0.184-0.458,0.274
				c-0.915,0.641-1.83,1.19-2.745,1.831c-2.38,1.465-4.942,2.196-7.688,2.471c-0.274,0-0.457,0.092-0.731,0.184
				c-2.288,0.823-4.668,0.915-7.048,0.731c-1.647-0.183-3.294-0.365-4.851-0.823c-2.379-0.732-4.851-1.465-7.139-2.654
				c-1.098-0.549-2.196-1.189-3.295-1.738c-0.183-0.092-0.274-0.184-0.549-0.275c0.091,0.458,0.183,0.915,0.274,1.282
				c0,0.091,0.092,0.183,0.092,0.183c0.549,0.274,0.549,0.732,0.458,1.098c-0.183,2.38,0.091,4.76,0,7.23c0,0.366,0,0.732,0,1.099
				c0.091,1.007,0.183,2.014,0.274,3.021c0,0.091,0,0.183,0.092,0.274c0.183,0.549,0,1.007-0.549,1.281
				c-0.458,0.183-1.098,0-1.281-0.458c-0.183-0.457-0.458-0.457-0.824-0.457c-0.824,0-1.556,0.183-2.288,0.549
				c-0.549,0.274-1.007,0.549-1.556,0.732c-2.288,0.915-4.484,1.83-6.772,2.837c-2.105,1.007-4.21,2.014-6.041,3.386
				c-0.641,0.55-1.464,1.008-2.196,1.465c-0.549,0.366-1.19,0.823-1.739,1.281c-1.098,0.824-2.196,1.739-3.294,2.654
				c-0.366,0.274-0.732,0.641-1.099,1.007c-0.091,0.092-0.183,0.274-0.183,0.366c-0.183,0.457-0.732,0.915-1.19,0.915
				c-0.366,0-0.641-0.092-0.824-0.366s-0.183-0.549,0-0.915c0.092-0.184,0.183-0.274,0.274-0.458
				c0.092-0.183,0.366-0.366,0.549-0.366c0.732,0,1.19-0.549,1.739-0.823c0-0.092,0-0.092,0-0.092
				c-0.549-0.641-0.549-1.098,0.092-1.738c2.013-1.739,4.118-3.295,6.406-4.668c1.464-0.915,2.929-1.922,4.485-2.837
				c3.294-1.922,6.772-3.479,10.434-4.484c0.915-0.275,1.739-0.55,2.562-0.916c1.007-0.366,1.556-1.189,1.739-2.288
				c0-0.183,0-0.366,0-0.549c-0.091-1.922-0.091-3.844-0.183-5.857c0-0.092,0-0.274,0-0.366c-0.366-0.092-0.458-0.183-0.549-0.549
				c0-0.274,0.091-0.549,0.183-0.732c0.183-0.274,0.183-0.457,0-0.641c-0.091,0-0.274,0-0.366,0c-0.458,0-0.824-0.274-0.916-0.732
				c-0.091-0.183-0.091-0.457,0.183-0.549c0.092,0,0.183-0.183,0.183-0.183c0.091-0.184,0.183-0.275,0.275-0.458
				c-0.184-0.092-0.275-0.183-0.458-0.274c-1.922-1.373-3.478-3.021-4.667-5.126c-2.197-3.752-3.661-7.779-4.393-11.989
				c-0.366-2.196-0.641-4.393-0.824-6.589c-0.274-3.112-0.091-6.224-0.183-9.336c0-1.007-0.091-1.922-0.183-2.929
				c-0.549-0.092-0.732-0.457-1.006-0.823c-1.19-1.373-2.654-2.288-4.485-2.288c-2.562,0-5.034,0.092-7.505,0.732
				c-3.569,1.007-5.491,3.386-6.132,6.955c-0.183,0.824,0,1.556,0.183,2.38c0.458,2.471,1.647,4.668,3.478,6.498
				c0.916,0.915,1.922,1.556,3.204,1.739c0.183,0,0.366,0.091,0.549,0.091c1.922,0,3.752-0.274,5.491-1.098
				c0.824-0.366,1.373-0.915,1.739-1.739c0.091-0.274,0.183-0.549,0.183-0.915c0-0.824-0.183-1.647-0.641-2.38
				c-0.366-0.732-0.916-1.281-1.739-1.372c-0.732-0.092-1.464,0-2.196,0.457c-0.549,0.366-0.916,0.823-0.916,1.556
				c0,0.55,0,1.19,0,1.739c0,0.092,0,0.274,0,0.366c-0.091,0.457-0.366,0.732-0.824,0.549c-0.183-0.092-0.366-0.183-0.549-0.274
				c-0.092,0.092-0.092,0.183-0.183,0.274c-0.183,0.274-0.458,0.458-0.824,0.458s-0.549-0.184-0.732-0.458
				c-0.549-0.641-0.64-1.556-0.823-2.288c-0.092-0.366-0.092-0.641-0.183-1.007c0-0.274-0.092-0.549-0.183-0.732
				c-0.366-0.823-0.274-1.556,0.183-2.288c0.549-1.007,1.373-1.646,2.379-2.104c1.281-0.549,2.562-0.915,3.936-0.823
				c0.274,0,0.549,0,0.824-0.092c1.281-0.274,2.471,0.092,3.386,0.915c0.824,0.732,1.464,1.647,1.922,2.746
				c0.549,1.098,0.732,2.287,0.916,3.478c0.183,1.373,0.091,2.745,0,4.21c-0.275,2.746-1.831,4.576-4.21,5.674
				c-1.098,0.458-2.196,0.732-3.294,1.007c-1.19,0.274-2.471,0.366-3.661,0.366c-1.556,0-2.929-0.366-4.21-1.098
				c-2.196-1.373-4.119-3.021-5.583-5.126c-1.098-1.647-1.739-3.478-1.922-5.399c-0.366-2.837,0.183-5.583,1.282-8.237
				c0.64-1.556,1.373-3.02,2.379-4.393c1.464-2.105,3.294-3.753,5.674-4.76c0.091,0,0.091-0.091,0.183-0.091
				c-0.183-0.184-0.458-0.366-0.641-0.55c-1.464-1.189-2.38-2.653-2.929-4.393c-0.641-2.014-1.19-3.936-1.556-6.04
				c-0.183-1.19-0.274-2.472-0.183-3.661c0-0.824-0.091-1.647-0.091-2.472c-0.091-1.464,0-2.929,0.458-4.393
				c0.275-0.915,0.641-1.831,1.007-2.654c1.831-3.936,4.667-6.864,8.603-8.786c1.647-0.732,3.386-1.189,5.217-1.373
				c1.647-0.183,3.203-0.274,4.851-0.091c0.732,0.091,1.464,0.183,2.197,0.274C282.137,403.575,282.686,403.483,283.326,403.483z
				 M352.975,433.229c0.183-0.184,0.274-0.458,0.183-0.824C353.157,432.679,353.066,432.953,352.975,433.229
				c-0.092,0.183-0.184,0.365-0.274,0.549h0.091C352.791,433.594,352.883,433.411,352.975,433.229z M260.629,423.71
				c0,0.183,0,0.366,0,0.549c0,0,0,0,0.091,0C260.629,424.076,260.629,423.893,260.629,423.71c0-0.366-0.092-0.824-0.092-1.189
				c0,0.365,0,0.641,0,0.915C260.537,423.527,260.629,423.618,260.629,423.71z M262.642,412.27
				c-0.091,0.092-0.183,0.184-0.274,0.274c-0.641,1.007-1.007,2.014-1.464,3.112c0,0.091,0,0.183-0.092,0.366
				c0.092-0.184,0.092-0.184,0.184-0.275c0.549-1.098,1.006-2.104,1.556-3.203C262.642,412.453,262.642,412.361,262.642,412.27
				c0.183-0.092,0.275-0.274,0.183-0.457C262.825,411.903,262.734,412.087,262.642,412.27z M321.766,411.629
				c-0.092,0-0.184,0.092-0.274,0.092c-1.007,0.641-2.014,1.189-3.203,1.556c-0.092,0-0.184,0.092-0.184,0.092
				c1.007,0,1.922-0.458,2.746-1.007c0.274-0.184,0.457-0.366,0.731-0.458C321.674,411.812,321.674,411.721,321.766,411.629
				s0.183-0.092,0.366-0.183c0,0,0-0.092-0.092-0.092C322.04,411.446,321.948,411.537,321.766,411.629z M281.313,441.465
				c-0.092,0.641-0.183,1.19-0.183,1.739c0,3.478,0,6.864,0,10.342c0,1.922,0.183,3.845,0.458,5.675
				c0.366,1.83,0.732,3.661,1.373,5.399c0.732,2.105,1.647,4.118,2.654,6.132c0.366,0.732,0.732,1.465,1.19,2.105
				c1.83,2.562,3.569,5.125,5.949,7.321c0.458,0.366,0.915,0.732,1.373,1.099c2.014,1.281,4.21,2.196,6.406,2.929
				c1.739,0.549,3.569,0.915,5.4,0.915c0.916,0,1.739-0.092,2.654-0.092c2.38-0.183,4.668-0.641,6.956-1.556
				c2.014-0.732,3.844-1.83,5.766-2.837c2.014-1.099,3.936-2.472,5.767-3.936c1.372-1.099,2.562-2.288,3.569-3.661
				c1.189-1.556,2.104-3.294,2.837-5.125c1.099-2.562,1.739-5.217,2.014-7.871c0.274-2.196,0.457-4.393,0.641-6.589
				c0.183-1.831,0.274-3.57,0.457-5.4c0.092-0.732,0.092-1.373,0.184-2.105c-0.275,0-0.458,0-0.641,0
				c-1.281-0.091-2.654-0.183-3.936-0.365c-2.654-0.366-5.034-1.281-7.414-2.472c-1.646-0.823-3.203-1.83-4.575-3.111
				c-1.647-1.557-2.929-3.387-3.661-5.583c-0.274-0.732-0.366-1.556-0.458-2.288c-0.091-0.458-0.091-1.007-0.365-1.373
				c-0.55-1.098-1.282-2.104-2.288-2.837c-0.916-0.732-1.831-1.373-2.838-1.83c-0.641-0.274-1.281-0.55-2.014-0.458
				c-1.556,0.184-3.111,0.549-4.484,1.373c-0.915,0.549-1.647,1.189-2.471,1.83c-1.099,0.915-1.831,2.105-2.288,3.479
				c-0.275,0.823-0.458,1.647-0.366,2.562c0.091,0.641,0.183,1.189,0.274,1.83c0.366,1.373,1.007,2.562,2.197,3.478
				c0.732,0.549,1.556,0.916,2.562,0.824c0.915-0.092,1.739-0.275,2.654-0.366c0.184,0,0.274-0.092,0.366-0.184
				c0.458-0.549,1.007-1.006,1.465-1.647c0.731-1.098,0.641-2.287,0.091-3.386c-0.641-1.099-1.647-1.556-2.837-1.647
				c-1.281,0-2.196,1.373-1.739,2.38c0.274,0.183,0.641,0.274,0.732,0.457c0.275,0.458,0.549,0.824,1.099,0.824
				c0.091,0,0.274,0.274,0.274,0.457c0,0.184-0.092,0.366-0.274,0.458c-0.092,0-0.183,0.092-0.275,0.092
				c-0.274,0-0.458,0.091-0.732,0.274c-0.366,0.274-0.732,0.274-1.19,0.091c-0.183-0.091-0.366-0.183-0.549-0.274
				c-0.824-0.366-1.464-0.915-1.556-1.83c-0.091-0.641-0.183-1.281-0.366-1.922c-0.274-1.281,0.183-2.38,1.007-3.295
				c0.916-1.007,2.105-1.464,3.386-1.647c1.739-0.274,3.204,0.184,4.21,1.647c1.189,1.647,2.014,3.387,2.196,5.399
				c0.092,0.641,0,1.19,0.092,1.831c0.091,1.281-0.092,2.471-0.55,3.66c-0.365,1.099-1.098,1.923-2.104,2.472
				c-1.189,0.641-2.472,1.007-3.844,0.915c-1.098-0.091-2.196-0.183-3.203-0.366c-2.288-0.457-4.21-1.556-5.583-3.478
				c-0.458-0.641-0.824-1.373-0.915-2.105c-0.091-0.274-0.091-0.549-0.183-0.915c-0.091,0.092-0.183,0.184-0.274,0.184
				c-0.916,0.731-1.922,1.372-3.021,1.83c-2.196,0.824-4.484,1.373-6.864,1.281c-0.183,0-0.458,0.092-0.641,0.092
				c-0.275,0.091-0.549,0.183-0.824-0.092c-0.092-0.092-0.275-0.183-0.458-0.183C283.143,441.648,282.319,441.557,281.313,441.465z
				 M316,425.083c0.274-0.55,0.457-1.007,0.731-1.465c0.641-1.007,1.465-1.83,2.288-2.654c0.274-0.274,0.641-0.549,0.824-0.915
				c0.641-0.823,1.464-1.556,2.288-2.196c1.922-1.464,4.026-2.288,6.314-2.562c1.831-0.184,3.569,0,5.4,0.366
				c1.738,0.366,3.295,1.098,4.484,2.471c1.099,1.373,2.014,2.837,2.562,4.484s0.824,3.387,0.366,5.034
				c-0.549,2.288-1.83,4.21-3.752,5.583c-0.275,0.183-0.458,0.365-0.732,0.457c-0.732,0.275-1.373,0.641-2.105,0.824
				c-1.189,0.366-2.379,0.457-3.569,0.183c-2.104-0.457-3.478-1.556-4.21-3.661c-0.458-1.464-0.274-2.837,0.915-3.935
				c0.092,0,0.092-0.092,0.184-0.184c0.274-0.641,0.823-0.823,1.464-0.732c0.092,0,0.184,0,0.274,0
				c0.184,0.092,0.458,0.092,0.641,0.184c0.184,0.183,0.366,0.274,0.732,0.183c0.458-0.092,0.824,0.184,0.915,0.732
				c0,0.274,0.092,0.549,0.092,0.824c0,0.915,0.549,1.464,1.373,1.738c0.641,0.274,1.007,0.184,1.464-0.366
				c0.275-0.366,0.458-0.732,0.732-1.098c0.732-1.557,0.915-3.204,1.007-4.851c0-0.184,0-0.275-0.092-0.458
				c-0.549-1.189-1.189-2.196-2.196-3.111c-0.184-0.184-0.458-0.366-0.732-0.458c-1.647-0.641-3.386-0.915-5.125-0.549
				c-3.021,0.731-5.217,2.471-6.132,5.582c-0.366,1.282-0.549,2.563-0.641,3.845c-0.184,3.02,0.915,5.491,3.295,7.413
				c1.556,1.281,3.386,2.104,5.399,2.562c1.281,0.274,2.562,0.457,3.936,0.641c1.007,0.092,1.922,0.183,2.929,0.183
				c0.458-0.732,0.732-0.823,1.281-0.183c0.092,0,0.183,0,0.366,0c1.189-0.184,2.288-0.549,3.387-1.099
				c2.288-1.007,3.936-2.654,4.941-5.033c0.915-2.196,1.19-4.484,1.099-6.864c-0.092-1.739-0.549-3.478-1.189-5.125
				c-1.007-2.562-2.472-4.668-4.394-6.682c-1.007-1.007-2.196-1.83-3.478-2.471c-0.732-0.366-1.373-0.641-2.196-0.55
				c-0.184,0-0.275,0-0.458-0.091c-0.458-0.184-0.641-0.732-0.549-1.19c0.091-0.457,0.549-0.731,1.007-0.731
				c0.549,0.091,1.098,0.274,1.556,0.549c1.738,1.007,3.203,2.38,4.667,3.752c2.562,2.472,4.302,5.4,5.218,8.695
				c1.006,3.478,0.915,6.955-0.275,10.434c-0.823,2.288-2.288,4.118-4.393,5.399c-1.373,0.823-2.838,1.281-4.302,1.647
				c-0.274,0.092-0.458,0.092-0.732,0.183c0.092,0.458,0.184,0.915,0.274,1.373c0.641-0.091,1.281-0.183,1.831-0.274
				c0.091,0,0.274-0.092,0.365-0.092c0.184-0.183,0.367-0.183,0.642-0.092c0.091,0,0.183,0,0.274,0
				c1.647-0.457,3.295-1.006,4.576-2.196c1.372-1.189,2.379-2.562,2.929-4.393c0.731-2.472,1.373-4.942,1.464-7.505
				c0.092-1.647,0.274-3.203,0.092-4.851c-0.274-1.922-0.732-3.753-1.83-5.309c-0.458-0.732-0.915-1.464-1.465-2.104
				c-0.732-0.916-1.464-1.831-2.288-2.746c-0.366-0.366-0.732-0.732-1.189-1.098c-0.458-0.366-0.916-0.824-1.373-1.282
				c-1.189,0.092-2.471-0.091-3.661-0.274c-0.823-0.091-1.647-0.274-2.471-0.366c-1.831-0.274-3.479-0.823-4.942-2.104
				c-0.641-0.549-1.189-1.281-1.647-2.014c-0.183-0.274-0.366-0.458-0.641-0.458c0,0.092-0.092,0.092-0.092,0.184
				c-0.549,1.922-1.464,3.569-2.562,5.217c-2.837,4.118-6.864,6.132-11.806,6.224c-3.479,0-6.59-1.099-9.427-3.112
				c-2.654-1.83-4.393-4.393-5.125-7.596c-0.274-1.373-0.458-2.746-0.183-4.21c0.641-2.93,2.105-5.217,4.484-7.048
				c0.274-0.274,0.641-0.458,0.915-0.732c1.099-0.915,2.288-1.831,3.661-2.38c1.373-0.549,2.837-0.823,4.302-0.823
				c1.464-0.092,2.745,0.366,4.026,1.098c2.838,1.556,3.936,4.576,3.387,7.23c-0.183,1.007-0.458,1.922-0.732,2.837
				c-0.366,1.281-1.098,2.196-2.104,3.021c-0.824,0.549-1.647,1.007-2.654,0.915c-0.458-0.092-0.915-0.274-1.373-0.366
				s-0.915,0.092-1.465,0c-1.098-0.092-2.013-0.458-2.562-1.464c-0.366-0.732-0.366-1.099,0.184-1.739
				c0.183-0.183,0.183-0.366,0.092-0.549c-0.092-0.092-0.092-0.275-0.184-0.366c-0.183-0.184-0.092-0.366,0-0.55
				c0.184-0.366,0.55-0.641,1.007-0.549c0.183,0,0.274,0.092,0.458,0.092c0.365-0.458,0.732-0.732,1.372-0.458
				c0.184,0.458,0.366,0.732,0.641,0.824c0.641,0.183,1.282,0.366,1.923,0.183c1.006-0.274,1.738-0.915,2.196-1.922
				c0.183-0.366,0.183-0.641-0.092-0.915c-0.641-1.007-1.556-1.831-2.471-2.563c-0.641-0.549-1.373-0.64-2.197-0.366
				c-0.274,0.091-0.549,0.183-0.823,0.274c-1.373,0.641-2.562,1.556-3.569,2.746c-0.641,0.731-1.099,1.647-1.281,2.562
				c-0.092,0.641-0.184,1.189-0.274,1.83c-0.184,1.556,0.183,2.929,1.098,4.21c0.092,0.092,0.184,0.184,0.184,0.274
				c2.014,2.562,4.667,3.387,7.779,2.838c2.38-0.366,4.302-1.739,5.583-3.753c2.104-3.203,2.837-6.772,2.288-10.617
				c-0.366-2.288-1.465-4.21-3.204-5.674c-1.189-1.007-2.471-1.922-3.935-2.654c-0.55-0.274-1.19-0.549-1.739-0.823
				c-1.739-0.732-3.661-1.007-5.491-1.099c-1.373-0.091-2.746-0.091-4.119,0.183c-2.654,0.549-5.125,1.647-7.414,3.204
				c-2.379,1.556-4.21,3.661-5.399,6.223c-0.549,1.099-1.007,2.197-1.373,3.386c-0.732,2.014-0.915,4.21-0.641,6.315
				c0.274,1.83,0.641,3.661,1.373,5.399c0.274,0.55,0.183,1.007-0.275,1.373v0.092c0,0,0,0.092,0.092,0.092
				c0.183,0.091,0.274,0.183,0.458,0.274c1.831,1.007,3.295,2.471,4.302,4.301c0.183,0.366,0.366,0.732,0.549,1.099
				c0.732,2.196,0.915,4.394,0.549,6.681c-0.183,1.099-0.549,2.105-0.549,3.295c0,0.184-0.091,0.366-0.091,0.641
				c0,0.092,0,0.184,0,0.275c0,0,0.091,0,0.091,0.091c0-0.091,0.092-0.091,0.092-0.183c0.915-1.189,2.013-2.105,3.386-2.746
				c1.006-0.549,2.105-0.915,3.203-1.098c1.19-0.184,2.289-0.458,3.478-0.641c2.929-0.366,5.583,0.274,7.962,2.013
				C315.726,424.899,315.908,424.991,316,425.083z M359.655,452.723c0-0.366,0-0.641,0-0.915c0-0.275,0.184-0.458,0.366-0.458
				c0.275-0.092,0.458,0,0.549,0.183c0.366,0.366,0.458,0.824,0.366,1.282c-0.183,0.457-0.091,0.915-0.091,1.372
				c0,0.184,0,0.366,0.091,0.55c0.092,0.641-0.091,1.098-0.457,1.647c-0.366,0.549-0.824,1.007-1.373,1.28
				c-0.549,0.275-0.915,0.642-1.281,1.19c-0.732,0.915-1.739,1.189-2.929,0.823c-0.549-0.183-1.007-0.457-1.556-0.731
				c-0.184-0.092-0.366-0.184-0.458-0.275c-0.915-0.183-1.738-0.731-2.196-1.464c-0.366-0.458-0.641-1.007-0.915-1.464
				c-0.732-1.373-1.007-2.838-0.915-4.394c0.091-1.556,0.641-2.929,1.738-4.118c0.732-0.732,1.556-1.373,2.472-1.923
				c0.183-0.091,0.366-0.274,0.549-0.457c0.641-1.007,1.281-2.014,1.922-3.021c1.007-1.738,1.739-3.661,2.471-5.583
				c0.732-1.922,1.373-3.935,1.739-5.948c0.092-0.55,0.183-1.099,0.183-1.647c0-1.556-0.183-3.021-0.365-4.576
				c-0.275-2.014-0.732-3.936-1.373-5.857c-0.641-1.83-1.556-3.479-2.471-5.217c-0.916-1.831-2.197-3.569-3.479-5.217
				c-0.274-0.274-0.457-0.549-0.732-0.732c-0.274-0.274-0.365-0.274-0.641,0c-1.007,0.732-2.013,1.281-3.111,1.739
				c-0.092,0.092-0.274,0.092-0.458,0.183c0.184,0.184,0.366,0.274,0.458,0.366c2.654,2.014,4.668,4.576,6.132,7.597
				c0.366,0.823,0.732,1.738,1.007,2.654c0.458,1.738,0.732,3.569,0.824,5.308c0.091,1.19,0.091,2.38-0.092,3.661
				c-0.274,2.105-1.007,4.21-1.739,6.132c-1.007,2.562-2.654,4.668-4.851,6.407c-1.189,1.006-2.471,1.83-3.936,2.379
				c-0.183,0.092-0.274,0.092-0.457,0.184c0.091,0.457,0.183,0.915,0.183,1.372c0,0.824,0,1.739,0,2.563
				c-0.183,2.653,0,5.217,0.823,7.688c1.099,3.569,3.479,5.949,6.773,7.505c1.189,0.641,2.562,0.823,3.844,1.007
				c1.83,0.274,3.569,0.091,5.308-0.55c1.923-0.731,3.204-2.104,3.661-4.026c0.274-0.915,0.366-1.83,0.458-2.746
				c0.183-1.464,0.092-2.929-0.458-4.302c-0.366-1.006-1.007-1.83-2.014-2.471c-0.549-0.366-1.189-0.549-1.83-0.732
				c-1.007-0.183-2.014-0.365-3.021-0.183c-1.098,0.274-2.196,0.732-3.111,1.464c-1.007,0.824-1.647,1.831-1.922,3.112
				c-0.092,0.366,0,0.732,0.183,1.007c0.366,0.641,1.465,1.281,2.197,1.189c0.091,0,0.274-0.092,0.365-0.092
				c0.458-0.274,0.824-0.641,1.099-1.098c0.092-0.184,0.092-0.55,0.092-1.007c0-0.092,0-0.183,0.091-0.274
				c0.184-0.366,0.641-0.55,1.007-0.458s0.641,0.366,0.732,0.824c0,0.457-0.183,0.823-0.549,1.006
				c-0.274,0.092-0.458,0.275-0.641,0.55c-0.275,0.549-0.732,0.915-1.281,1.189c-0.184,0.092-0.458,0.184-0.732,0.366
				c0.732,0.092,1.281,0,1.83-0.274c0.458-0.184,0.824-0.549,1.007-1.19c0.184-0.549,0.366-1.098,0.549-1.738
				C359.198,453.181,359.381,452.814,359.655,452.723z M287.17,429.019c0.458,0,0.915,0.091,1.373,0.091
				c1.647-0.091,2.929-0.823,3.661-2.379c0.641-1.281,0.824-2.654,0.641-4.119c-0.275-2.104-1.19-3.844-2.654-5.308
				c-1.19-1.19-2.471-2.288-4.21-2.746c-0.916-0.183-1.831-0.366-2.746-0.457c-3.112-0.366-5.766,0.731-7.962,2.837
				c-1.099,1.098-1.922,2.288-2.471,3.752c-0.824,1.922-1.19,3.936-1.19,5.949c0,1.373,0.366,2.746,1.099,3.936
				c0.64,1.007,1.281,2.014,2.104,2.929c1.465,1.83,3.478,2.929,5.857,3.295c1.19,0.183,2.471,0.274,3.752,0.274
				c0.183,0,0.366,0,0.549,0.092c0.366,0.183,0.549,0.641,0.458,1.098c-0.091,0.458-0.458,0.824-0.915,0.732
				c-0.732-0.092-1.464-0.184-2.197-0.274c-0.183,0-0.366-0.092-0.549-0.092c0.091,0.274,0.183,0.549,0.183,0.824
				c0.092,0,0.275,0.091,0.366,0.091c0.732,0.184,1.464,0.092,2.197,0.092c0.274,0,0.549-0.092,0.824,0
				c0.274,0,0.641,0.092,0.915,0.092c2.562-0.274,5.125-0.916,7.505-1.831c0.274-0.091,0.549-0.274,0.824-0.457
				c0.183-0.092,0.366-0.274,0.549-0.274c0.366,0.091,0.549-0.092,0.915-0.275c0-0.365,0-0.641-0.092-1.007
				c-0.274-1.281-0.458-2.562-0.274-3.844c0.274-0.366,0.274-0.823,0.366-1.281c-0.183,0.184-0.274,0.274-0.366,0.458
				c-0.274,0.366-0.549,0.641-0.824,1.007c-2.379,2.562-5.308,3.569-8.786,2.929c-2.105-0.458-3.935-1.465-5.674-2.654
				c-1.373-1.007-2.379-2.471-2.837-4.118c-0.732-2.472-0.092-4.76,1.464-6.773c0.458-0.549,1.006-1.006,1.647-1.281
				c0.732-0.274,1.556-0.549,2.38-0.823c0.274-0.092,0.458-0.092,0.732-0.184c0.916-0.183,1.831,0,2.654,0.458
				c2.014,1.007,2.746,3.661,2.471,5.217c0,0.092-0.092,0.274-0.092,0.366c-0.091,0.274-0.091,0.458-0.183,0.732
				c-0.183,0.641-0.458,1.189-0.732,1.83C287.811,428.104,287.445,428.561,287.17,429.019z M272.71,437.072
				c-0.092-0.184-0.184-0.274-0.275-0.366c-1.281-1.465-2.197-3.203-2.837-5.034c-0.092-0.274-0.183-0.549-0.366-0.731
				c-1.098-1.831-1.831-3.844-2.105-5.949c-0.092-1.007-0.274-2.105-0.092-3.111c0.275-1.373,0.824-2.654,1.464-3.845
				c0.183-0.365,0.458-0.823,0.549-1.189c0.549-1.922,1.647-3.387,3.386-4.393c0.732-0.458,1.464-0.824,2.197-1.19
				c0.915-0.549,1.83-0.915,2.837-1.281c1.739-0.549,3.478-0.732,5.308-0.915c0.549-0.092,1.099-0.092,1.739-0.183
				c-0.275-0.55-0.549-1.099-0.641-1.739c-0.092-0.549-0.458-0.732-0.916-0.915c-1.373-0.366-2.746-0.55-4.21-0.55
				c-1.281,0-2.562,0.092-3.844,0.275c-0.641,0.091-1.19,0.183-1.739,0.365c-1.007,0.366-1.922,0.916-2.746,1.557
				c-1.465,1.098-2.929,2.379-4.21,3.66c-2.105,2.014-3.203,4.394-3.569,7.23c-0.366,2.654-0.549,5.309-0.549,8.054
				c0,0.275,0,0.55,0.091,0.732c0.274,1.373,0.732,2.746,1.19,4.027c0.732,1.922,2.013,3.569,3.294,5.217
				c0.092,0.183,0.275,0.183,0.458,0.183C268.957,437.072,270.788,437.072,272.71,437.072z M290.465,410.073
				c0-0.092,0-0.092,0-0.092c0-0.183-0.091-0.366-0.091-0.549c-0.641-2.562-0.915-5.125-0.549-7.779
				c0.366-2.38,0.916-4.668,1.922-6.864c1.007-2.105,2.197-4.027,3.936-5.583c2.654-2.471,5.766-4.119,9.335-5.034
				c1.19-0.275,2.379-0.458,3.661-0.458c1.189,0.091,2.472,0.183,3.661,0.366c2.288,0.275,4.484,1.099,6.406,2.288
				c1.099,0.732,2.105,1.464,3.112,2.288c0.549,0.458,1.007,0.916,1.464,1.464c1.556,2.014,2.288,4.302,2.288,6.772
				c0,2.38-0.457,4.76-1.373,6.956c-0.641,1.556-1.556,3.021-2.929,4.118c-2.196,1.831-4.576,2.746-7.505,2.38
				c-3.02-0.366-5.217-2.014-6.681-4.576c-0.366-0.641-0.641-1.373-0.732-2.104c-0.091-0.916,0-1.831,0.184-2.654
				c0.183-1.647,0.915-3.112,2.013-4.394c1.099-1.098,2.38-2.013,3.753-2.654c0.091-0.091,0.274-0.091,0.366-0.183
				c-0.184,0-0.184-0.092-0.275-0.092c-0.091,0-0.183,0-0.274,0c-0.915-0.183-1.83,0.092-2.562,0.549
				c-2.837,1.556-4.667,4.027-5.491,7.139c-0.274,1.007-0.458,2.104-0.274,3.203c0.366,1.922,1.098,3.569,2.471,5.033
				c1.373,1.465,3.02,2.472,5.034,2.746c1.373,0.183,2.654,0.092,4.027-0.092c1.098-0.183,2.196-0.366,3.203-0.915
				c0.823-0.458,1.738-1.007,2.562-1.647c0.823-0.641,1.556-1.464,2.38-2.288c1.556-1.556,2.379-3.478,2.837-5.583
				c0.091-0.457,0.183-0.915,0.183-1.373c0-2.288-0.092-4.484-0.549-6.681c-0.092-0.458-0.184-0.916-0.458-1.373
				c-2.653-4.027-6.224-6.864-10.708-8.603c-2.288-0.824-4.667-1.373-7.139-1.189c-0.549,0.091-1.189,0.091-1.739,0.091
				c-1.556,0.091-3.02,0.274-4.576,0.641c-4.484,1.098-8.054,3.569-11.074,6.956c-0.091,0.183-0.274,0.274-0.366,0.458
				c-1.282,1.831-2.197,3.844-2.654,5.949c-0.458,2.014-0.549,4.027-0.641,6.132c0,1.281,0.091,2.471,0.458,3.661
				c0.274,0.823,0.641,1.647,1.007,2.471c0.091,0.184,0.183,0.366,0.458,0.458C289.275,409.615,289.824,409.89,290.465,410.073z
				 M330.186,401.744c0.274,0.092,0.549,0.275,0.641,0.55c0.092,0.092,0.183,0.274,0.274,0.274c0.458,0.092,0.732,0.458,0.824,0.823
				c0.091,0.184,0.183,0.366,0.366,0.55c0.823,0.641,1.646,1.189,2.562,1.647c1.646,0.731,3.478,1.098,5.308,1.281
				c1.099,0.091,2.197,0.183,3.387,0c0.274-0.092,0.641-0.184,0.915-0.184c0.274-0.091,0.641-0.091,0.915-0.183
				c3.569-1.099,6.498-3.021,8.878-5.857c0.458-0.549,0.823-1.19,0.915-1.83c0.366-1.373,0.641-2.655,0.732-4.027
				c0.183-2.105,0.092-4.119-0.366-6.132c-0.549-2.379-1.739-4.484-3.387-6.315c-1.006-1.098-2.196-2.013-3.478-2.837
				c-0.732-0.458-1.464-0.732-2.288-0.916c-0.366-0.091-0.732-0.183-1.189-0.183c-0.549-0.091-1.189-0.183-1.739-0.091
				c-2.562,0.366-4.851,1.556-6.681,3.386c-0.732,0.732-1.19,1.647-1.465,2.654c-0.274,0.915-0.183,1.83-0.091,2.746
				c0.183,1.739,0.64,3.386,1.647,4.942c0.731,1.098,1.646,1.647,2.928,1.464c1.465-0.274,2.563-1.006,3.204-2.379
				c0.183-0.458,0.274-0.915,0.091-1.373c-0.183-0.549-0.457-0.641-0.915-0.366c-0.366,0.183-0.732,0.458-1.189,0.458
				c0.091,0.092,0.091,0.092,0.091,0.183c0.458,0.641,0.092,1.556-0.823,1.647c-0.457,0-0.823-0.091-1.189-0.183
				c-1.739-0.641-2.563-2.014-2.838-3.661c-0.183-1.556,0.092-3.02,0.458-4.393c0.458-1.647,1.464-2.746,3.021-3.386
				c1.738-0.732,3.66-1.007,5.583-0.549c1.007,0.274,2.013,0.458,2.837,1.098c3.021,2.014,4.667,4.942,4.942,8.603
				c0.183,2.654-0.092,5.217-0.732,7.779c-0.366,1.281-0.732,2.562-1.373,3.661c-1.281,2.288-3.111,3.936-5.674,4.759
				c-1.19,0.366-2.472,0.732-3.753,0.641c-0.641,0-1.281-0.091-1.922-0.183c-2.837-0.366-5.491-1.281-7.688-3.203
				c-0.55-0.458-1.099-0.916-1.557-1.465c-0.091-0.091-0.183-0.091-0.274-0.274C330.094,401.195,330.094,401.47,330.186,401.744z
				 M277.011,442.105C277.011,442.105,277.011,442.015,277.011,442.105c-0.092-0.183-0.274-0.365-0.458-0.365
				c-0.549-0.184-1.007-0.458-1.556-0.641c-1.464-0.458-2.929-0.458-4.484-0.55c-2.288-0.092-4.484,0.274-6.59,1.19
				c-3.112,1.372-3.844,2.013-5.491,5.125c-0.824,1.464-1.098,3.111-0.915,4.759c0.091,0.366,0.091,0.732,0.091,1.099
				c0.275,1.647,0.641,3.203,1.556,4.576c0.458,0.823,1.006,1.556,1.831,2.104c2.013,1.556,4.301,2.654,6.772,3.203
				c0.824,0.184,1.647,0.366,2.562,0.184c0.366-0.092,0.732-0.092,1.098-0.184c1.282-0.274,2.471-0.915,3.478-1.738
				c0.641-0.641,1.007-1.373,1.189-2.197c0.184-1.098,0-2.104-0.183-3.111c-0.183-1.281-0.824-2.196-1.922-2.837
				c-0.092-0.092-0.183-0.092-0.275-0.184c-0.915-0.457-1.831-0.823-2.837-0.641c-0.824,0.092-1.556,0.366-2.105,1.007
				c-0.732,0.824-1.007,1.831-1.007,3.021c0,0.183,0.091,0.366,0.091,0.458h0.092c0-0.458,0-0.916,0-1.282
				c0.091-1.189,0.824-2.013,1.922-2.471c0.549-0.184,1.189-0.366,1.831-0.274c0.732,0,1.373,0.274,1.922,0.732
				c0.458,0.366,0.824,0.823,1.007,1.372c0.366,0.732,0.549,1.465,0.641,2.288c0.091,0.732-0.092,1.373-0.458,1.923
				c-0.458,0.823-1.189,1.464-2.013,1.83c-1.373,0.641-2.837,1.007-4.393,1.098c-0.549,0.092-1.19,0.092-1.739,0
				c-1.647-0.091-3.02-0.915-4.21-2.013c-2.105-2.105-3.386-4.576-3.844-7.505c-0.092-0.824-0.183-1.557-0.092-2.38
				c0.824-3.936,3.112-6.59,7.139-7.597c2.379-0.641,4.759-0.731,7.139-0.731c0.915,0,1.739,0.091,2.562,0.457
				C276.096,441.831,276.554,441.923,277.011,442.105z M319.02,430.482c0,0.915,0.458,1.647,0.824,2.38
				c0.183,0.274,0.183,0.457,0,0.731c0,0.092-0.092,0.184-0.092,0.275c0.184,0.457,0.274,0.915,0.641,1.281
				c0.641,0.641,1.373,1.281,2.014,1.83c3.021,2.562,6.406,4.21,10.342,4.668c1.373,0.183,2.654,0.183,4.027,0.092
				c0.092,0,0.274-0.092,0.457-0.092c0-0.458,0-0.824,0-1.281c-0.183,0-0.274,0-0.365,0c-1.923-0.092-3.845-0.274-5.767-0.732
				c-2.288-0.458-4.484-1.281-6.315-2.746c-2.104-1.556-3.478-3.66-3.844-6.314c-0.274-2.014,0-4.027,0.458-5.949
				c0.366-1.281,0.915-2.471,1.739-3.478c1.006-1.281,2.379-2.105,3.844-2.746c0.183-0.091,0.366-0.183,0.549-0.274
				c-0.732,0-1.464,0.092-2.196,0.366c-1.922,0.823-3.478,2.105-4.576,3.844c-1.007,1.465-1.465,3.203-1.739,4.942
				c-0.091,0.549,0,0.915,0.366,1.281c0.092,0.092,0.092,0.183,0.184,0.274c0.274,0.458,0.183,0.915-0.184,1.281
				C319.203,430.391,319.111,430.391,319.02,430.482z M274.906,415.656C274.998,415.656,274.998,415.656,274.906,415.656
				c0.183,0,0.366-0.092,0.458-0.274c1.373-1.099,2.837-1.831,4.485-2.197c2.471-0.549,4.942-0.183,7.23,0.641
				c1.556,0.55,2.746,1.647,3.844,2.838c1.282,1.372,2.197,3.02,2.563,4.851c0.458,2.196,0.183,4.21-0.916,6.132
				c-0.091,0.092-0.091,0.183-0.091,0.274c0.549-0.458,0.915-0.915,1.098-1.556c0.366-1.19,0.549-2.38,0.732-3.661
				c0.183-1.739,0.183-3.478-0.366-5.125c-0.275-1.007-0.732-1.922-1.464-2.654c-0.915-0.823-1.831-1.556-2.929-2.104
				c-0.366-0.184-0.641-0.275-1.007-0.458c-0.091,0.092-0.091,0.183-0.091,0.183c-0.275,0.366-0.641,0.458-0.916,0
				c-0.274-0.366-0.458-0.549-0.915-0.549c-0.092,0-0.092,0-0.183-0.092c-0.366-0.274-0.732-0.274-1.19-0.274
				c-2.105-0.092-4.21,0.092-6.223,0.366c-0.183,0-0.458,0.092-0.641,0.274c-0.732,0.641-1.556,1.189-2.288,1.831
				C275.638,414.741,275.364,415.198,274.906,415.656z M311.424,440.642c-0.092,0.091-0.184,0.183-0.274,0.274
				c-0.458,0.274-0.824,0.641-1.282,0.915c-0.915,0.549-1.83,0.915-2.837,1.099c-1.098,0.183-2.105,0.457-3.203,0.366
				c-2.105-0.092-3.844-1.007-5.308-2.563c-0.366-0.365-0.732-0.823-1.007-1.189c-0.091-0.091-0.183-0.183-0.183-0.183
				s-0.091,0-0.091,0.092c0.183,0.365,0.274,0.823,0.458,1.189c0.915,1.373,2.013,2.471,3.569,3.111
				c1.647,0.641,3.478,0.915,5.217,0.915c0.915,0,1.739-0.183,2.562-0.549C310.508,443.387,311.24,442.197,311.424,440.642z
				 M338.972,501.412c-0.184,0.274-0.274,0.458-0.458,0.641c-1.281,1.922-2.745,3.661-4.484,5.217
				c-2.288,2.014-4.759,3.753-7.321,5.4c-0.184,0.091-0.366,0.183-0.458,0.274c0.183,0,0.366,0,0.549-0.092
				c1.922-0.732,3.845-1.739,5.583-2.837c0.732-0.458,1.465-1.099,2.105-1.647c1.556-1.465,2.929-3.203,4.21-4.942
				C338.972,502.877,339.338,502.235,338.972,501.412z M319.111,517.062L319.111,517.062c-0.092-0.092-0.183-0.092-0.183-0.092
				c-1.19,0.184-2.288,0.184-3.479,0.184c-0.091,0-0.274,0-0.366,0c-1.556,0.366-3.203,0.549-4.759,0.731
				c-2.746,0.275-5.491,0.092-8.237-0.641c-4.667-1.189-8.878-3.386-12.813-6.132c-0.183-0.091-0.366-0.274-0.641-0.457
				c0.092,0.091,0.092,0.183,0.092,0.183c0.091,0.092,0.183,0.184,0.274,0.274c1.464,1.465,3.204,2.654,5.034,3.661
				c4.302,2.288,8.969,3.295,13.82,3.478c3.02,0.092,6.04-0.091,9.061-0.731C317.556,517.429,318.288,517.245,319.111,517.062z
				 M272.161,463.979C272.161,463.979,272.161,463.888,272.161,463.979c-0.824-0.092-1.556-0.092-2.38-0.092
				c-0.091,0-0.183,0-0.274,0c-0.732,0-1.464,0-2.105-0.091c-2.014-0.274-3.844-0.915-5.4-2.197
				c-0.732-0.641-1.464-1.372-2.196-2.013c-0.458-0.458-0.824-0.915-1.282-1.281c0,0.183,0.092,0.457,0.275,0.549
				c0.641,0.823,1.19,1.739,1.922,2.562c1.831,2.196,4.302,3.386,7.139,3.661c0.275,0,0.458,0,0.732,0
				c1.098-0.184,2.196-0.458,3.294-0.915C271.886,464.071,271.978,464.071,272.161,463.979z M282.777,467.823
				C282.686,467.823,282.686,467.823,282.777,467.823c0,0.092,0,0.184,0,0.275c0.275,1.189,0.641,2.287,1.19,3.386
				c1.647,3.844,4.119,7.047,7.414,9.519c0.732,0.549,1.556,1.007,2.379,1.464c0.092,0.092,0.274,0.092,0.366,0.184
				c-0.458-0.55-1.007-1.099-1.556-1.465c-2.379-1.738-4.21-3.936-5.766-6.314c-1.373-2.197-2.654-4.394-3.752-6.682
				C282.869,468.099,282.777,467.915,282.777,467.823z M349.954,500.039L349.954,500.039c0,0.092,0,0.092,0,0.184
				c0.366,0.366,0.824,0.641,1.19,0.915c2.471,1.922,4.667,4.027,6.772,6.406c1.464,1.647,2.929,3.387,4.393,5.034
				c0.092,0.092,0.184,0.274,0.366,0.366c0-0.184,0-0.274-0.092-0.366c-0.915-1.922-2.104-3.661-3.569-5.217
				c-0.457-0.458-0.915-1.007-1.373-1.465c-2.104-2.196-4.484-4.118-7.139-5.582C350.32,500.131,350.138,500.131,349.954,500.039z
				 M291.014,494.365c-0.092,0.091-0.183,0.091-0.274,0.183c-0.458,0.458-0.916,0.732-1.556,1.007
				c-0.549,0.184-1.007,0.366-1.556,0.549c-2.38,0.641-4.668,1.465-6.864,2.472c-3.569,1.647-6.864,3.66-9.976,6.132
				c-0.091,0.092-0.274,0.184-0.366,0.366c0.732-0.366,1.464-0.824,2.104-1.373c2.105-1.556,4.393-2.654,6.681-3.661
				c0.916-0.366,1.831-0.731,2.654-1.098c1.007-0.458,2.105-0.915,3.112-1.281c0.641-0.275,1.281-0.55,1.922-0.916
				c0.732-0.365,1.464-0.641,2.38-0.641c0.183,0,0.274,0,0.458,0s0.274-0.091,0.274-0.274c0-0.091,0-0.183,0-0.274
				c0.274,0,0.458-0.092,0.732-0.092C290.831,495.006,290.922,494.731,291.014,494.365z M282.869,424.168
				c-0.549,0.183-1.007,0.274-1.556,0.457c-0.458,0.092-0.549,0.366-0.549,0.824c0,1.098,0.274,2.013,1.007,2.745
				c1.098,1.19,2.471,1.831,4.027,2.196c0.824,0.184,1.556,0.366,2.379,0.184c0.641-0.092,1.19-0.274,1.739-0.732
				c-0.366,0-0.732,0.092-1.099,0.184c-1.464,0.183-2.929-0.184-4.301-0.732c-0.915-0.366-1.647-1.007-2.197-1.922
				c-0.274-0.366-0.458-0.916-0.274-1.373c0.183-0.641,0.183-1.281,0.641-1.739C282.869,424.351,282.869,424.259,282.869,424.168z
				 M342.907,444.119c0,0.366-0.092,0.641-0.092,1.007c0,0.823,0,1.647,0,2.472c0,2.196,0.366,4.301,0.823,6.314
				c0.184,0.824,0.367,1.739,0.732,2.562c0.824,2.105,2.288,3.844,3.936,5.4c0.458,0.457,1.099,0.731,1.739,0.915
				c0-0.092-0.092-0.092-0.092-0.184c-0.641-0.457-1.281-0.915-1.83-1.464c-1.007-0.823-1.83-1.831-2.38-2.929
				c-1.189-2.196-1.83-4.576-2.014-7.047c-0.092-1.465,0-3.021,0-4.485c0-0.732,0-1.464,0-2.196c0-0.183-0.092-0.366-0.183-0.549
				C343.182,444.028,343.09,444.119,342.907,444.119z M336.409,431.672l0.091,0.092c0.275-0.183,0.642-0.366,0.916-0.641
				c1.007-0.915,1.647-1.922,1.922-3.203c0.092-0.549,0.183-1.007,0.274-1.556c0.366-1.831-0.092-3.387-1.281-4.851
				c-0.092-0.092-0.184-0.184-0.274-0.274c0.091,0.183,0.091,0.365,0.091,0.457c0.092,0.641,0.366,1.373,0.366,2.014
				c0,1.556,0,3.021-0.091,4.484c-0.092,1.281-0.641,2.38-1.739,3.112C336.592,431.397,336.5,431.581,336.409,431.672z
				 M322.681,481.003C322.681,481.003,322.681,480.911,322.681,481.003c-1.189,0.549-2.288,1.189-3.478,1.738
				c-1.099,0.55-2.288,1.099-3.478,1.557c-1.19,0.457-2.38,0.823-3.661,1.098c-1.19,0.184-2.472,0.366-3.661,0.549
				c0.823,0.092,1.647,0.184,2.38,0.092c1.281-0.092,2.562-0.366,3.844-0.549c0.732-0.092,1.464-0.274,2.104-0.641
				c1.373-0.823,2.838-1.739,4.21-2.562C321.582,481.918,322.132,481.461,322.681,481.003z M284.241,424.076
				c0.092,0.274,0.275,0.457,0.275,0.732c0.091,0.274,0,0.549-0.183,0.823s-0.366,0.092-0.641,0.184
				c-0.274,0-0.458,0.183-0.549,0.457c0,0.183,0,0.366,0.092,0.458c0.274,0.549,0.641,1.007,1.19,1.373
				c0.915-0.642,1.464-1.465,1.83-2.38c0.092-0.092,0.092-0.366,0-0.458C285.706,424.625,285.065,424.168,284.241,424.076z
				 M289.824,507.178C289.733,507.27,289.733,507.27,289.824,507.178c0.274,0.641,0.732,1.19,1.281,1.557
				c2.929,2.288,6.132,4.026,9.702,5.125c2.471,0.732,4.942,1.281,7.504,1.647c1.19,0.183,2.38,0.366,3.569,0.274
				c0.184,0,0.366,0,0.458,0c-1.831-0.274-3.661-0.458-5.491-0.732c-3.57-0.549-6.956-1.556-10.25-3.111
				c-2.38-1.19-4.576-2.562-6.499-4.484C290.007,507.361,289.916,507.27,289.824,507.178z M366.978,452.905h0.091
				c-0.183-0.549-0.365-1.189-0.549-1.738c-0.457-1.373-1.281-2.472-2.288-3.387c-0.915-0.732-1.922-1.007-3.111-1.007
				c-0.274,0-0.458,0-0.823,0.183C363.5,448.055,365.696,449.977,366.978,452.905z M298.885,437.987
				c-0.183-0.915-0.366-1.739-0.549-2.562c-0.458-2.654,0.458-5.034,2.288-6.956c1.281-1.372,2.746-2.379,4.393-3.203
				c0.091,0,0.183-0.092,0.274-0.183c-0.274,0-0.641,0.091-0.915,0.183c-1.099,0.366-2.014,0.915-2.929,1.647
				c-0.641,0.458-1.19,1.099-1.647,1.83c-0.824,1.282-1.373,2.746-1.831,4.302c-0.274,0.824-0.458,1.647-0.366,2.562
				c0,0.274,0,0.458,0.183,0.641c0.092,0.092,0.092,0.184,0.183,0.275C298.244,437.072,298.61,437.438,298.885,437.987z
				 M318.653,399.731C318.562,399.731,318.562,399.731,318.653,399.731c-0.091,0-0.183,0.091-0.183,0.091
				c-1.099,1.373-2.562,1.922-4.302,1.465c-0.549-0.092-1.099-0.183-1.647,0c-0.274,0.092-0.366,0.183-0.183,0.366
				c0.092,0.183,0.183,0.366,0.274,0.457c0.092,0,0.092,0,0.184,0c0.091,0,0.183-0.091,0.273-0.183
				c0.642-0.458,1.282-0.274,1.647,0.458c0,0.091,0.092,0.183,0.092,0.274c0.732-0.092,1.465-0.092,2.105-0.366
				C318.013,401.836,318.653,401.104,318.653,399.731z M331.192,386.186c-0.274,1.099-0.458,2.288-0.274,3.387
				c0.183,1.373,0.641,2.654,1.464,3.752c0.824,1.189,2.014,2.013,3.387,2.562c0.091,0,0.274,0.091,0.366,0.091
				C332.748,393.599,330.918,390.396,331.192,386.186z M330.644,428.743c0,0.366,0.091,0.642,0.091,1.007
				c0,0.275,0.092,0.55,0.274,0.824c0.366,0.457,0.732,0.823,1.282,1.007c0.091,0.091,0.274,0.091,0.457,0.091
				c1.007-0.091,1.922-0.274,2.837-0.731c0.274-0.184,0.55-0.366,0.732-0.641c0.641-1.099,1.007-2.196,1.281-3.387
				c0-0.183,0-0.366,0-0.549c-0.091,0.183-0.183,0.366-0.183,0.457c-0.274,0.732-0.458,1.465-0.732,2.197
				c-0.184,0.549-0.549,1.007-0.915,1.372c-0.458,0.55-1.099,0.824-1.831,0.641c-1.189-0.274-2.196-0.915-2.471-2.288l-0.092-0.091
				C331.009,428.743,330.918,428.743,330.644,428.743z M328.446,428.743c-0.549,0.275-0.731,0.732-0.641,1.282
				c0.274,1.556,1.099,2.837,2.654,3.386c0.549,0.183,1.099,0.274,1.647,0.366c1.007,0.184,2.014-0.092,2.929-0.458
				c-0.183,0-0.274,0-0.457,0c-1.373,0.092-2.746-0.183-3.936-0.731c-0.366-0.184-0.641-0.366-1.007-0.458
				c-0.366-0.183-0.732-0.366-1.007-0.732c-0.092-0.183-0.274-0.457-0.184-0.549c0.092-0.458,0-0.823,0-1.281
				C328.355,429.385,328.446,429.109,328.446,428.743z M289.092,434.235c1.281-0.092,3.294-1.007,4.576-2.105
				c1.282-1.189,2.563-3.295,2.563-4.302c-0.183,0.275-0.366,0.55-0.549,0.732c-0.641,0.824-1.19,1.647-1.83,2.471
				c-0.549,0.732-1.282,1.282-2.105,1.739C290.831,433.229,290.007,433.686,289.092,434.235z M350.961,455.834
				c-0.183-1.007-0.274-2.104-0.366-3.111c-0.092-0.915,0-1.739,0.274-2.654c0-0.092,0.092-0.274,0-0.366
				c-0.274-0.366-0.183-0.732,0-1.098c0.092-0.184,0.275-0.458,0.458-0.642c0,0-0.092,0-0.092-0.091
				c-0.091,0.091-0.274,0.274-0.366,0.366c-0.641,0.915-1.098,1.83-1.098,2.929c0,1.464,0.274,2.837,0.915,4.21
				C350.778,455.56,350.869,455.651,350.961,455.834z M350.961,415.29c1.83,3.295,2.654,6.864,3.021,10.616
				c0.092-1.098,0.092-2.196-0.092-3.295c-0.183-1.464-0.641-2.929-1.099-4.301c-0.183-0.55-0.457-1.099-0.731-1.647
				C351.785,416.113,351.419,415.656,350.961,415.29z M352.7,424.076c-0.092,3.569-0.274,7.047-1.556,10.434
				C352.975,431.215,353.433,427.737,352.7,424.076z M351.876,406.046c0.092,0.092,0.184,0.184,0.274,0.274
				c0.824,0.732,1.557,1.465,2.288,2.288c0.916,1.007,1.557,2.197,2.197,3.295c0.274,0.366,0.457,0.732,0.731,1.099
				c0-0.274-0.091-0.549-0.183-0.732c-0.732-1.281-1.464-2.562-2.288-3.844c-0.366-0.641-0.823-1.189-1.281-1.739
				c-0.366-0.457-0.732-0.823-1.189-1.189C352.242,405.68,352.06,405.863,351.876,406.046z M352.791,451.441
				c0.824-1.557,2.197-2.472,3.661-3.203c-0.091-0.366-0.091-0.641-0.183-1.007c-0.184,0.183-0.458,0.274-0.641,0.366
				c-0.366,0.274-0.641,0.641-1.007,0.823c-0.549,0.274-0.915,0.823-1.373,1.281C352.975,450.251,352.791,450.801,352.791,451.441z
				 M333.938,381.701c-1.464,1.19-2.104,4.851-1.098,6.498C332.84,385.911,333.114,383.806,333.938,381.701z M326.433,492.809
				c0,0.367,0.275,0.458,0.55,0.458c0.915,0.092,1.83,0.184,2.745,0.184c1.19,0.091,2.472,0.183,3.661,0.183
				c-0.092,0-0.183-0.092-0.366-0.092c-0.823-0.183-1.738-0.457-2.562-0.641c-0.549-0.092-1.099-0.183-1.647-0.183
				c-0.274,0-0.549,0-0.732,0.091c-0.274,0.092-0.457,0.092-0.64-0.091c-0.184-0.092-0.275-0.184-0.55-0.092
				C326.799,492.809,326.616,492.809,326.433,492.809z M359.473,434.876c-0.641,1.647-1.281,3.203-1.922,4.851
				s-1.556,3.111-2.472,4.667c0.366,0,0.642-0.091,0.732-0.457c0.824-1.647,1.647-3.295,2.38-4.942
				C358.832,437.713,359.106,436.248,359.473,434.876z M330.003,475.694C330.003,475.694,329.911,475.694,330.003,475.694
				c-0.458,0.366-0.916,0.823-1.465,1.19c-0.732,0.641-1.464,1.189-2.105,1.83c-0.64,0.641-1.28,1.281-2.013,2.014
				c-0.366,0.365-0.824,0.732-1.281,1.189c0.091,0,0.183,0,0.183-0.092c0.732-0.549,1.464-1.098,2.196-1.647
				c0.092-0.091,0.184-0.091,0.184-0.183c-0.092-0.549,0.366-0.641,0.731-0.732c0.184-0.091,0.458-0.183,0.55-0.274
				c0.915-0.915,1.83-1.922,2.654-2.837C329.728,475.969,329.911,475.878,330.003,475.694z M364.323,462.424
				c0.641-0.274,0.823-0.366,1.007-0.732c1.099-1.83,1.464-3.752,1.373-5.857c0-0.183-0.092-0.457-0.092-0.641
				c-0.183,1.007-0.274,2.014-0.366,2.929c-0.183,1.465-0.732,2.837-1.647,3.936C364.506,462.24,364.506,462.24,364.323,462.424z
				 M271.428,420.232c0.275-0.641,0.549-1.373,0.916-2.014s0.732-1.373,1.098-2.014s0.824-1.189,1.281-1.83
				c-1.098,0.915-2.105,1.922-2.746,3.203c0,0,0,0,0,0.092C271.611,418.493,271.428,419.316,271.428,420.232z M327.531,401.836
				c-0.091,1.739-0.457,3.387-1.281,4.942c1.007-1.281,1.647-2.746,2.105-4.302C328.08,402.294,327.806,402.02,327.531,401.836z
				 M301.539,401.562c-0.732,1.83,0.732,6.864,2.197,8.146C302.363,407.236,301.448,404.582,301.539,401.562z M290.74,431.947
				C290.74,431.947,290.648,431.947,290.74,431.947c-1.831,0.366-3.569,0.731-5.4,1.098c0.366,0,0.732,0.092,1.098,0.092
				c1.281,0,2.471-0.274,3.661-0.732C290.374,432.313,290.557,432.13,290.74,431.947z M282.869,423.161
				c1.373-0.275,2.654,0.183,3.752,1.007c0-0.184,0-0.275,0-0.458c-0.366-0.824-1.19-1.281-2.105-1.189
				C283.967,422.703,283.418,422.795,282.869,423.161z M323.962,388.749c-1.373-2.197-3.295-3.569-5.674-4.485
				C320.393,385.454,322.314,386.918,323.962,388.749z M273.991,439.727c-0.458-0.092-0.824-0.184-1.281-0.184
				c-1.282-0.091-2.472-0.091-3.753-0.183c-0.915,0-1.739,0.092-2.562,0.366c-0.549,0.183-1.098,0.366-1.647,0.641
				c1.464-0.458,3.021-0.824,4.576-0.824C270.879,439.543,272.435,439.635,273.991,439.727z M275.821,435.882
				c1.19,1.373,2.654,2.472,3.844,2.746c0.091-0.183,0.183-0.274,0.274-0.458c-0.732-0.365-1.464-0.641-2.197-1.006
				C277.103,436.798,276.554,436.34,275.821,435.882z M309.227,431.489c-0.365-0.549-0.915-0.823-1.556-1.007
				c-1.098-0.274-2.105,0.092-3.111,0.458c-0.183,0.091-0.366,0.183-0.549,0.274c0.091,0,0.183,0,0.274,0
				c0.641-0.366,1.281-0.458,2.014-0.366c0.275,0,0.549,0.092,0.824,0.183C307.945,431.031,308.586,431.215,309.227,431.489z
				 M322.681,438.628c1.556,1.83,3.752,2.654,6.04,3.203c-1.098-0.457-2.104-0.915-3.111-1.464
				C324.603,439.817,323.688,439.177,322.681,438.628z M328.172,395.338c0-0.824-1.281-4.21-2.014-5.125
				C326.433,391.219,327.623,394.423,328.172,395.338z M355.171,465.261c2.929,0.641,5.857,0,7.139-0.823
				C359.93,465.17,357.642,465.627,355.171,465.261z M328.172,399.731c0-0.274,0-0.55-0.092-0.915c0-0.275-0.091-0.642-0.183-0.916
				s-0.183-0.549-0.183-0.823c0,0.731,0,1.372-0.092,2.014c0,0.641-0.092,1.281-0.183,2.014c0.091,0,0.091,0,0.183,0
				c0-0.275,0-0.458,0.092-0.732C327.806,400.188,327.989,400.006,328.172,399.731z M334.304,417.578
				c-1.189-1.099-2.562-0.915-3.936-0.732C331.649,417.12,333.022,417.395,334.304,417.578z M341.076,394.24v0.092
				c0.275,0,0.55-0.092,0.824-0.092c0.549,0,0.915-0.275,1.099-0.732c0.183-0.366,0.365-0.641,0.365-1.006
				C342.815,393.325,341.992,393.874,341.076,394.24z M341.26,498.301C341.168,498.301,341.168,498.301,341.26,498.301
				c-0.732,0.641-1.281,1.464-1.739,2.288c0.274-0.092,0.55-0.092,0.824-0.184C340.619,499.765,340.894,499.032,341.26,498.301z
				 M344.371,393.233c0.824-0.274,1.19-2.196,0.641-2.929C344.737,391.311,344.555,392.318,344.371,393.233z M320.026,421.788
				c-1.189,1.373-2.104,3.752-1.922,5.125c0.274-0.915,0.458-1.83,0.732-2.654C319.203,423.436,319.66,422.611,320.026,421.788z
				 M336.775,379.596c-0.55,0.183-0.824,0.275-1.007,0.641c-0.366,0.732-0.732,1.556-1.189,2.288c0,0.092,0,0.183-0.092,0.274
				C335.311,381.701,335.859,380.603,336.775,379.596z M275.456,404.49v-0.092c-1.556,0.184-2.929,0.732-4.302,1.465
				C272.618,405.405,274.083,404.948,275.456,404.49z M329.179,443.57c2.105,0.823,4.394,1.189,6.681,1.189
				C333.572,444.485,331.375,444.119,329.179,443.57z M338.788,446.682c0,1.831,0,3.936,0,6.041
				C339.063,450.617,338.972,448.604,338.788,446.682z M335.859,394.606c-0.915-1.19-1.83-2.38-2.653-3.478
				C333.755,392.501,334.579,393.599,335.859,394.606z M338.88,420.415c-0.457-0.915-1.922-2.196-2.562-2.38
				c0.274,0.275,0.458,0.641,0.732,0.916C337.599,419.5,338.239,419.866,338.88,420.415z M336.867,420.964
				c-0.367-1.189-1.19-2.013-2.38-2.013C335.494,419.5,336.317,420.141,336.867,420.964z M358.466,445.309c0.274,0,0.549,0,0.823,0
				c0.275,0,0.55,0,0.824,0s0.457,0,0.732,0c-0.824-0.365-1.647-0.549-2.288-0.457c0,0.092-0.092,0.092-0.092,0.183
				C358.466,445.034,358.466,445.126,358.466,445.309z M360.662,436.798c-0.457,1.281-0.915,2.562-1.373,3.844h0.092
				C359.93,439.452,360.479,438.17,360.662,436.798z M304.56,397.626c0.732-0.915,1.464-1.831,2.196-2.746
				C305.841,395.521,304.925,396.619,304.56,397.626z M355.629,384.081c-0.275-1.098-1.647-3.02-2.562-3.569
				C354.073,381.61,354.805,382.799,355.629,384.081z M349.68,415.656c-0.274-0.824-0.732-1.465-1.281-2.105
				c-0.092-0.092-0.184-0.092-0.274-0.092c0,0,0,0,0,0.092C348.582,414.191,349.131,414.924,349.68,415.656z M311.698,423.984
				c0.549,0.549,1.372,0.732,2.104,0.824C313.162,424.442,312.521,424.168,311.698,423.984z M277.377,441.1
				c0.366,0.274,0.732,0.549,1.19,0.731c0.091,0.092,0.274,0.092,0.366-0.091C278.567,441.282,278.201,441.1,277.377,441.1z
				 M266.853,455.102c-0.092,0.458-0.275,0.732-0.641,0.824c0.275,0.458,0.275,0.549,0.732,0.458
				C266.944,456.018,266.944,455.56,266.853,455.102z M347.117,410.256C347.025,410.256,347.025,410.256,347.117,410.256
				c0.366,0.641,0.732,1.19,1.465,1.281C348.124,411.08,347.574,410.622,347.117,410.256z M275.364,463.522
				c0.549-0.366,1.007-0.916,1.19-1.465C276.004,462.332,275.638,462.79,275.364,463.522z M285.248,431.672
				c-0.732-0.183-1.373-0.365-2.105-0.549C283.784,431.489,284.516,431.672,285.248,431.672z M365.238,464.529
				c-0.641,0.365-1.189,0.823-1.83,1.189c0,0,0,0.092,0.092,0.092C364.141,465.444,364.781,465.078,365.238,464.529z
				 M354.622,457.573c-0.458-0.274-0.915-0.641-1.373-0.915c-0.092,0-0.092-0.092-0.183-0.092
				C353.433,457.023,353.981,457.391,354.622,457.573z M334.121,389.847c0.274,1.007,0.549,1.556,1.007,1.83
				C334.762,391.037,334.396,390.487,334.121,389.847z M345.012,441.648c-0.457,0.183-1.098,0.457-1.189,0.549c0,0,0,0.092,0,0.274
				C344.28,442.197,344.646,442.015,345.012,441.648z M281.953,410.806c0.641,0,1.282-0.092,1.922-0.092
				C283.235,410.714,282.594,410.439,281.953,410.806z M339.43,443.57c0,0.092,0,0.092,0,0.183c0.365,0,0.641-0.091,1.006-0.091
				c0.092,0,0.184-0.184,0.092-0.275C340.161,443.479,339.795,443.479,339.43,443.57z M347.117,441.008
				C347.209,441.008,347.209,441.1,347.117,441.008c0.457-0.184,0.732-0.458,1.098-0.732
				C347.758,440.275,347.392,440.642,347.117,441.008z M268.5,423.252c0.092,0,0.092,0,0.183,0
				c-0.091-0.549-0.091-1.098-0.183-1.647l0,0C268.5,422.154,268.5,422.703,268.5,423.252z M353.707,446.315
				c0.641-0.183,0.731-0.274,0.823-0.64C354.164,445.767,353.89,445.949,353.707,446.315z M264.93,409.158
				c0.274-0.274,0.732-0.641,1.19-1.099l0,0C265.571,408.518,265.205,408.884,264.93,409.158z M269.781,427.737
				c0,0.457,0,0.915,0.092,1.098c0,0,0.091,0,0.274,0C269.964,428.469,269.873,428.104,269.781,427.737z M303.827,431.581
				c-0.366,0.183-0.732,0.549-0.915,1.007C303.278,432.222,303.553,431.855,303.827,431.581z M344.28,376.667
				c0-0.091,0-0.091,0-0.183c-0.366,0-0.641,0-1.007-0.091v0.091C343.64,376.576,344.006,376.667,344.28,376.667z M286.164,420.507
				c-0.275-0.274-0.641-0.458-1.007-0.458C285.523,420.232,285.797,420.415,286.164,420.507z M279.757,422.062
				c-0.183,0.274-0.458,0.458-0.458,0.823C279.666,422.795,279.757,422.521,279.757,422.062z M282.96,421.33
				C282.96,421.422,283.052,421.422,282.96,421.33c0.183,0.092,0.275,0,0.458,0c0.091,0,0.183,0,0.274-0.091v-0.092
				C283.509,421.239,283.235,421.33,282.96,421.33z M268.866,451.532c0.091-0.091,0.183-0.091,0.274-0.183
				c0.092-0.092,0.183-0.092,0.275-0.183C269.049,451.075,268.957,451.35,268.866,451.532z M344.921,394.148
				C344.921,394.148,344.921,394.24,344.921,394.148c0.183,0,0.366-0.184,0.457-0.274l0,0
				C345.195,393.965,345.012,394.057,344.921,394.148z M331.467,473.681c-0.274,0.092-0.366,0.274-0.458,0.641
				C331.192,474.047,331.375,473.864,331.467,473.681z M278.384,425.998h-0.091c0,0.183,0,0.458,0,0.641h0.091
				C278.384,426.456,278.384,426.181,278.384,425.998z M285.706,405.955C285.706,405.955,285.614,405.955,285.706,405.955
				c0,0.183,0,0.365,0.091,0.549h0.091C285.797,406.229,285.797,406.138,285.706,405.955z M356.178,458.854
				C356.178,458.854,356.178,458.763,356.178,458.854c-0.092,0-0.274,0-0.366,0l0,0
				C355.903,458.854,355.995,458.854,356.178,458.854z M330.094,475.42C330.094,475.42,330.186,475.42,330.094,475.42
				c0.184,0,0.184-0.092,0.274-0.274c0,0,0,0-0.091,0C330.277,475.237,330.186,475.328,330.094,475.42z M330.826,474.688
				C330.734,474.597,330.734,474.597,330.826,474.688c-0.183,0.092-0.183,0.184-0.274,0.274c0,0,0,0,0.092,0
				C330.644,474.871,330.734,474.779,330.826,474.688z M263.923,410.439L263.923,410.439c-0.091,0-0.183,0.092-0.274,0.183
				c0,0,0,0,0.092,0C263.832,410.622,263.832,410.531,263.923,410.439z M264.473,409.799
				C264.473,409.799,264.381,409.799,264.473,409.799c-0.092,0-0.183,0.091-0.274,0.183c0,0,0,0,0.091,0
				S264.381,409.89,264.473,409.799z"/>
			<path fill="#003140" d="M307.671,458.763c-0.366,0.092-0.549,0.458-0.641,0.824c-0.457,1.738-0.915,3.569-1.556,5.216
				c-0.183,0.367-0.274,0.824-0.274,1.282c0.458,0.091,1.007,0.183,1.464,0.091c0.274,0,0.55-0.091,0.915-0.183
				c0.092,0,0.275-0.092,0.366-0.183c0.458-0.366,1.099-0.184,1.19,0.457c0.091,0.184,0.091,0.366,0.274,0.458
				c0.274,0.366,0.183,1.007-0.274,1.098c-1.007,0.366-2.105,0.732-3.295,0.458c-0.458-0.092-1.007-0.366-1.464-0.641
				s-0.641-0.641-0.549-1.189c0.092-1.007,0.458-2.014,0.915-2.929c0.641-1.373,1.099-2.838,1.373-4.302
				c0.092-0.366,0-0.732-0.274-1.007c-0.183-0.183-0.183-0.366-0.092-0.55c0.183-0.549,0.915-0.731,1.373-0.273
				c0.092,0.091,0.274,0.273,0.366,0.365C307.763,458.122,307.854,458.396,307.671,458.763z M306.938,467.183
				c-0.823-0.274-1.556,0-2.288-0.457c0,0.366,0,0.457,0.366,0.549C305.658,467.458,306.298,467.366,306.938,467.183z"/>
			<path fill="#003140" d="M298.793,451.167c-0.183,0.183-0.274,0.365-0.366,0.641c-0.274,0.549-0.549,0.731-1.189,0.64
				c-0.824-0.091-1.647-0.274-2.563-0.365c-0.274,0-0.458,0-0.732,0.091c-0.275,0.184-0.641,0.092-1.007,0
				c-0.183,0.184-0.366,0.366-0.549,0.458c-0.458,0.274-1.739,0-2.013-0.458c-0.275-0.365-0.366-0.823-0.092-1.189
				c0.092-0.183,0.275-0.274,0.549-0.274c0.915-0.184,1.831-0.092,2.654-0.458c0.274-0.092,0.458-0.092,0.732-0.183
				c1.647-0.092,3.386-0.092,5.034,0.183c0.366,0.092,0.641,0.184,1.007,0.274c0.274,0.184,0.458,0.367,0.366,0.642
				c-0.092,0.274-0.366,0.365-0.732,0.274C299.617,451.35,299.251,451.258,298.793,451.167z"/>
			<path fill="#003140" d="M317.738,450.525c0.274,0.367,0.641,0.367,1.007,0.184c0.458-0.184,0.824-0.366,1.281-0.458
				c0.915-0.274,1.739-0.274,2.654,0c0.366,0.092,0.824,0.184,1.189,0.274c0.092,0,0.275,0.092,0.366,0.092
				c0.366,0.275,0.824,0.458,1.19,0.732c0.091,0,0.183,0.092,0.183,0.183c0.184,0.184,0.274,0.366,0.184,0.641
				c-0.092,0.274-0.275,0.366-0.55,0.366s-0.549,0-0.823,0c-0.366,0-0.824-0.092-1.19,0.184c-0.091,0.092-0.365,0-0.457,0
				c-0.55-0.184-1.19-0.184-1.739-0.184c-0.823,0-1.556,0-2.38,0.092c-0.091,0-0.274,0-0.365,0c-0.184,0-0.458,0-0.642-0.092
				c-0.183,0-0.274-0.092-0.549-0.092c-0.366,0.092-0.641-0.365-0.457-0.731c0.183-0.274,0.365-0.549,0.549-0.823
				C317.372,450.709,317.646,450.617,317.738,450.525z"/>
			<path fill="#003140" d="M303.919,417.486c1.647,0.184,3.295,0.366,4.942,0.732c1.281,0.274,2.562,0.732,3.752,1.373
				c0.366,0.183,0.732,0.457,1.099,0.731c0.549,0.366,1.006,0.916,1.556,1.19c0.092,0,0.092,0.183,0.183,0.274
				c0.092,0.458-0.091,0.915-0.457,1.098c-0.366,0.184-0.915,0.184-1.19-0.183c-0.091-0.092-0.091-0.183-0.091-0.274
				c0-0.183,0-0.366,0-0.549c0-0.275-0.092-0.55-0.274-0.641c-0.367-0.275-0.732-0.55-1.099-0.824
				c-1.465-0.823-3.021-1.189-4.576-1.464c-0.824-0.184-1.647-0.275-2.471-0.275c-1.831-0.091-3.478,0.458-4.667,1.923
				c-0.366,0.457-1.099,0.457-1.464,0.091c-0.366-0.457-0.366-1.098,0.091-1.464c0.824-0.732,1.831-1.281,3.021-1.465
				C302.637,417.578,303.278,417.578,303.919,417.486z"/>
		</g>
		<path fill="#414042" d="M310.6,476.518c-1.647,0.092-3.295,0.275-4.942,0.184c-1.373-0.092-2.654-0.184-3.936-0.641
			c-0.458-0.183-0.824-0.366-1.19-0.549c-0.549-0.274-1.098-0.732-1.739-0.915c-0.091,0-0.183-0.092-0.183-0.184
			c-0.183-0.366-0.091-0.915,0.274-1.189c0.366-0.274,0.916-0.366,1.19-0.092c0.092,0.092,0.183,0.183,0.183,0.274
			c0.091,0.184,0.091,0.366,0.091,0.458c0,0.274,0.183,0.457,0.458,0.641c0.366,0.183,0.824,0.457,1.281,0.549
			c1.556,0.549,3.203,0.641,4.759,0.641c0.823,0,1.647,0,2.471-0.092c1.831-0.183,3.387-1.098,4.302-2.745
			c0.274-0.549,0.915-0.641,1.464-0.366c0.458,0.366,0.55,1.007,0.184,1.464c-0.732,0.916-1.647,1.557-2.654,2.014
			C311.881,476.152,311.24,476.335,310.6,476.518z"/>
	</g>
</g>
</svg>
