<?xml version="1.0" encoding="utf-8"?>
<!-- Generator: Adobe Illustrator 18.1.1, SVG Export Plug-In . SVG Version: 6.00 Build 0)  -->
<svg version="1.1" id="Layer_1" xmlns="http://www.w3.org/2000/svg" xmlns:xlink="http://www.w3.org/1999/xlink" x="0px" y="0px"
	 viewBox="0 0 190 190" enable-background="new 0 0 190 190" xml:space="preserve">
<g>
	<path fill-rule="evenodd" clip-rule="evenodd" fill="#F58144" d="M7.5,105.5c5,28.3,17.8,51.3,32.3,61.3
		c15.6,12.8,54.2,4.2,91-21.2c32.2-22.3,53.2-50.8,53.9-70.7c2.2-21.4-32.3-45.5-78.6-54.3c-47.5-9.1-88.3,6-93.5,23
		S3.3,81.6,7.5,105.5z"/>
	<g>
		<path fill-rule="evenodd" clip-rule="evenodd" fill="#F5F5F5" d="M182.9,101.6c-0.5-1.4-1-2.7-1.7-4c-1-2-2-4-2.7-6.1
			c-0.9-2.5-1.8-4.9-2.6-7.4c-1.6-4.5-3.1-9-4.7-13.4c-1-2.7-2.1-5.3-3.4-7.8c-0.1-0.3-0.2-0.6-0.3-0.9c-0.1-0.5-0.2-0.9-0.6-1.2
			c-0.6-0.3-0.9-0.8-1.2-1.3c-0.2-0.3-0.5-0.5-0.9-0.5c-0.2,0-0.5,0-0.7,0c-1.3,0.2-2.6,0.4-3.9,0.5c-2.9,0.2-5.8,0.5-8.7,0.6
			c-4.7,0.1-9.4,0.1-14.1,0.1c-4.5,0-9,0.2-13.6,0.1c-2-0.1-3.9-0.1-5.9-0.2c-6.3-0.1-12.5-0.3-18.8-0.4c-4.5-0.1-9-0.2-13.6,0.2
			c-1.6,0.1-3.3,0.3-4.9,0c-1-0.2-2.1-0.3-3.1-0.2c-0.7,0.1-0.8,0.1-1.1,0.7c-0.3,0.7-0.6,1.4-1.4,1.6c-0.3,0.1-0.6,0.5-0.9,0.7
			c-0.1,0.1-0.2,0.2-0.3,0.2c-0.8,0.2-1.1,0.8-1.3,1.5c-0.2,1.1-0.4,2.2-0.7,3.3c-0.2,0.9-0.5,1.7-0.8,2.6c-0.5,1.2-1.1,2.4-1.6,3.5
			c-1.4,3-2.7,6.1-4.2,9c-2.1,4.1-3.9,8.4-5.5,12.7c-0.6,1.8-1.3,3.5-2,5.3c-0.2,0.4-0.2,0.8,0.1,1.1c0.3,0.3,0.7,0.2,1.1,0.1
			c0,0,0.1,0,0.1,0c0.4,0.4,0.4,0.8,0.2,1.3c-0.1,0.2-0.2,0.5-0.2,0.7c-0.1,0.6,0.2,1.1,0.7,1.4c0.5,0.3,1.1,0.2,1.6-0.3
			c0.4-0.4,0.7-0.6,1.3-0.5c0.4,0.1,0.8,0.1,1.1,0.1c3,0.1,6,0.1,9,0.1c0.3,0,0.6,0,0.9,0c0,0.2,0,0.4,0,0.5c0,1.2-0.1,2.3-0.1,3.5
			c0,6,0,12,0,18c0,1.4,0.1,2.9,0.2,4.3c0.2,2.6,0.5,5.1,0.5,7.7c0.1,8.2,0.1,16.3,0.6,24.5c0,0.7-0.1,0.8-0.9,0.9
			c-2.8,0.1-5.6,0.4-8.4,0.4c-7.9,0.1-15.8,0.1-23.8,0c-1.7,0-3.5-0.2-5.2-0.4c-4.1-0.6-8.1-1.5-12-2.8c-2.9-0.9-5.7-2.1-8.3-3.9
			c-2-1.4-3.2-3.3-3.5-5.8c0-0.3,0-0.6,0.3-0.8c0.4-0.3,0.6-0.7,0.5-1.2c-0.1-0.7,0.2-1.1,0.7-1.5c1.5-1.3,3.3-2.4,5.2-3.2
			c2.3-1,4.6-1.9,7-2.6c1.4-0.4,2.8-0.9,4.2-1.3c2.4-0.8,4.7-1.9,6.8-3.4c1.7-1.2,3-2.7,4-4.4c1.5-2.6,2.3-5.4,3-8.4
			c0.6-2.9,1-5.7,1-8.7c0-1.7,0-3.5,0.1-5.2c0.1-2.7-0.2-5.3-0.6-8c-0.4-2.7-0.9-5.5-1.4-8.2c-0.7-4-0.9-8-1.3-12
			c-0.2-2.2-0.3-4.4-0.4-6.6c0-0.2,0-0.5,0-0.7c0.2,0,0.3,0,0.5-0.1c0.7-0.1,1.5-0.2,2.2-0.4c0.9-0.2,1.5-0.8,1.5-1.8
			c0.1-0.9,0.1-1.7,0.1-2.6c0-1.2-0.1-2.4-0.2-3.6c0.2-0.1,0.3-0.1,0.5-0.2c2.9-0.8,5.5-2.1,8.2-3.4c3.1-1.6,5.3-4,6-7.5
			c0.1-0.7,0.3-1.3,0.4-2c0.2-0.9,0.4-1.7,0.4-2.6c0.1-3.2,0.2-6.3,0.3-9.5c0-1.3-0.5-1.8-1.8-1.9c-0.2,0-0.3,0-0.5,0
			c-1.9,0-3.9-0.1-5.8-0.1c-0.2,0-0.5,0-0.7,0c0-0.2,0-0.3,0-0.4C53,34.3,53.3,29.1,53.9,24c0.2-1.6,0.1-3.3-0.2-5
			c0.1,0,0.2-0.1,0.3-0.2c0.3-0.2,0.5-0.4,0.4-0.8c-0.1-0.3-0.3-0.5-0.7-0.6c-0.2,0-0.5-0.1-0.7-0.1c-1.1,0-2.1,0.1-3.2,0.1
			c-0.3,0-0.7,0.1-1,0.2c-0.6,0.2-1,0.9-0.9,1.4c0.1,0.7,0.2,1.3,0.2,2.1c-0.9,0.3-1,0.9-1,1.6c0,0.8,0,1.7,0,2.5
			c0.1,4.2-0.1,8.4-0.5,12.6c0,0.2,0,0.5-0.2,0.6c-0.6,0.4-0.8,1-0.9,1.7c-3.9,0-7.8,0-11.7,0c0-0.4,0-0.7,0-1c0-5.7,0-11.4,0-17.1
			c0-0.7,0.1-1.4,0.6-1.8c-0.3-1.1-0.9-1.6-2.1-1.6c-1.5-0.1-2.9,0-4.4,0.1c-0.9,0-1.3,0.5-1.4,1.4c-0.1,1.9-0.3,3.8-0.3,5.7
			c0,3.6,0.1,7.2,0.2,10.9c0,1-0.3,2.1,0,3.1c0,0.1-0.1,0.3-0.1,0.5c-1.6-0.1-3.1-0.1-4.7-0.2c-0.5,0-1-0.2-1.5-0.2
			c-0.2,0-0.3,0-0.5,0c-1.1,0.3-1.6,1.6-0.8,2.5c0.3,0.4,0.4,0.7,0.3,1.1c-0.3,1.7-0.3,3.4-0.3,5.1c0,1.2,0.1,2.4-0.1,3.6
			c-0.1,0.4,0.1,0.8,0.1,1.2c0,0.3,0.1,0.5,0.1,0.8c0.2,1.7,0.4,3.4,0.7,5.1c0.4,2.1,1.1,4.2,2.7,5.8c0.4,0.4,0.8,0.8,1.3,1
			c0.9,0.4,1.9,0.8,2.9,1.2c2,0.6,4,0.8,6,0.8c0.4,0,0.9,0.1,1.3,0.1c0,0.2,0,0.3,0,0.4c0,1.7,0,3.4-0.1,5.2
			c-0.1,1.4,0.7,1.7,1.7,1.8c0.5,0,1,0.1,1.5,0.2c0,0.1,0.1,0.2,0.1,0.3c0,0.2,0,0.4,0,0.6c-0.1,3,0.2,6,0.7,9
			c0.2,1.4,0.5,2.7,0.7,4.1c0.3,2.2,0.6,4.5,1,6.8c0.4,2.6,0.7,5.3,0.8,8c0.1,2.2,0.3,4.3,0.5,6.5c0.1,0.9,0.4,1.7,0.4,2.6
			c0.2,2.5,0.3,5.1,0.4,7.6c0,0.4,0,0.8-0.2,1.2c-0.3,0.8-0.6,1.7-1,2.5c-1.2,2.1-2.5,4.2-4.3,5.9c-1.9,1.8-4.1,3.2-6.6,4.2
			c-1.2,0.5-2.5,0.9-3.7,1.4c-3.9,1.5-7.7,3.4-11.4,5.4c-1,0.6-2,1.3-3,2c-3,2.3-4.9,5.3-5.7,9c-0.5,2.7-0.2,5.1,1.4,7.4
			c1.3,1.9,3.1,3.4,5.3,4.4c2,0.9,4.1,1.6,6.3,2.2c7.7,1.9,15.5,2.9,23.4,3.1c8.4,0.2,16.7,0.3,25.1-0.2c1.1-0.1,2.1-0.1,3.2-0.2
			c1.5-0.2,2.9-0.3,4.4,0.1c0.7,0.2,0.9,0.3,0.9,1c0.1,1.1,0.8,1.7,1.9,1.5c0.7-0.2,1.5-0.4,2.2-0.6c0.8-0.2,1.6-0.3,2.3-0.3
			c2.1,0,4.2,0.2,6.3,0.3c1.7,0.1,3.4,0.1,5.1,0.2c4.2,0.2,8.4,0.5,12.6,0.6c6.2,0.2,12.4,0.2,18.6,0.3c2.2,0,4.4-0.2,6.6-0.3
			c3.4-0.2,6.8-0.5,10.2-0.7c3.2-0.2,6.5-0.3,9.7-0.4c1.6,0,3.3-0.2,4.9,0.2c0.2,0,0.4,0,0.6,0c1.4-0.1,2.7-0.3,4.1-0.4
			c1.6-0.2,3.3-0.3,4.8-0.8c0.6-0.2,1.2-0.3,1.8-0.3c1,0.1,1.9-0.1,2.7-0.7c0.1-0.1,0.2-0.1,0.4-0.2c1.4-0.4,1.9-1.5,1.9-2.7
			c0-1.7-0.1-3.4-0.3-5.1c-0.5-3.7-0.9-7.4-0.9-11.2c0-5.2-0.1-10.4-0.2-15.6c-0.1-4.6-0.4-9.3-0.2-13.9c0-1.3,0.1-2.5,0.1-3.8
			c0-3.6,0.1-7.1,0.1-10.7c0-0.3,0-0.6,0-0.9c0.9,0,1.7,0,2.6,0c0.8,0,1.6,0,2.5,0c1-0.1,2,0,2.8-0.6c0.1-0.1,0.4-0.1,0.6-0.1
			c0.9-0.1,1.7-0.2,2.6-0.4C182.9,103.1,183.3,102.5,182.9,101.6z"/>
		<g>
			<path fill-rule="evenodd" clip-rule="evenodd" fill="#003140" d="M36.8,75.9c-0.5-0.1-1-0.1-1.5-0.2c-1.1-0.1-1.8-0.5-1.7-1.8
				c0.1-1.7,0.1-3.4,0.1-5.2c0-0.1,0-0.2,0-0.4c-0.4,0-0.9-0.1-1.3-0.1c-2-0.1-4.1-0.2-6-0.8c-1-0.3-1.9-0.7-2.9-1.2
				c-0.5-0.2-0.9-0.6-1.3-1c-1.6-1.6-2.3-3.7-2.7-5.8c-0.3-1.7-0.5-3.4-0.7-5.1c0-0.3-0.1-0.5-0.1-0.8c0-0.4-0.2-0.8-0.1-1.2
				c0.2-1.2,0.1-2.4,0.1-3.6c0-1.7,0-3.4,0.3-5.1c0.1-0.4,0-0.8-0.3-1.1c-0.8-0.9-0.3-2.2,0.8-2.5c0.2,0,0.3-0.1,0.5,0
				c0.5,0.1,1,0.2,1.5,0.2c1.5,0.1,3.1,0.2,4.7,0.2c0.1-0.2,0.2-0.4,0.1-0.5c-0.3-1,0-2.1,0-3.1c-0.1-3.6-0.2-7.2-0.2-10.9
				c0-1.9,0.2-3.8,0.3-5.7c0.1-0.9,0.5-1.3,1.4-1.4c1.5-0.1,2.9-0.1,4.4-0.1c1.2,0,1.8,0.5,2.1,1.6c-0.6,0.5-0.6,1.1-0.6,1.8
				c0,5.7,0,11.4,0,17.1c0,0.3,0,0.7,0,1c3.9,0,7.8,0,11.7,0c0.1-0.7,0.3-1.3,0.9-1.7c0.1-0.1,0.2-0.4,0.2-0.6
				c0.4-4.2,0.5-8.4,0.5-12.6c0-0.8,0-1.7,0-2.5c0-0.7,0.1-1.3,1-1.6c-0.1-0.7-0.1-1.4-0.2-2.1c-0.1-0.5,0.3-1.1,0.9-1.4
				c0.3-0.1,0.6-0.2,1-0.2c1.1-0.1,2.1-0.1,3.2-0.1c0.2,0,0.5,0,0.7,0.1c0.3,0.1,0.6,0.3,0.7,0.6c0.1,0.4-0.1,0.6-0.4,0.8
				c-0.1,0.1-0.2,0.1-0.3,0.2c0.2,1.7,0.4,3.4,0.2,5c-0.6,5.2-0.9,10.3-0.8,15.5c0,0.1,0,0.3,0,0.4c0.3,0,0.5,0,0.7,0
				c1.9,0,3.9,0.1,5.8,0.1c0.2,0,0.3,0,0.5,0c1.3,0.1,1.8,0.6,1.8,1.9c-0.1,3.2-0.2,6.3-0.3,9.5c0,0.9-0.3,1.7-0.4,2.6
				c-0.1,0.7-0.3,1.3-0.4,2c-0.7,3.5-2.8,5.9-6,7.5c-2.6,1.3-5.3,2.6-8.2,3.4c-0.1,0-0.2,0.1-0.5,0.2c0.1,1.2,0.1,2.4,0.2,3.6
				c0,0.9,0,1.7-0.1,2.6c-0.1,0.9-0.6,1.5-1.5,1.8c-0.7,0.2-1.4,0.3-2.2,0.4c-0.2,0-0.3,0-0.5,0.1c0,0.3,0,0.5,0,0.7
				c0.1,2.2,0.2,4.4,0.4,6.6c0.4,4,0.6,8,1.3,12c0.5,2.7,1,5.5,1.4,8.2c0.4,2.6,0.7,5.3,0.6,8c0,1.7,0,3.5-0.1,5.2
				c-0.1,2.9-0.4,5.8-1,8.7c-0.6,2.9-1.5,5.7-3,8.4c-1,1.8-2.3,3.3-4,4.4c-2.1,1.4-4.4,2.5-6.8,3.4c-1.4,0.5-2.8,0.9-4.2,1.3
				c-2.4,0.7-4.7,1.6-7,2.6c-1.9,0.8-3.6,1.9-5.2,3.2c-0.5,0.4-0.8,0.8-0.7,1.5c0.1,0.5-0.1,0.9-0.5,1.2c-0.3,0.2-0.3,0.5-0.3,0.8
				c0.3,2.4,1.4,4.3,3.5,5.8c2.5,1.8,5.3,3,8.3,3.9c3.9,1.2,7.9,2.2,12,2.8c1.7,0.2,3.5,0.4,5.2,0.4c7.9,0,15.8,0,23.8,0
				c2.8,0,5.6-0.3,8.4-0.4c0.8,0,0.9-0.2,0.9-0.9c-0.5-8.2-0.5-16.3-0.6-24.5c0-2.6-0.4-5.1-0.5-7.7c-0.1-1.4-0.2-2.9-0.2-4.3
				c0-6,0-12,0-18c0-1.2,0.1-2.3,0.1-3.5c0-0.1,0-0.3,0-0.5c-0.3,0-0.6,0-0.9,0c-3,0-6-0.1-9-0.1c-0.4,0-0.8,0-1.1-0.1
				c-0.5-0.1-0.9,0-1.3,0.5c-0.4,0.5-1,0.5-1.6,0.3c-0.5-0.3-0.8-0.8-0.7-1.4c0-0.2,0.1-0.5,0.2-0.7c0.2-0.5,0.2-0.9-0.2-1.3
				c0,0-0.1,0-0.1,0c-0.4,0.2-0.7,0.2-1.1-0.1c-0.3-0.3-0.3-0.7-0.1-1.1c0.7-1.8,1.3-3.5,2-5.3c1.6-4.3,3.4-8.6,5.5-12.7
				c1.5-3,2.8-6,4.2-9c0.5-1.2,1.1-2.3,1.6-3.5c0.3-0.8,0.6-1.7,0.8-2.6c0.3-1.1,0.5-2.2,0.7-3.3c0.1-0.7,0.5-1.3,1.3-1.5
				c0.1,0,0.2-0.1,0.3-0.2c0.3-0.2,0.5-0.6,0.9-0.7c0.8-0.3,1.1-1,1.4-1.6c0.3-0.6,0.4-0.6,1.1-0.7c1.1-0.1,2.1,0.1,3.1,0.2
				c1.6,0.3,3.3,0.1,4.9,0c4.5-0.4,9-0.3,13.6-0.2c6.3,0.1,12.5,0.3,18.8,0.4c2,0,3.9,0.1,5.9,0.2c4.5,0.2,9,0,13.6-0.1
				c4.7,0,9.4,0,14.1-0.1c2.9-0.1,5.8-0.3,8.7-0.6c1.3-0.1,2.6-0.3,3.9-0.5c0.2,0,0.5,0,0.7,0c0.4,0,0.7,0.2,0.9,0.5
				c0.3,0.5,0.6,1,1.2,1.3c0.4,0.2,0.6,0.7,0.6,1.2c0,0.3,0.1,0.6,0.3,0.9c1.4,2.5,2.5,5.1,3.4,7.8c1.6,4.5,3.1,9,4.7,13.4
				c0.9,2.5,1.7,5,2.6,7.4c0.7,2.1,1.7,4.1,2.7,6.1c0.6,1.3,1.2,2.7,1.7,4c0.3,0.9,0,1.6-1,1.8c-0.8,0.2-1.7,0.3-2.6,0.4
				c-0.2,0-0.4,0-0.6,0.1c-0.9,0.6-1.9,0.5-2.8,0.6c-0.8,0.1-1.6,0-2.5,0c-0.8,0-1.6,0-2.6,0c0,0.3,0,0.6,0,0.9
				c0,3.6,0,7.1-0.1,10.7c0,1.3-0.1,2.5-0.1,3.8c-0.2,4.6,0.1,9.3,0.2,13.9c0.2,5.2,0.2,10.4,0.2,15.6c0,3.8,0.4,7.5,0.9,11.2
				c0.2,1.7,0.4,3.4,0.3,5.1c0,1.2-0.4,2.3-1.9,2.7c-0.1,0-0.3,0.1-0.4,0.2c-0.8,0.7-1.7,0.8-2.7,0.7c-0.6,0-1.2,0.1-1.8,0.3
				c-1.6,0.5-3.2,0.6-4.8,0.8c-1.4,0.1-2.7,0.3-4.1,0.4c-0.2,0-0.4,0.1-0.6,0c-1.6-0.3-3.3-0.2-4.9-0.2c-3.2,0.1-6.5,0.2-9.7,0.4
				c-3.4,0.2-6.8,0.5-10.2,0.7c-2.2,0.1-4.4,0.3-6.6,0.3c-6.2,0-12.4-0.1-18.6-0.3c-4.2-0.1-8.4-0.4-12.6-0.6
				c-1.7-0.1-3.4-0.1-5.1-0.2c-2.1-0.1-4.2-0.2-6.3-0.3c-0.8,0-1.6,0.2-2.3,0.3c-0.7,0.1-1.5,0.4-2.2,0.6c-1.1,0.2-1.9-0.3-1.9-1.5
				c-0.1-0.7-0.2-0.9-0.9-1c-1.5-0.4-2.9-0.3-4.4-0.1c-1.1,0.1-2.1,0.2-3.2,0.2c-8.4,0.5-16.7,0.4-25.1,0.2
				c-7.9-0.2-15.7-1.2-23.4-3.1c-2.2-0.5-4.3-1.2-6.3-2.2c-2.2-1-3.9-2.5-5.3-4.4c-1.6-2.2-1.9-4.7-1.4-7.4c0.7-3.7,2.7-6.7,5.7-9
				c0.9-0.7,1.9-1.4,3-2c3.7-2,7.4-3.9,11.4-5.4c1.2-0.5,2.5-0.9,3.7-1.4c2.5-1,4.7-2.4,6.6-4.2c1.8-1.7,3.1-3.8,4.3-5.9
				c0.4-0.8,0.7-1.7,1-2.5c0.1-0.4,0.2-0.8,0.2-1.2c-0.1-2.5-0.2-5.1-0.4-7.6c-0.1-0.9-0.4-1.7-0.4-2.6c-0.2-2.2-0.4-4.3-0.5-6.5
				c-0.1-2.7-0.4-5.3-0.8-8c-0.3-2.3-0.6-4.5-1-6.8c-0.2-1.4-0.5-2.7-0.7-4.1c-0.5-3-0.8-6-0.7-9c0-0.2,0-0.4,0-0.6
				C36.9,76.1,36.8,76.1,36.8,75.9z M134.1,135.9c-0.6,0.1-0.9-0.3-1-0.8c-0.2-0.6-0.1-1.1,0.3-1.6c0.2-0.2,0.4-0.3,0.5-0.5
				c0.5-0.7,1.1-0.9,2-0.7c0.4,0.1,0.9,0.1,1.3,0.1c0.6,0,1.2-0.2,1.8-0.2c1.2,0,2.3,0,3.5,0c3.1,0,6.2,0.1,9.3,0.1
				c1.3,0,2.3,0.5,3.4,1c0.2,0.1,0.4,0.3,0.6,0.5c0.3,0.4,0.4,0.9,0.4,1.5c0,5.2,0,10.4,0,15.6c0,0.6,0,1.2,0.1,1.8
				c0.3,3.1,0.6,6.2,0.9,9.2c0.1,0.9,0.3,1.9,0.4,2.8c0.2,0,0.3,0.1,0.4,0c2.3-0.2,4.7-0.4,7-0.6c0.7-0.1,1.4-0.2,2.1-0.3
				c0.4-0.1,0.9-0.3,1.3-0.5c0-0.1,0-0.3,0-0.6c0-3.9,0.1-7.8,0-11.7c0-3.2-0.2-6.4-0.4-9.6c-0.3-4-0.8-7.9-1.1-11.9
				c-0.3-4.2-0.9-8.3-1.5-12.5c-0.4-3.4-0.8-6.7-0.6-10.1c0-0.8-0.1-1.6-0.4-2.4c-0.3,0-0.5,0-0.8-0.1c-4.3-0.1-8.6-0.3-12.9-0.3
				c-17.1,0-34.3,0-51.4,0c-6.3,0-12.6,0.2-18.8,0.8c-0.5,0-1,0.1-1.4,0.1c-0.1,0.3-0.1,0.6-0.2,0.9c-0.2,0.7-0.6,0.9-1.3,0.6
				c0,0.8,0,1.6,0,2.3c0.1,2,0.4,4.1,0.4,6.1c0.1,5.9,0.1,11.8,0.2,17.7c0,0.7,0,1.4,0.1,2.1c0.2,2.7,0.5,5.3,0.7,8
				c0.4,5,0.9,10,1.6,15c0.4,2.7,0.8,5.3,0.9,8c0,0.7,0.3,1.3,0.4,2c0.4,0,0.8,0,1.2,0c1.3,0,2.5-0.1,3.8-0.1
				c2.1-0.1,4.2-0.1,6.3-0.2c4-0.2,7.9-0.4,11.9-0.4c4.2,0,8.5,0,12.7-0.1c2.7-0.1,5.4-0.3,8.1-0.4c3-0.1,6-0.2,9-0.4
				c0.5,0,1.1-0.1,1.6-0.1c0-0.2,0-0.3,0-0.5c-0.1-1.1-0.3-2.3-0.4-3.4c-0.3-2.3-0.6-4.6-0.9-6.8c-0.2-1.9-0.6-3.8-0.7-5.7
				c-0.2-3.5-0.3-6.9,0-10.4C134.5,138.2,134.4,137.1,134.1,135.9z M154.5,164.9c0-0.3,0.1-0.5,0.1-0.7c0-2.3,0-4.7,0-7
				c0-0.6-0.1-1.1-0.1-1.7c-0.3-2.8-0.7-5.6-1-8.3c-0.2-2.2-0.3-4.4-0.4-6.6c-0.1-1.3,0-2.7-0.1-4c0-1.1-0.3-1.4-1.5-1.4
				c-3.3,0-6.6,0-10-0.3c-1.3-0.1-2.7,0-4,0c-0.7,0-0.8,0.4-0.4,0.9c0.1,0.1,0.2,0.2,0.3,0.4c0.2,0.6,0.3,1.1-0.2,1.6
				c-0.1,0.1-0.2,0.4-0.2,0.6c0.1,1.4,0.2,2.7,0.4,4.1c0.5,3.5,1,7,1.3,10.5c0.1,1.3,0.1,2.6,0.2,3.9c0,0.2,0.1,0.6,0.2,0.7
				c0.6,0.5,0.6,1.1,0.6,1.8c-0.1,1.2-0.1,2.5-0.1,3.7c0,0.9,0,1.8,0.1,2.7C144.6,165.5,149.5,165.2,154.5,164.9z M126,77.8
				c-0.2,0-0.3,0-0.4-0.1c-0.9-0.1-1.7-0.1-2.6-0.3c-1.4-0.2-2.4-0.9-3-2.2c-0.1-0.1-0.2-0.3-0.3-0.4c-1.6,2-3.5,3.3-6.2,3.6
				c0.5,1.1,0.9,2.1,1.3,3c0.6,1.2,1.5,2.3,2.8,2.8c0.6,0.3,1.3,0.4,2,0.6c0.7,0.2,1.3,0,1.9-0.4c1.6-1.2,2.9-2.7,3.7-4.6
				C125.5,79.2,125.7,78.5,126,77.8z M105.4,72.5c-1.1,1.9-2.3,3.4-4.2,4.5c0.4,0.7,0.3,1.4,0.3,2c0,1.4,0.7,2.6,1.8,3.4
				c1,0.8,2.3,1,3.6,1c0.7,0,1.4-0.4,1.9-0.9c1.2-1.3,1.8-2.9,2.4-4.5c-2-0.6-3.1-2-4.2-3.5C106.5,73.9,106,73.2,105.4,72.5z
				 M94.9,84.9c0.9-0.3,1.5-0.7,2.2-1.5c1-1.2,1.6-2.6,2.1-4c0.2-0.6,0.4-1.3,0.3-2.1c-1.3,0-2.5,0.1-3.7-0.4
				c-1.2-0.5-2-1.5-2.7-2.6c-0.9,1.2-1.7,2.4-3,2.9c0.1,0.6,0.2,1.1,0.2,1.7c0,1.5,0.5,2.9,1.1,4.2c0.4,0.8,1.2,1.1,1.9,1.5
				c0.1,0,0.2,0,0.3,0C94.1,84.3,94.5,84.5,94.9,84.9z M134.1,94.3c-1.2-0.4-1.8-1.4-2.4-2.3c-0.6-1-1.2-2-1.9-3
				c-0.1,0.3-0.3,0.6-0.4,0.9c-0.4,0.7-0.8,1.5-1.3,2.1c-0.8,1.1-1.9,1.7-3.3,1.8c-0.1,0-0.1,0.1-0.3,0.1c0,1.2,0.2,2.4,0.6,3.6
				c0.6,1.6,1.7,2.5,3.4,2.7c1.1,0.1,2-0.1,2.8-0.9C132.8,97.8,133.6,96.2,134.1,94.3z M118.8,71c-1.1-0.1-2-0.5-2.9-0.8
				c-1.7-0.5-2.7-1.5-3.4-3c-0.1-0.2-0.2-0.3-0.3-0.5c-0.5,0.7-1,1.4-1.5,2c-0.9,1.2-2,2.2-3.8,2.2c0.6,1.3,0.9,2.5,2,3.3
				c1.7,1.2,3.6,1.8,5.7,1.8c0.8,0,1.4-0.3,2-0.8C117.9,74.1,118.4,72.7,118.8,71z M101.9,93.4c0.1,0.8,0.2,1.5,0.4,2.2
				c0.3,1.2,0.8,2.3,1.7,3.2c1.1,1.1,3,1.3,4.2,0.4c2.2-1.5,2.8-3.7,2.9-6.2c-1.8-0.6-3.2-1.7-4.1-3.5c-0.5,1.1-1.1,1.9-1.9,2.7
				c-0.7,0.7-1.6,1.1-2.6,1.1C102.4,93.3,102.2,93.4,101.9,93.4z M83.5,89.8c-0.8,0.7-1.6,1.3-2.4,1.9c-0.9,0.6-2,0.5-3.1,0.8
				c0.1,0.9,0.2,1.8,0.4,2.6c0.2,1,0.4,2,1,2.8c0.3,0.5,0.7,1,1.2,1.2c1.2,0.6,2.5,0.6,3.7-0.2c1.8-1.2,2.3-3.1,2.6-5
				c0-0.1,0-0.3-0.1-0.4c-0.4-0.4-0.7-0.8-1.1-1C84.6,91.8,83.8,91,83.5,89.8z M81.7,75.3c-1,1.2-2.2,2.1-3.7,2.4c0,1,0,1.9,0,2.9
				c0.1,1.8,1.7,3.5,3.5,3.8c0.6,0.1,1.2,0.3,1.6,0.1c0.3-0.4,0.4-0.8,0.7-0.9c0.3-0.1,0.7,0,1,0c0.6-0.2,0.9-0.6,1.2-1.1
				c0.7-1.3,1.1-2.6,1.4-4c0-0.2,0-0.3,0.1-0.5C84.8,78.6,82.8,77.6,81.7,75.3z M128.1,77.4c-0.1,0.6,0,1.1,0.2,1.6
				c0.1,0.3,0.2,0.6,0.3,0.9c0.5,1.2,1,2.4,2,3.3c1.4,1.5,3.3,1.4,4.6-0.2c0.1-0.1,0.2-0.2,0.3-0.4c0.8-1.3,1.3-2.8,1.5-4.3
				c0-0.2,0-0.3,0-0.5c-2.4-0.5-3.6-1.4-4.9-3.6C131,75.6,130,77.1,128.1,77.4z M118.5,89.1c-0.8,2.3-2.6,3.3-4.5,4.3
				c0.1,1.4,0.5,2.7,1,4c0.5,1.2,1.4,1.9,2.7,2.2c1.2,0.3,2.4-0.3,2.8-1.4c0.4-1,0.7-2.1,1-3.2c0.2-0.7,0.3-1.3,0.4-1.9
				C120.7,91.8,119.4,90.7,118.5,89.1z M99.8,93.7c-1.9-0.1-3.6-0.5-4.9-2c-0.3,0.4-0.6,0.8-0.9,1.1c-1.1,1.1-2.2,2.2-3.9,2.2
				c0,0.8,0.4,1.4,0.7,2c0.4,1,1.2,1.7,2.2,2.1c0.9,0.4,1.9,0.6,2.8,0.7c0.7,0.1,1.2-0.1,1.7-0.6c0.3-0.4,0.6-0.8,0.9-1.2
				C99.1,96.7,99.6,95.3,99.8,93.7z M91.5,70.9c-1-0.6-1.9-1.1-2.8-1.7c-0.9-0.6-1.4-1.5-1.8-2.6c-0.3,0.5-0.5,0.9-0.8,1.3
				c-0.5,0.6-0.9,1.3-1.5,1.6c-1,0.5-1.4,1.3-1.5,2.3c0,0.2-0.1,0.3-0.1,0.5c0,0.2,0,0.4,0,0.6c0.5,1.7,1.5,2.8,3.3,3.2
				c0.6,0.1,1.1,0,1.6-0.3C89.7,74.6,90.7,72.9,91.5,70.9z M142.9,73.4c-0.6,0.8-1.1,1.6-1.7,2.2c-0.6,0.7-1.3,1.2-2,1.8
				c0.5,0.2,0.6,0.7,0.6,1.2c0,0.7,0,1.4,0,2.1c0,0.9,0.4,1.7,1,2.3c0.6,0.6,1.3,0.7,2.1,0.3c0.4-0.2,0.8-0.5,1.1-0.8
				c0.7-0.8,1.3-1.6,1.9-2.5c0.6-0.9,1-1.8,1.3-2.9C145,76.7,143.6,75.4,142.9,73.4z M126.6,80.8c-0.1,0.2-0.2,0.2-0.2,0.3
				c-0.5,0.9-1,1.8-1.6,2.7c-0.8,1.2-1.8,2-3.1,2.6c-0.6,0.2-1.1,0.5-1.7,0.8c0.2,0.6,0.3,1.1,0.6,1.6c0.4,0.8,0.8,1.7,1.9,2
				c0.6,0.1,1.2,0.2,1.8,0.3c0.6,0,1.1-0.2,1.5-0.5c1.9-1.6,2.8-3.6,3.2-5.9C127.6,83.6,127,82.4,126.6,80.8z M94.7,70.9
				c0.4,0.7,0.7,1.3,1,1.9c0.5,0.9,1.2,1.7,2,2.4c0.7,0.5,1.3,0.7,2.2,0.3c2.2-1.1,3.3-2.9,3.9-5.1c-2.2-0.6-3.3-2.1-3.5-4.3
				C98.9,68.2,97.3,70,94.7,70.9z M112.2,82.2c-0.6,0.7-1.1,1.5-1.8,2c-0.7,0.6-1.5,0.9-2.3,1.4c0,0.5,0.1,1,0.1,1.6
				c0.2,1.8,1.2,3,2.9,3.6c0.6,0.2,1.3,0.3,2,0.5c1,0.2,1.9,0,2.5-1c0.6-0.9,1.2-1.7,1.4-2.9C113.9,86.9,112.6,85,112.2,82.2z
				 M146.8,93.3c0.2,1,0.4,1.9,0.6,2.8c0.4,1.8,1.6,2.8,3.4,3c1,0.2,1.1,0.1,1.7-0.7c0.1-0.1,0.1-0.2,0.2-0.3
				c0.9-1.7,1.4-3.4,1.8-5.3c-0.8-0.3-1.7-0.7-2.2-1.4c-0.5-0.7-0.8-1.4-1.3-2.2C150.3,91.2,149,92.6,146.8,93.3z M135.1,67.8
				c-0.6,0.7-1.2,1.3-1.7,1.9c-0.1,0.1-0.2,0.4-0.2,0.6c0,0.7,0,1.5,0.1,2.2c0.4,2.2,1.5,3.5,3.8,3.3c0.1,0,0.3,0,0.4,0
				c1-0.1,1.9-0.5,2.5-1.3c1-1.1,1.3-2.5,1.6-3.9C139.2,70.3,136.7,70,135.1,67.8z M100.3,82.3c-0.7,1.6-1.4,2.9-2.8,3.8
				c0,0.2,0,0.3,0,0.4c0.4,1.2,0.8,2.4,1.6,3.5c0.5,0.8,1.2,1.4,2.2,1.7c0.5,0.1,0.8,0.1,1.2-0.2c0.8-0.5,1.4-1.2,1.9-1.9
				c0.7-1.2,1.2-2.4,1.4-3.7c-1.2-0.3-2.3-0.5-3.3-0.9C101.4,84.6,100.9,83.5,100.3,82.3z M85.4,85.4c0.2,0.6,0.3,1.2,0.4,1.9
				c0.2,0.9,0.3,1.8,0.5,2.6c0.1,0.6,0.4,1.2,0.9,1.6c0.5-0.3,1-0.4,1.4,0.1c0.3,0.3,0.7,0.2,1,0.1c0.4-0.2,0.7-0.4,1-0.7
				c1.3-1.3,1.8-3,2.3-4.7c-1.7-0.7-2.6-1.4-4.4-4.1c-0.5,0.5-1,1.1-1.5,1.6C86.5,84.4,85.9,84.9,85.4,85.4z M123.1,67.6
				c-0.6,0.8-1.2,1.5-1.7,2.2c0.2,1.2,0.7,2.4,1.4,3.4c1.1,1.6,2.7,2.5,4.6,2.5c0.9,0,1.8-0.3,2.2-1.2c0.6-1.3,1-2.7,1.2-4.2
				c-0.6-0.1-1.1-0.4-1.7-0.1c-1.8,0.9-4.4,0-5.5-1.8C123.4,68.2,123.3,67.9,123.1,67.6z M149.7,77.1c0.1,0.6,0.1,1.1,0.1,1.6
				c0,1.5,0.7,2.5,1.9,3.3c0.8,0.5,1.7,0.8,2.7,0.5c1-0.4,1.8-1.1,2.2-2c0.5-1,0.7-2.1,0.9-3.2c-1-0.5-1.9-0.8-2.8-1.3
				c-0.9-0.5-1.4-1.4-1.7-2.4C152,75.1,151.2,76.5,149.7,77.1z M93.7,69.3c2.2-0.1,5.3-3.3,5.9-5.9c-3.5,0.2-7.1,0.3-10.6,0.5
				c0.4,1.5,0.7,3,1.5,4.3c0.3,0.5,0.7,0.9,1.3,0.9C92.5,68.1,93.2,68,93.7,69.3z M161.2,88.1c-0.1,0.3-0.2,0.4-0.3,0.6
				c-0.5,1-1,2.1-1.5,3.1c-0.5,0.9-1.1,1.6-2.2,1.7c0.2,1.5,0.7,2.9,1.1,4.3c0.2,0.8,0.7,1.1,1.5,1.3c0.1,0,0.2,0,0.3,0.1
				c1.2,0.3,1.7,0.1,2.4-1c0.9-1.5,1.2-3.1,1.5-4.7c-0.8-0.4-1.2-1.1-1.3-1.9c0-0.2-0.1-0.3-0.2-0.4
				C161.8,90.3,161.5,89.3,161.2,88.1z M154.4,70.7c0,0.2,0,0.5,0.1,0.7c0.3,1.2,0.8,2.2,1.5,3.2c0.4,0.5,0.9,0.8,1.5,0.9
				c0.2,0,0.5,0.1,0.7,0.1c0.7,0.1,1.2-0.1,1.7-0.6c1.3-1.4,1.9-3.1,2-4.9c-0.8-0.5-1.6-0.9-2.2-1.5c-0.6-0.6-1.1-1.4-1.6-2.1
				C157.2,68.2,156.2,69.7,154.4,70.7z M137.5,94.2c0.2,1.3,0.6,2.7,1.1,4c0.1,0.4,0.4,0.8,0.6,1.1c0.4,0.5,0.9,0.7,1.6,0.5
				c1.2-0.4,2.1-1.1,2.7-2.2c0.7-1.3,0.9-2.8,1.1-4.2c-1.6-0.4-3.2-0.8-3.9-2.4C139.6,92.1,138.6,93.1,137.5,94.2z M76.8,82.4
				c-0.1,0.1-0.2,0.1-0.2,0.2c-0.6,1.2-1.4,2.2-2.4,3.1c-0.1,0.1-0.2,0.2-0.2,0.3c0,0.5-0.1,1.1,0,1.6c0.6,1.6,1.7,2.8,3.5,3.1
				c0.5,0.1,0.9,0,1.3-0.2c1.6-0.8,2.8-2,3.7-3.5c0.2-0.3,0.3-0.6,0.4-0.9C80,86.1,77.8,85.2,76.8,82.4z M131.3,85.7
				c0,0-0.1,0.1,0,0.1c0.4,1.4,0.8,2.9,1.2,4.3c0.1,0.3,0.4,0.6,0.7,0.7c0.8,0.5,1.7,0.7,2.6,0.8c0.7,0.1,1.3-0.1,1.7-0.7
				c0.2-0.2,0.4-0.5,0.5-0.7c0.9-1.3,1.3-2.8,1.7-4.3c0-0.1,0-0.3,0-0.4c-0.4-0.6-0.9-1.1-1.3-1.7c-1,1.6-2.6,2.2-4.5,2
				C133,85.8,132.2,85.8,131.3,85.7z M66.5,95.8c0.3,0.7,0.6,1.3,0.9,1.9c0.5,1,1.3,1.6,2.4,1.8c0.5,0.1,1,0.2,1.5,0.2
				c0.9,0,1.5-0.3,1.9-1.1c0.8-1.5,1.3-3.1,1.6-4.7c0.1-0.4,0.1-0.8,0.2-1.1c-0.6-0.3-1-0.4-1.4-0.7c-0.4-0.3-0.6-0.7-1-1
				C71.5,93.6,69.8,95.6,66.5,95.8z M163.8,85.1c0,0.7,0,1.4,0,2c0,1,0.1,1.9,0.1,2.9c0,0.2,0.1,0.4,0.2,0.6c0.6,0.7,2.1,0.7,2.7,0
				c0.5-0.5,0.9-1.1,1.2-1.7c0.8-1.7,1.4-3.5,2.1-5.3c0,0,0-0.1,0,0c-0.9-0.8-1.7-1.6-2.6-2.3C166.5,82.7,165.3,84.1,163.8,85.1z
				 M171.4,88.9c-1,1.7-2.4,2.8-3.9,3.8c0.3,0.7,0.6,1.2,0.9,1.8c0.5,1,1.1,1.9,1.7,2.9c0.3,0.4,0.6,0.9,1.3,1.1
				c0.5-0.5,1-0.9,1.4-1.4c0.9-1.1,1.4-2.4,2-3.6c0.2-0.5,0.3-1,0-1.5C173.2,91.5,172.1,90.6,171.4,88.9z M137.2,62.5
				c0,0.2,0,0.3,0.1,0.5c0.6,1.2,1.1,2.4,1.7,3.5c0.6,1,1.5,1.7,2.6,2c0.8,0.2,1.5,0,2-0.6c0.3-0.3,0.6-0.7,0.9-1.1
				c0.8-1.2,1.5-2.5,1.9-4C143.3,62.7,140.3,62.6,137.2,62.5z M102.3,63.2c0.1,2.1,0.9,3.6,2.2,5.1c0.8-0.3,1.2,0.2,1.5,0.8
				c0.6,0.1,1-0.1,1.5-0.3c0.7-0.4,1.3-0.9,1.8-1.6c0.8-1.3,1.3-2.7,1.5-4.3C107.8,63,105,63.1,102.3,63.2z M143.9,69.8
				c0.2,1.4,0.7,2.7,1.6,3.9c0.6,0.8,1.5,1.3,2.5,1.5c0.8,0.2,1.6,0,2.2-0.6c0.9-1,1.5-2.1,1.9-3.4c-3-0.2-4.6-1.7-5-4.7
				c-0.5,0.7-0.9,1.2-1.4,1.7C145.2,68.8,144.6,69.2,143.9,69.8z M158.2,81.1c-1.1,2.1-2.2,3.9-4.4,4.7c0.5,1.7,0.8,3.3,1.7,4.8
				c0.1,0.2,0.2,0.4,0.4,0.5c0.5,0.5,0.7,0.5,1.2,0.1c0.1-0.1,0.2-0.1,0.2-0.2c1.7-1.8,2.6-3.9,3.2-6.2
				C159.1,84,158.7,82.6,158.2,81.1z M113.8,62.8c0,0.1,0,0.2,0,0.2c0.6,1.5,1.3,3.1,1.9,4.6c0.1,0.3,0.4,0.6,0.6,0.8
				c0.3,0.4,0.7,0.5,1.1,0.4c0.8-0.2,1.4-0.6,1.9-1.2c1.2-1.4,2-3.1,2.6-4.9c0-0.1,0-0.2,0-0.3C119.3,62.5,116.6,62.6,113.8,62.8z
				 M149.1,62.9c0.6,1.6,1.1,3.1,2,4.4c0.5,0.8,1.1,1.4,1.9,1.8c0.4,0.2,0.8,0.2,1.2-0.1c1.5-1.1,2.3-2.5,2.8-4.3
				c0.1-0.4,0.1-0.8,0.2-1.3C154.4,63.3,151.8,63.1,149.1,62.9z M32.4,165.7c0,0,0-0.1,0-0.1c-0.1,0-0.2-0.1-0.3-0.1
				c-2.8-0.7-5.6-1.3-8.3-2.2c-3.3-1-6.4-2.3-9.1-4.5c-1.8-1.4-2.9-3.1-3.3-5.3c-0.1-0.4-0.1-0.8-0.2-1.2c-0.5,1.3-0.7,2.6-0.2,4
				c0.6,1.7,1.7,3,3.1,4.2c2,1.7,4.4,2.6,6.9,3.4c2.8,0.9,5.7,1.3,8.6,1.6C30.5,165.5,31.4,165.6,32.4,165.7z M125.5,62.2
				c0.6,1.9,1.6,4,2.6,5.1c0.4,0.4,0.8,0.8,1.5,1c2-1.6,3.6-3.5,4.8-5.9C131.3,62.3,128.4,62,125.5,62.2z M162.8,74.2
				c-0.4,0.6-0.7,1.3-1.2,1.9c-0.5,0.5-1.2,0.8-1.9,1.3c0.3,1.4,0.7,2.8,1.6,4.1c0.2,0.3,0.6,0.5,0.9,0.8c0.3,0.2,0.6,0.3,0.8,0.5
				c0.4,0.3,0.9,0.3,1.3-0.1c0.1-0.2,0.3-0.3,0.3-0.5c0.7-1.5,1-3.1,1.3-4.6c-0.7-0.5-1.3-0.9-1.8-1.5
				C163.7,75.4,163.3,74.8,162.8,74.2z M143.4,86.4c0.5,1.1,0.9,2.1,1.4,3.1c0.3,0.5,0.7,0.9,1.2,1.2c1.3,0.8,1.7,0.6,2.4-0.6
				c1-1.7,1.3-3.5,1.9-5.1c-0.6-0.8-1.1-1.6-1.7-2.4C147.6,84.6,145.9,85.8,143.4,86.4z M76.4,75.9c0.4-0.1,0.7-0.2,1.1-0.3
				c0.1,0,0.3-0.1,0.4-0.2c1.4-1.2,2.1-2.8,2.7-4.6c-1.8-0.2-3.2-0.9-4.5-1.9c-0.8,2-1.6,3.9-2.4,5.8C74.5,75.4,75.4,75.9,76.4,75.9
				z M79.5,168c0.1-0.6,0.2-1.2,0.3-1.7c0-0.4,0-0.7,0-1.1c0-2.1-0.4-4.2-0.7-6.3c-0.5-3.1-0.8-6.3-1.2-9.4
				c-0.1-0.6-0.2-1.3-0.2-1.9c-0.1,1.4-0.2,2.8-0.2,4.2c0.1,4.8,0.2,9.6,0.2,14.4c0,0.7,0.2,1.4,0.7,2C78.8,168.1,79.1,168,79.5,168
				z M72.9,76.9c-0.9,2.7-2.3,5.2-3.2,8c1.1,0.3,1.8,0,2.5-0.7c1.6-1.4,2.6-3.2,3.2-5.2c0.1-0.4,0.3-0.9,0.4-1.3
				C74.9,77.5,73.9,77.2,72.9,76.9z M160.5,63.6c0.1,1.4,0.5,2.6,1.2,3.7c0.8,1.2,2.5,1.5,3.6,0.7c0.4-0.3,0.4-0.5,0-0.9
				c-0.1-0.1-0.2-0.1-0.3-0.2c-0.5-0.5-0.5-0.8-0.2-1.4c0.4-0.6,0-1.3-0.7-1.4c-0.2,0-0.5-0.1-0.7-0.1
				C162.4,63.8,161.5,63.7,160.5,63.6z M77.4,64.1c0,0.1,0,0.1,0,0.2c0.2,0,0.4,0,0.6,0c0.8,0.1,1.2,0.5,1.4,1.4
				c0.1,0.4,0.2,0.7,0.4,1c0.2,0.4,0.6,0.5,1,0.4c1.5-0.2,2.9-0.7,4-1.7c0.4-0.4,0.7-0.8,0.9-1.3C82.8,64.1,80.1,64.1,77.4,64.1z
				 M17.8,142.7c0,0.1,0.1,0.1,0.1,0.2c1.9-0.7,3.8-1.3,5.7-2.2c2.8-1.3,5.6-2.7,8.4-4.1c1.6-0.8,3.2-1.6,4.4-2.9
				c0.1-0.1,0.2-0.3,0.3-0.4c-1.6,0.8-3.1,1.5-4.7,2.3c-0.3,0.2-0.7,0.3-1,0.5c-2.2,1.3-4.5,2.4-6.9,3.4c-1.6,0.7-3.1,1.4-4.7,2.2
				C18.9,142.1,18.4,142.4,17.8,142.7z M68.9,86.6c-0.7,1.8-1.4,3.6-2.2,5.4c1,0.2,1.8,0,2.5-0.6c1.4-1.1,2.2-2.6,2.6-4.2
				c0-0.1,0-0.2,0-0.4c-0.5,0-1,0.1-1.5,0.1C70,86.9,69.5,86.7,68.9,86.6z M26.5,141.2c0,0,0,0.1,0,0.1c0.1,0,0.2,0,0.2,0
				c2.5-0.8,5.1-1.6,7.4-2.8c1.9-1,3.8-2.2,5-4.1c0.7-1.1,1.3-2.4,1.9-3.6c0.1-0.1,0.1-0.3,0.1-0.5c-0.6,0.9-1.2,1.7-1.8,2.5
				c-0.9,1.1-1.8,2.3-3,3.1c-1.3,0.9-2.7,1.7-4.1,2.4C30.3,139.3,28.4,140.2,26.5,141.2z M36.3,57.5c-0.2,0-0.4-0.1-0.5-0.1
				c-0.2,0-0.3,0-0.5,0c-1.2,2-2.3,3.9-3.4,6.1c0.8,0,1.5,0,2.3,0C35,61.5,35.6,59.6,36.3,57.5z M29.3,65.3
				c-0.3-0.2-0.3-0.2-0.4-0.3c-0.8-0.2-1.7-0.4-2.5-0.6c-0.2,0-0.4-0.1-0.5-0.2c-0.4-0.3-0.8-0.6-1.2-0.9c-0.2-0.2-0.5-0.3-0.8-0.3
				c-0.6,0-0.9-0.3-0.9-0.9c0-0.2,0.1-0.4,0-0.6c-0.3-0.6-0.7-1.3-1-1.9c-0.1-0.1-0.2-0.2-0.4-0.3c0,2.4,0.9,4.2,2.8,5.5
				c0.5,0.3,1,0.5,1.6,0.5c0.9,0,1.8,0.1,2.8,0.1C28.8,65.5,28.9,65.4,29.3,65.3z M114.8,100.4c-1.1-0.9-1.9-1.9-2.5-3
				c-0.9,1-1.8,2-2.7,3C111.4,100.4,113.1,100.4,114.8,100.4z M42.9,102.4c0.1,0.8,0.1,1.6,0.2,2.4c0.1,3.4,0.2,6.8,0.3,10.2
				c0,0.5,0.1,0.9,0.1,1.4c0,0.4,0.1,0.9,0.2,1.3C44,112.6,44,107.5,42.9,102.4z M75.7,98.1c-0.8,1.1-1.5,2.1-2.3,3.2
				c1.8-0.1,3.4,0,5.1-0.3C77.1,100.5,76.2,99.4,75.7,98.1z M105.5,170.7c8.2,0.3,16.3,0.5,24.5,0
				C121.8,170.7,113.6,170.7,105.5,170.7z M16.7,164.5c-0.3-0.1-0.5-0.2-0.8-0.4c-1.9-0.8-3.7-1.7-5.3-2.9c-1.5-1.1-2.6-2.6-3-4.4
				c-0.3-1-0.4-2.1-0.6-3.1c-0.3,1.1-0.3,2.1,0.1,3.1c0.4,1.2,1,2.3,1.8,3.3C10.9,162.6,13.7,163.7,16.7,164.5z M157.6,100
				c-0.8-1.1-1.6-2.1-2.3-3.1c-0.5,1-1.1,2-1.7,3.1C154.9,100,156.2,100,157.6,100z M167.9,99.6c0-0.1,0.1-0.1,0.1-0.2
				c-1.2-0.8-1.8-2-2.3-3.5c-0.3,0.8-0.5,1.4-0.7,2c-0.2,0.6-0.5,1.1-0.8,1.8C165.5,99.7,166.7,99.7,167.9,99.6z M166.7,109.1
				c0.4,3.9,0.8,7.6,1.2,11.3c0,0,0.1,0,0.1,0c-0.1-3.6-0.2-7.3-0.4-10.9C167.4,109.4,167.2,109.3,166.7,109.1z M54.2,59.8
				c-0.4,0.1-0.9,0.1-1.1,0.6c-0.5,1-1,2-1.5,3c0,0,0.1,0.1,0.1,0.1c1.1-0.7,2.4-1.2,3.3-2.1C54.8,60.9,54.5,60.4,54.2,59.8z
				 M24.7,56.1c0.1,0,0.1,0,0.2,0c0.9-2.3,1.8-4.6,2.7-7c-0.2,0.1-0.2,0.1-0.2,0.1c-1,1.7-2.1,3.4-3.1,5.1c-0.1,0.1-0.1,0.4-0.1,0.5
				C24.4,55.3,24.5,55.7,24.7,56.1z M124.5,64.2c-1,2.3,0.7,4.9,3.1,4.9C126.2,67.6,125.3,66,124.5,64.2z M143.8,100.5
				c1.3-0.1,2.5-0.1,3.9-0.2c-1.1-0.9-1.7-1.8-2.1-3C145,98.4,144.4,99.4,143.8,100.5z M29.7,63c0.8-2.2,1.5-4.3,2.3-6.4
				c0,0-0.1,0-0.1-0.1c-1.1,1.8-2.2,3.6-3.3,5.3C29,62.2,29.3,62.6,29.7,63z M62.4,101.6c0.7-0.1,1.2-0.1,1.8-0.1
				c0.5,0,1.1,0,1.7-0.1c-0.9-0.9-1.6-1.8-2-3C63.3,99.4,62.9,100.4,62.4,101.6z M28.5,50.9c-0.7,1.9-1.5,3.8-2,5.7
				c1.1-1.8,2.3-3.6,3.5-5.5C29.4,51.1,29,51,28.5,50.9z M88.7,100.5c-0.6-0.7-1.1-1.4-1.5-2c-1,0.8-2,1.5-3,2.3
				C85.7,100.7,87.2,100.6,88.7,100.5z M123.1,97.5c-0.7,1-1.3,1.9-2,2.9c1.2,0,2.3,0.1,3.4,0C124,99.4,123.6,98.5,123.1,97.5z
				 M164.5,70.5c0.6,1.7,1.7,3.1,2.7,3.1c-0.4-1.1-0.7-2.3-1.1-3.4C165.6,70.4,165,70.4,164.5,70.5z M93.8,88.6c-1,2-1.8,4-4.2,4.7
				c0.7,0.3,1.2,0.2,1.7-0.1c0.9-0.6,1.6-1.5,2.4-2.3C94.3,90.2,94.2,89.5,93.8,88.6z M45.5,46.1c-1.1,0-2,0-3,0
				c-0.2,0.5-0.4,1-0.7,1.6c1,0,1.9,0,2.7,0C44.9,47.1,45.2,46.6,45.5,46.1z M158,166.3c-0.1,0.5,0.2,0.4,0.5,0.4c3,0,6.1,0,9.1,0
				C164.4,166.2,161.2,165.8,158,166.3z M49.7,40.4c0.8,0.1,0.8,0.1,0.9-0.5c0.3-1.9,0.1-3.9,0.1-5.8c0-0.2,0-0.4,0-0.6
				c-0.1,0-0.1,0-0.2,0C50.2,35.7,49.9,38,49.7,40.4z M144.7,91.7c-1.2-1-1.6-2.4-2.3-3.7c-0.8,0.9-0.6,1.7-0.1,2.5
				C142.8,91.5,143.7,91.6,144.7,91.7z M96.6,88.5c-0.3,0.9-1,1.5-0.4,2.4c0.5,0.8,1.7,1.3,2.7,1.1C97.9,91,97.3,89.8,96.6,88.5z
				 M57.9,51c-0.1,0-0.1,0-0.2-0.1c-0.1,0.3-0.2,0.5-0.3,0.8c-0.1,0.2-0.2,0.5-0.3,0.7c-0.6,1.1-1.2,2.1-1.8,3.2
				c-0.1,0.1-0.1,0.3-0.1,0.5c0.4,0,0.7-0.1,1.1-0.1C57.1,54.5,57.5,52.8,57.9,51z M40.4,57.9c-0.1,0-0.2-0.1-0.3-0.1
				c-1,1.8-2,3.6-3.1,5.5c0.5-0.1,0.8-0.1,1.1-0.1C38.9,61.4,39.6,59.7,40.4,57.9z M44.7,168c5.5,0.5,11,0.4,16.4,0.2
				C55.7,168.1,50.2,168,44.7,168z M52.2,49.6c-0.6,0-1.1,0-1.7,0c-0.1,0-0.3,0.1-0.3,0.2c-0.3,0.6-0.7,1.2-0.8,1.9
				c0.4,0,0.7,0.1,1,0.1c0.2,0,0.4-0.1,0.5-0.2C51.3,51,51.7,50.3,52.2,49.6z M41.5,62.5c1.1,0.1,1.2,0,1.5-0.8
				c0.4-1.1,0.9-2.1,1.3-3.1c0.1-0.2,0.1-0.4,0.2-0.6c-0.2,0.1-0.4,0.1-0.4,0.1C43.3,59.5,42.4,61,41.5,62.5z M101.9,100.3
				c-0.7-0.6-1.2-1.4-1.6-2.3c-0.5,0.8-0.9,1.5-1.4,2.3C100,100.3,100.9,100.3,101.9,100.3z M51.3,47.7c0.5,0,0.9,0,1.2,0
				c0.8,0.1,1.2-0.2,1.4-0.9c-0.3-0.4-0.6-0.7-0.9-1.2c-0.3,0.1-0.7,0.1-0.9,0.3C51.9,46.5,51.6,47,51.3,47.7z M46,58.6
				c0,0,0.1,0,0.1,0.1c1.1-1.6,2.1-3.3,3.2-4.9c-0.5,0-1-0.3-1.2,0.3C47.5,55.6,46.8,57.1,46,58.6z M8,149.8c0,0,0.1,0.1,0.1,0.1
				c0.1-0.2,0.3-0.4,0.4-0.6c0.6-0.9,1.2-1.8,2.1-2.5c0.6-0.5,1.1-0.9,1.7-1.3c0.6-0.4,1-1.1,1.5-1.7C11.4,145.3,9.3,147.2,8,149.8z
				 M9.8,150.4c-0.7,1-1.2,2-1.1,3.2c0.1,1.1,0.3,2.2,0.6,3.3c0.2,0.8,0.6,1.4,1.1,1.8C9,155.6,8.6,155.7,9.8,150.4z M50.3,61.5
				c-0.3,0.2-0.7,0.3-0.8,0.5c-0.5,0.8-1,1.6-1.5,2.5c0,0,0.1,0.1,0.1,0.1c0.6-0.2,1.3-0.3,2-0.5C49.4,63.2,50.2,62.5,50.3,61.5z
				 M147.9,79.9c-0.6,0.9-1.1,1.8-1.8,2.6c-0.7,0.8-1.5,1.5-2.2,2.2C146.3,84.2,147.8,81.5,147.9,79.9z M47,47.7c0.5,0,0.9,0,1.3,0
				c0.2,0,0.4-0.1,0.5-0.2c0.3-0.4,0.6-0.9,0.9-1.4c-1.7-0.3-1.8-0.2-2.4,1.1C47.2,47.2,47.2,47.4,47,47.7z M136.3,64.4
				c-0.4,1.9,0,3.3,2.2,3.9C137.3,67.3,137.1,65.8,136.3,64.4z M22.3,47.5c0.2,0,0.3,0,0.4-0.1c0.6-0.9,1.3-1.8,1.9-2.8
				c-0.6,0-1.1-0.1-1.6-0.1C22.7,45.5,22.5,46.5,22.3,47.5z M168.9,78.4c-0.4,0.5-0.5,0.8-0.4,1.1c0.4,1,1,1.8,2,2.4
				C170.1,80.3,169.4,78.8,168.9,78.4z M181.1,102.2c-0.2-0.5-0.4-1.1-0.6-1.6c-0.5,0-0.8,0-1.3,0c0.1,0.5,0.1,1,0.2,1.6
				C179.9,102.2,180.4,102.6,181.1,102.2z M29.6,22.8c0.3-0.5,0.4-1.1,0.2-1.7c-0.2-0.7-0.9-0.9-1.4-0.4c-0.4,0.3-0.6,0.7-0.5,1.2
				C28.9,21.6,29,21.6,29.6,22.8z M25.7,43c-0.1-0.4-0.2-0.7-0.3-1.1c-0.7,0.1-1.4,0.1-2,0.2c-0.3,0-0.5,0.2-0.5,0.5
				c0,0.3,0.3,0.4,0.5,0.4C24.2,43,24.9,43,25.7,43z M37.8,47.6c0.6,0,1.2,0,1.8,0c0.2-0.4,0.5-0.8,0.8-1.3
				C38.2,46.2,38.6,46.1,37.8,47.6z M73.7,167.2c-1.4-0.3-2.8-0.1-4.1-0.1c0,0.2-0.1,0.3-0.1,0.4c0,0.1,0,0.2,0,0.3
				C71.1,168,72.9,167.7,73.7,167.2z M65.4,97.3c-0.4,2.1,3.1,4.6,5.6,3.9c-1.3-0.2-2.5-0.3-3.5-1C66.5,99.6,66.1,98.4,65.4,97.3z
				 M135.5,98.7c-0.4,0.6-0.8,1.1-1.3,1.8c0.5,0,0.9,0,1.3,0c0.4,0,0.8,0.1,1.1-0.1C136.3,99.8,135.9,99.3,135.5,98.7z M42.1,64.2
				c-1.4-0.1-2,0.3-2.1,1.5c0.6,0,1.2-0.1,1.7-0.1C41.8,65.1,42,64.7,42.1,64.2z M46.2,63.2c-0.1,0-0.1-0.1-0.2-0.1
				c-0.3,0.1-0.8,0.2-1,0.4c-0.4,0.5-0.7,1.1-1.2,1.8c0.5-0.1,0.9-0.1,1.2-0.2c0.1,0,0.3-0.1,0.4-0.3C45.7,64.3,46,63.8,46.2,63.2z
				 M32.4,51.3c-0.2,0.5-0.5,1-0.7,1.4c-0.2,0.4-0.4,0.9-0.6,1.3c-0.2,0.4-0.3,0.9-0.5,1.3c1-1.2,2.5-3.8,2.4-4
				C32.8,51.3,32.6,51.3,32.4,51.3z M35.8,51.7c-0.4,0.8-0.7,1.4-1,2.4c0.5-0.2,0.9-0.3,1-0.5c0.4-0.5,0.7-1.1,1-1.7
				C36.5,51.8,36.2,51.7,35.8,51.7z M35.5,74.3c0.1,0,0.1-0.1,0.2-0.1c0-1.5,0-3,0-4.5c-0.3,0-0.5,0.1-0.5,0.3c0,1.3,0,2.6,0,3.9
				C35.2,74.1,35.3,74.2,35.5,74.3z M38.7,76.2c-0.1,0-0.1,0-0.2,0c-0.1,2.3,0,4.7,0.4,7.2C38.8,80.9,38.8,78.5,38.7,76.2z
				 M30.9,65.8c0.8,0,1.5,0,2.3,0c0.5,0,0.6-0.2,0.6-0.7c-0.7,0-1.3-0.1-1.9-0.1C31.2,65,31.2,65,30.9,65.8z M45.9,49.9
				c-0.2,0.5-0.4,0.9-0.7,1.4c0.5,0,0.9,0.3,1.2-0.1c0.3-0.4,0.6-0.8,0.8-1.4C46.7,49.8,46.3,49.8,45.9,49.9z M90.6,99.7
				c-0.4-0.5-0.7-1-1.1-1.5c-0.3-0.5-0.4-1.2-0.9-1.7C88.5,97.9,89.2,99.2,90.6,99.7z M176.3,100.7c-1.8-0.1-3.7,0-5.5,0.3
				C172.6,101.1,174.5,101.2,176.3,100.7z M23.1,56.4c-0.1,0.4-0.3,0.6-0.2,0.8c0.1,0.7,0.3,1.5,0.8,2.2c0.2-0.5,0.5-0.8,0.3-1.2
				C23.7,57.6,23.4,57.1,23.1,56.4z M43.1,50c-0.8,0.1-1.4,0.1-1.9,0.1c-0.4,0-0.5,0.2-0.4,0.6c0.6,0.1,1.2,0.1,1.8,0.2
				C42.7,50.7,42.8,50.4,43.1,50z M43.3,72.5c0.1,0.8-0.4,1.4-1.1,1.9c1.2,0.1,1.9-0.2,2-0.8C43.9,73.2,43.6,72.9,43.3,72.5z
				 M148.6,66.3c0,1.6,0.7,2.7,1.9,3C149.9,68.3,149.3,67.3,148.6,66.3z M154.5,166.6c0-0.1,0-0.1,0-0.2c-1.7,0.1-3.5,0.2-5.2,0.3
				C150.9,167,154,166.9,154.5,166.6z M34.3,47.5c1.4,0.2,1.6,0.3,1.9-0.9C34.9,46.5,34.7,46.6,34.3,47.5z M48.4,58.4
				c-0.1,0-0.1-0.1-0.2-0.1c-0.6,1-1.2,2-1.9,3c0,0,0.1,0.1,0.1,0.1c0.2-0.1,0.6-0.2,0.7-0.4C47.7,60.2,48,59.3,48.4,58.4z
				 M122.9,75.9c-0.7-0.9-1.4-1.7-2.1-2.6C121.1,74.8,121.8,75.7,122.9,75.9z M68.8,93.5c-0.9,0-1.6,0-2.3,0c-0.5,0-0.6,0.2-0.6,0.6
				C66.9,94.3,67.8,94.2,68.8,93.5z M131.6,68.7c1-0.1,2.2-1.5,2.2-2.5C133,67.1,132.3,67.9,131.6,68.7z M37.2,65.7
				c0.1-0.3,0.2-0.6,0.3-0.9c-1.4,0-1.4,0-1.7,0.9C36.2,65.7,36.6,65.7,37.2,65.7z M31.6,31.9C31.6,31.8,31.7,31.8,31.6,31.9
				c0.1-2.4,0.1-4.7,0.1-7.2c-0.1,0.2-0.2,0.3-0.2,0.4C31.6,27.3,31.6,29.6,31.6,31.9z M41.5,52.4c-0.6-0.1-1.1-0.1-1.6-0.2
				c-0.1,0.3-0.2,0.6-0.3,1C40.3,52.9,41.1,53.3,41.5,52.4z M114.3,83.8c0.3,1,1.2,1.7,2.4,1.9C116,85.1,115.1,84.5,114.3,83.8z
				 M51.9,20.4C51,19.9,50.2,20,49.4,20c0,0.1-0.1,0.2,0,0.3c0.1,0.1,0.2,0.1,0.3,0.2C50.4,20.8,51.1,20.6,51.9,20.4z M13.8,147
				c1-0.7,1.9-1.3,2.9-1.9C15.4,145.3,14.1,146.1,13.8,147z M152.4,86.9c0.1,1.2,0.1,2.4,1.1,3.4C153.1,89.1,152.8,88,152.4,86.9z
				 M27,60c0.3-0.8,0.6-1.5,0.9-2.2c-0.5,0.5-0.8,1-1.2,1.5C26.5,59.6,26.6,59.8,27,60z M29.2,49.3c1.3,0.1,1.7,0,2-0.3
				C29.9,48.8,29.5,48.8,29.2,49.3z M175.2,99.1c0.3,0,0.5,0,0.7,0c0.2,0,0.4,0,0.6-0.1c-0.1-0.4-0.2-0.8-0.3-1.3
				C175.8,98.2,175.6,98.6,175.2,99.1z M178.6,97c0,0-0.1,0-0.1,0c0.1,0.6,0.3,1.2,0.4,1.8c0.1,0.3,0.2,0.3,0.5,0.1
				C179.2,98.3,178.9,97.6,178.6,97z M76.7,95.4c0,1.2,0.4,2.2,1.1,3.1C77.4,97.5,77.1,96.5,76.7,95.4z M54.7,49.9
				c-0.4,0.9-0.9,1.7-1.3,2.6C54,51.7,54.4,50.9,54.7,49.9z M43.6,54.9c0.8,0,0.8,0,1-0.8C43.9,54.1,43.9,54.1,43.6,54.9z
				 M166.1,75.4c-0.5-0.5-0.9-1-1.4-1.5c0,0-0.1,0.1-0.1,0.1C165,74.6,165.4,75.2,166.1,75.4z M83,61.8c0,0.1,0,0.1,0,0.2
				c0.9-0.1,1.7-0.1,2.6-0.2c0-0.1,0-0.1,0-0.2C84.8,61.7,83.9,61.7,83,61.8z M59.6,45.7c-0.1,0-0.1,0-0.2,0c-0.1,0.3-0.3,0.6-0.5,1
				c0.2,0.1,0.4,0.1,0.6,0.2C59.6,46.4,59.6,46.1,59.6,45.7z M37.5,59.2c0.3-0.5,0.7-0.9,0.7-1.5C37.8,57.9,37.6,58.2,37.5,59.2z
				 M25,49.7c0.9-1,1-1.1,0.6-1.5C25.4,48.7,25.2,49.2,25,49.7z M73.3,71.2c0.1,0,0.1,0,0.2,0.1c0.2-0.6,0.5-1.2,0.7-1.7
				c-0.1,0-0.1,0-0.2-0.1C73.8,70,73.6,70.6,73.3,71.2z M166.8,106.7c0.3-0.4,0.5-0.8,0.3-1.3C166.4,105.7,166.7,106.2,166.8,106.7z
				 M164.1,61c-0.5-0.3-0.8-0.3-1.7,0.1C163,61.2,163.5,61.3,164.1,61z M39,54.8c0.8,0.3,0.8,0.3,1.1-0.2
				C39.7,54.7,39.3,54.7,39,54.8z M172.7,88.2c0.3,0.4,0.3,0.4,0.7,0.4C173.2,87.9,173.2,87.9,172.7,88.2z M75.1,106.3
				c0,0.2,0,0.3,0,0.5c0.6,0.1,0.6,0.1,0.7-0.4C75.6,106.4,75.4,106.4,75.1,106.3z M26.7,45.3c0.1,0,0.1,0.1,0.2,0.1
				c0.1-0.1,0.3-0.2,0.3-0.3c0.1-0.2,0.2-0.4-0.3-0.5C26.9,44.9,26.8,45.1,26.7,45.3z M29.5,25.7c0,0,0.1,0,0.1,0c0-0.3,0-0.7,0.1-1
				c-0.1,0-0.1,0-0.2,0C29.5,25,29.5,25.4,29.5,25.7z M95.2,87.2c0.1,0,0.1,0,0.2,0c0.1-0.2,0.2-0.4,0.3-0.7c-0.2,0-0.4,0-0.5,0
				C95.2,86.9,95.2,87.1,95.2,87.2z M41.7,59.1c0.1-0.2,0.2-0.3,0.3-0.5c0.1-0.2,0.2-0.3,0.3-0.5c-0.1,0-0.1-0.1-0.2-0.1
				C41.9,58.3,41.8,58.7,41.7,59.1z M32,44.9c-0.6-0.4-0.7-0.3-1.1,0.1C31.3,44.9,31.6,44.9,32,44.9z M166.4,101.2
				C166.4,101.2,166.4,101.2,166.4,101.2c0.4,0.1,0.8,0.1,1.2,0.1c0,0,0-0.1,0-0.1C167.2,101.2,166.8,101.2,166.4,101.2z M51.5,58.9
				c0,0-0.1-0.1-0.1-0.1c-0.1,0.2-0.2,0.4-0.3,0.6c0,0,0.1,0,0.1,0.1C51.3,59.3,51.4,59.1,51.5,58.9z M71.3,76.3
				C71.3,76.4,71.4,76.4,71.3,76.3c0.1,0.1,0.1,0.1,0.1,0c0.1-0.1,0.1-0.3,0.1-0.4c0,0,0,0-0.1,0C71.4,76.1,71.4,76.2,71.3,76.3z
				 M70.8,77.6C70.8,77.7,70.9,77.7,70.8,77.6c0.1,0,0.2-0.1,0.2-0.2c0-0.1,0-0.2,0-0.3c0,0,0,0-0.1,0
				C70.9,77.3,70.9,77.5,70.8,77.6z M70.3,78.9c0,0,0.1,0,0.1,0.1c0.1-0.2,0.1-0.4,0.2-0.5c0,0-0.1,0-0.1,0
				C70.4,78.5,70.4,78.7,70.3,78.9z M39,84.1C39,84.2,39,84.2,39,84.1c-0.1,0.1-0.1,0.2,0,0.4c0,0,0,0,0,0C39,84.4,39,84.3,39,84.1z
				"/>
			<path fill-rule="evenodd" clip-rule="evenodd" fill="#003140" d="M101.5,153.1c0,0.5,0.1,0.8,0,1.1c-0.2,0.8-0.7,1.3-1.5,1.4
				c-0.9,0.2-1.9,0.3-2.8,0.5c-2.3,0.3-4.5,0.7-6.8,1c-0.4,0.1-0.8,0.1-1,0.5c-0.1,0.2-0.5,0.3-0.8,0.3c-1.2,0.1-2.3-0.9-2.3-2
				c-0.1-2.5-0.2-5-0.3-7.5c0-0.4-0.1-0.7-0.1-1.1c0-0.2,0-0.4,0-0.5c0-0.6,0.1-1.1,0.2-1.7c0.1-1.7,0.2-3.3,0.3-5
				c0-0.2,0-0.5-0.1-0.5c-0.6-0.3-0.5-1-0.6-1.5c-0.2-0.5,0-1.1,0.5-1.4c0.8-0.4,1.7-0.9,2.7-0.4c0.4,0.2,1,0.2,1.4-0.1
				c0.6-0.4,1.2-0.5,1.8,0c0.1,0.1,0.4,0.1,0.6,0.1c1.7,0,3.4,0,5-0.4c0.6-0.1,1.1-0.1,1.7,0c0.6,0.1,0.9,0.4,0.9,1
				c0.1,0.4,0,0.7,0.1,1.1c0.1,2.1,0.1,4.2,0.2,6.3c0.2,2.1,0.5,4.2,0.7,6.2C101.4,151.3,101.5,152.2,101.5,153.1z M99,145.7
				c-0.2-2.7-0.3-5.5-0.5-8.4c-1.4,0.1-2.8,0.4-4,0.5c-0.6,1.3-1.2,2.6-1.8,3.9c0.1,0,0.1,0.1,0.2,0.1c0.4-0.6,0.8-1.1,1.2-1.7
				c0.2-0.2,0.3-0.4,0.5-0.6c0.3-0.4,0.7-0.4,1-0.3c0.4,0.2,0.5,0.6,0.4,1c-0.1,0.3-0.2,0.6-0.3,0.9c-1,2-2,4-2.9,6
				c-0.1,0.3-0.2,0.5-0.4,0.8c0.3-0.1,0.5-0.3,0.6-0.5c1.1-1.3,2.3-2.6,3.4-3.9c0.2-0.3,0.5-0.5,0.8-0.7c0.3-0.2,0.6-0.2,0.8,0
				c0.3,0.2,0.4,0.5,0.3,0.8c-0.1,0.3-0.2,0.5-0.3,0.8c-0.8,1.4-1.5,2.8-2.3,4.2c-0.1,0.2-0.2,0.4-0.3,0.6c0,0,0.1,0,0.1,0.1
				C96.5,148,97.7,146.9,99,145.7z M97.6,149.3c0,0-0.1,0-0.1-0.1c-0.2,0.2-0.4,0.3-0.6,0.5c-1.1,1.1-2.1,2.1-3.2,3.2
				c-0.3,0.3-0.6,0.5-0.9,0.8c-0.3,0.2-0.7,0.3-1.1,0.1c-0.3-0.2-0.5-0.6-0.3-1.1c0.1-0.2,0.2-0.5,0.3-0.7c0.4-0.7,0.8-1.3,1.1-2
				c0.1-0.1,0.1-0.3,0.2-0.4c-1.3,1.4-2.5,2.8-3.7,4.2c-0.2,0.3-0.2,0.6-0.1,0.8c1.6,0,3.2-0.1,4.8-0.1c1.6,0,3.1-0.1,4.7-0.2
				c-0.4-0.2-0.9-0.3-1.3-0.4c-1-0.3-1.3-1-1-1.9c0.1-0.4,0.3-0.8,0.5-1.2C97.2,150.3,97.4,149.8,97.6,149.3z M99.5,149.4
				c-0.1,0-0.1,0-0.2,0c-0.1,0.3-0.3,0.6-0.4,0.8c-0.1,0.3-0.2,0.6-0.4,0.9c0.5-0.1,0.8-0.2,1.2-0.2
				C99.6,150.4,99.5,149.9,99.5,149.4z M91.7,138.8c-0.9,0-1.5,0.8-1.7,2.1C90.6,140.2,91.1,139.5,91.7,138.8z M90.3,148.2
				c0,0-0.1,0-0.1,0c-0.3,0.2-0.7,0.5-1,0.7c0,0.4,0,0.8,0.1,1.4C89.6,149.5,89.9,148.9,90.3,148.2z M89.9,143.8
				c-0.9,0.8-0.9,0.8-0.7,1.7C89.5,144.8,89.7,144.3,89.9,143.8z"/>
			<path fill-rule="evenodd" clip-rule="evenodd" fill="#003140" d="M141.2,120.8c0-2.6,0-5.1-0.1-7.7c0-0.8-0.2-1.6-0.7-2.3
				c-0.1-0.1-0.1-0.4-0.1-0.6c0.2-0.6,0.6-1,1.3-1.1c0.5-0.1,0.9-0.3,1.2-0.7c0.2-0.2,0.5-0.3,0.8-0.4c1.4-0.4,2.8-0.6,4.2-0.5
				c2,0.2,3.9,0.1,5.9,0c0.3,0,0.7,0,1,0c0.8,0,1.3,0.3,1.5,1.1c0.2,0.7,0.4,1.4,0.5,2.1c0.1,1.9,0.2,3.8,0.3,5.7
				c0.1,3.3,0.5,6.6,1.1,9.8c0.1,0.6,0,1.3-0.1,1.9c-0.1,0.6-0.5,0.9-1.1,1c-0.6,0.1-1.2,0.2-1.8,0.2c-1.7,0.1-3.3,0.2-5,0.3
				c-1.9,0.2-3.7,0.5-5.6,0.7c-0.6,0.1-1.3,0.1-1.9,0.1c-0.7,0-1.1-0.4-1.3-1.1c0-0.2,0-0.5,0-0.7c0-2.6-0.1-5.2-0.1-7.8
				C141.2,120.8,141.2,120.8,141.2,120.8z M149.1,122.8c0,0,0.1,0.1,0.1,0.1c0.6-0.5,1.2-0.9,1.9-1.4c0.4-0.3,0.8-0.6,1.3-0.8
				c0.9-0.4,1.9,0,2.2,0.9c0.1,0.3,0.2,0.7,0.1,1c-0.2,0.9-0.4,1.8-0.8,2.7c-0.3,0.7-1.1,1-1.9,0.8c-0.7-0.2-1.2-0.9-1.1-1.6
				c0-0.2,0.1-0.5,0.2-0.8c-0.5,0.3-0.9,0.5-1.3,0.8c-1,0.7-1.9,1.4-2.8,2.1c-0.3,0.2-0.5,0.4-0.8,0.6c-0.3,0.2-0.7,0.3-1.1,0
				c-0.3-0.2-0.4-0.7-0.1-1.1c0.2-0.3,0.4-0.6,0.6-0.9c0.6-0.8,1.2-1.6,1.7-2.5c-1.4,0.8-2.3,2.2-3.8,2.8c0,0.6,0,1.1,0,1.7
				c0,0.5-0.1,1.1,0.1,1.6c1.3-0.2,2.6-0.4,3.9-0.6c1.9-0.2,3.7-0.2,5.6-0.3c0.4,0,0.8-0.1,1.2-0.1c0.4,0,0.6-0.2,0.6-0.6
				c0.1-1.2,0.3-2.3,0.3-3.5c0.1-3.2,0.1-6.4,0.1-9.6c0-1.2-0.1-2.3-0.2-3.5c-1.3-0.2-2.5,0.1-3.6,0.1c-0.2,0.3-0.4,0.6-0.6,0.8
				c-0.2,0.1-0.5,0.3-0.7,0.2c-1-0.1-1.8,0.2-2.4,0.8c-1.6,1.5-2.8,3.3-3.9,5c-0.2,0.3-0.3,0.6-0.1,1.1c0.5-0.3,1-0.6,1.4-0.9
				c1.9-1.5,3.8-3,5.7-4.5c0.2-0.2,0.4-0.4,0.7-0.5c0.4-0.2,0.8-0.1,1,0.2c0.2,0.3,0.2,0.7,0,1c-0.2,0.2-0.3,0.3-0.5,0.5
				c-0.4,0.4-0.8,0.7-1.2,1.1c-1.5,1.9-3,3.8-4.5,5.7c-0.1,0.1-0.2,0.3-0.3,0.5c1-0.7,1.8-1.5,2.7-2.2c0.7-0.6,1.4-1.3,2.1-1.9
				c0.3-0.3,0.7-0.3,1.1-0.1c0.3,0.2,0.5,0.6,0.3,1.1c-0.1,0.3-0.3,0.6-0.5,0.9C150.8,120.4,149.9,121.6,149.1,122.8z M146.8,111
				c-1.1,0.1-2,0.3-2.9,0.6c-0.1,0-0.3,0.2-0.3,0.4c-0.1,0.3,0,2.5,0.1,2.8C144.7,113.5,145.7,112.3,146.8,111z M145.6,119.2
				C145.6,119.2,145.5,119.2,145.6,119.2c-0.6,0.2-1.2,0.5-1.7,0.8c-0.1,0.1-0.3,0.2-0.3,0.3c0,0.5-0.1,1.1,0.1,1.7
				C144.4,121.1,145,120.2,145.6,119.2z M156.4,127.5c0,0,0.1,0,0.1,0c0-0.2,0.1-0.3,0.1-0.5c0,0-0.1,0-0.1,0
				C156.5,127.2,156.5,127.4,156.4,127.5z"/>
			<path fill-rule="evenodd" clip-rule="evenodd" fill="#003140" d="M87.6,129.4c-0.2,0.2-0.2,0.3-0.4,0.4c-0.5,0.3-1.1,0.2-1.2-0.4
				c-0.1-0.2-0.1-0.5-0.1-0.8c0-2.8-0.1-5.6-0.3-8.4c-0.2-2.1-0.4-4.3-0.6-6.4c0-0.2-0.1-0.5-0.1-0.7c-0.4-1.1,0.2-2.2,1.4-2.5
				c1.3-0.4,2.7-0.6,4.1-0.6c2.5,0,5,0,7.5,0c1.2,0,1.6,0.4,1.6,1.5c0.1,2.6,0.1,5.2,0.1,7.8c0,1.1,0,2.3,0.1,3.4
				c0.1,1.3,0.2,2.6,0.6,3.8c0.1,0.3,0.1,0.5,0.1,0.8c0.1,0.8-0.3,1.3-1.1,1.5c-0.6,0.1-1.2,0.1-1.8,0.2c-0.8,0-1.6,0.1-2.4,0
				c-1.7-0.1-3.4,0.3-5.1,0.6c-0.1,0-0.3,0-0.4,0.1C89,130,88.3,130,87.6,129.4z M96.1,121.8c0,0-0.1-0.1-0.1-0.1
				c-0.2,0.2-0.4,0.4-0.6,0.6c-1,1.1-2,2.2-3,3.3c-0.3,0.3-0.5,0.5-0.8,0.8c-0.3,0.2-0.7,0.2-0.9,0c-0.2-0.2-0.3-0.5-0.3-0.8
				c0-0.3,0.2-0.6,0.3-0.9c0.9-1.7,1.8-3.3,2.6-5c0.1-0.2,0.2-0.5,0.4-0.8c-0.4,0.3-0.7,0.7-1,1c-0.4,0.6-0.9,1.2-1.3,1.8
				c-0.5,0.6-0.9,0.7-1.3,0.5c-0.4-0.2-0.5-0.7-0.1-1.3c0.3-0.5,0.6-1,0.8-1.5c0.1-0.2,0.2-0.5,0.4-0.8c-0.9,0.8-1.7,1.6-2.5,2.4
				c-0.1,0.1-0.2,0.4-0.2,0.7c0,1.4,0.1,2.8,0.1,4.2c0,0.3,0.1,0.6,0.1,0.9c2,0.1,3.8,0.8,5.8,0.1c-0.7-1-0.5-1.9,0.1-2.7
				c0.2-0.3,0.4-0.6,0.6-0.9C95.5,122.8,95.8,122.3,96.1,121.8z M94.6,120.8C94.6,120.8,94.6,120.8,94.6,120.8
				c1-0.8,1.9-1.7,2.9-2.6c0-0.4,0-0.9,0-1.4c0-0.5,0-1-0.1-1.7C96.4,117.1,95.5,119,94.6,120.8z M92.6,113.8
				c-0.8-0.2-1-0.2-1.4,0.5c-0.7,1.2-1.3,2.4-2,3.7c0.2,0,0.4-0.1,0.5-0.3c1.2-1.4,2.3-2.8,3.5-4.2c0,0,0,0,0-0.1c0,0,0,0-0.1-0.1
				C93,113.5,92.8,113.7,92.6,113.8z M98.1,111.8c-0.1-0.1-0.1-0.3-0.1-0.3c-1.6-0.1-3.3-0.1-5,0.1c0,0.1,0.1,0.2,0.2,0.2
				C94.8,111.8,96.4,111.8,98.1,111.8z M89.1,113.4c0,0.5,0,1,0,1.6c0.3-0.6,0.6-1.1,0.9-1.6C89.6,113.4,89.4,113.4,89.1,113.4z
				 M97.4,125.1c0-0.6,0-1.1,0-1.6C96.9,124.5,96.9,124.6,97.4,125.1z M90.5,111.7c-0.7-0.2-1.3-0.1-2,0.1
				C89.2,111.8,89.9,111.9,90.5,111.7z M96.1,113.4c-0.5,0.1-0.5,0.1-0.5,0.6C95.8,113.8,95.9,113.6,96.1,113.4z"/>
			<path fill-rule="evenodd" clip-rule="evenodd" fill="#003140" d="M122.4,110.5c0.1-0.7,0.4-1.1,1-1.4c0.3-0.1,0.5-0.3,0.8-0.5
				c0.5-0.5,1.1-0.7,1.8-0.5c2.4,0.8,4.9,0.6,7.4,0.5c0.7,0,1.4-0.1,2-0.1c1.2,0.1,1.5,0.5,1.5,1.6c0,5.3-0.1,10.7-0.1,16
				c0,0.5-0.1,1-0.1,1.5c-0.2,0.9-0.6,1.3-1.5,1.4c-1.5,0.1-3,0.1-4.5,0.2c-2,0.1-4.1,0.2-6.1,0.3c-0.2,0-0.4,0-0.6,0
				c-1.2,0-1.8-0.6-1.8-1.7c0-0.6,0.1-1.2,0.1-1.8c0.1-2.7,0.3-5.3,0.4-8c0.1-2.2,0-4.4,0.5-6.5c0.1-0.3,0-0.5-0.3-0.6
				C122.8,110.6,122.6,110.6,122.4,110.5z M130.4,111.6c-0.1,0.1-0.3,0.1-0.4,0.2c-0.6,0.3-0.6,0.2-1.1-0.2
				c-1.3,0.3-3.5,3.4-3.8,5.3c0.2-0.1,0.3-0.2,0.4-0.3c1.5-1.5,3.1-3,4.6-4.6C130.3,111.9,130.4,111.8,130.4,111.6
				c0.3-0.1,0.6-0.3,0.6-0.6c-0.1,0-0.1-0.1-0.2-0.1C130.7,111.1,130.6,111.3,130.4,111.6z M131.8,125.8c0,0,0.1,0.1,0.1,0.1
				c1.3-0.6,2.4-0.7,3.2,0.9c0.1-0.4,0.1-0.5,0.1-0.7c0-0.9,0.1-1.8,0.1-2.7c0-3.8,0-7.7,0-11.5c0-0.1,0-0.3,0-0.4
				c0-0.4-0.2-0.5-0.5-0.5c-0.6,0-1.2-0.1-1.8-0.1c-0.2,0.4-0.3,0.7-0.5,1c-1.8,2.3-3.2,4.8-4.6,7.3c-0.1,0.2-0.2,0.3-0.3,0.5
				c0.3-0.1,0.4-0.3,0.6-0.4c1.5-1.5,3.1-3.1,4.6-4.6c0.3-0.3,0.6-0.5,0.9-0.7c0.4-0.3,0.8-0.3,1.1,0c0.3,0.2,0.3,0.6,0.1,1.1
				c-0.1,0.2-0.2,0.4-0.4,0.6c-0.8,1-1.6,2.1-2.4,3.1c-1.3,1.7-2.7,3.3-4,5c-0.1,0.1-0.2,0.3-0.3,0.5c0.4-0.1,0.7-0.3,1-0.6
				c1.3-0.9,2.5-1.8,3.8-2.7c0.4-0.3,0.8-0.5,1.2-0.6c0.7-0.2,1.2,0.4,1,1c-0.1,0.3-0.3,0.6-0.5,0.8c-0.6,0.8-1.2,1.6-1.7,2.4
				C132.3,124.9,132.1,125.3,131.8,125.8z M128.8,127c0.8-1.1,1.5-2.1,2.3-3.1c-0.8,0.5-1.5,1-2.2,1.5c-0.7,0.5-1.4,1-2.1,1.5
				c0,0,0,0.1,0.1,0.1C127.5,127,128.1,127,128.8,127z M124.8,121.2c0,0,0.1,0,0.1,0.1c0.7-1.2,1.3-2.4,2-3.6
				c-0.6,0.3-1.2,0.8-1.7,1.1c-0.3,0.2-0.4,0.4-0.4,0.7C124.8,120.1,124.8,120.6,124.8,121.2z M125.1,111.4
				c-0.3,0.5-0.4,1.1-0.2,2.1c0.6-0.8,1.1-1.5,1.6-2.2c0,0-0.1-0.1-0.1-0.1c-0.3,0.2-0.6,0.3-0.8,0.5
				C125.4,111.5,125.3,111.4,125.1,111.4z M124.5,124.1c0.2,0.9-0.3,1.8-0.1,2.7c0.2-1.3,1.1-2.1,1.7-3.2
				C125.6,123.8,125.2,123.9,124.5,124.1z"/>
			<path fill-rule="evenodd" clip-rule="evenodd" fill="#003140" d="M119.5,139.6c0.1,2.2,0.3,4.4,0.5,6.6c0.2,1.7,0.4,3.5,1.2,5.1
				c0,0.1,0.1,0.1,0.1,0.2c0.5,1.4,0.1,2-1.4,2.2c-0.4,0-0.9,0-1.3,0c-2.7,0.1-5.3,0.1-8,0.5c-0.5,0.1-1,0-1.5-0.1
				c-0.7-0.1-1-0.4-1.1-1.1c-0.1-1.2-0.3-2.5-0.3-3.7c-0.2-3.1-0.4-6.2-0.5-9.3c0-0.7,0-1.3-0.1-2c0-0.3-0.1-0.6-0.2-0.9
				c-0.3-0.6-0.2-0.9,0.3-1.4c0.4-0.3,0.8-0.5,1.3-0.4c2.7,0.2,5.3-0.1,7.9-0.6c0.6-0.1,1.2-0.3,1.8-0.3c1.1,0,1.5,0.4,1.4,1.4
				C119.6,137,119.6,138.3,119.5,139.6C119.6,139.6,119.5,139.6,119.5,139.6z M113.5,149.8c-0.2,0.2-0.3,0.4-0.5,0.6
				c-0.2,0.2-0.4,0.5-0.6,0.7c-0.3,0.3-0.6,0.3-1,0.2c-0.3-0.2-0.5-0.5-0.4-1c0-0.2,0.1-0.3,0.2-0.5c0.7-1.6,1.4-3.2,2-4.8
				c0.1-0.2,0.1-0.4,0.2-0.5c-0.8,0.9-1.5,1.9-2.2,2.8c-0.4,0.6-0.8,1.2-1.5,1.3c0,1.1,0,2.1,0,3.2c0.3,0,0.5,0.1,0.8,0
				c1.6-0.1,3.3-0.3,4.9-0.5c0,0,0.1-0.1,0.2-0.1c0-0.2-0.1-0.3-0.1-0.5c0,0-0.1-0.1-0.1-0.1C114,151.4,113.5,150.8,113.5,149.8z
				 M113.8,141C113.8,141,113.9,141,113.8,141c0.5-0.4,0.9-0.9,1.3-1.4c0.5-0.6,1-0.9,1.9-0.3c-0.3-0.9-0.5-1.5-0.8-2.2
				c-0.4,0.1-0.7,0.2-1,0.3C114.8,138.6,114.3,139.8,113.8,141z M117.1,139.8c-0.7,1.7-1.4,3.3-2,4.8c1-0.8,1.4-2.1,2.6-2.6
				C117.5,141.4,117.4,140.7,117.1,139.8z M113.1,137.9c0-0.1-0.1-0.1-0.1-0.2c-0.2,0.1-0.5,0.2-0.6,0.3c-0.4,0.5-0.8,1-1.1,1.4
				c-0.4,0.6-0.9,1.8-1,2.6C111.2,140.7,112.2,139.3,113.1,137.9z M118.2,146.6c0-1.2,0-1.3-0.3-1.8c-0.3,0.7-0.7,1.4-1,2.2
				C117.4,146.8,117.8,146.7,118.2,146.6z M109.9,137.9c-0.8,0.6-0.9,1.2-0.6,2C109.5,139.2,109.7,138.6,109.9,137.9z M110.4,144.6
				c-1,0.6-1,0.6-0.8,1.5C109.9,145.6,110.1,145.1,110.4,144.6z"/>
			<path fill-rule="evenodd" clip-rule="evenodd" fill="#003140" d="M109.6,109c0.5-0.2,0.9-0.4,1.3-0.4c0.4,0,0.8,0.1,1.1,0.3
				c0.4,0.3,0.8,0.4,1.2,0.3c0.6,0,1.2,0.1,1.7,0.3c0.3,0.1,0.7,0.2,1,0.3c1,0.2,1.3,0.6,1.3,1.5c0,3.4,0,6.7,0,10.1
				c0,1.3,0.1,2.7,0.2,4c0,0.1,0,0.1,0,0.2c-0.2,0.9-0.3,1.9-0.6,2.8c-0.1,0.4-0.5,0.7-0.9,0.7c-0.6,0.1-1.1,0.1-1.7,0.1
				c-1.3,0-2.6,0-3.9,0.1c-0.9,0.1-1.8,0.2-2.8,0.3c-0.6,0.1-1.3,0.1-1.9,0c-0.8-0.1-1.2-0.6-1.3-1.3c0-0.2,0-0.5,0-0.7
				c0-4.6,0-9.3,0-13.9c0-0.5,0-0.9-0.6-1.3c-0.6-0.3-0.7-1-0.5-1.6c0.2-0.6,0.6-0.9,1.3-1.2c1-0.3,2-0.4,3-0.5
				c0.2,0,0.4-0.1,0.5-0.2C108.9,108.8,108.9,108.8,109.6,109z M109.5,119.4c0.1,0,0.1,0.1,0.2,0.1c0.7-0.8,1.3-1.5,2-2.3
				c0.2-0.2,0.4-0.5,0.7-0.7c0.3-0.3,0.8-0.3,1.1-0.1c0.3,0.3,0.4,0.6,0.3,1c-0.1,0.3-0.3,0.5-0.4,0.8c-1.5,2.4-2.9,4.8-4.4,7.2
				c-0.2,0.3-0.3,0.6-0.5,1c0.2-0.1,0.3-0.1,0.4-0.2c1.8-1.8,3.7-3.6,5.5-5.3c0.1-0.1,0.2-0.4,0.2-0.6c0-2.6,0-5.1,0-7.7
				c0-0.2,0-0.5-0.1-0.7c-0.9,0-1.8,0-2.6,0c-0.5,0-0.8,0.2-1.1,0.5c-1.2,1.3-2.1,2.7-3,4.2c0,0,0,0.1,0,0.3
				c0.8-0.7,1.5-1.4,2.3-2.1c0.3-0.2,0.5-0.5,0.8-0.7c0.4-0.3,0.9-0.4,1.2-0.1c0.3,0.2,0.4,0.6,0.2,1.1c0,0.1-0.1,0.2-0.2,0.4
				c-0.4,0.6-0.7,1.2-1.1,1.9C110.4,118,110,118.7,109.5,119.4z M108.6,112c-0.2,0-0.3,0-0.4-0.1c-0.6-0.1-1,0.3-1.5,0.3
				c-0.4,0.1-0.6,0.3-0.6,0.6c0,0.8,0,1.7,0,2.5c0,0.2,0,0.3,0.1,0.5C107,114.6,108,113.4,108.6,112z M112.4,127.7
				c-0.6-0.6-0.9-1.2-0.6-2c-0.8,0.6-1.8,1.6-2.1,2C110.6,127.7,111.5,127.7,112.4,127.7z M106.2,121.7c0,0,0.1,0,0.1,0
				c0.6-1.1,1.2-2.1,1.9-3.2c0,0-0.1,0-0.1-0.1c-0.7,0.4-1.3,0.8-2,1.3C106.2,120.4,106.2,121,106.2,121.7z M108.4,123.3
				c-0.6,0.3-1.1,0.9-2,0.9c0.1,0.8,0.2,1.4,0.2,2.1c0.1,0,0.1,0,0.2,0C107.3,125.3,107.8,124.3,108.4,123.3z"/>
			<path fill-rule="evenodd" clip-rule="evenodd" fill="#003140" d="M150,148.4c1,0,1.8,0.3,2.4,1.1c0.4,0.5,0.7,1.1,0.5,1.7
				c-0.2,0.9-0.4,1.8-0.8,2.6c-0.3,0.6-0.7,1.1-1.2,1.5c-1.3,1-2.2,1-3.9,0.2c-0.7-0.3-0.9-1-0.8-1.7c0.1-1.2,0.4-2.3,1.4-3.2
				c0.2-0.2,0.3-0.5,0.5-0.8C148.5,148.9,149,148.4,150,148.4z"/>
		</g>
	</g>
</g>
</svg>
