<?xml version="1.0" encoding="utf-8"?>
<!-- Generator: Adobe Illustrator 16.0.0, SVG Export Plug-In . SVG Version: 6.00 Build 0)  -->
<!DOCTYPE svg PUBLIC "-//W3C//DTD SVG 1.1//EN" "http://www.w3.org/Graphics/SVG/1.1/DTD/svg11.dtd">
<svg version="1.1" id="Layer_1" xmlns="http://www.w3.org/2000/svg" xmlns:xlink="http://www.w3.org/1999/xlink" x="0px" y="0px"
	 width="841.9px" height="595.3px" viewBox="0 0 841.9 595.3" enable-background="new 0 0 841.9 595.3" xml:space="preserve">
<rect x="-2857.667" y="653.126" fill="#326187" width="733.897" height="327.924"/>
<text transform="matrix(1 0 0 1 1971.2939 522.5142)" fill="#E0E1E2" font-family="'HelveticaNeue-Light'" font-size="124.1219">SAV</text>
<text transform="matrix(1 0 0 1 2201.2939 522.5142)" fill="#FFFFFF" font-family="'HelveticaNeue-Light'" font-size="124.1219">ENERGY</text>
<text transform="matrix(1 0 0 1 2981.7246 522.5142)" fill="#E0E1E2" font-family="'HelveticaNeue-Light'" font-size="124.1219">SAV</text>
<text transform="matrix(1 0 0 1 3211.7246 522.5142)" fill="#FFFFFF" font-family="'HelveticaNeue-Light'" font-size="124.1219">ENERGY</text>
<path fill="#E0E1E2" d="M2534.36,40.9c-45.201,0-86.4,18.4-116,48.2l-207.201,203.1c-22.199,22.2-53.101,36.1-87.101,36.1
	c-67.898,0-123-55.3-123-123.2s55.302-123.2,123-123.2c34,0,64.701,13.7,87.101,36.1l21.103,20.6c-3.4,7.8-11.802,28.8-11.802,37.8
	c0,17,11.699,23,27.802,36l87.1-87.1c-6.5-14.2-16.4-27-33.301-27c-9.9,0-32.9,6.2-41.199,10.5l-20.4-19.8
	c-29.801-29.8-70.8-48.2-116-48.2c-90.5,0-164,73.7-164,164.2s73.7,164.201,164,164.201c45.2,0,86.4-18.399,116-48.201l207-202.7
	c22.199-22.3,53.101-36.2,86.9-36.2c67.9,0,123,55.3,123,123.2c0,67.9-55.301,123.2-123,123.2c-24.201,0-46.6-7-65.6-19.198
	c2.5-6.9,7.1-27.2,7.1-35c0-17-9.801-19.2-21-30.4l-15.701,15.7l-41-41l-14.5,14.5l41,41l-26.6,26.602l-41-41l-14.5,14.5l41,41
	l-15.7,15.697c11.198,11.2,9.299,15.6,26.198,15.6c11.201,0,38.802-0.6,47.802-5.699c26.399,18.101,58.198,28.699,92.5,28.699
	c90.5,0,164-73.7,164-164.2C2698.561,114.6,2624.86,40.9,2534.36,40.9z"/>
<path fill="#FFFFFF" d="M-342.6-261.6c-45.2,0-86.4,18.4-116,48.2L-665.8-10.3c-22.2,22.2-53.1,36.1-87.1,36.1
	c-67.9,0-123-55.3-123-123.2s55.3-123.2,123-123.2c34,0,64.7,13.7,87.1,36.1l21.1,20.6c-3.4,7.8-5.4,16.3-5.4,25.3
	c0,17,6.9,32.3,18.1,43.5l87.1-87.1c-11.2-11.2-26.6-18.1-43.5-18.1c-9.9,0-19.3,2.3-27.6,6.7l-20.4-20.1
	c-29.8-29.8-70.8-48.2-116-48.2c-90.5,0-164,73.7-164,164.2s73.7,164.2,164,164.2c45.2,0,86.4-18.4,116-48.2l207-202.7
	c22.2-22.2,53.1-36.1,86.9-36.1c67.9,0,123,55.3,123,123.2c0,67.9-55.3,123.2-123,123.2c-24.2,0-46.6-7-65.6-19.2
	C-405.7,0-404-7.2-404-15c0-17-6.9-32.3-18.1-43.5l-15.7,15.7l-41-41l-14.5,14.5l41,41l-26.6,26.6l-41-41l-14.5,14.5l41,41
	L-509,28.4c11.2,11.2,26.6,18.1,43.5,18.1c11.2,0,21.5-3.1,30.5-8.1c26.4,18.1,58.2,28.7,92.5,28.7c90.5,0,164-73.7,164-164.2
	C-178.4-187.9-252.1-261.6-342.6-261.6z"/>
<g>
	<path fill="#E0E1E2" d="M-1322.472,258.055c-31.961-31.961-74.104-48.083-116.106-47.942l-290.126-2.899
		c-31.395,0-63.074-12.021-87.115-36.062c-48.013-48.012-47.871-126.077,0.142-174.09c48.012-48.012,126.218-48.013,174.09-0.142
		c24.042,24.042,36.062,55.438,36.062,87.116l0.354,29.487c-7.919,3.111-28.708,12.021-35.072,18.385
		c-12.021,12.021-7.991,24.536-5.798,45.113h123.178c5.444-14.637,7.496-30.688-4.455-42.639c-7-7-27.648-18.88-36.558-21.708
		l-0.424-28.425c0-42.144-15.98-84.146-47.941-116.107c-63.994-63.993-168.08-63.852-232.073,0.142
		c-63.993,63.994-63.993,168.221-0.142,232.073c31.961,31.961,74.105,48.083,116.108,47.941l289.702,3.041
		c31.466-0.071,63.144,11.95,87.044,35.85c48.013,48.014,47.871,126.077-0.141,174.09c-48.014,48.012-126.219,48.012-174.09,0.141
		c-16.335-16.334-26.937-35.768-32.055-56.709c-0.243-0.998,39.66-33.81,39.66-33.81s0-9.679,0-25.519h-22.203V287.4h-20.506v57.982
		h-12.093v-53.785h-13.5l-0.001,53.787h-12.024V287.4h-20.506v57.982h-22.203c0,15.839-0.012,25.518-0.012,25.518
		s30.165,25.5,41.337,33.809c5.869,31.467,20.86,61.447,45.114,85.701c63.993,63.994,168.079,63.852,232.072-0.143
		C-1258.479,426.277-1258.479,322.046-1322.472,258.055z"/>
	<path fill="#E0E1E2" d="M-1557.89,404.708"/>
	<rect x="-1713.444" y="404.15" fill="#5690BF" width="42.051" height="10.75"/>
	<rect x="-1732.738" y="423.4" fill="#5690BF" width="78.639" height="10.75"/>
</g>
<path fill="#E0E1E2" d="M-496.319,798.24l40.486-37.811c0,0,0-21.678,0-37.518h-15.203v-57.982h-20.506v57.982h-15.562v-63.785
	h-20.506l-0.001,63.787h-15.549v-57.984h-20.506v57.984l-15.203-0.002c0,15.84-0.012,37.518-0.012,37.518l40.512,37.811v4.953
	h42.051L-496.319,798.24L-496.319,798.24z"/>
<path fill="#E0E1E2" d="M-1022.089,667.451l-39.868,29.646c0,0,0,11.613,0,27.367h14.971v45.73h20.193v-45.73h15.325v51.502h20.193
	l0.001-51.504h15.311v45.732h20.193v-45.732l14.971,0.002c0-15.754,0.012-27.367,0.012-27.367l-39.893-29.646l-1-4.928h-40.409
	V667.451L-1022.089,667.451z"/>
<path fill="#E0E1E2" d="M-980.742,935.328l40.087-39.811c0,0,0-1.678,0-17.518h-121.54c0,15.84-0.012,17.518-0.012,17.518
	l40.112,39.811v4.953h41.353V935.328z"/>
<path fill="#E0E1E2" d="M-741.563,844.542c-31.962-31.963-74.105-48.084-116.108-47.941l-76.54-0.012v0.037l-210.922,0.074
	c-31.396,0-63.074-12.021-87.115-36.062c-48.013-48.012-47.871-126.076,0.142-174.09c48.012-48.012,126.218-48.012,174.09-0.141
	c24.042,24.041,36.062,55.438,36.062,87.113l0.354,29.486c-7.919,3.111,50.204,1.98,41.295-0.848l-0.424-28.426
	c0-42.145-15.98-84.146-47.941-116.107c-63.994-63.994-168.08-63.852-232.073,0.141c-63.993,63.994-63.993,168.223-0.142,232.074
	c31.961,31.961,74.105,48.082,116.108,47.941l228.328,0.031l0.038-0.111l59.096-0.021c31.396,0,63.074,12.021,87.115,36.062
	c48.013,48.012,47.871,126.076-0.142,174.09c-48.012,48.012-126.218,48.012-174.09,0.141
	c-24.041-24.041-36.062-55.438-36.062-87.113l-0.354-29.486c7.919-3.111-50.204-1.98-41.295,0.848l0.424,28.426
	c0,42.145,15.98,84.146,47.941,116.107c63.993,63.994,168.08,63.852,232.073-0.141S-677.712,908.394-741.563,844.542z"/>
<rect x="-620.369" y="720.152" fill="#4D94CE" width="22.203" height="2.762"/>
<rect x="-1026.625" y="940.285" fill="#5D5D5D" width="50.8" height="7.662"/>
<rect x="-1026.625" y="952.619" fill="#5D5D5D" width="50.8" height="7.662"/>
<rect x="3415.183" y="266.1" transform="matrix(0.707 0.7072 -0.7072 0.707 1209.6038 -2333.7532)" fill="#E0E1E2" width="12.539" height="53.834"/>
<path fill="#E0E1E2" d="M3212.953,114.019l-7.229,49.154c0,0,8.212,8.212,19.353,19.351l10.586-10.586l32.337,32.337l14.278-14.278
	l-32.338-32.337l10.836-10.837l36.418,36.418l14.278-14.278l-36.417-36.42l10.826-10.826l32.337,32.337l14.278-14.278
	l-32.336-32.337l10.586-10.586c-11.139-11.139-19.344-19.359-19.344-19.359l-49.17,7.246l-4.191-2.777l-28.573,28.572
	L3212.953,114.019z"/>
<path fill="#E0E1E2" d="M3431.605,274.199l-4.045-60.737c0,0-7.552-7.551-18.752-18.751l-85.94,85.942
	c11.199,11.199,18.742,18.761,18.742,18.761l60.756,4.025l3.503,3.503l29.241-29.241L3431.605,274.199z"/>
<path fill="#E0E1E2" d="M3536.537,40.88c-45.2,0-86.398,18.401-116.001,48.202l-54.129,54.114l0.024,0.025L3217.34,292.417
	c-22.199,22.2-53.1,36.101-87.1,36.1c-67.899,0.001-123-55.299-123-123.2c0-67.9,55.3-123.199,123-123.2
	c34,0,64.699,13.701,87.1,36.101l21.101,20.6c-3.398,7.799,36.899-34.101,28.6-29.8l-20.397-19.8c-29.801-29.8-70.801-48.2-116-48.2
	c-90.501-0.001-164,73.7-164,164.199c0,90.501,73.699,164.203,163.999,164.203c45.2,0,86.399-18.4,116.001-48.201l161.475-161.43
	l-0.051-0.105l41.771-41.802c22.199-22.2,53.101-36.101,87.101-36.1c67.899-0.001,122.999,55.299,123,123.2
	c0,67.899-55.3,123.2-123.001,123.2c-33.999,0-64.699-13.701-87.1-36.101l-21.101-20.6c3.399-7.799-36.899,34.1-28.601,29.801
	l20.398,19.799c29.801,29.801,70.801,48.2,116,48.2c90.502,0,164.001-73.701,164.002-164.2
	C3700.537,114.58,3626.837,40.88,3536.537,40.88z"/>
<rect x="3217.015" y="67.928" transform="matrix(0.7071 0.7071 -0.7071 0.7071 1011.1448 -2251.4265)" fill="#E0E1E2" width="12.539" height="53.837"/>
<path fill="#E0E1E2" d="M-2287.771,652.923c-45.201,0-86.4,18.4-116,48.201l-54.129,54.113l0.025,0.025l-149.092,149.197
	c-22.2,22.199-53.101,36.1-87.101,36.1c-67.898,0-122.999-55.299-123-123.199c0-67.9,55.3-123.199,123-123.199
	c27.305,0,52.479,8.842,72.937,23.924l-7.153,7.152l8.867,8.867l7.47-7.471c0.195,0.795,0.265,1.646,0.155,2.396l-6.355,43.217
	c-0.24,1.631,0.519,3.922,1.686,5.09l15.108,15.107c1.167,1.168,3.076,1.168,4.242,0l6.343-6.344c1.167-1.166,3.076-1.168,4.243,0
	l16.689,16.689c1.167,1.166,3.076,3.076,4.243,4.242l0.091,0.092c1.167,1.166,3.076,3.076,4.243,4.242l2.826,2.826
	c0.192,0.191,0.41,0.342,0.635,0.469c0.367,0.225,0.769,0.369,1.182,0.426l-0.024,0.023c0.077,0.002,0.153-0.006,0.229-0.006
	c0.161,0.012,0.322,0.008,0.483-0.008c3.24-0.074,6.452-1.316,8.92-3.787c2.483-2.482,3.824-5.783,3.803-8.992
	c0.012-0.162,0.011-0.324-0.003-0.484c-0.002-0.051,0.002-0.104-0.001-0.154l-0.012,0.014c-0.084-0.631-0.355-1.238-0.837-1.723
	l-2.829-2.828c-0.566-0.564-1.306-1.305-2.051-2.051l-0.021,0.021c-0.815-0.816-1.646-1.646-2.266-2.268l-0.091-0.09
	c-1.167-1.168-3.076-3.076-4.243-4.244l-16.69-16.688c-1.167-1.168-1.167-3.076,0-4.242l6.594-6.594
	c1.167-1.168,3.076-1.168,4.243,0l20.773,20.771c1.167,1.168,3.076,3.076,4.243,4.242l0.088,0.09
	c1.167,1.166,3.076,3.074,4.243,4.242l2.828,2.828c0.482,0.48,1.091,0.754,1.721,0.838l-0.023,0.021
	c0.076,0.004,0.153-0.004,0.229-0.004c0.161,0.012,0.322,0.008,0.482-0.008c3.24-0.074,6.452-1.318,8.92-3.787
	c2.482-2.482,3.824-5.785,3.803-8.992c0.012-0.162,0.01-0.322-0.004-0.484c-0.002-0.051,0.002-0.104-0.001-0.154l-0.012,0.012
	c-0.084-0.629-0.355-1.236-0.837-1.721l-2.829-2.828c-1.167-1.166-3.076-3.074-4.243-4.242l-25.104-25.105
	c-1.167-1.166-1.167-3.074,0-4.242l6.584-6.584c1.167-1.166,3.075-1.166,4.242,0l16.69,16.691c1.167,1.166,3.076,3.074,4.243,4.24
	l0.09,0.092c0.62,0.619,1.449,1.449,2.267,2.268c0.719,0.719,1.429,1.428,1.977,1.975l0.075,0.076l2.752,2.752l0.076,0.076
	c0.482,0.482,1.091,0.752,1.721,0.836l-0.023,0.023c0.076,0.004,0.153-0.004,0.229-0.004c0.162,0.012,0.322,0.008,0.483-0.01
	c3.239-0.072,6.452-1.316,8.92-3.783c2.483-2.484,3.824-5.785,3.803-8.994c0.012-0.162,0.01-0.324-0.003-0.484
	c-0.002-0.053,0.002-0.104-0.001-0.154l-0.012,0.014c-0.084-0.631-0.355-1.24-0.837-1.721l-0.077-0.078l-2.752-2.752l-0.075-0.074
	c-0.547-0.547-1.256-1.256-1.976-1.977c-0.817-0.816-1.646-1.646-2.267-2.266l-0.09-0.092c-1.167-1.166-3.076-3.074-4.243-4.242
	l-16.69-16.689c-1.167-1.168-1.167-3.076,0-4.242l6.344-6.344c1.167-1.166,1.167-3.074,0.001-4.242l-15.103-15.115
	c-1.166-1.168-3.455-1.926-5.087-1.686l-43.235,6.369c-0.749,0.111-1.633,0.076-2.484-0.062l7.785-7.785l-8.866-8.867l-9.076,9.076
	c-28.063-22.322-63.469-35.643-101.919-35.645c-90.501,0-164,73.701-164.001,164.201c0.001,90.5,73.701,164.201,164,164.201
	c45.201,0,86.399-18.4,116-48.201l161.475-161.43l-0.052-0.105l41.773-41.803c22.2-22.199,53.1-36.1,87.1-36.1
	c67.9,0,123,55.299,123,123.201c0,67.896-55.3,123.197-123,123.197c-33.999,0-64.7-13.699-87.099-36.1l-10.857-10.6l8.276-8.275
	l-8.867-8.867l-7.497,7.496c-0.237-1.141-0.338-2.211-0.338-2.211l-4.251-53.822c0.24-1.633-0.519-3.924-1.686-5.09l-15.107-15.109
	c-1.167-1.166-3.076-1.166-4.243,0l-81.428,81.43c-1.167,1.166-1.167,3.076-0.001,4.244l15.103,15.113
	c1.166,1.168,3.455,1.928,5.087,1.686l53.842,4.236c0,0,1.114,0.055,2.328,0.221l-7.419,7.418l8.867,8.867l8.156-8.156l10.735,10.42
	c29.8,29.801,70.8,48.201,116,48.201c90.5,0,164-73.701,164.001-164.199C-2123.771,726.625-2197.471,652.923-2287.771,652.923z"/>
<path fill="#FFFFFF" d="M623.898,46.864c-45.201,0-86.4,18.4-116,48.201l-54.132,54.114l0.025,0.026l-149.09,149.198
	c-22.2,22.199-53.1,36.101-87.101,36.101c-67.898,0-122.998-55.299-122.999-123.202c0-67.899,55.3-123.199,123.001-123.199
	c27.305,0,52.478,8.843,72.936,23.925l9.184,8.55c0.195,0.795,0.266,1.645,0.154,2.395l-6.354,43.217
	c-0.24,1.632,0.518,3.922,1.685,5.09l15.109,15.108c1.167,1.167,3.075,1.167,4.241,0l6.345-6.344c1.166-1.166,3.074-1.167,4.241,0
	l16.689,16.69c1.167,1.166,3.076,3.075,4.243,4.242l0.091,0.091c1.167,1.167,3.076,3.076,4.242,4.243l2.826,2.825
	c0.19,0.192,0.41,0.342,0.635,0.47c0.367,0.225,0.768,0.369,1.182,0.425l-0.022,0.023c0.076,0.003,0.152-0.005,0.229-0.004
	c0.161,0.01,0.322,0.007,0.483-0.009c3.239-0.074,6.451-1.317,8.92-3.786c2.482-2.483,3.824-5.785,3.803-8.993
	c0.012-0.162,0.011-0.324-0.004-0.485c-0.002-0.051,0.003-0.103,0-0.153l-0.013,0.012c-0.084-0.63-0.355-1.238-0.837-1.721
	l-2.828-2.828c-0.566-0.565-1.308-1.306-2.052-2.051l-0.021,0.02c-0.814-0.816-1.646-1.646-2.266-2.266l-0.091-0.091
	c-1.167-1.167-3.076-3.076-4.242-4.243l-16.69-16.689c-1.167-1.167-1.167-3.076,0-4.242l6.594-6.594
	c1.167-1.167,3.075-1.167,4.243,0l20.773,20.773c1.166,1.167,3.075,3.075,4.242,4.242l0.088,0.089
	c1.168,1.167,3.076,3.075,4.243,4.242l2.827,2.829c0.482,0.481,1.092,0.753,1.723,0.837l-0.024,0.023
	c0.076,0.003,0.153-0.005,0.229-0.004c0.161,0.01,0.321,0.007,0.481-0.009c3.24-0.074,6.452-1.317,8.92-3.786
	c2.484-2.483,3.824-5.785,3.805-8.993c0.012-0.162,0.011-0.323-0.004-0.485c-0.004-0.051,0.002-0.103-0.001-0.153l-0.013,0.012
	c-0.084-0.63-0.354-1.238-0.838-1.721l-2.828-2.828c-1.167-1.167-3.076-3.075-4.242-4.242l-25.104-25.106
	c-1.167-1.167-1.167-3.075,0-4.242l6.584-6.584c1.167-1.167,3.075-1.167,4.242,0l16.689,16.69c1.167,1.167,3.076,3.075,4.242,4.242
	l0.091,0.091c0.62,0.62,1.449,1.449,2.268,2.267c0.719,0.719,1.43,1.429,1.977,1.976l0.074,0.075l2.752,2.752l0.076,0.076
	c0.481,0.482,1.091,0.753,1.721,0.837l-0.022,0.023c0.075,0.003,0.151-0.005,0.229-0.004c0.162,0.011,0.322,0.007,0.483-0.009
	c3.238-0.074,6.452-1.317,8.921-3.785c2.481-2.484,3.823-5.785,3.803-8.993c0.012-0.163,0.01-0.324-0.004-0.485
	c-0.002-0.052,0.002-0.104-0.001-0.154l-0.013,0.013c-0.084-0.63-0.354-1.239-0.836-1.721l-0.077-0.077l-2.752-2.752l-0.075-0.074
	c-0.547-0.547-1.256-1.257-1.977-1.977c-0.816-0.816-1.646-1.646-2.267-2.266l-0.09-0.091c-1.168-1.167-3.076-3.075-4.243-4.242
	l-16.69-16.69c-1.166-1.167-1.166-3.076,0-4.243l6.345-6.343c1.167-1.166,1.168-3.075,0.002-4.243l-15.104-15.114
	c-1.166-1.168-3.455-1.927-5.088-1.686l-43.233,6.37c-0.749,0.111-1.634,0.075-2.484-0.064l-10.156-7.576
	c-28.062-22.321-63.469-35.642-101.919-35.643c-90.501,0-164,73.7-164.001,164.2c0.001,90.5,73.701,164.202,164,164.202
	c45.201,0,86.4-18.4,116.001-48.201l161.476-161.43l-0.053-0.105l41.773-41.802c22.199-22.2,53.1-36.101,87.1-36.1
	c67.898-0.001,122.998,55.299,123,123.2c0,67.898-55.301,123.2-123.002,123.2c-33.998,0-64.699-13.701-87.098-36.101l-10.857-10.6
	l-8.088-9.646c-0.238-1.142-0.338-2.211-0.338-2.211l-4.252-53.823c0.24-1.632-0.519-3.923-1.687-5.09l-15.106-15.108
	c-1.168-1.167-3.076-1.167-4.244,0L411.2,283.014c-1.167,1.168-1.167,3.076-0.001,4.244l15.104,15.115
	c1.166,1.168,3.455,1.926,5.087,1.687l53.842,4.235c0,0,1.114,0.054,2.327,0.22l9.604,8.131l10.736,10.42
	c29.799,29.802,70.799,48.199,116,48.199c90.5,0.002,164-73.699,164-164.199C787.898,120.564,714.197,46.864,623.898,46.864z"/>
<g enable-background="new    ">
	<path fill="#E0E1E2" d="M77.756,510.831c1.49,3.062,3.538,5.504,6.144,7.323c2.607,1.82,5.688,3.124,9.247,3.909
		c3.557,0.788,7.364,1.18,11.419,1.18c2.315,0,4.841-0.33,7.571-0.993c2.731-0.661,5.275-1.717,7.634-3.165
		c2.358-1.447,4.323-3.309,5.896-5.586c1.571-2.274,2.358-5.026,2.358-8.254c0-2.482-0.559-4.633-1.676-6.454
		c-1.117-1.819-2.565-3.352-4.344-4.593c-1.78-1.241-3.745-2.254-5.896-3.041c-2.153-0.785-4.263-1.428-6.331-1.924l-19.735-4.841
		c-2.565-0.661-5.069-1.489-7.509-2.482c-2.441-0.993-4.573-2.315-6.392-3.972c-1.821-1.654-3.29-3.681-4.406-6.082
		c-1.117-2.399-1.676-5.337-1.676-8.812c0-2.151,0.413-4.674,1.241-7.571c0.826-2.896,2.377-5.627,4.654-8.192
		c2.275-2.563,5.399-4.736,9.372-6.517c3.972-1.778,9.061-2.669,15.267-2.669c4.385,0,8.564,0.58,12.536,1.738
		c3.972,1.16,7.447,2.897,10.426,5.213c2.979,2.317,5.356,5.194,7.137,8.627c1.779,3.435,2.669,7.428,2.669,11.978h-8.44
		c-0.167-3.393-0.931-6.35-2.296-8.875c-1.365-2.523-3.146-4.633-5.337-6.33c-2.194-1.695-4.717-2.979-7.572-3.848
		c-2.854-0.869-5.855-1.304-8.999-1.304c-2.897,0-5.69,0.311-8.378,0.932c-2.69,0.62-5.048,1.613-7.075,2.979
		c-2.029,1.365-3.662,3.165-4.903,5.399s-1.862,5.008-1.862,8.316c0,2.069,0.351,3.869,1.055,5.399
		c0.702,1.531,1.676,2.835,2.917,3.909c1.241,1.076,2.668,1.945,4.282,2.606c1.614,0.664,3.33,1.201,5.151,1.614l21.597,5.337
		c3.144,0.828,6.102,1.843,8.875,3.041c2.771,1.2,5.213,2.689,7.323,4.469c2.11,1.78,3.764,3.952,4.965,6.516
		c1.198,2.566,1.8,5.669,1.8,9.31c0,0.993-0.105,2.317-0.311,3.972c-0.208,1.656-0.704,3.413-1.489,5.275
		c-0.788,1.861-1.905,3.745-3.352,5.647c-1.449,1.904-3.435,3.621-5.958,5.151c-2.525,1.532-5.647,2.773-9.371,3.724
		c-3.724,0.95-8.192,1.427-13.405,1.427c-5.213,0-10.054-0.601-14.522-1.8c-4.468-1.198-8.275-3.041-11.419-5.523
		c-3.146-2.482-5.566-5.666-7.261-9.557c-1.697-3.889-2.42-8.564-2.172-14.026h8.44C75.562,503.962,76.267,507.77,77.756,510.831z"
		/>
	<path fill="#E0E1E2" d="M185.244,439.957l34.754,88.623h-9.061l-10.799-27.555h-40.339l-10.675,27.555h-8.937l35.623-88.623
		H185.244z M197.284,493.826l-17.129-45.429l-17.75,45.429H197.284z"/>
	<path fill="#E0E1E2" d="M221.116,439.957l28.796,79.313h0.248l28.548-79.313h8.937l-32.892,88.623h-9.806l-32.768-88.623H221.116z"
		/>
</g>
<g enable-background="new    ">
	<path fill="#FFFFFF" d="M362.866,439.957v7.199h-52.752v32.023h49.4v7.199h-49.4v35.002h53.373v7.199h-61.812v-88.623H362.866z"/>
	<path fill="#FFFFFF" d="M384.586,439.957l51.635,74.97h0.248v-74.97h8.44v88.623h-9.434l-51.635-74.97h-0.248v74.97h-8.44v-88.623
		H384.586z"/>
	<path fill="#FFFFFF" d="M523.851,439.957v7.199h-52.752v32.023h49.4v7.199h-49.4v35.002h53.372v7.199h-61.812v-88.623H523.851z"/>
	<path fill="#FFFFFF" d="M576.849,439.957c3.641,0,7.094,0.456,10.363,1.365c3.269,0.912,6.123,2.296,8.564,4.158
		c2.44,1.862,4.385,4.263,5.834,7.199c1.447,2.938,2.172,6.393,2.172,10.364c0,5.628-1.447,10.51-4.344,14.646
		c-2.897,4.139-7.199,6.786-12.908,7.943v0.248c2.895,0.415,5.294,1.18,7.199,2.297c1.902,1.117,3.453,2.544,4.654,4.282
		c1.199,1.737,2.066,3.745,2.605,6.02c0.537,2.277,0.889,4.738,1.057,7.386c0.08,1.489,0.164,3.311,0.248,5.461
		c0.08,2.152,0.248,4.325,0.496,6.517c0.248,2.193,0.641,4.263,1.18,6.206c0.537,1.945,1.26,3.456,2.172,4.53h-9.31
		c-0.497-0.826-0.89-1.841-1.179-3.041c-0.291-1.198-0.497-2.439-0.621-3.724c-0.124-1.282-0.229-2.545-0.311-3.786
		c-0.083-1.241-0.166-2.315-0.248-3.227c-0.166-3.144-0.435-6.269-0.807-9.371c-0.373-3.104-1.16-5.875-2.358-8.316
		c-1.2-2.439-2.938-4.406-5.214-5.896c-2.276-1.49-5.398-2.151-9.371-1.986H544.7v39.347h-8.439v-88.623H576.849z M576.228,482.034
		c2.564,0,5.006-0.392,7.323-1.179c2.315-0.786,4.345-1.924,6.082-3.414c1.737-1.489,3.122-3.289,4.158-5.398
		c1.034-2.11,1.552-4.531,1.552-7.262c0-5.461-1.573-9.763-4.717-12.908c-3.146-3.145-7.943-4.717-14.398-4.717H544.7v34.878
		H576.228z"/>
	<path fill="#FFFFFF" d="M688.682,528.58l-1.117-16.136h-0.248c-1.489,3.146-3.332,5.854-5.523,8.13
		c-2.193,2.277-4.614,4.139-7.262,5.586c-2.648,1.448-5.482,2.501-8.502,3.165c-3.021,0.661-6.145,0.992-9.371,0.992
		c-6.951,0-13.055-1.262-18.309-3.785c-5.255-2.523-9.619-5.896-13.095-10.116c-3.476-4.22-6.082-9.102-7.819-14.646
		c-1.737-5.543-2.606-11.376-2.606-17.501c0-6.123,0.869-11.956,2.606-17.501c1.737-5.543,4.344-10.446,7.819-14.709
		c3.476-4.261,7.84-7.652,13.095-10.178c5.254-2.523,11.357-3.786,18.309-3.786c4.633,0,9.018,0.621,13.157,1.862
		c4.137,1.241,7.819,3.104,11.046,5.586c3.228,2.482,5.958,5.544,8.192,9.185c2.234,3.643,3.765,7.903,4.593,12.784h-8.44
		c-0.248-2.563-1.098-5.15-2.545-7.757c-1.448-2.607-3.394-4.984-5.833-7.138c-2.442-2.15-5.358-3.909-8.751-5.274
		c-3.394-1.366-7.199-2.049-11.419-2.049c-5.877,0-10.923,1.117-15.143,3.352c-4.221,2.234-7.677,5.193-10.364,8.875
		c-2.69,3.683-4.677,7.841-5.958,12.474c-1.284,4.636-1.924,9.393-1.924,14.274c0,4.8,0.64,9.538,1.924,14.212
		c1.281,4.676,3.268,8.855,5.958,12.536c2.688,3.684,6.144,6.641,10.364,8.875c4.22,2.234,9.266,3.352,15.143,3.352
		c4.881,0,9.247-0.807,13.095-2.421c3.848-1.613,7.095-3.867,9.743-6.765c2.647-2.896,4.634-6.33,5.958-10.302
		c1.323-3.972,1.943-8.316,1.862-13.033h-30.162v-7.199h37.609v45.057H688.682z"/>
	<path fill="#FFFFFF" d="M700.969,439.957h9.93l29.169,44.933l29.044-44.933h10.055l-35.003,52.131v36.492h-8.44v-36.492
		L700.969,439.957z"/>
</g>
</svg>
