<?xml version="1.0" encoding="utf-8"?>
<!-- Generator: Adobe Illustrator 16.0.0, SVG Export Plug-In . SVG Version: 6.00 Build 0)  -->
<!DOCTYPE svg PUBLIC "-//W3C//DTD SVG 1.1//EN" "http://www.w3.org/Graphics/SVG/1.1/DTD/svg11.dtd">
<svg version="1.1" id="Layer_1" xmlns="http://www.w3.org/2000/svg" xmlns:xlink="http://www.w3.org/1999/xlink" x="0px" y="0px"
	 width="841.9px" height="595.3px" viewBox="0 0 841.9 595.3" enable-background="new 0 0 841.9 595.3" xml:space="preserve">
<rect x="-2857.667" y="653.126" fill="#326187" width="733.897" height="327.925"/>
<text transform="matrix(1 0 0 1 1971.2939 522.5151)" fill="#E0E1E2" font-family="'HelveticaNeue-Light'" font-size="124.1219">SAV</text>
<text transform="matrix(1 0 0 1 2201.2939 522.5151)" fill="#FFFFFF" font-family="'HelveticaNeue-Light'" font-size="124.1219">ENERGY</text>
<text transform="matrix(1 0 0 1 2981.7246 522.5151)" fill="#E0E1E2" font-family="'HelveticaNeue-Light'" font-size="124.1219">SAV</text>
<text transform="matrix(1 0 0 1 3211.7246 522.5151)" fill="#FFFFFF" font-family="'HelveticaNeue-Light'" font-size="124.1219">ENERGY</text>
<path fill="#E0E1E2" d="M2534.36,40.9c-45.201,0-86.4,18.4-116,48.2l-207.201,203.1c-22.199,22.2-53.1,36.1-87.1,36.1
	c-67.899,0-123-55.3-123-123.2s55.301-123.2,123-123.2c34,0,64.701,13.7,87.1,36.1l21.102,20.6c-3.4,7.8-11.801,28.8-11.801,37.8
	c0,17,11.699,23,27.801,36l87.1-87.1c-6.5-14.2-16.4-27-33.301-27c-9.9,0-32.9,6.2-41.199,10.5l-20.4-19.8
	c-29.801-29.8-70.8-48.2-116-48.2c-90.5,0-164,73.7-164,164.2s73.7,164.201,164,164.201c45.2,0,86.4-18.4,116-48.201l207-202.7
	c22.199-22.3,53.1-36.2,86.9-36.2c67.9,0,123,55.3,123,123.2c0,67.9-55.301,123.2-123,123.2c-24.201,0-46.6-7-65.6-19.199
	c2.5-6.9,7.1-27.2,7.1-35c0-17-9.801-19.2-21-30.4l-15.701,15.7l-41-41l-14.5,14.5l41,41l-26.6,26.601l-41-41l-14.5,14.5l41,41
	L2367.86,330.9c11.199,11.2,9.299,15.6,26.199,15.6c11.201,0,38.801-0.6,47.801-5.699c26.4,18.1,58.199,28.699,92.5,28.699
	c90.5,0,164-73.7,164-164.2C2698.56,114.6,2624.86,40.9,2534.36,40.9z"/>
<path fill="#FFFFFF" d="M-342.6-261.6c-45.2,0-86.4,18.4-116,48.2L-665.8-10.3c-22.2,22.2-53.1,36.1-87.1,36.1
	c-67.9,0-123-55.3-123-123.2s55.3-123.2,123-123.2c34,0,64.7,13.7,87.1,36.1l21.1,20.6c-3.4,7.8-5.4,16.3-5.4,25.3
	c0,17,6.9,32.3,18.1,43.5l87.1-87.1c-11.2-11.2-26.6-18.1-43.5-18.1c-9.9,0-19.3,2.3-27.6,6.7l-20.4-20.1
	c-29.8-29.8-70.8-48.2-116-48.2c-90.5,0-164,73.7-164,164.2s73.7,164.2,164,164.2c45.2,0,86.4-18.4,116-48.2l207-202.7
	c22.2-22.2,53.1-36.1,86.9-36.1c67.9,0,123,55.3,123,123.2c0,67.9-55.3,123.2-123,123.2c-24.2,0-46.6-7-65.6-19.2
	C-405.7,0-404-7.2-404-15c0-17-6.9-32.3-18.1-43.5l-15.7,15.7l-41-41l-14.5,14.5l41,41l-26.6,26.6l-41-41l-14.5,14.5l41,41
	L-509,28.4c11.2,11.2,26.6,18.1,43.5,18.1c11.2,0,21.5-3.1,30.5-8.1c26.4,18.1,58.2,28.7,92.5,28.7c90.5,0,164-73.7,164-164.2
	C-178.4-187.9-252.1-261.6-342.6-261.6z"/>
<g>
	<path fill="#E0E1E2" d="M-1322.472,258.055c-31.961-31.961-74.104-48.083-116.106-47.942l-290.126-2.899
		c-31.395,0-63.074-12.021-87.115-36.062c-48.013-48.012-47.871-126.077,0.142-174.09c48.012-48.012,126.218-48.013,174.09-0.142
		c24.042,24.042,36.062,55.438,36.062,87.116l0.354,29.487c-7.919,3.111-28.708,12.021-35.072,18.385
		c-12.021,12.021-7.991,24.536-5.798,45.113l123.178,0c5.444-14.637,7.496-30.688-4.455-42.639c-7-7-27.648-18.88-36.558-21.708
		l-0.424-28.425c0-42.144-15.98-84.146-47.941-116.107c-63.994-63.993-168.08-63.852-232.073,0.142s-63.993,168.221-0.142,232.073
		c31.961,31.961,74.105,48.083,116.108,47.941l289.702,3.041c31.466-0.071,63.144,11.95,87.044,35.85
		c48.013,48.013,47.871,126.077-0.141,174.089c-48.014,48.013-126.219,48.013-174.09,0.142
		c-16.335-16.335-26.937-35.768-32.055-56.71c-0.243-0.997,39.66-33.809,39.66-33.809s0-9.679,0-25.518h-22.203v-57.983h-20.506
		v57.983h-12.093v-53.786h-13.5l-0.001,53.787h-12.024V287.4h-20.506v57.983l-22.203-0.001c0,15.839-0.012,25.518-0.012,25.518
		s30.165,25.5,41.337,33.809c5.869,31.467,20.86,61.447,45.114,85.701c63.993,63.993,168.079,63.852,232.072-0.142
		C-1258.479,426.276-1258.479,322.047-1322.472,258.055z"/>
	<path fill="#E0E1E2" d="M-1557.89,404.708"/>
	<rect x="-1713.444" y="404.15" fill="#5690BF" width="42.051" height="10.75"/>
	<rect x="-1732.738" y="423.4" fill="#5690BF" width="78.639" height="10.75"/>
</g>
<path fill="#E0E1E2" d="M-496.319,798.239l40.486-37.809c0,0,0-21.679,0-37.518h-15.203v-57.983h-20.506v57.983h-15.562v-63.786
	h-20.506l-0.001,63.787h-15.549V664.93h-20.506v57.983l-15.203-0.001c0,15.839-0.012,37.518-0.012,37.518l40.512,37.809v4.954
	h42.051V798.239z"/>
<path fill="#E0E1E2" d="M-1022.089,667.451l-39.868,29.646c0,0,0,11.614,0,27.367h14.971v45.731h20.193v-45.731h15.325v51.503
	h20.193l0.001-51.504h15.311v45.731h20.193v-45.731l14.971,0.001c0-15.753,0.012-27.367,0.012-27.367l-39.893-29.646l-1-4.928
	h-40.409V667.451z"/>
<path fill="#E0E1E2" d="M-980.742,935.327l40.087-39.809c0,0,0-1.679,0-17.518h-121.54c0,15.839-0.012,17.518-0.012,17.518
	l40.112,39.809v4.954h41.353V935.327z"/>
<path fill="#E0E1E2" d="M-741.563,844.542c-31.962-31.962-74.105-48.083-116.108-47.941l-76.54-0.011v0.036l-210.922,0.074
	c-31.395,0-63.074-12.021-87.115-36.062c-48.013-48.012-47.871-126.076,0.142-174.09c48.012-48.012,126.218-48.012,174.09-0.141
	c24.042,24.041,36.062,55.438,36.062,87.115l0.354,29.486c-7.919,3.111,50.204,1.979,41.295-0.849l-0.424-28.425
	c0-42.145-15.98-84.146-47.941-116.107c-63.994-63.994-168.08-63.852-232.073,0.141c-63.993,63.994-63.993,168.222-0.142,232.073
	c31.961,31.962,74.105,48.083,116.108,47.941l228.328,0.032l0.038-0.111l59.096-0.021c31.396,0,63.074,12.021,87.115,36.062
	c48.013,48.012,47.871,126.076-0.142,174.09c-48.012,48.012-126.218,48.012-174.09,0.141
	c-24.041-24.041-36.062-55.438-36.062-87.115l-0.354-29.486c7.919-3.111-50.204-1.979-41.295,0.849l0.424,28.425
	c0,42.145,15.98,84.146,47.941,116.107c63.993,63.994,168.08,63.852,232.073-0.141
	C-677.712,1012.622-677.712,908.394-741.563,844.542z"/>
<rect x="-620.369" y="720.151" fill="#4D94CE" width="22.203" height="2.762"/>
<rect x="-1026.625" y="940.285" fill="#5D5D5D" width="50.8" height="7.662"/>
<rect x="-1026.625" y="952.619" fill="#5D5D5D" width="50.8" height="7.662"/>
<rect x="3415.163" y="266.073" transform="matrix(-0.7071 -0.7071 0.7071 -0.7071 5633.5737 2919.4856)" fill="#E0E1E2" width="12.539" height="53.836"/>
<path fill="#E0E1E2" d="M3212.953,114.019l-7.229,49.154c0,0,8.212,8.212,19.352,19.351l10.586-10.586l32.337,32.337l14.278-14.278
	l-32.337-32.337l10.836-10.837l36.418,36.418l14.278-14.278l-36.417-36.42l10.826-10.826l32.337,32.337l14.278-14.278
	l-32.336-32.337l10.586-10.586c-11.139-11.139-19.343-19.359-19.343-19.359l-49.171,7.246l-4.191-2.777l-28.573,28.572
	L3212.953,114.019z"/>
<path fill="#E0E1E2" d="M3431.606,274.199l-4.046-60.737c0,0-7.551-7.551-18.751-18.751l-85.941,85.942
	c11.199,11.199,18.742,18.76,18.742,18.76l60.756,4.026l3.503,3.503l29.241-29.241L3431.606,274.199z"/>
<path fill="#E0E1E2" d="M3536.537,40.88c-45.2,0-86.399,18.401-116.001,48.202l-54.129,54.114l0.025,0.025l-149.092,149.196
	c-22.199,22.2-53.1,36.101-87.1,36.1c-67.899,0.001-123-55.299-123-123.2c0-67.9,55.3-123.199,123-123.2
	c34,0,64.7,13.701,87.1,36.101l21.1,20.6c-3.398,7.799,36.9-34.101,28.6-29.8l-20.398-19.8c-29.801-29.8-70.801-48.2-116-48.2
	c-90.501-0.001-164,73.7-164,164.199c0,90.501,73.699,164.202,163.999,164.202c45.201,0,86.4-18.4,116.001-48.201l161.475-161.43
	l-0.051-0.105l41.771-41.802c22.2-22.2,53.101-36.101,87.101-36.1c67.899-0.001,122.999,55.299,123,123.2
	c0,67.899-55.3,123.2-123.001,123.2c-33.999,0-64.699-13.701-87.1-36.101l-21.1-20.6c3.399-7.799-36.899,34.1-28.6,29.8
	l20.398,19.799c29.801,29.801,70.801,48.201,116,48.201c90.502,0,164.001-73.701,164.002-164.2
	C3700.537,114.58,3626.837,40.88,3536.537,40.88z"/>
<rect x="3216.995" y="67.905" transform="matrix(-0.7071 -0.7071 0.7071 -0.7071 5435.4053 2441.0662)" fill="#E0E1E2" width="12.539" height="53.837"/>
<path fill="#E0E1E2" d="M-2287.771,652.923c-45.201,0-86.4,18.4-116,48.201l-54.129,54.114l0.025,0.026l-149.092,149.196
	c-22.2,22.2-53.1,36.101-87.1,36.1c-67.899,0.001-122.999-55.299-123-123.2c0-67.899,55.3-123.199,123-123.199
	c27.305,0,52.478,8.843,72.936,23.925l-7.153,7.152l8.867,8.867l7.47-7.47c0.195,0.795,0.265,1.645,0.155,2.395l-6.355,43.217
	c-0.24,1.632,0.518,3.922,1.685,5.09l15.109,15.108c1.167,1.167,3.076,1.167,4.242,0l6.343-6.344c1.167-1.166,3.076-1.167,4.243,0
	l16.689,16.69c1.167,1.166,3.076,3.075,4.243,4.242l0.091,0.091c1.167,1.167,3.076,3.076,4.243,4.243l2.826,2.825
	c0.192,0.192,0.41,0.342,0.635,0.47c0.367,0.225,0.768,0.369,1.182,0.425l-0.024,0.023c0.077,0.003,0.153-0.005,0.229-0.004
	c0.161,0.01,0.322,0.007,0.483-0.009c3.24-0.074,6.452-1.317,8.92-3.786c2.483-2.483,3.824-5.785,3.803-8.993
	c0.012-0.162,0.011-0.324-0.003-0.485c-0.002-0.051,0.002-0.103-0.001-0.153l-0.012,0.012c-0.084-0.63-0.355-1.238-0.837-1.721
	l-2.829-2.828c-0.566-0.565-1.306-1.306-2.051-2.051l-0.02,0.02c-0.816-0.816-1.646-1.646-2.266-2.266l-0.091-0.091
	c-1.167-1.167-3.076-3.076-4.243-4.243l-16.69-16.689c-1.167-1.167-1.167-3.076,0-4.242l6.594-6.594
	c1.167-1.167,3.076-1.167,4.243,0l20.773,20.773c1.167,1.167,3.076,3.075,4.243,4.242l0.088,0.089
	c1.167,1.167,3.076,3.075,4.243,4.242l2.828,2.829c0.482,0.481,1.091,0.753,1.721,0.837l-0.024,0.023
	c0.076,0.003,0.153-0.005,0.229-0.004c0.161,0.01,0.322,0.007,0.482-0.009c3.24-0.074,6.452-1.317,8.92-3.786
	c2.483-2.483,3.824-5.785,3.803-8.993c0.012-0.162,0.01-0.323-0.004-0.485c-0.002-0.051,0.002-0.103-0.001-0.153l-0.012,0.012
	c-0.084-0.63-0.355-1.238-0.837-1.721l-2.829-2.828c-1.167-1.167-3.076-3.075-4.243-4.242l-25.104-25.106
	c-1.167-1.167-1.167-3.075,0-4.242l6.584-6.584c1.167-1.167,3.075-1.167,4.242,0l16.69,16.69c1.167,1.167,3.076,3.075,4.243,4.242
	l0.09,0.091c0.62,0.62,1.449,1.449,2.267,2.267c0.719,0.719,1.429,1.429,1.976,1.976l0.075,0.075l2.752,2.752l0.076,0.076
	c0.482,0.482,1.091,0.753,1.721,0.837l-0.023,0.023c0.076,0.003,0.153-0.005,0.229-0.004c0.162,0.011,0.322,0.007,0.483-0.009
	c3.239-0.074,6.452-1.317,8.92-3.785c2.483-2.484,3.824-5.785,3.803-8.993c0.012-0.163,0.01-0.324-0.003-0.485
	c-0.002-0.052,0.002-0.104-0.001-0.154l-0.012,0.013c-0.084-0.63-0.355-1.239-0.837-1.721l-0.077-0.077l-2.752-2.752l-0.075-0.074
	c-0.547-0.547-1.256-1.257-1.976-1.977c-0.817-0.816-1.646-1.646-2.267-2.266l-0.09-0.091c-1.167-1.167-3.076-3.075-4.243-4.242
	l-16.69-16.69c-1.167-1.167-1.167-3.076,0-4.243l6.344-6.343c1.167-1.166,1.167-3.075,0.001-4.243l-15.103-15.114
	c-1.166-1.168-3.455-1.927-5.087-1.686l-43.235,6.37c-0.749,0.111-1.633,0.075-2.484-0.064l7.785-7.785l-8.866-8.866l-9.076,9.075
	c-28.063-22.321-63.469-35.642-101.919-35.643c-90.501,0-164,73.7-164.001,164.2c0.001,90.501,73.701,164.201,164,164.201
	c45.201,0,86.4-18.4,116-48.201l161.475-161.43l-0.052-0.105l41.773-41.802c22.2-22.2,53.1-36.101,87.1-36.1
	c67.9-0.001,123,55.299,123,123.2c0,67.898-55.3,123.198-123,123.199c-33.999,0-64.7-13.701-87.099-36.101l-10.857-10.6l8.276-8.275
	l-8.867-8.866l-7.497,7.496c-0.237-1.142-0.338-2.211-0.338-2.211l-4.251-53.823c0.24-1.632-0.518-3.923-1.685-5.09l-15.108-15.108
	c-1.167-1.167-3.076-1.167-4.243,0l-81.428,81.428c-1.167,1.167-1.167,3.076-0.001,4.244l15.103,15.114
	c1.166,1.168,3.455,1.927,5.087,1.686l53.842,4.236c0,0,1.114,0.054,2.328,0.22l-7.419,7.419l8.867,8.866l8.156-8.155l10.735,10.42
	c29.8,29.801,70.8,48.2,116,48.2c90.5,0.001,164-73.7,164.001-164.199C-2123.771,726.624-2197.471,652.923-2287.771,652.923z"/>
<path fill="#FFFFFF" d="M623.898,46.864c-45.201,0-86.4,18.4-116,48.201l-54.131,54.114l0.025,0.026L304.702,298.403
	c-22.2,22.199-53.1,36.1-87.101,36.1c-67.898,0-122.998-55.299-122.999-123.201c0-67.899,55.3-123.199,123.001-123.199
	c27.305,0,52.478,8.843,72.936,23.925l9.184,8.55c0.195,0.795,0.265,1.645,0.154,2.395l-6.354,43.217
	c-0.24,1.632,0.518,3.922,1.685,5.09l15.109,15.108c1.167,1.167,3.076,1.167,4.242,0l6.344-6.344c1.166-1.166,3.075-1.167,4.242,0
	l16.689,16.69c1.167,1.166,3.076,3.075,4.243,4.242l0.091,0.091c1.167,1.167,3.076,3.076,4.242,4.243l2.826,2.825
	c0.191,0.192,0.41,0.342,0.635,0.47c0.367,0.225,0.768,0.369,1.182,0.425l-0.023,0.023c0.076,0.003,0.153-0.005,0.229-0.004
	c0.161,0.01,0.322,0.007,0.483-0.009c3.239-0.074,6.451-1.317,8.92-3.786c2.483-2.483,3.824-5.785,3.803-8.993
	c0.012-0.162,0.011-0.324-0.004-0.485c-0.002-0.051,0.003-0.103,0-0.153l-0.013,0.012c-0.084-0.63-0.355-1.238-0.837-1.721
	l-2.828-2.828c-0.566-0.565-1.307-1.306-2.052-2.051l-0.02,0.02c-0.815-0.816-1.646-1.646-2.266-2.266l-0.091-0.091
	c-1.167-1.167-3.076-3.076-4.242-4.243l-16.69-16.689c-1.167-1.167-1.167-3.076,0-4.242l6.594-6.594
	c1.167-1.167,3.075-1.167,4.243,0l20.773,20.773c1.166,1.167,3.075,3.075,4.242,4.242l0.088,0.089
	c1.168,1.167,3.076,3.075,4.243,4.242l2.828,2.829c0.482,0.481,1.091,0.753,1.722,0.837l-0.024,0.023
	c0.076,0.003,0.153-0.005,0.229-0.004c0.161,0.01,0.322,0.007,0.482-0.009c3.24-0.074,6.452-1.317,8.92-3.786
	c2.484-2.483,3.824-5.785,3.804-8.993c0.012-0.162,0.011-0.323-0.004-0.485c-0.003-0.051,0.002-0.103-0.001-0.153l-0.012,0.012
	c-0.084-0.63-0.355-1.238-0.838-1.721l-2.828-2.828c-1.167-1.167-3.076-3.075-4.242-4.242l-25.104-25.106
	c-1.167-1.167-1.167-3.075,0-4.242l6.584-6.584c1.167-1.167,3.075-1.167,4.242,0l16.69,16.69c1.167,1.167,3.076,3.075,4.242,4.242
	l0.091,0.091c0.62,0.62,1.449,1.449,2.267,2.267c0.719,0.719,1.43,1.429,1.977,1.976l0.074,0.075l2.752,2.752l0.076,0.076
	c0.482,0.482,1.091,0.753,1.721,0.837l-0.023,0.023c0.076,0.003,0.152-0.005,0.229-0.004c0.162,0.011,0.322,0.007,0.483-0.009
	c3.239-0.074,6.452-1.317,8.921-3.785c2.482-2.484,3.823-5.785,3.803-8.993c0.012-0.163,0.01-0.324-0.004-0.485
	c-0.002-0.052,0.002-0.104-0.001-0.154l-0.013,0.013c-0.084-0.63-0.354-1.239-0.836-1.721l-0.077-0.077l-2.752-2.752l-0.075-0.074
	c-0.547-0.547-1.256-1.257-1.976-1.977c-0.817-0.816-1.646-1.646-2.267-2.266l-0.09-0.091c-1.168-1.167-3.076-3.075-4.243-4.242
	l-16.69-16.69c-1.166-1.167-1.166-3.076,0-4.243l6.344-6.343c1.167-1.166,1.168-3.075,0.002-4.243l-15.104-15.114
	c-1.166-1.168-3.455-1.927-5.088-1.686l-43.234,6.37c-0.749,0.111-1.633,0.075-2.484-0.064l-10.156-7.576
	c-28.062-22.321-63.469-35.642-101.919-35.643c-90.501,0-164,73.7-164.001,164.2c0.001,90.501,73.701,164.201,164,164.201
	c45.201,0,86.4-18.4,116.001-48.201l161.476-161.429l-0.053-0.105l41.773-41.802c22.199-22.2,53.1-36.101,87.1-36.1
	c67.898-0.001,122.998,55.299,123,123.2c0,67.898-55.301,123.199-123.002,123.199c-33.998,0-64.699-13.701-87.098-36.1l-10.857-10.6
	l-8.088-9.646c-0.238-1.142-0.338-2.211-0.338-2.211l-4.252-53.823c0.24-1.632-0.518-3.923-1.686-5.09l-15.107-15.108
	c-1.168-1.167-3.076-1.167-4.244,0L411.2,283.014c-1.167,1.168-1.167,3.076-0.001,4.244l15.104,15.115
	c1.166,1.168,3.455,1.926,5.087,1.686l53.841,4.236c0,0,1.115,0.053,2.328,0.219l9.604,8.131l10.736,10.42
	c29.799,29.801,70.799,48.199,116,48.199c90.5,0.002,164-73.699,164-164.199C787.898,120.564,714.197,46.864,623.898,46.864z"/>
<text transform="matrix(1 0 0 1 62.7373 528.5796)" fill="#E0E1E2" font-family="'HelveticaNeue-Light'" font-size="124.1219">SAV</text>
<text transform="matrix(1 0 0 1 292.7373 528.5796)" fill="#FFFFFF" font-family="'HelveticaNeue-Light'" font-size="124.1219">ENERGY</text>
</svg>
