<?xml version="1.0" encoding="utf-8"?>
<!-- Generator: Adobe Illustrator 18.1.0, SVG Export Plug-In . SVG Version: 6.00 Build 0)  -->
<svg version="1.1" id="Layer_1" xmlns="http://www.w3.org/2000/svg" xmlns:xlink="http://www.w3.org/1999/xlink" x="0px" y="0px"
	 viewBox="0 0 466 323" enable-background="new 0 0 466 323" xml:space="preserve" fill="#fff">
<g>
	<text transform="matrix(1 0 0 1 29.8991 289.7987)" font-family="'HelveticaNeueLTStd-LtEx'" font-size="62.5124">SAVENERGY</text>
	<path  d="M346.5,19.4c-25,0-47.8,10.2-64.2,26.7L167.6,158.5c-12.3,12.3-29.4,20-48.2,20c-37.6,0-68.1-30.6-68.1-68.2
		c0-37.6,30.6-68.2,68.1-68.2c18.8,0,35.8,7.6,48.2,20l11.7,11.4c-1.9,4.3-3,9-3,14c0,9.4,3.8,17.9,10,24.1l48.2-48.2
		c-6.2-6.2-14.7-10-24.1-10c-5.5,0-10.7,1.3-15.3,3.7l-11.3-11.1c-16.5-16.5-39.2-26.7-64.2-26.7c-50.1,0-90.8,40.8-90.8,90.9
		c0,50.1,40.8,90.9,90.8,90.9c25,0,47.8-10.2,64.2-26.7L298.4,62.2c12.3-12.3,29.4-20,48.1-20c37.6,0,68.1,30.6,68.1,68.2
		c0,37.6-30.6,68.2-68.1,68.2c-13.4,0-25.8-3.9-36.3-10.6c1.4-3.8,2.3-7.8,2.3-12.1c0-9.4-3.8-17.9-10-24.1l-8.7,8.7l-22.7-22.7
		l-8,8l22.7,22.7l-14.7,14.7l-22.7-22.7l-8,8l22.7,22.7l-8.7,8.7c6.2,6.2,14.7,10,24.1,10c6.2,0,11.9-1.7,16.9-4.5
		c14.6,10,32.2,15.9,51.2,15.9c50.1,0,90.8-40.8,90.8-90.9C437.4,60.2,396.6,19.4,346.5,19.4z"/>
</g>
</svg>
