<?xml version="1.0" encoding="utf-8"?>
<!-- Generator: Adobe Illustrator 16.0.0, SVG Export Plug-In . SVG Version: 6.00 Build 0)  -->
<!DOCTYPE svg PUBLIC "-//W3C//DTD SVG 1.1//EN" "http://www.w3.org/Graphics/SVG/1.1/DTD/svg11.dtd">
<svg version="1.1" id="Layer_1" xmlns="http://www.w3.org/2000/svg" xmlns:xlink="http://www.w3.org/1999/xlink" x="0px" y="0px"
	 width="841.9px" height="595.3px" viewBox="0 0 841.9 595.3" enable-background="new 0 0 841.9 595.3" xml:space="preserve">
<text transform="matrix(1 0 0 1 62.7339 522.5154)" enable-background="new    "><tspan x="0" y="0" fill="#E0E1E2" font-family="'HelveticaNeue-Light'" font-size="124.1219">SAV</tspan><tspan x="230" y="0" fill="#FFFFFF" font-family="'HelveticaNeue-Light'" font-size="124.1219">ENERGY</tspan></text>
<path fill="#FFFFFF" d="M625.8,40.9c-45.2,0-86.4,18.4-116,48.2L302.6,292.2c-22.2,22.2-53.1,36.1-87.1,36.1
	c-67.9,0-123-55.3-123-123.2c0-67.9,55.3-123.2,123-123.2c34,0,64.7,13.7,87.1,36.1l21.1,20.6c-3.4,7.8-11.8,28.8-11.8,37.8
	c0,17,11.7,23,27.8,36l87.1-87.1c-6.5-14.2-16.4-27-33.3-27c-9.9,0-32.9,6.2-41.2,10.5L331.9,89c-29.8-29.8-70.8-48.2-116-48.2
	c-90.5,0-164,73.7-164,164.2s73.7,164.2,164,164.2c45.2,0,86.4-18.4,116-48.2l207-202.7C561.1,96,592,82.1,625.8,82.1
	c67.9,0,123,55.3,123,123.2c0,67.9-55.3,123.2-123,123.2c-24.2,0-46.6-7-65.6-19.2c2.5-6.9,7.1-27.2,7.1-35c0-17-9.8-19.2-21-30.4
	l-15.7,15.7l-41-41l-14.5,14.5l41,41l-26.6,26.6l-41-41l-14.5,14.5l41,41l-15.7,15.7c11.2,11.2,9.3,15.6,26.2,15.6
	c11.2,0,38.8-0.6,47.8-5.7c26.4,18.1,58.2,28.7,92.5,28.7c90.5,0,164-73.7,164-164.2C790,114.6,716.3,40.9,625.8,40.9z"/>
<path fill="#FFFFFF" d="M-342.6-261.6c-45.2,0-86.4,18.4-116,48.2L-665.8-10.3c-22.2,22.2-53.1,36.1-87.1,36.1
	c-67.9,0-123-55.3-123-123.2c0-67.9,55.3-123.2,123-123.2c34,0,64.7,13.7,87.1,36.1l21.1,20.6c-3.4,7.8-5.4,16.3-5.4,25.3
	c0,17,6.9,32.3,18.1,43.5l87.1-87.1c-11.2-11.2-26.6-18.1-43.5-18.1c-9.9,0-19.3,2.3-27.6,6.7l-20.4-20.1
	c-29.8-29.8-70.8-48.2-116-48.2c-90.5,0-164,73.7-164,164.2c0,90.5,73.7,164.2,164,164.2c45.2,0,86.4-18.4,116-48.2l207-202.7
	c22.2-22.2,53.1-36.1,86.9-36.1c67.9,0,123,55.3,123,123.2c0,67.9-55.3,123.2-123,123.2c-24.2,0-46.6-7-65.6-19.2
	C-405.7,0-404-7.2-404-15c0-17-6.9-32.3-18.1-43.5l-15.7,15.7l-41-41l-14.5,14.5l41,41l-26.6,26.6l-41-41l-14.5,14.5l41,41
	L-509,28.4c11.2,11.2,26.6,18.1,43.5,18.1c11.2,0,21.5-3.1,30.5-8.1c26.4,18.1,58.2,28.7,92.5,28.7c90.5,0,164-73.7,164-164.2
	C-178.4-187.9-252.1-261.6-342.6-261.6z"/>
<rect x="480.5" y="240" transform="matrix(-0.7071 0.7071 -0.7071 -0.7071 1024.1656 119.7451)" fill="#FFFFFF" width="13.5" height="63.9"/>
</svg>
