<?xml version="1.0" encoding="utf-8"?>
<!-- Generator: Adobe Illustrator 16.0.0, SVG Export Plug-In . SVG Version: 6.00 Build 0)  -->
<!DOCTYPE svg PUBLIC "-//W3C//DTD SVG 1.1//EN" "http://www.w3.org/Graphics/SVG/1.1/DTD/svg11.dtd">
<svg version="1.1" xmlns="http://www.w3.org/2000/svg" xmlns:xlink="http://www.w3.org/1999/xlink" x="0px" y="0px" width="660px"
	 height="160px" viewBox="0 0 660 160" enable-background="new 0 0 660 160" xml:space="preserve">
<g id="guide" display="none">
</g>
<g id="logotype">
	<g>
		<path fill="#1A1A1A" d="M509.867,29.88h11.443v50.414c0.263,21.595,20.395,39.105,45.121,39.105
			c24.733,0,44.858-17.511,45.119-39.105V29.88h11.445v50.414c-0.256,27.896-25.526,50.53-56.564,50.53
			c-31.023,0-56.312-22.634-56.564-50.53V29.88z M48.443,130.479H37.004V79.789c0.256-27.906,25.52-50.535,56.562-50.535
			c31.035,0,56.306,22.629,56.565,50.535v50.689h-11.441V79.789c-0.269-21.612-20.391-39.11-45.124-39.11
			c-24.736,0-44.859,17.498-45.122,39.11V130.479z M217.109,119.641c18.87-0.129,31.144-7.709,40.861-22.731l12.531,0.021
			c-9.826,23.432-32.752,34.136-53.393,34.136c-31.193,0-56.563-23.125-56.563-51.227c0-1.609,0.092-3.338,0.263-4.921
			c2.822-25.738,27.003-46.039,56.301-46.039c29.11,0,56.324,20.695,56.324,52.37H171.995
			C172.847,102.394,192.749,119.807,217.109,119.641z M451.77,124.35c-1.686,3.324-4.385,6.771-14.101,6.771
			c-8.158,0-11.77-3.446-14.089-6.771c-1.342-1.932-26.429-37.944-26.966-38.793c-3.224,25.358-27.092,45.563-56.086,45.563
			c-31.201,0-56.576-22.866-56.576-50.965c0-28.103,25.375-50.956,56.576-50.956c21.712,0,38.896,9.082,50.517,26.793l32.856,47.292
			c3.71,5.395,9.729,13.996,9.729,13.996c1.073,1.546,3.334,1.546,4.039,1.546c0.707,0,2.724,0.039,3.528-1.546
			c0.905-1.741,43.425-86.622,43.822-87.4c0,0,13.783-0.015,13.786,0C498.806,29.88,453.04,121.955,451.77,124.35z M340.528,40.623
			c-24.904,0-45.153,17.732-45.153,39.532s20.249,39.536,45.153,39.536c24.888,0,45.142-17.736,45.142-39.536
			S365.416,40.623,340.528,40.623z M217.109,40.311c-20.944,0-38.598,12.548-43.673,29.507h87.375
			C255.734,52.634,238.024,40.311,217.109,40.311z"/>
	</g>
	<circle fill="none" stroke="#1A1A1A" stroke-width="0.9985" stroke-miterlimit="10" cx="642.02" cy="38.452" r="7.98"/>
	<g>
		<path fill="#1A1A1A" d="M639.859,38.878v4.221l-0.879-0.012v-9.281h3.641c1.023,0,1.807,0.191,2.348,0.574
			s0.812,1.006,0.812,1.865c0,0.586-0.117,1.051-0.355,1.395c-0.234,0.344-0.619,0.637-1.152,0.877
			c0.273,0.096,0.49,0.232,0.645,0.412c0.154,0.182,0.271,0.389,0.348,0.621c0.078,0.232,0.127,0.477,0.148,0.734
			c0.021,0.26,0.037,0.51,0.045,0.75c0.008,0.354,0.023,0.645,0.045,0.877s0.047,0.422,0.078,0.568
			c0.029,0.146,0.066,0.26,0.111,0.342c0.043,0.082,0.094,0.145,0.154,0.188v0.078l-0.969,0.012
			c-0.094-0.154-0.162-0.369-0.199-0.645c-0.039-0.275-0.07-0.564-0.092-0.865s-0.039-0.594-0.051-0.877
			c-0.014-0.285-0.037-0.518-0.072-0.697c-0.051-0.25-0.135-0.451-0.25-0.602c-0.117-0.148-0.258-0.264-0.42-0.34
			c-0.164-0.078-0.346-0.131-0.549-0.156c-0.201-0.025-0.41-0.039-0.625-0.039H639.859z M642.594,38.13
			c0.328,0,0.631-0.035,0.91-0.104s0.521-0.178,0.73-0.328c0.207-0.152,0.369-0.344,0.49-0.576c0.119-0.23,0.18-0.512,0.18-0.838
			c0-0.344-0.062-0.627-0.188-0.852s-0.291-0.4-0.502-0.529c-0.213-0.129-0.453-0.219-0.723-0.271
			c-0.271-0.053-0.553-0.078-0.848-0.078h-2.785v3.576H642.594z"/>
	</g>
</g>
<g id="others" display="none">
</g>
</svg>
