<?xml version="1.0" encoding="utf-8"?>
<!-- Generator: Adobe Illustrator 16.0.0, SVG Export Plug-In . SVG Version: 6.00 Build 0)  -->
<!DOCTYPE svg PUBLIC "-//W3C//DTD SVG 1.1//EN" "http://www.w3.org/Graphics/SVG/1.1/DTD/svg11.dtd">
<svg version="1.1" xmlns="http://www.w3.org/2000/svg" xmlns:xlink="http://www.w3.org/1999/xlink" x="0px" y="0px" width="660px"
	 height="420.357px" viewBox="0 0 660 420.357" enable-background="new 0 0 660 420.357" xml:space="preserve">
<g id="guide" display="none">
</g>
<g id="logotype">
	<g>
		<g>
			<path fill="#5A5B5B" d="M330.04,181.113l1.7,4.909l0.083-0.269c0,0-0.003-0.142-0.005-0.396c-0.021-0.79-0.085-2.649-0.367-4.577
				c-0.516-3.579-1.771-7.37-4.796-4.873C321.485,180.182,327.514,181.356,330.04,181.113z"/>
			<path fill="#5A5B5B" d="M315.166,195.752c-0.107-0.525-0.621-0.869-1.147-0.758c-0.526,0.107-0.865,0.621-0.758,1.147
				c0.873,4.275,6.544,7.474,11.075,7.512c0.027,0.003,0.053,0.015,0.083,0.015c0.73,0,1.793,0.46,2.92,0.947
				c1.604,0.695,3.424,1.48,5.308,1.48c1.885,0,3.703-0.787,5.309-1.48c1.125-0.487,2.19-0.947,2.918-0.947
				c0.016,0,0.022-0.012,0.038-0.013c4.539-0.016,10.25-3.225,11.125-7.514c0.107-0.526-0.231-1.04-0.758-1.147
				c-0.529-0.111-1.043,0.232-1.147,0.758c-0.674,3.301-5.616,5.96-9.258,5.96c-1.84,0-3.546-0.968-4.863-2.353l-2.307-3.975
				c-0.005-0.013-0.01-0.026-0.012-0.039c-0.045-0.157-0.135-0.287-0.242-0.398l-0.199-0.342c-0.107-0.188-0.303-0.269-0.524-0.286
				c-0.214,0.012-0.406,0.142-0.493,0.337l-0.018,0.037c-0.295,0.104-0.526,0.343-0.613,0.653c-0.879,3.129-3.807,6.365-7.183,6.365
				C320.777,201.712,315.84,199.053,315.166,195.752z"/>
			<path fill="#5A5B5B" d="M333.666,181.111c2.521,0.277,8.566-0.815,3.451-5.159c-2.99-2.538-4.294,1.236-4.862,4.808
				c-0.3,1.925-0.399,3.783-0.422,4.571c-0.008,0.254-0.01,0.399-0.01,0.399l0.072,0.271L333.666,181.111z"/>
			<path fill="#5A5B5B" d="M301.444,97.238c-1.085-0.57-2.424-0.159-2.995,0.923c-16.118,30.46,2.629,41.302,2.82,41.408
				c0.34,0.187,0.706,0.276,1.068,0.276c0.772,0,1.523-0.408,1.93-1.132c0.596-1.062,0.22-2.41-0.838-3.015
				c-0.103-0.059-0.573-0.344-1.229-0.885l-1.563-31.067c0.526-1.139,1.09-2.301,1.73-3.513
				C302.938,99.152,302.527,97.812,301.444,97.238z"/>
			<path fill="#5A5B5B" d="M330,45.91c-69.139,0-125.188,56.045-125.188,125.189c0,51.207,30.754,95.225,74.797,114.613
				c-0.106-0.746-0.035-1.735,0.07-3.168c0,0,6.584-39.27,6.539-46.754c-0.064-10.557-0.344-24.365-0.469-27.301
				c-0.151-3.619-1.052-7.568,0.188-11.107c1.064-3.029,3.342-5.387,4.943-8.117c1.578-2.692,3.069-6.31,4.189-9.214
				c1.085-1.372,1.681,1.06,7.644-2.382c0.631-0.364,5.107-2.521,6.818-4.721c1.09-1.4,0.347-2.282-0.142-2.908
				c-0.611-0.783-2.866-1.87-3.809-2.22c-1.459-0.538-1.98-0.718-3.526-0.851c-1.581-0.138-2.843-0.335-4.709,0.04
				c-1.067,0.212-2.516,0.697-3.082,1.255c-0.568,0.558-0.684,0.054-0.496-0.411l0.706-1.746c1.087-2.703,1.201-3.26,0.254-6.007
				c0,0-0.396-1.171-0.945-3.146l0.093-0.146c-1.208-2.928-7.375-18.597-8.709-35.992c-1.491-19.488,15.852-43.541,15.852-43.541
				c2.185-3.022,4.157-2.464,4.394,1.242l3.908,61.166c0.539,1.756,2.342,2.298,4.586,1.115l6.969-4.712
				c2.783-1.465,4.618-3.058,6.484-3.534c0.638-0.164,1.416-0.249,2.236-0.304v-0.06c0.195,0,0.379,0.025,0.574,0.032
				c0.032,0,0.062-0.004,0.09-0.004c0.029,0,0.06,0.004,0.087,0.004c0.114-0.004,0.229-0.012,0.342-0.021v-0.012
				c0.04,0,0.077,0.005,0.114,0.006c0.04-0.001,0.078-0.006,0.117-0.006v0.012c0.112,0.009,0.225,0.017,0.342,0.021
				c0.027,0,0.061-0.004,0.088-0.004s0.057,0.004,0.09,0.004c0.194-0.007,0.379-0.032,0.573-0.032v0.06
				c0.82,0.055,1.599,0.14,2.237,0.304c1.865,0.477,3.7,2.069,6.483,3.534l6.969,4.712c2.78,1.465,4.918,0.317,4.763-2.552
				l0.021-0.027l3.813-59.702c0.236-3.706,2.212-4.265,4.394-1.242c0,0,17.343,24.053,15.852,43.541
				c-1.35,17.602-7.646,33.433-8.749,36.09l0.03,0.048c-0.549,1.975-0.945,3.146-0.945,3.146c-0.947,2.747-0.833,3.304,0.255,6.007
				l0.705,1.746c0.188,0.465,0.072,0.969-0.496,0.411c-0.566-0.558-2.015-1.043-3.082-1.255c-1.865-0.375-3.128-0.178-4.709-0.04
				c-1.546,0.133-2.064,0.312-3.526,0.851c-0.942,0.35-3.197,1.437-3.808,2.22c-0.489,0.626-1.232,1.508-0.143,2.908
				c1.711,2.199,6.188,4.356,6.818,4.721c5.963,3.441,6.559,1.01,7.644,2.382c1.12,2.904,2.611,6.521,4.19,9.214
				c1.601,2.73,3.878,5.088,4.942,8.117c1.242,3.539,0.339,7.488,0.188,11.107c-0.125,2.936-0.404,16.744-0.469,27.301
				c-0.045,7.484,6.539,46.754,6.539,46.754c0.074,1.007,0.128,1.789,0.119,2.429c43.156-19.755,73.14-63.312,73.14-113.874
				C455.188,101.955,399.142,45.91,330,45.91z"/>
			<path fill="#5A5B5B" d="M357.705,135.408c-1.115,0.51-1.604,1.828-1.093,2.943c0.372,0.813,1.178,1.295,2.018,1.295
				c0.31,0,0.624-0.064,0.926-0.203c0.212-0.098,5.242-2.459,8.407-8.897c4.087-8.312,3.267-19.145-2.439-32.193
				c-0.491-1.124-1.801-1.638-2.923-1.145c-1.125,0.491-1.636,1.799-1.145,2.923c0.546,1.253,1.02,2.45,1.459,3.622l-3.931,30.875
				C358.296,135.114,357.807,135.358,357.705,135.408z"/>
		</g>
		<path fill="#5A5B5B" d="M441.962,311.43h7.122v31.381c0.164,13.442,12.696,24.341,28.088,24.341
			c15.396,0,27.923-10.898,28.086-24.341V311.43h7.124v31.381c-0.159,17.365-15.889,31.453-35.21,31.453
			c-19.311,0-35.054-14.088-35.21-31.453V311.43z M154.739,374.049h-7.121v-31.554c0.158-17.369,15.885-31.455,35.207-31.455
			c19.319,0,35.05,14.086,35.211,31.455v31.554h-7.121v-31.554c-0.168-13.453-12.693-24.344-28.09-24.344
			c-15.397,0-27.924,10.891-28.086,24.344V374.049z M259.729,367.302c11.745-0.08,19.386-4.798,25.436-14.148l7.8,0.013
			c-6.117,14.585-20.387,21.249-33.235,21.249c-19.417,0-35.21-14.396-35.21-31.888c0-1.001,0.059-2.078,0.164-3.063
			c1.756-16.021,16.809-28.657,35.046-28.657c18.12,0,35.06,12.882,35.06,32.599h-63.142
			C232.176,356.567,244.563,367.405,259.729,367.302z M405.797,370.232c-1.048,2.069-2.729,4.215-8.776,4.215
			c-5.078,0-7.326-2.146-8.771-4.215c-0.835-1.201-16.451-23.619-16.785-24.146c-2.006,15.784-16.863,28.361-34.912,28.361
			c-19.421,0-35.216-14.233-35.216-31.724c0-17.492,15.795-31.719,35.216-31.719c13.516,0,24.212,5.653,31.445,16.679l20.453,29.438
			c2.31,3.358,6.055,8.712,6.055,8.712c0.668,0.962,2.075,0.962,2.515,0.962s1.695,0.024,2.196-0.962
			c0.562-1.084,27.031-53.919,27.277-54.403c0,0,8.58-0.009,8.583,0C435.077,311.43,406.588,368.742,405.797,370.232z
			 M336.553,318.116c-15.501,0-28.106,11.038-28.106,24.607c0,13.57,12.605,24.609,28.106,24.609c15.492,0,28.1-11.039,28.1-24.609
			C364.652,329.154,352.045,318.116,336.553,318.116z M259.729,317.922c-13.038,0-24.026,7.812-27.185,18.366h54.387
			C283.771,325.593,272.747,317.922,259.729,317.922z"/>
	</g>
</g>
<g id="others" display="none">
</g>
</svg>
