<?xml version="1.0" encoding="utf-8"?>
<!-- Generator: Adobe Illustrator 16.0.0, SVG Export Plug-In . SVG Version: 6.00 Build 0)  -->
<!DOCTYPE svg PUBLIC "-//W3C//DTD SVG 1.1//EN" "http://www.w3.org/Graphics/SVG/1.1/DTD/svg11.dtd">
<svg version="1.1" id="Layer_1" xmlns="http://www.w3.org/2000/svg" xmlns:xlink="http://www.w3.org/1999/xlink" x="0px" y="0px"
	 width="1920px" height="1080px" viewBox="-2425.486 -4148.078 1920 1080" enable-background="new -2425.486 -4148.078 1920 1080"
	 xml:space="preserve">
<rect x="-2425.486" y="-4148.078" fill="#51AC27" width="1920" height="1080"/>
<text transform="matrix(1 0 0 1 -1944.2588 -3823.4131)" fill="#FFFFFF" font-family="'HelveticaNeue-Thin'" font-size="75.2085">How can Neovu help you?</text>
<g>
	<g>
		<g>
			<path fill="#51AC27" d="M-1434.266-3515.105c-1.377,0-2.498-1.121-2.498-2.498v-13.591c0-1.377,1.121-2.498,2.498-2.498h167.013
				c1.376,0,2.497,1.121,2.497,2.498v13.591c0,1.377-1.12,2.498-2.497,2.498H-1434.266z"/>
			<path fill="#FFFFFF" d="M-1267.253-3532.691c0.827,0,1.497,0.67,1.497,1.498v13.591c0,0.827-0.67,1.498-1.497,1.498h-167.013
				c-0.827,0-1.498-0.67-1.498-1.498v-13.591c0-0.827,0.67-1.498,1.498-1.498H-1267.253 M-1267.253-3534.691h-167.013
				c-1.929,0-3.498,1.569-3.498,3.498v13.591c0,1.929,1.569,3.498,3.498,3.498h167.013c1.928,0,3.497-1.569,3.497-3.498v-13.591
				C-1263.756-3533.122-1265.325-3534.691-1267.253-3534.691L-1267.253-3534.691z"/>
		</g>
		<g>
			<g>
				<path fill="#51AC27" d="M-1434.565-3228.562c-6.066,0-11.002-4.935-11.002-11.001v-272.219c0-6.066,4.936-11.001,11.002-11.001
					h170.606c6.066,0,11.002,4.935,11.002,11.001v272.219c0,6.066-4.936,11.001-11.002,11.001H-1434.565z"/>
				<path fill="#FFFFFF" d="M-1263.959-3521.784c5.5,0,10.002,4.5,10.002,10.001v272.219c0,5.501-4.501,10.001-10.002,10.001
					h-170.606c-5.501,0-10.002-4.5-10.002-10.001v-272.219c0-5.5,4.5-10.001,10.002-10.001H-1263.959 M-1263.959-3523.784h-170.606
					c-6.618,0-12.002,5.384-12.002,12.001v272.219c0,6.618,5.384,12.001,12.002,12.001h170.606c6.618,0,12.002-5.384,12.002-12.001
					v-272.219C-1251.957-3518.4-1257.341-3523.784-1263.959-3523.784L-1263.959-3523.784z"/>
			</g>
		</g>
		<path fill="#FFFFFF" d="M-1326.113-3342.954c-5.237,0-10.009,2.132-13.437,5.583l-6.271,6.27l0.003,0.001l-17.271,17.284
			c-2.572,2.572-6.151,4.183-10.089,4.183c-7.866,0-14.248-6.408-14.248-14.272c0-7.867,6.406-14.272,14.248-14.272
			c3.163,0,6.079,1.024,8.448,2.771l1.064,0.991c0.023,0.092,0.031,0.192,0.018,0.278l-0.736,5.006
			c-0.028,0.188,0.06,0.453,0.196,0.589l1.75,1.75c0.134,0.137,0.355,0.137,0.491,0l0.735-0.735c0.134-0.134,0.355-0.134,0.492,0
			l1.934,1.935c0.135,0.134,0.354,0.355,0.49,0.491l0.01,0.01c0.135,0.136,0.357,0.356,0.493,0.49l0.327,0.331
			c0.021,0.02,0.047,0.037,0.074,0.053c0.042,0.027,0.088,0.043,0.136,0.049l-0.003,0.004c0.009,0,0.018,0,0.027,0
			c0.018,0,0.036,0,0.055-0.002c0.377-0.008,0.749-0.154,1.034-0.438c0.289-0.287,0.445-0.669,0.441-1.042
			c0.001-0.018,0.001-0.037-0.001-0.057c0-0.005,0.001-0.012,0-0.017l0,0.002c-0.011-0.074-0.042-0.145-0.096-0.2l-0.329-0.328
			c-0.066-0.065-0.151-0.151-0.237-0.237l-0.002,0.002c-0.095-0.094-0.191-0.19-0.263-0.262l-0.01-0.011
			c-0.135-0.134-0.356-0.355-0.492-0.49l-1.932-1.934c-0.136-0.136-0.136-0.355,0-0.491l0.763-0.764
			c0.134-0.136,0.355-0.136,0.491,0l2.407,2.408c0.135,0.134,0.355,0.354,0.491,0.489l0.01,0.01
			c0.136,0.136,0.357,0.358,0.492,0.492l0.328,0.328c0.057,0.056,0.127,0.087,0.2,0.097l-0.002,0.005
			c0.008,0,0.017-0.002,0.026-0.002c0.019,0.002,0.037,0.002,0.056,0c0.376-0.01,0.747-0.153,1.034-0.439
			c0.287-0.287,0.442-0.671,0.439-1.042c0.003-0.018,0.003-0.037,0-0.057c0-0.006,0-0.011,0-0.017l-0.001,0.002
			c-0.011-0.074-0.042-0.144-0.099-0.2l-0.327-0.327c-0.135-0.136-0.355-0.356-0.491-0.492l-2.908-2.909
			c-0.136-0.135-0.136-0.355,0-0.491l0.762-0.762c0.136-0.136,0.355-0.136,0.491,0l1.934,1.931c0.135,0.135,0.356,0.357,0.492,0.491
			l0.01,0.011c0.072,0.072,0.167,0.168,0.263,0.263c0.084,0.083,0.164,0.166,0.228,0.229l0.01,0.007l0.319,0.319l0.008,0.009
			c0.056,0.058,0.127,0.087,0.201,0.098l-0.004,0.003c0.009,0,0.018-0.001,0.026-0.001c0.019,0.001,0.038,0.001,0.057,0
			c0.375-0.008,0.748-0.153,1.034-0.438c0.287-0.289,0.443-0.672,0.441-1.043c0.001-0.017,0.001-0.037,0-0.056
			c0-0.005,0-0.012,0-0.019l-0.001,0.004c-0.011-0.074-0.042-0.145-0.098-0.2l-0.009-0.009l-0.319-0.319l-0.008-0.007
			c-0.064-0.065-0.146-0.147-0.229-0.232c-0.096-0.094-0.19-0.19-0.262-0.26l-0.012-0.012c-0.135-0.134-0.355-0.356-0.492-0.492
			l-1.932-1.933c-0.136-0.135-0.136-0.355,0-0.49l0.735-0.736c0.134-0.135,0.134-0.355,0-0.493l-1.75-1.75
			c-0.136-0.135-0.401-0.224-0.59-0.193l-5.008,0.736c-0.086,0.013-0.189,0.009-0.288-0.007l-1.177-0.878
			c-3.25-2.585-7.352-4.128-11.805-4.128c-10.484,0-18.999,8.538-18.999,19.02c0,10.484,8.538,19.021,18.998,19.021
			c5.236,0,10.009-2.131,13.438-5.584l18.704-18.701l-0.006-0.011l4.839-4.843c2.572-2.572,6.151-4.183,10.09-4.18
			c7.864-0.003,14.248,6.404,14.248,14.271c0,7.864-6.405,14.271-14.248,14.271c-3.939,0-7.496-1.587-10.09-4.182l-1.257-1.227
			l-0.938-1.118c-0.028-0.132-0.039-0.257-0.039-0.257l-0.493-6.234c0.027-0.19-0.061-0.455-0.195-0.591l-1.75-1.749
			c-0.136-0.136-0.357-0.136-0.493,0l-9.432,9.431c-0.134,0.135-0.134,0.356,0,0.492l1.75,1.751
			c0.134,0.135,0.399,0.224,0.589,0.194l6.236,0.491c0,0,0.129,0.007,0.27,0.026l1.113,0.943l1.244,1.206
			c3.452,3.451,8.199,5.584,13.437,5.584c10.485,0,18.999-8.538,18.999-19.021
			C-1307.116-3334.417-1315.653-3342.954-1326.113-3342.954z"/>
	</g>
	<g>
		<g>
			<rect x="-1671.694" y="-3574.42" fill="#51AC27" width="174.65" height="314.884"/>
			<path fill="#FFFFFF" d="M-1498.044-3573.42v312.884h-172.65v-312.884H-1498.044 M-1496.044-3575.42h-2h-172.65h-2v2v312.884v2h2
				h172.65h2v-2v-312.884V-3575.42L-1496.044-3575.42z"/>
		</g>
		<g>
			<path fill="#51AC27" d="M-1649.809-3227.677c-15.553,0-28.207-12.654-28.207-28.208v-318.598
				c0-15.553,12.654-28.207,28.207-28.207h134.368c15.529,0,28.205,12.652,28.257,28.204v318.601
				c0,15.554-12.654,28.208-28.207,28.208H-1649.809z M-1501.27-3272.511V-3566.2h-164.277v293.689H-1501.27z"/>
			<path fill="#FFFFFF" d="M-1515.44-3601.689c14.969,0,27.207,12.238,27.257,27.207v318.598c0,14.969-12.238,27.208-27.207,27.208
				h-134.418c-14.969,0-27.207-12.239-27.207-27.208v-318.598c0-14.969,12.238-27.207,27.207-27.207H-1515.44 M-1666.547-3271.511
				h166.277V-3567.2h-166.277V-3271.511 M-1515.44-3603.689h-134.368c-16.105,0-29.207,13.102-29.207,29.207v318.598
				c0,16.105,13.102,29.208,29.207,29.208h134.418c16.105,0,29.207-13.103,29.207-29.208v-318.598
				C-1486.237-3590.59-1499.362-3603.689-1515.44-3603.689L-1515.44-3603.689z M-1664.547-3565.2h162.277v291.689h-162.277V-3565.2
				L-1664.547-3565.2z"/>
		</g>
		<g>
			<rect x="-1540.867" y="-3293.255" fill="#51AC27" width="9.738" height="9.484"/>
			<path fill="#FFFFFF" d="M-1532.129-3292.255v7.484h-7.738v-7.484H-1532.129 M-1530.129-3294.255h-2h-7.738h-2v2v7.484v2h2h7.738
				h2v-2v-7.484V-3294.255L-1530.129-3294.255z"/>
		</g>
		<g>
			<path fill="#51AC27" d="M-1583.711-3283.567c-2.727,0-4.945-2.218-4.945-4.945c0-2.726,2.218-4.944,4.945-4.944
				c2.726,0,4.944,2.218,4.944,4.944C-1578.767-3285.786-1580.985-3283.567-1583.711-3283.567z"/>
			<path fill="#FFFFFF" d="M-1583.711-3292.457c2.178,0,3.944,1.766,3.944,3.944c0,2.179-1.767,3.945-3.944,3.945
				c-2.179,0-3.945-1.767-3.945-3.945C-1587.656-3290.691-1585.89-3292.457-1583.711-3292.457 M-1583.711-3294.457
				c-3.278,0-5.945,2.667-5.945,5.944c0,3.278,2.667,5.945,5.945,5.945c3.278,0,5.944-2.667,5.944-5.945
				C-1577.767-3291.791-1580.433-3294.457-1583.711-3294.457L-1583.711-3294.457z"/>
		</g>
		<g>
			<polygon fill="#51AC27" points="-1632.104,-3285.22 -1637.708,-3288.402 -1626.507,-3294.901 -1626.507,-3281.972 			"/>
			<path fill="#FFFFFF" d="M-1627.507-3293.165v4.753v4.703l-4.096-2.377l-4.096-2.326l4.096-2.377L-1627.507-3293.165
				 M-1625.507-3296.637l-3.004,1.743l-4.096,2.376l-4.096,2.377l-3.013,1.749l3.029,1.721l4.096,2.326l4.08,2.368l3.004,1.743
				v-3.473v-4.703v-4.753V-3296.637L-1625.507-3296.637z"/>
		</g>
	</g>
	<g>
		<path fill="#FFFFFF" d="M-1555.862-3475.417c-6.202,0-11.856,2.525-15.917,6.614l-7.428,7.425l0.004,0.005l-20.459,20.472
			c-3.047,3.047-7.286,4.954-11.952,4.954c-9.317,0-16.878-7.588-16.878-16.907c0-9.316,7.587-16.905,16.878-16.905
			c3.747,0,7.201,1.214,10.009,3.283l1.26,1.173c0.027,0.108,0.036,0.225,0.021,0.329l-0.87,5.93
			c-0.034,0.224,0.071,0.539,0.23,0.699l2.073,2.073c0.161,0.161,0.423,0.161,0.583,0l0.87-0.87c0.16-0.16,0.422-0.16,0.582,0
			l2.291,2.29c0.161,0.16,0.422,0.422,0.582,0.582l0.012,0.012c0.161,0.161,0.422,0.422,0.583,0.583l0.387,0.387
			c0.027,0.026,0.057,0.046,0.087,0.064c0.05,0.03,0.104,0.05,0.162,0.058l-0.004,0.003c0.012,0.001,0.021-0.001,0.032-0.001
			c0.022,0.002,0.045,0.002,0.066,0c0.444-0.011,0.885-0.181,1.223-0.521c0.341-0.34,0.524-0.793,0.522-1.234
			c0.001-0.021,0.001-0.044,0-0.066c-0.001-0.007,0-0.014,0-0.021l-0.002,0.002c-0.012-0.087-0.049-0.17-0.116-0.236l-0.388-0.388
			c-0.078-0.078-0.179-0.179-0.281-0.281l-0.004,0.002c-0.111-0.112-0.224-0.225-0.31-0.312l-0.012-0.012
			c-0.16-0.16-0.423-0.422-0.583-0.583l-2.29-2.29c-0.159-0.16-0.159-0.422,0-0.582l0.906-0.905c0.159-0.16,0.421-0.16,0.582,0
			l2.85,2.85c0.161,0.162,0.423,0.423,0.583,0.583l0.012,0.012c0.16,0.161,0.423,0.422,0.582,0.583l0.388,0.388
			c0.066,0.066,0.15,0.104,0.237,0.115l-0.004,0.002c0.011,0,0.021,0,0.032,0c0.021,0.001,0.044,0.001,0.065-0.001
			c0.446-0.01,0.886-0.181,1.224-0.52c0.341-0.341,0.524-0.794,0.522-1.234c0.002-0.021,0.001-0.044-0.001-0.067
			c0-0.006,0.001-0.014,0-0.021l-0.002,0.002c-0.011-0.087-0.048-0.171-0.115-0.236l-0.387-0.388
			c-0.161-0.159-0.422-0.422-0.582-0.582l-3.447-3.446c-0.16-0.161-0.16-0.422,0-0.583l0.905-0.903c0.16-0.16,0.421-0.16,0.582,0
			l2.29,2.29c0.161,0.16,0.422,0.422,0.582,0.582l0.012,0.012c0.085,0.085,0.2,0.199,0.312,0.312c0.1,0.098,0.197,0.196,0.271,0.271
			l0.01,0.01l0.379,0.378l0.01,0.011c0.066,0.065,0.151,0.104,0.237,0.114l-0.004,0.003c0.011,0,0.021-0.001,0.033,0
			c0.021,0.001,0.044,0,0.065-0.001c0.444-0.01,0.886-0.181,1.225-0.521c0.339-0.341,0.523-0.793,0.521-1.234
			c0.002-0.022,0.001-0.044,0-0.066c0-0.007,0-0.014,0-0.021l-0.002,0.001c-0.012-0.086-0.048-0.169-0.114-0.236l-0.012-0.011
			l-0.378-0.378l-0.011-0.011c-0.074-0.075-0.172-0.172-0.27-0.271c-0.114-0.112-0.227-0.226-0.312-0.311l-0.012-0.014
			c-0.162-0.16-0.424-0.421-0.583-0.582l-2.289-2.29c-0.161-0.161-0.161-0.423,0-0.583l0.869-0.87c0.161-0.16,0.161-0.422,0-0.583
			l-2.073-2.074c-0.159-0.16-0.473-0.265-0.698-0.232l-5.932,0.874c-0.101,0.015-0.224,0.011-0.341-0.009l-1.393-1.04
			c-3.852-3.063-8.71-4.89-13.985-4.89c-12.42,0-22.505,10.113-22.506,22.531c0.001,12.419,10.115,22.533,22.505,22.533
			c6.204,0,11.856-2.526,15.919-6.615l22.157-22.151l-0.007-0.015l5.732-5.736c3.045-3.047,7.285-4.954,11.951-4.954
			c9.317,0,16.878,7.589,16.878,16.906c0,9.317-7.589,16.905-16.878,16.905c-4.666,0-8.878-1.879-11.951-4.953l-1.491-1.454
			l-1.109-1.324c-0.034-0.156-0.047-0.303-0.047-0.303l-0.583-7.386c0.033-0.224-0.072-0.539-0.232-0.699l-2.073-2.074
			c-0.16-0.16-0.422-0.16-0.582,0l-11.174,11.174c-0.16,0.161-0.16,0.421,0,0.583l2.073,2.074c0.159,0.16,0.475,0.265,0.698,0.231
			l7.389,0.581c0,0,0.152,0.007,0.319,0.03l1.317,1.116l1.473,1.43c4.088,4.088,9.715,6.614,15.918,6.614
			c12.418,0,22.504-10.113,22.504-22.531S-1543.472-3475.417-1555.862-3475.417z"/>
		<text transform="matrix(1 0 0 1 -1632.8672 -3409.314)" fill="#FFFFFF" font-family="'HelveticaNeue-Light'" font-size="17.0323">SAV</text>
		<text transform="matrix(1 0 0 1 -1601.3066 -3409.314)" fill="#FFFFFF" font-family="'HelveticaNeue-Light'" font-size="17.0323">ENERGY</text>
	</g>
</g>
</svg>
