<?xml version="1.0" encoding="utf-8"?>
<!-- Generator: Adobe Illustrator 16.0.0, SVG Export Plug-In . SVG Version: 6.00 Build 0)  -->
<!DOCTYPE svg PUBLIC "-//W3C//DTD SVG 1.1//EN" "http://www.w3.org/Graphics/SVG/1.1/DTD/svg11.dtd">
<svg version="1.1" id="Layer_1" xmlns="http://www.w3.org/2000/svg" xmlns:xlink="http://www.w3.org/1999/xlink" x="0px" y="0px"
	 width="1920px" height="1080px" viewBox="0 0 1920 1080" enable-background="new 0 0 1920 1080" xml:space="preserve">
<rect x="-0.001" y="0" fill="#51AC27" width="1920" height="1080"/>
<g>
	<g>
		<g>
			<path fill="#51AC27" d="M991.219,632.974c-1.377,0-2.498-1.121-2.498-2.498v-13.591c0-1.377,1.121-2.498,2.498-2.498h167.014
				c1.376,0,2.497,1.121,2.497,2.498v13.591c0,1.377-1.12,2.498-2.497,2.498H991.219z"/>
			<path fill="#FFFFFF" d="M1158.232,615.388c0.827,0,1.497,0.67,1.497,1.498v13.591c0,0.827-0.671,1.498-1.497,1.498H991.219
				c-0.826,0-1.498-0.67-1.498-1.498v-13.591c0-0.827,0.67-1.498,1.498-1.498H1158.232 M1158.232,613.388H991.219
				c-1.929,0-3.498,1.569-3.498,3.498v13.591c0,1.93,1.569,3.498,3.498,3.498h167.014c1.928,0,3.496-1.568,3.496-3.498v-13.591
				C1161.729,614.957,1160.16,613.388,1158.232,613.388L1158.232,613.388z"/>
		</g>
		<g>
			<g>
				<path fill="#51AC27" d="M990.92,919.517c-6.065,0-11.002-4.935-11.002-11.001V636.297c0-6.066,4.937-11.002,11.002-11.002
					h170.606c6.065,0,11.002,4.936,11.002,11.002v272.219c0,6.066-4.937,11.001-11.002,11.001H990.92z"/>
				<path fill="#FFFFFF" d="M1161.526,626.295c5.5,0,10.002,4.5,10.002,10v272.22c0,5.501-4.501,10.001-10.002,10.001H990.92
					c-5.5,0-10.002-4.5-10.002-10.001v-272.22c0-5.5,4.5-10,10.002-10H1161.526 M1161.526,624.295H990.92
					c-6.617,0-12.002,5.384-12.002,12v272.22c0,6.618,5.385,12.001,12.002,12.001h170.606c6.618,0,12.002-5.385,12.002-12.001
					v-272.22C1173.528,629.679,1168.145,624.295,1161.526,624.295L1161.526,624.295z"/>
			</g>
		</g>
		<g>
			<g>
				<path fill="#FFFFFF" d="M1085.812,831.165c-1.661,0-3.212,0.524-4.366,1.474c-0.308,0.256-1.128,0.931-1.125,1.535
					c0.003,0.6,0.414,0.88,1.092,1.271c0.089,0.053,0.178,0.104,0.265,0.156c0.795,0.482,3.604,1.497,4.119,1.565l0.119,0.015
					c0.314,0.041,0.64,0.084,0.947,0.084c0,0,0,0,0.001,0c0.556,0,0.94-0.137,1.247-0.443c0.584-0.584,1.389-1.478,1.628-2.484
					c0.139-0.587,0.065-1.157-0.214-1.652c-0.346-0.612-0.979-1.077-1.739-1.271
					C1087.142,831.249,1086.478,831.165,1085.812,831.165z"/>
				<path fill="#FFFFFF" d="M1082.65,843.983c-0.182-0.037-0.359,0.081-0.396,0.263c-0.233,1.138-1.937,2.055-3.192,2.055
					c-1.164,0-2.174-1.115-2.478-2.195c-0.004-0.016-0.02-0.022-0.024-0.037v-1.819c1.393-0.283,3.113-2.167,3.467-2.569
					c0.192-0.219,0.17-0.551-0.048-0.742c-0.219-0.192-0.55-0.17-0.742,0.048c-0.822,0.935-2.301,2.251-3.012,2.251
					c-0.712,0-2.191-1.316-3.014-2.251c-0.192-0.218-0.523-0.24-0.742-0.048c-0.218,0.191-0.239,0.523-0.048,0.742
					c0.354,0.403,2.074,2.285,3.468,2.569v1.819c-0.006,0.014-0.021,0.021-0.025,0.037c-0.304,1.08-1.312,2.195-2.479,2.195
					c-1.255,0-2.958-0.917-3.191-2.056c-0.037-0.182-0.216-0.299-0.396-0.262s-0.298,0.215-0.261,0.397
					c0.305,1.482,2.283,2.592,3.849,2.592c1.24,0,2.27-0.898,2.815-1.927c0.009,0.001,0.016,0.005,0.024,0.005
					c0.008,0,0.015-0.004,0.023-0.005c0.547,1.028,1.575,1.927,2.813,1.927c1.567,0,3.546-1.109,3.851-2.594
					C1082.949,844.198,1082.831,844.021,1082.65,843.983z"/>
				<path fill="#FFFFFF" d="M1066.171,822.441l0.72-18.801c0,0-2.368,2.616-3.042,6.476
					C1062.009,820.642,1066.171,822.441,1066.171,822.441z"/>
				<path fill="#FFFFFF" d="M1071.264,835.444c0.686-0.391,1.102-0.671,1.105-1.271c0.002-0.604-0.826-1.279-1.14-1.535
					c-1.167-0.949-2.735-1.474-4.415-1.474c-0.674,0-1.346,0.084-1.996,0.249c-0.769,0.193-1.409,0.658-1.761,1.272
					c-0.282,0.493-0.355,1.063-0.216,1.65c0.243,1.009,1.057,1.901,1.647,2.484c0.31,0.307,0.699,0.443,1.261,0.443
					c0.312,0,0.641-0.043,0.959-0.084l0.122-0.015c0.521-0.068,3.361-1.083,4.166-1.565
					C1071.083,835.548,1071.173,835.497,1071.264,835.444z"/>
				<path fill="#FFFFFF" d="M1076.225,791.268c-23.031,0-41.701,18.668-41.701,41.701c0,23.027,18.67,41.696,41.701,41.696
					c23.03,0,41.699-18.669,41.699-41.696C1117.924,809.936,1099.255,791.268,1076.225,791.268z M1089.804,826.962l0.644,1.796
					c0.373,1.042-0.217,2.028-1.312,2.193l-0.19,0.034c0.752,0.284,1.382,0.765,1.757,1.386c0.385,0.637,0.488,1.368,0.298,2.115
					c-0.296,1.163-1.237,2.144-1.919,2.78c-0.169,0.157-0.36,0.272-0.565,0.367c0.352,0.246,0.64,0.465,0.787,0.606
					c0.344,0.327,0.667,1.499,0.716,2.604c0,0,0.425,9.42,0.559,12.555c0.146,3.392-0.738,13.52-0.738,13.52
					c0.05,1.105-0.701,2.454-1.666,2.996c0,0-2.997,2.437-11.673,2.437c-0.095,0-0.185-0.003-0.274-0.005
					c-0.091,0.002-0.182,0.005-0.275,0.005c-8.676,0-11.674-2.437-11.674-2.437c-0.965-0.542-1.715-1.891-1.665-2.996
					c0,0-0.879-10.217-0.734-13.638c0.131-3.106,0.555-12.437,0.555-12.437c0.049-1.105,0.372-2.277,0.715-2.604
					c0.162-0.154,0.489-0.4,0.884-0.674c-0.149-0.084-0.291-0.18-0.42-0.3c-0.683-0.636-1.623-1.616-1.919-2.78
					c-0.19-0.747-0.088-1.478,0.297-2.115c0.36-0.596,0.954-1.066,1.665-1.354l-0.34-0.065c-1.096-0.165-1.686-1.151-1.312-2.193
					l0.644-1.796c0.374-1.042,0.414-2.762,0.09-3.82c0,0-1.644-5.372-1.433-11.14c0.214-5.823,6.218-12.262,6.218-12.262
					c0.756-0.811,1.327-0.567,1.273,0.538l-1.119,22.631c-0.055,1.104,0.681,1.547,1.633,0.982l3.06-1.815
					c0.952-0.565,2.255-1.179,2.895-1.362c0.217-0.064,0.486-0.097,0.766-0.117v-0.021c0.067,0,0.13,0.009,0.198,0.01
					c0.066-0.001,0.129-0.01,0.197-0.01v0.021c0.28,0.021,0.549,0.053,0.766,0.117c0.639,0.184,1.942,0.797,2.895,1.362l3.06,1.815
					c0.952,0.564,1.687,0.122,1.632-0.982l-1.118-22.631c-0.055-1.105,0.519-1.349,1.273-0.538c0,0,6.003,6.438,6.217,12.262
					c0.211,5.768-1.433,11.14-1.433,11.14C1089.391,824.2,1089.43,825.92,1089.804,826.962z"/>
				<path fill="#FFFFFF" d="M1085.657,803.6l0.72,18.8c0,0,4.162-1.8,2.323-12.325C1088.025,806.216,1085.657,803.6,1085.657,803.6z
					"/>
			</g>
			<path fill="#FFFFFF" d="M1090.594,853.784"/>
		</g>
	</g>
	<g>
		<g>
			<rect x="753.792" y="573.658" fill="#51AC27" width="174.65" height="314.885"/>
			<path fill="#FFFFFF" d="M927.441,574.658v312.885h-172.65V574.658H927.441 M929.441,572.658h-2h-172.65h-2v2v312.885v2h2h172.65
				h2v-2V574.658V572.658L929.441,572.658z"/>
		</g>
		<g>
			<path fill="#51AC27" d="M775.676,920.402c-15.553,0-28.207-12.654-28.207-28.209V573.596c0-15.553,12.654-28.207,28.207-28.207
				h134.368c15.529,0,28.205,12.652,28.257,28.204v318.601c0,15.555-12.654,28.209-28.207,28.209H775.676L775.676,920.402z
				 M924.215,875.568V581.879H759.938v293.689H924.215z"/>
			<path fill="#FFFFFF" d="M910.045,546.39c14.969,0,27.207,12.237,27.257,27.207v318.599c0,14.969-12.238,27.207-27.207,27.207
				H775.677c-14.969,0-27.207-12.238-27.207-27.207V573.597c0-14.97,12.238-27.207,27.207-27.207H910.045 M758.938,876.568h166.277
				V580.879H758.938V876.568 M910.045,544.39H775.677c-16.105,0-29.207,13.103-29.207,29.207v318.599
				c0,16.104,13.102,29.207,29.207,29.207h134.418c16.105,0,29.207-13.104,29.207-29.207V573.597
				C939.248,557.488,926.123,544.39,910.045,544.39L910.045,544.39z M760.938,582.879h162.277v291.689H760.938V582.879
				L760.938,582.879z"/>
		</g>
		<g>
			<rect x="884.618" y="854.824" fill="#51AC27" width="9.738" height="9.483"/>
			<path fill="#FFFFFF" d="M893.356,855.824v7.483h-7.738v-7.483H893.356 M895.356,853.824h-2h-7.738h-2v2v7.483v2h2h7.738h2v-2
				v-7.483V853.824L895.356,853.824z"/>
		</g>
		<g>
			<path fill="#51AC27" d="M841.774,864.512c-2.727,0-4.945-2.219-4.945-4.945s2.218-4.943,4.945-4.943
				c2.726,0,4.944,2.217,4.944,4.943S844.5,864.512,841.774,864.512z"/>
			<path fill="#FFFFFF" d="M841.774,855.621c2.178,0,3.944,1.767,3.944,3.945c0,2.178-1.767,3.944-3.944,3.944
				c-2.179,0-3.945-1.767-3.945-3.944C837.829,857.388,839.595,855.621,841.774,855.621 M841.774,853.621
				c-3.278,0-5.945,2.668-5.945,5.945s2.667,5.944,5.945,5.944c3.278,0,5.944-2.667,5.944-5.944
				C847.718,856.287,845.052,853.621,841.774,853.621L841.774,853.621z"/>
		</g>
		<g>
			<polygon fill="#51AC27" points="793.381,862.859 787.777,859.676 798.979,853.178 798.979,866.107 			"/>
			<path fill="#FFFFFF" d="M797.979,854.914v4.752v4.703l-4.096-2.377l-4.096-2.326l4.096-2.377L797.979,854.914 M799.979,851.441
				l-3.004,1.743l-4.096,2.376l-4.096,2.377l-3.013,1.749l3.029,1.722l4.096,2.325l4.08,2.368l3.004,1.742v-3.473v-4.703v-4.752
				V851.441L799.979,851.441z"/>
		</g>
	</g>
	<g>
		
			<text transform="matrix(1 0 0 1 800.5938 790.9795)" fill="#FFFFFF" font-family="'Helvetica-Light'" font-size="13.6145" letter-spacing="2">savehome</text>
		<g>
			<path fill="#FFFFFF" d="M880.438,755.337h2.389v10.525c0.055,4.509,4.258,8.164,9.42,8.164c5.164,0,9.365-3.655,9.419-8.164
				v-10.525h2.389v10.525c-0.053,5.824-5.329,10.55-11.809,10.55c-6.477,0-11.757-4.726-11.81-10.55V755.337z M784.105,776.34
				h-2.388v-10.583c0.053-5.825,5.328-10.55,11.808-10.55c6.479,0,11.755,4.725,11.81,10.55v10.583h-2.389v-10.583
				c-0.056-4.512-4.257-8.164-9.421-8.164s-9.365,3.652-9.42,8.164V776.34z M819.318,774.076c3.939-0.026,6.501-1.609,8.531-4.744
				l2.616,0.003c-2.052,4.893-6.838,7.128-11.147,7.128c-6.512,0-11.81-4.829-11.81-10.695c0-0.336,0.02-0.697,0.056-1.027
				c0.589-5.373,5.638-9.611,11.754-9.611c6.077,0,11.759,4.32,11.759,10.933h-21.178
				C810.077,770.477,814.232,774.111,819.318,774.076z M868.309,775.06c-0.352,0.694-0.916,1.414-2.944,1.414
				c-1.703,0-2.457-0.72-2.941-1.414c-0.28-0.403-5.518-7.922-5.63-8.099c-0.673,5.294-5.656,9.513-11.708,9.513
				c-6.514,0-11.812-4.774-11.812-10.641s5.297-10.638,11.812-10.638c4.533,0,8.12,1.896,10.546,5.594l6.86,9.873
				c0.774,1.127,2.031,2.922,2.031,2.922c0.224,0.322,0.696,0.322,0.843,0.322c0.148,0,0.569,0.009,0.736-0.322
				c0.189-0.363,9.067-18.084,9.148-18.247c0,0,2.878-0.002,2.879,0C878.128,755.337,868.573,774.56,868.309,775.06z
				 M845.085,757.58c-5.2,0-9.428,3.702-9.428,8.253c0,4.552,4.228,8.254,9.428,8.254c5.195,0,9.424-3.702,9.424-8.254
				C854.509,761.282,850.28,757.58,845.085,757.58z M819.318,757.515c-4.373,0-8.058,2.62-9.118,6.16h18.241
				C827.382,760.088,823.685,757.515,819.318,757.515z"/>
			<g>
				<g>
					<path fill="#FFFFFF" d="M853.547,696.265c-1.847,0-3.57,0.582-4.854,1.639c-0.342,0.283-1.254,1.034-1.251,1.707
						c0.003,0.666,0.461,0.979,1.214,1.412c0.099,0.06,0.198,0.115,0.295,0.174c0.883,0.536,4.007,1.664,4.579,1.74l0.133,0.017
						c0.349,0.046,0.71,0.093,1.053,0.093c0,0,0,0,0.001,0c0.618,0,1.045-0.151,1.387-0.492c0.649-0.649,1.543-1.643,1.81-2.763
						c0.155-0.652,0.073-1.287-0.238-1.837c-0.384-0.682-1.09-1.198-1.934-1.413C855.026,696.357,854.288,696.265,853.547,696.265z"
						/>
					<path fill="#FFFFFF" d="M850.033,710.518c-0.201-0.042-0.399,0.09-0.44,0.292c-0.259,1.265-2.153,2.285-3.549,2.285
						c-1.294,0-2.418-1.241-2.755-2.442c-0.005-0.017-0.021-0.024-0.028-0.041v-2.022c1.549-0.315,3.463-2.41,3.855-2.857
						c0.214-0.243,0.189-0.612-0.053-0.825c-0.244-0.214-0.612-0.189-0.825,0.054c-0.915,1.038-2.559,2.503-3.35,2.503
						s-2.436-1.465-3.351-2.503c-0.213-0.243-0.582-0.268-0.824-0.054c-0.243,0.213-0.267,0.582-0.054,0.825
						c0.394,0.448,2.307,2.542,3.856,2.857v2.022c-0.007,0.016-0.024,0.024-0.029,0.041c-0.337,1.201-1.459,2.442-2.755,2.442
						c-1.396,0-3.289-1.021-3.549-2.286c-0.041-0.202-0.24-0.333-0.44-0.291c-0.201,0.041-0.332,0.238-0.29,0.441
						c0.338,1.648,2.539,2.882,4.279,2.882c1.378,0,2.523-0.999,3.13-2.143c0.009,0.002,0.018,0.005,0.027,0.005
						c0.01,0,0.017-0.003,0.027-0.005c0.607,1.144,1.752,2.143,3.129,2.143c1.742,0,3.942-1.233,4.28-2.884
						C850.365,710.756,850.234,710.559,850.033,710.518z"/>
					<path fill="#FFFFFF" d="M831.708,686.563l0.8-20.903c0,0-2.633,2.908-3.383,7.199
						C827.081,684.562,831.708,686.563,831.708,686.563z"/>
					<path fill="#FFFFFF" d="M837.372,701.022c0.762-0.434,1.225-0.746,1.229-1.412c0.002-0.672-0.919-1.424-1.267-1.707
						c-1.298-1.057-3.042-1.639-4.909-1.639c-0.75,0-1.497,0.093-2.22,0.276c-0.854,0.215-1.567,0.731-1.957,1.415
						c-0.313,0.549-0.396,1.183-0.24,1.835c0.27,1.121,1.174,2.114,1.832,2.763c0.344,0.341,0.777,0.492,1.402,0.492
						c0.347,0,0.712-0.047,1.066-0.093l0.135-0.017c0.579-0.076,3.739-1.204,4.632-1.74
						C837.171,701.138,837.271,701.082,837.372,701.022z"/>
					<path fill="#FFFFFF" d="M842.887,651.901c-25.609,0-46.367,20.757-46.367,46.368c0,25.604,20.758,46.363,46.367,46.363
						s46.367-20.759,46.367-46.363C889.254,672.658,868.496,651.901,842.887,651.901z M857.987,691.591l0.715,1.997
						c0.415,1.159-0.241,2.255-1.459,2.438l-0.212,0.038c0.836,0.315,1.536,0.85,1.954,1.541c0.428,0.708,0.542,1.521,0.331,2.352
						c-0.329,1.294-1.375,2.384-2.133,3.092c-0.187,0.174-0.4,0.303-0.628,0.408c0.391,0.273,0.71,0.517,0.875,0.674
						c0.381,0.364,0.74,1.667,0.795,2.896c0,0,0.474,10.475,0.622,13.96c0.161,3.771-0.821,15.032-0.821,15.032
						c0.055,1.229-0.779,2.729-1.852,3.331c0,0-3.333,2.709-12.98,2.709c-0.104,0-0.205-0.003-0.305-0.004
						c-0.1,0.001-0.201,0.004-0.305,0.004c-9.647,0-12.98-2.709-12.98-2.709c-1.073-0.603-1.907-2.102-1.852-3.331
						c0,0-0.977-11.36-0.816-15.164c0.145-3.454,0.616-13.828,0.616-13.828c0.055-1.229,0.413-2.532,0.795-2.896
						c0.18-0.171,0.543-0.444,0.983-0.749c-0.167-0.093-0.325-0.2-0.469-0.333c-0.758-0.707-1.804-1.797-2.133-3.092
						c-0.212-0.83-0.097-1.644,0.331-2.352c0.401-0.663,1.06-1.186,1.852-1.507l-0.378-0.072c-1.218-0.184-1.875-1.279-1.459-2.438
						l0.716-1.997c0.416-1.158,0.46-3.071,0.101-4.248c0,0-1.828-5.974-1.593-12.386c0.238-6.476,6.914-13.635,6.914-13.635
						c0.84-0.9,1.477-0.631,1.416,0.599l-1.244,25.163c-0.061,1.229,0.756,1.721,1.815,1.093l3.402-2.019
						c1.059-0.629,2.507-1.311,3.217-1.515c0.243-0.071,0.542-0.107,0.853-0.13v-0.024c0.075,0,0.145,0.01,0.22,0.011
						c0.074-0.001,0.145-0.011,0.219-0.011v0.024c0.312,0.022,0.61,0.059,0.852,0.13c0.711,0.204,2.16,0.886,3.218,1.515
						l3.402,2.019c1.059,0.628,1.875,0.136,1.815-1.093l-1.244-25.163c-0.062-1.229,0.576-1.499,1.416-0.599
						c0,0,6.675,7.159,6.912,13.635c0.235,6.412-1.592,12.386-1.592,12.386C857.526,688.52,857.571,690.433,857.987,691.591z"/>
					<path fill="#FFFFFF" d="M853.376,665.613l0.8,20.904c0,0,4.628-2.001,2.583-13.704
						C856.009,668.522,853.376,665.613,853.376,665.613z"/>
				</g>
				<path fill="#FFFFFF" d="M858.865,721.415"/>
			</g>
		</g>
	</g>
</g>
<g>
	<g enable-background="new    ">
		<path fill="#FFFFFF" d="M481.229,270.966h3.309v24.368h34.295v-24.368h3.309v53.699h-3.309v-26.474h-34.295v26.474h-3.309V270.966
			z"/>
		<path fill="#FFFFFF" d="M529.287,305.337c0-2.757,0.388-5.352,1.166-7.784c0.777-2.432,1.918-4.575,3.422-6.431
			c1.504-1.854,3.358-3.321,5.565-4.399c2.206-1.078,4.738-1.617,7.596-1.617s5.389,0.539,7.596,1.617
			c2.206,1.078,4.061,2.545,5.565,4.399c1.504,1.855,2.644,3.999,3.422,6.431c0.777,2.433,1.166,5.027,1.166,7.784
			c0,2.758-0.389,5.365-1.166,7.821c-0.778,2.457-1.917,4.601-3.422,6.431s-3.36,3.284-5.565,4.361
			c-2.207,1.078-4.738,1.617-7.596,1.617s-5.39-0.539-7.596-1.617c-2.207-1.077-4.062-2.531-5.565-4.361
			c-1.504-1.83-2.646-3.974-3.422-6.431C529.675,310.703,529.287,308.095,529.287,305.337z M532.145,305.337
			c0,2.307,0.326,4.525,0.978,6.655c0.651,2.132,1.604,4.023,2.858,5.679c1.253,1.654,2.808,2.971,4.663,3.948
			c1.854,0.978,3.986,1.467,6.393,1.467s4.537-0.489,6.393-1.467c1.854-0.978,3.409-2.294,4.663-3.948
			c1.253-1.655,2.206-3.547,2.858-5.679c0.651-2.13,0.978-4.349,0.978-6.655c0-2.306-0.327-4.524-0.978-6.656
			c-0.652-2.131-1.605-4.023-2.858-5.679c-1.254-1.654-2.809-2.971-4.663-3.948c-1.856-0.978-3.986-1.467-6.393-1.467
			s-4.538,0.489-6.393,1.467c-1.855,0.978-3.41,2.294-4.663,3.948c-1.254,1.655-2.207,3.548-2.858,5.679
			C532.471,300.813,532.145,303.032,532.145,305.337z"/>
		<path fill="#FFFFFF" d="M581.104,321.356h0.15l10.529-35.348h3.835l10.604,35.348h0.15l10.83-35.348h3.159l-12.409,38.657h-3.535
			l-10.604-35.047h-0.151l-10.679,35.047h-3.61l-12.259-38.657h3.083L581.104,321.356z"/>
		<path fill="#FFFFFF" d="M654.959,321.356h0.15l10.529-35.348h3.835l10.604,35.348h0.15l10.83-35.348h3.159l-12.409,38.657h-3.535
			l-10.604-35.047h-0.151l-10.679,35.047h-3.61l-12.259-38.657h3.083L654.959,321.356z"/>
		<path fill="#FFFFFF" d="M696.474,305.337c0-2.757,0.388-5.352,1.166-7.784c0.777-2.432,1.918-4.575,3.422-6.431
			c1.504-1.854,3.358-3.321,5.565-4.399c2.206-1.078,4.738-1.617,7.596-1.617s5.389,0.539,7.596,1.617
			c2.206,1.078,4.061,2.545,5.565,4.399c1.504,1.855,2.644,3.999,3.422,6.431c0.777,2.433,1.166,5.027,1.166,7.784
			c0,2.758-0.389,5.365-1.166,7.821c-0.778,2.457-1.917,4.601-3.422,6.431s-3.36,3.284-5.565,4.361
			c-2.207,1.078-4.738,1.617-7.596,1.617s-5.39-0.539-7.596-1.617c-2.207-1.077-4.062-2.531-5.565-4.361
			c-1.504-1.83-2.646-3.974-3.422-6.431C696.861,310.703,696.474,308.095,696.474,305.337z M699.332,305.337
			c0,2.307,0.326,4.525,0.978,6.655c0.651,2.132,1.604,4.023,2.858,5.679c1.253,1.654,2.808,2.971,4.663,3.948
			c1.854,0.978,3.986,1.467,6.393,1.467s4.537-0.489,6.393-1.467c1.854-0.978,3.409-2.294,4.663-3.948
			c1.253-1.655,2.206-3.547,2.858-5.679c0.651-2.13,0.978-4.349,0.978-6.655c0-2.306-0.327-4.524-0.978-6.656
			c-0.652-2.131-1.605-4.023-2.858-5.679c-1.254-1.654-2.809-2.971-4.663-3.948c-1.856-0.978-3.986-1.467-6.393-1.467
			s-4.538,0.489-6.393,1.467c-1.855,0.978-3.41,2.294-4.663,3.948c-1.254,1.655-2.207,3.548-2.858,5.679
			C699.657,300.813,699.332,303.032,699.332,305.337z"/>
		<path fill="#FFFFFF" d="M741.523,294.583h0.226c0.35-1.253,0.989-2.432,1.917-3.535c0.927-1.103,2.056-2.056,3.385-2.858
			c1.328-0.801,2.807-1.416,4.437-1.842c1.629-0.426,3.321-0.614,5.077-0.564v2.858c-1.504-0.2-3.222-0.05-5.152,0.451
			c-1.931,0.501-3.773,1.604-5.528,3.309c-0.703,0.752-1.316,1.479-1.843,2.182c-0.526,0.702-0.966,1.479-1.316,2.331
			c-0.352,0.854-0.627,1.805-0.827,2.858c-0.201,1.053-0.327,2.307-0.376,3.76v21.134h-2.858v-38.657h2.858V294.583z"/>
		<path fill="#FFFFFF" d="M759.723,270.966h2.858v35.574l23.841-20.532h4.136l-16.921,14.44l18.125,24.217h-3.911l-16.471-22.036
			l-8.799,7.445v14.591h-2.858V270.966z"/>
		<path fill="#FFFFFF" d="M795.748,311.805c0.1,1.805,0.501,3.397,1.203,4.775c0.702,1.38,1.617,2.558,2.745,3.535
			s2.444,1.718,3.948,2.219c1.505,0.501,3.134,0.752,4.889,0.752c1.253,0,2.595-0.113,4.024-0.339
			c1.429-0.226,2.757-0.639,3.985-1.241c1.229-0.602,2.243-1.44,3.046-2.52c0.802-1.077,1.203-2.443,1.203-4.099
			c0-2.155-0.651-3.785-1.955-4.889c-1.305-1.102-2.946-1.955-4.926-2.557c-1.981-0.602-4.112-1.091-6.393-1.467
			c-2.282-0.376-4.413-0.94-6.394-1.692s-3.622-1.816-4.926-3.196c-1.305-1.378-1.955-3.396-1.955-6.054
			c0-1.905,0.425-3.497,1.278-4.776c0.852-1.278,1.942-2.294,3.271-3.046c1.328-0.752,2.82-1.29,4.475-1.617
			c1.655-0.325,3.31-0.488,4.964-0.488c2.005,0,3.885,0.226,5.641,0.677c1.755,0.451,3.271,1.179,4.551,2.181
			c1.278,1.004,2.28,2.282,3.008,3.836c0.727,1.555,1.091,3.435,1.091,5.641h-2.858c0-1.754-0.289-3.259-0.864-4.513
			c-0.577-1.252-1.38-2.268-2.407-3.046c-1.028-0.776-2.244-1.354-3.647-1.729c-1.404-0.376-2.908-0.564-4.513-0.564
			c-1.304,0-2.62,0.126-3.948,0.376c-1.329,0.252-2.52,0.678-3.572,1.279s-1.918,1.379-2.595,2.331
			c-0.677,0.953-1.016,2.105-1.016,3.46c0,1.555,0.376,2.809,1.128,3.76c0.753,0.953,1.742,1.719,2.971,2.294
			c1.229,0.577,2.606,1.041,4.137,1.392c1.529,0.352,3.071,0.703,4.626,1.053c1.904,0.352,3.696,0.766,5.377,1.241
			c1.68,0.477,3.133,1.128,4.362,1.955c1.228,0.827,2.192,1.894,2.896,3.196c0.701,1.305,1.053,2.959,1.053,4.964
			c0,2.106-0.478,3.836-1.429,5.189c-0.953,1.354-2.156,2.444-3.61,3.271c-1.455,0.827-3.071,1.403-4.851,1.73
			c-1.78,0.325-3.523,0.488-5.228,0.488c-2.207,0-4.249-0.289-6.129-0.864c-1.881-0.576-3.523-1.454-4.927-2.633
			c-1.404-1.178-2.508-2.619-3.309-4.324c-0.803-1.704-1.229-3.686-1.279-5.941H795.748z"/>
		<path fill="#FFFFFF" d="M851.476,286.008h2.857v8.273h0.15c0.501-1.454,1.216-2.745,2.144-3.874
			c0.928-1.128,2.005-2.093,3.234-2.896c1.228-0.801,2.568-1.402,4.023-1.805c1.454-0.4,2.934-0.602,4.438-0.602
			c2.256,0,4.174,0.276,5.753,0.827c1.58,0.553,2.87,1.278,3.874,2.181c1.002,0.903,1.792,1.918,2.368,3.046
			c0.576,1.129,0.99,2.27,1.241,3.423c0.25,1.153,0.4,2.269,0.451,3.347c0.05,1.078,0.075,2.019,0.075,2.82v23.916h-2.857v-24.442
			c0-0.952-0.075-2.155-0.226-3.61c-0.15-1.454-0.59-2.845-1.316-4.174c-0.728-1.328-1.831-2.469-3.31-3.422
			c-1.479-0.952-3.522-1.43-6.129-1.43c-2.207,0-4.162,0.402-5.866,1.204c-1.705,0.802-3.159,1.917-4.362,3.347
			c-1.203,1.429-2.119,3.134-2.745,5.114c-0.628,1.98-0.94,4.149-0.94,6.505v20.908h-2.857V286.008z"/>
		<path fill="#FFFFFF" d="M891.562,305.713v0.451c0,2.256,0.301,4.412,0.905,6.468c0.603,2.057,1.494,3.861,2.677,5.415
			c1.181,1.555,2.664,2.782,4.449,3.685c1.783,0.903,3.857,1.354,6.221,1.354c3.871,0,6.938-1.016,9.2-3.046
			c2.262-2.031,3.82-4.852,4.676-8.461h2.858c-0.854,4.512-2.696,7.972-5.528,10.379c-2.833,2.406-6.581,3.609-11.244,3.609
			c-2.857,0-5.353-0.515-7.482-1.542c-2.132-1.026-3.911-2.431-5.34-4.211c-1.43-1.779-2.495-3.886-3.196-6.318
			c-0.703-2.431-1.054-5.05-1.054-7.858c0-2.708,0.363-5.303,1.091-7.784c0.727-2.482,1.816-4.663,3.271-6.543
			c1.454-1.881,3.271-3.385,5.453-4.513c2.181-1.129,4.75-1.692,7.709-1.692c2.707,0,5.101,0.502,7.182,1.504
			c2.08,1.004,3.823,2.369,5.228,4.099c1.403,1.73,2.469,3.736,3.196,6.017c0.727,2.282,1.091,4.727,1.091,7.333
			c0,0.252-0.014,0.54-0.038,0.865c-0.025,0.326-0.037,0.59-0.037,0.79H891.562z M919.991,303.231
			c-0.101-2.105-0.452-4.099-1.056-5.979c-0.604-1.881-1.495-3.535-2.677-4.964c-1.182-1.43-2.614-2.569-4.299-3.422
			s-3.607-1.279-5.769-1.279c-2.312,0-4.349,0.439-6.108,1.316c-1.76,0.878-3.243,2.03-4.448,3.46
			c-1.207,1.429-2.137,3.096-2.79,5.001c-0.653,1.906-1.057,3.861-1.207,5.866H919.991z"/>
		<path fill="#FFFFFF" d="M927.737,305.337c0-2.757,0.389-5.352,1.166-7.784c0.777-2.432,1.918-4.575,3.422-6.431
			c1.505-1.854,3.358-3.321,5.565-4.399c2.206-1.078,4.738-1.617,7.597-1.617c2.857,0,5.389,0.539,7.596,1.617
			c2.206,1.078,4.062,2.545,5.565,4.399c1.504,1.855,2.643,3.999,3.422,6.431c0.775,2.433,1.166,5.027,1.166,7.784
			c0,2.758-0.391,5.365-1.166,7.821c-0.779,2.457-1.918,4.601-3.422,6.431s-3.359,3.284-5.565,4.361
			c-2.207,1.078-4.738,1.617-7.596,1.617c-2.858,0-5.391-0.539-7.597-1.617c-2.207-1.077-4.061-2.531-5.565-4.361
			c-1.504-1.83-2.645-3.974-3.422-6.431C928.125,310.703,927.737,308.095,927.737,305.337z M930.595,305.337
			c0,2.307,0.325,4.525,0.978,6.655c0.651,2.132,1.604,4.023,2.858,5.679c1.252,1.654,2.807,2.971,4.662,3.948
			c1.854,0.978,3.986,1.467,6.394,1.467c2.406,0,4.537-0.489,6.393-1.467c1.854-0.978,3.409-2.294,4.663-3.948
			c1.252-1.655,2.205-3.547,2.857-5.679c0.651-2.13,0.978-4.349,0.978-6.655c0-2.306-0.326-4.524-0.978-6.656
			c-0.652-2.131-1.605-4.023-2.857-5.679c-1.254-1.654-2.809-2.971-4.663-3.948c-1.855-0.978-3.986-1.467-6.393-1.467
			c-2.407,0-4.539,0.489-6.394,1.467c-1.855,0.978-3.41,2.294-4.662,3.948c-1.254,1.655-2.207,3.548-2.858,5.679
			C930.92,300.813,930.595,303.032,930.595,305.337z"/>
		<path fill="#FFFFFF" d="M984.668,324.666h-3.533l-15.568-38.657h3.309l13.988,35.348h0.15l13.086-35.348h3.16L984.668,324.666z"/>
		<path fill="#FFFFFF" d="M1033.93,324.666h-2.857v-8.272h-0.15c-0.502,1.454-1.217,2.745-2.145,3.873s-2.006,2.094-3.234,2.896
			c-1.229,0.803-2.568,1.404-4.023,1.805s-2.934,0.602-4.438,0.602c-2.256,0-4.174-0.276-5.752-0.827
			c-1.58-0.551-2.871-1.278-3.875-2.181c-1.002-0.903-1.793-1.918-2.367-3.046c-0.578-1.129-0.992-2.269-1.242-3.423
			c-0.252-1.152-0.402-2.268-0.451-3.347c-0.051-1.077-0.074-2.018-0.074-2.82v-23.916h2.857v24.442
			c0,1.004,0.074,2.219,0.225,3.648c0.15,1.429,0.59,2.809,1.316,4.136c0.727,1.329,1.816,2.471,3.271,3.422
			c1.455,0.953,3.51,1.43,6.168,1.43c2.154,0,4.098-0.401,5.828-1.203s3.197-1.918,4.4-3.348c1.203-1.429,2.117-3.133,2.744-5.114
			c0.627-1.979,0.941-4.147,0.941-6.505v-20.908h2.857V324.666z"/>
		<path fill="#FFFFFF" d="M1085.523,311.805c0.1,1.805,0.5,3.397,1.203,4.775c0.701,1.38,1.617,2.558,2.744,3.535
			c1.129,0.978,2.445,1.718,3.949,2.219s3.133,0.752,4.889,0.752c1.252,0,2.594-0.113,4.023-0.339s2.758-0.639,3.986-1.241
			c1.229-0.602,2.242-1.44,3.045-2.52c0.803-1.077,1.203-2.443,1.203-4.099c0-2.155-0.65-3.785-1.955-4.889
			c-1.305-1.102-2.945-1.955-4.926-2.557s-4.111-1.091-6.393-1.467s-4.412-0.94-6.393-1.692s-3.623-1.816-4.926-3.196
			c-1.305-1.378-1.955-3.396-1.955-6.054c0-1.905,0.424-3.497,1.277-4.776c0.852-1.278,1.943-2.294,3.271-3.046
			s2.82-1.29,4.475-1.617c1.656-0.325,3.311-0.488,4.965-0.488c2.004,0,3.885,0.226,5.641,0.677
			c1.754,0.451,3.271,1.179,4.551,2.181c1.277,1.004,2.279,2.282,3.008,3.836c0.727,1.555,1.09,3.435,1.09,5.641h-2.857
			c0-1.754-0.289-3.259-0.865-4.513c-0.576-1.252-1.379-2.268-2.406-3.046c-1.029-0.776-2.244-1.354-3.648-1.729
			s-2.908-0.564-4.512-0.564c-1.305,0-2.621,0.126-3.949,0.376c-1.328,0.252-2.52,0.678-3.572,1.279s-1.918,1.379-2.594,2.331
			c-0.678,0.953-1.016,2.105-1.016,3.46c0,1.555,0.375,2.809,1.127,3.76c0.754,0.953,1.742,1.719,2.971,2.294
			c1.229,0.577,2.607,1.041,4.137,1.392c1.529,0.352,3.072,0.703,4.627,1.053c1.904,0.352,3.695,0.766,5.377,1.241
			c1.68,0.477,3.133,1.128,4.361,1.955s2.193,1.894,2.896,3.196c0.701,1.305,1.053,2.959,1.053,4.964
			c0,2.106-0.479,3.836-1.43,5.189c-0.953,1.354-2.156,2.444-3.609,3.271c-1.455,0.827-3.072,1.403-4.852,1.73
			c-1.779,0.325-3.523,0.488-5.227,0.488c-2.207,0-4.25-0.289-6.129-0.864c-1.881-0.576-3.523-1.454-4.928-2.633
			c-1.404-1.178-2.508-2.619-3.309-4.324c-0.803-1.704-1.229-3.686-1.279-5.941H1085.523z"/>
		<path fill="#FFFFFF" d="M1145.988,316.995h-0.15c-0.451,1.153-1.104,2.244-1.955,3.271c-0.854,1.028-1.893,1.943-3.121,2.745
			c-1.229,0.803-2.621,1.429-4.174,1.88c-1.555,0.451-3.26,0.677-5.113,0.677c-4.113,0-7.297-0.891-9.553-2.67
			s-3.385-4.524-3.385-8.235c0-2.256,0.453-4.099,1.355-5.527c0.902-1.43,2.041-2.558,3.422-3.385
			c1.377-0.827,2.906-1.416,4.588-1.768c1.678-0.35,3.295-0.602,4.85-0.752l4.438-0.376c2.055-0.15,3.672-0.388,4.852-0.715
			c1.178-0.325,2.068-0.776,2.67-1.354c0.602-0.575,0.977-1.316,1.127-2.219s0.227-2.03,0.227-3.384
			c0-1.053-0.201-2.031-0.602-2.934c-0.402-0.902-1.029-1.704-1.881-2.406c-0.854-0.702-1.955-1.253-3.309-1.655
			c-1.354-0.4-3.008-0.602-4.965-0.602c-3.459,0-6.254,0.854-8.385,2.558c-2.131,1.705-3.297,4.287-3.498,7.746h-2.857
			c0.199-4.261,1.566-7.457,4.1-9.589c2.531-2.131,6.129-3.196,10.791-3.196c4.664,0,8.061,0.915,10.191,2.745
			c2.131,1.831,3.197,4.225,3.197,7.183v22.487c0,0.552,0.012,1.104,0.037,1.654c0.025,0.553,0.113,1.053,0.264,1.504
			s0.4,0.815,0.752,1.091c0.35,0.276,0.852,0.414,1.504,0.414c0.5,0,1.203-0.075,2.105-0.226v2.406
			c-0.752,0.201-1.529,0.301-2.332,0.301c-1.152,0-2.068-0.15-2.744-0.451c-0.678-0.301-1.191-0.701-1.541-1.203
			c-0.352-0.501-0.592-1.091-0.715-1.768c-0.127-0.677-0.189-1.416-0.189-2.219V316.995z M1145.988,302.705
			c-0.701,0.854-1.766,1.429-3.195,1.729s-3.021,0.526-4.775,0.677l-4.814,0.452c-1.404,0.15-2.809,0.364-4.211,0.639
			c-1.404,0.276-2.67,0.74-3.799,1.392c-1.127,0.652-2.043,1.542-2.744,2.67c-0.703,1.128-1.053,2.595-1.053,4.399
			c0,2.858,0.902,4.977,2.707,6.355c1.805,1.38,4.287,2.068,7.445,2.068c3.26,0,5.84-0.589,7.746-1.768
			c1.906-1.178,3.359-2.531,4.363-4.062c1.002-1.528,1.641-3.008,1.918-4.438c0.273-1.429,0.412-2.394,0.412-2.896V302.705z"/>
		<path fill="#FFFFFF" d="M1172.688,324.666h-3.533l-15.568-38.657h3.309l13.988,35.348h0.15l13.086-35.348h3.16L1172.688,324.666z"
			/>
		<path fill="#FFFFFF" d="M1192.393,305.713v0.451c0,2.256,0.301,4.412,0.904,6.468c0.604,2.057,1.494,3.861,2.678,5.415
			c1.18,1.555,2.664,2.782,4.449,3.685c1.783,0.903,3.857,1.354,6.221,1.354c3.871,0,6.938-1.016,9.199-3.046
			c2.262-2.031,3.82-4.852,4.676-8.461h2.859c-0.854,4.512-2.697,7.972-5.529,10.379c-2.832,2.406-6.58,3.609-11.244,3.609
			c-2.857,0-5.352-0.515-7.482-1.542c-2.131-1.026-3.91-2.431-5.34-4.211c-1.43-1.779-2.494-3.886-3.195-6.318
			c-0.703-2.431-1.055-5.05-1.055-7.858c0-2.708,0.363-5.303,1.092-7.784c0.727-2.482,1.816-4.663,3.271-6.543
			c1.453-1.881,3.271-3.385,5.453-4.513c2.18-1.129,4.75-1.692,7.709-1.692c2.707,0,5.1,0.502,7.182,1.504
			c2.08,1.004,3.822,2.369,5.227,4.099c1.404,1.73,2.469,3.736,3.197,6.017c0.727,2.282,1.09,4.727,1.09,7.333
			c0,0.252-0.014,0.54-0.037,0.865c-0.025,0.326-0.037,0.59-0.037,0.79H1192.393z M1220.82,303.231
			c-0.1-2.105-0.451-4.099-1.055-5.979c-0.604-1.881-1.496-3.535-2.678-4.964c-1.182-1.43-2.613-2.569-4.299-3.422
			c-1.684-0.853-3.607-1.279-5.768-1.279c-2.312,0-4.35,0.439-6.109,1.316c-1.76,0.878-3.242,2.03-4.447,3.46
			c-1.207,1.429-2.137,3.096-2.791,5.001c-0.652,1.906-1.057,3.861-1.207,5.866H1220.82z"/>
		<path fill="#FFFFFF" d="M1233.23,270.966v23.315h0.15c0.5-1.454,1.215-2.745,2.143-3.874c0.928-1.128,2.006-2.093,3.234-2.896
			c1.229-0.801,2.568-1.402,4.023-1.805c1.455-0.4,2.934-0.602,4.438-0.602c2.256,0,4.174,0.276,5.754,0.827
			c1.58,0.553,2.869,1.278,3.873,2.181c1.002,0.903,1.793,1.918,2.369,3.046c0.576,1.129,0.99,2.27,1.24,3.423
			s0.4,2.269,0.451,3.347s0.076,2.019,0.076,2.82v23.916h-2.857v-24.442c0-0.952-0.076-2.155-0.227-3.61
			c-0.15-1.454-0.59-2.845-1.316-4.174c-0.727-1.328-1.83-2.469-3.309-3.422c-1.48-0.952-3.523-1.43-6.129-1.43
			c-2.207,0-4.162,0.402-5.867,1.204s-3.158,1.917-4.361,3.347c-1.203,1.429-2.119,3.134-2.746,5.114s-0.939,4.149-0.939,6.505
			v20.908h-2.857v-53.699H1233.23z"/>
		<path fill="#FFFFFF" d="M1267.6,305.337c0-2.757,0.389-5.352,1.166-7.784c0.777-2.432,1.918-4.575,3.422-6.431
			c1.504-1.854,3.357-3.321,5.564-4.399s4.738-1.617,7.598-1.617c2.857,0,5.389,0.539,7.596,1.617
			c2.205,1.078,4.061,2.545,5.564,4.399c1.504,1.855,2.645,3.999,3.422,6.431c0.777,2.433,1.166,5.027,1.166,7.784
			c0,2.758-0.389,5.365-1.166,7.821c-0.777,2.457-1.918,4.601-3.422,6.431s-3.359,3.284-5.564,4.361
			c-2.207,1.078-4.738,1.617-7.596,1.617c-2.859,0-5.391-0.539-7.598-1.617c-2.207-1.077-4.061-2.531-5.564-4.361
			s-2.645-3.974-3.422-6.431C1267.988,310.703,1267.6,308.095,1267.6,305.337z M1270.457,305.337c0,2.307,0.326,4.525,0.979,6.655
			c0.65,2.132,1.604,4.023,2.857,5.679c1.252,1.654,2.807,2.971,4.662,3.948s3.986,1.467,6.395,1.467
			c2.406,0,4.537-0.489,6.393-1.467c1.854-0.978,3.408-2.294,4.662-3.948c1.252-1.655,2.205-3.547,2.857-5.679
			c0.652-2.13,0.979-4.349,0.979-6.655c0-2.306-0.326-4.524-0.979-6.656c-0.652-2.131-1.605-4.023-2.857-5.679
			c-1.254-1.654-2.809-2.971-4.662-3.948c-1.855-0.978-3.986-1.467-6.393-1.467c-2.408,0-4.539,0.489-6.395,1.467
			s-3.41,2.294-4.662,3.948c-1.254,1.655-2.207,3.548-2.857,5.679C1270.783,300.813,1270.457,303.032,1270.457,305.337z"/>
		<path fill="#FFFFFF" d="M1309.867,286.008h2.857v7.896h0.15c0.301-1.203,0.826-2.343,1.58-3.422
			c0.752-1.077,1.666-2.018,2.744-2.82c1.078-0.801,2.281-1.429,3.609-1.88s2.721-0.677,4.174-0.677
			c1.855,0,3.461,0.238,4.814,0.715s2.506,1.103,3.459,1.88s1.705,1.654,2.256,2.632c0.553,0.979,0.928,1.969,1.129,2.971h0.15
			c1.152-2.707,2.695-4.75,4.625-6.129s4.475-2.068,7.635-2.068c1.754,0,3.371,0.263,4.85,0.79c1.479,0.526,2.758,1.329,3.836,2.406
			c1.078,1.079,1.918,2.444,2.52,4.099c0.602,1.655,0.902,3.61,0.902,5.866v26.398h-2.857v-26.474c0-2.456-0.377-4.387-1.129-5.791
			c-0.752-1.403-1.643-2.469-2.67-3.196c-1.027-0.727-2.057-1.178-3.082-1.354c-1.029-0.175-1.818-0.264-2.369-0.264
			c-1.756,0-3.373,0.301-4.852,0.903c-1.48,0.602-2.758,1.504-3.836,2.707s-1.918,2.695-2.52,4.475
			c-0.602,1.78-0.902,3.824-0.902,6.13v22.863h-2.857v-26.474c0-2.406-0.365-4.324-1.092-5.753c-0.727-1.43-1.578-2.494-2.557-3.196
			c-0.977-0.702-1.98-1.153-3.008-1.354c-1.027-0.199-1.842-0.301-2.445-0.301c-1.354,0-2.758,0.276-4.211,0.827
			c-1.455,0.553-2.783,1.404-3.986,2.558c-1.203,1.154-2.18,2.632-2.934,4.438c-0.752,1.805-1.127,3.937-1.127,6.393v22.863h-2.857
			V286.008z"/>
		<path fill="#FFFFFF" d="M1370.709,305.713v0.451c0,2.256,0.301,4.412,0.906,6.468c0.602,2.057,1.494,3.861,2.676,5.415
			c1.182,1.555,2.664,2.782,4.449,3.685c1.783,0.903,3.857,1.354,6.221,1.354c3.871,0,6.939-1.016,9.201-3.046
			c2.262-2.031,3.82-4.852,4.676-8.461h2.857c-0.854,4.512-2.695,7.972-5.527,10.379c-2.834,2.406-6.582,3.609-11.244,3.609
			c-2.857,0-5.354-0.515-7.482-1.542c-2.133-1.026-3.912-2.431-5.34-4.211c-1.43-1.779-2.496-3.886-3.197-6.318
			c-0.703-2.431-1.053-5.05-1.053-7.858c0-2.708,0.363-5.303,1.09-7.784c0.727-2.482,1.816-4.663,3.271-6.543
			c1.455-1.881,3.271-3.385,5.453-4.513c2.182-1.129,4.75-1.692,7.709-1.692c2.707,0,5.102,0.502,7.182,1.504
			c2.08,1.004,3.824,2.369,5.229,4.099c1.402,1.73,2.469,3.736,3.195,6.017c0.727,2.282,1.092,4.727,1.092,7.333
			c0,0.252-0.014,0.54-0.039,0.865c-0.025,0.326-0.037,0.59-0.037,0.79H1370.709z M1399.139,303.231
			c-0.102-2.105-0.453-4.099-1.057-5.979c-0.604-1.881-1.494-3.535-2.676-4.964c-1.182-1.43-2.615-2.569-4.299-3.422
			c-1.686-0.853-3.607-1.279-5.77-1.279c-2.312,0-4.348,0.439-6.107,1.316c-1.76,0.878-3.244,2.03-4.449,3.46
			c-1.207,1.429-2.137,3.096-2.789,5.001c-0.654,1.906-1.057,3.861-1.207,5.866H1399.139z"/>
		<path fill="#FFFFFF" d="M1422.227,311.053c0-2.005,0.174-3.772,0.525-5.303c0.352-1.528,0.828-2.896,1.43-4.099
			s1.303-2.294,2.105-3.271s1.654-1.893,2.557-2.745c0.904-0.853,1.807-1.742,2.709-2.67s1.703-1.893,2.406-2.896
			c0.701-1.003,1.266-2.08,1.691-3.234c0.426-1.152,0.641-2.381,0.641-3.685c0-1.854-0.34-3.447-1.016-4.776
			c-0.678-1.328-1.58-2.432-2.707-3.309c-1.129-0.877-2.42-1.517-3.875-1.918c-1.453-0.401-2.959-0.602-4.512-0.602
			c-2.256,0-4.238,0.376-5.941,1.128c-1.705,0.752-3.121,1.805-4.25,3.158c-1.127,1.354-1.98,2.946-2.557,4.776
			c-0.576,1.831-0.865,3.823-0.865,5.979h-2.857c0-2.656,0.363-5.088,1.09-7.295c0.727-2.206,1.793-4.099,3.197-5.678
			c1.402-1.58,3.146-2.795,5.227-3.648c2.08-0.852,4.475-1.278,7.184-1.278c2.004,0,3.896,0.276,5.678,0.827
			c1.779,0.553,3.346,1.38,4.699,2.482c1.355,1.104,2.42,2.508,3.197,4.211c0.777,1.706,1.166,3.686,1.166,5.942
			c0,1.604-0.188,3.021-0.564,4.249c-0.375,1.229-0.877,2.344-1.504,3.347c-0.627,1.004-1.342,1.918-2.145,2.745
			c-0.801,0.827-1.629,1.643-2.48,2.444c-0.854,0.752-1.719,1.542-2.596,2.369s-1.666,1.817-2.369,2.971
			c-0.701,1.153-1.277,2.52-1.729,4.099s-0.678,3.473-0.678,5.679H1422.227z M1421.85,316.919h3.836v7.746h-3.836V316.919z"/>
	</g>
	<g>
		<path fill="#FFFFFF" d="M1050.601,302.332c-4.687,0-8.5-3.813-8.5-8.5s3.813-8.5,8.5-8.5s8.5,3.813,8.5,8.5
			S1055.287,302.332,1050.601,302.332z M1050.601,286.332c-4.136,0-7.5,3.364-7.5,7.5s3.364,7.5,7.5,7.5s7.5-3.364,7.5-7.5
			S1054.736,286.332,1050.601,286.332z"/>
	</g>
	<g>
		<path fill="#FFFFFF" d="M1051.234,290.264c0.816,0,1.454,0.2,1.914,0.6c0.46,0.4,0.69,0.948,0.69,1.644
			c0,0.521-0.118,0.977-0.354,1.368c-0.235,0.392-0.614,0.66-1.134,0.804v0.024c0.248,0.048,0.45,0.128,0.606,0.24
			c0.155,0.112,0.279,0.246,0.371,0.402c0.093,0.156,0.16,0.33,0.204,0.522s0.078,0.392,0.103,0.6
			c0.016,0.208,0.027,0.42,0.036,0.636c0.008,0.216,0.027,0.428,0.06,0.636s0.078,0.406,0.138,0.594
			c0.061,0.188,0.15,0.354,0.271,0.498h-1.272c-0.08-0.088-0.134-0.208-0.161-0.36c-0.028-0.152-0.047-0.322-0.055-0.51
			s-0.016-0.39-0.023-0.606c-0.009-0.216-0.032-0.428-0.072-0.636c-0.032-0.208-0.072-0.406-0.12-0.594s-0.124-0.352-0.228-0.492
			c-0.104-0.14-0.24-0.252-0.408-0.336s-0.393-0.126-0.672-0.126h-2.784v3.66h-1.141v-8.568H1051.234z M1051.475,294.151
			c0.24-0.04,0.45-0.118,0.63-0.234c0.18-0.116,0.324-0.272,0.432-0.468c0.108-0.196,0.162-0.45,0.162-0.762
			c0-0.432-0.12-0.784-0.359-1.056c-0.24-0.271-0.628-0.408-1.164-0.408h-2.832v2.988h2.376
			C1050.982,294.211,1051.234,294.192,1051.475,294.151z"/>
	</g>
</g>
<g>
	<text transform="matrix(1 0 0 1 505.4653 -439.3345)" fill="#FFFFFF" font-family="'HelveticaNeue-Thin'" font-size="75.2085">How works neovu  savehome?</text>
	<circle fill="none" stroke="#FFFFFF" stroke-miterlimit="10" cx="1079.575" cy="-470.168" r="8"/>
	<text transform="matrix(1 0 0 1 1075.2412 -465.1685)" fill="#FFFFFF" font-family="'HelveticaNeue'" font-size="12">R</text>
</g>
</svg>
