<?xml version="1.0" encoding="utf-8"?>
<!-- Generator: Adobe Illustrator 16.0.0, SVG Export Plug-In . SVG Version: 6.00 Build 0)  -->
<!DOCTYPE svg PUBLIC "-//W3C//DTD SVG 1.1//EN" "http://www.w3.org/Graphics/SVG/1.1/DTD/svg11.dtd">
<svg version="1.1" id="Layer_1" xmlns="http://www.w3.org/2000/svg" xmlns:xlink="http://www.w3.org/1999/xlink" x="0px" y="0px"
	 width="813.1px" height="891.1px" viewBox="0 0 813.1 891.1" enable-background="new 0 0 813.1 891.1" xml:space="preserve">
<image display="none" overflow="visible" width="942" height="1120" xlink:href="Screen Shot 2015-05-09 at 1.33.03 PM.png"  transform="matrix(0.5 0 0 0.5 171.0283 150)">
</image>
<g>
	<path fill="none" stroke="#FFFFFF" stroke-width="2" stroke-miterlimit="10" d="M-524.5,750.5c0,68.8-56.2,125-125,125h-532
		c-68.8,0-125-56.2-125-125v-610c0-68.8,56.2-125,125-125h532c68.8,0,125,56.2,125,125V750.5z"/>
</g>
<g>
	<path fill="none" stroke="#FFFFFF" stroke-width="2" stroke-miterlimit="10" d="M-550.7,758.8c0,48.3-39.5,87.9-87.9,87.9h-553.8
		c-48.3,0-87.9-39.5-87.9-87.9V132.3c0-48.3,39.5-87.9,87.9-87.9h553.8c48.3,0,87.9,39.5,87.9,87.9V758.8z"/>
</g>
<g>
	<text transform="matrix(1 0 0 1 -802.8125 214.541)" fill="#FFFFFF" font-family="'HelveticaNeue'" font-size="27.9267">SAVENERGY</text>
	<path fill="#FFFFFF" d="M-669,93.7c-11.2,0-21.4,4.6-28.7,11.9l-51.2,50.2c-5.5,5.5-13.1,8.9-21.5,8.9c-16.8,0-30.4-13.7-30.4-30.5
		c0-16.8,13.7-30.5,30.4-30.5c8.4,0,16,3.4,21.5,8.9l5.2,5.1c-0.8,1.9-1.3,4-1.3,6.3c0,4.2,1.7,8,4.5,10.8l21.5-21.5
		c-2.8-2.8-6.6-4.5-10.8-4.5c-2.5,0-4.8,0.6-6.8,1.7l-5-5c-7.4-7.4-17.5-11.9-28.7-11.9c-22.4,0-40.6,18.2-40.6,40.6
		c0,22.4,18.2,40.6,40.6,40.6c11.2,0,21.4-4.6,28.7-11.9l51.2-50.1c5.5-5.5,13.1-8.9,21.5-8.9c16.8,0,30.4,13.7,30.4,30.5
		c0,16.8-13.7,30.5-30.4,30.5c-6,0-11.5-1.7-16.2-4.7c0.6-1.7,1-3.5,1-5.4c0-4.2-1.7-8-4.5-10.8l-3.9,3.9l-10.1-10.1l-3.6,3.6
		l10.1,10.1l-6.6,6.6l-10.1-10.1l-3.6,3.6l10.1,10.1l-3.9,3.9c2.8,2.8,6.6,4.5,10.8,4.5c2.8,0,5.3-0.8,7.5-2
		c6.5,4.5,14.4,7.1,22.9,7.1c22.4,0,40.6-18.2,40.6-40.6C-628.4,112-646.6,93.7-669,93.7z"/>
</g>
<g>
	<path fill="none" stroke="#FFFFFF" stroke-width="2" stroke-miterlimit="10" d="M-1197.5,318.7c0,4.7-3.8,8.5-8.5,8.5h-1
		c-4.7,0-8.5-3.8-8.5-8.5v-46c0-4.7,3.8-8.5,8.5-8.5h1c4.7,0,8.5,3.8,8.5,8.5V318.7z"/>
</g>
<g>
	<path fill="#FFFFFF" d="M-1242.3,286.1v4.4c3.2,1.2,5.5,4.3,5.5,8c0,4.7-3.8,8.6-8.6,8.6s-8.6-3.8-8.6-8.6c0-3.6,2.3-6.7,5.5-8
		v-4.4c-5.5,1.4-9.6,6.4-9.6,12.3c0,7,5.7,12.7,12.7,12.7s12.7-5.7,12.7-12.7C-1232.7,292.5-1236.8,287.5-1242.3,286.1z"/>
	<rect x="-1247.5" y="284.1" fill="#FFFFFF" width="4.2" height="18.4"/>
</g>
<image overflow="visible" width="942" height="1120" xlink:href="Screen Shot 2015-05-09 at 1.33.03 PM.png"  transform="matrix(0.5 0 0 0.5 -1842 -44.3301)">
</image>
<image overflow="visible" width="1438" height="1096" xlink:href="Screen Shot 2015-05-09 at 1.55.56 PM.png"  transform="matrix(0.5 0 0 0.5 865 225)">
</image>
<g>
	<g>
		<path fill="#808080" d="M349,690.6c0,7.8-6.4,14.2-14.2,14.2h-2.3c-7.8,0-14.2-6.4-14.2-14.2v-143c0-7.8,6.4-14.2,14.2-14.2h2.3
			c7.8,0,14.2,6.4,14.2,14.2V690.6z"/>
	</g>
	<g>
		<path fill="#808080" d="M479.2,690.6c0,7.8-6.4,14.2-14.2,14.2h-2.3c-7.8,0-14.2-6.4-14.2-14.2v-143c0-7.8,6.4-14.2,14.2-14.2h2.3
			c7.8,0,14.2,6.4,14.2,14.2V690.6z"/>
	</g>
	<g>
		<path fill="#808080" d="M413.7,701.8c0,7.8-6.4,14.2-14.2,14.2h-2.3c-7.8,0-14.2-6.4-14.2-14.2v-143c0-7.8,6.4-14.2,14.2-14.2h2.3
			c7.8,0,14.2,6.4,14.2,14.2V701.8z"/>
	</g>
	<polygon fill="#4D4D4D" points="271.6,564 322.1,587.2 333.3,590.2 461.2,590.2 475.5,588 522.2,567.8 	"/>
	<path fill="#FFFFFF" d="M646,345c-4.8-40.7-52.9-134-65.6-158.6c-4-7.8-12.7-10.6-31.6-10.6c-34.9,0-76.5-0.7-142.2-0.6
		c-65.7-0.1-118.6,0-153.5,0.6c-8.3,0.2-26.2-1.3-31.6,10.6c-11.7,30.7-49.6,117.9-54.4,158.6c-6,50.7,2.7,154,3.5,204
		c0.2,10.8,25.4,23.9,36.2,23.8c43.4-0.3,120.5-0.4,198.5-0.4v0c0.4,0,0.9,0,1.3,0c0.4,0,0.9,0,1.3,0v0c77.9,0,155.1,0,198.5,0.4
		c10.8,0.1,36-13,36.2-23.8C643.3,498.9,652,395.6,646,345z"/>
	<g>
		<g>
			<path fill="#069BE9" d="M347.5,242.2c11.4,0,21.8-1.7,29.3-4.4l52.4-18.5c5.6-2,13.4-3.3,22-3.3c17.2,0,31.1,5,31.1,11.2
				c0,6.2-14,11.2-31.1,11.2c-8.6,0-16.4-1.3-22-3.3l-5.3-1.9c0.9-0.7,1.4-1.5,1.4-2.3c0-1.5-1.7-2.9-4.6-4l-22,7.9
				c2.8,1,6.7,1.6,11,1.6c2.5,0,4.9-0.2,7-0.6l5.2,1.8c7.5,2.7,17.9,4.4,29.3,4.4c22.9,0,41.5-6.7,41.5-15c0-8.3-18.6-15-41.5-15
				c-11.4,0-21.8,1.7-29.3,4.4l-52.4,18.5c-5.6,2-13.4,3.3-22,3.3c-17.2,0-31.1-5-31.1-11.2c0-6.2,14-11.2,31.1-11.2
				c6.1,0,11.8,0.6,16.6,1.7c-0.6,0.6-1,1.3-1,2c0,1.5,1.7,2.9,4.6,4l4-1.4l10.4,3.7l3.7-1.3l-10.4-3.7l6.7-2.4l10.4,3.7l3.7-1.3
				l-10.4-3.7l4-1.4c-2.8-1-6.7-1.6-11-1.6c-2.8,0-5.4,0.3-7.7,0.7c-6.7-1.6-14.7-2.6-23.4-2.6c-22.9,0-41.5,6.7-41.5,15
				C306,235.5,324.6,242.2,347.5,242.2z"/>
		</g>
	</g>
	<path fill="#808080" d="M170.4,540.9c0.1,2.8,0.1,5.5,0.2,8.1c0.2,10.8,25.4,23.9,36.2,23.8c43.4-0.3,120.5-0.4,198.5-0.4v0
		c0.4,0,0.9,0,1.3,0c0.4,0,0.9,0,1.3,0v0c77.9,0,155.1,0,198.5,0.4c10.8,0.1,36-13,36.2-23.8c0-2.6,0.1-5.3,0.2-8.1
		c0,0-16.3,15-39.4,15c-49.2,0-196.9,0-196.9,0H206.7C187.2,555.8,170.4,540.9,170.4,540.9z"/>
	<g>
		<defs>
			<rect id="SVGID_1_" x="296.3" y="399.8" width="220.5" height="64.4"/>
		</defs>
		<clipPath id="SVGID_2_">
			<use xlink:href="#SVGID_1_"  overflow="visible"/>
		</clipPath>
		<g clip-path="url(#SVGID_2_)">
			<g>
				<circle fill="#4D4D4D" cx="481.8" cy="438.1" r="18"/>
				<path fill="#1A1A1A" d="M481.8,450.5c-9,0-16.4-6.6-17.7-15.2c-0.1,0.9-0.2,1.8-0.2,2.8c0,9.9,8,18,18,18c9.9,0,18-8,18-18
					c0-1-0.1-1.9-0.2-2.8C498.2,443.9,490.8,450.5,481.8,450.5z"/>
			</g>
			<g>
				<circle fill="#4D4D4D" cx="406.5" cy="409" r="18"/>
				<path fill="#1A1A1A" d="M406.5,421.4c-9,0-16.4-6.6-17.7-15.2c-0.1,0.9-0.2,1.8-0.2,2.8c0,9.9,8,18,18,18c9.9,0,18-8,18-18
					c0-1-0.1-1.9-0.2-2.8C422.9,414.8,415.5,421.4,406.5,421.4z"/>
			</g>
			<g>
				<circle fill="#4D4D4D" cx="331" cy="438.1" r="18"/>
				<path fill="#1A1A1A" d="M331,450.5c-9,0-16.4-6.6-17.7-15.2c-0.1,0.9-0.2,1.8-0.2,2.8c0,9.9,8,18,18,18c9.9,0,18-8,18-18
					c0-1-0.1-1.9-0.2-2.8C347.4,443.9,340,450.5,331,450.5z"/>
			</g>
		</g>
	</g>
	<polygon fill="#B8B8B8" points="547.1,451.6 496.7,496.2 483.8,502.3 408.8,501.9 408.8,501.9 408.6,501.9 408.5,501.9 
		408.5,501.9 333.4,502.3 320.6,496.2 270.2,451.6 258.1,464.2 258.1,476.8 263,484.4 318.4,534.9 333.2,540.9 408.5,540.9 
		408.8,540.9 484.1,540.9 498.9,534.9 554.3,484.4 559.2,476.8 559.2,464.2 	"/>
	
		<line fill="none" stroke="#CCCCCC" stroke-width="0.75" stroke-linecap="round" stroke-miterlimit="10" x1="269.2" y1="356.5" x2="545.3" y2="356.5"/>
</g>
</svg>
