<?xml version="1.0" encoding="utf-8"?>
<!-- Generator: Adobe Illustrator 16.0.0, SVG Export Plug-In . SVG Version: 6.00 Build 0)  -->
<!DOCTYPE svg PUBLIC "-//W3C//DTD SVG 1.1//EN" "http://www.w3.org/Graphics/SVG/1.1/DTD/svg11.dtd">
<svg version="1.1" id="Layer_1" xmlns="http://www.w3.org/2000/svg" xmlns:xlink="http://www.w3.org/1999/xlink" x="0px" y="0px"
	 width="905.818px" height="931.552px" viewBox="-1372.232 -9.236 905.818 931.552"
	 enable-background="new -1372.232 -9.236 905.818 931.552" xml:space="preserve">
<image overflow="visible" enable-background="new    " width="942" height="1120" xlink:href="Screen Shot 2015-05-09 at 1.33.03 PM.png"  transform="matrix(0.5 0 0 0.5 -8130.0127 -8051.0127)">
</image>
<g>
	<g>
		<path fill="none" stroke="#FFFFFF" stroke-width="2" stroke-miterlimit="10" d="M315.586-184.004c0,68.799-56.2,125-125,125h-532
			c-68.8,0-125-56.201-125-125v-610.001c0-68.8,56.2-125,125-125h532c68.8,0,125,56.2,125,125V-184.004z"/>
	</g>
	<g>
		<path fill="none" stroke="#FFFFFF" stroke-width="2" stroke-miterlimit="10" d="M289.386-175.706c0,48.301-39.5,87.9-87.9,87.9
			h-553.799c-48.3,0-87.9-39.5-87.9-87.9v-626.5c0-48.3,39.5-87.899,87.9-87.899h553.799c48.301,0,87.9,39.5,87.9,87.899V-175.706z"
			/>
	</g>
	<g>
		<path fill="none" stroke="#FFFFFF" stroke-width="2" stroke-miterlimit="10" d="M-357.414-615.805c0,4.7-3.8,8.5-8.5,8.5h-1
			c-4.7,0-8.5-3.8-8.5-8.5v-46c0-4.7,3.8-8.5,8.5-8.5h1c4.7,0,8.5,3.8,8.5,8.5V-615.805z"/>
	</g>
	<g>
		<path fill="#FFFFFF" d="M-402.214-648.405v4.399c3.2,1.2,5.5,4.3,5.5,8c0,4.7-3.8,8.601-8.6,8.601c-4.8,0-8.6-3.801-8.6-8.601
			c0-3.6,2.3-6.7,5.5-8v-4.399c-5.5,1.399-9.6,6.399-9.6,12.3c0,7,5.7,12.7,12.7,12.7s12.7-5.7,12.7-12.7
			C-392.614-642.005-396.714-647.005-402.214-648.405z"/>
		<rect x="-407.414" y="-650.405" fill="#FFFFFF" width="4.2" height="18.399"/>
	</g>
	<path fill="#FFFFFF" d="M168.455-845.766c-11.14,0-21.294,4.535-28.59,11.88l-13.341,13.336l0.007,0.007l-36.745,36.771
		c-5.472,5.471-13.087,8.896-21.467,8.896c-16.734,0-30.314-13.629-30.314-30.364c0-16.733,13.629-30.363,30.314-30.363
		c6.729,0,12.934,2.18,17.977,5.896l2.263,2.107c0.048,0.196,0.065,0.405,0.038,0.59l-1.565,10.651
		c-0.06,0.402,0.128,0.967,0.415,1.255l3.724,3.723c0.287,0.288,0.758,0.288,1.046,0l1.562-1.562c0.288-0.287,0.758-0.288,1.046,0
		l4.113,4.113c0.288,0.287,0.758,0.758,1.046,1.046l0.022,0.021c0.288,0.288,0.758,0.759,1.046,1.046l0.696,0.696
		c0.047,0.048,0.101,0.085,0.156,0.116c0.09,0.055,0.188,0.091,0.291,0.104l-0.006,0.006c0.02,0.001,0.038-0.001,0.057-0.001
		c0.04,0.003,0.08,0.002,0.119-0.002c0.799-0.019,1.59-0.325,2.198-0.934c0.612-0.611,0.942-1.426,0.938-2.216
		c0.003-0.04,0.003-0.08-0.001-0.12c-0.001-0.013,0.001-0.025,0-0.038l-0.003,0.004c-0.021-0.156-0.088-0.306-0.207-0.425
		l-0.696-0.697c-0.14-0.139-0.322-0.321-0.505-0.505l-0.006,0.005c-0.201-0.201-0.405-0.405-0.558-0.559l-0.022-0.022
		c-0.288-0.287-0.759-0.758-1.046-1.046l-4.114-4.113c-0.287-0.287-0.287-0.758,0-1.045l1.626-1.625
		c0.287-0.288,0.757-0.288,1.045,0l5.12,5.119c0.288,0.288,0.758,0.759,1.045,1.046l0.022,0.021
		c0.288,0.288,0.759,0.758,1.046,1.046l0.697,0.697c0.118,0.118,0.269,0.186,0.424,0.206l-0.006,0.006
		c0.019,0.001,0.037-0.001,0.057-0.001c0.039,0.002,0.079,0.002,0.118-0.002c0.8-0.019,1.591-0.325,2.199-0.934
		c0.611-0.612,0.942-1.426,0.938-2.216c0.003-0.04,0.002-0.08-0.001-0.12c-0.001-0.013,0.001-0.025-0.001-0.038l-0.002,0.003
		c-0.021-0.155-0.088-0.305-0.207-0.424l-0.696-0.697c-0.288-0.287-0.759-0.758-1.046-1.045l-6.188-6.188
		c-0.288-0.288-0.288-0.759,0-1.046l1.623-1.623c0.287-0.287,0.758-0.287,1.046,0l4.112,4.114c0.288,0.287,0.759,0.757,1.046,1.045
		l0.022,0.022c0.152,0.153,0.357,0.357,0.559,0.559c0.178,0.178,0.353,0.353,0.487,0.487l0.018,0.019l0.679,0.678l0.02,0.019
		c0.118,0.119,0.269,0.187,0.424,0.207l-0.006,0.006c0.019,0,0.037-0.002,0.056-0.001c0.04,0.002,0.08,0.001,0.12-0.003
		c0.797-0.018,1.589-0.324,2.198-0.933c0.611-0.612,0.942-1.426,0.938-2.217c0.003-0.04,0.002-0.079-0.001-0.119
		c-0.001-0.013,0-0.025,0-0.038l-0.004,0.003c-0.021-0.155-0.087-0.305-0.206-0.424l-0.019-0.02l-0.679-0.678l-0.019-0.019
		c-0.135-0.135-0.31-0.31-0.486-0.487c-0.202-0.201-0.406-0.405-0.56-0.558l-0.021-0.023c-0.288-0.287-0.759-0.757-1.046-1.045
		l-4.113-4.113c-0.287-0.288-0.287-0.759,0-1.046l1.563-1.563c0.288-0.287,0.288-0.758,0-1.046l-3.723-3.725
		c-0.287-0.288-0.852-0.476-1.254-0.416l-10.655,1.57c-0.184,0.027-0.402,0.019-0.612-0.016l-2.503-1.867
		c-6.916-5.502-15.643-8.784-25.118-8.784c-22.306,0-40.42,18.164-40.421,40.468c0.001,22.306,18.165,40.47,40.42,40.47
		c11.141,0,21.294-4.535,28.59-11.88l39.797-39.786l-0.013-0.025l10.295-10.303c5.472-5.472,13.087-8.897,21.467-8.897
		c16.734,0,30.313,13.629,30.314,30.364c0,16.734-13.63,30.363-30.314,30.363c-8.38,0-15.946-3.377-21.467-8.897l-2.676-2.611
		l-1.993-2.378c-0.059-0.281-0.083-0.545-0.083-0.545l-1.049-13.266c0.06-0.401-0.127-0.967-0.415-1.254l-3.724-3.724
		c-0.287-0.288-0.758-0.288-1.046,0l-20.068,20.068c-0.288,0.288-0.288,0.758,0,1.046l3.723,3.726
		c0.287,0.287,0.852,0.475,1.254,0.415l13.27,1.044c0,0,0.274,0.014,0.573,0.054l2.367,2.005l2.646,2.567
		c7.345,7.345,17.45,11.88,28.59,11.88c22.305,0,40.419-18.164,40.419-40.469S190.71-845.766,168.455-845.766z"/>
	<text transform="matrix(1 0 0 1 30.1514 -727.0435)" fill="#FFFFFF" font-family="'HelveticaNeue-Light'" font-size="30.5911">SAV</text>
	<text transform="matrix(1 0 0 1 86.8369 -727.0435)" fill="#FFFFFF" font-family="'HelveticaNeue-Light'" font-size="30.5911">ENERGY</text>
</g>
<image overflow="visible" enable-background="new    " width="942" height="1120" xlink:href="Screen Shot 2015-05-09 at 1.33.03 PM.png"  transform="matrix(0.5 0 0 0.5 -8130.0127 -8051.0127)">
</image>
<image overflow="visible" enable-background="new    " width="942" height="1120" xlink:href="Screen Shot 2015-05-09 at 1.33.03 PM.png"  transform="matrix(0.5 0 0 0.5 -8130.0127 -8051.0127)">
</image>
<g>
	<g>
		<path fill="#808080" d="M-1034.423-226.752c0,7.801-6.4,14.201-14.201,14.201h-2.299c-7.801,0-14.201-6.4-14.201-14.201v-143
			c0-7.799,6.4-14.199,14.201-14.199h2.299c7.801,0,14.201,6.4,14.201,14.199V-226.752z"/>
	</g>
	<g>
		<path fill="#808080" d="M-904.224-226.752c0,7.801-6.4,14.201-14.199,14.201h-2.301c-7.799,0-14.199-6.4-14.199-14.201v-143
			c0-7.799,6.4-14.199,14.199-14.199h2.301c7.799,0,14.199,6.4,14.199,14.199V-226.752z"/>
	</g>
	<g>
		<path fill="#808080" d="M-969.724-215.551c0,7.799-6.4,14.199-14.199,14.199h-2.301c-7.799,0-14.199-6.4-14.199-14.199v-143
			c0-7.801,6.4-14.201,14.199-14.201h2.301c7.798,0,14.199,6.4,14.199,14.201V-215.551z"/>
	</g>
	<polygon fill="#4D4D4D" points="-1111.823,-353.352 -1061.323,-330.15 -1050.124,-327.15 -922.224,-327.15 -907.923,-329.352 
		-861.224,-349.551 	"/>
	<path fill="#FFFFFF" d="M-737.423-572.351c-4.801-40.7-52.9-134-65.6-158.6c-4-7.8-12.701-10.6-31.602-10.6
		c-34.898,0-76.5-0.7-142.199-0.6c-65.699-0.1-118.599,0-153.5,0.6c-8.301,0.2-26.201-1.3-31.6,10.6
		c-11.701,30.7-49.602,117.9-54.401,158.6c-6,50.7,2.699,154,3.5,204c0.199,10.801,25.4,23.9,36.2,23.801
		c43.4-0.301,120.5-0.4,198.5-0.4l0,0c0.4,0,0.9,0,1.301,0s0.9,0,1.301,0l0,0c77.898,0,155.1,0,198.5,0.4
		c10.799,0.1,36-13,36.199-23.801C-740.125-418.451-731.423-521.751-737.423-572.351z"/>
	<g>
		<g>
			<path fill="#069BE9" d="M-1035.923-675.151c11.4,0,21.799-1.7,29.299-4.4l52.4-18.5c5.6-2,13.4-3.3,22-3.3
				c17.201,0,31.1,5,31.1,11.2c0,6.2-14,11.2-31.1,11.2c-8.6,0-16.4-1.3-22-3.3l-5.299-1.9c0.898-0.7,1.398-1.5,1.398-2.3
				c0-1.5-1.699-2.9-4.6-4l-22,7.9c2.801,1,6.701,1.6,11,1.6c2.5,0,4.9-0.2,7-0.6l5.201,1.8c7.5,2.7,17.898,4.4,29.299,4.4
				c22.9,0,41.5-6.7,41.5-15s-18.6-15-41.5-15c-11.4,0-21.799,1.7-29.299,4.4l-52.4,18.5c-5.6,2-13.4,3.3-22,3.3
				c-17.201,0-31.1-5-31.1-11.2s14-11.2,31.1-11.2c6.1,0,11.799,0.6,16.6,1.7c-0.6,0.6-1,1.3-1,2c0,1.5,1.699,2.9,4.6,4l4-1.4
				l10.4,3.7l3.699-1.3l-10.398-3.7l6.699-2.4l10.4,3.7l3.699-1.3l-10.4-3.7l4-1.4c-2.799-1-6.699-1.6-11-1.6
				c-2.799,0-5.398,0.3-7.699,0.7c-6.699-1.6-14.699-2.6-23.4-2.6c-22.9,0-41.5,6.7-41.5,15
				C-1077.423-681.851-1058.823-675.151-1035.923-675.151z"/>
		</g>
	</g>
	<path fill="#808080" d="M-1213.024-376.451c0.101,2.801,0.101,5.5,0.2,8.1c0.199,10.801,25.4,23.9,36.2,23.801
		c43.4-0.301,120.5-0.4,198.5-0.4l0,0c0.4,0,0.9,0,1.301,0s0.9,0,1.301,0l0,0c77.898,0,155.1,0,198.5,0.4
		c10.799,0.1,36-13,36.199-23.801c0-2.6,0.1-5.299,0.199-8.1c0,0-16.299,15-39.398,15c-49.201,0-196.9,0-196.9,0h-199.8
		C-1196.225-361.551-1213.024-376.451-1213.024-376.451z"/>
	<g>
		<g>
			<defs>
				<rect id="SVGID_1_" x="-1087.124" y="-517.551" width="220.5" height="64.401"/>
			</defs>
			<clipPath id="SVGID_2_">
				<use xlink:href="#SVGID_1_"  overflow="visible"/>
			</clipPath>
			<g clip-path="url(#SVGID_2_)">
				<g>
					<circle fill="#4D4D4D" cx="-901.625" cy="-479.251" r="18"/>
					<path fill="#1A1A1A" d="M-901.625-466.852c-9,0-16.398-6.6-17.699-15.199c-0.1,0.9-0.199,1.799-0.199,2.799c0,9.9,8,18,18,18
						c9.898,0,18-8,18-18c0-1-0.102-1.898-0.201-2.799C-885.224-473.451-892.625-466.852-901.625-466.852z"/>
				</g>
				<g>
					<circle fill="#4D4D4D" cx="-976.923" cy="-508.351" r="18"/>
					<path fill="#1A1A1A" d="M-976.923-495.951c-9,0-16.4-6.601-17.701-15.2c-0.1,0.9-0.199,1.8-0.199,2.8c0,9.9,8,18,18,18
						c9.9,0,18-8,18-18c0-1-0.1-1.9-0.199-2.8C-960.523-502.551-967.923-495.951-976.923-495.951z"/>
				</g>
				<g>
					<circle fill="#4D4D4D" cx="-1052.423" cy="-479.251" r="18"/>
					<path fill="#1A1A1A" d="M-1052.423-466.852c-9,0-16.4-6.6-17.701-15.199c-0.1,0.9-0.199,1.799-0.199,2.799c0,9.9,8,18,18,18
						c9.9,0,18-8,18-18c0-1-0.1-1.898-0.199-2.799C-1036.022-473.451-1043.423-466.852-1052.423-466.852z"/>
				</g>
			</g>
		</g>
	</g>
	<polygon fill="#B8B8B8" points="-836.324,-465.752 -886.724,-421.15 -899.625,-415.051 -974.625,-415.451 -974.625,-415.451 
		-974.824,-415.451 -974.923,-415.451 -974.923,-415.451 -1050.022,-415.051 -1062.823,-421.15 -1113.224,-465.752 
		-1125.323,-453.15 -1125.323,-440.551 -1120.423,-432.951 -1065.022,-382.451 -1050.224,-376.451 -974.923,-376.451 
		-974.625,-376.451 -899.324,-376.451 -884.523,-382.451 -829.125,-432.951 -824.224,-440.551 -824.224,-453.15 	"/>
	
		<line fill="none" stroke="#CCCCCC" stroke-width="0.75" stroke-linecap="round" stroke-miterlimit="10" x1="-1114.224" y1="-560.851" x2="-838.125" y2="-560.851"/>
</g>
<g>
	<g>
		<path fill="#808080" d="M-978.454,715.425c0,6.236-5.103,11.339-11.338,11.339h-8.891c-6.236,0-11.338-5.103-11.338-11.339
			V561.962c0-6.236,5.103-11.339,11.338-11.339h8.891c6.236,0,11.338,5.103,11.338,11.339V715.425z"/>
	</g>
	<g>
		<path fill="#808080" d="M-905.85,715.425c0,6.236-5.103,11.339-11.338,11.339h-6.997c-6.236,0-11.338-5.103-11.338-11.339V561.962
			c0-6.236,5.103-11.339,11.338-11.339h6.997c6.236,0,11.338,5.103,11.338,11.339V715.425z"/>
	</g>
	<g>
		<path fill="#808080" d="M-850.293,694.591c0,6.236-5.103,11.339-11.338,11.339h-5.733c-6.236,0-11.338-5.103-11.338-11.339
			V553.124c0-6.236,5.103-11.339,11.338-11.339h5.733c6.236,0,11.338,5.103,11.338,11.339V694.591z"/>
	</g>
	<polygon fill="#4D4D4D" points="-1047.404,565.002 -1047.404,596.604 -1037.745,600.219 -983.14,608.684 -971.127,608.684 
		-840.077,592.848 -831.614,589.57 -812.774,570.732 -811.682,548.617 	"/>
	<path fill="#FFFFFF" d="M-1243.278,214.936c-0.661,43.45,2.666,184.252,2.666,184.252l178.573,167.539l67.802,4.391
		c0,0,279.07-33.82,370.332-42.432c16.066-1.516,14.967-22.27,14.967-22.27s9.023-159.594,13.648-210.558
		c0.189-2.088-2.959-5.971-4.875-6.824c-66.16-29.48-221-81.054-278.539-100.405c-10.746-3.614-45.305-1.915-45.305-1.915
		l-297.693,17.361C-1221.702,204.075-1243.125,204.94-1243.278,214.936z"/>
	<path fill="#B8B8B8" d="M-740.297,355.84l29.217,29.668c0,0,3.02,6.661,2.248,13.485c-0.801,7.104-5.395,14.384-5.395,14.384
		l-49.895,57.538c0,0-3.465,2.078-6.881,4.129c-3.324,1.994-6.605,3.963-6.605,3.963l-141.715,15.283l25.291,26.971
		c0,0,3.516,2.285,7.193,3.146c3.977,0.936,8.135,0.449,8.135,0.449l147.846-17.082c0,0,3.357-2.125,6.723-4.256
		c3.377-2.139,6.762-4.283,6.762-4.283l54.393-58.887c0,0,4.945-7.23,4.945-14.834c0-7.454-4.945-15.284-4.945-15.284
		l-46.301-51.694c0,0-3.15-2.962-6.293-4.045c-3.367-1.162-6.742-0.45-6.742-0.45L-740.297,355.84z"/>
	<path fill="#B8B8B8" d="M-617.196,514.145c-6.232,2.631-16.227,2.615-16.227,2.615s-2.525,2.549-5.285,4.922
		c-2.676,2.299-7.855,3.301-7.855,3.301L-969.166,563.9c0,0-4.857,0.043-8.83-2.516c-2.613-1.508-5.091-4.057-5.091-4.057
		l-49.113,2.736c0,0-7.002-0.43-17.346-2.736c-10.793-2.41-22.354-9.441-22.354-9.441l-168.984-160.584l0.272,11.885
		l168.712,162.369c0,0,10.831,7.91,28.396,10.875c19.216,3.242,49.267,1.559,49.267,1.559l358.549-43.699
		c0,0,10.553,0.01,16.678-3.033c9.363-3.904,9.955-17.379,9.955-17.379l0.117-3.463
		C-608.938,506.416-611.19,511.605-617.196,514.145z"/>
	<g>
		<defs>
			<polygon id="SVGID_3_" points="-887.01,368.332 -953.327,443.543 -908.557,471.041 -768.127,439.405 -737.397,392.594 
				-751.145,353.826 			"/>
		</defs>
		<clipPath id="SVGID_4_">
			<use xlink:href="#SVGID_3_"  overflow="visible"/>
		</clipPath>
		<circle clip-path="url(#SVGID_4_)" fill="#4D4D4D" cx="-846.548" cy="380.153" r="17.95"/>
		<path clip-path="url(#SVGID_4_)" fill="#1A1A1A" d="M-834.407,366.96c1.312,2.494,2.062,5.328,2.062,8.341
			c0,9.914-8.035,17.95-17.949,17.95c-4.689,0-8.945-1.812-12.143-4.758c3.004,5.711,8.986,9.61,15.887,9.61
			c9.914,0,17.951-8.037,17.951-17.951C-828.598,374.929-830.844,370.241-834.407,366.96z"/>
		<circle clip-path="url(#SVGID_4_)" fill="#4D4D4D" cx="-775.435" cy="405.253" r="17.95"/>
		<path clip-path="url(#SVGID_4_)" fill="#1A1A1A" d="M-770.764,387.938c4.16,3.287,6.838,8.367,6.838,14.08
			c0,9.914-8.035,17.95-17.949,17.95c-1.619,0-3.18-0.234-4.67-0.636c3.057,2.417,6.91,3.871,11.111,3.871
			c9.914,0,17.949-8.037,17.949-17.95C-757.485,396.958-763.118,389.997-770.764,387.938z"/>
		<circle clip-path="url(#SVGID_4_)" fill="#4D4D4D" cx="-920.687" cy="421.454" r="17.95"/>
		<path clip-path="url(#SVGID_4_)" fill="#1A1A1A" d="M-915.325,404.32c3.02,3.212,4.885,7.525,4.885,12.282
			c0,9.914-8.037,17.951-17.95,17.951c-1.868,0-3.669-0.287-5.363-0.816c3.274,3.481,7.91,5.668,13.067,5.668
			c9.914,0,17.949-8.037,17.949-17.951C-902.737,413.409-908.03,406.601-915.325,404.32z"/>
	</g>
	<path fill="none" stroke="#CCCCCC" stroke-width="0.75" stroke-linecap="round" stroke-miterlimit="10" d="M-1107.514,300.082
		c0,0,28.72,20.658,60.53,29.4c23.576,6.479,52.747,1.729,52.747,1.729l182.555-15.565"/>
</g>
<g>
	<g>
		<path fill="#808080" d="M940.196,1209.65c0,6.236-5.103,11.339-11.339,11.339h-8.355c-6.236,0-11.339-5.103-11.339-11.339
			v-183.941c0-6.236,5.103-11.339,11.339-11.339h8.355c6.236,0,11.339,5.103,11.339,11.339V1209.65z"/>
	</g>
	<g>
		<path fill="#B8B8B8" d="M960.613,1209.65c0,6.236-5.103,11.339-11.339,11.339h-8.355c-6.236,0-11.339-5.103-11.339-11.339
			v-183.941c0-6.236,5.103-11.339,11.339-11.339h8.355c6.236,0,11.339,5.103,11.339,11.339V1209.65z"/>
	</g>
	<path fill="#069BE9" d="M811.272,784.97c0,1.354-1.098,2.451-2.45,2.451h-74.211c-1.353,0-2.45-1.098-2.45-2.451v-9.152
		c0-1.354,1.098-2.45,2.45-2.45h74.211c1.353,0,2.45,1.097,2.45,2.45V784.97z"/>
	<path fill="#4D4D4D" d="M1162.915,961.585h-627.54c-1.354,0-2.45,1.378-2.45,3.078v14.104c0,1.701,1.097,3.078,2.45,3.078h331.004
		c0,0,1.908,0.104,2.854,1.416c0.84,1.168,0.729,3.562,0.729,3.562v96.698c0,1.354,1.098,2.449,2.45,2.449h104.126
		c1.354,0,2.45-1.096,2.45-2.449v-96.698c0,0-0.285-2.823,0.48-4.047c0.793-1.264,4.205-0.949,4.205-0.949l179.241,0.018
		c1.354,0,2.45-1.377,2.45-3.078v-14.104C1165.365,962.963,1164.269,961.585,1162.915,961.585z"/>
	<path fill="#B8B8B8" d="M1181.116,961.632c0,3.385-2.742,6.126-6.126,6.126h-10.412c-3.383,0-6.126-2.741-6.126-6.126V795.031
		c0-3.384,2.743-6.126,6.126-6.126h10.412c3.384,0,6.126,2.742,6.126,6.126V961.632z"/>
	<path fill="#FFFFFF" d="M1165.365,786.396c0-4.736-3.84-8.574-8.575-8.574H541.5c-4.736,0-8.575,3.838-8.575,8.574V965.72h632.44
		V786.396z"/>
</g>
<g>
	<circle fill="#FFFFFF" stroke="#3A3A3A" stroke-miterlimit="10" cx="2640" cy="1927" r="35.989"/>
	<path fill="#222222" stroke="#3A3A3A" stroke-miterlimit="10" d="M2640,1891.011v71.979c19.877,0,35.989-16.112,35.989-35.989
		S2659.877,1891.011,2640,1891.011z"/>
</g>
<g>
	<path fill-rule="evenodd" clip-rule="evenodd" fill="#E6E6E6" d="M2392.488,2102.156c1.881-4.891,4.982-9.128,7.365-13.75
		c0.25-0.484,0.826-0.996,0.684-1.426c-0.127-0.383-0.846-0.57-1.307-0.839c-0.621-0.36-1.244-0.716-1.92-1.105
		c3.906-2.302,7.756-4.569,11.686-6.886c-0.766-0.463-1.451-0.9-2.16-1.297c-0.373-0.207-0.492-0.398-0.127-0.707
		c1.021,0.424,1.908,1.084,2.855,1.635c0.678,0.395,1.367,0.77,2.025,1.196c-0.234,0.544-0.391,0.621-0.867,0.388
		c-0.371-0.18-0.709-0.42-1.07-0.619c-0.258-0.143-0.385-0.059-0.398,0.228c-0.01,0.185-0.006,0.37-0.006,0.556
		c0,3.709,0.002,7.419-0.002,11.129c0,1.202-0.168,1.3-1.219,0.709c-0.576-0.323-1.145-0.658-1.721-0.979
		c-0.689-0.386-0.709-0.386-1.092,0.287c-1.729,3.022-3.424,6.064-5.148,9.09c-0.488,0.859-0.967,1.726-1.455,2.586
		c-0.543,0.959-0.332,1.822,0.561,2.482c0.686,0.508,1.426,0.766,2.299,0.743c4.037-0.103,8.072,0.129,12.109,0.145
		c2.035,0.008,4.076,0.073,6.113,0.101c0.67,0.01,0.805,0.142,0.805,0.805c0.002,0.397,0.133,0.828-0.184,1.181
		c-0.129,1.107-0.08,2.222-0.092,3.332c-0.004,0.354-0.057,0.488-0.467,0.481c-6.576-0.121-13.152-0.22-19.729-0.329
		c-0.688-0.012-1.342-0.206-1.965-0.483c-2.641-1.175-4.662-2.919-5.393-5.858c-0.059-0.229,0.033-0.503-0.182-0.69
		c0-0.123,0-0.247,0-0.371c0.102-0.288,0.102-0.577,0-0.866C2392.488,2102.733,2392.488,2102.445,2392.488,2102.156z"/>
	<path fill-rule="evenodd" clip-rule="evenodd" fill="#E6E6E6" d="M2411.518,2078.89c-0.689,0.078-1.111-0.448-1.619-0.749
		c-1.076-0.642-2.217-1.187-3.189-1.994c1.184-1.996,2.361-3.995,3.553-5.986c2.047-3.422,4.117-6.83,6.146-10.264
		c1.42-2.402,3.641-3.518,6.256-4.045c0.199-0.078,0.408-0.023,0.611-0.04c0.297-0.032,0.604,0.071,0.895-0.063
		c0.164,0,0.328,0,0.494,0c1.102,0.285,2.197,0.568,3.16,1.227c0.879,0.603,1.623,1.309,2.168,2.239
		c2.4,4.097,4.826,8.179,7.223,12.278c0.244,0.416,0.42,0.462,0.82,0.209c0.951-0.601,1.936-1.152,2.922-1.733
		c0.152,0.188,0.094,0.377,0.094,0.548c0.004,4.12,0.006,8.241-0.004,12.361c0,0.192,0.152,0.465-0.166,0.58
		c-0.512-0.008-0.867-0.364-1.271-0.592c-3.191-1.811-6.367-3.645-9.559-5.455c-0.916-0.52-0.914-0.646-0.023-1.188
		c0.635-0.387,1.27-0.77,1.924-1.12c0.424-0.228,0.49-0.452,0.23-0.874c-1.227-2.005-2.404-4.039-3.596-6.064
		c-1.096-1.866-2.217-3.719-3.289-5.598c-0.607-1.061-1.439-1.311-2.562-0.799c-0.676,0.308-1.189,0.746-1.582,1.404
		c-3.008,5.047-6.027,10.088-9.062,15.119C2411.947,2078.529,2411.861,2078.838,2411.518,2078.89z"/>
	<path fill-rule="evenodd" clip-rule="evenodd" fill="#E6E6E6" d="M2392.488,2103.022c0.191,0.289,0.201,0.578,0,0.866
		C2392.488,2103.601,2392.488,2103.312,2392.488,2103.022z"/>
	<path fill-rule="evenodd" clip-rule="evenodd" fill="#E6E6E6" d="M2424.17,2055.748c-0.277,0.227-0.596,0.096-0.896,0.102
		c-0.021-0.043-0.012-0.076,0.029-0.102C2423.592,2055.748,2423.881,2055.748,2424.17,2055.748z"/>
	<path fill-rule="evenodd" clip-rule="evenodd" fill="#E6E6E6" d="M2423.303,2055.748c-0.01,0.034-0.02,0.068-0.029,0.103
		c-0.203,0-0.406,0.001-0.609,0.001c0.008-0.035,0.014-0.069,0.02-0.104C2422.891,2055.748,2423.096,2055.748,2423.303,2055.748z"/>
	<path fill-rule="evenodd" clip-rule="evenodd" fill="#E6E6E6" d="M2420.441,2108.587c3.334-1.951,6.668-3.903,10.002-5.855
		c0.512-0.3,1.023-0.602,1.637-0.962c0,1.177,0.037,2.275-0.014,3.369c-0.027,0.562,0.146,0.66,0.674,0.652
		c4.596-0.065,9.191-0.123,13.789-0.121c0.992,0,1.771-0.744,1.914-1.711c0.137-0.912-0.012-1.707-0.477-2.532
		c-3.004-5.338-5.957-10.704-8.943-16.052c-0.232-0.416-0.189-0.602,0.24-0.805c0.516-0.242,0.994-0.565,1.488-0.854
		c0.83-0.448,1.666-0.887,2.488-1.349c0.273-0.153,0.428-0.202,0.617,0.14c3.211,5.812,6.447,11.611,9.652,17.427
		c0.551,0.997,0.615,2.131,0.6,3.248c-0.039,2.736-0.914,5.095-3.225,6.739c-1.199,0.853-2.529,1.339-4.031,1.348
		c-4.721,0.028-9.441,0.094-14.162,0.114c-0.529,0.002-0.643,0.154-0.623,0.652c0.041,1.07,0.012,2.143,0.012,3.212
		c-0.229,0.104-0.359-0.075-0.504-0.158c-3.574-2.034-7.145-4.074-10.713-6.12
		C2420.701,2108.877,2420.445,2108.864,2420.441,2108.587z"/>
	<path fill-rule="evenodd" clip-rule="evenodd" fill="#E6E6E6" d="M2427.633,2094.624c1.572,0,3.076,0.021,4.58-0.012
		c0.49-0.011,0.717,0.076,0.656,0.623c-0.057,0.507,0.166,1.201-0.094,1.489c-0.305,0.339-1.008,0.102-1.537,0.105
		c-2.104,0.012-4.207-0.009-6.311,0.016c-0.438,0.005-0.559-0.098-0.51-0.539c0.152-1.389,0.654-2.595,1.766-3.481
		c0.869-0.693,1.773-1.342,2.656-2.021c0.941-0.725,1.73-1.539,1.621-2.867c-0.076-0.93-0.49-1.543-1.213-1.752
		c-1.168-0.338-2.061,0.283-2.279,1.58c-0.154,0.93-0.154,0.93-1.111,0.93c-0.021,0-0.041,0-0.062,0c-1.402,0-1.402,0-1.152-1.424
		c0.312-1.78,1.4-2.86,3.193-3.102c1.51-0.204,2.945,0.005,4.055,1.157c1.621,1.683,1.332,4.435-0.6,6.006
		c-0.91,0.741-1.848,1.449-2.766,2.184C2428.176,2093.798,2427.85,2094.109,2427.633,2094.624z"/>
	<path fill-rule="evenodd" clip-rule="evenodd" fill="#E6E6E6" d="M2422.762,2087.115c-0.5-1.829-1.939-2.991-3.744-3.019
		c-1.943-0.03-3.496,1.067-3.994,2.937c-0.652,2.453-0.623,4.933,0.016,7.385c0.402,1.542,1.758,2.637,3.279,2.786
		c1.785,0.176,3.238-0.55,4.037-2.027c0.73-1.354,0.727-2.849,0.816-4.304C2423.143,2089.594,2423.096,2088.34,2422.762,2087.115z
		 M2420.463,2093.621c-0.189,0.923-0.76,1.467-1.551,1.491c-0.805,0.023-1.449-0.461-1.613-1.396
		c-0.363-2.06-0.355-4.138,0.006-6.196c0.162-0.92,0.842-1.459,1.604-1.436c0.732,0.021,1.346,0.582,1.537,1.453
		c0.227,1.031,0.18,2.088,0.268,3.109C2420.635,2091.655,2420.662,2092.647,2420.463,2093.621z"/>
</g>
<g id="RSS_-_Orange">
	<g>
		<g>
			<radialGradient id="SVGID_5_" cx="2393.6543" cy="1914.623" r="32.4844" gradientUnits="userSpaceOnUse">
				<stop  offset="0" style="stop-color:#FFF584"/>
				<stop  offset="1" style="stop-color:#FDBF0F"/>
			</radialGradient>
			<path fill="url(#SVGID_5_)" d="M2393.719,1923.551c-17.369,0-31.5-14.131-31.5-31.5s14.131-31.5,31.5-31.5s31.5,14.131,31.5,31.5
				S2411.088,1923.551,2393.719,1923.551z"/>
			<g>
				<path fill="#E79F2E" d="M2393.719,1861.051c17.094,0,31,13.906,31,31s-13.906,31-31,31s-31-13.906-31-31
					S2376.625,1861.051,2393.719,1861.051 M2393.719,1860.051c-17.674,0-32,14.328-32,32c0,17.674,14.326,32,32,32
					c17.672,0,32-14.326,32-32C2425.719,1874.379,2411.391,1860.051,2393.719,1860.051L2393.719,1860.051z"/>
			</g>
		</g>
		<g opacity="0.8">
			<linearGradient id="SVGID_6_" gradientUnits="userSpaceOnUse" x1="2392.8135" y1="1880.8027" x2="2409.3909" y2="1944.3341">
				<stop  offset="0" style="stop-color:#FFFFFF"/>
				<stop  offset="1" style="stop-color:#FBAE17"/>
			</linearGradient>
			<path fill="url(#SVGID_6_)" d="M2415.117,1869.652c5.322,5.568,8.602,13.105,8.602,21.398c0,17.094-13.906,31-31,31
				c-8.293,0-15.83-3.279-21.398-8.602c5.648,5.91,13.598,9.602,22.4,9.602c17.094,0,30.998-13.904,30.998-31
				C2424.719,1883.25,2421.027,1875.301,2415.117,1869.652z"/>
		</g>
		<g>
			<g>
				<linearGradient id="SVGID_7_" gradientUnits="userSpaceOnUse" x1="2385.2568" y1="1861.2598" x2="2396.6953" y2="1902.8744">
					<stop  offset="0" style="stop-color:#FFFBD4"/>
					<stop  offset="1" style="stop-color:#000000"/>
				</linearGradient>
				<path fill="url(#SVGID_7_)" d="M2386.074,1897.754c10.873-9.359,24.947-18.096,37.078-11.508
					c-2.713-13.773-14.877-24.197-29.434-24.197c-16.543,0-30,13.461-30,30.004c0,4.008,0.797,7.832,2.229,11.33
					C2370.707,1904.58,2378.105,1904.613,2386.074,1897.754z"/>
			</g>
		</g>
		<g>
			<linearGradient id="SVGID_8_" gradientUnits="userSpaceOnUse" x1="2379.8828" y1="1855.6943" x2="2401.1694" y2="1917.4243">
				<stop  offset="0" style="stop-color:#FFFFFF"/>
				<stop  offset="1" style="stop-color:#000000"/>
			</linearGradient>
			<path fill="url(#SVGID_8_)" d="M2365.721,1894.055c0-16.543,13.457-30.004,30-30.004c7.762,0,14.846,2.965,20.178,7.82
				c-5.49-6.031-13.4-9.822-22.18-9.822c-16.543,0-30,13.461-30,30.004c0,8.779,3.791,16.689,9.822,22.182
				C2368.686,1908.9,2365.721,1901.818,2365.721,1894.055z"/>
		</g>
	</g>
	<g opacity="0.8">
		<linearGradient id="circle_3_" gradientUnits="userSpaceOnUse" x1="2384.6504" y1="1910.4697" x2="2384.6504" y2="1873.9395">
			<stop  offset="0" style="stop-color:#FFFFFF"/>
			<stop  offset="1" style="stop-color:#FBAE17"/>
		</linearGradient>
		<path id="circle_2_" opacity="0.8" fill="url(#circle_3_)" d="M2388.938,1904.773c0,2.368-1.92,4.281-4.293,4.281
			c-2.361,0-4.283-1.913-4.283-4.281c0-2.361,1.922-4.295,4.283-4.295C2387.019,1900.479,2388.938,1902.412,2388.938,1904.773z"/>
		<linearGradient id="SVGID_9_" gradientUnits="userSpaceOnUse" x1="2391.0107" y1="1910.4697" x2="2391.0107" y2="1873.9396">
			<stop  offset="0" style="stop-color:#FFFFFF"/>
			<stop  offset="1" style="stop-color:#FBAE17"/>
		</linearGradient>
		<path opacity="0.8" fill="url(#SVGID_9_)" d="M2401.382,1908.814h-5.641c-0.074-4.023-1.668-7.791-4.506-10.633
			c-2.84-2.848-6.594-4.446-10.596-4.52v-5.623C2392.009,1888.192,2401.229,1897.428,2401.382,1908.814L2401.382,1908.814z"/>
		<linearGradient id="SVGID_10_" gradientUnits="userSpaceOnUse" x1="2396.5068" y1="1910.4697" x2="2396.5068" y2="1873.9396">
			<stop  offset="0" style="stop-color:#FFFFFF"/>
			<stop  offset="1" style="stop-color:#FBAE17"/>
		</linearGradient>
		<path opacity="0.8" fill="url(#SVGID_10_)" d="M2412.362,1908.814h-5.631c-0.154-14.347-11.768-25.989-26.08-26.145v-5.621
			C2398.069,1877.205,2412.208,1891.368,2412.362,1908.814L2412.362,1908.814z"/>
	</g>
	<g>
		<g>
			<path id="circle_1_" fill="#E6E6E6" d="M2838.505,1958.631c-1.674,1.675-4.385,1.67-6.062-0.009
				c-1.67-1.669-1.676-4.381-0.002-6.056c1.67-1.669,4.396-1.678,6.066-0.008
				C2840.185,1954.236,2840.175,1956.961,2838.505,1958.631z"/>
			<path fill="#E6E6E6" d="M2844.446,1970.287l-3.988-3.988c2.793-2.897,4.33-6.688,4.332-10.705
				c0.006-4.021-1.518-7.807-4.297-10.688l3.977-3.977C2852.4,1949.077,2852.391,1962.128,2844.446,1970.287L2844.446,1970.287z"/>
			<path fill="#E6E6E6" d="M2852.211,1978.052l-3.981-3.982c10.035-10.253,10.056-26.697,0.045-36.928l3.975-3.975
				C2864.455,1945.594,2864.438,1965.606,2852.211,1978.052L2852.211,1978.052z"/>
		</g>
		<circle fill="none" stroke="#E6E6E6" stroke-width="2" stroke-miterlimit="10" cx="2846.29" cy="1955.609" r="32.559"/>
	</g>
	<g>
		<path fill-rule="evenodd" clip-rule="evenodd" fill="#E6E6E6" d="M2425.429,2022.499c0.004-0.078,0.014-0.156,0.014-0.234
			c0-2.396,0.002-4.787-0.004-7.184c-0.002-0.197,0.037-0.259,0.25-0.259c5.283,0.008,10.564,0.005,15.848,0.011
			c0.193,0,0.246-0.042,0.246-0.243c-0.008-7.506-0.006-15.011-0.006-22.515c0-0.078,0-0.156,0-0.232
			c0.078-0.029,0.102,0.034,0.133,0.066c0.955,0.923,1.906,1.849,2.861,2.771c1.127,1.092,2.258,2.181,3.387,3.271
			c0.744,0.717,1.486,1.432,2.229,2.148c1.125,1.086,2.246,2.175,3.375,3.256c0.748,0.712,1.492,1.427,2.229,2.146
			c1.119,1.094,2.25,2.175,3.373,3.26c0.734,0.707,1.467,1.414,2.201,2.121c0.752,0.725,1.502,1.449,2.254,2.176
			c0.611,0.587,1.225,1.17,1.832,1.762c0.076,0.074,0.154,0.085,0.248,0.085c5.385-0.001,10.773-0.001,16.16-0.001
			c0.043,0.066,0.021,0.141,0.021,0.211c0.002,2.394,0.002,4.787,0.002,7.181c0,0.27,0.031,0.243-0.244,0.243
			c-16.561,0-33.119,0-49.68,0c-2.17,0-4.342,0-6.512-0.002C2425.573,2022.538,2425.489,2022.577,2425.429,2022.499z"/>
		<path fill-rule="evenodd" clip-rule="evenodd" fill="#E6E6E6" d="M2465.765,1973.66c-0.004,0.086-0.012,0.17-0.012,0.256
			c-0.002,7.432-0.002,14.864-0.002,22.297c0,0.078,0,0.155,0,0.27c-0.133-0.106-0.244-0.195-0.354-0.286
			c-0.012-0.009-0.021-0.018-0.031-0.027c-0.566-0.541-1.135-1.082-1.703-1.623c-0.535-0.512-1.07-1.02-1.604-1.529
			c-0.746-0.716-1.498-1.43-2.238-2.15c-0.604-0.589-1.229-1.156-1.828-1.749c-0.553-0.546-1.125-1.075-1.689-1.61
			c-0.479-0.454-0.961-0.906-1.438-1.363c-0.377-0.36-0.756-0.723-1.131-1.088c-0.549-0.531-1.111-1.05-1.66-1.582
			c-0.561-0.541-1.125-1.078-1.691-1.609c-0.43-0.4-0.842-0.822-1.281-1.212c-0.514-0.456-0.998-0.941-1.496-1.415
			c-0.539-0.514-1.08-1.027-1.619-1.543c-0.656-0.626-1.322-1.248-1.969-1.886c-0.686-0.676-1.414-1.305-2.078-2.002
			c-0.123-0.128-0.277-0.197-0.482-0.197c-5.262,0.009-10.525,0.006-15.785,0.012c-0.193,0-0.236-0.047-0.236-0.236
			c0.008-2.151,0.008-4.302,0.002-6.452c0-0.158,0.018-0.224,0.209-0.224c18.803,0.006,37.607,0.006,56.412,0.006
			c0.039,0.061,0.021,0.128,0.021,0.192c0,2.17,0,4.34,0,6.51c0,0.223,0,0.223-0.223,0.223c-5.289,0-10.574,0-15.861,0.002
			C2465.919,1973.642,2465.839,1973.621,2465.765,1973.66z"/>
		<path fill-rule="evenodd" clip-rule="evenodd" fill="#E6E6E6" d="M2443.735,2025.774c0.004,0.377,0.006,0.753,0.01,1.129
			c0.027,0.303,0.004,0.606,0.014,0.909c0.002,0.07-0.014,0.143,0.016,0.21c0.004,0.365,0.008,0.728,0.01,1.091
			c0.029,0.296,0.004,0.595,0.014,0.892c0.002,0.076-0.014,0.155,0.016,0.229c0.004,0.376,0.008,0.752,0.01,1.128
			c0.027,0.155,0.004,0.311,0.014,0.466c0.002,0.034-0.029,0.101,0.055,0.085c0.27-0.586,0.549-1.167,0.799-1.76
			c0.221-0.518,0.461-1.025,0.689-1.538c0.221-0.488,0.451-0.973,0.67-1.461c0.168-0.379,0.354-0.751,0.512-1.135
			c0.088-0.208,0.16-0.431,0.295-0.619c0.102-0.035,0.209-0.016,0.312-0.017c0.715-0.002,1.428-0.001,2.143,0.001
			c0.062,0,0.133-0.028,0.186,0.028c-0.156,0.695-0.314,1.391-0.471,2.087c-0.379,1.716-0.76,3.432-1.139,5.147
			c-0.072,0.323-0.139,0.646-0.203,0.971c-0.025,0.13-0.068,0.195-0.225,0.19c-0.453-0.014-0.906-0.013-1.359-0.001
			c-0.158,0.004-0.158-0.079-0.139-0.176c0.145-0.663,0.297-1.327,0.441-1.991c0.127-0.591,0.254-1.181,0.387-1.771
			c0.146-0.662,0.287-1.326,0.445-1.987c0.064-0.268,0.119-0.538,0.18-0.808c0.018-0.04-0.01-0.083,0.01-0.121
			c0.002-0.01,0.014-0.019,0.014-0.025c0-0.012-0.01-0.009-0.012,0.007c-0.018,0.03-0.025,0.064-0.055,0.087
			c-0.303,0.651-0.609,1.303-0.908,1.957c-0.418,0.921-0.828,1.846-1.244,2.769c-0.275,0.615-0.557,1.228-0.824,1.847
			c-0.07,0.162-0.152,0.222-0.334,0.215c-0.42-0.017-0.84-0.005-1.262-0.005c-0.277,0-0.277,0-0.291-0.272
			c-0.027-0.202-0.012-0.403-0.012-0.606c-0.002-0.811-0.002-1.621-0.002-2.434c0-0.07,0.014-0.143-0.016-0.213
			c0.002-0.294,0.008-0.588,0.006-0.882c-0.004-0.792-0.01-1.584-0.018-2.376c-0.041-0.055-0.004-0.112-0.01-0.171
			c0.002,0.064-0.016,0.121-0.055,0.171c-0.107,0.468-0.219,0.933-0.32,1.4c-0.217,0.982-0.428,1.966-0.645,2.946
			c-0.164,0.755-0.338,1.507-0.5,2.26c-0.025,0.133-0.074,0.182-0.213,0.18c-0.449-0.008-0.893-0.005-1.34-0.002
			c-0.135,0.001-0.195-0.004-0.154-0.183c0.188-0.815,0.334-1.64,0.529-2.453c0.174-0.728,0.326-1.459,0.49-2.188
			c0.133-0.584,0.254-1.17,0.379-1.754c0.121-0.546,0.23-1.097,0.379-1.636c0.018-0.065-0.039-0.148,0.047-0.197
			c0.59-0.025,1.18-0.005,1.768-0.01c0.236-0.002,0.473,0.006,0.707-0.004c0.143-0.007,0.211,0.027,0.189,0.182
			C2443.712,2025.632,2443.706,2025.706,2443.735,2025.774z"/>
		<path fill-rule="evenodd" clip-rule="evenodd" fill="#E6E6E6" d="M2433.751,2025.407c0.5,1.347,1.002,2.691,1.502,4.038
			c0.197,0.535,0.393,1.068,0.592,1.603c0.018,0.045,0.021,0.117,0.09,0.108c0.061-0.009,0.031-0.071,0.039-0.113
			c0.18-0.798,0.365-1.593,0.541-2.393c0.152-0.693,0.289-1.392,0.439-2.086c0.084-0.386,0.184-0.77,0.275-1.153
			c0.029-0.038,0.07-0.027,0.107-0.027c0.486-0.001,0.973-0.002,1.457,0.001c0.057,0.001,0.166-0.042,0.135,0.096
			c-0.121,0.524-0.244,1.049-0.361,1.572c-0.354,1.589-0.707,3.179-1.061,4.766c-0.135,0.615-0.27,1.229-0.396,1.847
			c-0.021,0.108-0.061,0.141-0.166,0.14c-0.52-0.003-1.037-0.002-1.557,0c-0.092,0.001-0.135-0.026-0.172-0.117
			c-0.211-0.526-0.4-1.062-0.596-1.595c-0.195-0.535-0.408-1.065-0.607-1.6c-0.305-0.818-0.604-1.639-0.904-2.458
			c-0.021-0.06-0.053-0.113-0.084-0.183c-0.1,0.146-0.1,0.317-0.135,0.473c-0.281,1.24-0.553,2.481-0.826,3.723
			c-0.123,0.551-0.244,1.103-0.359,1.654c-0.014,0.072-0.033,0.103-0.107,0.103c-0.537-0.002-1.076-0.001-1.617-0.001
			c0.105-0.556,0.234-1.094,0.352-1.634c0.113-0.541,0.236-1.08,0.357-1.62c0.16-0.713,0.307-1.43,0.469-2.141
			c0.164-0.726,0.316-1.453,0.486-2.176c0.061-0.269,0.119-0.539,0.18-0.81c0.014-0.055,0.061-0.04,0.096-0.04
			c0.586-0.001,1.174-0.001,1.76-0.001C2433.708,2025.383,2433.731,2025.389,2433.751,2025.407z"/>
		<path fill-rule="evenodd" clip-rule="evenodd" fill="#E6E6E6" d="M2482.78,2027.968c-0.018-0.089-0.035-0.178-0.049-0.269
			c-0.1-0.803-0.453-1.452-1.135-1.912c-0.516-0.353-1.104-0.497-1.707-0.59c-0.082-0.029-0.17,0.007-0.252-0.027
			c-0.146,0-0.295,0-0.441,0c-0.096,0.038-0.195-0.005-0.293,0.028c-0.596,0.082-1.186,0.209-1.734,0.467
			c-0.629,0.296-1.186,0.683-1.635,1.231c-0.303,0.373-0.582,0.756-0.781,1.187c-0.342,0.739-0.572,1.515-0.631,2.332
			c-0.033,0.095,0.01,0.198-0.029,0.291c0,0.16,0,0.319,0,0.479c0.033,0.068,0.002,0.146,0.027,0.215
			c0.021,0.152,0.02,0.31,0.062,0.455c0.227,0.766,0.641,1.388,1.385,1.752c0.48,0.236,0.984,0.382,1.523,0.406
			c0.262,0.018,0.523,0.02,0.785-0.001c0.078-0.004,0.158,0.002,0.234-0.011c0.863-0.159,1.684-0.424,2.4-0.952
			c0.617-0.454,1.105-1.014,1.469-1.687c0.465-0.863,0.693-1.796,0.799-2.766C2482.8,2028.388,2482.798,2028.179,2482.78,2027.968z
			 M2480.755,2028.589c-0.057,1.078-0.309,2.096-1.039,2.928c-0.635,0.72-1.439,1.062-2.408,0.945
			c-0.812-0.099-1.385-0.61-1.467-1.436c-0.139-1.391,0.211-2.654,1.229-3.66c0.598-0.592,1.355-0.839,2.203-0.718
			c0.889,0.128,1.424,0.726,1.48,1.626C2480.759,2028.379,2480.755,2028.483,2480.755,2028.589z"/>
		<path fill-rule="evenodd" clip-rule="evenodd" fill="#E6E6E6" d="M2458.458,2025.412c-0.104,0.435-0.217,0.87-0.301,1.308
			c-0.029,0.152-0.09,0.172-0.219,0.172c-1.406-0.004-2.814,0.001-4.223-0.007c-0.164-0.001-0.238,0.047-0.27,0.208
			c-0.088,0.457-0.174,0.917-0.291,1.369c-0.049,0.19,0.023,0.188,0.164,0.188c1.277-0.003,2.551,0.003,3.826-0.006
			c0.186-0.002,0.211,0.046,0.172,0.211c-0.092,0.377-0.172,0.759-0.25,1.141c-0.025,0.119-0.08,0.146-0.195,0.146
			c-1.297-0.004-2.59,0.002-3.887-0.009c-0.17-0.001-0.219,0.061-0.248,0.207c-0.137,0.651-0.281,1.305-0.426,1.973
			c0.09,0,0.174,0,0.258,0c1.453,0,2.908,0.004,4.359-0.002c0.17-0.002,0.211,0.029,0.162,0.208c-0.1,0.375-0.172,0.759-0.25,1.14
			c-0.023,0.104-0.064,0.149-0.182,0.149c-2.131-0.004-4.262-0.003-6.391-0.003c-0.025,0-0.051-0.005-0.086-0.008
			c0.197-0.869,0.408-1.733,0.584-2.602c0.164-0.816,0.354-1.623,0.521-2.438c0.16-0.773,0.346-1.545,0.512-2.32
			c0.07-0.329,0.137-0.663,0.229-0.987c0.033-0.083,0.105-0.065,0.17-0.065c2.051-0.001,4.1-0.001,6.148,0
			C2458.386,2025.384,2458.429,2025.373,2458.458,2025.412z"/>
		<path fill-rule="evenodd" clip-rule="evenodd" fill="#E6E6E6" d="M2466.122,2025.52c-0.094,0.398-0.201,0.793-0.273,1.194
			c-0.029,0.15-0.082,0.178-0.215,0.178c-0.764-0.005-1.527-0.001-2.291-0.005c-0.117,0-0.168,0.011-0.201,0.156
			c-0.436,2.017-0.883,4.03-1.328,6.045c-0.043,0.196-0.082,0.394-0.125,0.589c-0.02,0.083-0.053,0.131-0.156,0.13
			c-0.514-0.007-1.027-0.011-1.539,0.001c-0.162,0.003-0.154-0.085-0.137-0.177c0.076-0.363,0.164-0.723,0.242-1.085
			c0.127-0.586,0.266-1.169,0.381-1.757c0.109-0.556,0.258-1.104,0.381-1.657c0.102-0.455,0.188-0.912,0.287-1.368
			c0.057-0.253,0.105-0.509,0.17-0.758c0.051-0.193-0.076-0.113-0.127-0.113c-0.711-0.005-1.422-0.003-2.133-0.003
			c-0.312,0-0.322-0.003-0.264-0.309c0.076-0.393,0.172-0.782,0.26-1.172c0.057-0.048,0.127-0.025,0.189-0.025
			c2.229-0.001,4.455-0.001,6.684,0.002C2466.007,2025.386,2466.171,2025.312,2466.122,2025.52z"/>
		<path fill-rule="evenodd" clip-rule="evenodd" fill="#E6E6E6" d="M2429.726,2025.413c-0.145,0.632-0.291,1.266-0.432,1.897
			c-0.354,1.595-0.709,3.191-1.062,4.787c-0.111,0.508-0.217,1.016-0.322,1.524c-0.023,0.129-0.072,0.189-0.227,0.187
			c-0.545-0.013-1.09-0.005-1.652-0.005c0.186-0.812,0.375-1.611,0.545-2.416c0.164-0.774,0.35-1.547,0.51-2.322
			c0.166-0.814,0.361-1.621,0.523-2.438c0.076-0.391,0.162-0.785,0.27-1.172c0.014-0.066,0.064-0.073,0.117-0.073
			c0.562,0.001,1.121-0.002,1.682,0.001C2429.7,2025.385,2429.71,2025.401,2429.726,2025.413z"/>
		<path fill-rule="evenodd" clip-rule="evenodd" fill="#E6E6E6" d="M2473.505,2027.022c-0.102-0.687-0.447-1.182-1.109-1.434
			c-0.371-0.139-0.76-0.178-1.148-0.195c-0.027-0.008-0.051-0.011-0.078-0.011c-1.404,0-2.809,0-4.213,0.001
			c-0.043,0-0.094-0.019-0.125,0.031c-0.098,0.428-0.191,0.858-0.283,1.288c-0.141,0.678-0.33,1.346-0.463,2.024
			c-0.137,0.706-0.311,1.403-0.453,2.107c-0.104,0.499-0.23,0.994-0.34,1.492c-0.098,0.441-0.166,0.891-0.283,1.326
			c-0.039,0.147-0.02,0.151,0.102,0.151c0.506-0.002,1.012-0.002,1.518,0c0.096,0,0.143-0.006,0.168-0.127
			c0.146-0.704,0.305-1.407,0.467-2.108c0.08-0.346,0.123-0.701,0.248-1.037c0.633-0.035,1.266-0.027,1.896-0.004
			c0.24-0.035,0.473,0.027,0.701,0.082c0.096,0.022,0.201,0.063,0.283,0.146c0.242,0.244,0.197,0.545,0.146,0.825
			c-0.107,0.568-0.26,1.131-0.283,1.715c-0.021,0.131-0.021,0.263-0.002,0.394c0.006,0.071,0.023,0.117,0.115,0.116
			c0.6-0.004,1.195-0.005,1.795,0.001c0.084,0,0.115-0.041,0.137-0.103c0.023-0.068,0.02-0.129-0.057-0.165
			c-0.084-0.04-0.127-0.108-0.127-0.201c-0.037-0.112-0.025-0.224-0.006-0.335c0-0.025-0.006-0.053-0.002-0.076
			c0.109-0.575,0.219-1.149,0.328-1.724c0.021-0.197,0.021-0.393,0-0.59c-0.066-0.327-0.24-0.57-0.543-0.72
			c-0.049-0.024-0.131-0.038-0.131-0.105c0.002-0.082,0.094-0.08,0.146-0.1c0.35-0.132,0.621-0.368,0.877-0.629
			c0.404-0.416,0.605-0.932,0.717-1.487C2473.526,2027.389,2473.522,2027.204,2473.505,2027.022z M2471.429,2027.967
			c-0.158,0.636-0.574,1.002-1.238,1.056c-0.807,0.067-1.617,0.015-2.426,0.029c-0.084,0.001-0.113-0.016-0.09-0.113
			c0.152-0.672,0.303-1.345,0.443-2.019c0.023-0.111,0.082-0.114,0.164-0.114c0.396,0.002,0.791,0.001,1.186,0.001
			c0,0.001,0,0.003,0,0.004c0.361,0,0.723-0.007,1.084,0.003C2471.276,2026.832,2471.603,2027.269,2471.429,2027.967z"/>
	</g>
</g>
<g>
	<g>
		<g>
			<g>
				<path fill="#333333" d="M-1383.571-1085.83c6.236,0,11.338,4.404,11.338,9.787s-5.103,9.787-11.338,9.787h-107.641
					c-6.236,0-11.338-4.404-11.338-9.787s5.103-9.787,11.338-9.787H-1383.571z"/>
				<path fill="none" stroke="#5A5A5A" stroke-width="2" stroke-miterlimit="10" d="M-1383.571-1085.83
					c6.236,0,11.338,4.404,11.338,9.787s-5.103,9.787-11.338,9.787h-107.641c-6.236,0-11.338-4.404-11.338-9.787
					s5.103-9.787,11.338-9.787H-1383.571z"/>
			</g>
			<path fill="#333333" stroke="#5A5A5A" stroke-width="2" stroke-miterlimit="10" d="M-1646.054-1234.034
				c-0.155,0.604-0.282,2.591-0.282,4.416s-0.934,3.317-2.074,3.317s-2.357,0.127-2.704,0.282s-0.631,6.081-0.631,12.317v372.144
				c0,6.236,0.127,11.623,0.282,11.97c0.156,0.347,6.082,0.631,12.318,0.631h103.48c6.236,0,11.622-0.127,11.969-0.282
				c0.347-0.156,0.631-6.082,0.631-12.318v-189.315c0-6.236,5.103-11.338,11.339-11.338h40.189c6.236,0,11.623-0.127,11.97-0.283
				s0.631-6.082,0.631-12.317v-12.984c0-6.236,5.103-11.338,11.339-11.338h64.025c6.236,0,11.339-4.404,11.339-9.786
				s-5.103-9.786-11.339-9.786h-64.025c-6.236,0-11.339-2.324-11.339-5.164s-0.127-5.448-0.282-5.795s-6.082-0.631-12.318-0.631
				h-40.189c-6.236,0-11.339-5.103-11.339-11.338v-92.067c0-6.236-0.127-11.622-0.282-11.969s-3.563-0.63-6.723-0.63
				s-5.743-1.493-5.743-3.317s-0.127-3.812-0.283-4.416c-0.155-0.604-6.081-1.098-12.317-1.098h-85.323
				C-1639.973-1235.132-1645.898-1234.638-1646.054-1234.034z"/>
		</g>
		<g>
			<path fill="#333333" stroke="#5A5A5A" stroke-width="2" stroke-miterlimit="10" d="M-2087.373-673.207
				c0,0.559,0.453,1.013,1.012,1.013h252.636c0.559,0,1.012-0.454,1.012-1.013v-91.729c0-0.559-0.453-1.012-1.012-1.012h-252.636
				c-0.559,0-1.012,0.453-1.012,1.012V-673.207z"/>
			<circle fill="#5D5D5D" stroke="#5A5A5A" stroke-width="2" stroke-miterlimit="10" cx="-1958.872" cy="-730.675" r="11.509"/>
			<circle fill="#5D5D5D" stroke="#5A5A5A" stroke-width="2" stroke-miterlimit="10" cx="-1915.402" cy="-707.534" r="11.509"/>
			<circle fill="#5D5D5D" stroke="#5A5A5A" stroke-width="2" stroke-miterlimit="10" cx="-2001.704" cy="-707.534" r="11.509"/>
			<g>
				<path fill="none" stroke="#5A5A5A" stroke-width="2" stroke-miterlimit="10" d="M-1997.373-679.333
					c-6.236,0-15.291-3.228-20.122-7.171l-31.102-25.396c-4.831-3.943-4.831-10.397,0-14.342l31.102-25.394
					c4.831-3.944,13.886-7.171,20.122-7.171h74.659c6.236,0,15.291,3.227,20.121,7.171l31.103,25.394
					c4.831,3.944,4.831,10.398,0,14.342l-31.103,25.396c-4.831,3.943-13.885,7.171-20.121,7.171H-1997.373z"/>
			</g>
		</g>
		<g>
			<path fill="#333333" stroke="#5A5A5A" stroke-width="2" stroke-miterlimit="10" d="M-1845.369-1214.752c0,1.104-0.896,2-2,2
				h-223.105c-1.104,0-2-0.896-2-2v-18.156c0-1.104,0.896-2,2-2h223.105c1.104,0,2,0.896,2,2V-1214.752z"/>
			<path fill="#333333" stroke="#5A5A5A" stroke-width="2" stroke-miterlimit="10" d="M-1829.369-830.989
				c0,1.123-0.646,2.031-1.441,2.031h-253.188c-0.796,0-1.441-0.908-1.441-2.031v-388.337c0-1.122,0.646-2.031,1.441-2.031h253.188
				c0.796,0,1.441,0.91,1.441,2.031V-830.989z"/>
			<path fill="none" stroke="#5A5A5A" stroke-width="2" stroke-miterlimit="10" d="M-1925.999-981.446
				c-6.995,0-13.37,2.848-17.949,7.458l-8.378,8.375l0.004,0.003l-23.072,23.088c-3.436,3.436-8.217,5.587-13.478,5.587
				c-10.507,0-19.034-8.558-19.034-19.065c0-10.508,8.558-19.065,19.034-19.065c4.226,0,8.12,1.369,11.287,3.703l1.421,1.322
				c0.03,0.123,0.041,0.255,0.023,0.371l-0.983,6.688c-0.037,0.251,0.08,0.606,0.261,0.787l2.338,2.338
				c0.181,0.181,0.476,0.181,0.656,0l0.982-0.982c0.181-0.18,0.476-0.18,0.657,0l2.583,2.583c0.181,0.181,0.475,0.477,0.656,0.657
				l0.014,0.014c0.181,0.181,0.476,0.477,0.657,0.656l0.437,0.438c0.029,0.029,0.064,0.052,0.099,0.073
				c0.057,0.035,0.118,0.056,0.182,0.065l-0.003,0.003c0.012,0.001,0.024,0,0.036,0c0.024,0.001,0.05,0.001,0.074-0.001
				c0.501-0.012,0.999-0.206,1.38-0.587c0.385-0.383,0.592-0.895,0.588-1.391c0.002-0.025,0.001-0.051-0.001-0.077
				c0-0.007,0.001-0.015,0-0.023l-0.001,0.002c-0.014-0.098-0.056-0.192-0.13-0.267l-0.437-0.437
				c-0.088-0.088-0.203-0.203-0.318-0.318l-0.003,0.002c-0.126-0.125-0.255-0.254-0.352-0.35l-0.014-0.014
				c-0.18-0.181-0.476-0.476-0.656-0.657l-2.583-2.583c-0.181-0.18-0.181-0.477,0-0.656l1.02-1.021c0.181-0.181,0.476-0.181,0.657,0
				l3.214,3.215c0.181,0.181,0.475,0.475,0.656,0.656l0.014,0.014c0.181,0.181,0.476,0.476,0.657,0.656l0.437,0.438
				c0.075,0.074,0.169,0.117,0.267,0.128l-0.004,0.005c0.012,0,0.023-0.001,0.035-0.001c0.025,0.001,0.05,0.001,0.075-0.001
				c0.501-0.012,0.998-0.204,1.38-0.586c0.384-0.384,0.591-0.895,0.588-1.391c0.002-0.024,0.002-0.05,0-0.075
				c0-0.008,0-0.016,0-0.024l-0.002,0.002c-0.013-0.098-0.055-0.191-0.13-0.267l-0.437-0.437c-0.181-0.181-0.476-0.477-0.656-0.656
				l-3.885-3.885c-0.181-0.181-0.181-0.476,0-0.656l1.019-1.019c0.181-0.182,0.475-0.182,0.656,0l2.583,2.583
				c0.18,0.18,0.475,0.475,0.656,0.656l0.014,0.014c0.096,0.096,0.224,0.224,0.352,0.351c0.111,0.111,0.22,0.22,0.305,0.306
				l0.012,0.01l0.426,0.427l0.012,0.012c0.074,0.075,0.169,0.117,0.267,0.13l-0.005,0.003c0.013,0.001,0.024-0.001,0.036-0.001
				c0.025,0.002,0.05,0.002,0.075-0.001c0.5-0.01,0.998-0.203,1.379-0.585c0.385-0.384,0.592-0.896,0.589-1.392
				c0.002-0.024,0.002-0.05,0-0.074c0-0.008,0-0.017,0-0.024l-0.002,0.002c-0.013-0.097-0.054-0.192-0.13-0.267l-0.011-0.012
				l-0.426-0.426l-0.013-0.01c-0.084-0.086-0.193-0.195-0.305-0.308c-0.126-0.126-0.255-0.253-0.352-0.35l-0.014-0.014
				c-0.181-0.181-0.477-0.477-0.656-0.657l-2.582-2.583c-0.181-0.181-0.181-0.475,0-0.656l0.981-0.982
				c0.18-0.181,0.18-0.477,0-0.657l-2.338-2.338c-0.181-0.181-0.534-0.299-0.787-0.261l-6.69,0.985
				c-0.116,0.017-0.253,0.012-0.385-0.011l-1.572-1.172c-4.342-3.454-9.821-5.515-15.771-5.515
				c-14.005,0-25.379,11.405-25.379,25.409c0,14.005,11.405,25.41,25.378,25.41c6.995,0,13.37-2.847,17.951-7.459l24.987-24.98
				l-0.008-0.016l6.464-6.469c3.436-3.436,8.216-5.587,13.478-5.586c10.508-0.001,19.035,8.558,19.035,19.065
				c0,10.507-8.558,19.064-19.035,19.064c-5.261,0-10.012-2.121-13.478-5.587l-1.68-1.64l-1.252-1.493
				c-0.037-0.176-0.052-0.342-0.052-0.342l-0.658-8.328c0.037-0.254-0.08-0.608-0.261-0.79l-2.338-2.336
				c-0.181-0.182-0.477-0.182-0.657,0l-12.599,12.599c-0.181,0.181-0.181,0.477-0.001,0.657l2.338,2.339
				c0.18,0.181,0.535,0.299,0.787,0.261l8.332,0.656c0,0,0.173,0.008,0.36,0.034l1.486,1.259l1.663,1.611
				c4.61,4.612,10.954,7.46,17.949,7.46c14.005,0,25.378-11.405,25.378-25.41C-1900.621-970.042-1912.025-981.446-1925.999-981.446z
				"/>
		</g>
		<g>
			<g>
				
					<line fill="none" stroke="#5A5A5A" stroke-width="2" stroke-miterlimit="10" x1="-2104.122" y1="-763.661" x2="-2104.122" y2="-674.48"/>
				<g>
					<polygon fill="#5A5A5A" points="-2107.513,-759.677 -2104.122,-763.07 -2100.731,-759.677 -2100.731,-762.556 
						-2104.122,-765.947 -2107.513,-762.556 					"/>
				</g>
				<g>
					<polygon fill="#5A5A5A" points="-2107.513,-678.463 -2104.122,-675.071 -2100.731,-678.463 -2100.731,-675.584 
						-2104.122,-672.194 -2107.513,-675.584 					"/>
				</g>
			</g>
		</g>
		<g>
			<g>
				
					<line fill="none" stroke="#5A5A5A" stroke-width="2" stroke-miterlimit="10" x1="-2134.09" y1="-1232.622" x2="-2134.09" y2="-1223.644"/>
				<g>
					<polygon fill="#5A5A5A" points="-2137.48,-1228.639 -2134.09,-1232.031 -2130.699,-1228.639 -2130.699,-1231.518 
						-2134.09,-1234.908 -2137.48,-1231.518 					"/>
				</g>
				<g>
					<polygon fill="#5A5A5A" points="-2137.48,-1227.627 -2134.09,-1224.234 -2130.699,-1227.627 -2130.699,-1224.748 
						-2134.09,-1221.357 -2137.48,-1224.748 					"/>
				</g>
			</g>
		</g>
		<g>
			<g>
				
					<line fill="none" stroke="#5A5A5A" stroke-width="2" stroke-miterlimit="10" x1="-2113.36" y1="-1219.071" x2="-2113.36" y2="-831.244"/>
				<g>
					<polygon fill="#5A5A5A" points="-2116.75,-1215.088 -2113.36,-1218.48 -2109.969,-1215.088 -2109.969,-1217.967 
						-2113.36,-1221.357 -2116.75,-1217.967 					"/>
				</g>
				<g>
					<polygon fill="#5A5A5A" points="-2116.75,-835.227 -2113.36,-831.834 -2109.969,-835.227 -2109.969,-832.348 
						-2113.36,-828.958 -2116.75,-832.348 					"/>
				</g>
			</g>
		</g>
		<g>
			<g>
				
					<line fill="none" stroke="#5A5A5A" stroke-width="2" stroke-miterlimit="10" x1="-2085.087" y1="-780.433" x2="-1834.999" y2="-780.433"/>
				<g>
					<polygon fill="#5A5A5A" points="-2081.104,-777.042 -2084.496,-780.433 -2081.104,-783.824 -2083.982,-783.824 
						-2087.373,-780.433 -2083.982,-777.042 					"/>
				</g>
				<g>
					<polygon fill="#5A5A5A" points="-1838.982,-777.042 -1835.59,-780.433 -1838.982,-783.824 -1836.104,-783.824 
						-1832.713,-780.433 -1836.104,-777.042 					"/>
				</g>
			</g>
		</g>
		<g>
			<g>
				
					<line fill="none" stroke="#5A5A5A" stroke-width="2" stroke-miterlimit="10" x1="-2083.153" y1="-1261.519" x2="-1831.655" y2="-1261.519"/>
				<g>
					<polygon fill="#5A5A5A" points="-2079.17,-1258.128 -2082.562,-1261.519 -2079.17,-1264.91 -2082.049,-1264.91 
						-2085.439,-1261.519 -2082.049,-1258.128 					"/>
				</g>
				<g>
					<polygon fill="#5A5A5A" points="-1835.639,-1258.128 -1832.246,-1261.519 -1835.639,-1264.91 -1832.76,-1264.91 
						-1829.369,-1261.519 -1832.76,-1258.128 					"/>
				</g>
			</g>
		</g>
		<g>
			<g>
				
					<line fill="none" stroke="#5A5A5A" stroke-width="2" stroke-miterlimit="10" x1="-1649.459" y1="-1261.518" x2="-1525.996" y2="-1261.518"/>
				<g>
					<polygon fill="#5A5A5A" points="-1645.476,-1258.127 -1648.868,-1261.518 -1645.476,-1264.909 -1648.354,-1264.909 
						-1651.745,-1261.518 -1648.354,-1258.127 					"/>
				</g>
				<g>
					<polygon fill="#5A5A5A" points="-1529.979,-1258.127 -1526.587,-1261.518 -1529.979,-1264.909 -1527.101,-1264.909 
						-1523.71,-1261.518 -1527.101,-1258.127 					"/>
				</g>
			</g>
		</g>
		<g>
			<g>
				
					<line fill="none" stroke="#5A5A5A" stroke-width="2" stroke-miterlimit="10" x1="-1517.002" y1="-1142.685" x2="-1462.434" y2="-1142.685"/>
				<g>
					<polygon fill="#5A5A5A" points="-1513.019,-1139.294 -1516.411,-1142.685 -1513.019,-1146.076 -1515.897,-1146.076 
						-1519.288,-1142.685 -1515.897,-1139.294 					"/>
				</g>
				<g>
					<polygon fill="#5A5A5A" points="-1466.417,-1139.294 -1463.024,-1142.685 -1466.417,-1146.076 -1463.538,-1146.076 
						-1460.147,-1142.685 -1463.538,-1139.294 					"/>
				</g>
			</g>
		</g>
		<g>
			<g>
				
					<line fill="none" stroke="#5A5A5A" stroke-width="2" stroke-miterlimit="10" x1="-1452.363" y1="-1118.465" x2="-1374.519" y2="-1118.465"/>
				<g>
					<polygon fill="#5A5A5A" points="-1448.379,-1115.075 -1451.772,-1118.465 -1448.379,-1121.856 -1451.258,-1121.856 
						-1454.649,-1118.465 -1451.258,-1115.075 					"/>
				</g>
				<g>
					<polygon fill="#5A5A5A" points="-1378.502,-1115.075 -1375.109,-1118.465 -1378.502,-1121.856 -1375.623,-1121.856 
						-1372.232,-1118.465 -1375.623,-1115.075 					"/>
				</g>
			</g>
		</g>
	</g>
	<g>
		<rect x="-2002.442" y="-1282.207" fill="#333333" width="87.04" height="39.375"/>
		
			<text transform="matrix(0.583 0 0 0.583 -1978.0898 -1258.0933)" fill="#FFFFFF" font-family="'MyriadPro-Regular'" font-size="22.6278">59 mm</text>
	</g>
	<g>
		<rect x="-2131.222" y="-1064.641" fill="#333333" width="35.725" height="78.973"/>
		
			<text transform="matrix(-2.548374e-08 0.583 -0.583 -2.548374e-08 -2117.3784 -1043.8145)" fill="#FFFFFF" font-family="'MyriadPro-Regular'" font-size="20.5307">89  mm</text>
	</g>
	<g>
		<rect x="-1610.807" y="-1272.96" fill="#333333" width="46.159" height="20.881"/>
		
			<text transform="matrix(0.583 0 0 0.583 -1597.8926 -1260.1719)" fill="#FFFFFF" font-family="'MyriadPro-Regular'" font-size="12">29 mm</text>
	</g>
	<g>
		<rect x="-1504.582" y="-1153.126" fill="#333333" width="32.854" height="20.881"/>
		
			<text transform="matrix(0.583 0 0 0.583 -1498.0576 -1140.3379)" fill="#FFFFFF" font-family="'MyriadPro-Regular'" font-size="12">13 mm</text>
	</g>
	<g>
		<rect x="-1431.332" y="-1128.906" fill="#333333" width="32.854" height="20.881"/>
		
			<text transform="matrix(0.583 0 0 0.583 -1424.8076 -1116.1182)" fill="#FFFFFF" font-family="'MyriadPro-Regular'" font-size="12">14 mm</text>
	</g>
</g>
<path fill="#FFFFFF" d="M979.415-1058.8c-11.14,0-21.294,4.535-28.59,11.88l-13.341,13.336l0.007,0.007l-36.745,36.771
	c-5.472,5.471-13.087,8.897-21.467,8.897c-16.734,0-30.314-13.629-30.314-30.364c0-16.734,13.629-30.363,30.314-30.363
	c6.729,0,12.934,2.18,17.977,5.896l2.263,2.107c0.048,0.196,0.065,0.405,0.038,0.59l-1.565,10.651
	c-0.06,0.402,0.128,0.967,0.415,1.254l3.724,3.723c0.287,0.288,0.758,0.288,1.046,0l1.562-1.563c0.288-0.287,0.758-0.288,1.046,0
	l4.113,4.114c0.288,0.287,0.758,0.757,1.046,1.045l0.022,0.022c0.288,0.288,0.758,0.759,1.046,1.046l0.696,0.696
	c0.047,0.047,0.101,0.084,0.156,0.116c0.09,0.055,0.188,0.091,0.291,0.105l-0.006,0.006c0.02,0,0.038-0.001,0.057-0.001
	c0.04,0.002,0.08,0.001,0.119-0.002c0.799-0.018,1.59-0.325,2.198-0.933c0.612-0.612,0.942-1.426,0.938-2.216
	c0.003-0.04,0.003-0.08-0.001-0.12c-0.001-0.013,0.001-0.025,0-0.038l-0.003,0.003c-0.021-0.156-0.088-0.305-0.207-0.424
	l-0.696-0.697c-0.14-0.139-0.322-0.321-0.505-0.505l-0.006,0.005c-0.201-0.201-0.405-0.405-0.558-0.558l-0.022-0.023
	c-0.288-0.287-0.759-0.757-1.046-1.045l-4.114-4.113c-0.287-0.288-0.287-0.758,0-1.045l1.626-1.625c0.287-0.288,0.757-0.288,1.045,0
	l5.12,5.12c0.288,0.288,0.758,0.758,1.045,1.045l0.022,0.022c0.288,0.288,0.759,0.758,1.046,1.046l0.697,0.697
	c0.118,0.118,0.269,0.186,0.424,0.206l-0.006,0.005c0.019,0.001,0.037,0,0.057,0c0.039,0.002,0.079,0.001,0.118-0.002
	c0.8-0.018,1.591-0.325,2.199-0.933c0.611-0.612,0.942-1.426,0.938-2.216c0.003-0.04,0.002-0.08-0.001-0.12
	c-0.001-0.013,0.001-0.025-0.001-0.038l-0.002,0.003c-0.021-0.155-0.088-0.305-0.207-0.424l-0.696-0.697
	c-0.288-0.288-0.759-0.758-1.046-1.045l-6.188-6.188c-0.288-0.288-0.288-0.758,0-1.046l1.623-1.623c0.287-0.288,0.758-0.288,1.046,0
	l4.112,4.114c0.288,0.287,0.759,0.757,1.046,1.045l0.022,0.022c0.152,0.153,0.357,0.357,0.559,0.559
	c0.178,0.177,0.353,0.352,0.487,0.487l0.018,0.019l0.679,0.678l0.02,0.019c0.118,0.119,0.269,0.186,0.424,0.207l-0.006,0.006
	c0.019,0,0.037-0.001,0.056-0.001c0.04,0.002,0.08,0.001,0.12-0.002c0.797-0.018,1.589-0.325,2.198-0.933
	c0.611-0.613,0.942-1.426,0.938-2.217c0.003-0.04,0.002-0.08-0.001-0.119c-0.001-0.013,0-0.026,0-0.039l-0.004,0.003
	c-0.021-0.155-0.087-0.305-0.206-0.424l-0.019-0.02l-0.679-0.678l-0.019-0.018c-0.135-0.135-0.31-0.31-0.486-0.487
	c-0.202-0.201-0.406-0.405-0.56-0.558l-0.021-0.023c-0.288-0.287-0.759-0.757-1.046-1.045l-4.113-4.114
	c-0.287-0.288-0.287-0.758,0-1.045l1.563-1.563c0.288-0.288,0.288-0.758,0-1.046l-3.723-3.725c-0.287-0.288-0.852-0.476-1.254-0.416
	l-10.655,1.57c-0.184,0.027-0.402,0.019-0.612-0.016l-2.503-1.867c-6.916-5.501-15.643-8.784-25.118-8.784
	c-22.306,0-40.42,18.164-40.421,40.468c0.001,22.305,18.165,40.469,40.42,40.469c11.141,0,21.294-4.535,28.59-11.88l39.797-39.786
	l-0.013-0.026l10.295-10.302c5.472-5.472,13.087-8.898,21.467-8.897c16.734,0,30.313,13.629,30.314,30.364
	c0,16.734-13.63,30.363-30.314,30.363c-8.38,0-15.946-3.377-21.467-8.897l-2.676-2.612l-1.993-2.377
	c-0.059-0.282-0.083-0.545-0.083-0.545l-1.049-13.265c0.06-0.402-0.127-0.967-0.415-1.254l-3.724-3.724
	c-0.287-0.288-0.758-0.288-1.046,0l-20.068,20.068c-0.288,0.288-0.288,0.758,0,1.046l3.723,3.725
	c0.287,0.288,0.852,0.475,1.254,0.416l13.27,1.044c0,0,0.274,0.013,0.573,0.054l2.367,2.004l2.646,2.568
	c7.345,7.345,17.45,11.879,28.59,11.879c22.305,0,40.419-18.164,40.419-40.468C1019.834-1040.636,1001.67-1058.8,979.415-1058.8z"/>
<text transform="matrix(1 0 0 1 841.1113 -940.0771)" fill="#FFFFFF" font-family="'HelveticaNeue-Light'" font-size="30.5911">SAV</text>
<text transform="matrix(1 0 0 1 897.7969 -940.0771)" fill="#FFFFFF" font-family="'HelveticaNeue-Light'" font-size="30.5911">ENERGY</text>
</svg>
