<?xml version="1.0" encoding="utf-8"?>
<!-- Generator: Adobe Illustrator 16.0.0, SVG Export Plug-In . SVG Version: 6.00 Build 0)  -->
<!DOCTYPE svg PUBLIC "-//W3C//DTD SVG 1.1//EN" "http://www.w3.org/Graphics/SVG/1.1/DTD/svg11.dtd">
<svg version="1.1" id="Layer_1" xmlns="http://www.w3.org/2000/svg" xmlns:xlink="http://www.w3.org/1999/xlink" x="0px" y="0px"
	 width="813.1px" height="891.1px" viewBox="0 0 813.1 891.1" enable-background="new 0 0 813.1 891.1" xml:space="preserve">
<image display="none" overflow="visible" width="942" height="1120" xlink:href="Screen Shot 2015-05-09 at 1.33.03 PM.png"  transform="matrix(0.5 0 0 0.5 171.0283 150)">
</image>
<g>
	<path fill="none" stroke="#FFFFFF" stroke-width="2" stroke-miterlimit="10" d="M-524.5,750.5c0,68.8-56.2,125-125,125h-532
		c-68.8,0-125-56.2-125-125v-610c0-68.8,56.2-125,125-125h532c68.8,0,125,56.2,125,125V750.5z"/>
</g>
<g>
	<path fill="none" stroke="#FFFFFF" stroke-width="2" stroke-miterlimit="10" d="M-550.7,758.8c0,48.3-39.5,87.9-87.9,87.9h-553.8
		c-48.3,0-87.9-39.5-87.9-87.9V132.3c0-48.3,39.5-87.9,87.9-87.9h553.8c48.3,0,87.9,39.5,87.9,87.9V758.8z"/>
</g>
<g>
	<text transform="matrix(1 0 0 1 -802.8125 214.541)" fill="#FFFFFF" font-family="'HelveticaNeue'" font-size="27.9267">SAVENERGY</text>
	<path fill="#FFFFFF" d="M-669,93.7c-11.2,0-21.4,4.6-28.7,11.9l-51.2,50.2c-5.5,5.5-13.1,8.9-21.5,8.9c-16.8,0-30.4-13.7-30.4-30.5
		c0-16.8,13.7-30.5,30.4-30.5c8.4,0,16,3.4,21.5,8.9l5.2,5.1c-0.8,1.9-1.3,4-1.3,6.3c0,4.2,1.7,8,4.5,10.8l21.5-21.5
		c-2.8-2.8-6.6-4.5-10.8-4.5c-2.5,0-4.8,0.6-6.8,1.7l-5-5c-7.4-7.4-17.5-11.9-28.7-11.9c-22.4,0-40.6,18.2-40.6,40.6
		c0,22.4,18.2,40.6,40.6,40.6c11.2,0,21.4-4.6,28.7-11.9l51.2-50.1c5.5-5.5,13.1-8.9,21.5-8.9c16.8,0,30.4,13.7,30.4,30.5
		c0,16.8-13.7,30.5-30.4,30.5c-6,0-11.5-1.7-16.2-4.7c0.6-1.7,1-3.5,1-5.4c0-4.2-1.7-8-4.5-10.8l-3.9,3.9l-10.1-10.1l-3.6,3.6
		l10.1,10.1l-6.6,6.6l-10.1-10.1l-3.6,3.6l10.1,10.1l-3.9,3.9c2.8,2.8,6.6,4.5,10.8,4.5c2.8,0,5.3-0.8,7.5-2
		c6.5,4.5,14.4,7.1,22.9,7.1c22.4,0,40.6-18.2,40.6-40.6C-628.4,112-646.6,93.7-669,93.7z"/>
</g>
<g>
	<path fill="none" stroke="#FFFFFF" stroke-width="2" stroke-miterlimit="10" d="M-1197.5,318.7c0,4.7-3.8,8.5-8.5,8.5h-1
		c-4.7,0-8.5-3.8-8.5-8.5v-46c0-4.7,3.8-8.5,8.5-8.5h1c4.7,0,8.5,3.8,8.5,8.5V318.7z"/>
</g>
<g>
	<path fill="#FFFFFF" d="M-1242.3,286.1v4.4c3.2,1.2,5.5,4.3,5.5,8c0,4.7-3.8,8.6-8.6,8.6s-8.6-3.8-8.6-8.6c0-3.6,2.3-6.7,5.5-8
		v-4.4c-5.5,1.4-9.6,6.4-9.6,12.3c0,7,5.7,12.7,12.7,12.7s12.7-5.7,12.7-12.7C-1232.7,292.5-1236.8,287.5-1242.3,286.1z"/>
	<rect x="-1247.5" y="284.1" fill="#FFFFFF" width="4.2" height="18.4"/>
</g>
<image overflow="visible" width="942" height="1120" xlink:href="Screen Shot 2015-05-09 at 1.33.03 PM.png"  transform="matrix(0.5 0 0 0.5 -1790 6)">
</image>
<image overflow="visible" width="1438" height="1096" xlink:href="Screen Shot 2015-05-09 at 1.55.56 PM.png"  transform="matrix(0.5 0 0 0.5 865 225)">
</image>
<g>
	<g>
		<path fill="#808080" d="M326.9,790.2c0,7.8-6.4,14.2-14.2,14.2h-14.1c-7.8,0-14.2-6.4-14.2-14.2V581.3c0-7.8,6.4-14.2,14.2-14.2
			h14.1c7.8,0,14.2,6.4,14.2,14.2V790.2z"/>
	</g>
	<g>
		<path fill="#808080" d="M507.2,790.2c0,7.8-6.4,14.2-14.2,14.2h-14.1c-7.8,0-14.2-6.4-14.2-14.2V581.3c0-7.8,6.4-14.2,14.2-14.2
			H493c7.8,0,14.2,6.4,14.2,14.2V790.2z"/>
	</g>
	<g>
		<path fill="#808080" d="M416.5,805.8c0,7.8-6.4,14.2-14.2,14.2h-14.1c-7.8,0-14.2-6.4-14.2-14.2V596.9c0-7.8,6.4-14.2,14.2-14.2
			h14.1c7.8,0,14.2,6.4,14.2,14.2V805.8z"/>
	</g>
	<polygon fill="#4D4D4D" points="219.6,609.6 289.6,641.7 305.1,645.9 482.3,645.9 502,642.8 566.7,614.8 	"/>
	<path fill="#FFFFFF" d="M738.1,306.3c-6.6-56.3-73.2-185.5-90.8-219.5c-5.6-10.9-17.6-14.7-43.8-14.7c-48.3,0-106-1-197-0.9
		c-91-0.1-164.2,0-212.5,0.9c-11.5,0.2-36.2-1.9-43.8,14.7C134.1,129.2,81.6,250,75,306.3c-8.3,70.1,3.7,213.2,4.8,282.5
		c0.2,15,35.1,33.1,50.1,33c60.1-0.5,166.9-0.6,274.8-0.5v0c0.6,0,1.2,0,1.9,0s1.2,0,1.9,0v0c107.9,0,214.7,0.1,274.8,0.5
		c15,0.1,49.9-18,50.1-33C734.3,519.5,746.4,376.4,738.1,306.3z"/>
	<g>
		<g>
			<path fill="#069BE9" d="M324.8,164c15.8,0,30.2-2.3,40.6-6.1l72.6-25.6c7.8-2.8,18.6-4.6,30.5-4.6c23.8,0,43.1,7,43.1,15.6
				c0,8.6-19.4,15.6-43.1,15.6c-11.9,0-22.6-1.7-30.5-4.6l-7.4-2.6c1.2-1,1.9-2.1,1.9-3.2c0-2.1-2.4-4.1-6.3-5.5l-30.5,11
				c3.9,1.4,9.3,2.3,15.2,2.3c3.5,0,6.8-0.3,9.7-0.8l7.2,2.5c10.4,3.8,24.8,6.1,40.6,6.1c31.7,0,57.4-9.3,57.4-20.7
				c0-11.4-25.8-20.7-57.4-20.7c-15.8,0-30.2,2.3-40.6,6.1l-72.5,25.6c-7.8,2.8-18.6,4.6-30.4,4.6c-23.8,0-43.1-7-43.1-15.6
				c0-8.6,19.4-15.6,43.1-15.6c8.5,0,16.3,0.9,23,2.4c-0.9,0.9-1.5,1.8-1.5,2.8c0,2.1,2.4,4.1,6.3,5.5l5.5-2l14.4,5.2l5.1-1.8
				l-14.4-5.2l9.3-3.4l14.4,5.2l5.1-1.8l-14.4-5.2l5.5-2c-3.9-1.4-9.3-2.3-15.2-2.3c-3.9,0-7.5,0.4-10.7,1
				c-9.2-2.3-20.4-3.6-32.4-3.6c-31.7,0-57.4,9.3-57.4,20.7C267.3,154.7,293.1,164,324.8,164z"/>
		</g>
	</g>
	<path fill="#808080" d="M79.5,577.5c0.1,3.9,0.2,7.7,0.2,11.2c0.2,15,35.1,33.1,50.1,33c60.1-0.5,166.9-0.6,274.8-0.5v0
		c0.6,0,1.2,0,1.9,0s1.2,0,1.9,0v0c107.9,0,214.7,0.1,274.8,0.5c15,0.1,49.9-18,50.1-33c0.1-3.6,0.1-7.3,0.2-11.2
		c0,0-22.5,20.7-54.6,20.7c-68.1,0-272.6,0-272.6,0H129.8C102.9,598.2,79.5,577.5,79.5,577.5z"/>
	<g>
		<defs>
			<rect id="SVGID_1_" x="253.9" y="382.2" width="305.2" height="89.2"/>
		</defs>
		<clipPath id="SVGID_2_">
			<use xlink:href="#SVGID_1_"  overflow="visible"/>
		</clipPath>
		<g clip-path="url(#SVGID_2_)">
			<g>
				<circle fill="#4D4D4D" cx="510.8" cy="435.2" r="24.9"/>
				<path fill="#1A1A1A" d="M510.8,452.4c-12.4,0-22.7-9.1-24.5-21c-0.2,1.3-0.3,2.5-0.3,3.9c0,13.7,11.1,24.9,24.9,24.9
					s24.9-11.1,24.9-24.9c0-1.3-0.1-2.6-0.3-3.9C533.4,443.3,523.2,452.4,510.8,452.4z"/>
			</g>
			<g>
				<circle fill="#4D4D4D" cx="406.5" cy="394.9" r="24.9"/>
				<path fill="#1A1A1A" d="M406.5,412.1c-12.4,0-22.7-9.1-24.5-21c-0.2,1.3-0.3,2.5-0.3,3.9c0,13.7,11.1,24.9,24.9,24.9
					s24.9-11.1,24.9-24.9c0-1.3-0.1-2.6-0.3-3.9C429.2,403,419,412.1,406.5,412.1z"/>
			</g>
			<g>
				<circle fill="#4D4D4D" cx="302" cy="435.2" r="24.9"/>
				<path fill="#1A1A1A" d="M302,452.4c-12.4,0-22.7-9.1-24.5-21c-0.2,1.3-0.3,2.5-0.3,3.9c0,13.7,11.1,24.9,24.9,24.9
					s24.9-11.1,24.9-24.9c0-1.3-0.1-2.6-0.3-3.9C324.7,443.3,314.4,452.4,302,452.4z"/>
			</g>
		</g>
	</g>
	<polygon fill="#B8B8B8" points="601.2,453.9 531.4,515.7 513.6,524.1 409.6,523.5 409.6,523.5 409.5,523.5 409.3,523.5 
		409.3,523.5 305.3,524.1 287.5,515.7 217.7,453.9 201,471.4 201,488.9 207.8,499.4 284.5,569.3 305,577.5 409.3,577.5 409.6,577.5 
		513.9,577.5 534.4,569.3 611.1,499.4 617.9,488.9 617.9,471.4 	"/>
	
		<line fill="none" stroke="#CCCCCC" stroke-width="0.75" stroke-linecap="round" stroke-miterlimit="10" x1="216.3" y1="322.3" x2="598.6" y2="322.3"/>
</g>
</svg>
