<?xml version="1.0" encoding="utf-8"?>
<!-- Generator: Adobe Illustrator 16.0.0, SVG Export Plug-In . SVG Version: 6.00 Build 0)  -->
<!DOCTYPE svg PUBLIC "-//W3C//DTD SVG 1.1//EN" "http://www.w3.org/Graphics/SVG/1.1/DTD/svg11.dtd">
<svg version="1.1" id="Layer_1" xmlns="http://www.w3.org/2000/svg" xmlns:xlink="http://www.w3.org/1999/xlink" x="0px" y="0px"
	 width="813.1px" height="891.1px" viewBox="0 0 813.1 891.1" enable-background="new 0 0 813.1 891.1" xml:space="preserve">
<image overflow="visible" enable-background="new    " width="942" height="1120" xlink:href="../../../../../../../Desktop/Screen Shot 2015-05-09 at 1.33.03 PM.png"  transform="matrix(0.5 0 0 0.5 -8130.0127 -8051.0127)">
</image>
<g>
	<path fill="none" stroke="#FFFFFF" stroke-width="2" stroke-miterlimit="10" d="M-524.5,750.5c0,68.8-56.2,125-125,125h-532
		c-68.8,0-125-56.2-125-125v-610c0-68.8,56.2-125,125-125h532c68.8,0,125,56.2,125,125V750.5z"/>
</g>
<g>
	<path fill="none" stroke="#FFFFFF" stroke-width="2" stroke-miterlimit="10" d="M-550.7,758.8c0,48.3-39.5,87.9-87.9,87.9h-553.8
		c-48.3,0-87.9-39.5-87.9-87.9V132.3c0-48.3,39.5-87.9,87.9-87.9h553.8c48.3,0,87.9,39.5,87.9,87.9V758.8z"/>
</g>
<g>
	<text transform="matrix(1 0 0 1 -802.8125 214.541)" fill="#FFFFFF" font-family="'HelveticaNeue'" font-size="27.9267">SAVENERGY</text>
	<path fill="#FFFFFF" d="M-669,93.7c-11.2,0-21.4,4.6-28.7,11.9l-51.2,50.2c-5.5,5.5-13.1,8.9-21.5,8.9c-16.8,0-30.4-13.7-30.4-30.5
		c0-16.8,13.7-30.5,30.4-30.5c8.4,0,16,3.4,21.5,8.9l5.2,5.1c-0.8,1.9-1.3,4-1.3,6.3c0,4.2,1.7,8,4.5,10.8l21.5-21.5
		c-2.8-2.8-6.6-4.5-10.8-4.5c-2.5,0-4.8,0.6-6.8,1.7l-5-5c-7.4-7.4-17.5-11.9-28.7-11.9c-22.4,0-40.6,18.2-40.6,40.6
		c0,22.4,18.2,40.6,40.6,40.6c11.2,0,21.4-4.6,28.7-11.9l51.2-50.1c5.5-5.5,13.1-8.9,21.5-8.9c16.8,0,30.4,13.7,30.4,30.5
		c0,16.8-13.7,30.5-30.4,30.5c-6,0-11.5-1.7-16.2-4.7c0.6-1.7,1-3.5,1-5.4c0-4.2-1.7-8-4.5-10.8l-3.9,3.9l-10.1-10.1l-3.6,3.6
		l10.1,10.1l-6.6,6.6l-10.1-10.1l-3.6,3.6l10.1,10.1l-3.9,3.9c2.8,2.8,6.6,4.5,10.8,4.5c2.8,0,5.3-0.8,7.5-2
		c6.5,4.5,14.4,7.1,22.9,7.1c22.4,0,40.6-18.2,40.6-40.6C-628.4,112-646.6,93.7-669,93.7z"/>
</g>
<g>
	<path fill="none" stroke="#FFFFFF" stroke-width="2" stroke-miterlimit="10" d="M-1197.5,318.7c0,4.7-3.8,8.5-8.5,8.5h-1
		c-4.7,0-8.5-3.8-8.5-8.5v-46c0-4.7,3.8-8.5,8.5-8.5h1c4.7,0,8.5,3.8,8.5,8.5V318.7z"/>
</g>
<g>
	<path fill="#FFFFFF" d="M-1242.3,286.1v4.4c3.2,1.2,5.5,4.3,5.5,8c0,4.7-3.8,8.6-8.6,8.6c-4.8,0-8.6-3.8-8.6-8.6
		c0-3.6,2.3-6.7,5.5-8v-4.4c-5.5,1.4-9.6,6.4-9.6,12.3c0,7,5.7,12.7,12.7,12.7s12.7-5.7,12.7-12.7
		C-1232.7,292.5-1236.8,287.5-1242.3,286.1z"/>
	<rect x="-1247.5" y="284.1" fill="#FFFFFF" width="4.2" height="18.4"/>
</g>
<image overflow="visible" enable-background="new    " width="942" height="1120" xlink:href="../../../../../../../Desktop/Screen Shot 2015-05-09 at 1.33.03 PM.png"  transform="matrix(0.5 0 0 0.5 -8130.0127 -8051.0127)">
</image>
<image overflow="visible" enable-background="new    " width="942" height="1120" xlink:href="../../../../../../../Desktop/Screen Shot 2015-05-09 at 1.33.03 PM.png"  transform="matrix(0.5 0 0 0.5 -8130.0127 -8051.0127)">
</image>
<g>
	<g>
		<path fill="#808080" d="M1912.157,186.6c0,7.801-6.4,14.2-14.201,14.2h-2.299c-7.801,0-14.201-6.399-14.201-14.2v-143
			c0-7.8,6.4-14.199,14.201-14.199h2.299c7.801,0,14.201,6.399,14.201,14.199V186.6z"/>
	</g>
	<g>
		<path fill="#808080" d="M2042.356,186.6c0,7.801-6.4,14.2-14.199,14.2h-2.301c-7.799,0-14.199-6.399-14.199-14.2v-143
			c0-7.8,6.4-14.199,14.199-14.199h2.301c7.799,0,14.199,6.399,14.199,14.199V186.6z"/>
	</g>
	<g>
		<path fill="#808080" d="M1976.856,197.8c0,7.8-6.4,14.2-14.199,14.2h-2.301c-7.799,0-14.199-6.4-14.199-14.2v-143
			c0-7.8,6.4-14.2,14.199-14.2h2.301c7.799,0,14.199,6.4,14.199,14.2V197.8z"/>
	</g>
	<polygon fill="#4D4D4D" points="1834.757,60 1885.257,83.2 1896.456,86.2 2024.356,86.2 2038.657,84 2085.356,63.8 	"/>
	<path fill="#FFFFFF" d="M2209.157-159c-4.801-40.7-52.9-134-65.6-158.6c-4-7.8-12.701-10.6-31.602-10.6
		c-34.898,0-76.5-0.7-142.199-0.6c-65.699-0.1-118.6,0-153.5,0.6c-8.301,0.2-26.2-1.3-31.6,10.6
		c-11.701,30.7-49.601,117.9-54.4,158.6c-6,50.7,2.699,154,3.5,204c0.199,10.8,25.4,23.9,36.199,23.8
		c43.4-0.3,120.5-0.399,198.5-0.399l0,0c0.4,0,0.9,0,1.301,0s0.9,0,1.301,0l0,0c77.898,0,155.1,0,198.5,0.399
		c10.799,0.101,36-13,36.199-23.8C2206.456-5.1,2215.157-108.4,2209.157-159z"/>
	<g>
		<g>
			<path fill="#069BE9" d="M1910.657-261.8c11.4,0,21.799-1.7,29.299-4.4l52.4-18.5c5.6-2,13.4-3.3,22-3.3
				c17.201,0,31.1,5,31.1,11.2c0,6.2-14,11.2-31.1,11.2c-8.6,0-16.4-1.3-22-3.3l-5.299-1.9c0.898-0.7,1.398-1.5,1.398-2.3
				c0-1.5-1.699-2.9-4.6-4l-22,7.9c2.801,1,6.701,1.6,11,1.6c2.5,0,4.9-0.2,7-0.6l5.201,1.8c7.5,2.7,17.898,4.4,29.299,4.4
				c22.9,0,41.5-6.7,41.5-15s-18.6-15-41.5-15c-11.4,0-21.799,1.7-29.299,4.4l-52.4,18.5c-5.6,2-13.4,3.3-22,3.3
				c-17.201,0-31.1-5-31.1-11.2s14-11.2,31.1-11.2c6.1,0,11.799,0.6,16.6,1.7c-0.6,0.6-1,1.3-1,2c0,1.5,1.699,2.9,4.6,4l4-1.4
				l10.4,3.7l3.699-1.3l-10.398-3.7l6.699-2.4l10.4,3.7l3.699-1.3l-10.4-3.7l4-1.4c-2.799-1-6.699-1.6-11-1.6
				c-2.799,0-5.398,0.3-7.699,0.7c-6.699-1.6-14.699-2.6-23.4-2.6c-22.9,0-41.5,6.7-41.5,15
				C1869.157-268.5,1887.757-261.8,1910.657-261.8z"/>
		</g>
	</g>
	<path fill="#808080" d="M1733.557,36.9c0.101,2.8,0.101,5.5,0.2,8.1c0.199,10.8,25.4,23.9,36.199,23.8
		c43.4-0.3,120.5-0.399,198.5-0.399l0,0c0.4,0,0.9,0,1.301,0s0.9,0,1.301,0l0,0c77.898,0,155.1,0,198.5,0.399
		c10.799,0.101,36-13,36.199-23.8c0-2.6,0.1-5.3,0.199-8.1c0,0-16.299,15-39.398,15c-49.201,0-196.9,0-196.9,0h-199.801
		C1750.356,51.8,1733.557,36.9,1733.557,36.9z"/>
	<g>
		<g>
			<defs>
				<rect id="SVGID_1_" x="1859.456" y="-104.2" width="220.5" height="64.4"/>
			</defs>
			<clipPath id="SVGID_2_">
				<use xlink:href="#SVGID_1_"  overflow="visible"/>
			</clipPath>
			<g clip-path="url(#SVGID_2_)">
				<g>
					<circle fill="#4D4D4D" cx="2044.956" cy="-65.9" r="18"/>
					<path fill="#1A1A1A" d="M2044.956-53.5c-9,0-16.398-6.6-17.699-15.2c-0.1,0.9-0.199,1.8-0.199,2.8c0,9.9,8,18,18,18
						c9.898,0,18-8,18-18c0-1-0.102-1.899-0.201-2.8C2061.356-60.1,2053.956-53.5,2044.956-53.5z"/>
				</g>
				<g>
					<circle fill="#4D4D4D" cx="1969.657" cy="-95" r="18"/>
					<path fill="#1A1A1A" d="M1969.657-82.6c-9,0-16.4-6.601-17.701-15.2c-0.1,0.9-0.199,1.8-0.199,2.8c0,9.9,8,18,18,18
						c9.9,0,18-8,18-18c0-1-0.1-1.9-0.199-2.8C1986.058-89.2,1978.657-82.6,1969.657-82.6z"/>
				</g>
				<g>
					<circle fill="#4D4D4D" cx="1894.157" cy="-65.9" r="18"/>
					<path fill="#1A1A1A" d="M1894.157-53.5c-9,0-16.4-6.6-17.701-15.2c-0.1,0.9-0.199,1.8-0.199,2.8c0,9.9,8,18,18,18
						c9.9,0,18-8,18-18c0-1-0.1-1.899-0.199-2.8C1910.558-60.1,1903.157-53.5,1894.157-53.5z"/>
				</g>
			</g>
		</g>
	</g>
	<polygon fill="#B8B8B8" points="2110.257,-52.4 2059.856,-7.8 2046.956,-1.7 1971.956,-2.1 1971.956,-2.1 1971.757,-2.1 
		1971.657,-2.1 1971.657,-2.1 1896.558,-1.7 1883.757,-7.8 1833.356,-52.4 1821.257,-39.8 1821.257,-27.2 1826.157,-19.6 
		1881.558,30.9 1896.356,36.9 1971.657,36.9 1971.956,36.9 2047.257,36.9 2062.058,30.9 2117.456,-19.6 2122.356,-27.2 
		2122.356,-39.8 	"/>
	
		<line fill="none" stroke="#CCCCCC" stroke-width="0.75" stroke-linecap="round" stroke-miterlimit="10" x1="1832.356" y1="-147.5" x2="2108.456" y2="-147.5"/>
</g>
<g>
	<g>
		<path fill="#808080" d="M347.419,704.436c0,6.236-5.103,11.339-11.338,11.339h-8.891c-6.236,0-11.338-5.103-11.338-11.339V550.973
			c0-6.236,5.103-11.339,11.338-11.339h8.891c6.236,0,11.338,5.103,11.338,11.339V704.436z"/>
	</g>
	<g>
		<path fill="#808080" d="M420.022,704.436c0,6.236-5.103,11.339-11.339,11.339h-6.996c-6.236,0-11.338-5.103-11.338-11.339V550.973
			c0-6.236,5.103-11.339,11.338-11.339h6.996c6.236,0,11.339,5.103,11.339,11.339V704.436z"/>
	</g>
	<g>
		<path fill="#808080" d="M475.579,683.602c0,6.236-5.103,11.339-11.339,11.339h-5.731c-6.236,0-11.339-5.103-11.339-11.339V542.135
			c0-6.236,5.103-11.339,11.339-11.339h5.731c6.236,0,11.339,5.103,11.339,11.339V683.602z"/>
	</g>
	<polygon fill="#4D4D4D" points="278.469,554.013 278.469,585.614 288.128,589.229 342.733,597.694 354.746,597.694 
		485.796,581.858 494.26,578.581 513.1,559.743 514.191,537.628 	"/>
	<path fill="#FFFFFF" d="M82.595,203.946c-0.661,43.45,2.666,184.252,2.666,184.252l178.573,167.539l67.802,4.391
		c0,0,279.07-33.82,370.333-42.432c16.065-1.516,14.967-22.27,14.967-22.27s9.023-159.594,13.647-210.558
		c0.189-2.088-2.959-5.971-4.875-6.824c-66.16-29.48-221-81.054-278.538-100.405c-10.746-3.614-45.305-1.915-45.305-1.915
		l-297.693,17.361C104.171,193.085,82.748,193.951,82.595,203.946z"/>
	<path fill="#B8B8B8" d="M585.575,344.851l29.217,29.668c0,0,3.02,6.661,2.249,13.485c-0.802,7.104-5.395,14.384-5.395,14.384
		l-49.896,57.538c0,0-3.464,2.078-6.881,4.129c-3.324,1.994-6.604,3.963-6.604,3.963L406.55,483.302l25.291,26.971
		c0,0,3.516,2.285,7.193,3.146c3.977,0.936,8.136,0.449,8.136,0.449l147.845-17.082c0,0,3.357-2.125,6.723-4.256
		c3.378-2.139,6.762-4.283,6.762-4.283l54.393-58.887c0,0,4.945-7.23,4.945-14.834c0-7.454-4.945-15.284-4.945-15.284l-46.3-51.694
		c0,0-3.151-2.962-6.293-4.045c-3.368-1.162-6.743-0.45-6.743-0.45L585.575,344.851z"/>
	<path fill="#B8B8B8" d="M708.677,503.155c-6.232,2.631-16.226,2.615-16.226,2.615s-2.525,2.549-5.286,4.922
		c-2.676,2.299-7.855,3.301-7.855,3.301l-322.602,38.918c0,0-4.857,0.043-8.83-2.516c-2.613-1.508-5.091-4.057-5.091-4.057
		l-49.113,2.736c0,0-7.002-0.43-17.346-2.736c-10.793-2.41-22.354-9.441-22.354-9.441L84.989,376.313l0.272,11.885l168.712,162.369
		c0,0,10.831,7.91,28.396,10.875c19.216,3.242,49.267,1.559,49.267,1.559l358.548-43.699c0,0,10.554,0.01,16.679-3.033
		c9.363-3.904,9.954-17.379,9.954-17.379l0.118-3.463C716.936,495.427,714.683,500.616,708.677,503.155z"/>
	<g>
		<defs>
			<polygon id="SVGID_3_" points="438.862,357.342 372.546,432.554 417.315,460.052 557.745,428.416 588.477,381.604 
				574.729,342.837 			"/>
		</defs>
		<clipPath id="SVGID_4_">
			<use xlink:href="#SVGID_3_"  overflow="visible"/>
		</clipPath>
		<circle clip-path="url(#SVGID_4_)" fill="#4D4D4D" cx="479.324" cy="369.164" r="17.95"/>
		<path clip-path="url(#SVGID_4_)" fill="#1A1A1A" d="M491.467,355.971c1.312,2.494,2.062,5.328,2.062,8.341
			c0,9.914-8.036,17.95-17.95,17.95c-4.689,0-8.944-1.812-12.143-4.758c3.004,5.711,8.986,9.61,15.888,9.61
			c9.914,0,17.95-8.037,17.95-17.951C497.274,363.94,495.029,359.252,491.467,355.971z"/>
		<circle clip-path="url(#SVGID_4_)" fill="#4D4D4D" cx="550.438" cy="394.264" r="17.95"/>
		<path clip-path="url(#SVGID_4_)" fill="#1A1A1A" d="M555.109,376.949c4.159,3.287,6.837,8.367,6.837,14.08
			c0,9.914-8.035,17.95-17.949,17.95c-1.618,0-3.179-0.234-4.67-0.636c3.057,2.417,6.911,3.871,11.112,3.871
			c9.913,0,17.949-8.037,17.949-17.95C568.389,385.968,562.755,379.007,555.109,376.949z"/>
		<circle clip-path="url(#SVGID_4_)" fill="#4D4D4D" cx="405.187" cy="410.465" r="17.95"/>
		<path clip-path="url(#SVGID_4_)" fill="#1A1A1A" d="M410.549,393.331c3.02,3.212,4.884,7.525,4.884,12.282
			c0,9.914-8.036,17.951-17.95,17.951c-1.868,0-3.669-0.287-5.363-0.816c3.274,3.481,7.91,5.668,13.067,5.668
			c9.914,0,17.95-8.037,17.95-17.951C423.137,402.42,417.843,395.611,410.549,393.331z"/>
	</g>
	<path fill="none" stroke="#CCCCCC" stroke-width="0.75" stroke-linecap="round" stroke-miterlimit="10" d="M218.359,289.093
		c0,0,28.72,20.658,60.53,29.4c23.576,6.479,52.747,1.729,52.747,1.729l182.555-15.565"/>
</g>
</svg>
