<?xml version="1.0" encoding="utf-8"?>
<!-- Generator: Adobe Illustrator 16.0.0, SVG Export Plug-In . SVG Version: 6.00 Build 0)  -->
<!DOCTYPE svg PUBLIC "-//W3C//DTD SVG 1.1//EN" "http://www.w3.org/Graphics/SVG/1.1/DTD/svg11.dtd">
<svg version="1.1" id="Layer_1" xmlns="http://www.w3.org/2000/svg" xmlns:xlink="http://www.w3.org/1999/xlink" x="0px" y="0px"
	 width="905.818px" height="931.551px" viewBox="0 0 905.818 931.551" enable-background="new 0 0 905.818 931.551"
	 xml:space="preserve">
<g>
	<g>
		<path fill="none" stroke="#FFFFFF" stroke-width="2" stroke-miterlimit="10" d="M315.586-184.004c0,68.799-56.2,125-125,125h-532
			c-68.8,0-125-56.201-125-125v-610.001c0-68.8,56.2-125,125-125h532c68.8,0,125,56.2,125,125V-184.004z"/>
	</g>
	<g>
		<path fill="none" stroke="#FFFFFF" stroke-width="2" stroke-miterlimit="10" d="M289.386-175.706c0,48.301-39.5,87.9-87.9,87.9
			h-553.799c-48.3,0-87.9-39.5-87.9-87.9v-626.5c0-48.3,39.5-87.899,87.9-87.899h553.799c48.301,0,87.9,39.5,87.9,87.899V-175.706z"
			/>
	</g>
	<g>
		<path fill="none" stroke="#FFFFFF" stroke-width="2" stroke-miterlimit="10" d="M-357.414-615.805c0,4.7-3.8,8.5-8.5,8.5h-1
			c-4.7,0-8.5-3.8-8.5-8.5v-46c0-4.7,3.8-8.5,8.5-8.5h1c4.7,0,8.5,3.8,8.5,8.5V-615.805z"/>
	</g>
	<g>
		<path fill="#FFFFFF" d="M-402.214-648.405v4.399c3.2,1.2,5.5,4.3,5.5,8c0,4.7-3.8,8.601-8.6,8.601s-8.6-3.801-8.6-8.601
			c0-3.6,2.3-6.7,5.5-8v-4.399c-5.5,1.399-9.6,6.399-9.6,12.3c0,7,5.7,12.7,12.7,12.7s12.7-5.7,12.7-12.7
			C-392.614-642.005-396.714-647.005-402.214-648.405z"/>
		<rect x="-407.414" y="-650.405" fill="#FFFFFF" width="4.2" height="18.399"/>
	</g>
	<path fill="#FFFFFF" d="M168.455-845.766c-11.14,0-21.294,4.535-28.59,11.88l-13.341,13.336l0.007,0.007l-36.745,36.771
		c-5.472,5.471-13.087,8.896-21.467,8.896c-16.734,0-30.314-13.629-30.314-30.364c0-16.732,13.629-30.363,30.314-30.363
		c6.729,0,12.934,2.18,17.977,5.896l2.263,2.107c0.048,0.196,0.065,0.405,0.038,0.59l-1.565,10.651
		c-0.06,0.402,0.128,0.967,0.415,1.255l3.724,3.723c0.287,0.288,0.758,0.288,1.046,0l1.562-1.562c0.288-0.287,0.758-0.288,1.046,0
		l4.113,4.113c0.288,0.287,0.758,0.758,1.046,1.046l0.022,0.021c0.288,0.288,0.758,0.759,1.046,1.046l0.696,0.696
		c0.047,0.048,0.101,0.085,0.156,0.116c0.09,0.055,0.188,0.091,0.291,0.104l-0.006,0.006c0.02,0.001,0.038-0.001,0.057-0.001
		c0.04,0.003,0.08,0.002,0.119-0.002c0.799-0.019,1.59-0.325,2.198-0.934c0.612-0.611,0.942-1.426,0.938-2.216
		c0.003-0.04,0.003-0.08-0.001-0.12c-0.001-0.013,0.001-0.025,0-0.038l-0.003,0.004c-0.021-0.156-0.088-0.306-0.207-0.425
		l-0.696-0.697c-0.14-0.139-0.322-0.321-0.505-0.505l-0.006,0.005c-0.201-0.201-0.405-0.405-0.558-0.56l-0.022-0.021
		c-0.288-0.287-0.759-0.758-1.046-1.046l-4.114-4.113c-0.287-0.287-0.287-0.758,0-1.045l1.626-1.625
		c0.287-0.288,0.757-0.288,1.045,0l5.12,5.119c0.288,0.288,0.758,0.759,1.045,1.046l0.022,0.021
		c0.288,0.288,0.759,0.758,1.046,1.046l0.697,0.697c0.118,0.118,0.269,0.187,0.424,0.206l-0.006,0.006
		c0.019,0.001,0.037-0.001,0.057-0.001c0.039,0.002,0.079,0.002,0.118-0.002c0.8-0.019,1.591-0.325,2.199-0.934
		c0.611-0.612,0.942-1.426,0.938-2.216c0.003-0.04,0.002-0.08-0.001-0.12c-0.001-0.013,0.001-0.025-0.001-0.038l-0.002,0.003
		c-0.021-0.155-0.088-0.305-0.207-0.424l-0.696-0.697c-0.288-0.287-0.759-0.758-1.046-1.045l-6.188-6.188
		c-0.288-0.288-0.288-0.759,0-1.046l1.623-1.623c0.287-0.287,0.758-0.287,1.046,0l4.112,4.114c0.288,0.287,0.759,0.757,1.046,1.045
		l0.022,0.022c0.152,0.153,0.357,0.357,0.559,0.559c0.178,0.178,0.353,0.353,0.487,0.487l0.018,0.019l0.679,0.678l0.02,0.019
		c0.118,0.119,0.269,0.187,0.424,0.207l-0.006,0.006c0.019,0,0.037-0.002,0.056-0.001c0.04,0.002,0.08,0.001,0.12-0.003
		c0.797-0.018,1.589-0.324,2.198-0.933c0.611-0.612,0.942-1.426,0.938-2.217c0.003-0.04,0.002-0.079-0.001-0.119
		c-0.001-0.013,0-0.025,0-0.038l-0.004,0.003c-0.021-0.155-0.087-0.305-0.206-0.424l-0.019-0.02l-0.679-0.678l-0.019-0.019
		c-0.135-0.135-0.31-0.31-0.486-0.487c-0.202-0.201-0.406-0.405-0.56-0.558l-0.021-0.023c-0.288-0.287-0.759-0.757-1.046-1.045
		l-4.113-4.113c-0.287-0.288-0.287-0.759,0-1.046l1.563-1.563c0.288-0.287,0.288-0.758,0-1.046l-3.723-3.725
		c-0.287-0.288-0.852-0.477-1.254-0.416l-10.655,1.57c-0.184,0.027-0.402,0.019-0.612-0.016l-2.503-1.867
		c-6.916-5.502-15.643-8.784-25.118-8.784c-22.306,0-40.42,18.164-40.421,40.468c0.001,22.306,18.165,40.47,40.42,40.47
		c11.141,0,21.294-4.535,28.59-11.88l39.797-39.786l-0.013-0.025l10.295-10.303c5.472-5.472,13.087-8.897,21.467-8.897
		c16.734,0,30.313,13.629,30.314,30.364c0,16.734-13.63,30.363-30.314,30.363c-8.38,0-15.946-3.377-21.467-8.897l-2.676-2.611
		l-1.993-2.378c-0.059-0.281-0.083-0.545-0.083-0.545l-1.049-13.266c0.06-0.401-0.127-0.967-0.415-1.254l-3.724-3.724
		c-0.287-0.288-0.758-0.288-1.046,0l-20.068,20.068c-0.288,0.288-0.288,0.758,0,1.046l3.723,3.726
		c0.287,0.287,0.852,0.475,1.254,0.415l13.27,1.044c0,0,0.274,0.014,0.573,0.054l2.367,2.005l2.646,2.567
		c7.345,7.345,17.45,11.88,28.59,11.88c22.305,0,40.419-18.164,40.419-40.469C208.875-827.606,190.71-845.766,168.455-845.766z"/>
	<text transform="matrix(1 0 0 1 30.1514 -727.0425)" fill="#FFFFFF" font-family="'HelveticaNeue-Light'" font-size="30.5911">SAV</text>
	<text transform="matrix(1 0 0 1 86.8369 -727.0425)" fill="#FFFFFF" font-family="'HelveticaNeue-Light'" font-size="30.5911">ENERGY</text>
</g>
<g>
	<g>
		<path fill="#808080" d="M-1034.423-226.752c0,7.801-6.4,14.201-14.201,14.201h-2.299c-7.801,0-14.201-6.4-14.201-14.201v-143
			c0-7.799,6.4-14.199,14.201-14.199h2.299c7.801,0,14.201,6.4,14.201,14.199V-226.752z"/>
	</g>
	<g>
		<path fill="#808080" d="M-904.224-226.752c0,7.801-6.4,14.201-14.199,14.201h-2.301c-7.799,0-14.199-6.4-14.199-14.201v-143
			c0-7.799,6.4-14.199,14.199-14.199h2.301c7.799,0,14.199,6.4,14.199,14.199V-226.752z"/>
	</g>
	<g>
		<path fill="#808080" d="M-969.724-215.551c0,7.799-6.4,14.199-14.199,14.199h-2.301c-7.799,0-14.199-6.4-14.199-14.199v-143
			c0-7.801,6.4-14.201,14.199-14.201h2.301c7.798,0,14.199,6.4,14.199,14.201V-215.551z"/>
	</g>
	<polygon fill="#4D4D4D" points="-1111.823,-353.352 -1061.323,-330.15 -1050.124,-327.15 -922.224,-327.15 -907.923,-329.352 
		-861.224,-349.551 	"/>
	<path fill="#FFFFFF" d="M-737.423-572.351c-4.801-40.7-52.9-134-65.6-158.6c-4-7.8-12.701-10.6-31.602-10.6
		c-34.898,0-76.5-0.7-142.199-0.6c-65.699-0.1-118.599,0-153.5,0.6c-8.301,0.2-26.201-1.3-31.6,10.6
		c-11.701,30.7-49.602,117.9-54.401,158.6c-6,50.7,2.699,154,3.5,204c0.199,10.801,25.4,23.9,36.2,23.801
		c43.4-0.301,120.5-0.4,198.5-0.4l0,0c0.4,0,0.9,0,1.301,0c0.401,0,0.9,0,1.301,0l0,0c77.898,0,155.1,0,198.5,0.4
		c10.799,0.1,36-13,36.199-23.801C-740.125-418.451-731.423-521.751-737.423-572.351z"/>
	<g>
		<g>
			<path fill="#069BE9" d="M-1035.923-675.151c11.4,0,21.799-1.7,29.299-4.4l52.4-18.5c5.6-2,13.4-3.3,22-3.3
				c17.201,0,31.1,5,31.1,11.2c0,6.2-14,11.2-31.1,11.2c-8.6,0-16.4-1.3-22-3.3l-5.299-1.9c0.898-0.7,1.398-1.5,1.398-2.3
				c0-1.5-1.699-2.9-4.6-4l-22,7.9c2.801,1,6.701,1.6,11,1.6c2.5,0,4.9-0.2,7-0.6l5.201,1.8c7.5,2.7,17.898,4.4,29.299,4.4
				c22.9,0,41.5-6.7,41.5-15c0-8.3-18.6-15-41.5-15c-11.4,0-21.799,1.7-29.299,4.4l-52.4,18.5c-5.6,2-13.4,3.3-22,3.3
				c-17.201,0-31.1-5-31.1-11.2c0-6.2,14-11.2,31.1-11.2c6.1,0,11.799,0.6,16.6,1.7c-0.6,0.6-1,1.3-1,2c0,1.5,1.699,2.9,4.6,4l4-1.4
				l10.4,3.7l3.699-1.3l-10.398-3.7l6.699-2.4l10.4,3.7l3.699-1.3l-10.4-3.7l4-1.4c-2.799-1-6.699-1.6-11-1.6
				c-2.799,0-5.398,0.3-7.699,0.7c-6.699-1.6-14.699-2.6-23.4-2.6c-22.9,0-41.5,6.7-41.5,15
				C-1077.423-681.851-1058.823-675.151-1035.923-675.151z"/>
		</g>
	</g>
	<path fill="#808080" d="M-1213.024-376.451c0.101,2.801,0.101,5.5,0.2,8.1c0.199,10.801,25.4,23.9,36.2,23.801
		c43.4-0.301,120.5-0.4,198.5-0.4l0,0c0.4,0,0.9,0,1.301,0c0.401,0,0.9,0,1.301,0l0,0c77.898,0,155.1,0,198.5,0.4
		c10.799,0.1,36-13,36.199-23.801c0-2.6,0.1-5.299,0.199-8.1c0,0-16.299,15-39.398,15c-49.201,0-196.9,0-196.9,0h-199.8
		C-1196.225-361.551-1213.024-376.451-1213.024-376.451z"/>
	<g>
		<g>
			<g>
				<defs>
					<rect id="SVGID_1_" x="-1087.124" y="-517.551" width="220.5" height="64.401"/>
				</defs>
				<clipPath id="SVGID_2_">
					<use xlink:href="#SVGID_1_"  overflow="visible"/>
				</clipPath>
				<g clip-path="url(#SVGID_2_)">
					<g>
						<circle fill="#4D4D4D" cx="-901.625" cy="-479.251" r="18"/>
						<path fill="#1A1A1A" d="M-901.625-466.852c-9,0-16.398-6.6-17.699-15.199c-0.1,0.9-0.199,1.799-0.199,2.799c0,9.9,8,18,18,18
							c9.898,0,18-8,18-18c0-1-0.102-1.898-0.201-2.799C-885.224-473.451-892.625-466.852-901.625-466.852z"/>
					</g>
					<g>
						<circle fill="#4D4D4D" cx="-976.923" cy="-508.351" r="18"/>
						<path fill="#1A1A1A" d="M-976.923-495.951c-9,0-16.4-6.601-17.701-15.2c-0.1,0.9-0.199,1.8-0.199,2.8c0,9.9,8,18,18,18
							c9.9,0,18-8,18-18c0-1-0.1-1.9-0.199-2.8C-960.523-502.551-967.923-495.951-976.923-495.951z"/>
					</g>
					<g>
						<circle fill="#4D4D4D" cx="-1052.423" cy="-479.251" r="18"/>
						<path fill="#1A1A1A" d="M-1052.423-466.852c-9,0-16.4-6.6-17.701-15.199c-0.1,0.9-0.199,1.799-0.199,2.799c0,9.9,8,18,18,18
							c9.9,0,18-8,18-18c0-1-0.1-1.898-0.199-2.799C-1036.022-473.451-1043.423-466.852-1052.423-466.852z"/>
					</g>
				</g>
			</g>
		</g>
	</g>
	<polygon fill="#B8B8B8" points="-836.324,-465.752 -886.724,-421.15 -899.625,-415.051 -974.625,-415.451 -974.625,-415.451 
		-974.824,-415.451 -974.923,-415.451 -974.923,-415.451 -1050.022,-415.051 -1062.823,-421.15 -1113.224,-465.752 
		-1125.323,-453.15 -1125.323,-440.551 -1120.423,-432.951 -1065.022,-382.451 -1050.224,-376.451 -974.923,-376.451 
		-974.625,-376.451 -899.324,-376.451 -884.523,-382.451 -829.125,-432.951 -824.224,-440.551 -824.224,-453.15 	"/>
	
		<line fill="none" stroke="#CCCCCC" stroke-width="0.75" stroke-linecap="round" stroke-miterlimit="10" x1="-1114.224" y1="-560.851" x2="-838.125" y2="-560.851"/>
</g>
<g>
	<g>
		<path fill="#808080" d="M1121.985-85.665c0,6.236-5.103,11.339-11.339,11.339h-8.891c-6.236,0-11.338-5.103-11.338-11.339
			v-153.463c0-6.236,5.102-11.339,11.338-11.339h8.891c6.236,0,11.339,5.103,11.339,11.339V-85.665z"/>
	</g>
	<g>
		<path fill="#808080" d="M1194.589-85.665c0,6.236-5.102,11.339-11.338,11.339h-6.997c-6.234,0-11.339-5.103-11.339-11.339
			v-153.463c0-6.236,5.104-11.339,11.339-11.339h6.997c6.236,0,11.338,5.103,11.338,11.339V-85.665z"/>
	</g>
	<g>
		<path fill="#808080" d="M1250.146-106.499c0,6.236-5.103,11.339-11.339,11.339h-5.732c-6.235,0-11.339-5.103-11.339-11.339
			v-141.467c0-6.236,5.104-11.339,11.339-11.339h5.732c6.236,0,11.339,5.103,11.339,11.339V-106.499z"/>
	</g>
	<polygon fill="#4D4D4D" points="1053.036,-236.087 1053.036,-204.486 1062.694,-200.871 1117.3,-192.406 1129.312,-192.406 
		1260.362,-208.242 1268.825,-211.519 1287.665,-230.357 1288.757,-252.472 	"/>
	<path fill="#FFFFFF" d="M857.161-586.154c-0.66,43.45,2.666,184.252,2.666,184.252l178.574,167.539l67.801,4.392
		c0,0,279.069-33.82,370.332-42.432c16.065-1.516,14.967-22.27,14.967-22.27s9.023-159.594,13.648-210.558
		c0.188-2.088-2.959-5.971-4.875-6.824c-66.16-29.48-221-81.054-278.539-100.405c-10.746-3.614-45.306-1.915-45.306-1.915
		l-297.692,17.361C878.737-597.015,857.312-596.149,857.161-586.154z"/>
	<path fill="#B8B8B8" d="M1360.142-445.249l29.218,29.668c0,0,3.02,6.661,2.248,13.485c-0.802,7.104-5.396,14.384-5.396,14.384
		l-49.895,57.538c0,0-3.466,2.078-6.882,4.129c-3.323,1.994-6.604,3.963-6.604,3.963l-141.715,15.283l25.291,26.971
		c0,0,3.516,2.285,7.192,3.146c3.978,0.936,8.136,0.449,8.136,0.449l147.846-17.082c0,0,3.357-2.125,6.723-4.256
		c3.377-2.139,6.763-4.283,6.763-4.283l54.393-58.887c0,0,4.945-7.229,4.945-14.834c0-7.454-4.945-15.284-4.945-15.284
		l-46.301-51.694c0,0-3.15-2.962-6.293-4.045c-3.367-1.162-6.742-0.45-6.742-0.45L1360.142-445.249z"/>
	<path fill="#B8B8B8" d="M1483.243-286.945c-6.232,2.631-16.228,2.615-16.228,2.615s-2.524,2.549-5.285,4.922
		c-2.676,2.299-7.854,3.301-7.854,3.301l-322.603,38.918c0,0-4.856,0.043-8.829-2.516c-2.613-1.508-5.093-4.057-5.093-4.057
		l-49.112,2.736c0,0-7.002-0.43-17.347-2.736c-10.793-2.41-22.354-9.441-22.354-9.441L859.556-413.787l0.271,11.885l168.713,162.369
		c0,0,10.83,7.91,28.396,10.875c19.216,3.242,49.267,1.559,49.267,1.559l358.549-43.699c0,0,10.553,0.01,16.678-3.033
		c9.363-3.904,9.955-17.379,9.955-17.379l0.117-3.463C1491.501-294.673,1489.249-289.484,1483.243-286.945z"/>
	<g>
		<g>
			<defs>
				<polygon id="SVGID_3_" points="1213.429,-432.758 1147.112,-357.546 1191.882,-330.048 1332.312,-361.685 1363.042,-408.496 
					1349.294,-447.263 				"/>
			</defs>
			<clipPath id="SVGID_4_">
				<use xlink:href="#SVGID_3_"  overflow="visible"/>
			</clipPath>
			<circle clip-path="url(#SVGID_4_)" fill="#4D4D4D" cx="1253.891" cy="-420.936" r="17.95"/>
		</g>
		<g>
			<defs>
				<polygon id="SVGID_5_" points="1213.429,-432.758 1147.112,-357.546 1191.882,-330.048 1332.312,-361.685 1363.042,-408.496 
					1349.294,-447.263 				"/>
			</defs>
			<clipPath id="SVGID_6_">
				<use xlink:href="#SVGID_5_"  overflow="visible"/>
			</clipPath>
			<path clip-path="url(#SVGID_6_)" fill="#1A1A1A" d="M1266.032-434.129c1.312,2.494,2.062,5.328,2.062,8.341
				c0,9.914-8.035,17.95-17.949,17.95c-4.688,0-8.944-1.812-12.143-4.758c3.004,5.711,8.986,9.61,15.887,9.61
				c9.914,0,17.951-8.037,17.951-17.951C1271.841-426.16,1269.595-430.848,1266.032-434.129z"/>
		</g>
		<g>
			<defs>
				<polygon id="SVGID_7_" points="1213.429,-432.758 1147.112,-357.546 1191.882,-330.048 1332.312,-361.685 1363.042,-408.496 
					1349.294,-447.263 				"/>
			</defs>
			<clipPath id="SVGID_8_">
				<use xlink:href="#SVGID_7_"  overflow="visible"/>
			</clipPath>
			<circle clip-path="url(#SVGID_8_)" fill="#4D4D4D" cx="1325.004" cy="-395.836" r="17.95"/>
		</g>
		<g>
			<defs>
				<polygon id="SVGID_9_" points="1213.429,-432.758 1147.112,-357.546 1191.882,-330.048 1332.312,-361.685 1363.042,-408.496 
					1349.294,-447.263 				"/>
			</defs>
			<clipPath id="SVGID_10_">
				<use xlink:href="#SVGID_9_"  overflow="visible"/>
			</clipPath>
			<path clip-path="url(#SVGID_10_)" fill="#1A1A1A" d="M1329.675-413.151c4.16,3.287,6.838,8.367,6.838,14.08
				c0,9.914-8.034,17.95-17.948,17.95c-1.619,0-3.181-0.234-4.67-0.636c3.057,2.417,6.909,3.871,11.11,3.871
				c9.914,0,17.949-8.037,17.949-17.95C1342.954-404.132,1337.321-411.093,1329.675-413.151z"/>
		</g>
		<g>
			<defs>
				<polygon id="SVGID_11_" points="1213.429,-432.758 1147.112,-357.546 1191.882,-330.048 1332.312,-361.685 1363.042,-408.496 
					1349.294,-447.263 				"/>
			</defs>
			<clipPath id="SVGID_12_">
				<use xlink:href="#SVGID_11_"  overflow="visible"/>
			</clipPath>
			<circle clip-path="url(#SVGID_12_)" fill="#4D4D4D" cx="1179.753" cy="-379.635" r="17.949"/>
		</g>
		<g>
			<defs>
				<polygon id="SVGID_13_" points="1213.429,-432.758 1147.112,-357.546 1191.882,-330.048 1332.312,-361.685 1363.042,-408.496 
					1349.294,-447.263 				"/>
			</defs>
			<clipPath id="SVGID_14_">
				<use xlink:href="#SVGID_13_"  overflow="visible"/>
			</clipPath>
			<path clip-path="url(#SVGID_14_)" fill="#1A1A1A" d="M1185.114-396.77c3.02,3.212,4.885,7.525,4.885,12.282
				c0,9.914-8.037,17.951-17.949,17.951c-1.869,0-3.67-0.287-5.362-0.816c3.272,3.481,7.909,5.668,13.065,5.668
				c9.914,0,17.949-8.037,17.949-17.951C1197.702-387.68,1192.409-394.489,1185.114-396.77z"/>
		</g>
	</g>
	<path fill="none" stroke="#CCCCCC" stroke-width="0.75" stroke-linecap="round" stroke-miterlimit="10" d="M992.925-501.007
		c0,0,28.722,20.658,60.531,29.4c23.576,6.479,52.746,1.729,52.746,1.729l182.555-15.565"/>
</g>
<g>
	<g>
		<path fill="#808080" d="M7.762-1430.568c0,6.236-5.103,11.339-11.338,11.339h-8.356c-6.236,0-11.338-5.103-11.338-11.339v-183.941
			c0-6.236,5.103-11.339,11.338-11.339h8.356c6.236,0,11.338,5.103,11.338,11.339V-1430.568z"/>
	</g>
	<g>
		<path fill="#B8B8B8" d="M28.179-1430.568c0,6.236-5.103,11.339-11.338,11.339H8.484c-6.236,0-11.338-5.103-11.338-11.339v-183.941
			c0-6.236,5.103-11.339,11.338-11.339h8.356c6.236,0,11.338,5.103,11.338,11.339L28.179-1430.568L28.179-1430.568z"/>
	</g>
	<path fill="#069BE9" d="M-121.162-1855.249c0,1.354-1.098,2.451-2.45,2.451h-74.211c-1.353,0-2.45-1.098-2.45-2.451v-9.152
		c0-1.354,1.098-2.45,2.45-2.45h74.211c1.353,0,2.45,1.097,2.45,2.45V-1855.249z"/>
	<path fill="#4D4D4D" d="M230.48-1678.634h-627.54c-1.354,0-2.45,1.378-2.45,3.078v14.104c0,1.701,1.097,3.078,2.45,3.078h331.004
		c0,0,1.908,0.104,2.854,1.416c0.84,1.168,0.729,3.562,0.729,3.562v96.698c0,1.354,1.098,2.449,2.45,2.449H44.104
		c1.354,0,2.45-1.096,2.45-2.449v-96.698c0,0-0.285-2.823,0.48-4.047c0.793-1.264,4.205-0.949,4.205-0.949l179.241,0.018
		c1.354,0,2.45-1.377,2.45-3.078v-14.104C232.931-1677.256,231.834-1678.634,230.48-1678.634z"/>
	<path fill="#B8B8B8" d="M248.682-1678.587c0,3.385-2.742,6.126-6.126,6.126h-10.412c-3.383,0-6.126-2.741-6.126-6.126v-166.601
		c0-3.384,2.743-6.126,6.126-6.126h10.412c3.384,0,6.126,2.742,6.126,6.126V-1678.587z"/>
	<path fill="#FFFFFF" d="M232.931-1853.823c0-4.736-3.84-8.574-8.575-8.574h-615.29c-4.736,0-8.575,3.838-8.575,8.574v179.324
		h632.44V-1853.823L232.931-1853.823z"/>
</g>
<g>
	<circle fill="#FFFFFF" stroke="#3A3A3A" stroke-miterlimit="10" cx="2779.234" cy="1866.863" r="35.989"/>
	<path fill="#222222" stroke="#3A3A3A" stroke-miterlimit="10" d="M2779.234,1830.874v71.979c19.877,0,35.988-16.111,35.988-35.988
		S2799.111,1830.874,2779.234,1830.874z"/>
</g>
<g>
	<path fill="#E6E6E6" d="M2392.488,2102.157c1.881-4.893,4.981-9.129,7.365-13.75c0.25-0.484,0.825-0.996,0.684-1.426
		c-0.127-0.385-0.846-0.57-1.307-0.84c-0.621-0.359-1.244-0.717-1.92-1.105c3.906-2.301,7.756-4.568,11.686-6.885
		c-0.766-0.463-1.451-0.9-2.16-1.299c-0.373-0.207-0.491-0.396-0.127-0.707c1.021,0.426,1.908,1.084,2.855,1.637
		c0.678,0.395,1.367,0.77,2.025,1.195c-0.234,0.543-0.392,0.621-0.867,0.389c-0.371-0.182-0.709-0.42-1.07-0.619
		c-0.258-0.145-0.385-0.061-0.398,0.227c-0.01,0.186-0.006,0.371-0.006,0.557c0,3.709,0.002,7.42-0.002,11.129
		c0,1.201-0.168,1.301-1.219,0.709c-0.576-0.322-1.145-0.658-1.721-0.979c-0.689-0.387-0.709-0.387-1.092,0.287
		c-1.729,3.021-3.425,6.064-5.148,9.09c-0.488,0.859-0.967,1.727-1.455,2.586c-0.543,0.959-0.332,1.822,0.561,2.482
		c0.687,0.508,1.427,0.766,2.3,0.742c4.037-0.104,8.071,0.129,12.108,0.145c2.035,0.008,4.076,0.074,6.113,0.102
		c0.67,0.01,0.805,0.143,0.805,0.805c0.002,0.396,0.133,0.828-0.184,1.182c-0.129,1.107-0.08,2.221-0.092,3.332
		c-0.004,0.354-0.058,0.488-0.468,0.48c-6.575-0.121-13.151-0.221-19.729-0.328c-0.688-0.014-1.343-0.207-1.966-0.484
		c-2.641-1.174-4.662-2.918-5.393-5.857c-0.059-0.229,0.033-0.502-0.182-0.689c0-0.123,0-0.248,0-0.371
		c0.102-0.289,0.102-0.578,0-0.867C2392.488,2102.733,2392.488,2102.446,2392.488,2102.157z"/>
	<path fill="#E6E6E6" d="M2411.518,2078.889c-0.688,0.078-1.11-0.447-1.618-0.748c-1.076-0.643-2.218-1.188-3.189-1.994
		c1.185-1.996,2.361-3.994,3.554-5.986c2.047-3.422,4.116-6.83,6.146-10.264c1.42-2.402,3.642-3.518,6.256-4.045
		c0.199-0.078,0.408-0.023,0.611-0.039c0.297-0.033,0.604,0.07,0.896-0.064c0.164,0,0.327,0,0.493,0
		c1.103,0.285,2.197,0.568,3.16,1.229c0.879,0.602,1.623,1.309,2.168,2.238c2.399,4.098,4.826,8.18,7.223,12.277
		c0.244,0.416,0.42,0.463,0.82,0.209c0.951-0.6,1.937-1.152,2.922-1.732c0.152,0.188,0.095,0.377,0.095,0.549
		c0.004,4.119,0.006,8.24-0.004,12.361c0,0.191,0.151,0.465-0.166,0.58c-0.513-0.01-0.867-0.365-1.271-0.594
		c-3.191-1.811-6.367-3.645-9.559-5.455c-0.916-0.52-0.914-0.645-0.023-1.188c0.635-0.387,1.27-0.77,1.924-1.119
		c0.424-0.229,0.49-0.453,0.23-0.875c-1.228-2.004-2.404-4.039-3.596-6.064c-1.097-1.865-2.218-3.719-3.289-5.598
		c-0.607-1.061-1.439-1.311-2.562-0.799c-0.676,0.309-1.189,0.746-1.582,1.404c-3.008,5.047-6.027,10.088-9.062,15.119
		C2411.947,2078.53,2411.861,2078.838,2411.518,2078.889z"/>
	<path fill="#E6E6E6" d="M2392.488,2103.022c0.19,0.289,0.201,0.578,0,0.865C2392.488,2103.602,2392.488,2103.313,2392.488,2103.022
		z"/>
	<path fill="#E6E6E6" d="M2424.17,2055.749c-0.277,0.227-0.596,0.096-0.896,0.102c-0.021-0.043-0.012-0.076,0.029-0.102
		C2423.592,2055.749,2423.881,2055.749,2424.17,2055.749z"/>
	<path fill="#E6E6E6" d="M2423.303,2055.749c-0.01,0.033-0.02,0.068-0.029,0.104c-0.202,0-0.405,0-0.608,0
		c0.008-0.035,0.014-0.068,0.021-0.104C2422.891,2055.749,2423.096,2055.749,2423.303,2055.749z"/>
	<path fill="#E6E6E6" d="M2420.441,2108.586c3.334-1.951,6.668-3.902,10.002-5.854c0.512-0.301,1.022-0.604,1.637-0.963
		c0,1.178,0.037,2.275-0.014,3.369c-0.027,0.562,0.146,0.66,0.674,0.652c4.596-0.064,9.19-0.123,13.789-0.121
		c0.992,0,1.771-0.744,1.914-1.711c0.137-0.912-0.012-1.707-0.478-2.533c-3.004-5.338-5.957-10.703-8.942-16.051
		c-0.232-0.416-0.189-0.602,0.239-0.805c0.517-0.242,0.994-0.566,1.488-0.855c0.83-0.447,1.666-0.887,2.488-1.348
		c0.272-0.154,0.428-0.203,0.616,0.139c3.211,5.812,6.447,11.611,9.652,17.428c0.551,0.996,0.615,2.131,0.601,3.248
		c-0.039,2.736-0.914,5.096-3.226,6.738c-1.199,0.854-2.529,1.34-4.031,1.348c-4.721,0.029-9.44,0.096-14.162,0.115
		c-0.528,0.002-0.643,0.154-0.623,0.652c0.041,1.07,0.013,2.143,0.013,3.211c-0.229,0.104-0.359-0.074-0.504-0.158
		c-3.574-2.033-7.146-4.074-10.713-6.119C2420.701,2108.877,2420.445,2108.864,2420.441,2108.586z"/>
	<path fill="#E6E6E6" d="M2427.633,2094.624c1.572,0,3.076,0.021,4.58-0.012c0.49-0.01,0.717,0.076,0.656,0.623
		c-0.057,0.508,0.166,1.201-0.094,1.49c-0.305,0.338-1.008,0.102-1.537,0.104c-2.104,0.012-4.207-0.008-6.312,0.018
		c-0.438,0.004-0.559-0.1-0.51-0.539c0.152-1.391,0.654-2.596,1.767-3.482c0.868-0.693,1.772-1.342,2.655-2.02
		c0.941-0.727,1.73-1.539,1.621-2.867c-0.075-0.93-0.489-1.543-1.213-1.752c-1.168-0.338-2.061,0.283-2.278,1.58
		c-0.154,0.93-0.154,0.93-1.111,0.93c-0.021,0-0.041,0-0.062,0c-1.402,0-1.402,0-1.152-1.424c0.312-1.781,1.4-2.861,3.193-3.104
		c1.51-0.203,2.945,0.006,4.055,1.158c1.621,1.684,1.332,4.436-0.6,6.006c-0.91,0.74-1.848,1.449-2.766,2.184
		C2428.176,2093.797,2427.85,2094.11,2427.633,2094.624z"/>
	<path fill="#E6E6E6" d="M2422.762,2087.116c-0.5-1.83-1.938-2.992-3.744-3.02c-1.942-0.029-3.496,1.066-3.993,2.938
		c-0.652,2.453-0.623,4.932,0.016,7.385c0.402,1.541,1.759,2.637,3.279,2.785c1.785,0.176,3.238-0.549,4.037-2.027
		c0.729-1.354,0.728-2.848,0.815-4.303C2423.143,2089.594,2423.096,2088.34,2422.762,2087.116z M2420.463,2093.622
		c-0.189,0.922-0.76,1.467-1.551,1.49c-0.805,0.023-1.449-0.461-1.613-1.396c-0.363-2.059-0.355-4.137,0.006-6.195
		c0.162-0.92,0.842-1.459,1.604-1.436c0.731,0.021,1.346,0.582,1.537,1.453c0.227,1.031,0.18,2.088,0.268,3.107
		C2420.635,2091.655,2420.662,2092.647,2420.463,2093.622z"/>
</g>
<g id="RSS_-_Orange">
	<g>
		<g>
			
				<radialGradient id="SVGID_15_" cx="2385.1543" cy="-1007.0718" r="32.4844" gradientTransform="matrix(1 0 0 -1 8.5 907.5518)" gradientUnits="userSpaceOnUse">
				<stop  offset="0" style="stop-color:#FFF584"/>
				<stop  offset="1" style="stop-color:#FDBF0F"/>
			</radialGradient>
			<path fill="url(#SVGID_15_)" d="M2393.719,1923.551c-17.369,0-31.5-14.131-31.5-31.5s14.131-31.5,31.5-31.5
				s31.5,14.131,31.5,31.5S2411.088,1923.551,2393.719,1923.551z"/>
			<g>
				<path fill="#E79F2E" d="M2393.719,1861.051c17.094,0,31,13.906,31,31s-13.906,31-31,31s-31-13.906-31-31
					S2376.625,1861.051,2393.719,1861.051 M2393.719,1860.051c-17.674,0-32,14.328-32,32c0,17.674,14.326,32,32,32
					c17.672,0,32-14.326,32-32C2425.719,1874.379,2411.391,1860.051,2393.719,1860.051L2393.719,1860.051z"/>
			</g>
		</g>
		<g opacity="0.8">
			
				<linearGradient id="SVGID_16_" gradientUnits="userSpaceOnUse" x1="2384.3145" y1="-973.2515" x2="2400.8911" y2="-1036.7803" gradientTransform="matrix(1 0 0 -1 8.5 907.5518)">
				<stop  offset="0" style="stop-color:#FFFFFF"/>
				<stop  offset="1" style="stop-color:#FBAE17"/>
			</linearGradient>
			<path fill="url(#SVGID_16_)" d="M2415.117,1869.653c5.322,5.566,8.602,13.104,8.602,21.396c0,17.094-13.906,31-31,31
				c-8.293,0-15.83-3.279-21.397-8.602c5.647,5.91,13.598,9.602,22.399,9.602c17.094,0,30.998-13.904,30.998-31
				C2424.719,1883.25,2421.027,1875.301,2415.117,1869.653z"/>
		</g>
		<g>
			<g>
				
					<linearGradient id="SVGID_17_" gradientUnits="userSpaceOnUse" x1="2376.7568" y1="-953.7085" x2="2388.1953" y2="-995.3231" gradientTransform="matrix(1 0 0 -1 8.5 907.5518)">
					<stop  offset="0" style="stop-color:#FFFBD4"/>
					<stop  offset="1" style="stop-color:#000000"/>
				</linearGradient>
				<path fill="url(#SVGID_17_)" d="M2386.074,1897.754c10.873-9.359,24.947-18.096,37.078-11.508
					c-2.713-13.773-14.877-24.197-29.435-24.197c-16.543,0-30,13.461-30,30.004c0,4.008,0.797,7.832,2.229,11.33
					C2370.707,1904.581,2378.105,1904.614,2386.074,1897.754z"/>
			</g>
		</g>
		<g>
			
				<linearGradient id="SVGID_18_" gradientUnits="userSpaceOnUse" x1="2371.3818" y1="-948.144" x2="2392.668" y2="-1009.8727" gradientTransform="matrix(1 0 0 -1 8.5 907.5518)">
				<stop  offset="0" style="stop-color:#FFFFFF"/>
				<stop  offset="1" style="stop-color:#000000"/>
			</linearGradient>
			<path fill="url(#SVGID_18_)" d="M2365.721,1894.055c0-16.543,13.457-30.004,30-30.004c7.762,0,14.846,2.965,20.178,7.82
				c-5.489-6.031-13.399-9.822-22.18-9.822c-16.543,0-30,13.461-30,30.004c0,8.779,3.791,16.689,9.822,22.182
				C2368.686,1908.901,2365.721,1901.819,2365.721,1894.055z"/>
		</g>
	</g>
	<g opacity="0.8">
		
			<linearGradient id="circle_3_" gradientUnits="userSpaceOnUse" x1="2376.1514" y1="-1002.9175" x2="2376.1514" y2="-966.3872" gradientTransform="matrix(1 0 0 -1 8.5 907.5518)">
			<stop  offset="0" style="stop-color:#FFFFFF"/>
			<stop  offset="1" style="stop-color:#FBAE17"/>
		</linearGradient>
		<path id="circle_2_" opacity="0.8" fill="url(#circle_3_)" enable-background="new    " d="M2388.938,1904.774
			c0,2.367-1.92,4.279-4.293,4.279c-2.36,0-4.282-1.912-4.282-4.279c0-2.361,1.922-4.297,4.282-4.297
			C2387.02,1900.479,2388.938,1902.413,2388.938,1904.774z"/>
		
			<linearGradient id="SVGID_19_" gradientUnits="userSpaceOnUse" x1="2382.5107" y1="-1002.9185" x2="2382.5107" y2="-966.3866" gradientTransform="matrix(1 0 0 -1 8.5 907.5518)">
			<stop  offset="0" style="stop-color:#FFFFFF"/>
			<stop  offset="1" style="stop-color:#FBAE17"/>
		</linearGradient>
		<path opacity="0.8" fill="url(#SVGID_19_)" enable-background="new    " d="M2401.382,1908.815h-5.641
			c-0.074-4.023-1.668-7.791-4.507-10.635c-2.84-2.848-6.594-4.445-10.596-4.52v-5.623
			C2392.009,1888.192,2401.229,1897.428,2401.382,1908.815L2401.382,1908.815z"/>
		
			<linearGradient id="SVGID_20_" gradientUnits="userSpaceOnUse" x1="2388.0068" y1="-1002.9185" x2="2388.0068" y2="-966.3872" gradientTransform="matrix(1 0 0 -1 8.5 907.5518)">
			<stop  offset="0" style="stop-color:#FFFFFF"/>
			<stop  offset="1" style="stop-color:#FBAE17"/>
		</linearGradient>
		<path opacity="0.8" fill="url(#SVGID_20_)" enable-background="new    " d="M2412.362,1908.815h-5.632
			c-0.153-14.348-11.768-25.99-26.08-26.146v-5.621C2398.069,1877.206,2412.208,1891.368,2412.362,1908.815L2412.362,1908.815z"/>
	</g>
	<g>
		<g>
			<path id="circle_1_" fill="#E6E6E6" d="M2838.505,1958.631c-1.674,1.674-4.385,1.67-6.062-0.01
				c-1.67-1.668-1.677-4.381-0.002-6.055c1.67-1.67,4.396-1.68,6.065-0.01C2840.186,1954.237,2840.175,1956.961,2838.505,1958.631z"
				/>
			<path fill="#E6E6E6" d="M2844.446,1970.288l-3.988-3.988c2.793-2.896,4.33-6.688,4.332-10.705
				c0.006-4.021-1.519-7.807-4.297-10.688l3.977-3.979C2852.4,1949.077,2852.391,1962.127,2844.446,1970.288L2844.446,1970.288z"/>
			<path fill="#E6E6E6" d="M2852.211,1978.051l-3.98-3.98c10.034-10.254,10.056-26.697,0.045-36.93l3.975-3.975
				C2864.455,1945.594,2864.438,1965.606,2852.211,1978.051L2852.211,1978.051z"/>
		</g>
		<circle fill="none" stroke="#E6E6E6" stroke-width="2" stroke-miterlimit="10" cx="2846.29" cy="1955.609" r="32.56"/>
	</g>
	<g>
		<path fill="#E6E6E6" d="M2425.429,2022.499c0.004-0.078,0.015-0.156,0.015-0.234c0-2.395,0.002-4.785-0.004-7.184
			c-0.002-0.197,0.037-0.258,0.25-0.258c5.282,0.008,10.563,0.004,15.848,0.01c0.193,0,0.246-0.041,0.246-0.242
			c-0.008-7.506-0.006-15.012-0.006-22.516c0-0.078,0-0.156,0-0.232c0.077-0.029,0.102,0.035,0.133,0.066
			c0.955,0.924,1.906,1.85,2.861,2.771c1.127,1.092,2.258,2.182,3.387,3.271c0.744,0.717,1.486,1.432,2.229,2.146
			c1.125,1.086,2.246,2.176,3.375,3.256c0.748,0.713,1.492,1.428,2.229,2.146c1.118,1.094,2.25,2.176,3.373,3.26
			c0.733,0.707,1.467,1.414,2.2,2.121c0.752,0.725,1.502,1.449,2.254,2.176c0.611,0.588,1.226,1.17,1.832,1.764
			c0.076,0.072,0.154,0.084,0.248,0.084c5.386,0,10.773,0,16.16,0c0.043,0.064,0.021,0.141,0.021,0.211
			c0.002,2.393,0.002,4.787,0.002,7.18c0,0.271,0.031,0.244-0.244,0.244c-16.561,0-33.119,0-49.68,0c-2.17,0-4.342,0-6.512-0.002
			C2425.573,2022.538,2425.489,2022.577,2425.429,2022.499z"/>
		<path fill="#E6E6E6" d="M2465.765,1973.661c-0.004,0.086-0.012,0.17-0.012,0.256c-0.002,7.432-0.002,14.863-0.002,22.297
			c0,0.078,0,0.154,0,0.27c-0.133-0.105-0.244-0.195-0.354-0.285c-0.012-0.01-0.021-0.02-0.03-0.027
			c-0.566-0.541-1.136-1.082-1.703-1.623c-0.535-0.512-1.07-1.02-1.604-1.529c-0.746-0.717-1.498-1.43-2.237-2.15
			c-0.604-0.588-1.229-1.156-1.828-1.748c-0.553-0.547-1.125-1.076-1.688-1.611c-0.479-0.453-0.961-0.906-1.438-1.363
			c-0.377-0.359-0.756-0.723-1.131-1.088c-0.55-0.529-1.111-1.049-1.66-1.582c-0.562-0.541-1.125-1.078-1.69-1.607
			c-0.431-0.4-0.843-0.822-1.281-1.213c-0.514-0.455-0.998-0.941-1.496-1.414c-0.539-0.516-1.08-1.027-1.619-1.543
			c-0.656-0.627-1.322-1.248-1.969-1.887c-0.687-0.676-1.414-1.305-2.078-2.002c-0.123-0.129-0.277-0.197-0.482-0.197
			c-5.262,0.01-10.524,0.006-15.784,0.012c-0.193,0-0.236-0.047-0.236-0.236c0.008-2.15,0.008-4.301,0.002-6.451
			c0-0.158,0.019-0.225,0.209-0.225c18.803,0.006,37.606,0.006,56.412,0.006c0.039,0.062,0.021,0.129,0.021,0.193
			c0,2.17,0,4.34,0,6.51c0,0.223,0,0.223-0.223,0.223c-5.289,0-10.574,0-15.861,0.002
			C2465.919,1973.641,2465.839,1973.622,2465.765,1973.661z"/>
		<path fill="#E6E6E6" d="M2443.735,2025.774c0.004,0.377,0.006,0.754,0.01,1.129c0.027,0.303,0.004,0.605,0.014,0.91
			c0.002,0.068-0.014,0.143,0.017,0.209c0.004,0.365,0.008,0.729,0.01,1.092c0.029,0.295,0.004,0.594,0.014,0.891
			c0.002,0.076-0.014,0.156,0.017,0.23c0.004,0.375,0.008,0.752,0.01,1.127c0.027,0.156,0.004,0.311,0.014,0.467
			c0.002,0.033-0.028,0.1,0.056,0.084c0.27-0.586,0.549-1.166,0.799-1.76c0.221-0.518,0.461-1.025,0.688-1.537
			c0.222-0.488,0.451-0.975,0.67-1.461c0.168-0.379,0.354-0.752,0.513-1.137c0.088-0.207,0.159-0.43,0.295-0.617
			c0.102-0.035,0.209-0.018,0.312-0.018c0.715-0.002,1.428-0.002,2.144,0c0.062,0,0.133-0.027,0.186,0.029
			c-0.156,0.693-0.314,1.391-0.471,2.086c-0.379,1.717-0.76,3.432-1.139,5.146c-0.072,0.324-0.14,0.646-0.203,0.973
			c-0.025,0.129-0.068,0.193-0.226,0.189c-0.452-0.014-0.905-0.014-1.358-0.002c-0.158,0.004-0.158-0.078-0.139-0.176
			c0.145-0.662,0.297-1.326,0.44-1.99c0.127-0.592,0.254-1.182,0.387-1.771c0.146-0.662,0.287-1.326,0.445-1.986
			c0.063-0.268,0.119-0.539,0.18-0.809c0.019-0.039-0.01-0.082,0.011-0.121c0.002-0.01,0.014-0.02,0.014-0.025
			c0-0.012-0.01-0.008-0.012,0.008c-0.019,0.029-0.025,0.064-0.056,0.086c-0.303,0.652-0.608,1.305-0.907,1.957
			c-0.418,0.922-0.828,1.848-1.244,2.77c-0.275,0.615-0.557,1.229-0.824,1.848c-0.07,0.162-0.152,0.223-0.334,0.215
			c-0.42-0.018-0.84-0.006-1.262-0.006c-0.277,0-0.277,0-0.291-0.271c-0.027-0.201-0.012-0.402-0.012-0.605
			c-0.002-0.811-0.002-1.621-0.002-2.434c0-0.07,0.014-0.145-0.017-0.213c0.002-0.295,0.008-0.588,0.006-0.883
			c-0.004-0.791-0.01-1.584-0.018-2.375c-0.041-0.057-0.004-0.113-0.011-0.172c0.002,0.064-0.016,0.121-0.055,0.172
			c-0.106,0.467-0.219,0.932-0.32,1.398c-0.217,0.982-0.428,1.967-0.645,2.947c-0.164,0.754-0.338,1.506-0.5,2.26
			c-0.025,0.133-0.074,0.182-0.213,0.18c-0.449-0.008-0.893-0.006-1.34-0.002c-0.135,0.002-0.195-0.004-0.154-0.184
			c0.188-0.814,0.334-1.639,0.529-2.453c0.174-0.727,0.326-1.459,0.49-2.188c0.133-0.584,0.254-1.17,0.379-1.754
			c0.121-0.545,0.229-1.098,0.379-1.637c0.018-0.064-0.039-0.146,0.047-0.195c0.59-0.025,1.18-0.006,1.768-0.012
			c0.236-0.002,0.473,0.008,0.707-0.004c0.144-0.006,0.211,0.027,0.189,0.184
			C2443.712,2025.631,2443.706,2025.706,2443.735,2025.774z"/>
		<path fill="#E6E6E6" d="M2433.751,2025.407c0.5,1.348,1.002,2.691,1.502,4.039c0.197,0.535,0.394,1.066,0.592,1.602
			c0.019,0.045,0.021,0.117,0.091,0.109c0.061-0.01,0.03-0.072,0.039-0.113c0.18-0.799,0.364-1.594,0.541-2.393
			c0.151-0.693,0.289-1.393,0.438-2.086c0.084-0.387,0.185-0.771,0.274-1.154c0.029-0.037,0.07-0.027,0.107-0.027
			c0.486,0,0.973-0.002,1.457,0.002c0.057,0,0.166-0.043,0.135,0.096c-0.121,0.523-0.244,1.049-0.361,1.572
			c-0.354,1.588-0.707,3.18-1.061,4.766c-0.135,0.615-0.27,1.229-0.396,1.848c-0.021,0.107-0.061,0.141-0.166,0.139
			c-0.52-0.002-1.037-0.002-1.557,0c-0.092,0.002-0.135-0.025-0.172-0.115c-0.211-0.527-0.4-1.062-0.596-1.596
			c-0.195-0.535-0.408-1.064-0.607-1.6c-0.305-0.818-0.604-1.639-0.904-2.459c-0.021-0.059-0.053-0.113-0.084-0.182
			c-0.1,0.145-0.1,0.316-0.135,0.473c-0.281,1.24-0.553,2.48-0.826,3.723c-0.123,0.551-0.243,1.104-0.358,1.654
			c-0.014,0.072-0.033,0.104-0.106,0.104c-0.537-0.002-1.076-0.002-1.617-0.002c0.104-0.557,0.233-1.094,0.352-1.635
			c0.113-0.541,0.236-1.078,0.357-1.619c0.16-0.713,0.307-1.43,0.469-2.141c0.164-0.727,0.316-1.453,0.486-2.176
			c0.061-0.27,0.119-0.539,0.18-0.811c0.014-0.055,0.061-0.041,0.096-0.041c0.586,0,1.174,0,1.76,0
			C2433.708,2025.383,2433.73,2025.389,2433.751,2025.407z"/>
		<path fill="#E6E6E6" d="M2482.78,2027.967c-0.019-0.088-0.035-0.178-0.05-0.268c-0.1-0.803-0.452-1.453-1.135-1.912
			c-0.516-0.354-1.104-0.498-1.707-0.59c-0.082-0.029-0.17,0.006-0.252-0.027c-0.146,0-0.295,0-0.44,0
			c-0.097,0.037-0.195-0.006-0.293,0.027c-0.597,0.082-1.187,0.209-1.734,0.467c-0.629,0.297-1.186,0.684-1.635,1.232
			c-0.303,0.373-0.582,0.756-0.781,1.186c-0.342,0.74-0.571,1.516-0.631,2.332c-0.033,0.096,0.01,0.199-0.029,0.291
			c0,0.16,0,0.32,0,0.48c0.033,0.066,0.002,0.145,0.027,0.215c0.021,0.15,0.021,0.309,0.062,0.455
			c0.228,0.766,0.642,1.387,1.386,1.752c0.479,0.234,0.983,0.381,1.522,0.404c0.262,0.02,0.523,0.021,0.785,0
			c0.078-0.004,0.158,0.002,0.234-0.012c0.862-0.158,1.684-0.424,2.399-0.951c0.617-0.455,1.104-1.014,1.469-1.688
			c0.466-0.863,0.693-1.795,0.8-2.766C2482.8,2028.387,2482.798,2028.178,2482.78,2027.967z M2480.755,2028.588
			c-0.057,1.078-0.31,2.096-1.039,2.928c-0.635,0.721-1.438,1.062-2.408,0.945c-0.812-0.098-1.385-0.609-1.467-1.436
			c-0.139-1.391,0.211-2.654,1.229-3.66c0.598-0.592,1.354-0.838,2.202-0.719c0.89,0.129,1.425,0.727,1.48,1.627
			C2480.759,2028.379,2480.755,2028.483,2480.755,2028.588z"/>
		<path fill="#E6E6E6" d="M2458.458,2025.413c-0.104,0.434-0.217,0.869-0.301,1.307c-0.029,0.152-0.091,0.172-0.22,0.172
			c-1.405-0.004-2.813,0.002-4.223-0.006c-0.164-0.002-0.238,0.047-0.27,0.207c-0.088,0.457-0.174,0.918-0.291,1.369
			c-0.049,0.191,0.022,0.189,0.164,0.189c1.277-0.004,2.551,0.002,3.826-0.006c0.186-0.002,0.211,0.045,0.172,0.211
			c-0.092,0.377-0.172,0.758-0.25,1.141c-0.025,0.119-0.08,0.146-0.195,0.146c-1.297-0.006-2.59,0.002-3.887-0.01
			c-0.17-0.002-0.219,0.061-0.248,0.207c-0.137,0.65-0.281,1.305-0.426,1.973c0.09,0,0.174,0,0.258,0
			c1.453,0,2.908,0.004,4.358-0.002c0.17-0.002,0.211,0.029,0.162,0.209c-0.1,0.375-0.172,0.758-0.25,1.139
			c-0.022,0.105-0.063,0.15-0.182,0.15c-2.131-0.004-4.262-0.004-6.392-0.004c-0.024,0-0.051-0.006-0.086-0.008
			c0.197-0.869,0.408-1.732,0.584-2.602c0.164-0.816,0.354-1.623,0.521-2.439c0.16-0.771,0.346-1.545,0.512-2.318
			c0.07-0.33,0.137-0.664,0.229-0.988c0.032-0.082,0.104-0.064,0.17-0.064c2.051-0.002,4.1-0.002,6.147,0
			C2458.386,2025.383,2458.429,2025.374,2458.458,2025.413z"/>
		<path fill="#E6E6E6" d="M2466.122,2025.52c-0.094,0.398-0.201,0.793-0.272,1.193c-0.029,0.15-0.082,0.178-0.216,0.178
			c-0.764-0.004-1.526,0-2.291-0.004c-0.116,0-0.168,0.012-0.2,0.156c-0.437,2.016-0.884,4.029-1.328,6.045
			c-0.043,0.195-0.082,0.395-0.125,0.588c-0.021,0.084-0.053,0.131-0.156,0.131c-0.514-0.008-1.027-0.012-1.539,0
			c-0.162,0.004-0.154-0.084-0.137-0.176c0.076-0.363,0.164-0.723,0.242-1.086c0.127-0.586,0.266-1.168,0.381-1.756
			c0.108-0.557,0.258-1.104,0.381-1.658c0.102-0.455,0.188-0.912,0.287-1.367c0.057-0.254,0.105-0.51,0.17-0.758
			c0.051-0.193-0.076-0.113-0.127-0.113c-0.711-0.006-1.422-0.004-2.133-0.004c-0.312,0-0.322-0.002-0.264-0.309
			c0.075-0.393,0.172-0.781,0.26-1.172c0.057-0.047,0.127-0.025,0.188-0.025c2.229,0,4.455,0,6.685,0.002
			C2466.007,2025.385,2466.171,2025.313,2466.122,2025.52z"/>
		<path fill="#E6E6E6" d="M2429.727,2025.413c-0.146,0.633-0.291,1.266-0.433,1.896c-0.354,1.596-0.709,3.191-1.062,4.787
			c-0.111,0.51-0.217,1.018-0.322,1.525c-0.023,0.129-0.072,0.188-0.227,0.186c-0.545-0.012-1.091-0.004-1.652-0.004
			c0.186-0.812,0.375-1.611,0.545-2.416c0.164-0.773,0.35-1.547,0.51-2.322c0.166-0.814,0.361-1.621,0.523-2.438
			c0.075-0.391,0.162-0.785,0.27-1.172c0.014-0.066,0.064-0.074,0.117-0.074c0.562,0.002,1.121-0.002,1.682,0.002
			C2429.7,2025.385,2429.71,2025.401,2429.727,2025.413z"/>
		<path fill="#E6E6E6" d="M2473.505,2027.022c-0.103-0.688-0.447-1.182-1.108-1.434c-0.371-0.139-0.761-0.178-1.148-0.195
			c-0.027-0.008-0.051-0.012-0.078-0.012c-1.404,0-2.809,0-4.213,0.002c-0.043,0-0.094-0.02-0.125,0.031
			c-0.098,0.428-0.19,0.857-0.283,1.287c-0.141,0.678-0.33,1.346-0.463,2.025c-0.137,0.705-0.311,1.402-0.452,2.105
			c-0.104,0.5-0.23,0.994-0.341,1.492c-0.098,0.441-0.166,0.891-0.282,1.326c-0.039,0.146-0.021,0.15,0.102,0.15
			c0.507-0.002,1.013-0.002,1.519,0c0.096,0,0.143-0.006,0.168-0.127c0.146-0.703,0.305-1.406,0.467-2.107
			c0.08-0.346,0.123-0.701,0.248-1.037c0.633-0.035,1.266-0.027,1.896-0.004c0.239-0.035,0.473,0.027,0.7,0.082
			c0.097,0.021,0.201,0.062,0.283,0.146c0.242,0.244,0.197,0.545,0.146,0.824c-0.106,0.568-0.26,1.131-0.282,1.715
			c-0.021,0.131-0.021,0.264-0.002,0.395c0.006,0.07,0.022,0.117,0.114,0.115c0.601-0.004,1.195-0.004,1.795,0.002
			c0.084,0,0.115-0.041,0.138-0.104c0.022-0.068,0.02-0.129-0.058-0.164c-0.084-0.041-0.127-0.109-0.127-0.201
			c-0.037-0.113-0.024-0.225-0.006-0.336c0-0.025-0.006-0.053-0.002-0.076c0.109-0.574,0.219-1.148,0.328-1.723
			c0.021-0.197,0.021-0.395,0-0.59c-0.066-0.328-0.24-0.57-0.543-0.721c-0.049-0.023-0.131-0.037-0.131-0.105
			c0.002-0.082,0.094-0.08,0.146-0.1c0.351-0.133,0.621-0.367,0.877-0.629c0.404-0.416,0.605-0.932,0.718-1.486
			C2473.525,2027.389,2473.521,2027.204,2473.505,2027.022z M2471.429,2027.967c-0.157,0.637-0.573,1.002-1.237,1.057
			c-0.808,0.066-1.617,0.014-2.427,0.027c-0.084,0.002-0.112-0.016-0.09-0.111c0.152-0.672,0.303-1.346,0.443-2.02
			c0.022-0.111,0.082-0.115,0.164-0.115c0.396,0.002,0.791,0.002,1.186,0.002v0.004c0.361,0,0.724-0.008,1.084,0.004
			C2471.275,2026.833,2471.604,2027.27,2471.429,2027.967z"/>
	</g>
</g>
<g>
	<g>
		<g>
			<g>
				<path fill="#333333" d="M-515.769,314.531c6.236,0,11.338,5.103,11.338,11.338v2.239c0,6.236-5.103,11.338-11.338,11.338
					H-658.98c-6.236,0-11.338-5.103-11.338-11.338v-2.239c0-6.236,5.103-11.338,11.338-11.338H-515.769z"/>
				<path fill="none" stroke="#5A5A5A" stroke-width="2" stroke-miterlimit="10" d="M-515.769,314.531
					c6.236,0,11.338,5.103,11.338,11.338v2.239c0,6.236-5.103,11.338-11.338,11.338H-658.98c-6.236,0-11.338-5.103-11.338-11.338
					v-2.239c0-6.236,5.103-11.338,11.338-11.338H-515.769z"/>
			</g>
			<path fill="#333333" stroke="#5A5A5A" stroke-width="2" stroke-miterlimit="10" d="M-852.992,125.873
				c-0.198,0.769-0.359,3.298-0.359,5.621c0,2.323-1.188,4.223-2.641,4.223c-1.453,0-3.001,0.162-3.442,0.359
				c-0.441,0.197-0.803,7.741-0.803,15.679v473.724c0,7.938,0.161,14.795,0.359,15.236c0.198,0.439,7.742,0.801,15.681,0.801
				h131.726c7.938,0,14.795-0.158,15.235-0.355c0.441-0.201,0.804-7.744,0.804-15.682V384.488c0-7.938,6.495-14.433,14.434-14.433
				h51.159c7.939,0,14.796-0.161,15.237-0.36c0.441-0.198,0.803-7.742,0.803-15.68v-16.529c0-7.938,6.495-14.433,14.435-14.433
				h81.501c7.938,0,14.434-5.606,14.434-12.458c0-6.851-6.495-12.457-14.434-12.457h-81.501c-7.939,0-14.435-2.958-14.435-6.573
				c0-3.616-0.161-6.935-0.359-7.377c-0.197-0.442-7.741-0.803-15.681-0.803h-51.159c-7.938,0-14.434-6.496-14.434-14.434V151.755
				c0-7.938-0.162-14.794-0.359-15.236c-0.198-0.441-4.536-0.803-8.558-0.803s-7.311-1.9-7.311-4.223
				c0-2.323-0.162-4.852-0.36-5.621c-0.198-0.769-7.741-1.397-15.68-1.397h-108.613
				C-845.252,124.475-852.795,125.104-852.992,125.873z"/>
		</g>
		<g>
			<path fill="#333333" stroke="#5A5A5A" stroke-width="2" stroke-miterlimit="10" d="M-1274.747,843.6
				c0,0.713,0.576,1.289,1.287,1.289h321.595c0.711,0,1.288-0.576,1.288-1.289V726.834c0-0.711-0.577-1.289-1.288-1.289h-321.595
				c-0.711,0-1.287,0.578-1.287,1.289V843.6z"/>
			<g>
				<g>
					<circle fill="#5D5D5D" stroke="#5A5A5A" stroke-width="2" stroke-miterlimit="10" cx="-1111.602" cy="772.242" r="10.886"/>
					<circle fill="#5D5D5D" stroke="#5A5A5A" stroke-width="2" stroke-miterlimit="10" cx="-1070.789" cy="794.128" r="10.886"/>
					<circle fill="#5D5D5D" stroke="#5A5A5A" stroke-width="2" stroke-miterlimit="10" cx="-1152.414" cy="794.129" r="10.885"/>
				</g>
				<g>
					<path fill="none" stroke="#5A5A5A" stroke-width="2" stroke-miterlimit="10" d="M-1154.263,820.801
						c-6.236,0-15.527-2.916-20.646-6.479l-35.387-24.629c-5.119-3.562-5.119-9.393,0-12.953l35.387-24.629
						c5.119-3.562,14.409-6.479,20.646-6.479h85.321c6.236,0,15.527,2.916,20.646,6.479l35.388,24.629
						c5.119,3.561,5.119,9.391,0,12.953l-35.388,24.629c-5.119,3.562-14.409,6.479-20.646,6.479H-1154.263z"/>
				</g>
			</g>
			<g>
				<path fill="none" stroke="#5A5A5A" stroke-width="2" stroke-miterlimit="10" d="M-966.95,816.042
					c0,9.355-7.653,17.008-17.008,17.008h-256.984c-9.354,0-17.008-7.652-17.008-17.008v-63.984c0-9.354,7.653-17.008,17.008-17.008
					h256.984c9.354,0,17.008,7.654,17.008,17.008V816.042z"/>
			</g>
		</g>
		<g>
			<path fill="#333333" stroke="#5A5A5A" stroke-width="2" stroke-miterlimit="10" d="M-966.688,154.237
				c0,1.406-1.14,2.546-2.546,2.546h-284.003c-1.406,0-2.546-1.14-2.546-2.546v-23.112c0-1.406,1.14-2.546,2.546-2.546h284.003
				c1.406,0,2.546,1.14,2.546,2.546V154.237L-966.688,154.237z"/>
			<g>
				<path fill="#333333" d="M-946.624,627.04c0,9.354-7.653,17.008-17.008,17.008h-290.115c-9.354,0-17.008-7.654-17.008-17.008
					V164.133c0-9.354,7.653-17.008,17.008-17.008h290.115c9.354,0,17.008,7.653,17.008,17.008V627.04L-946.624,627.04z"/>
				<path fill="none" stroke="#5A5A5A" stroke-width="2" stroke-miterlimit="10" d="M-946.624,627.04
					c0,9.354-7.653,17.008-17.008,17.008h-290.115c-9.354,0-17.008-7.654-17.008-17.008V164.133c0-9.354,7.653-17.008,17.008-17.008
					h290.115c9.354,0,17.008,7.653,17.008,17.008V627.04L-946.624,627.04z"/>
			</g>
			<path fill="none" stroke="#5A5A5A" stroke-width="2" stroke-miterlimit="10" d="M-1069.325,451.226
				c-8.905,0-17.02,3.625-22.849,9.494l-10.665,10.662l0.006,0.002l-29.369,29.393c-4.374,4.373-10.46,7.111-17.157,7.111
				c-13.375,0-24.229-10.895-24.229-24.27c0-13.377,10.894-24.27,24.229-24.27c5.379,0,10.337,1.742,14.368,4.713l1.809,1.685
				c0.039,0.157,0.052,0.326,0.03,0.473l-1.252,8.513c-0.047,0.32,0.102,0.771,0.333,1.002l2.976,2.977
				c0.229,0.232,0.604,0.232,0.835,0l1.249-1.25c0.229-0.229,0.605-0.229,0.837,0l3.288,3.289c0.229,0.229,0.604,0.605,0.834,0.836
				l0.019,0.018c0.229,0.23,0.605,0.605,0.837,0.834l0.556,0.561c0.037,0.035,0.081,0.064,0.125,0.092
				c0.073,0.045,0.15,0.072,0.232,0.082l-0.005,0.006c0.015,0,0.031,0,0.046,0c0.03,0,0.063,0,0.095-0.002
				c0.639-0.014,1.272-0.262,1.757-0.746c0.49-0.488,0.755-1.139,0.749-1.771c0.003-0.031,0.002-0.064-0.001-0.098
				c0-0.01,0.001-0.02,0-0.029l-0.001,0.004c-0.02-0.125-0.071-0.246-0.165-0.34l-0.557-0.557c-0.112-0.111-0.258-0.258-0.404-0.404
				l-0.004,0.004c-0.161-0.162-0.325-0.324-0.448-0.447l-0.017-0.018c-0.229-0.229-0.605-0.605-0.836-0.834l-3.287-3.289
				c-0.23-0.23-0.23-0.605,0-0.836l1.299-1.299c0.229-0.23,0.604-0.23,0.836,0l4.092,4.094c0.23,0.229,0.604,0.604,0.835,0.834
				l0.018,0.018c0.23,0.23,0.606,0.607,0.837,0.836l0.557,0.557c0.096,0.096,0.215,0.148,0.339,0.164l-0.005,0.008
				c0.015,0,0.029-0.002,0.045-0.002c0.032,0.002,0.063,0.002,0.096-0.002c0.638-0.016,1.271-0.26,1.757-0.746
				c0.488-0.488,0.753-1.141,0.749-1.771c0.003-0.031,0.003-0.062,0-0.098c0-0.01,0-0.02,0-0.029l-0.003,0.004
				c-0.017-0.125-0.07-0.246-0.166-0.34l-0.557-0.557c-0.229-0.23-0.605-0.605-0.834-0.836l-4.946-4.945
				c-0.23-0.23-0.23-0.605,0-0.834l1.297-1.297c0.23-0.232,0.604-0.232,0.835,0l3.289,3.285c0.229,0.229,0.604,0.605,0.835,0.836
				l0.018,0.018c0.122,0.123,0.285,0.285,0.448,0.447c0.141,0.143,0.279,0.281,0.387,0.391l0.016,0.012l0.543,0.543l0.015,0.016
				c0.094,0.098,0.215,0.148,0.339,0.166l-0.006,0.006c0.016,0,0.031-0.002,0.046-0.002c0.032,0.002,0.063,0.002,0.096-0.002
				c0.637-0.014,1.271-0.26,1.756-0.744c0.489-0.49,0.754-1.143,0.75-1.773c0.002-0.029,0.002-0.062,0-0.096c0-0.008,0-0.02,0-0.031
				l-0.003,0.006c-0.017-0.125-0.069-0.246-0.165-0.342l-0.015-0.014l-0.543-0.543l-0.016-0.012
				c-0.107-0.109-0.246-0.25-0.388-0.395c-0.161-0.16-0.324-0.322-0.447-0.443l-0.018-0.02c-0.23-0.229-0.606-0.605-0.836-0.836
				l-3.286-3.289c-0.231-0.229-0.231-0.604,0-0.833l1.249-1.25c0.229-0.23,0.229-0.605,0-0.839l-2.976-2.976
				c-0.23-0.229-0.68-0.381-1.002-0.33l-8.517,1.253c-0.147,0.021-0.321,0.016-0.489-0.014l-2.001-1.491
				c-5.527-4.396-12.503-7.021-20.075-7.021c-17.828,0-32.307,14.518-32.307,32.344c0,17.828,14.518,32.346,32.306,32.346
				c8.903,0,17.019-3.623,22.85-9.494l31.809-31.801l-0.011-0.02l8.229-8.234c4.373-4.373,10.459-7.113,17.156-7.109
				c13.376-0.004,24.23,10.89,24.23,24.267c0,13.375-10.894,24.27-24.23,24.27c-6.697,0-12.745-2.699-17.156-7.111l-2.139-2.088
				l-1.594-1.9c-0.047-0.225-0.066-0.436-0.066-0.436l-0.838-10.602c0.047-0.322-0.103-0.773-0.332-1.006l-2.976-2.973
				c-0.23-0.232-0.606-0.232-0.837,0l-16.038,16.037c-0.23,0.229-0.23,0.605-0.002,0.836l2.977,2.979
				c0.229,0.229,0.68,0.381,1.002,0.33l10.605,0.834c0,0,0.22,0.014,0.459,0.045l1.891,1.604l2.117,2.051
				c5.868,5.869,13.943,9.496,22.849,9.496c17.828,0,32.306-14.52,32.306-32.346
				C-1037.02,465.742-1051.537,451.226-1069.325,451.226z"/>
		</g>
		<g>
			<g>
				
					<line fill="none" stroke="#5A5A5A" stroke-width="2" stroke-miterlimit="10" x1="-1296.068" y1="727.833" x2="-1296.068" y2="842.604"/>
				<g>
					<polygon fill="#5A5A5A" points="-1299.459,731.815 -1296.068,728.422 -1292.678,731.815 -1292.678,728.938 -1296.068,725.545 
						-1299.459,728.938 					"/>
				</g>
				<g>
					<polygon fill="#5A5A5A" points="-1299.459,838.62 -1296.068,842.012 -1292.678,838.62 -1292.678,841.499 -1296.068,844.889 
						-1299.459,841.499 					"/>
				</g>
			</g>
		</g>
		<g>
			<g>
				
					<line fill="none" stroke="#5A5A5A" stroke-width="2" stroke-miterlimit="10" x1="-1334.216" y1="130.865" x2="-1334.216" y2="143.542"/>
				<g>
					<polygon fill="#5A5A5A" points="-1337.606,134.849 -1334.216,131.456 -1330.825,134.849 -1330.825,131.97 -1334.216,128.579 
						-1337.606,131.97 					"/>
				</g>
				<g>
					<polygon fill="#5A5A5A" points="-1337.606,139.559 -1334.216,142.952 -1330.825,139.559 -1330.825,142.438 -1334.216,145.829 
						-1337.606,142.438 					"/>
				</g>
			</g>
		</g>
		<g>
			<g>
				
					<line fill="none" stroke="#5A5A5A" stroke-width="2" stroke-miterlimit="10" x1="-1307.828" y1="148.115" x2="-1307.828" y2="643.051"/>
				<g>
					<polygon fill="#5A5A5A" points="-1311.219,152.098 -1307.828,148.706 -1304.438,152.098 -1304.438,149.219 -1307.828,145.829 
						-1311.219,149.219 					"/>
				</g>
				<g>
					<polygon fill="#5A5A5A" points="-1311.219,639.067 -1307.828,642.459 -1304.438,639.067 -1304.438,641.946 -1307.828,645.336 
						-1311.219,641.946 					"/>
				</g>
			</g>
		</g>
		<g>
			<g>
				
					<line fill="none" stroke="#5A5A5A" stroke-width="2" stroke-miterlimit="10" x1="-1272.461" y1="707.106" x2="-952.862" y2="707.106"/>
				<g>
					<polygon fill="#5A5A5A" points="-1268.478,710.497 -1271.87,707.106 -1268.478,703.715 -1271.356,703.715 -1274.747,707.106 
						-1271.356,710.497 					"/>
				</g>
				<g>
					<polygon fill="#5A5A5A" points="-956.846,710.497 -953.453,707.106 -956.846,703.715 -953.967,703.715 -950.576,707.106 
						-953.967,710.497 					"/>
				</g>
			</g>
		</g>
		<g>
			<g>
				
					<line fill="none" stroke="#5A5A5A" stroke-width="2" stroke-miterlimit="10" x1="-1270" y1="94.705" x2="-948.606" y2="94.705"/>
				<g>
					<polygon fill="#5A5A5A" points="-1266.017,98.095 -1269.409,94.705 -1266.017,91.314 -1268.896,91.314 -1272.286,94.705 
						-1268.896,98.095 					"/>
				</g>
				<g>
					<polygon fill="#5A5A5A" points="-952.59,98.095 -949.197,94.705 -952.59,91.314 -949.711,91.314 -946.32,94.705 
						-949.711,98.095 					"/>
				</g>
			</g>
		</g>
		<g>
			<g>
				
					<line fill="none" stroke="#5A5A5A" stroke-width="2" stroke-miterlimit="10" x1="-857.951" y1="94.706" x2="-699.541" y2="94.706"/>
				<g>
					<polygon fill="#5A5A5A" points="-853.968,98.096 -857.36,94.706 -853.968,91.315 -856.847,91.315 -860.237,94.706 
						-856.847,98.096 					"/>
				</g>
				<g>
					<polygon fill="#5A5A5A" points="-703.524,98.096 -700.132,94.706 -703.524,91.315 -700.646,91.315 -697.255,94.706 
						-700.646,98.096 					"/>
				</g>
			</g>
		</g>
		<g>
			<g>
				
					<line fill="none" stroke="#5A5A5A" stroke-width="2" stroke-miterlimit="10" x1="-689.34" y1="245.975" x2="-618.628" y2="245.975"/>
				<g>
					<polygon fill="#5A5A5A" points="-685.356,249.366 -688.749,245.975 -685.356,242.584 -688.235,242.584 -691.626,245.975 
						-688.235,249.366 					"/>
				</g>
				<g>
					<polygon fill="#5A5A5A" points="-622.611,249.366 -619.219,245.975 -622.611,242.584 -619.732,242.584 -616.342,245.975 
						-619.732,249.366 					"/>
				</g>
			</g>
		</g>
		<g>
			<g>
				
					<line fill="none" stroke="#5A5A5A" stroke-width="2" stroke-miterlimit="10" x1="-607.057" y1="276.806" x2="-506.717" y2="276.806"/>
				<g>
					<polygon fill="#5A5A5A" points="-603.073,280.196 -606.466,276.806 -603.073,273.415 -605.952,273.415 -609.343,276.806 
						-605.952,280.196 					"/>
				</g>
				<g>
					<polygon fill="#5A5A5A" points="-510.7,280.196 -507.308,276.806 -510.7,273.415 -507.821,273.415 -504.431,276.806 
						-507.821,280.196 					"/>
				</g>
			</g>
		</g>
	</g>
	<g>
		<rect x="-1166.634" y="68.37" fill="#333333" width="110.798" height="50.122"/>
		<text transform="matrix(1 0 0 1 -1137.2305 99.0649)" fill="#FFFFFF" font-family="'HelveticaNeue'" font-size="16.7928">59 mm</text>
	</g>
	<g>
		<rect x="-1330.565" y="345.322" fill="#333333" width="45.477" height="100.528"/>
		
			<text transform="matrix(-4.371139e-08 1 -1 -4.371139e-08 -1312.9434 371.8325)" fill="#FFFFFF" font-family="'MyriadPro-Regular'" font-size="15.2365">89  mm</text>
	</g>
	<g>
		<rect x="-833.271" y="68.189" fill="#333333" width="111.597" height="50.483"/>
		<g>
			<text transform="matrix(1 0 0 1 -803.4692 99.0366)" fill="#FFFFFF" font-family="'HelveticaNeue'" font-size="16.7928">29 mm</text>
		</g>
	</g>
	<g>
		<rect x="-672.905" y="232.685" fill="#333333" width="41.821" height="26.581"/>
		<text transform="matrix(1 0 0 1 -664.6001 248.9634)" fill="#FFFFFF" font-family="'MyriadPro-Regular'" font-size="8.9056">13 mm</text>
	</g>
	<g>
		<rect x="-579.662" y="263.515" fill="#333333" width="41.821" height="26.581"/>
		<text transform="matrix(1 0 0 1 -571.3555 279.7935)" fill="#FFFFFF" font-family="'MyriadPro-Regular'" font-size="8.9056">14 mm</text>
	</g>
</g>
<path fill="#FFFFFF" d="M979.415-1058.8c-11.14,0-21.294,4.535-28.59,11.88l-13.341,13.336l0.007,0.007l-36.745,36.771
	c-5.472,5.471-13.087,8.897-21.467,8.897c-16.734,0-30.314-13.629-30.314-30.364c0-16.734,13.629-30.363,30.314-30.363
	c6.729,0,12.934,2.18,17.977,5.896l2.263,2.107c0.049,0.196,0.065,0.405,0.038,0.59l-1.564,10.651
	c-0.061,0.402,0.128,0.967,0.415,1.254l3.724,3.723c0.287,0.288,0.758,0.288,1.046,0l1.562-1.563c0.288-0.287,0.758-0.288,1.046,0
	l4.113,4.114c0.287,0.287,0.758,0.757,1.046,1.045l0.021,0.022c0.288,0.288,0.758,0.759,1.046,1.046l0.696,0.696
	c0.047,0.047,0.101,0.084,0.156,0.116c0.09,0.055,0.188,0.091,0.291,0.105l-0.006,0.006c0.02,0,0.038-0.001,0.057-0.001
	c0.04,0.002,0.08,0.001,0.119-0.002c0.799-0.018,1.59-0.325,2.198-0.933c0.611-0.612,0.941-1.426,0.938-2.216
	c0.003-0.04,0.003-0.08-0.001-0.12c-0.001-0.013,0.001-0.025,0-0.038l-0.003,0.003c-0.021-0.156-0.088-0.305-0.207-0.424
	l-0.696-0.697c-0.14-0.139-0.321-0.321-0.505-0.505l-0.006,0.005c-0.201-0.201-0.405-0.405-0.558-0.558l-0.022-0.023
	c-0.288-0.287-0.759-0.757-1.046-1.045l-4.114-4.113c-0.286-0.288-0.286-0.758,0-1.045l1.626-1.625c0.287-0.288,0.758-0.288,1.046,0
	l5.119,5.12c0.288,0.288,0.759,0.758,1.045,1.045l0.022,0.022c0.288,0.288,0.759,0.758,1.046,1.046l0.697,0.697
	c0.118,0.118,0.269,0.187,0.424,0.206l-0.006,0.005c0.019,0.001,0.037,0,0.057,0c0.039,0.002,0.079,0.001,0.118-0.002
	c0.8-0.018,1.591-0.325,2.199-0.933c0.61-0.612,0.941-1.426,0.938-2.216c0.003-0.04,0.002-0.08-0.001-0.12
	c-0.001-0.013,0.001-0.025-0.001-0.038l-0.002,0.003c-0.021-0.155-0.088-0.305-0.207-0.424l-0.695-0.697
	c-0.288-0.288-0.76-0.758-1.046-1.045l-6.188-6.188c-0.288-0.288-0.288-0.758,0-1.046l1.623-1.623c0.287-0.288,0.758-0.288,1.046,0
	l4.112,4.114c0.288,0.287,0.759,0.757,1.046,1.045l0.021,0.022c0.152,0.153,0.357,0.357,0.56,0.559
	c0.178,0.177,0.353,0.352,0.487,0.487l0.018,0.019l0.679,0.678l0.021,0.019c0.118,0.119,0.269,0.186,0.424,0.207l-0.006,0.006
	c0.019,0,0.037-0.001,0.056-0.001c0.04,0.002,0.08,0.001,0.12-0.002c0.797-0.018,1.589-0.325,2.198-0.933
	c0.61-0.613,0.941-1.426,0.938-2.217c0.003-0.04,0.002-0.08-0.001-0.119c-0.001-0.013,0-0.026,0-0.039l-0.004,0.003
	c-0.021-0.155-0.087-0.305-0.206-0.424l-0.019-0.02l-0.68-0.678l-0.019-0.018c-0.135-0.135-0.31-0.31-0.486-0.487
	c-0.202-0.201-0.405-0.405-0.56-0.558l-0.021-0.023c-0.287-0.287-0.759-0.757-1.046-1.045l-4.112-4.114
	c-0.287-0.288-0.287-0.758,0-1.045l1.562-1.563c0.288-0.288,0.288-0.758,0-1.046l-3.723-3.725c-0.287-0.288-0.853-0.476-1.254-0.416
	l-10.655,1.57c-0.185,0.027-0.402,0.019-0.612-0.016l-2.503-1.867c-6.916-5.501-15.643-8.784-25.118-8.784
	c-22.306,0-40.42,18.164-40.421,40.468c0.001,22.305,18.165,40.469,40.42,40.469c11.142,0,21.294-4.535,28.59-11.88l39.798-39.786
	l-0.014-0.026l10.295-10.302c5.473-5.472,13.087-8.898,21.467-8.897c16.734,0,30.313,13.629,30.314,30.364
	c0,16.734-13.63,30.363-30.314,30.363c-8.38,0-15.945-3.377-21.467-8.897l-2.676-2.612l-1.993-2.377
	c-0.059-0.282-0.083-0.545-0.083-0.545l-1.049-13.265c0.061-0.402-0.127-0.967-0.415-1.254l-3.724-3.724
	c-0.287-0.288-0.758-0.288-1.046,0l-20.068,20.068c-0.288,0.288-0.288,0.758,0,1.046l3.723,3.725
	c0.287,0.288,0.853,0.475,1.255,0.416l13.27,1.044c0,0,0.274,0.013,0.573,0.054l2.367,2.004l2.646,2.568
	c7.345,7.345,17.45,11.879,28.59,11.879c22.306,0,40.419-18.164,40.419-40.468C1019.834-1040.636,1001.67-1058.8,979.415-1058.8z"/>
<text transform="matrix(1 0 0 1 841.1113 -940.0767)" fill="#FFFFFF" font-family="'HelveticaNeue-Light'" font-size="30.5911">SAV</text>
<text transform="matrix(1 0 0 1 897.7969 -940.0767)" fill="#FFFFFF" font-family="'HelveticaNeue-Light'" font-size="30.5911">ENERGY</text>
<polygon fill="#E6E6E6" points="2772.905,1923.598 2760.811,1959.883 2772.905,1959.883 2760.811,1996.168 2797.095,1959.883 
	2785,1959.883 2809.189,1923.598 "/>
<g>
	<path fill="#E6E6E6" d="M2640.057,1914.305c-3.216,0-5.397,4.08-5.341,12.752c-0.058,8.559,2.01,12.639,5.397,12.639
		c3.392,0,5.229-4.252,5.229-12.752C2645.342,1918.672,2643.562,1914.305,2640.057,1914.305z"/>
	<path fill="#E6E6E6" d="M2671.434,1931.411c-1.029-0.959-1.641-2.307-1.683-3.711l-0.008-0.068l0.006-0.223
		c0.035-1.473,0.693-2.875,1.806-3.854l4.069-3.561c0.64-0.562,0.859-1.467,0.546-2.258l-3.476-8.771
		c-0.199-0.498-0.578-0.893-1.072-1.104c-0.28-0.121-0.565-0.176-0.873-0.162l-5.397,0.189c-0.779,0.029-1.572-0.121-2.295-0.434
		c-0.646-0.279-1.211-0.668-1.688-1.16l-0.108-0.115c-0.974-1.057-1.476-2.486-1.382-3.926l0.359-5.396
		c0.057-0.852-0.431-1.646-1.211-1.984l-8.658-3.742c-0.78-0.338-1.693-0.146-2.272,0.477l-3.684,3.955
		c-1.018,1.096-2.458,1.711-3.957,1.688c-0.695-0.012-1.373-0.158-2.014-0.434c-0.719-0.311-1.369-0.785-1.885-1.371l-3.562-4.072
		c-0.198-0.227-0.438-0.402-0.715-0.52c-0.494-0.215-1.041-0.223-1.539-0.025l-8.772,3.479c-0.79,0.312-1.3,1.094-1.269,1.943
		l0.193,5.398c0.055,1.455-0.502,2.885-1.533,3.924l-0.07,0.072c-1.07,1.035-2.539,1.576-4.033,1.479l-5.399-0.359
		c-0.847-0.057-1.644,0.432-1.98,1.213l-3.741,8.656c-0.338,0.781-0.146,1.693,0.477,2.271l3.959,3.688
		c1.047,0.975,1.66,2.354,1.686,3.838l-0.007,0.277c-0.064,1.434-0.724,2.795-1.801,3.736l-4.07,3.561
		c-0.639,0.562-0.857,1.467-0.546,2.256l3.479,8.771c0.197,0.5,0.578,0.893,1.072,1.105c0.275,0.119,0.568,0.176,0.869,0.162
		l5.4-0.191c0.774-0.029,1.57,0.123,2.294,0.436c0.636,0.273,1.188,0.654,1.732,1.207l0.14,0.152
		c0.924,1.045,1.399,2.445,1.308,3.842l-0.36,5.4c-0.056,0.848,0.432,1.643,1.211,1.979l8.659,3.744
		c0.78,0.338,1.691,0.146,2.271-0.475l3.666-3.938c0.992-1.064,2.396-1.688,3.898-1.707l0.104,0.002
		c0.685,0.01,1.354,0.154,1.99,0.43c0.711,0.307,1.354,0.771,1.861,1.352l3.582,4.094c0.199,0.229,0.44,0.402,0.715,0.521
		c0.492,0.213,1.04,0.221,1.541,0.023l8.771-3.479c0.789-0.312,1.301-1.094,1.27-1.939l-0.194-5.412
		c-0.048-1.398,0.468-2.777,1.42-3.797l0.044-0.055l0.178-0.168c1.066-1.016,2.521-1.541,4-1.443l5.396,0.357
		c0.847,0.057,1.644-0.432,1.981-1.211l3.741-8.658c0.337-0.781,0.146-1.693-0.478-2.271L2671.434,1931.411z M2639.885,1946.299
		c-9.647,0-13.897-8.672-13.956-19.242c0-10.797,4.597-19.355,14.244-19.355c9.994,0,13.897,8.902,13.897,19.127
		C2654.071,1938.374,2649.421,1946.299,2639.885,1946.299z"/>
</g>
<rect x="-4412.925" y="-504.705" opacity="0.3" enable-background="new    " width="1950.087" height="984.715"/>
<g>
	<path fill="none" stroke="#5A5A5A" stroke-linecap="round" stroke-linejoin="round" stroke-miterlimit="10" d="M-121.372,291.12
		c-0.071-0.032-0.193-0.058-0.271-0.058h-50.928c-0.078,0-0.166,0.059-0.195,0.131l-2.188,5.377
		c-0.029,0.072-0.098,0.086-0.153,0.03l-5.354-5.438c-0.055-0.056-0.146-0.057-0.202-0.003l-4.472,4.274
		c-0.057,0.054-0.15,0.055-0.208,0.003l-4.759-4.32c-0.058-0.052-0.149-0.049-0.204,0.006l-4.187,4.308
		c-0.054,0.056-0.148,0.062-0.21,0.014l-5.439-4.295c-0.062-0.048-0.154-0.041-0.207,0.017c0,0-3.311,3.649-5.058,4.074
		c-1.572,0.382-3.531-4.72-4.969-4.179c-7.783,2.927-12.843,22.863-12.843,22.863c-0.019,0.075-0.035,0.201-0.035,0.279v37.323
		c0,0.078,0,0.142,0,0.142c0,0.001,0,0.064,0,0.143v37.323c0,0.078,0.016,0.203,0.035,0.279c0,0,5.06,19.935,12.843,22.862
		c1.438,0.541,3.397-4.561,4.969-4.179c1.747,0.425,5.058,4.073,5.058,4.073c0.052,0.059,0.145,0.066,0.207,0.018l5.439-4.295
		c0.062-0.049,0.156-0.042,0.21,0.014l4.187,4.308c0.054,0.056,0.146,0.059,0.204,0.006l4.759-4.319
		c0.058-0.053,0.151-0.052,0.208,0.002l4.472,4.275c0.057,0.054,0.147,0.052,0.202-0.003l5.354-5.439
		c0.055-0.055,0.124-0.042,0.153,0.03l2.188,5.379c0.029,0.072,0.117,0.131,0.195,0.131h50.928c0.078,0,0.2-0.026,0.271-0.058
		l22.812-22.813c0.032-0.07,0.058-0.192,0.058-0.271v-37.323c0-0.078,0-0.142,0-0.143c0,0,0-0.063,0-0.142v-37.323
		c0-0.078-0.026-0.2-0.058-0.271L-121.372,291.12z"/>
</g>
<g>
	<g>
		<g>
			<path fill="#333333" d="M322.329,524.565c0,19.499-15.807,35.309-35.309,35.309h-140.22c-7.945,0-7.87-15.81-7.87-35.309V409.037
				c0-19.501-5.944-35.309,7.87-35.309h140.22c19.501,0,35.309,15.807,35.309,35.309V524.565z"/>
			<path fill="#5A5A5A" d="M287.021,560.324h-140.22c-5.093,0-6.624-6.019-7.332-10.546c-0.99-6.32-0.989-14.825-0.989-24.673
				V409.037c0-4.906-0.383-9.65-0.722-13.835c-0.716-8.86-1.282-15.858,2.013-19.43c1.548-1.679,3.848-2.494,7.029-2.494h140.22
				c19.718,0,35.759,16.041,35.759,35.759v115.528C322.78,544.283,306.738,560.324,287.021,560.324z M146.801,374.179
				c-2.916,0-4.998,0.721-6.366,2.204c-3.027,3.282-2.476,10.106-1.777,18.746c0.34,4.202,0.725,8.965,0.725,13.908v116.068
				c0,9.402-0.001,18.283,0.978,24.533c1.044,6.675,3.091,9.784,6.441,9.784h140.22c19.221,0,34.858-15.638,34.858-34.857V409.037
				c0-19.221-15.637-34.858-34.858-34.858H146.801z"/>
		</g>
		<g>
			<path fill="#333333" d="M161.066,559.856c0.188,2.388-0.329,4.376-1.152,4.44l-6.029,0.474c-0.823,0.064-1.643-1.819-1.831-4.207
				l-14.708-187.405c-0.188-2.389,0.329-4.377,1.152-4.442l6.029-0.473c0.824-0.065,1.643,1.819,1.832,4.208L161.066,559.856z"/>
			<path fill="#5A5A5A" d="M153.844,565.222c-1.288,0-2.064-2.396-2.24-4.624l-14.708-187.405c-0.187-2.371,0.291-4.825,1.565-4.927
				l6.029-0.473c0.001,0,0.002,0,0.003,0c1.362,0,2.137,2.396,2.313,4.622l14.708,187.406c0.094,1.203,0.02,2.354-0.21,3.24
				c-0.346,1.332-0.928,1.65-1.356,1.685L153.844,565.222z M144.568,368.692l-6.035,0.474c-0.311,0.024-0.938,1.401-0.737,3.958
				l14.708,187.405c0.197,2.502,1.029,3.793,1.34,3.793v0.451l0.006-0.451l6.029-0.474c0.077-0.006,0.344-0.205,0.554-1.013
				c0.206-0.793,0.271-1.838,0.184-2.943l-14.708-187.405C145.711,369.983,144.88,368.692,144.568,368.692z"/>
		</g>
		<g>
			<path fill="#333333" d="M173.342,559.856c0.188,2.39-0.328,4.376-1.151,4.441l-6.029,0.473c-0.823,0.065-1.644-1.817-1.831-4.206
				l-14.708-187.406c-0.188-2.388,0.329-4.376,1.152-4.441l6.029-0.473c0.823-0.065,1.643,1.818,1.83,4.207L173.342,559.856z"/>
			<path fill="#5A5A5A" d="M166.121,565.222c-1.29,0-2.064-2.396-2.239-4.623l-14.709-187.406c-0.186-2.372,0.292-4.825,1.566-4.926
				l6.029-0.473c0.001,0,0.002,0,0.003,0c1.363,0,2.138,2.396,2.312,4.621l14.708,187.406c0.187,2.371-0.291,4.825-1.565,4.926
				L166.121,565.222z M156.845,368.692l-6.035,0.474c-0.312,0.024-0.939,1.4-0.739,3.957l14.709,187.405
				c0.196,2.503,1.027,3.793,1.34,3.793v0.451l0.005-0.451l6.03-0.473c0.312-0.024,0.938-1.401,0.737-3.957l-14.708-187.405
				C157.988,369.983,157.157,368.692,156.845,368.692z"/>
		</g>
		<g>
			<path fill="#333333" d="M185.62,559.856c0.188,2.39-0.329,4.376-1.152,4.44l-6.029,0.474c-0.823,0.065-1.643-1.818-1.831-4.206
				L161.9,373.158c-0.188-2.388,0.328-4.376,1.151-4.441l6.029-0.473c0.823-0.065,1.644,1.818,1.832,4.207L185.62,559.856z"/>
			<path fill="#5A5A5A" d="M178.397,565.222c-1.289,0-2.064-2.396-2.238-4.623L161.45,373.193c-0.095-1.203-0.02-2.354,0.209-3.24
				c0.345-1.332,0.928-1.651,1.356-1.686l6.029-0.473c0.001,0,0.001,0,0.002,0c1.365,0,2.139,2.396,2.314,4.622l14.708,187.405
				c0.095,1.203,0.02,2.355-0.21,3.24c-0.346,1.332-0.928,1.65-1.356,1.685L178.397,565.222z M169.122,368.692l-6.036,0.474
				c-0.077,0.006-0.344,0.205-0.553,1.012c-0.206,0.792-0.271,1.837-0.183,2.944l14.708,187.405
				c0.196,2.503,1.028,3.793,1.339,3.793v0.451l0.006-0.451l6.03-0.474c0.077-0.006,0.344-0.205,0.554-1.013
				c0.205-0.791,0.271-1.837,0.184-2.943l-14.708-187.405C170.266,369.983,169.433,368.692,169.122,368.692z"/>
		</g>
		<g>
			<path fill="#333333" d="M199.185,559.856c0.188,2.389-0.328,4.376-1.151,4.441l-6.029,0.473
				c-0.823,0.065-1.643-1.818-1.831-4.206l-14.708-187.406c-0.188-2.388,0.328-4.376,1.151-4.441l6.029-0.473
				c0.824-0.064,1.643,1.819,1.831,4.208L199.185,559.856z"/>
			<path fill="#5A5A5A" d="M191.963,565.222c-1.289,0-2.064-2.396-2.239-4.623l-14.708-187.406
				c-0.187-2.372,0.292-4.825,1.565-4.926l6.03-0.473c0.001,0,0.002,0,0.003,0c1.363,0,2.137,2.396,2.312,4.622l14.708,187.405
				c0.187,2.371-0.291,4.825-1.565,4.926L191.963,565.222z M182.687,368.692l-6.035,0.474c-0.312,0.024-0.938,1.4-0.738,3.957
				l14.708,187.405c0.196,2.503,1.028,3.793,1.34,3.793v0.451l0.005-0.451l6.03-0.473c0.312-0.024,0.938-1.401,0.737-3.957
				l-14.708-187.405C183.831,369.983,182.999,368.692,182.687,368.692z"/>
		</g>
		<g>
			<path fill="#333333" d="M212.453,559.854c0.188,2.39-0.329,4.378-1.152,4.443l-6.029,0.473c-0.823,0.065-1.643-1.818-1.83-4.208
				l-14.709-187.404c-0.188-2.388,0.329-4.377,1.152-4.442l6.029-0.473c0.823-0.065,1.643,1.819,1.831,4.208L212.453,559.854z"/>
			<path fill="#5A5A5A" d="M205.229,565.222c-1.289,0-2.063-2.397-2.238-4.625l-14.709-187.404
				c-0.187-2.371,0.291-4.825,1.566-4.927l6.029-0.473c0.001,0,0.002,0,0.003,0c1.363,0,2.138,2.396,2.313,4.623l14.708,187.403
				c0.186,2.372-0.292,4.827-1.566,4.928L205.229,565.222z M195.955,368.692l-6.035,0.474c-0.312,0.024-0.939,1.401-0.738,3.958
				l14.709,187.404c0.196,2.503,1.026,3.794,1.338,3.794v0.451l0.006-0.451l6.029-0.473c0.312-0.024,0.939-1.402,0.739-3.959
				l-14.709-187.403C197.098,369.983,196.267,368.692,195.955,368.692z"/>
		</g>
		<g>
			<path fill="#333333" d="M224.082,559.855c0.187,2.389-0.329,4.377-1.152,4.441l-6.029,0.474
				c-0.823,0.064-1.643-1.818-1.831-4.208l-14.708-187.404c-0.188-2.389,0.328-4.377,1.151-4.442l6.029-0.473
				c0.823-0.064,1.643,1.819,1.832,4.208L224.082,559.855z"/>
			<path fill="#5A5A5A" d="M216.859,565.222c-1.29,0-2.065-2.397-2.24-4.625l-14.708-187.404c-0.186-2.372,0.292-4.826,1.565-4.927
				l6.029-0.473c0.001,0,0.002,0,0.003,0c1.363,0,2.138,2.396,2.313,4.622l14.708,187.405c0.094,1.203,0.019,2.355-0.21,3.241
				c-0.346,1.332-0.928,1.65-1.356,1.685L216.859,565.222z M207.583,368.692l-6.035,0.474c-0.312,0.024-0.938,1.4-0.737,3.957
				l14.708,187.404c0.196,2.503,1.028,3.794,1.34,3.794v0.451l0.005-0.451l6.029-0.474c0.077-0.006,0.344-0.205,0.554-1.014
				c0.205-0.792,0.271-1.837,0.184-2.943l-14.708-187.404C208.727,369.983,207.895,368.692,207.583,368.692z"/>
		</g>
	</g>
	<g>
		<g>
			<path fill="#333333" d="M721.469,524.565c0,19.499,4.15,35.309-15.351,35.309H565.264c-19.501,0-35.309-15.81-35.309-35.309
				V409.037c0-19.501,15.808-35.309,35.309-35.309h140.854c19.501,0,15.351,15.807,15.351,35.309V524.565z"/>
			<path fill="#5A5A5A" d="M706.118,560.324H565.264c-19.718,0-35.759-16.041-35.759-35.759V409.037
				c0-19.718,16.041-35.759,35.759-35.759h140.854c5.586,0,9.547,1.289,12.109,3.941c4.518,4.675,4.227,13.174,3.89,23.014
				c-0.097,2.835-0.197,5.767-0.197,8.804v115.528c0,3.037,0.101,5.969,0.197,8.803c0.337,9.842,0.628,18.34-3.89,23.015
				C715.665,559.035,711.703,560.324,706.118,560.324z M565.264,374.179c-19.221,0-34.857,15.637-34.857,34.858v115.528
				c0,19.22,15.637,34.857,34.857,34.857h140.854c5.328,0,9.076-1.199,11.46-3.666c4.253-4.4,3.968-12.722,3.638-22.357
				c-0.098-2.843-0.198-5.781-0.198-8.834V409.037c0-3.053,0.101-5.993,0.198-8.835c0.33-9.636,0.615-17.957-3.637-22.357
				c-2.384-2.467-6.133-3.666-11.461-3.666H565.264z"/>
		</g>
		<g>
			<path fill="#333333" d="M721.841,565.562c0,2.544-2.062,4.605-4.605,4.605h-18.616c-2.546,0-4.605-2.062-4.605-4.605V365.991
				c0-2.544,2.06-4.605,4.605-4.605h18.616c2.543,0,4.605,2.062,4.605,4.605V565.562z"/>
			<path fill="#5A5A5A" d="M717.235,570.618h-18.616c-2.788,0-5.057-2.269-5.057-5.056V365.991c0-2.788,2.269-5.056,5.057-5.056
				h18.616c2.787,0,5.056,2.269,5.056,5.056v199.571C722.291,568.349,720.022,570.618,717.235,570.618z M698.619,361.836
				c-2.292,0-4.155,1.864-4.155,4.154v199.571c0,2.291,1.863,4.154,4.155,4.154h18.616c2.291,0,4.154-1.863,4.154-4.154V365.991
				c0-2.291-1.863-4.154-4.154-4.154H698.619z"/>
		</g>
	</g>
	<g>
		<g>
			<path fill="#333333" d="M561.006,641.428c0,6.782-5.495,12.281-12.281,12.281H224.268c-6.783,0-12.282-5.499-12.282-12.281
				V290.123c0-6.782,5.499-12.282,12.282-12.282h324.457c6.786,0,12.281,5.5,12.281,12.282V641.428z"/>
			<path fill="#5A5A5A" d="M548.725,654.161H224.268c-7.021,0-12.732-5.711-12.732-12.732V290.123
				c0-7.021,5.712-12.732,12.732-12.732h324.457c7.021,0,12.732,5.712,12.732,12.732v351.306
				C561.457,648.45,555.745,654.161,548.725,654.161z M224.268,278.292c-6.523,0-11.831,5.307-11.831,11.831v351.306
				c0,6.523,5.307,11.831,11.831,11.831h324.457c6.523,0,11.831-5.308,11.831-11.831V290.123c0-6.523-5.308-11.831-11.831-11.831
				H224.268z"/>
		</g>
		<g>
			<path fill="#5A5A5A" d="M386.497,590.822c-68.951,0-125.047-56.095-125.047-125.045c0-68.951,56.096-125.047,125.047-125.047
				s125.046,56.096,125.046,125.047C511.543,534.727,455.448,590.822,386.497,590.822z M386.497,341.631
				c-68.454,0-124.145,55.691-124.145,124.146c0,68.453,55.691,124.144,124.145,124.144c68.453,0,124.145-55.691,124.145-124.144
				C510.642,397.322,454.95,341.631,386.497,341.631z"/>
		</g>
		<g>
			<path fill="#5A5A5A" d="M439.798,422.63c-11.876,0-22.694,4.835-30.468,12.659l-14.218,14.216l0.009,0.002l-39.161,39.191
				c-5.833,5.83-13.946,9.48-22.875,9.48c-17.834,0-32.306-14.524-32.306-32.359c0-17.836,14.525-32.36,32.306-32.36
				c7.171,0,13.782,2.322,19.156,6.284l2.412,2.246c0.053,0.21,0.069,0.435,0.041,0.629l-1.669,11.351
				c-0.063,0.429,0.137,1.03,0.444,1.337l3.968,3.968c0.306,0.311,0.807,0.311,1.114,0l1.666-1.667c0.306-0.304,0.807-0.304,1.115,0
				l4.385,4.387c0.305,0.305,0.804,0.807,1.111,1.114l0.025,0.024c0.306,0.307,0.807,0.807,1.117,1.111l0.742,0.748
				c0.049,0.046,0.108,0.085,0.166,0.123c0.099,0.06,0.201,0.096,0.31,0.11l-0.007,0.007c0.021,0,0.042,0,0.062,0
				c0.039,0,0.083,0,0.126-0.003c0.852-0.018,1.696-0.349,2.343-0.996c0.652-0.651,1.006-1.517,0.998-2.361
				c0.004-0.042,0.002-0.085,0-0.13c0-0.014,0-0.025,0-0.039l-0.001,0.006c-0.027-0.167-0.095-0.33-0.22-0.455l-0.743-0.742
				c-0.15-0.148-0.345-0.343-0.539-0.54l-0.006,0.006c-0.215-0.216-0.434-0.432-0.597-0.597l-0.023-0.023
				c-0.305-0.304-0.806-0.807-1.115-1.111l-4.382-4.385c-0.307-0.308-0.307-0.808,0-1.115l1.731-1.732
				c0.305-0.307,0.805-0.307,1.115,0l5.457,5.459c0.306,0.304,0.805,0.803,1.113,1.111l0.024,0.023
				c0.306,0.308,0.808,0.811,1.115,1.116l0.744,0.742c0.127,0.127,0.286,0.198,0.452,0.219l-0.007,0.01
				c0.02,0,0.038-0.003,0.061-0.003c0.042,0.003,0.084,0.003,0.127-0.003c0.852-0.02,1.695-0.346,2.341-0.994
				c0.653-0.652,1.005-1.522,1-2.363c0.004-0.042,0.004-0.083,0-0.131c0-0.012,0-0.025,0-0.039l-0.004,0.004
				c-0.022-0.167-0.093-0.327-0.222-0.451l-0.741-0.742c-0.307-0.307-0.808-0.808-1.112-1.116l-6.596-6.593
				c-0.306-0.307-0.306-0.808,0-1.112l1.73-1.73c0.306-0.309,0.805-0.309,1.113,0l4.386,4.382c0.305,0.303,0.805,0.807,1.112,1.113
				l0.024,0.024c0.163,0.165,0.38,0.381,0.597,0.597c0.188,0.19,0.372,0.375,0.516,0.521l0.021,0.015l0.724,0.724l0.021,0.021
				c0.125,0.129,0.285,0.198,0.451,0.222l-0.007,0.006c0.021,0,0.041-0.001,0.061-0.001c0.043,0.001,0.085,0.001,0.128-0.003
				c0.85-0.018,1.694-0.347,2.342-0.991c0.651-0.655,1.005-1.525,0.999-2.366c0.002-0.039,0.002-0.084,0-0.127
				c0-0.01,0-0.025,0-0.042l-0.004,0.008c-0.022-0.167-0.091-0.327-0.22-0.456l-0.02-0.018l-0.723-0.725l-0.022-0.015
				c-0.143-0.146-0.327-0.334-0.516-0.526c-0.215-0.213-0.433-0.429-0.596-0.591l-0.025-0.027c-0.306-0.304-0.807-0.807-1.114-1.114
				l-4.381-4.385c-0.307-0.304-0.307-0.805,0-1.109l1.666-1.668c0.305-0.307,0.305-0.807,0-1.118l-3.968-3.967
				c-0.306-0.306-0.906-0.508-1.336-0.439l-11.355,1.67c-0.196,0.028-0.428,0.021-0.652-0.018l-2.667-1.989
				c-7.371-5.862-16.671-9.361-26.768-9.361c-23.771,0-43.076,19.355-43.076,43.125c0,23.771,19.357,43.127,43.075,43.127
				c11.871,0,22.692-4.831,30.467-12.658l42.413-42.401l-0.014-0.027l10.971-10.979c5.83-5.831,13.944-9.484,22.873-9.479
				c17.838-0.004,32.308,14.521,32.308,32.356c0,17.833-14.527,32.36-32.308,32.36c-8.929,0-16.991-3.599-22.873-9.482l-2.853-2.784
				l-2.125-2.533c-0.063-0.3-0.09-0.581-0.09-0.581l-1.117-14.136c0.063-0.43-0.135-1.031-0.44-1.34l-3.968-3.964
				c-0.306-0.312-0.808-0.312-1.117,0l-21.383,21.383c-0.306,0.304-0.306,0.807-0.002,1.115l3.97,3.97
				c0.306,0.307,0.907,0.509,1.337,0.441l14.137,1.111c0,0,0.294,0.019,0.613,0.06l2.522,2.139l2.821,2.735
				c7.824,7.825,18.59,12.66,30.464,12.66c23.773,0,43.077-19.358,43.077-43.128C482.869,441.986,463.512,422.63,439.798,422.63z"/>
		</g>
	</g>
	<g>
		<g>
			<path fill="#5A5A5A" d="M233.394,315.627c-7.151,0-12.97-5.818-12.97-12.969c0-7.152,5.818-12.97,12.97-12.97
				c7.152,0,12.97,5.818,12.97,12.97C246.363,309.81,240.545,315.627,233.394,315.627z M233.394,290.589
				c-6.654,0-12.068,5.415-12.068,12.069s5.414,12.067,12.068,12.067s12.068-5.413,12.068-12.067S240.048,290.589,233.394,290.589z"
				/>
		</g>
		<g>
			<path fill="#5A5A5A" d="M237.501,309.773h-8.216l-4.108-7.115l4.108-7.115h8.216l4.108,7.115L237.501,309.773z M229.806,308.872
				h7.175l3.588-6.213l-3.588-6.213h-7.175l-3.587,6.213L229.806,308.872z"/>
		</g>
		<g>
			<path fill="#5A5A5A" d="M542.474,315.627c-7.151,0-12.969-5.818-12.969-12.969c0-7.152,5.817-12.97,12.969-12.97
				c7.152,0,12.972,5.818,12.972,12.97C555.445,309.81,549.626,315.627,542.474,315.627z M542.474,290.589
				c-6.653,0-12.067,5.415-12.067,12.069s5.414,12.067,12.067,12.067c6.655,0,12.07-5.413,12.07-12.067
				S549.129,290.589,542.474,290.589z"/>
		</g>
		<g>
			<path fill="#5A5A5A" d="M546.584,309.773h-8.219l-4.105-7.115l4.105-7.115h8.219l4.106,7.115L546.584,309.773z M538.887,308.872
				h7.176l3.587-6.213l-3.587-6.213h-7.176l-3.586,6.213L538.887,308.872z"/>
		</g>
	</g>
	<g>
		<g>
			<path fill="#5A5A5A" d="M233.394,641.122c-7.151,0-12.97-5.818-12.97-12.97c0-7.152,5.818-12.971,12.97-12.971
				c7.152,0,12.97,5.818,12.97,12.971C246.363,635.303,240.545,641.122,233.394,641.122z M233.394,616.083
				c-6.654,0-12.068,5.414-12.068,12.069c0,6.653,5.414,12.067,12.068,12.067s12.068-5.414,12.068-12.067
				C245.461,621.497,240.048,616.083,233.394,616.083z"/>
		</g>
		<g>
			<path fill="#5A5A5A" d="M237.501,635.265h-8.216l-4.108-7.113l4.108-7.116h8.216l4.108,7.116L237.501,635.265z M229.806,634.364
				h7.175l3.588-6.212l-3.588-6.214h-7.175l-3.587,6.214L229.806,634.364z"/>
		</g>
		<g>
			<path fill="#5A5A5A" d="M542.474,641.122c-7.151,0-12.969-5.818-12.969-12.97c0-7.152,5.817-12.971,12.969-12.971
				c7.152,0,12.972,5.818,12.972,12.971C555.445,635.303,549.626,641.122,542.474,641.122z M542.474,616.083
				c-6.653,0-12.067,5.414-12.067,12.069c0,6.653,5.414,12.067,12.067,12.067c6.655,0,12.07-5.414,12.07-12.067
				C554.544,621.497,549.129,616.083,542.474,616.083z"/>
		</g>
		<g>
			<path fill="#5A5A5A" d="M546.584,635.265h-8.219l-4.105-7.113l4.105-7.116h8.219l4.106,7.116L546.584,635.265z M538.887,634.364
				h7.176l3.587-6.212l-3.587-6.214h-7.176l-3.586,6.214L538.887,634.364z"/>
		</g>
	</g>
</g>
<text transform="matrix(1 0 0 1 24.4102 459.854)" fill="#5A5A5A" font-family="'HelveticaNeue'" font-size="36">INPUT</text>
<text transform="matrix(1 0 0 1 738.4102 459.854)" fill="#5A5A5A" font-family="'HelveticaNeue'" font-size="36">OUTPUT</text>
<g>
	<g>
		<line fill="none" stroke="#5A5A5A" stroke-width="2" stroke-miterlimit="10" x1="24.41" y1="488.276" x2="109.339" y2="488.276"/>
		<g>
			<path fill="#5A5A5A" d="M121.409,488.276c-5.68,2.107-12.727,5.703-17.095,9.512l3.44-9.512l-3.44-9.51
				C108.683,482.575,115.729,486.17,121.409,488.276z"/>
		</g>
	</g>
</g>
<g>
	<g>
		
			<line fill="none" stroke="#5A5A5A" stroke-width="2" stroke-miterlimit="10" x1="738.41" y1="488.276" x2="871.339" y2="488.276"/>
		<g>
			<path fill="#5A5A5A" d="M883.409,488.276c-5.68,2.107-12.727,5.703-17.095,9.512l3.44-9.512l-3.44-9.51
				C870.683,482.575,877.729,486.17,883.409,488.276z"/>
		</g>
	</g>
</g>
</svg>
