<?xml version="1.0" encoding="utf-8"?>
<!-- Generator: Adobe Illustrator 16.0.0, SVG Export Plug-In . SVG Version: 6.00 Build 0)  -->
<!DOCTYPE svg PUBLIC "-//W3C//DTD SVG 1.1//EN" "http://www.w3.org/Graphics/SVG/1.1/DTD/svg11.dtd">
<svg version="1.1" id="Layer_1" xmlns="http://www.w3.org/2000/svg" xmlns:xlink="http://www.w3.org/1999/xlink" x="0px" y="0px"
	 width="53.9px" height="50px" viewBox="0 0 53.9 50" enable-background="new 0 0 53.9 50" xml:space="preserve">
<rect x="295.5" y="12.5" fill="#4C4D4D" width="235.8" height="427.4"/>
<image overflow="visible" enable-background="new    " width="466" height="728" xlink:href="D7A78D60913B8DA6.png"  transform="matrix(0.4987 0 0 0.4973 298.9246 34.6279)">
</image>
<path fill="#FFFFFF" d="M507.599-26.1H324c-20.4,0-37.1,16.7-37.1,37.1v435.1c0,20.4,16.699,37.101,37.1,37.101h183.6
	c20.4,0,37.101-16.7,37.101-37.101v-435C544.7-9.3,528-26.1,507.599-26.1z M528.3,424.9H301.2V21h227.1V424.9L528.3,424.9z"/>
<rect x="474.2" y="407.5" fill="#FFFFFF" width="10.5" height="10.2"/>
<circle fill="#FFFFFF" cx="414.4" cy="412.6" r="5.4"/>
<polygon fill="#FFFFFF" points="343.4,412.7 348.9,409.5 354.5,406.3 354.5,412.7 354.5,419.2 348.9,416 "/>
<circle fill="#666666" cx="26.9" cy="25" r="22"/>
<g id="_x23_020201ff">
	<path fill="#FFFFFF" d="M68.8,0c1.2-1.2,3-1.6,4.601-1.6c1.7,0,3.5,0,5.2,0c0,1.8,0,3.7,0,5.5c-1.101,0-2.2,0-3.4,0
		c-0.7,0-1.4,0.5-1.6,1.2c0,1.2,0,2.5,0,3.7c1.6,0,3.3,0,4.899,0c-0.1,1.8-0.3,3.5-0.6,5.3c-1.5,0-2.9,0-4.4,0c0,5.2,0,10.5,0,15.7
		c-2.2,0-4.3,0-6.5,0c0-5.2,0-10.5,0-15.7c-1.1,0-2.1,0-3.2,0c0-1.8,0-3.5,0-5.3c1.101,0,2.101,0,3.2,0c0-1.7,0-3.4,0-5.1
		C67.3,2.3,67.8,1,68.8,0z"/>
</g>
<g id="_x23_020201ff_1_">
	<path fill="#FFFFFF" d="M30.9,15.2c0.7-0.5,1.5-0.9,2.3-1c-0.1,0.5-0.6,0.8-1,1c0.6-0.2,1.3-0.5,1.9-0.5c0.199,0,0.399,0,0.5,0.2
		c0.1,0.3-0.2,0.5-0.4,0.6c-0.7,0.4-1.6,0.4-2.3,0.8c1.5-0.1,3,0.4,4.2,1.4c1.399,1.1,2.3,2.8,2.6,4.5c1.2,0.3,2.5,0.1,3.7-0.4
		c-0.601,1.3-2,1.9-3.4,2c1.101,0.4,2.3,0.5,3.5,0.4C41.6,25.2,40.1,25.6,38.8,25.6c-0.6,2.301-1.899,4.4-3.6,6
		c-3.4,3.101-8.1,4.5-12.6,4.2c-4.4-0.3-8.601-2.399-11.2-6c0.2,0.101,0.399,0.3,0.6,0.5c2,1.4,4.601,1.9,7,1.3
		c1.4-0.399,2.7-1.199,3.8-2.199C22.1,29.4,21.4,29.3,20.9,28.8c-0.3-0.3-0.4-0.8-0.2-1.1c0.2-0.5,0.7-0.8,1.2-1
		c-1.5,0.2-3.2-0.5-3.9-1.9c0.5-0.6,1.3-0.8,2.101-0.9c-0.9-0.3-1.801-0.6-2.5-1.2c-0.5-0.5-0.9-1.2-1-1.9
		c0.6-0.1,1.3-0.3,1.899-0.2c-1.5-0.8-2.8-2.2-2.7-3.9c2.801,1,5.5,2.1,8,3.5c0.9,0.5,1.7,1.2,2.4,1.9c0.7-1.9,1.5-3.7,2.7-5.4
		c0.6-0.9,1.399-1.7,2.3-2.2C31.1,14.7,31,14.9,30.9,15.2z"/>
</g>
</svg>
