<svg xmlns="http://www.w3.org/2000/svg" xmlns:xlink="http://www.w3.org/1999/xlink" version="1.1" id="Layer_1" x="0px" y="0px" width="100px" height="77.886px" viewBox="5.0 -7.7886 100.0 105.1461" enable-background="new 0 0 100 77.886" xml:space="preserve">
<path fill="#1a005f" d="M34.459,72.32h31.548c1.538,0,2.785,1.244,2.785,2.783c0,1.535-1.247,2.782-2.785,2.782H34.459  c-1.537,0-2.783-1.247-2.783-2.782C31.676,73.564,32.922,72.32,34.459,72.32"/>
<path id="_x3C_Path_x3E_" fill="#004b29" d="M96.723,0H3.28C1.23,0,0,1.23,0,3.279v59.837c0,2.049,2.049,3.278,4.099,3.278h92.624  c2.051,0,3.277-1.229,3.277-3.278V3.279C100,1.23,98.773,0,96.723,0 M95.083,59.836c0,1.023-0.615,1.641-1.638,1.641H6.557  c-1.024,0-1.638-0.617-1.638-1.641V6.558c0-1.025,0.613-1.64,1.638-1.64h86.888c1.021,0,1.638,0.614,1.638,1.64V59.836z"/>

</svg>